<svg width="51" height="36" viewBox="0 0 51 36" fill="none" xmlns="http://www.w3.org/2000/svg">
<rect x="5" y="3" width="46" height="33" rx="4" fill="#D7D7D7"/>
<rect y="3" width="46" height="33" rx="4" fill="white"/>
<rect x="10" width="3" height="8" rx="1.5" fill="#0E0E0E"/>
<rect x="32" width="3" height="8" rx="1.5" fill="#0E0E0E"/>
<rect x="13" y="13" width="26" height="3" rx="1" fill="#D9D9D9"/>
<rect x="13" y="20" width="26" height="3" rx="1" fill="#D9D9D9"/>
<rect x="13" y="27" width="26" height="3" rx="1" fill="#D9D9D9"/>
<rect width="5" height="3" rx="1" transform="matrix(-1 0 0 1 11 13)" fill="#E15B9B"/>
<rect width="5" height="3" rx="1" transform="matrix(-1 0 0 1 11 20)" fill="#65AD93"/>
<rect width="5" height="3" rx="1" transform="matrix(-1 0 0 1 11 27)" fill="#F7DC50"/>
</svg>
