<svg width="61" height="38" viewBox="0 0 61 38" fill="none" xmlns="http://www.w3.org/2000/svg">
<path d="M40.9416 7.90452C40.3092 8.53688 41.9955 12.9108 42.5225 14.6234L43.3129 14.2282L42.5225 10.6712L43.7081 9.48549L48.4509 8.69504L52.4031 9.88072V13.833C53.1936 13.0425 54.3792 9.09027 53.984 7.90459C53.6678 6.95605 52.5348 6.9824 52.0079 7.11414L51.6127 6.71884C47.2652 3.55704 41.732 7.11407 40.9416 7.90452Z" fill="#222744" stroke="#222744"/>
<path d="M6.1618 12.252C6.1618 8.54132 9.16993 5.5332 12.8806 5.5332V5.5332C16.5913 5.5332 19.5995 8.54132 19.5995 12.252V22.1327H6.1618V12.252Z" fill="#222744"/>
<path d="M42.5608 16.6441C41.9711 16.6441 41.493 16.166 41.493 15.5764V14.7477C41.493 14.158 41.9711 13.6799 42.5608 13.6799C43.1504 13.6799 43.6285 14.158 43.6285 14.7477V15.5764C43.6285 16.166 43.1504 16.6441 42.5608 16.6441Z" fill="#C16C6C"/>
<path d="M52.5211 16.6441C51.9314 16.6441 51.4533 16.166 51.4533 15.5764V14.7477C51.4533 14.158 51.9314 13.6799 52.5211 13.6799C53.1107 13.6799 53.5888 14.158 53.5888 14.7477V15.5764C53.5888 16.166 53.1107 16.6441 52.5211 16.6441Z" fill="#C16C6C"/>
<path d="M50.1943 18.0942H45.1424V24.1182H50.1943V18.0942Z" fill="#C16C6C"/>
<path d="M47.6764 21.2655C44.9831 21.2655 42.7998 19.0822 42.7998 16.3889V10.6996C42.7998 9.44059 43.8197 8.42065 45.0787 8.42065H50.29C51.5489 8.42065 52.5689 9.44059 52.5689 10.6996V16.3889C52.5529 19.0822 50.3696 21.2655 47.6764 21.2655Z" fill="#C16C6C"/>
<path d="M50.1944 20.5486V21.2817C49.4613 21.7279 48.6007 21.9829 47.6764 21.9829C46.7521 21.9829 45.8915 21.7279 45.1584 21.2817V20.5486C45.8915 20.9948 46.7521 21.2498 47.6764 21.2498C48.5848 21.2498 49.4613 20.9948 50.1944 20.5486Z" fill="#773535"/>
<path d="M57.5411 34.6684H37.7798V27.3057C37.7798 25.0906 39.5806 23.3057 41.7799 23.3057H53.5251C55.7402 23.3057 57.5251 25.1065 57.5251 27.3057V34.6684H57.5411Z" fill="#3569D2"/>
<path d="M42.1942 11.5283C42.7223 11.5283 43.1504 11.1002 43.1504 10.5722C43.1504 10.0441 42.7223 9.61597 42.1942 9.61597C41.6661 9.61597 41.238 10.0441 41.238 10.5722C41.238 11.1002 41.6661 11.5283 42.1942 11.5283Z" fill="#222744"/>
<path d="M42.5607 10.3172C43.0888 10.3172 43.5169 9.88906 43.5169 9.36097C43.5169 8.83289 43.0888 8.40479 42.5607 8.40479C42.0327 8.40479 41.6046 8.83289 41.6046 9.36097C41.6046 9.88906 42.0327 10.3172 42.5607 10.3172Z" fill="#222744"/>
<path d="M43.517 9.36111C44.0451 9.36111 44.4732 8.93301 44.4732 8.40492C44.4732 7.87683 44.0451 7.44873 43.517 7.44873C42.9889 7.44873 42.5608 7.87683 42.5608 8.40492C42.5608 8.93301 42.9889 9.36111 43.517 9.36111Z" fill="#222744"/>
<path d="M45.1425 9.02639C45.6706 9.02639 46.0987 8.59829 46.0987 8.0702C46.0987 7.54211 45.6706 7.11401 45.1425 7.11401C44.6144 7.11401 44.1863 7.54211 44.1863 8.0702C44.1863 8.59829 44.6144 9.02639 45.1425 9.02639Z" fill="#222744"/>
<path d="M46.7202 9.02639C47.2483 9.02639 47.6764 8.59829 47.6764 8.0702C47.6764 7.54211 47.2483 7.11401 46.7202 7.11401C46.1921 7.11401 45.764 7.54211 45.764 8.0702C45.764 8.59829 46.1921 9.02639 46.7202 9.02639Z" fill="#222744"/>
<path d="M48.1704 9.02639C48.6985 9.02639 49.1266 8.59829 49.1266 8.0702C49.1266 7.54211 48.6985 7.11401 48.1704 7.11401C47.6423 7.11401 47.2142 7.54211 47.2142 8.0702C47.2142 8.59829 47.6423 9.02639 48.1704 9.02639Z" fill="#222744"/>
<path d="M49.7163 9.02639C50.2443 9.02639 50.6725 8.59829 50.6725 8.0702C50.6725 7.54211 50.2443 7.11401 49.7163 7.11401C49.1882 7.11401 48.7601 7.54211 48.7601 8.0702C48.7601 8.59829 49.1882 9.02639 49.7163 9.02639Z" fill="#222744"/>
<path d="M51.1505 9.36111C51.6786 9.36111 52.1067 8.93301 52.1067 8.40492C52.1067 7.87683 51.6786 7.44873 51.1505 7.44873C50.6224 7.44873 50.1943 7.87683 50.1943 8.40492C50.1943 8.93301 50.6224 9.36111 51.1505 9.36111Z" fill="#222744"/>
<path d="M52.3617 10.3172C52.8898 10.3172 53.3179 9.88906 53.3179 9.36097C53.3179 8.83289 52.8898 8.40479 52.3617 8.40479C51.8336 8.40479 51.4055 8.83289 51.4055 9.36097C51.4055 9.88906 51.8336 10.3172 52.3617 10.3172Z" fill="#222744"/>
<path d="M52.5529 11.5283C53.081 11.5283 53.5091 11.1002 53.5091 10.5722C53.5091 10.0441 53.081 9.61597 52.5529 9.61597C52.0248 9.61597 51.5967 10.0441 51.5967 10.5722C51.5967 11.1002 52.0248 11.5283 52.5529 11.5283Z" fill="#222744"/>
<path d="M51.8358 10.8909C52.3639 10.8909 52.792 10.4628 52.792 9.93471C52.792 9.40662 52.3639 8.97852 51.8358 8.97852C51.3077 8.97852 50.8796 9.40662 50.8796 9.93471C50.8796 10.4628 51.3077 10.8909 51.8358 10.8909Z" fill="#222744"/>
<path d="M50.2741 10.3172C50.8021 10.3172 51.2303 9.88906 51.2303 9.36097C51.2303 8.83289 50.8021 8.40479 50.2741 8.40479C49.746 8.40479 49.3179 8.83289 49.3179 9.36097C49.3179 9.88906 49.746 10.3172 50.2741 10.3172Z" fill="#222744"/>
<path d="M49.1266 10.3172C49.6547 10.3172 50.0828 9.88906 50.0828 9.36097C50.0828 8.83289 49.6547 8.40479 49.1266 8.40479C48.5985 8.40479 48.1704 8.83289 48.1704 9.36097C48.1704 9.88906 48.5985 10.3172 49.1266 10.3172Z" fill="#222744"/>
<path d="M47.4851 10.3173C48.0396 10.3173 48.4891 9.86782 48.4891 9.31332C48.4891 8.75883 48.0396 8.30933 47.4851 8.30933C46.9306 8.30933 46.4811 8.75883 46.4811 9.31332C46.4811 9.86782 46.9306 10.3173 47.4851 10.3173Z" fill="#222744"/>
<path d="M45.764 10.3172C46.2921 10.3172 46.7202 9.88906 46.7202 9.36097C46.7202 8.83289 46.2921 8.40479 45.764 8.40479C45.2359 8.40479 44.8078 8.83289 44.8078 9.36097C44.8078 9.88906 45.2359 10.3172 45.764 10.3172Z" fill="#222744"/>
<path d="M44.1066 10.5723C44.6347 10.5723 45.0628 10.1442 45.0628 9.6161C45.0628 9.08801 44.6347 8.65991 44.1066 8.65991C43.5786 8.65991 43.1505 9.08801 43.1505 9.6161C43.1505 10.1442 43.5786 10.5723 44.1066 10.5723Z" fill="#222744"/>
<path d="M43.1504 10.8909C43.6785 10.8909 44.1066 10.4628 44.1066 9.93471C44.1066 9.40662 43.6785 8.97852 43.1504 8.97852C42.6223 8.97852 42.1942 9.40662 42.1942 9.93471C42.1942 10.4628 42.6223 10.8909 43.1504 10.8909Z" fill="#222744"/>
<path d="M50.4812 23.2896L51.6446 25.0107L47.8039 23.2896H50.4812Z" fill="white"/>
<path d="M45.1266 23.2896L43.9473 25.0107L47.8039 23.2896H45.1266Z" fill="white"/>
<path d="M47.8039 23.2896L46.2899 32.8196L47.6764 34.8913L49.3179 32.8196L47.8039 23.2896Z" fill="#222744"/>
<path d="M47.8038 24.5645L46.7202 23.7836L47.8038 23.2896L48.8716 23.7676L47.8038 24.5645Z" fill="#222744"/>
<path d="M41.6046 25.0107H41.238V34.6683H41.6046V25.0107Z" fill="#3D7CEA"/>
<path d="M53.9553 25.0107H53.5888V34.6683H53.9553V25.0107Z" fill="#1F59BE"/>
<path d="M7.78097 16.6441C7.19132 16.6441 6.71323 16.166 6.71323 15.5764V14.7477C6.71323 14.158 7.19132 13.6799 7.78097 13.6799C8.37062 13.6799 8.84872 14.158 8.84872 14.7477V15.5764C8.84872 16.166 8.37062 16.6441 7.78097 16.6441Z" fill="#C16C6C"/>
<path d="M17.7412 16.6441C17.1516 16.6441 16.6735 16.166 16.6735 15.5764V14.7477C16.6735 14.158 17.1516 13.6799 17.7412 13.6799C18.3309 13.6799 18.809 14.158 18.809 14.7477V15.5764C18.809 16.166 18.3309 16.6441 17.7412 16.6441Z" fill="#C16C6C"/>
<path d="M15.4145 18.0942H10.3626V24.1182H15.4145V18.0942Z" fill="#C16C6C"/>
<path d="M12.8966 21.2655C10.2033 21.2655 8.02002 19.0822 8.02002 16.3889V10.6996C8.02002 9.44059 9.03996 8.42065 10.2989 8.42065H15.5102C16.7692 8.42065 17.7891 9.44059 17.7891 10.6996V16.3889C17.7732 19.0822 15.5899 21.2655 12.8966 21.2655Z" fill="#C16C6C"/>
<path d="M15.4146 20.5483V21.2814C14.6815 21.7276 13.8209 21.9826 12.8966 21.9826C11.9723 21.9826 11.1117 21.7276 10.3786 21.2814V20.5483C11.1117 20.9946 11.9723 21.2495 12.8966 21.2495C13.805 21.2495 14.6815 20.9946 15.4146 20.5483Z" fill="#773535"/>
<path d="M22.7613 34.6684H3V27.3057C3 25.0906 4.80082 23.3057 7.00006 23.3057H18.7453C20.9604 23.3057 22.7453 25.1065 22.7453 27.3057V34.6684H22.7613Z" fill="#3569D2"/>
<path d="M15.7014 23.2896L16.8647 25.0107L13.024 23.2896H15.7014Z" fill="white"/>
<path d="M10.3467 23.2896L9.16742 25.0107L13.0241 23.2896H10.3467Z" fill="white"/>
<path d="M13.0241 23.2896L11.5101 32.8196L12.8966 34.8913L14.538 32.8196L13.0241 23.2896Z" fill="#222744"/>
<path d="M13.024 24.5645L11.9403 23.7836L13.024 23.2896L14.0918 23.7676L13.024 24.5645Z" fill="#222744"/>
<path d="M6.82473 25.0107H6.45819V34.6683H6.82473V25.0107Z" fill="#1F59BE"/>
<path d="M19.1755 25.0107H18.809V34.6683H19.1755V25.0107Z" fill="#3D7CEA"/>
<path d="M6.95224 12.2519C6.95224 8.97771 9.60647 6.32349 12.8806 6.32349V6.32349C16.1548 6.32349 18.809 8.97771 18.809 12.2519V12.6471H6.95224V12.2519Z" fill="#222744"/>
<path d="M24.0426 12.0081C23.2997 12.0081 22.6973 11.4057 22.6973 10.6627V9.61857C22.6973 8.8756 23.2997 8.27319 24.0426 8.27319C24.7856 8.27319 25.388 8.8756 25.388 9.61857V10.6627C25.388 11.4057 24.7856 12.0081 24.0426 12.0081Z" fill="#773535"/>
<path d="M36.5928 12.0081C35.8498 12.0081 35.2474 11.4057 35.2474 10.6627V9.61857C35.2474 8.8756 35.8498 8.27319 36.5928 8.27319C37.3358 8.27319 37.9382 8.8756 37.9382 9.61857V10.6627C37.9382 11.4057 37.3358 12.0081 36.5928 12.0081Z" fill="#773535"/>
<path d="M33.6611 13.8354H27.2957V21.4258H33.6611V13.8354Z" fill="#914343"/>
<path d="M30.4884 17.8312C27.0948 17.8312 24.3438 15.0802 24.3438 11.6866V4.51797C24.3438 2.93162 25.629 1.64648 27.2153 1.64648H33.7816C35.3679 1.64648 36.6531 2.93162 36.6531 4.51797V11.6866C36.633 15.0802 33.882 17.8312 30.4884 17.8312Z" fill="#914343"/>
<path d="M33.6611 16.9277V17.8514C32.7374 18.4137 31.6531 18.735 30.4884 18.735C29.3238 18.735 28.2394 18.4137 27.3157 17.8514V16.9277C28.2394 17.49 29.3238 17.8113 30.4884 17.8113C31.633 17.8113 32.7374 17.49 33.6611 16.9277Z" fill="#773535"/>
<path d="M42.9181 34.7189H18.0186V25.4418C18.0186 22.6506 20.2876 20.4016 23.0587 20.4016H37.8579C40.6491 20.4016 42.8981 22.6707 42.8981 25.4418V34.7189H42.9181Z" fill="#4E88FF"/>
<path d="M24.0426 9.01584C24.7081 9.01584 25.2475 8.47642 25.2475 7.81102C25.2475 7.14562 24.7081 6.6062 24.0426 6.6062C23.3772 6.6062 22.8378 7.14562 22.8378 7.81102C22.8378 8.47642 23.3772 9.01584 24.0426 9.01584Z" fill="#222744"/>
<path d="M23.5808 7.16867C24.2462 7.16867 24.7856 6.62925 24.7856 5.96385C24.7856 5.29845 24.2462 4.75903 23.5808 4.75903C22.9154 4.75903 22.376 5.29845 22.376 5.96385C22.376 6.62925 22.9154 7.16867 23.5808 7.16867Z" fill="#222744"/>
<path d="M23.5808 5.56222C24.2462 5.56222 24.7856 5.02281 24.7856 4.35741C24.7856 3.692 24.2462 3.15259 23.5808 3.15259C22.9154 3.15259 22.376 3.692 22.376 4.35741C22.376 5.02281 22.9154 5.56222 23.5808 5.56222Z" fill="#222744"/>
<path d="M24.0426 4.0361C24.7081 4.0361 25.2475 3.49669 25.2475 2.83128C25.2475 2.16588 24.7081 1.62646 24.0426 1.62646C23.3772 1.62646 22.8378 2.16588 22.8378 2.83128C22.8378 3.49669 23.3772 4.0361 24.0426 4.0361Z" fill="#222744"/>
<path d="M25.2475 2.83127C25.9129 2.83127 26.4523 2.29185 26.4523 1.62645C26.4523 0.961046 25.9129 0.421631 25.2475 0.421631C24.5821 0.421631 24.0427 0.961046 24.0427 1.62645C24.0427 2.29185 24.5821 2.83127 25.2475 2.83127Z" fill="#222744"/>
<path d="M27.2956 2.40964C27.961 2.40964 28.5005 1.87022 28.5005 1.20482C28.5005 0.539416 27.961 0 27.2956 0C26.6302 0 26.0908 0.539416 26.0908 1.20482C26.0908 1.87022 26.6302 2.40964 27.2956 2.40964Z" fill="#222744"/>
<path d="M29.2836 2.40964C29.949 2.40964 30.4884 1.87022 30.4884 1.20482C30.4884 0.539416 29.949 0 29.2836 0C28.6182 0 28.0788 0.539416 28.0788 1.20482C28.0788 1.87022 28.6182 2.40964 29.2836 2.40964Z" fill="#222744"/>
<path d="M31.1109 2.40964C31.7763 2.40964 32.3157 1.87022 32.3157 1.20482C32.3157 0.539416 31.7763 0 31.1109 0C30.4455 0 29.9061 0.539416 29.9061 1.20482C29.9061 1.87022 30.4455 2.40964 31.1109 2.40964Z" fill="#222744"/>
<path d="M33.0587 2.40964C33.7241 2.40964 34.2635 1.87022 34.2635 1.20482C34.2635 0.539416 33.7241 0 33.0587 0C32.3933 0 31.8539 0.539416 31.8539 1.20482C31.8539 1.87022 32.3933 2.40964 33.0587 2.40964Z" fill="#222744"/>
<path d="M34.8659 2.83127C35.5313 2.83127 36.0707 2.29185 36.0707 1.62645C36.0707 0.961046 35.5313 0.421631 34.8659 0.421631C34.2005 0.421631 33.6611 0.961046 33.6611 1.62645C33.6611 2.29185 34.2005 2.83127 34.8659 2.83127Z" fill="#222744"/>
<path d="M36.392 4.0361C37.0574 4.0361 37.5968 3.49669 37.5968 2.83128C37.5968 2.16588 37.0574 1.62646 36.392 1.62646C35.7266 1.62646 35.1872 2.16588 35.1872 2.83128C35.1872 3.49669 35.7266 4.0361 36.392 4.0361Z" fill="#222744"/>
<path d="M36.633 5.56222C37.2984 5.56222 37.8378 5.02281 37.8378 4.35741C37.8378 3.692 37.2984 3.15259 36.633 3.15259C35.9676 3.15259 35.4282 3.692 35.4282 4.35741C35.4282 5.02281 35.9676 5.56222 36.633 5.56222Z" fill="#222744"/>
<path d="M36.633 7.16867C37.2984 7.16867 37.8378 6.62925 37.8378 5.96385C37.8378 5.29845 37.2984 4.75903 36.633 4.75903C35.9676 4.75903 35.4282 5.29845 35.4282 5.96385C35.4282 6.62925 35.9676 7.16867 36.633 7.16867Z" fill="#222744"/>
<path d="M36.392 8.59421C37.0574 8.59421 37.5968 8.05479 37.5968 7.38939C37.5968 6.72399 37.0574 6.18457 36.392 6.18457C35.7266 6.18457 35.1872 6.72399 35.1872 7.38939C35.1872 8.05479 35.7266 8.59421 36.392 8.59421Z" fill="#222744"/>
<path d="M35.7294 4.759C36.3948 4.759 36.9342 4.21959 36.9342 3.55418C36.9342 2.88878 36.3948 2.34937 35.7294 2.34937C35.064 2.34937 34.5246 2.88878 34.5246 3.55418C34.5246 4.21959 35.064 4.759 35.7294 4.759Z" fill="#222744"/>
<path d="M33.7615 4.0361C34.4269 4.0361 34.9663 3.49669 34.9663 2.83128C34.9663 2.16588 34.4269 1.62646 33.7615 1.62646C33.0961 1.62646 32.5567 2.16588 32.5567 2.83128C32.5567 3.49669 33.0961 4.0361 33.7615 4.0361Z" fill="#222744"/>
<path d="M32.3157 4.0361C32.9811 4.0361 33.5205 3.49669 33.5205 2.83128C33.5205 2.16588 32.9811 1.62646 32.3157 1.62646C31.6503 1.62646 31.1109 2.16588 31.1109 2.83128C31.1109 3.49669 31.6503 4.0361 32.3157 4.0361Z" fill="#222744"/>
<path d="M30.2475 4.03622C30.9462 4.03622 31.5125 3.46983 31.5125 2.77116C31.5125 2.07249 30.9462 1.5061 30.2475 1.5061C29.5488 1.5061 28.9824 2.07249 28.9824 2.77116C28.9824 3.46983 29.5488 4.03622 30.2475 4.03622Z" fill="#222744"/>
<path d="M28.0788 4.0361C28.7442 4.0361 29.2836 3.49669 29.2836 2.83128C29.2836 2.16588 28.7442 1.62646 28.0788 1.62646C27.4134 1.62646 26.874 2.16588 26.874 2.83128C26.874 3.49669 27.4134 4.0361 28.0788 4.0361Z" fill="#222744"/>
<path d="M25.9904 4.35739C26.6558 4.35739 27.1953 3.81798 27.1953 3.15257C27.1953 2.48717 26.6558 1.94775 25.9904 1.94775C25.325 1.94775 24.7856 2.48717 24.7856 3.15257C24.7856 3.81798 25.325 4.35739 25.9904 4.35739Z" fill="#222744"/>
<path d="M24.7856 4.759C25.451 4.759 25.9904 4.21959 25.9904 3.55418C25.9904 2.88878 25.451 2.34937 24.7856 2.34937C24.1202 2.34937 23.5808 2.88878 23.5808 3.55418C23.5808 4.21959 24.1202 4.759 24.7856 4.759Z" fill="#222744"/>
<path d="M34.0226 20.3816L35.4884 22.5503L30.6491 20.3816H34.0226Z" fill="white"/>
<path d="M27.2756 20.3816L25.7896 22.5503L30.6491 20.3816H27.2756Z" fill="white"/>
<path d="M30.6491 20.3816L28.7415 32.3896L30.4884 35.0001L32.5567 32.3896L30.6491 20.3816Z" fill="#222744"/>
<path d="M30.6491 21.988L29.2836 21.0041L30.6491 20.3816L31.9944 20.984L30.6491 21.988Z" fill="#222744"/>
<path d="M22.8378 22.5503H22.376V34.719H22.8378V22.5503Z" fill="#3D7CEA"/>
<path d="M38.4001 22.5503H37.9382V34.719H38.4001V22.5503Z" fill="#3D7CEA"/>
<rect y="34" width="61" height="4" rx="2" fill="#9C3F17"/>
</svg>
