<svg width="52" height="38" viewBox="0 0 52 38" fill="none" xmlns="http://www.w3.org/2000/svg">
<rect y="3" width="46" height="33" rx="4" fill="white"/>
<rect x="10" width="3" height="8" rx="1.5" fill="#0E0E0E"/>
<rect x="32" width="3" height="8" rx="1.5" fill="#0E0E0E"/>
<rect x="13" y="13" width="26" height="3" rx="1" fill="#D9D9D9"/>
<rect x="13" y="20" width="26" height="3" rx="1" fill="#D9D9D9"/>
<rect x="13" y="27" width="26" height="3" rx="1" fill="#D9D9D9"/>
<rect width="5" height="3" rx="1" transform="matrix(-1 0 0 1 11 13)" fill="#4E88FF"/>
<rect width="5" height="3" rx="1" transform="matrix(-1 0 0 1 11 20)" fill="#78ACEA"/>
<rect width="5" height="3" rx="1" transform="matrix(-1 0 0 1 11 27)" fill="#4E88FF"/>
<circle cx="45" cy="31" r="7" fill="#DB9B6D"/>
<circle cx="44" cy="30" r="7" fill="#F7CC7F"/>
<path d="M44 25V30.25L47 32" stroke="white" stroke-linecap="round" stroke-linejoin="round"/>
</svg>
