<svg width="51" height="36" viewBox="0 0 51 36" fill="none" xmlns="http://www.w3.org/2000/svg">
<rect x="5" y="3" width="46" height="33" rx="4" fill="#F5934B"/>
<rect y="3" width="46" height="33" rx="4" fill="#FFBD5B"/>
<rect x="10" width="3" height="8" rx="1.5" fill="#0E0E0E"/>
<rect x="32" width="3" height="8" rx="1.5" fill="#0E0E0E"/>
<path d="M22.5489 12.927C22.8483 12.0057 24.1517 12.0057 24.4511 12.9271L25.4084 15.8734C25.5422 16.2854 25.9262 16.5643 26.3594 16.5643H29.4574C30.4261 16.5643 30.8289 17.804 30.0451 18.3734L27.5389 20.1943C27.1884 20.4489 27.0417 20.9003 27.1756 21.3123L28.1329 24.2586C28.4323 25.1799 27.3778 25.946 26.5941 25.3766L24.0878 23.5557C23.7373 23.3011 23.2627 23.3011 22.9122 23.5557L20.4059 25.3766C19.6222 25.946 18.5677 25.1799 18.8671 24.2586L19.8244 21.3123C19.9583 20.9003 19.8116 20.4489 19.4611 20.1943L16.9549 18.3734C16.1711 17.804 16.5739 16.5643 17.5426 16.5643H20.6406C21.0738 16.5643 21.4578 16.2854 21.5916 15.8734L22.5489 12.927Z" fill="white"/>
</svg>
