<svg width="43" height="29" viewBox="0 0 43 29" fill="none" xmlns="http://www.w3.org/2000/svg">
<path d="M37.1624 1.74744L42.1897 27.8059C42.2133 27.93 42.2092 28.0579 42.1779 28.1803C42.1465 28.3028 42.0886 28.4168 42.0083 28.5142C41.928 28.6115 41.8272 28.69 41.7132 28.7438C41.5993 28.7976 41.4748 28.8255 41.3489 28.8255H38.6942L37.1624 1.74744Z" fill="#222744"/>
<path d="M37.1091 1.64287L40.4293 27.2399C40.4557 27.4398 40.4392 27.6431 40.381 27.8361C40.3227 28.0292 40.224 28.2075 40.0914 28.3591C39.9589 28.5107 39.7955 28.6321 39.6124 28.7152C39.4293 28.7983 39.2305 28.8411 39.0295 28.8408H34.147L36.9008 1.56384L37.1091 1.64287Z" fill="#78ACEA"/>
<path d="M37.1091 1.64282L38.6002 27.0639C38.6134 27.2907 38.5802 27.5177 38.5028 27.7311C38.4254 27.9445 38.3053 28.1398 38.15 28.305C37.9947 28.4702 37.8073 28.6018 37.5995 28.6917C37.3917 28.7817 37.1677 28.828 36.9414 28.828H29.6506L37.1091 1.64282Z" fill="#699DEE"/>
<path d="M37.1574 1.85193L36.4334 27.064C36.4465 27.2907 36.4134 27.5178 36.3359 27.7312C36.2585 27.9446 36.1385 28.1399 35.9831 28.3051C35.8278 28.4703 35.6405 28.6019 35.4326 28.6918C35.2248 28.7817 35.0009 28.8281 34.7745 28.8281H27.4914L37.1574 1.85193Z" fill="#5288D8"/>
<path d="M2.2837 28.828H31.0123C31.3597 28.8283 31.6962 28.7062 31.9632 28.4831C32.2301 28.2599 32.4105 27.9499 32.473 27.6069L36.8424 3.62359C36.8866 3.36839 36.875 3.10659 36.8083 2.85636C36.7416 2.60613 36.6213 2.37348 36.456 2.17457C36.2907 1.97566 36.0841 1.81525 35.8508 1.70449C35.6175 1.59374 35.3629 1.53529 35.1048 1.5332H6.71403C6.36492 1.53393 6.02721 1.65797 5.76012 1.88358C5.49303 2.10919 5.31362 2.42196 5.25334 2.76704L0.823005 27.0716C0.783894 27.2863 0.792317 27.507 0.847679 27.7181C0.903041 27.9292 1.00399 28.1255 1.14336 28.2931C1.28274 28.4607 1.45714 28.5955 1.6542 28.6879C1.85126 28.7804 2.06617 28.8282 2.2837 28.828Z" fill="#D7E9FF"/>
<path d="M36.2657 6.73877H4.51154L5.32444 2.2113C5.35896 2.02091 5.459 1.84873 5.6071 1.7248C5.75521 1.60087 5.94197 1.53306 6.13481 1.5332H36.8931C36.9317 1.53476 36.9694 1.5446 37.0038 1.56206C37.0382 1.57952 37.0685 1.60419 37.0926 1.6344C37.1167 1.66461 37.134 1.69966 37.1434 1.73718C37.1528 1.77469 37.1541 1.8138 37.1472 1.85186L36.2657 6.73877Z" fill="#222744"/>
<path d="M34.1471 1.55113C34.1468 1.67074 34.1621 1.78988 34.1928 1.90547C34.2523 2.13026 34.3673 2.33637 34.5271 2.50479C34.6869 2.67321 34.8865 2.7985 35.1073 2.86909C35.222 2.90471 35.3406 2.92611 35.4604 2.93282V2.66515C35.3582 2.66016 35.2572 2.64042 35.1607 2.60652C34.9993 2.5507 34.8529 2.45848 34.7326 2.33694C34.6124 2.2154 34.5216 2.06779 34.4671 1.90547C34.4303 1.79098 34.4115 1.67144 34.4113 1.55113C34.4113 1.25499 34.5285 0.97099 34.7372 0.761592C34.9458 0.552195 35.2288 0.434556 35.5239 0.434556C35.819 0.434556 36.102 0.552195 36.3107 0.761592C36.5194 0.97099 36.6366 1.25499 36.6366 1.55113H36.8906C36.8906 1.18468 36.7456 0.833241 36.4874 0.574123C36.2291 0.315006 35.8789 0.169434 35.5138 0.169434C35.1486 0.169434 34.7984 0.315006 34.5402 0.574123C34.282 0.833241 34.1369 1.18468 34.1369 1.55113H34.1471Z" fill="#78ACEA"/>
<path d="M35.0971 2.79007C35.0947 2.81635 35.0947 2.84281 35.0971 2.86909C35.1176 2.93767 35.1618 2.99667 35.2217 3.0355C35.2817 3.07432 35.3534 3.09041 35.4242 3.08089C35.4949 3.07137 35.5599 3.03685 35.6075 2.98355C35.6551 2.93024 35.6822 2.86164 35.684 2.79007C35.684 2.71029 35.6524 2.63378 35.5962 2.57736C35.5399 2.52095 35.4637 2.48926 35.3842 2.48926C35.3053 2.49059 35.2301 2.52278 35.1746 2.57898C35.1191 2.63518 35.0876 2.71093 35.087 2.79007H35.0971Z" fill="#78ACEA"/>
<path d="M29.2086 1.55113C29.2096 1.67066 29.225 1.78964 29.2544 1.90547C29.3147 2.13023 29.4303 2.33621 29.5905 2.50456C29.7507 2.6729 29.9505 2.79824 30.1714 2.86909C30.2861 2.90471 30.4047 2.92611 30.5245 2.93282V2.66515C30.4215 2.66016 30.3197 2.64042 30.2222 2.60652C30.0615 2.5502 29.9156 2.45777 29.7959 2.33627C29.6761 2.21478 29.5856 2.06743 29.5313 1.90547C29.4944 1.79098 29.4756 1.67144 29.4754 1.55113C29.4682 1.40018 29.4916 1.24934 29.5442 1.10774C29.5968 0.966136 29.6775 0.836725 29.7814 0.727344C29.8853 0.617963 30.0103 0.530888 30.1487 0.471392C30.2872 0.411897 30.4362 0.38122 30.5868 0.38122C30.7374 0.38122 30.8864 0.411897 31.0248 0.471392C31.1633 0.530888 31.2882 0.617963 31.3921 0.727344C31.496 0.836725 31.5767 0.966136 31.6294 1.10774C31.682 1.24934 31.7054 1.40018 31.6982 1.55113H31.9522C31.9522 1.18468 31.8072 0.833241 31.5489 0.574123C31.2907 0.315006 30.9405 0.169434 30.5754 0.169434C30.2102 0.169434 29.86 0.315006 29.6018 0.574123C29.3435 0.833241 29.1985 1.18468 29.1985 1.55113H29.2086Z" fill="#78ACEA"/>
<path d="M30.1613 2.79006C30.1588 2.81634 30.1588 2.8428 30.1613 2.86909C30.1818 2.93767 30.2259 2.99667 30.2859 3.03549C30.3458 3.07431 30.4176 3.09041 30.4883 3.08089C30.559 3.07136 30.624 3.03685 30.6716 2.98354C30.7193 2.93023 30.7464 2.86163 30.7481 2.79006C30.7478 2.72756 30.7281 2.66672 30.6917 2.61599C30.6553 2.56525 30.6041 2.52715 30.5452 2.50696C30.4862 2.48678 30.4225 2.48552 30.3628 2.50336C30.3031 2.5212 30.2504 2.55725 30.2121 2.60651C30.1761 2.66071 30.1583 2.72501 30.1613 2.79006V2.79006Z" fill="#78ACEA"/>
<path d="M24.2727 1.55113C24.2737 1.67066 24.289 1.78964 24.3185 1.90547C24.3788 2.13023 24.4944 2.33621 24.6546 2.50456C24.8148 2.6729 25.0146 2.79824 25.2355 2.86909C25.3493 2.90473 25.4671 2.92614 25.5861 2.93282V2.66515C25.4839 2.65992 25.383 2.64018 25.2863 2.60652C25.1255 2.5502 24.9797 2.45777 24.86 2.33627C24.7402 2.21478 24.6497 2.06743 24.5954 1.90547C24.5565 1.79142 24.5367 1.67167 24.5369 1.55113C24.5369 1.25499 24.6542 0.97099 24.8628 0.761592C25.0715 0.552195 25.3545 0.434556 25.6496 0.434556C25.9447 0.434556 26.2277 0.552195 26.4364 0.761592C26.645 0.97099 26.7623 1.25499 26.7623 1.55113H27.0163C27.0163 1.18468 26.8712 0.833241 26.613 0.574123C26.3548 0.315006 26.0046 0.169434 25.6394 0.169434C25.2743 0.169434 24.9241 0.315006 24.6658 0.574123C24.4076 0.833241 24.2626 1.18468 24.2626 1.55113H24.2727Z" fill="#78ACEA"/>
<path d="M25.2254 2.79006C25.2217 2.81627 25.2217 2.84288 25.2254 2.86909C25.2422 2.93517 25.2808 2.99358 25.335 3.03472C25.3892 3.07587 25.4557 3.09731 25.5237 3.09554C25.5916 3.09376 25.6569 3.06887 25.7089 3.02496C25.7609 2.98104 25.7965 2.92069 25.8098 2.85382C25.8231 2.78695 25.8134 2.71752 25.7823 2.65691C25.7511 2.5963 25.7003 2.54812 25.6383 2.52026C25.5763 2.4924 25.5067 2.48652 25.4409 2.50359C25.3751 2.52065 25.317 2.55964 25.2762 2.61416C25.2418 2.66622 25.224 2.7276 25.2254 2.79006V2.79006Z" fill="#78ACEA"/>
<path d="M19.3267 1.55113C19.3264 1.67074 19.3418 1.78988 19.3725 1.90547C19.4328 2.13023 19.5484 2.33621 19.7086 2.50456C19.8688 2.6729 20.0686 2.79824 20.2895 2.86909C20.4033 2.90473 20.5211 2.92614 20.6401 2.93282V2.66515C20.5379 2.66016 20.4369 2.64042 20.3403 2.60652C20.1796 2.5502 20.0337 2.45777 19.914 2.33627C19.7942 2.21478 19.7037 2.06743 19.6494 1.90547C19.6105 1.79142 19.5907 1.67167 19.5909 1.55113C19.5909 1.25499 19.7082 0.97099 19.9168 0.761592C20.1255 0.552195 20.4085 0.434556 20.7036 0.434556C20.9987 0.434556 21.2817 0.552195 21.4904 0.761592C21.699 0.97099 21.8163 1.25499 21.8163 1.55113H22.0703C22.0703 1.18468 21.9252 0.833241 21.667 0.574123C21.4088 0.315006 21.0586 0.169434 20.6934 0.169434C20.3283 0.169434 19.9781 0.315006 19.7199 0.574123C19.4617 0.833241 19.3166 1.18468 19.3166 1.55113H19.3267Z" fill="#78ACEA"/>
<path d="M20.2895 2.79006C20.2858 2.81627 20.2858 2.84288 20.2895 2.86909C20.3063 2.93517 20.345 2.99358 20.3992 3.03472C20.4534 3.07587 20.5199 3.09731 20.5878 3.09554C20.6558 3.09376 20.7211 3.06887 20.7731 3.02496C20.825 2.98104 20.8606 2.92069 20.874 2.85382C20.8873 2.78695 20.8776 2.71752 20.8464 2.65691C20.8153 2.5963 20.7645 2.54812 20.7025 2.52026C20.6404 2.4924 20.5708 2.48652 20.505 2.50359C20.4392 2.52065 20.3812 2.55964 20.3403 2.61416C20.3059 2.66622 20.2882 2.7276 20.2895 2.79006V2.79006Z" fill="#78ACEA"/>
<path d="M14.401 1.55113C14.4007 1.67074 14.4161 1.78988 14.4468 1.90547C14.5067 2.13044 14.6221 2.33664 14.7824 2.50505C14.9427 2.67346 15.1426 2.79865 15.3638 2.86909C15.4776 2.90473 15.5954 2.92614 15.7144 2.93282V2.66515C15.6122 2.66016 15.5112 2.64042 15.4146 2.60652C15.2538 2.5502 15.108 2.45777 14.9883 2.33627C14.8685 2.21478 14.778 2.06743 14.7237 1.90547C14.6848 1.79142 14.665 1.67167 14.6652 1.55113C14.6652 1.25499 14.7825 0.97099 14.9911 0.761592C15.1998 0.552195 15.4828 0.434556 15.7779 0.434556C16.073 0.434556 16.356 0.552195 16.5647 0.761592C16.7733 0.97099 16.8906 1.25499 16.8906 1.55113H17.1446C17.1446 1.18468 16.9995 0.833241 16.7413 0.574123C16.4831 0.315006 16.1329 0.169434 15.7677 0.169434C15.4026 0.169434 15.0524 0.315006 14.7941 0.574123C14.5359 0.833241 14.3909 1.18468 14.3909 1.55113H14.401Z" fill="#78ACEA"/>
<path d="M15.3511 2.79007C15.3517 2.81688 15.3559 2.84349 15.3638 2.8691C15.3826 2.93912 15.4261 2.9999 15.4862 3.04008C15.5463 3.08025 15.619 3.09707 15.6906 3.08739C15.7622 3.0777 15.8278 3.04218 15.8752 2.98746C15.9226 2.93274 15.9485 2.86257 15.9481 2.79007C15.9484 2.75069 15.941 2.71163 15.9262 2.67515C15.9114 2.63867 15.8896 2.60548 15.862 2.57752C15.8343 2.54955 15.8015 2.52735 15.7652 2.5122C15.729 2.49706 15.6901 2.48926 15.6509 2.48926C15.6051 2.48906 15.56 2.49956 15.519 2.51991C15.478 2.54026 15.4422 2.56992 15.4146 2.60653C15.3743 2.65925 15.352 2.72362 15.3511 2.79007V2.79007Z" fill="#78ACEA"/>
<path d="M9.46518 1.55113C9.46487 1.67074 9.48024 1.78988 9.5109 1.90547C9.57082 2.13005 9.68595 2.33595 9.84572 2.5043C10.0055 2.67265 10.2048 2.79808 10.4254 2.86909C10.5401 2.90449 10.6587 2.92589 10.7785 2.93282V2.66515C10.6763 2.66016 10.5754 2.64042 10.4788 2.60652C10.3176 2.55036 10.1714 2.45802 10.0512 2.33653C9.93099 2.21503 9.84004 2.0676 9.78526 1.90547C9.74843 1.79098 9.72958 1.67144 9.72937 1.55113C9.72937 1.25499 9.8466 0.97099 10.0553 0.761592C10.2639 0.552195 10.5469 0.434556 10.842 0.434556C11.1371 0.434556 11.4201 0.552195 11.6288 0.761592C11.8375 0.97099 11.9547 1.25499 11.9547 1.55113H12.2087C12.2087 1.18468 12.0637 0.833241 11.8055 0.574123C11.5473 0.315006 11.197 0.169434 10.8319 0.169434C10.4667 0.169434 10.1165 0.315006 9.85829 0.574123C9.60008 0.833241 9.45502 1.18468 9.45502 1.55113H9.46518Z" fill="#78ACEA"/>
<path d="M10.4152 2.79007C10.4128 2.81636 10.4128 2.84282 10.4152 2.8691C10.4299 2.92321 10.4594 2.97212 10.5003 3.01032C10.5412 3.04852 10.592 3.07447 10.6468 3.08527C10.7016 3.09606 10.7584 3.09125 10.8106 3.07139C10.8629 3.05153 10.9086 3.0174 10.9425 2.97286C10.9765 2.92832 10.9974 2.87515 11.0028 2.81933C11.0083 2.76352 10.998 2.7073 10.9733 2.657C10.9486 2.60671 10.9104 2.56435 10.8629 2.53471C10.8155 2.50507 10.7607 2.48933 10.7048 2.48926C10.6591 2.48906 10.6139 2.49956 10.5729 2.51991C10.5319 2.54026 10.4962 2.56992 10.4686 2.60653C10.4307 2.65992 10.4119 2.7246 10.4152 2.79007Z" fill="#78ACEA"/>
<path d="M4.5293 1.55113C4.529 1.67074 4.54437 1.78988 4.57503 1.90547C4.63452 2.13026 4.7495 2.33637 4.90933 2.50479C5.06917 2.67321 5.26872 2.7985 5.48955 2.86909C5.60422 2.90471 5.7228 2.92611 5.84265 2.93282V2.66515C5.74045 2.66016 5.63949 2.64042 5.5429 2.60652C5.38108 2.55104 5.23415 2.45896 5.11346 2.3374C4.99276 2.21584 4.90154 2.06806 4.84685 1.90547C4.81002 1.79098 4.79116 1.67144 4.79096 1.55113C4.79096 1.25499 4.90819 0.97099 5.11685 0.761592C5.32552 0.552195 5.60853 0.434556 5.90362 0.434556C6.19872 0.434556 6.48173 0.552195 6.6904 0.761592C6.89906 0.97099 7.01629 1.25499 7.01629 1.55113H7.27032C7.27032 1.18468 7.12526 0.833241 6.86705 0.574123C6.60884 0.315006 6.25863 0.169434 5.89346 0.169434C5.5283 0.169434 5.17809 0.315006 4.91988 0.574123C4.66166 0.833241 4.5166 1.18468 4.5166 1.55113H4.5293Z" fill="#78ACEA"/>
<path d="M5.4794 2.79007C5.47693 2.81635 5.47693 2.84281 5.4794 2.86909C5.49988 2.93767 5.54406 2.99667 5.604 3.0355C5.66394 3.07432 5.73571 3.09041 5.80642 3.08089C5.87713 3.07137 5.94213 3.03685 5.98975 2.98355C6.03737 2.93024 6.06449 2.86164 6.06622 2.79007C6.06622 2.71029 6.03464 2.63378 5.97842 2.57736C5.92221 2.52095 5.84596 2.48926 5.76646 2.48926C5.68761 2.49059 5.61239 2.52278 5.55686 2.57898C5.50134 2.63518 5.46989 2.71093 5.46924 2.79007H5.4794Z" fill="#78ACEA"/>
<path d="M31.5203 5.9231H32.9785C33.036 5.92311 33.0912 5.90036 33.1321 5.8598C33.173 5.81923 33.1963 5.76412 33.197 5.70642C33.1963 5.64848 33.1731 5.5931 33.1323 5.55213C33.0914 5.51116 33.0362 5.48784 32.9785 5.48718H31.5203C31.4624 5.48718 31.4068 5.51028 31.3659 5.5514C31.3249 5.59251 31.3019 5.64827 31.3019 5.70642V5.70642C31.3019 5.73509 31.3075 5.76348 31.3186 5.78993C31.3296 5.81639 31.3457 5.84039 31.366 5.86055C31.3863 5.8807 31.4104 5.89661 31.4369 5.90735C31.4634 5.91809 31.4918 5.92344 31.5203 5.9231V5.9231Z" fill="white"/>
<path d="M27.5041 5.9231H28.9648C29.0221 5.9231 29.077 5.90027 29.1175 5.85963C29.158 5.819 29.1807 5.76388 29.1807 5.70642C29.1807 5.64871 29.1581 5.59333 29.1176 5.55229C29.0772 5.51125 29.0223 5.48785 28.9648 5.48718H27.5041C27.4464 5.48784 27.3912 5.51116 27.3504 5.55213C27.3095 5.5931 27.2863 5.64848 27.2856 5.70642V5.70642C27.2863 5.76412 27.3096 5.81923 27.3505 5.85979C27.3914 5.90036 27.4466 5.9231 27.5041 5.9231V5.9231Z" fill="white"/>
<path d="M23.5005 5.9231H24.9587C25.0162 5.9231 25.0713 5.90036 25.1122 5.85979C25.1531 5.81923 25.1765 5.76412 25.1771 5.70642C25.1765 5.64848 25.1532 5.5931 25.1124 5.55213C25.0716 5.51116 25.0164 5.48784 24.9587 5.48718H23.5005C23.4428 5.48784 23.3876 5.51116 23.3468 5.55213C23.3059 5.5931 23.2827 5.64848 23.282 5.70642V5.70642C23.2827 5.76412 23.306 5.81923 23.3469 5.85979C23.3878 5.90036 23.443 5.9231 23.5005 5.9231V5.9231Z" fill="white"/>
<path d="M19.4944 5.9231H20.9551C21.0123 5.9231 21.0673 5.90027 21.1077 5.85963C21.1482 5.819 21.171 5.76388 21.171 5.70642C21.171 5.64871 21.1483 5.59333 21.1079 5.55229C21.0675 5.51125 21.0126 5.48785 20.9551 5.48718H19.4944C19.4369 5.48785 19.382 5.51125 19.3415 5.55229C19.3011 5.59333 19.2784 5.64871 19.2784 5.70642V5.70642C19.2784 5.76388 19.3012 5.819 19.3417 5.85963C19.3822 5.90027 19.4371 5.9231 19.4944 5.9231Z" fill="white"/>
<path d="M15.4908 5.9231H16.949C17.0065 5.9231 17.0616 5.90036 17.1025 5.85979C17.1434 5.81923 17.1668 5.76412 17.1674 5.70642C17.1668 5.64848 17.1435 5.5931 17.1027 5.55213C17.0619 5.51116 17.0067 5.48784 16.949 5.48718H15.4908C15.4331 5.48784 15.3779 5.51116 15.3371 5.55213C15.2962 5.5931 15.273 5.64848 15.2723 5.70642V5.70642C15.273 5.76412 15.2963 5.81923 15.3372 5.85979C15.3781 5.90036 15.4333 5.9231 15.4908 5.9231V5.9231Z" fill="white"/>
<path d="M11.4847 5.9231H12.9454C13.0027 5.9231 13.0576 5.90027 13.0981 5.85963C13.1386 5.819 13.1614 5.76388 13.1614 5.70642C13.1614 5.64871 13.1387 5.59333 13.0983 5.55229C13.0578 5.51125 13.0029 5.48785 12.9454 5.48718H11.4847C11.4272 5.48785 11.3723 5.51125 11.3319 5.55229C11.2915 5.59333 11.2688 5.64871 11.2688 5.70642V5.70642C11.2688 5.76388 11.2915 5.819 11.332 5.85963C11.3725 5.90027 11.4275 5.9231 11.4847 5.9231Z" fill="white"/>
<path d="M7.48116 5.9231H8.93931C8.99681 5.9231 9.052 5.90036 9.0929 5.85979C9.1338 5.81923 9.15711 5.76412 9.15778 5.70642V5.70642C9.15712 5.64848 9.13389 5.5931 9.09306 5.55213C9.05223 5.51116 8.99704 5.48784 8.93931 5.48718H7.48116C7.42343 5.48784 7.36824 5.51116 7.32741 5.55213C7.28658 5.5931 7.26336 5.64848 7.2627 5.70642V5.70642C7.26336 5.76412 7.28668 5.81923 7.32757 5.85979C7.36847 5.90036 7.42366 5.9231 7.48116 5.9231Z" fill="white"/>
<path d="M18.2288 18.5046L19.8502 16.8831C19.9377 16.7857 19.9846 16.6584 19.9811 16.5275C19.9777 16.3966 19.9242 16.2719 19.8317 16.1792C19.7392 16.0865 19.6147 16.0327 19.4838 16.029C19.3529 16.0252 19.2255 16.0717 19.1278 16.159L17.5046 17.7822L15.8831 16.159C15.836 16.1095 15.7795 16.07 15.7169 16.0427C15.6542 16.0154 15.5868 16.0009 15.5185 16C15.4502 15.9992 15.3824 16.012 15.3191 16.0378C15.2558 16.0636 15.1983 16.1017 15.15 16.15C15.1017 16.1983 15.0636 16.2558 15.0378 16.3191C15.012 16.3824 14.9992 16.4502 15 16.5185C15.0009 16.5868 15.0154 16.6542 15.0427 16.7169C15.0699 16.7795 15.1095 16.836 15.159 16.8831L16.7822 18.5046L15.159 20.1278C15.0717 20.2255 15.0252 20.3529 15.029 20.4838C15.0327 20.6147 15.0865 20.7392 15.1792 20.8317C15.2719 20.9242 15.3966 20.9777 15.5275 20.9811C15.6584 20.9846 15.7857 20.9377 15.8831 20.8502L17.5046 19.2288L19.1278 20.8502C19.1752 20.8977 19.2315 20.9354 19.2935 20.9611C19.3555 20.9868 19.4219 21 19.489 21C19.5561 21 19.6226 20.9868 19.6845 20.9611C19.7465 20.9354 19.8028 20.8977 19.8502 20.8502C19.8977 20.8028 19.9354 20.7465 19.9611 20.6845C19.9868 20.6226 20 20.5561 20 20.489C20 20.4219 19.9868 20.3555 19.9611 20.2935C19.9354 20.2315 19.8977 20.1752 19.8502 20.1278L18.2288 18.5046Z" fill="#C65447"/>
<path d="M25.2841 17.7515C25.5516 17.3783 25.6797 16.9265 25.6559 16.4399C25.632 15.9532 25.457 15.4483 25.1478 14.974C23.9651 13.3757 21.427 12.7728 17.6091 13.196C15.7744 13.4113 14.0053 13.7682 12.3213 14.2628C12.2949 14.2652 12.2709 14.2726 12.2508 14.2845C12.2307 14.2963 12.215 14.3125 12.2047 14.3318C12.1945 14.3511 12.1899 14.3731 12.1913 14.3964C12.1926 14.4197 12.2 14.4438 12.2128 14.4669C12.2355 14.5111 12.2756 14.5502 12.325 14.5765C12.3744 14.6027 12.4293 14.6141 12.4786 14.6083C12.5863 14.5783 22.1949 11.6492 24.7618 15.1081C25.5722 16.1983 25.053 17.3475 24.474 18.1159C22.9675 19.8183 20.9361 21.1123 18.5257 21.905C15.8057 22.9021 13.1582 23.2204 11.2832 22.7762C10.0468 22.4873 9.32828 21.9889 9.14405 21.2995C8.89523 20.411 9.5543 19.1714 10.9042 17.9888C12.1132 16.894 13.6359 16.0756 15.3839 15.5809C15.4086 15.5777 15.431 15.57 15.4497 15.5583C15.4685 15.5466 15.4832 15.5311 15.4929 15.5128C15.5027 15.4944 15.5073 15.4736 15.5066 15.4515C15.5058 15.4294 15.4996 15.4066 15.4884 15.3843C15.4775 15.3613 15.4617 15.3391 15.4419 15.3192C15.4221 15.2993 15.3987 15.2821 15.373 15.2684C15.3474 15.2548 15.32 15.245 15.2924 15.2397C15.2648 15.2344 15.2376 15.2337 15.2124 15.2376C13.4098 15.7398 11.8424 16.582 10.6049 17.7133C9.168 18.9854 8.50124 20.2888 8.76719 21.2931C8.93246 21.8948 9.52056 22.6632 11.2999 23.1147C13.2687 23.5797 16.0079 23.2617 18.7991 22.254C21.236 21.4199 23.2878 20.0856 24.8118 18.3439C24.9838 18.1564 25.1414 17.9587 25.2841 17.7515V17.7515Z" fill="#C65447"/>
</svg>
