<svg width="38" height="43" viewBox="0 0 38 43" fill="none" xmlns="http://www.w3.org/2000/svg">
<rect width="35" height="43" rx="2" fill="white"/>
<circle cx="18" cy="14" r="8" fill="#D7E9FF"/>
<path fill-rule="evenodd" clip-rule="evenodd" d="M13.0061 20.1999C13.0021 20.1337 13 20.067 13 20C13 17.7909 15.2386 16 18 16C20.7614 16 23 17.7909 23 20C23 20.067 22.9979 20.1337 22.9939 20.1999C21.7724 21.3039 19.9878 21.9999 18 21.9999C16.0122 21.9999 14.2276 21.3039 13.0061 20.1999Z" fill="#78ACEA"/>
<circle cx="18" cy="12" r="3" fill="#78ACEA"/>
<rect x="5" y="25" width="26" height="3" rx="1.5" fill="#C0D1E6"/>
<rect x="5" y="31" width="26" height="3" rx="1.5" fill="#C0D1E6"/>
<path d="M36.7559 4.47882C37.2941 4.60284 37.6298 5.13965 37.5058 5.67783L31.7541 30.6384L28.703 29.9353L34.4546 4.97475C34.5786 4.43657 35.1155 4.10082 35.6536 4.22483L36.7559 4.47882Z" fill="#FF7575"/>
<path d="M35.4422 4.17579C35.8634 4.27287 36.1263 4.69308 36.0292 5.11436L30.2287 30.2865L28.7032 29.935L34.5036 4.76282C34.6007 4.34154 35.0209 4.07872 35.4422 4.17579V4.17579Z" fill="#FF5A5A"/>
<path d="M36.7559 4.47882C37.2941 4.60284 37.6298 5.13965 37.5058 5.67783L37.203 6.99175L34.1519 6.28867L34.4546 4.97475C34.5786 4.43657 35.1155 4.10082 35.6536 4.22483L36.7559 4.47882Z" fill="#1E0000"/>
<path d="M29.5256 33.3376L31.7543 30.6379L28.7031 29.9349L29.5256 33.3376Z" fill="#F7CC7F"/>
<path d="M29.5256 33.3379L30.6399 31.988L29.1143 31.6365L29.5256 33.3379Z" fill="black"/>
</svg>
