<svg width="38" height="35" viewBox="0 0 38 35" fill="none" xmlns="http://www.w3.org/2000/svg">
<rect x="0.279053" width="17.907" height="16.2791" rx="2" fill="#ECAF54"/>
<rect x="0.279053" y="18.7209" width="17.907" height="16.2791" rx="2" fill="#4BA484"/>
<rect x="19.814" width="17.907" height="16.2791" rx="2" fill="#CF4040"/>
<rect x="19.814" y="18.7209" width="17.907" height="16.2791" rx="2" fill="#6B93E4"/>
<rect x="0.279053" width="16.2791" height="16.2791" rx="2" fill="#FFC164"/>
<rect x="0.279053" y="18.7209" width="16.2791" height="16.2791" rx="2" fill="#73CFAE"/>
<rect x="19.814" width="16.2791" height="16.2791" rx="2" fill="#FF4E4E"/>
<rect x="19.814" y="18.7209" width="16.2791" height="16.2791" rx="2" fill="#81AAFF"/>
<path d="M11.7049 15.326L10.2409 13.742C9.88088 13.846 9.48488 13.898 9.05288 13.898C8.27688 13.898 7.56088 13.718 6.90488 13.358C6.25688 12.99 5.74088 12.482 5.35688 11.834C4.98088 11.178 4.79288 10.442 4.79288 9.62596C4.79288 8.80996 4.98088 8.07796 5.35688 7.42996C5.74088 6.78196 6.25688 6.27796 6.90488 5.91796C7.56088 5.54996 8.27688 5.36596 9.05288 5.36596C9.83688 5.36596 10.5529 5.54996 11.2009 5.91796C11.8569 6.27796 12.3729 6.78196 12.7489 7.42996C13.1249 8.07796 13.3129 8.80996 13.3129 9.62596C13.3129 10.394 13.1449 11.09 12.8089 11.714C12.4809 12.33 12.0249 12.826 11.4409 13.202L13.4449 15.326H11.7049ZM6.19688 9.62596C6.19688 10.242 6.31688 10.786 6.55688 11.258C6.80488 11.722 7.14488 12.082 7.57688 12.338C8.00888 12.586 8.50088 12.71 9.05288 12.71C9.60488 12.71 10.0969 12.586 10.5289 12.338C10.9609 12.082 11.2969 11.722 11.5369 11.258C11.7849 10.786 11.9089 10.242 11.9089 9.62596C11.9089 9.00996 11.7849 8.46996 11.5369 8.00596C11.2969 7.54196 10.9609 7.18596 10.5289 6.93796C10.0969 6.68996 9.60488 6.56596 9.05288 6.56596C8.50088 6.56596 8.00888 6.68996 7.57688 6.93796C7.14488 7.18596 6.80488 7.54196 6.55688 8.00596C6.31688 8.46996 6.19688 9.00996 6.19688 9.62596Z" fill="white"/>
<path d="M26.9536 5.47396V10.79C26.9536 11.422 27.1176 11.898 27.4456 12.218C27.7816 12.538 28.2456 12.698 28.8376 12.698C29.4376 12.698 29.9016 12.538 30.2296 12.218C30.5656 11.898 30.7336 11.422 30.7336 10.79V5.47396H32.1016V10.766C32.1016 11.446 31.9536 12.022 31.6576 12.494C31.3616 12.966 30.9656 13.318 30.4696 13.55C29.9736 13.782 29.4256 13.898 28.8256 13.898C28.2256 13.898 27.6776 13.782 27.1816 13.55C26.6936 13.318 26.3056 12.966 26.0176 12.494C25.7296 12.022 25.5856 11.446 25.5856 10.766V5.47396H26.9536Z" fill="white"/>
<path d="M29.4075 24.1949V32.5349H28.0395V24.1949H29.4075Z" fill="white"/>
<path d="M7.38272 31.3469H11.2587V32.5349H5.76272V31.4669L9.62672 25.3829H5.76272V24.1949H11.2587V25.2629L7.38272 31.3469Z" fill="white"/>
</svg>
