<svg enable-background="new 0 0 500 500" viewBox="0 0 500 500" xmlns="http://www.w3.org/2000/svg"><path d="m448.5 485.4h-397.2c-16.2 0-29.3-13.1-29.3-29.3v-410.7c0-16.2 13.1-29.3 29.3-29.3h397.2c16.2 0 29.3 13.1 29.3 29.3v410.7c0 16.2-13.1 29.3-29.3 29.3z" fill="#e8e8e8"/><g fill="#f05a1f"><path d="m312.4 411.2c-.3 1.5-.6 3.1-.9 4.6-2.8 12.3-13.4 20.7-25.8 20.6-12.6-.1-23.4-8.9-25.8-21.3-3-15.2 7.7-29.6 23.2-31.3 14.3-1.6 27.4 8.9 28.8 23.2.1.7.3 1.3.5 2zm-48.3-1.1c0 12.2 9.7 21.9 21.7 21.9 11.9 0 21.7-9.8 21.7-21.8 0-12.1-9.7-21.9-21.8-21.9-12 .1-21.6 9.7-21.6 21.8z"/><path d="m212.7 402.7c-1.2.9-2.4 1.7-3.5 2.5-5.3-4.8-10.1-5.2-13.8-1.1-3.3 3.6-3.1 9.6.6 12.8 4 3.5 8.8 2.9 13.2-1.9 1.2.8 2.4 1.6 3.7 2.3-1.8 4.2-7.7 7.3-14 6.1-5.9-1.1-10.3-6.2-10.9-12.7-.5-5.7 3.6-11.7 9.3-13.5 5.9-1.7 12.3.4 15.4 5.5z"/><path d="m221.2 415.6c.7 3.6 4.3 5.4 6.8 3.3 2.2-1.8 3.5-.7 5.2.2-1.8 5.3-10.8 6.4-14.7 1.3-2.3-2.9-2.6-6.8-.7-10 2-3.3 5-4.6 8.7-4.4 3.6.3 6.5 2.8 7.5 6.2.8 2.9.4 3.4-2.5 3.4-3.4 0-6.8 0-10.3 0zm8.2-3c-.7-2.3-2.1-3.3-4.2-3.1-1.8.2-3.2 1-3.6 3.1z"/><path d="m249.1 396.5c.6-.1 1-.2 1.4-.2 2.8-.1 2.8-.1 2.8 2.8v21.5 2.4c-1.5 0-2.7 0-4.2 0 0-8.8 0-17.5 0-26.5z"/><path d="m238.8 409.6c0-3.7.1-7.4 0-11.1 0-1.6.6-2.1 2.2-2.1s2.2.4 2.2 2.1c-.1 7.6-.1 15.1 0 22.7 0 1.6-.6 2.1-2.2 2.1s-2.2-.4-2.2-2.1c.1-3.9 0-7.8 0-11.6z"/><path d="m296.9 402.7c-1.1.8-2.3 1.7-3.6 2.6-2-2.6-4.5-4.2-7.8-4-2.4.1-4.5 1.1-6.2 3-3.1 3.6-2.8 9.3.7 12.5 3.9 3.6 8.5 3 13.3-1.8 1.2.8 2.4 1.6 3.7 2.4-2.6 4.9-8.8 7.3-14.5 6-6-1.4-10.3-6.9-10.3-13.1-.1-6.3 4.2-11.7 10.4-13.3 5.6-1.3 11.8 1.1 14.3 5.7z"/><path d="m73.7 270.3v-104.5h45.2c9.3 0 17.4 1.5 24.2 4.6 6.8 3 12 7.4 15.7 13.1s5.5 12.4 5.5 20.3c0 7.8-1.8 14.5-5.5 20.1s-8.9 9.9-15.7 12.9-14.8 4.5-24.2 4.5h-31.8l10.7-10.6v39.7h-24.1zm24.2-37-10.7-11.3h30.4c7.5 0 13-1.6 16.7-4.8s5.5-7.7 5.5-13.4c0-5.8-1.8-10.2-5.5-13.4s-9.3-4.8-16.7-4.8h-30.5l10.8-11.6zm42.2 37-26.1-37.9h25.8l26.4 37.9z"/><path d="m183.4 270.3v-104.5h24.2v104.5z"/><path d="m282.3 272.1c-8.1 0-15.5-1.3-22.5-4-6.9-2.6-12.9-6.4-18-11.3s-9-10.6-11.9-17.2c-2.8-6.6-4.3-13.8-4.3-21.6 0-7.9 1.4-15.1 4.3-21.6 2.8-6.6 6.8-12.3 11.9-17.2s11.1-8.6 18-11.3c6.9-2.6 14.4-4 22.5-4 9.1 0 17.2 1.6 24.5 4.7s13.5 7.7 18.4 13.8l-15.5 14.3c-3.6-4.1-7.6-7.1-11.9-9.2-4.4-2-9.2-3.1-14.3-3.1-4.9 0-9.4.8-13.4 2.4-4.1 1.6-7.6 3.9-10.6 6.9s-5.3 6.5-6.9 10.6-2.5 8.6-2.5 13.6.8 9.5 2.5 13.6c1.6 4.1 4 7.6 6.9 10.6s6.5 5.3 10.6 6.9 8.6 2.4 13.4 2.4c5.2 0 9.9-1 14.3-3.1 4.4-2 8.4-5.1 11.9-9.3l15.5 14.3c-5 6.1-11.1 10.7-18.4 13.9-7.1 3.3-15.3 4.9-24.5 4.9z"/><path d="m325.9 270.3 46.6-104.5h23.9l46.6 104.5h-25.4l-38.1-92.3h9.6l-38.4 92.2h-24.8zm23.3-22.4 6.4-18.4h53.7l6.6 18.4z"/><path d="m161.2 343.4-1.1-.3v-3.3l1.6.3c.5.2 1.1.2 1.6.2 1.4 0 3-1.6 4.9-6l.6-1.6-10.6-27.7h3.7l8.8 23.1 8.8-23.1h3.7l-10.6 27.7c-3.7 9.5-6 10.8-9.3 10.8-.9.1-1.5.1-2.1-.1z"/><path d="m182.3 319.7c0-8.7 5.1-14.7 12.6-14.7 7.4 0 12.6 6 12.6 14.7 0 8.6-5.2 14.7-12.6 14.7s-12.6-6.1-12.6-14.7zm21.9 0c0-6.7-3.8-11.4-9.2-11.4s-9.2 4.7-9.2 11.4c0 6.6 3.8 11.3 9.2 11.3s9.2-4.7 9.2-11.3z"/><path d="m210.9 325.3c-.2-1.3-.2-2.1-.2-4.3v-15.9h3.3v15.5c0 1.7.1 2.8.2 4 .5 3.5 2.6 6.2 6.5 6.2 4 0 7.9-2.9 7.9-8.9v-16.9h3.3v28.4h-3.3v-2.3c-2 1.9-4.8 3-7.9 3-5.8.1-9.2-3.2-9.8-8.8z"/><path d="m235 305.9h3.3v2.3c2.1-1.9 5.3-3.1 9-3.1v3.3h-1.1c-4.1 0-7.9 2.9-7.9 8.9v16.2h-3.3z"/><path d="m265.2 323.2h3.4c.5 4.8 5 7.8 11.5 7.8 3.4 0 6.1-.7 7.8-2.2 1.4-1.2 2.2-3 2.2-5 0-4.9-5.4-6-11.4-7.4-6.7-1.5-12.5-3.1-12.5-9.9 0-6.3 4.9-10 13.3-10.2 7-.1 12 3.5 12.8 9.4h-3.4c-.5-3.9-3.9-6.1-9.5-6.1-5.9-.1-9.8 2.5-9.8 6.6 0 4.4 3.7 5.6 10 6.9 3.1.6 6.5 1.3 9.2 2.9 1.2.6 2.3 1.5 3.3 2.8s1.5 3 1.5 4.8c0 6.7-5 10.7-13.3 10.7-8.6 0-14.3-4.3-15.1-11.1z"/><path d="m296.6 297.2h3.3v36.3h-3.3z"/><path d="m337.5 297.2v36.3h-3.3v-20.9c0-1.1 0-2.2 0-3.3v-4.1l-3.2 7.8-8.6 20.4h-2.9l-8.6-20.4c-.3-.6-.5-1.2-.7-1.7-.3-.6-.5-1.2-.7-1.8l-.9-2.2c-.4-1.1-.1 0-.8-1.9v28h-3.3v-36.3h3.6l13 31.1 13.1-31.1h3.3z"/></g><path d="m437.8 92.1h-30.3c-3.2 0-5.8-2.6-5.8-5.8v-30.3c0-3.2 2.6-5.8 5.8-5.8h6.3v4h-6.3c-1 0-1.8.8-1.8 1.8v30.3c0 1 .8 1.8 1.8 1.8h30.3c1 0 1.8-.8 1.8-1.8v-7.1h4v7.1c0 3.1-2.6 5.8-5.8 5.8z"/><path d="m447.8 81.1h-30.3c-3.2 0-5.8-2.6-5.8-5.8v-30.3c0-3.2 2.6-5.8 5.8-5.8h30.3c3.2 0 5.8 2.6 5.8 5.8v30.3c0 3.2-2.6 5.8-5.8 5.8zm-30.3-37.9c-1 0-1.8.8-1.8 1.8v30.3c0 1 .8 1.8 1.8 1.8h30.3c1 0 1.8-.8 1.8-1.8v-30.3c0-1-.8-1.8-1.8-1.8z"/><path d="m424.6 71.1c-.5 0-1-.2-1.4-.5-.8-.8-.8-2-.1-2.8l16.6-17.8c.8-.8 2-.9 2.8-.1s.8 2 .1 2.8l-16.6 17.7c-.4.5-.9.7-1.4.7z"/><path d="m443.1 65h-2.6v-13l-13 .9-.1-2.6 15.8-1.1z"/></svg>