<svg width="45" height="36" viewBox="0 0 45 36" fill="none" xmlns="http://www.w3.org/2000/svg">
<path fill-rule="evenodd" clip-rule="evenodd" d="M4 3C1.79086 3 0 4.79086 0 7V21V27V36L6.36364 31H41C43.2091 31 45 29.2091 45 27V7C45 4.79086 43.2091 3 41 3H4Z" fill="#78ACEA"/>
<path d="M22 4.43975C17.2244 0.24393 8.76322 1.46771 5.12959 2.60408L3.05322 26.73C8.65941 23.5831 18.0203 24.7772 22 26.5254V4.43975Z" fill="#B4CFF1"/>
<path d="M22 4.43975C26.7756 0.24393 35.2368 1.46771 38.8704 2.60408L40.9468 26.73C35.3406 23.5831 25.9797 24.7772 22 26.5254V4.43975Z" fill="#B4CFF1"/>
<path d="M22 2.92412C17.2244 -1.27169 8.76322 -0.0479141 5.12959 1.08845L3.05322 25.2144C8.65941 22.0675 18.0203 24.7773 22 26.5255V2.92412Z" fill="#C8E1FF"/>
<path d="M22 2.92412C26.7756 -1.27169 35.2368 -0.047914 38.8704 1.08845L40.9468 25.2144C35.3406 22.0675 25.9797 24.7773 22 26.5255V2.92412Z" fill="#C8E1FF"/>
<rect x="21.2422" y="2.27368" width="1.51575" height="24.2519" rx="0.757873" fill="#AECEF5"/>
<path d="M25.0315 4.92628C27.4314 4.29472 33.1407 3.41053 36.7785 4.92628" stroke="#78ACEA" stroke-linecap="round"/>
<path d="M6.84253 4.92628C9.24246 4.29472 14.9518 3.41053 18.5896 4.92628" stroke="#78ACEA" stroke-linecap="round"/>
<path d="M25.0315 8.41553C27.4314 7.78397 33.1407 6.89979 36.7785 8.41553" stroke="#78ACEA" stroke-linecap="round"/>
<path d="M6.84253 8.41553C9.24246 7.78397 14.9518 6.89979 18.5896 8.41553" stroke="#78ACEA" stroke-linecap="round"/>
<path d="M25.0315 12.2051C27.4314 11.5735 33.1407 10.6893 36.7785 12.2051" stroke="#78ACEA" stroke-linecap="round"/>
<path d="M6.84253 12.2051C9.24246 11.5735 14.9518 10.6893 18.5896 12.2051" stroke="#78ACEA" stroke-linecap="round"/>
<path d="M25.0315 15.9944C27.4314 15.3628 33.1407 14.4786 36.7785 15.9944" stroke="#78ACEA" stroke-linecap="round"/>
<path d="M6.84253 15.9944C9.24246 15.3628 14.9518 14.4786 18.5896 15.9944" stroke="#78ACEA" stroke-linecap="round"/>
<path d="M25.0315 19.7837C27.4314 19.1521 33.1407 18.268 36.7785 19.7837" stroke="#78ACEA" stroke-linecap="round"/>
<path d="M6.84253 19.7837C9.24246 19.1521 14.9518 18.268 18.5896 19.7837" stroke="#78ACEA" stroke-linecap="round"/>
</svg>
