<svg fill="none" height="51" viewBox="0 0 42 51" width="42" xmlns="http://www.w3.org/2000/svg"><path d="m9.55469 0 32.21251 7.16601-9.5546 42.95009-32.21259458-7.166z" fill="#78acea"/><path d="m5.3894 2.33838 32.9666 1.48363-1.9781 43.95549-32.96668-1.4836z" fill="#f15f5f"/><path d="m2.38354 1.05811h20.99996c6.6275 0 12 5.37258 12 11.99999v32h-32.99996z" fill="#ff7c7c"/><g clip-rule="evenodd" fill-rule="evenodd"><path d="m5.38354 27.5581c0-.2761.22386-.5.5-.5h24.99996c.2762 0 .5.2239.5.5s-.2238.5-.5.5h-24.99996c-.27614 0-.5-.2239-.5-.5z" fill="#fff"/><path d="m5.38354 33.5581c0-.2761.22386-.5.5-.5h24.99996c.2762 0 .5.2239.5.5s-.2238.5-.5.5h-24.99996c-.27614 0-.5-.2239-.5-.5z" fill="#fff"/><path d="m5.38354 40.5581c0-.2761.22386-.5.5-.5h24.99996c.2762 0 .5.2239.5.5s-.2238.5-.5.5h-24.99996c-.27614 0-.5-.2239-.5-.5z" fill="#fff"/></g><path d="m27.3835 12.0581c2.4-5.19999-1-9.49999-3-10.99999 8 0 11 8 11 11.99999-1.2-3.59999-5.8333-2.1667-8-1z" fill="#e65e5e"/><path d="m7.84012 19.0801c-.16 0-.29-.0367-.39-.11-.09334-.0733-.15-.17-.17-.29-.02-.1267.00333-.2667.07-.42l2.64-5.85c.08668-.1933.18998-.33.30998-.41.1267-.0867.27-.13.43-.13.1533 0 .29.0433.41.13.1267.08.2333.2167.32.41l2.65 5.85c.0734.1533.1.2933.08.42s-.0766.2267-.17.3c-.0933.0667-.2167.1-.37.1-.1867 0-.3333-.0433-.44-.13-.1-.0933-.19-.2333-.27-.42l-.65-1.51.54.35h-4.21998l.54-.35-.64 1.51c-.08667.1933-.17667.3333-.27.42-.09334.0867-.22667.13-.4.13zm2.86998-5.74-1.39998 3.33-.26-.32h3.33998l-.25.32-1.41-3.33z" fill="#fff"/><path d="m17.4515 19.1001c-.5 0-.9333-.08-1.3-.24-.3666-.16-.65-.38-.85-.66-.1933-.2867-.29-.62-.29-1 0-.2267.03-.4367.09-.63.0667-.2.16-.3833.28-.55.1267-.1733.2767-.3333.45-.48.18-.1533.3834-.2967.61-.43l.34-.2-.18.27c-.2933-.2933-.5066-.57-.64-.83-.1266-.2667-.19-.54-.19-.82 0-.3333.08-.6267.24-.88s.3867-.45.68-.59c.2934-.14.6367-.21 1.03-.21.5467 0 .98.14 1.3.42.32.2733.48.6467.48 1.12 0 .2533-.05.4933-.15.72s-.26.4433-.48.65-.5133.41-.88.61l.01-.3 1.7 1.81h-.27c.0867-.1467.1634-.3067.23-.48.0667-.18.1234-.37.17-.57.0534-.2067.0934-.42.12-.64.0267-.1667.0834-.29.17-.37.0867-.0867.21-.13.37-.13.1734 0 .3034.05.39.15.0867.0933.12.23.1.41-.0333.3133-.09.6133-.17.9-.0733.28-.1666.5433-.28.79-.1133.24-.24.4633-.38.67l-.01-.31.95.96c.1267.1267.19.2533.19.38s-.05.2333-.15.32c-.0933.08-.2233.12-.39.12-.1466 0-.2666-.0267-.36-.08-.0933-.06-.1966-.1467-.31-.26l-.62-.65h.29c-.2933.3133-.64.56-1.04.74-.3933.18-.81.27-1.25.27zm.07-.99c.32 0 .6034-.06.85-.18.2534-.1267.4834-.3133.69-.56l-.03.32-2.06-2.13.52.05-.29.17c-.2266.1333-.41.2667-.55.4-.14.1267-.2433.2667-.31.42-.06.1467-.09.3133-.09.5 0 .3133.11.56.33.74s.5334.27.94.27zm.2-5.37c-.24 0-.4333.07-.58.21-.1466.1333-.22.3167-.22.55 0 .1267.02.2467.06.36.04.1067.11.2267.21.36.1.1267.2367.2833.41.47l-.28-.02c.28-.16.5-.3033.66-.43.1667-.1267.2867-.2533.36-.38.0734-.1267.11-.2667.11-.42 0-.2267-.0666-.4-.2-.52-.1333-.12-.31-.18-.53-.18z" fill="#fff"/><path d="m22.5374 19.0801c-.16 0-.29-.0367-.39-.11-.0934-.0733-.15-.17-.17-.29-.02-.1267.0033-.2667.07-.42l2.64-5.85c.0866-.1933.19-.33.31-.41.1266-.0867.27-.13.43-.13.1533 0 .29.0433.41.13.1266.08.2333.2167.32.41l2.65 5.85c.0733.1533.1.2933.08.42s-.0767.2267-.17.3c-.0934.0667-.2167.1-.37.1-.1867 0-.3334-.0433-.44-.13-.1-.0933-.19-.2333-.27-.42l-.65-1.51.54.35h-4.22l.54-.35-.64 1.51c-.0867.1933-.1767.3333-.27.42-.0934.0867-.2267.13-.4.13zm2.87-5.74-1.4 3.33-.26-.32h3.34l-.25.32-1.41-3.33z" fill="#fff"/></svg>