<svg width="40" height="55" viewBox="0 0 40 55" fill="none" xmlns="http://www.w3.org/2000/svg">
<path d="M7.62111 25.0732C6.68118 25.0732 5.91907 24.3111 5.91907 23.3712V22.0502C5.91907 21.1103 6.68118 20.3481 7.62111 20.3481C8.56104 20.3481 9.32315 21.1103 9.32315 22.0502V23.3712C9.32315 24.3111 8.56104 25.0732 7.62111 25.0732Z" fill="#773535"/>
<path d="M23.4983 25.0732C22.5584 25.0732 21.7963 24.3111 21.7963 23.3712V22.0502C21.7963 21.1103 22.5584 20.3481 23.4983 20.3481C24.4382 20.3481 25.2004 21.1103 25.2004 22.0502V23.3712C25.2004 24.3111 24.4382 25.0732 23.4983 25.0732Z" fill="#773535"/>
<path d="M19.7894 27.385H11.7365V36.9876H19.7894V27.385Z" fill="#914343"/>
<path d="M15.7757 32.4404C11.4825 32.4404 8.0022 28.9601 8.0022 24.6669V15.5978C8.0022 13.5909 9.62803 11.9651 11.6349 11.9651H19.9419C21.9488 11.9651 23.5746 13.5909 23.5746 15.5978V24.6669C23.5492 28.9601 20.0689 32.4404 15.7757 32.4404Z" fill="#914343"/>
<path d="M19.7894 31.2971V32.4657C18.6208 33.177 17.249 33.5834 15.7756 33.5834C14.3022 33.5834 12.9304 33.177 11.7618 32.4657V31.2971C12.9304 32.0084 14.3022 32.4149 15.7756 32.4149C17.2236 32.4149 18.6208 32.0084 19.7894 31.2971Z" fill="#773535"/>
<path d="M31.5005 53.8049H0V42.0685C0 38.5373 2.87061 35.6921 6.37631 35.6921H25.0988C28.6299 35.6921 31.4751 38.5628 31.4751 42.0685V53.8049H31.5005Z" fill="#4E88FF"/>
<path d="M7.62102 21.2882C8.46282 21.2882 9.14524 20.6058 9.14524 19.764C9.14524 18.9222 8.46282 18.2397 7.62102 18.2397C6.77922 18.2397 6.0968 18.9222 6.0968 19.764C6.0968 20.6058 6.77922 21.2882 7.62102 21.2882Z" fill="#222744"/>
<path d="M7.03679 18.951C7.87859 18.951 8.56101 18.2686 8.56101 17.4268C8.56101 16.585 7.87859 15.9026 7.03679 15.9026C6.19499 15.9026 5.51257 16.585 5.51257 17.4268C5.51257 18.2686 6.19499 18.951 7.03679 18.951Z" fill="#222744"/>
<path d="M7.03679 16.9188C7.87859 16.9188 8.56101 16.2364 8.56101 15.3946C8.56101 14.5528 7.87859 13.8704 7.03679 13.8704C6.19499 13.8704 5.51257 14.5528 5.51257 15.3946C5.51257 16.2364 6.19499 16.9188 7.03679 16.9188Z" fill="#222744"/>
<path d="M7.62102 14.9881C8.46282 14.9881 9.14524 14.3057 9.14524 13.4639C9.14524 12.6221 8.46282 11.9397 7.62102 11.9397C6.77922 11.9397 6.0968 12.6221 6.0968 13.4639C6.0968 14.3057 6.77922 14.9881 7.62102 14.9881Z" fill="#222744"/>
<path d="M9.14531 13.464C9.98711 13.464 10.6695 12.7815 10.6695 11.9397C10.6695 11.0979 9.98711 10.4155 9.14531 10.4155C8.30351 10.4155 7.62109 11.0979 7.62109 11.9397C7.62109 12.7815 8.30351 13.464 9.14531 13.464Z" fill="#222744"/>
<path d="M11.7365 12.9303C12.5783 12.9303 13.2607 12.2479 13.2607 11.4061C13.2607 10.5643 12.5783 9.88184 11.7365 9.88184C10.8947 9.88184 10.2123 10.5643 10.2123 11.4061C10.2123 12.2479 10.8947 12.9303 11.7365 12.9303Z" fill="#222744"/>
<path d="M14.2514 12.9303C15.0932 12.9303 15.7756 12.2479 15.7756 11.4061C15.7756 10.5643 15.0932 9.88184 14.2514 9.88184C13.4096 9.88184 12.7272 10.5643 12.7272 11.4061C12.7272 12.2479 13.4096 12.9303 14.2514 12.9303Z" fill="#222744"/>
<path d="M16.5632 12.9303C17.405 12.9303 18.0874 12.2479 18.0874 11.4061C18.0874 10.5643 17.405 9.88184 16.5632 9.88184C15.7214 9.88184 15.0389 10.5643 15.0389 11.4061C15.0389 12.2479 15.7214 12.9303 16.5632 12.9303Z" fill="#222744"/>
<path d="M19.0273 12.9303C19.8691 12.9303 20.5515 12.2479 20.5515 11.4061C20.5515 10.5643 19.8691 9.88184 19.0273 9.88184C18.1855 9.88184 17.5031 10.5643 17.5031 11.4061C17.5031 12.2479 18.1855 12.9303 19.0273 12.9303Z" fill="#222744"/>
<path d="M21.3136 13.464C22.1554 13.464 22.8379 12.7815 22.8379 11.9397C22.8379 11.0979 22.1554 10.4155 21.3136 10.4155C20.4718 10.4155 19.7894 11.0979 19.7894 11.9397C19.7894 12.7815 20.4718 13.464 21.3136 13.464Z" fill="#222744"/>
<path d="M23.2443 14.9881C24.0861 14.9881 24.7685 14.3057 24.7685 13.4639C24.7685 12.6221 24.0861 11.9397 23.2443 11.9397C22.4025 11.9397 21.7201 12.6221 21.7201 13.4639C21.7201 14.3057 22.4025 14.9881 23.2443 14.9881Z" fill="#222744"/>
<path d="M23.5491 16.9188C24.3909 16.9188 25.0733 16.2364 25.0733 15.3946C25.0733 14.5528 24.3909 13.8704 23.5491 13.8704C22.7073 13.8704 22.0249 14.5528 22.0249 15.3946C22.0249 16.2364 22.7073 16.9188 23.5491 16.9188Z" fill="#222744"/>
<path d="M23.5491 18.951C24.3909 18.951 25.0733 18.2686 25.0733 17.4268C25.0733 16.585 24.3909 15.9026 23.5491 15.9026C22.7073 15.9026 22.0249 16.585 22.0249 17.4268C22.0249 18.2686 22.7073 18.951 23.5491 18.951Z" fill="#222744"/>
<path d="M23.2443 20.7547C24.0861 20.7547 24.7685 20.0723 24.7685 19.2305C24.7685 18.3887 24.0861 17.7063 23.2443 17.7063C22.4025 17.7063 21.7201 18.3887 21.7201 19.2305C21.7201 20.0723 22.4025 20.7547 23.2443 20.7547Z" fill="#222744"/>
<path d="M22.4061 15.9027C23.2479 15.9027 23.9303 15.2203 23.9303 14.3785C23.9303 13.5367 23.2479 12.8542 22.4061 12.8542C21.5643 12.8542 20.8818 13.5367 20.8818 14.3785C20.8818 15.2203 21.5643 15.9027 22.4061 15.9027Z" fill="#222744"/>
<path d="M19.9164 14.9881C20.7582 14.9881 21.4406 14.3057 21.4406 13.4639C21.4406 12.6221 20.7582 11.9397 19.9164 11.9397C19.0746 11.9397 18.3922 12.6221 18.3922 13.4639C18.3922 14.3057 19.0746 14.9881 19.9164 14.9881Z" fill="#222744"/>
<path d="M18.0873 14.9881C18.9291 14.9881 19.6115 14.3057 19.6115 13.4639C19.6115 12.6221 18.9291 11.9397 18.0873 11.9397C17.2455 11.9397 16.5631 12.6221 16.5631 13.4639C16.5631 14.3057 17.2455 14.9881 18.0873 14.9881Z" fill="#222744"/>
<path d="M15.4708 14.9882C16.3547 14.9882 17.0712 14.2717 17.0712 13.3878C17.0712 12.5039 16.3547 11.7874 15.4708 11.7874C14.5869 11.7874 13.8704 12.5039 13.8704 13.3878C13.8704 14.2717 14.5869 14.9882 15.4708 14.9882Z" fill="#222744"/>
<path d="M12.7272 14.9881C13.569 14.9881 14.2514 14.3057 14.2514 13.4639C14.2514 12.6221 13.569 11.9397 12.7272 11.9397C11.8854 11.9397 11.203 12.6221 11.203 13.4639C11.203 14.3057 11.8854 14.9881 12.7272 14.9881Z" fill="#222744"/>
<path d="M10.0853 15.3944C10.9271 15.3944 11.6095 14.712 11.6095 13.8702C11.6095 13.0284 10.9271 12.3459 10.0853 12.3459C9.24345 12.3459 8.56104 13.0284 8.56104 13.8702C8.56104 14.712 9.24345 15.3944 10.0853 15.3944Z" fill="#222744"/>
<path d="M8.56096 15.9027C9.40276 15.9027 10.0852 15.2203 10.0852 14.3785C10.0852 13.5367 9.40276 12.8542 8.56096 12.8542C7.71916 12.8542 7.03674 13.5367 7.03674 14.3785C7.03674 15.2203 7.71916 15.9027 8.56096 15.9027Z" fill="#222744"/>
<path d="M20.2467 35.6667L22.1012 38.4103L15.9789 35.6667H20.2467Z" fill="white"/>
<path d="M11.711 35.6667L9.83118 38.4103L15.9789 35.6667H11.711Z" fill="white"/>
<path d="M15.9789 35.6667L13.5656 50.8581L15.7757 54.1606L18.3922 50.8581L15.9789 35.6667Z" fill="#222744"/>
<path d="M15.9789 37.699L14.2515 36.4543L15.9789 35.6667L17.681 36.4289L15.9789 37.699Z" fill="#222744"/>
<path d="M6.09686 38.4102H5.51257V53.8048H6.09686V38.4102Z" fill="#3D7CEA"/>
<path d="M25.7847 38.4102H25.2004V53.8048H25.7847V38.4102Z" fill="#3D7CEA"/>
<path d="M23.7016 4.3186H7.79895V13.1083H23.7016V4.3186Z" fill="#4E88FF"/>
<path d="M2.33716 4.59806L16.4362 0L29.6207 4.77588L16.4616 10.3393L2.33716 4.59806Z" fill="#4E88FF"/>
<path d="M23.727 7.26536V8.35771L16.4616 11.4062L7.79895 7.90045V6.8335L16.4616 10.3392L23.727 7.26536Z" fill="#3D7CEA"/>
<rect x="32" y="22.7075" width="3" height="13" rx="1.5" fill="#222744"/>
<rect x="27" y="30.7075" width="3" height="13" rx="1.5" transform="rotate(-90 27 30.7075)" fill="#222744"/>
</svg>
