<svg width="39" height="44" viewBox="0 0 39 44" fill="none" xmlns="http://www.w3.org/2000/svg">
<circle cx="13.6001" cy="9.52" r="9.52" fill="#6D3A3A"/>
<circle cx="6.79997" cy="20.3998" r="4.08" fill="#6D3A3A"/>
<path d="M6.90986 17.3248C6.05767 17.3248 5.3667 16.6338 5.3667 15.7816V14.5839C5.3667 13.7317 6.05767 13.0408 6.90986 13.0408C7.76205 13.0408 8.45302 13.7317 8.45302 14.5839V15.7816C8.45302 16.6338 7.76205 17.3248 6.90986 17.3248Z" fill="#C16C6C"/>
<path d="M21.3049 17.3248C20.4527 17.3248 19.7617 16.6338 19.7617 15.7816V14.5839C19.7617 13.7317 20.4527 13.0408 21.3049 13.0408C22.1571 13.0408 22.848 13.7317 22.848 14.5839V15.7816C22.848 16.6338 22.1571 17.3248 21.3049 17.3248Z" fill="#C16C6C"/>
<path d="M17.9423 19.4209H10.6411V28.1271H17.9423V19.4209Z" fill="#C16C6C"/>
<path d="M14.303 24.0039C10.4105 24.0039 7.25513 20.8485 7.25513 16.9561V8.73355C7.25513 6.91401 8.72919 5.43994 10.5487 5.43994H18.0803C19.8998 5.43994 21.3739 6.91401 21.3739 8.73355V16.9561C21.3509 20.8485 18.1955 24.0039 14.303 24.0039Z" fill="#C16C6C"/>
<path d="M17.942 22.9678V24.0273C16.8825 24.6722 15.6388 25.0407 14.3029 25.0407C12.967 25.0407 11.7233 24.6722 10.6638 24.0273V22.9678C11.7233 23.6127 12.967 23.9812 14.3029 23.9812C15.6158 23.9812 16.8825 23.6127 17.942 22.9678Z" fill="#773535"/>
<path d="M28.56 43.3746H0V32.7337C0 29.5323 2.60264 26.9526 5.7811 26.9526H22.7559C25.9574 26.9526 28.537 29.5553 28.537 32.7337V43.3746H28.56Z" fill="#78ACEA"/>
<path d="M18.3567 26.9294L20.0381 29.4169L14.4873 26.9294H18.3567Z" fill="white"/>
<path d="M10.6177 26.9294L8.91333 29.4169L14.4871 26.9294H10.6177Z" fill="white"/>
<path d="M14.4871 26.9294L12.2991 40.7027L14.3029 43.6969L16.6752 40.7027L14.4871 26.9294Z" fill="#4067B6"/>
<path d="M14.4873 28.772L12.9211 27.6434L14.4873 26.9294L16.0305 27.6204L14.4873 28.772Z" fill="#4067B6"/>
<path d="M5.52779 29.417H4.99805V43.3745H5.52779V29.417Z" fill="#5F96D7"/>
<path d="M23.3779 29.417H22.8481V43.3745H23.3779V29.417Z" fill="#5F96D7"/>
<rect x="31" y="14" width="3" height="13" rx="1.5" fill="#222744"/>
<rect x="26" y="22" width="3" height="13" rx="1.5" transform="rotate(-90 26 22)" fill="#222744"/>
</svg>
