<svg width="53" height="37" viewBox="0 0 53 37" fill="none" xmlns="http://www.w3.org/2000/svg">
<path d="M7.09658 34.0784C7.09724 34.2688 7.17195 34.4513 7.30441 34.586C7.43687 34.7206 7.61633 34.7966 7.80365 34.7973H45.9629C46.1502 34.7966 46.3296 34.7206 46.4621 34.586C46.5946 34.4513 46.6693 34.2688 46.6699 34.0784L46.9858 11.7827C46.9505 11.4649 46.7966 11.1731 46.5559 10.9673C46.3152 10.7614 46.006 10.6573 45.6921 10.6763L8.39789 9.68719C8.15683 9.68054 7.91696 9.72384 7.69288 9.81443C7.46879 9.90502 7.26518 10.041 7.09443 10.2141C6.92368 10.3873 6.78935 10.5939 6.69964 10.8215C6.60992 11.0491 6.56668 11.2928 6.57255 11.5379L7.09658 34.0784Z" fill="#222744"/>
<path d="M7.79353 33.3951C7.79419 33.5748 7.86467 33.7468 7.98961 33.8739C8.11454 34.0009 8.2838 34.0725 8.46048 34.0732H45.0426C45.2193 34.0725 45.3885 34.0009 45.5135 33.8739C45.6384 33.7468 45.7089 33.5748 45.7095 33.3951L46.0104 13.1541C46.0053 12.9311 45.9564 12.7114 45.8665 12.508C45.7767 12.3045 45.6477 12.1214 45.4872 11.9694C45.3267 11.8174 45.1379 11.6995 44.9319 11.6228C44.726 11.546 44.507 11.512 44.2879 11.5226L8.54323 10.5462C8.37415 10.5424 8.20607 10.5734 8.04909 10.6373C7.89211 10.7013 7.74948 10.7969 7.62978 10.9183C7.51008 11.0398 7.41579 11.1846 7.35258 11.3441C7.28937 11.5036 7.25855 11.6744 7.26198 11.8463L7.79353 33.3951Z" fill="#BDD5FF"/>
<path d="M4.81243 36.6479L48.1769 36.6479C48.6255 36.6479 48.9893 36.2782 48.9893 35.822V35.5161C48.9893 35.0599 48.6255 34.6901 48.1769 34.6901L4.81243 34.6901C4.36377 34.6901 4.00005 35.0599 4.00005 35.5161V35.822C4.00005 36.2782 4.36377 36.6479 4.81243 36.6479Z" fill="#222744"/>
<path d="M37.1395 0.127494L14.4982 3.20517e-05C14.3219 -0.00121778 14.1473 0.0340967 13.9849 0.103817C13.8225 0.173537 13.6758 0.276198 13.5538 0.405523C13.4317 0.534848 13.3369 0.68812 13.2751 0.855969C13.2133 1.02382 13.1859 1.20271 13.1944 1.38172L14.7514 34.0911H39.9502L41.3493 4.8436L37.1395 0.127494Z" fill="white"/>
<path d="M38.0823 4.71365C37.9069 4.70833 37.7344 4.66685 37.5752 4.59174C37.4161 4.51663 37.2736 4.40945 37.1564 4.27669C37.0391 4.14392 36.9497 3.98835 36.8933 3.81938C36.837 3.65042 36.815 3.47159 36.8286 3.29372L37.0794 0.170898L41.3418 4.83602L38.0823 4.71365Z" fill="#AAAAAA"/>
<path opacity="0.78" d="M25.142 6.37309C27.1754 6.37309 34.9783 6.34505 36.949 6.3374C37.0123 6.34248 37.0739 6.36042 37.1302 6.39015C37.1865 6.41988 37.2363 6.46081 37.2768 6.51049C37.3172 6.56018 37.3475 6.61762 37.3657 6.67941C37.3839 6.7412 37.3897 6.80608 37.3828 6.87019V6.87019C37.3891 6.99647 37.3468 7.12028 37.2649 7.21543C37.183 7.31058 37.068 7.36961 36.944 7.38004L25.142 7.48201C25.0244 7.47551 24.9138 7.42358 24.8327 7.33686C24.7516 7.25013 24.7061 7.13517 24.7057 7.0155V6.94922C24.6965 6.88218 24.7006 6.81397 24.7177 6.74855C24.7347 6.68313 24.7644 6.62182 24.8051 6.56819C24.8457 6.51456 24.8964 6.46969 24.9542 6.4362C25.012 6.4027 25.0759 6.38125 25.142 6.37309V6.37309Z" fill="#DBDBDB"/>
<path opacity="0.78" d="M25.0492 8.66753C27.0826 8.66753 34.8855 8.63948 36.8563 8.63184C36.9195 8.63727 36.981 8.65542 37.0372 8.68522C37.0935 8.71503 37.1434 8.75591 37.184 8.80548C37.2246 8.85505 37.2551 8.91232 37.2737 8.97398C37.2923 9.03563 37.2987 9.10044 37.2925 9.16463V9.16463C37.2975 9.29099 37.2545 9.41445 37.1723 9.50938C37.0901 9.60432 36.9751 9.66344 36.8512 9.67448L25.0492 9.77645C24.9317 9.76995 24.821 9.71802 24.7399 9.63129C24.6588 9.54457 24.6134 9.4296 24.6129 9.30994V9.24366C24.6038 9.17662 24.6078 9.1084 24.6249 9.04298C24.642 8.97756 24.6717 8.91625 24.7123 8.86262C24.7529 8.809 24.8036 8.76413 24.8614 8.73063C24.9193 8.69714 24.9831 8.67568 25.0492 8.66753V8.66753Z" fill="#DBDBDB"/>
<path opacity="0.78" d="M18.001 11.9356H36.2343C36.618 11.9356 36.9289 12.1777 36.9213 12.4709C36.9213 12.7488 36.6205 12.968 36.2569 12.9808L18.0311 13.0521C17.8808 13.0669 17.7302 13.0282 17.605 12.9426C17.4797 12.8571 17.3875 12.73 17.344 12.5831V12.5168C17.2889 12.1981 17.5973 11.933 18.001 11.9356Z" fill="#DBDBDB"/>
<path opacity="0.78" d="M17.8556 14.3419C20.2978 14.3419 29.6803 14.2781 32.0472 14.2628C32.1167 14.2611 32.1859 14.2736 32.2506 14.2995C32.3154 14.3254 32.3743 14.3642 32.4241 14.4136C32.4739 14.463 32.5134 14.522 32.5404 14.5872C32.5674 14.6524 32.5813 14.7224 32.5813 14.7931V14.7931C32.5761 14.9306 32.5185 15.0607 32.4207 15.1558C32.3229 15.251 32.1926 15.3037 32.0572 15.303L17.8732 15.4483C17.7436 15.4513 17.6175 15.4057 17.5189 15.3201C17.4204 15.2345 17.3564 15.1149 17.3391 14.9843V14.918C17.3317 14.8448 17.3396 14.7708 17.3622 14.7009C17.3849 14.631 17.4218 14.5668 17.4706 14.5124C17.5193 14.458 17.5788 14.4147 17.6452 14.3853C17.7115 14.3559 17.7833 14.3411 17.8556 14.3419V14.3419Z" fill="#DBDBDB"/>
<path opacity="0.78" d="M17.9684 17.4956C21.1076 17.4956 33.1603 17.4956 36.2017 17.4956C36.5854 17.4956 36.8988 17.7352 36.8913 18.0284C36.8913 18.3063 36.5904 18.5383 36.2243 18.5383L18.001 18.6096C17.851 18.625 17.7004 18.5869 17.5751 18.5018C17.4497 18.4167 17.3574 18.2899 17.3139 18.1431V18.0743C17.2588 17.7582 17.5572 17.4956 17.9684 17.4956Z" fill="#DBDBDB"/>
<path opacity="0.78" d="M17.6951 19.9429C20.1523 19.9429 29.5749 19.9429 31.9569 19.9429C32.0265 19.9419 32.0957 19.955 32.1603 19.9815C32.2249 20.008 32.2837 20.0473 32.3332 20.0971C32.3827 20.147 32.4219 20.2064 32.4485 20.2718C32.4752 20.3373 32.4888 20.4074 32.4884 20.4783V20.4783C32.4832 20.6167 32.4249 20.7475 32.326 20.8428C32.2272 20.938 32.0956 20.9902 31.9594 20.9881L17.7076 21.0442C17.5778 21.0477 17.4514 21.0018 17.3531 20.9155C17.2548 20.8292 17.1917 20.7088 17.1761 20.5777V20.5089C17.1701 20.4362 17.1792 20.3632 17.2027 20.2943C17.2261 20.2255 17.2635 20.1624 17.3124 20.1091C17.3613 20.0558 17.4206 20.0135 17.4865 19.9849C17.5524 19.9563 17.6234 19.942 17.6951 19.9429Z" fill="#DBDBDB"/>
<path opacity="0.78" d="M17.808 23.1699H36.0414C36.425 23.1699 36.7359 23.4121 36.7284 23.7053C36.7284 23.9832 36.4275 24.2024 36.0615 24.2151L17.8381 24.2865C17.6878 24.3018 17.537 24.2633 17.4116 24.1777C17.2862 24.092 17.1941 23.9647 17.1511 23.8175V23.7512C17.1035 23.4325 17.4119 23.1674 17.808 23.1699Z" fill="#DBDBDB"/>
<path opacity="0.78" d="M17.6249 25.5866C20.0796 25.5866 29.5047 25.5866 31.8841 25.5866C31.954 25.5849 32.0234 25.5975 32.0884 25.6237C32.1533 25.6499 32.2123 25.6892 32.262 25.7392C32.3116 25.7892 32.3508 25.8489 32.3772 25.9146C32.4036 25.9804 32.4167 26.0509 32.4157 26.1219V26.1219C32.4117 26.2603 32.3542 26.3915 32.2556 26.487C32.157 26.5825 32.0253 26.6345 31.8891 26.6318L17.6349 26.6879C17.5052 26.6908 17.3791 26.6447 17.2809 26.5585C17.1827 26.4723 17.1195 26.3522 17.1034 26.2213V26.1551C17.0978 26.0822 17.1072 26.009 17.1309 25.94C17.1547 25.871 17.1923 25.8078 17.2413 25.7543C17.2903 25.7009 17.3497 25.6584 17.4158 25.6295C17.4818 25.6006 17.553 25.586 17.6249 25.5866V25.5866Z" fill="#DBDBDB"/>
<path opacity="0.78" d="M18.001 28.7759C21.1402 28.7759 33.1904 28.7759 36.2343 28.7759C36.618 28.7759 36.9289 29.0181 36.9213 29.3112C36.9213 29.5891 36.6205 29.8083 36.2569 29.8211L18.0311 29.8924C17.8808 29.9072 17.7302 29.8685 17.605 29.783C17.4797 29.6974 17.3875 29.5703 17.344 29.4234V29.3571C17.2889 29.041 17.5973 28.7759 18.001 28.7759Z" fill="#DBDBDB"/>
<path opacity="0.78" d="M17.823 31.4577C20.2476 31.4577 29.5523 31.445 31.9017 31.4424C31.9709 31.4414 32.0396 31.4545 32.1038 31.4809C32.168 31.5072 32.2263 31.5464 32.2754 31.5961C32.3244 31.6457 32.3632 31.7048 32.3895 31.7699C32.4157 31.8351 32.4289 31.9049 32.4282 31.9752V31.9752C32.4243 32.1127 32.3675 32.2432 32.2699 32.3385C32.1724 32.4339 32.042 32.4865 31.9067 32.4851L17.8355 32.5667C17.7065 32.5689 17.5813 32.5224 17.4841 32.4363C17.3869 32.3501 17.3245 32.2304 17.309 32.1002V32.0339C17.2995 31.9605 17.3058 31.8859 17.3275 31.8152C17.3492 31.7446 17.3858 31.6796 17.4347 31.6248C17.4836 31.5699 17.5437 31.5266 17.6108 31.4977C17.6778 31.4689 17.7502 31.4552 17.823 31.4577Z" fill="#DBDBDB"/>
<path d="M20.2577 4.91474L18.9815 9.68693H18.638L16.3814 3.82366C16.3335 3.62749 16.2222 3.45333 16.0654 3.3291C15.7815 3.24933 15.4873 3.21324 15.1929 3.22204V3.13281L18.7032 3.26027V3.3495C18.4161 3.32858 18.1278 3.33969 17.8431 3.38264C17.676 3.42173 17.5924 3.5067 17.5924 3.63756C17.5948 3.72587 17.6153 3.8127 17.6526 3.89249L19.2498 8.0962L20.1725 4.68785L19.9593 3.97661C19.9251 3.78132 19.8194 3.60645 19.6635 3.48716C19.3739 3.40476 19.0739 3.36695 18.7734 3.37499V3.26282L22.2159 3.39029V3.47951C21.9365 3.45728 21.6554 3.4684 21.3785 3.51265C21.2205 3.54834 21.1428 3.63501 21.1428 3.76757C21.1442 3.84157 21.1577 3.91482 21.1829 3.98426L22.4742 8.15738L23.5749 5.13907C23.6721 4.89533 23.7288 4.6369 23.7429 4.3743C23.7429 3.82111 23.3467 3.52795 22.5569 3.4999V3.41323L25.0944 3.505V3.59168C24.8749 3.58017 24.6575 3.63925 24.473 3.76052C24.2884 3.88178 24.1462 4.05908 24.0664 4.26723C24.0338 4.33861 23.9134 4.65216 23.7028 5.21045L22.0705 9.74301H21.7421L20.2577 4.91474Z" fill="#DBDBDB"/>
<path d="M51.6796 14.8645L37.468 18.538L37.9895 20.6666L52.2814 17.113C52.4282 17.0762 52.5576 16.9881 52.647 16.8642C52.7363 16.7402 52.78 16.5883 52.7703 16.4349C52.7245 15.9551 52.5569 15.4957 52.2839 15.1016C52.2204 15.0027 52.1278 14.9265 52.0194 14.884C51.9109 14.8414 51.7921 14.8346 51.6796 14.8645Z" fill="#222744"/>
<path d="M33.6241 20.5139L35.3391 19.6318C35.5337 19.9455 35.6218 20.3153 35.5899 20.6847L33.6818 20.6974C33.6587 20.7023 33.6347 20.6983 33.6144 20.6862C33.594 20.6742 33.5788 20.6549 33.5717 20.6321C33.5645 20.6092 33.5659 20.5846 33.5756 20.5627C33.5853 20.5409 33.6025 20.5235 33.6241 20.5139V20.5139Z" fill="#222744"/>
<path d="M37.4679 18.5381C37.6963 18.8362 37.8607 19.1796 37.9505 19.5462C38.0403 19.9129 38.0536 20.2946 37.9895 20.6667L35.5774 20.6846C35.6093 20.3152 35.5212 19.9453 35.3267 19.6317L37.4679 18.5381Z" fill="url(#paint0_linear_58_1219)"/>
<path d="M51.8827 15.4892C51.8901 15.4846 51.8959 15.4776 51.899 15.4693C51.9022 15.461 51.9026 15.4519 51.9002 15.4433C51.8988 15.4381 51.8964 15.4332 51.893 15.429C51.8897 15.4248 51.8856 15.4212 51.881 15.4186C51.8763 15.416 51.8712 15.4144 51.8659 15.4138C51.8606 15.4132 51.8552 15.4137 51.8501 15.4153L38.2703 18.9511C38.2599 18.9541 38.2509 18.961 38.2453 18.9705C38.2397 18.98 38.2379 18.9913 38.2402 19.0021C38.2414 19.0075 38.2437 19.0127 38.2468 19.0172C38.25 19.0217 38.2541 19.0255 38.2588 19.0284C38.2635 19.0313 38.2687 19.0331 38.2742 19.0339C38.2796 19.0346 38.2851 19.0342 38.2904 19.0327L51.8702 15.4943L51.8827 15.4892Z" fill="url(#paint1_linear_58_1219)"/>
<path d="M52.1385 16.2898C52.1453 16.2852 52.1505 16.2785 52.1532 16.2707C52.1559 16.2629 52.156 16.2544 52.1536 16.2465C52.1524 16.241 52.1502 16.2359 52.147 16.2314C52.1438 16.2268 52.1397 16.223 52.135 16.2202C52.1303 16.2173 52.1251 16.2154 52.1196 16.2147C52.1142 16.214 52.1087 16.2144 52.1034 16.2159L38.5237 19.7543C38.5183 19.7554 38.5133 19.7576 38.5089 19.7609C38.5046 19.7642 38.5009 19.7684 38.4983 19.7733C38.4957 19.7781 38.4941 19.7835 38.4937 19.789C38.4934 19.7945 38.4942 19.8001 38.4961 19.8052C38.499 19.8152 38.5056 19.8237 38.5144 19.8289C38.5233 19.8341 38.5338 19.8357 38.5437 19.8333L52.126 16.2975L52.1385 16.2898Z" fill="url(#paint2_linear_58_1219)"/>
<rect x="5" y="16" width="3" height="13" rx="1.5" fill="#222744"/>
<rect y="24" width="3" height="13" rx="1.5" transform="rotate(-90 0 24)" fill="#222744"/>
<defs>
<linearGradient id="paint0_linear_58_1219" x1="33.1961" y1="15.5113" x2="46.9518" y2="18.3317" gradientUnits="userSpaceOnUse">
<stop stop-color="#FF928E"/>
<stop offset="1" stop-color="#FE7062"/>
</linearGradient>
<linearGradient id="paint1_linear_58_1219" x1="38.3072" y1="12.3656" x2="50.7212" y2="14.91" gradientUnits="userSpaceOnUse">
<stop stop-color="#4F52FF"/>
<stop offset="1" stop-color="#4042E2"/>
</linearGradient>
<linearGradient id="paint2_linear_58_1219" x1="-58314.8" y1="599.109" x2="-58376.4" y2="838.03" gradientUnits="userSpaceOnUse">
<stop stop-color="#4F52FF"/>
<stop offset="1" stop-color="#4042E2"/>
</linearGradient>
</defs>
</svg>
