<svg width="51" height="36" viewBox="0 0 51 36" fill="none" xmlns="http://www.w3.org/2000/svg">
<path d="M6 10.5L25 1L44.5 10.5" stroke="black" stroke-linecap="round" stroke-linejoin="round"/>
<rect y="9" width="51" height="27" rx="2" fill="#FFC865"/>
<path d="M23.756 19.042C23.68 19.042 23.622 19.022 23.582 18.982C23.542 18.938 23.522 18.876 23.522 18.796V14.98C23.522 14.9 23.542 14.838 23.582 14.794C23.622 14.75 23.674 14.728 23.738 14.728C23.802 14.728 23.848 14.74 23.876 14.764C23.908 14.784 23.944 14.822 23.984 14.878L26.6 18.364H26.456V14.968C26.456 14.892 26.476 14.834 26.516 14.794C26.556 14.75 26.614 14.728 26.69 14.728C26.762 14.728 26.816 14.75 26.852 14.794C26.892 14.834 26.912 14.892 26.912 14.968V18.802C26.912 18.878 26.894 18.938 26.858 18.982C26.826 19.022 26.778 19.042 26.714 19.042C26.654 19.042 26.606 19.03 26.57 19.006C26.534 18.982 26.496 18.944 26.456 18.892L23.846 15.406H23.984V18.796C23.984 18.876 23.964 18.938 23.924 18.982C23.884 19.022 23.828 19.042 23.756 19.042ZM29.7394 19.054C29.3474 19.054 29.0054 18.966 28.7134 18.79C28.4254 18.61 28.2014 18.358 28.0414 18.034C27.8854 17.71 27.8074 17.326 27.8074 16.882C27.8074 16.546 27.8514 16.246 27.9394 15.982C28.0314 15.714 28.1614 15.488 28.3294 15.304C28.4974 15.116 28.6994 14.972 28.9354 14.872C29.1754 14.768 29.4434 14.716 29.7394 14.716C30.1394 14.716 30.4834 14.804 30.7714 14.98C31.0634 15.156 31.2874 15.406 31.4434 15.73C31.6034 16.05 31.6834 16.432 31.6834 16.876C31.6834 17.212 31.6374 17.514 31.5454 17.782C31.4534 18.05 31.3234 18.278 31.1554 18.466C30.9874 18.654 30.7834 18.8 30.5434 18.904C30.3074 19.004 30.0394 19.054 29.7394 19.054ZM29.7394 18.616C30.0434 18.616 30.2994 18.548 30.5074 18.412C30.7194 18.276 30.8814 18.078 30.9934 17.818C31.1054 17.558 31.1614 17.246 31.1614 16.882C31.1614 16.334 31.0374 15.91 30.7894 15.61C30.5454 15.306 30.1954 15.154 29.7394 15.154C29.4434 15.154 29.1894 15.222 28.9774 15.358C28.7694 15.494 28.6094 15.692 28.4974 15.952C28.3854 16.208 28.3294 16.518 28.3294 16.882C28.3294 17.426 28.4534 17.852 28.7014 18.16C28.9494 18.464 29.2954 18.616 29.7394 18.616ZM33.5833 19.042C33.5073 19.042 33.4473 19.02 33.4033 18.976C33.3593 18.928 33.3373 18.864 33.3373 18.784V15.196H31.9873C31.9153 15.196 31.8593 15.176 31.8193 15.136C31.7793 15.096 31.7593 15.044 31.7593 14.98C31.7593 14.912 31.7793 14.86 31.8193 14.824C31.8593 14.788 31.9153 14.77 31.9873 14.77H35.1853C35.2573 14.77 35.3133 14.788 35.3533 14.824C35.3933 14.86 35.4133 14.912 35.4133 14.98C35.4133 15.048 35.3933 15.102 35.3533 15.142C35.3133 15.178 35.2573 15.196 35.1853 15.196H33.8353V18.784C33.8353 18.864 33.8133 18.928 33.7693 18.976C33.7293 19.02 33.6673 19.042 33.5833 19.042ZM36.1547 19.042C36.0747 19.042 36.0127 19.02 35.9687 18.976C35.9287 18.928 35.9087 18.864 35.9087 18.784V14.986C35.9087 14.902 35.9287 14.838 35.9687 14.794C36.0127 14.75 36.0747 14.728 36.1547 14.728C36.2347 14.728 36.2947 14.75 36.3347 14.794C36.3787 14.838 36.4007 14.902 36.4007 14.986V18.784C36.4007 18.864 36.3807 18.928 36.3407 18.976C36.3007 19.02 36.2387 19.042 36.1547 19.042ZM39.2797 19.054C38.8637 19.054 38.5077 18.966 38.2117 18.79C37.9157 18.614 37.6877 18.364 37.5277 18.04C37.3717 17.716 37.2937 17.33 37.2937 16.882C37.2937 16.546 37.3377 16.246 37.4257 15.982C37.5177 15.714 37.6477 15.488 37.8157 15.304C37.9877 15.116 38.1977 14.972 38.4457 14.872C38.6937 14.768 38.9717 14.716 39.2797 14.716C39.5277 14.716 39.7637 14.752 39.9877 14.824C40.2117 14.892 40.4057 14.994 40.5697 15.13C40.6217 15.17 40.6557 15.216 40.6717 15.268C40.6917 15.316 40.6937 15.364 40.6777 15.412C40.6657 15.456 40.6417 15.494 40.6057 15.526C40.5737 15.554 40.5337 15.568 40.4857 15.568C40.4377 15.568 40.3837 15.548 40.3237 15.508C40.1797 15.392 40.0217 15.306 39.8497 15.25C39.6777 15.194 39.4917 15.166 39.2917 15.166C38.9757 15.166 38.7077 15.234 38.4877 15.37C38.2677 15.502 38.1017 15.696 37.9897 15.952C37.8777 16.208 37.8217 16.518 37.8217 16.882C37.8217 17.246 37.8777 17.558 37.9897 17.818C38.1017 18.074 38.2677 18.27 38.4877 18.406C38.7077 18.538 38.9757 18.604 39.2917 18.604C39.4877 18.604 39.6737 18.576 39.8497 18.52C40.0257 18.46 40.1877 18.372 40.3357 18.256C40.3957 18.216 40.4497 18.198 40.4977 18.202C40.5457 18.202 40.5857 18.216 40.6177 18.244C40.6497 18.272 40.6717 18.308 40.6837 18.352C40.6997 18.396 40.6997 18.442 40.6837 18.49C40.6717 18.538 40.6417 18.58 40.5937 18.616C40.4257 18.76 40.2277 18.87 39.9997 18.946C39.7757 19.018 39.5357 19.054 39.2797 19.054ZM41.7568 19C41.6688 19 41.6008 18.978 41.5528 18.934C41.5088 18.886 41.4868 18.818 41.4868 18.73V15.04C41.4868 14.952 41.5088 14.886 41.5528 14.842C41.6008 14.794 41.6688 14.77 41.7568 14.77H43.9888C44.0568 14.77 44.1088 14.788 44.1448 14.824C44.1808 14.86 44.1988 14.91 44.1988 14.974C44.1988 15.042 44.1808 15.094 44.1448 15.13C44.1088 15.166 44.0568 15.184 43.9888 15.184H41.9668V16.648H43.8628C43.9308 16.648 43.9828 16.666 44.0188 16.702C44.0548 16.734 44.0728 16.784 44.0728 16.852C44.0728 16.92 44.0548 16.972 44.0188 17.008C43.9828 17.044 43.9308 17.062 43.8628 17.062H41.9668V18.586H43.9888C44.0568 18.586 44.1088 18.604 44.1448 18.64C44.1808 18.676 44.1988 18.726 44.1988 18.79C44.1988 18.858 44.1808 18.91 44.1448 18.946C44.1088 18.982 44.0568 19 43.9888 19H41.7568Z" fill="white"/>
<rect x="4" y="13" width="14" height="19" rx="2" fill="white"/>
<line x1="23.5" y1="22.5" x2="47.5" y2="22.5" stroke="white" stroke-linecap="round"/>
<line x1="23.5" y1="26.5" x2="47.5" y2="26.5" stroke="white" stroke-linecap="round"/>
<line x1="23.5" y1="30.5" x2="39.5" y2="30.5" stroke="white" stroke-linecap="round"/>
</svg>
