<svg height="70" viewBox="0 0 105 70" width="105" xmlns="http://www.w3.org/2000/svg" xmlns:xlink="http://www.w3.org/1999/xlink"><clipPath id="a"><rect height="70" rx="12" width="105"/></clipPath><rect fill="#f5dac5" height="70" rx="12" width="105"/><text fill="#090909" font-family="Archivo-Bold, Archivo" font-size="13" font-weight="700" transform="translate(14 21.182)"><tspan x="0" y="0">All</tspan></text><g clip-path="url(#a)"><g transform="matrix(.995 -.105 .105 .995 25.969 36.163)"><path d="m4.021.687a3.353 3.353 0 0 0 -3.335 3.362l-.016 18.813-.007 8.958-.011 12.156 5.164-6.163 43.874-.038a3.353 3.353 0 0 0 3.335-3.362l.026-30.413a3.339 3.339 0 0 0 -3.329-3.353z" fill="#e4edfb" fill-rule="evenodd"/><path d="m1.136.2 13.259-.013a.87.87 0 0 1 .867.874l-.014 16.005a.873.873 0 0 1 -.869.876l-13.259.012a.87.87 0 0 1 -.867-.874l.014-16.005a.873.873 0 0 1 .869-.875z" fill="#ff7761" transform="translate(4.465 4.182)"/><g fill="#c8d5e8"><path d="m.852.358 24.991-.022a.84.84 0 0 1 0 1.68l-24.993.022a.84.84 0 0 1 0-1.68z" transform="translate(23.044 2.95)"/><path d="m.852.358 24.991-.022a.84.84 0 0 1 0 1.68l-24.993.022a.84.84 0 0 1 0-1.68z" transform="translate(23.039 8.225)"/><path d="m.852.358 24.991-.022a.84.84 0 0 1 0 1.68l-24.993.022a.84.84 0 0 1 0-1.68z" transform="translate(23.035 13.501)"/><path d="m.852.358 24.991-.022a.84.84 0 0 1 0 1.68l-24.993.022a.84.84 0 0 1 0-1.68z" transform="translate(23.03 18.777)"/><path d="m.855.612 43.319-.037a.84.84 0 0 1 0 1.68l-43.32.037a.84.84 0 0 1 0-1.68z" transform="translate(4.691 26.452)"/><path d="m.855.612 43.319-.037a.84.84 0 0 1 0 1.68l-43.32.037a.84.84 0 0 1 0-1.68z" transform="translate(4.687 31.728)"/></g></g><path d="m2.838.282 17.622-.016a2.609 2.609 0 0 1 2.6 2.623l-.009 12.011a2.62 2.62 0 0 1 -2.606 2.627l-17.622.015a2.609 2.609 0 0 1 -2.6-2.623l.009-12.01a2.62 2.62 0 0 1 2.606-2.627z" fill="#a4d9c8" transform="matrix(.995 -.105 .105 .995 82.648 30.565)"/><path d="m2.838.282 17.622-.016a2.609 2.609 0 0 1 2.6 2.623l-.009 12.011a2.62 2.62 0 0 1 -2.606 2.627l-17.622.015a2.609 2.609 0 0 1 -2.6-2.623l.009-12.01a2.62 2.62 0 0 1 2.606-2.627z" fill="#ff7761" transform="matrix(.995 -.105 .105 .995 84.796 51.167)"/></g></svg>