<svg width="42" height="51" viewBox="0 0 42 51" fill="none" xmlns="http://www.w3.org/2000/svg">
<path d="M9.55469 0L41.7672 7.16601L32.2126 50.1161L5.42402e-06 42.9501L9.55469 0Z" fill="#78ACEA"/>
<path d="M5.3894 2.33838L38.356 3.82201L36.3779 47.7775L3.41122 46.2939L5.3894 2.33838Z" fill="#F15F5F"/>
<path d="M2.38354 1.05811H23.3835C30.011 1.05811 35.3835 6.43069 35.3835 13.0581V45.0581H2.38354V1.05811Z" fill="#FF7C7C"/>
<path fill-rule="evenodd" clip-rule="evenodd" d="M5.38354 27.5581C5.38354 27.282 5.6074 27.0581 5.88354 27.0581H30.8835C31.1597 27.0581 31.3835 27.282 31.3835 27.5581C31.3835 27.8342 31.1597 28.0581 30.8835 28.0581H5.88354C5.6074 28.0581 5.38354 27.8342 5.38354 27.5581Z" fill="white"/>
<path fill-rule="evenodd" clip-rule="evenodd" d="M5.38354 33.5581C5.38354 33.282 5.6074 33.0581 5.88354 33.0581H30.8835C31.1597 33.0581 31.3835 33.282 31.3835 33.5581C31.3835 33.8342 31.1597 34.0581 30.8835 34.0581H5.88354C5.6074 34.0581 5.38354 33.8342 5.38354 33.5581Z" fill="white"/>
<path fill-rule="evenodd" clip-rule="evenodd" d="M5.38354 40.5581C5.38354 40.282 5.6074 40.0581 5.88354 40.0581H30.8835C31.1597 40.0581 31.3835 40.282 31.3835 40.5581C31.3835 40.8342 31.1597 41.0581 30.8835 41.0581H5.88354C5.6074 41.0581 5.38354 40.8342 5.38354 40.5581Z" fill="white"/>
<path d="M27.3835 12.0581C29.7835 6.85811 26.3835 2.55811 24.3835 1.05811C32.3835 1.05811 35.3835 9.05811 35.3835 13.0581C34.1835 9.45811 29.5502 10.8914 27.3835 12.0581Z" fill="#E65E5E"/>
<path d="M7.84012 21.0801C7.68012 21.0801 7.55012 21.0435 7.45012 20.9701C7.35678 20.8968 7.30012 20.8001 7.28012 20.6801C7.26012 20.5535 7.28345 20.4135 7.35012 20.2601L9.99012 14.4101C10.0768 14.2168 10.1801 14.0801 10.3001 14.0001C10.4268 13.9135 10.5701 13.8701 10.7301 13.8701C10.8834 13.8701 11.0201 13.9135 11.1401 14.0001C11.2668 14.0801 11.3734 14.2168 11.4601 14.4101L14.1101 20.2601C14.1835 20.4135 14.2101 20.5535 14.1901 20.6801C14.1701 20.8068 14.1135 20.9068 14.0201 20.9801C13.9268 21.0468 13.8034 21.0801 13.6501 21.0801C13.4634 21.0801 13.3168 21.0368 13.2101 20.9501C13.1101 20.8568 13.0201 20.7168 12.9401 20.5301L12.2901 19.0201L12.8301 19.3701H8.61012L9.15012 19.0201L8.51012 20.5301C8.42345 20.7235 8.33345 20.8635 8.24012 20.9501C8.14678 21.0368 8.01345 21.0801 7.84012 21.0801ZM10.7101 15.3401L9.31012 18.6701L9.05012 18.3501H12.3901L12.1401 18.6701L10.7301 15.3401H10.7101Z" fill="white"/>
<path d="M15.8115 21.0801C15.6182 21.0801 15.4682 21.0268 15.3615 20.9201C15.2615 20.8135 15.2115 20.6601 15.2115 20.4601V14.5101C15.2115 14.3035 15.2615 14.1468 15.3615 14.0401C15.4682 13.9268 15.6049 13.8701 15.7715 13.8701C15.9249 13.8701 16.0382 13.9001 16.1115 13.9601C16.1915 14.0135 16.2849 14.1068 16.3915 14.2401L20.2215 19.2101H19.9615V14.4801C19.9615 14.2868 20.0115 14.1368 20.1115 14.0301C20.2182 13.9235 20.3682 13.8701 20.5615 13.8701C20.7549 13.8701 20.9015 13.9235 21.0015 14.0301C21.1015 14.1368 21.1515 14.2868 21.1515 14.4801V20.4801C21.1515 20.6668 21.1049 20.8135 21.0115 20.9201C20.9182 21.0268 20.7915 21.0801 20.6315 21.0801C20.4782 21.0801 20.3549 21.0501 20.2615 20.9901C20.1749 20.9301 20.0782 20.8335 19.9715 20.7001L16.1515 15.7301H16.4015V20.4601C16.4015 20.6601 16.3515 20.8135 16.2515 20.9201C16.1515 21.0268 16.0049 21.0801 15.8115 21.0801Z" fill="white"/>
<path d="M22.762 21.0801C22.602 21.0801 22.472 21.0435 22.372 20.9701C22.2787 20.8968 22.222 20.8001 22.202 20.6801C22.182 20.5535 22.2053 20.4135 22.272 20.2601L24.912 14.4101C24.9987 14.2168 25.102 14.0801 25.222 14.0001C25.3487 13.9135 25.492 13.8701 25.652 13.8701C25.8053 13.8701 25.942 13.9135 26.062 14.0001C26.1887 14.0801 26.2953 14.2168 26.382 14.4101L29.032 20.2601C29.1053 20.4135 29.132 20.5535 29.112 20.6801C29.092 20.8068 29.0353 20.9068 28.942 20.9801C28.8487 21.0468 28.7253 21.0801 28.572 21.0801C28.3853 21.0801 28.2387 21.0368 28.132 20.9501C28.032 20.8568 27.942 20.7168 27.862 20.5301L27.212 19.0201L27.752 19.3701H23.532L24.072 19.0201L23.432 20.5301C23.3453 20.7235 23.2553 20.8635 23.162 20.9501C23.0687 21.0368 22.9353 21.0801 22.762 21.0801ZM25.632 15.3401L24.232 18.6701L23.972 18.3501H27.312L27.062 18.6701L25.652 15.3401H25.632Z" fill="white"/>
</svg>
