<?xml version="1.0" encoding="utf-8"?>
<!-- Generator: Adobe Illustrator 25.0.0, SVG Export Plug-In . SVG Version: 6.00 Build 0)  -->
<svg version="1.1" id="Layer_1" xmlns="http://www.w3.org/2000/svg" xmlns:xlink="http://www.w3.org/1999/xlink" x="0px" y="0px"
	 viewBox="0 0 1459.3 291.6" style="enable-background:new 0 0 1459.3 291.6;" xml:space="preserve">
<style type="text/css">
	.st0{fill:#222744;}
	.st1{fill:#4E88FF;}
	.st2{fill:#3843D0;}
	.st3{fill:#FF70BB;}
	.st4{fill:#FFAA4E;}
	.st5{fill:#FFFFFF;}
	.st6{font-family:'Gelion-Regular';}
	.st7{font-size:68.4559px;}
</style>
<g>
	<path class="st1" d="M134.5,17h-87C21.4,16.9,0.2,37.8,0,63.9c0,0,0,0,0,0.1v85.5h134.5V17z"/>
	<path class="st2" d="M143.4,291.6h87c26,0.1,47.2-20.9,47.4-46.9v-86.4H143.4V291.6z"/>
	<path class="st3" d="M0,158.3v86.4c0.2,26.1,21.4,47,47.5,46.9c0,0,0,0,0,0h87V158.3H0z"/>
	<path class="st4" d="M277.8,149.5V63.9c-0.1-26-21.3-47-47.4-46.9h-87v132.5H277.8z"/>
	<path class="st5" d="M86,113.1H48.6c-4.8,0-9.4-1.8-12.9-5.1h19.9c0.7,0.9,1.7,1.5,2.9,1.6H59c0.4,0.1,0.8,0.1,1.2,0
		c1.8-0.5,3-2.2,3-4c-0.1-2.4-2-4.3-4.4-4.2c-1.3,0-2.5,0.6-3.3,1.6H31.9c-1.3-2.6-2-5.4-2-8.3c0-2.4,0.5-4.8,1.4-7h24.3
		c1.5,1.9,4.2,2.2,6.1,0.7c1-0.8,1.6-2,1.6-3.3c0-2.3-1.9-4.2-4.2-4.2c0,0,0,0-0.1,0c-1.4,0-2.6,0.6-3.4,1.7H34.5
		c2.7-3.1,6.3-5.2,10.3-6.1c6.8-12.5,22.4-17.1,34.9-10.3c2.8,1.5,5.3,3.6,7.4,6H68c-1.4-1.9-4.1-2.3-6-0.8c-1.9,1.4-2.3,4.1-0.8,6
		c1.4,1.9,4.1,2.3,6,0.8c0.3-0.2,0.6-0.5,0.8-0.8h24.6c6.5,2.5,11.1,8.5,11.8,15.4H68c-1.4-1.9-4.1-2.3-6-0.8
		c-1.9,1.4-2.3,4.1-0.8,6c1.4,1.9,4.1,2.3,6,0.8c0.3-0.2,0.6-0.5,0.8-0.8h36.4C102.7,106.8,95,113.2,86,113.1z"/>
	<g>
		<path class="st5" d="M229.3,74.8l8.6-4.9c0.4-0.2,1-0.1,1.2,0.3c0,0,0,0,0,0.1c0.2,0.4,0.1,0.9-0.3,1.1c0,0-0.1,0-0.1,0.1
			l-8.5,5.1h-0.5c-0.3,0-0.6-0.2-0.8-0.5C228.7,75.7,228.8,75.1,229.3,74.8C229.3,74.8,229.3,74.8,229.3,74.8z"/>
		<path class="st5" d="M220.7,66.9l5.1-8.4c0.3-0.4,0.8-0.5,1.2-0.3c0.4,0.2,0.6,0.8,0.4,1.2l-5.1,8.5c-0.2,0.3-0.5,0.4-0.8,0.4
			c-0.2,0-0.3,0-0.5,0C220.6,68,220.4,67.5,220.7,66.9C220.7,67,220.7,67,220.7,66.9z"/>
		<path class="st5" d="M209.3,54.6c0-0.5,0.3-0.8,0.8-0.9c0,0,0.1,0,0.1,0c0.5,0,0.9,0.3,0.9,0.8c0,0,0,0,0,0.1v9.8
			c0,0.5-0.4,0.9-0.9,0.9c-0.5,0-0.9-0.4-0.9-0.9V54.6z"/>
		<path class="st5" d="M193.5,58.2c0.4-0.2,1-0.1,1.3,0.3l5.1,8.4c0.2,0.4,0.1,1-0.4,1.2c-0.2,0-0.3,0-0.5,0c-0.3,0-0.6-0.2-0.8-0.4
			l-5.1-8.4C193,58.9,193.1,58.4,193.5,58.2z"/>
		<path class="st5" d="M181.6,71.4c-0.4-0.2-0.6-0.7-0.4-1.1c0,0,0,0,0-0.1c0.2-0.4,0.7-0.6,1.2-0.4c0,0,0,0,0.1,0l8.5,4.9
			c0.4,0.2,0.6,0.8,0.4,1.2c-0.2,0.3-0.5,0.5-0.8,0.5c-0.1,0.1-0.2,0.1-0.3,0.2L181.6,71.4z"/>
		<path class="st5" d="M210.6,122.3L210.6,122.3c-3.1,0-6.6-1.4-6.6-3.6h13.2C216.9,120.8,213.6,122.2,210.6,122.3z"/>
		<path class="st5" d="M219.3,116.4c0,0.6-0.6,1.1-1.2,1.1c0,0,0,0,0,0h-15.8c-0.6,0-1.2-0.5-1.2-1.1c0,0,0,0,0,0v-0.7
			c0.1-0.6,0.5-1,1.1-1h15.9c0.6,0,1.2,0.5,1.2,1.1c0,0,0,0,0,0V116.4z"/>
		<path class="st5" d="M227.3,96.5c-4.8,8.6-6.1,6.9-6.9,11.6c-0.1,0.9-0.3,1.7-0.6,2.5c0.4,0.1,0.6,0.5,0.6,0.9v0.7
			c-0.1,0.6-0.6,1.1-1.3,1.1h-17.6c-0.3,0-0.7-0.1-0.9-0.3l0,0c-0.2-0.2-0.3-0.4-0.3-0.7v-0.8c0-0.4,0.3-0.8,0.6-0.9
			c-0.3-0.8-0.5-1.7-0.6-2.5c-0.8-4.7-2.1-3-6.9-11.6c-5.3-9.4-2.1-21.4,7.4-26.7c9.4-5.3,21.4-2.1,26.7,7.4
			c0.5,0.9,0.9,1.8,1.3,2.8c0.8,2.2,1.3,4.5,1.2,6.9C229.9,90.2,229,93.6,227.3,96.5z"/>
	</g>
	<path class="st5" d="M106.6,239.9c0-0.3-0.2-0.5-0.5-0.6h-1.5c-0.2-0.9-0.4-1.7-0.8-2.5l1.1-1c0.2-0.2,0.2-0.5,0-0.8l-1-1.5
		c-0.2-0.3-0.5-0.4-0.8-0.3l-1.3,0.5c-0.6-0.7-1.2-1.3-2-1.8l0.4-1.4c0.1-0.3-0.1-0.6-0.3-0.7l-1.6-0.8c-0.2-0.2-0.5-0.2-0.8,0
		l-0.9,1.1c-0.8-0.3-1.7-0.5-2.6-0.6l-0.4-1.4c-0.1-0.3-0.3-0.5-0.6-0.5h-1.9c-0.3,0-0.5,0.2-0.6,0.5v1.4c-0.9,0.1-1.7,0.4-2.5,0.8
		l-1-1c-0.2-0.1-0.5-0.1-0.8,0l-1.6,1c-0.2,0.2-0.3,0.5-0.3,0.8l0.6,1.3c-0.4,0.4-0.8,0.8-1.2,1.2l-8.7-5.1c0.5-1.6,0.9-3.2,1.1-4.8
		l2.7-0.6c0.5-0.2,0.9-0.6,0.9-1.1v-3.4c-0.1-0.5-0.5-1-1-1.1l-2.7-0.4c-0.3-1.6-0.8-3.2-1.4-4.7l2-1.9c0.3-0.4,0.3-1.1,0-1.5
		l-1.9-2.9c-0.1-0.1-0.3-0.3-0.5-0.4c-0.3-0.1-0.6-0.1-0.9,0l-2.6,1c-1.1-1.3-2.3-2.4-3.7-3.3l0.8-2.6c0.1-0.5-0.1-1.1-0.6-1.4
		l-3-1.5c-0.5-0.2-1.1-0.1-1.4,0.3l-1.7,2.1c-1.6-0.6-3.2-0.9-4.8-1.1l-0.6-2.6c-0.1-0.5-0.6-0.9-1.2-0.9H51c-0.5,0-1,0.4-1.1,1
		l-0.5,2.7c-1.6,0.3-3.2,0.8-4.7,1.4l-1.9-2c-0.4-0.3-1.1-0.3-1.5,0l-2.9,1.1c-0.4,0.3-0.6,0.9-0.5,1.4l1,2.5
		c-1.2,1.1-2.4,2.3-3.4,3.6l-2.6-0.8c-0.5-0.1-1.1,0.1-1.4,0.6l-1.6,3c-0.3,0.4-0.3,1,0,1.4l2.1,1.7c-0.5,1.6-0.9,3.2-1.1,4.8
		l-2.7,0.6c-0.5,0.2-0.9,0.6-0.9,1.1v3.4c0.1,0.6,0.5,1,1,1.1l2.7,0.5c0.3,1.6,0.8,3.1,1.4,4.6l-1.8,2c-0.3,0.4-0.3,1.1,0,1.5
		l1.9,2.9c0.3,0.4,0.9,0.6,1.4,0.5l2.6-1c1.1,1.2,2.3,2.4,3.6,3.3l-0.8,2.6c-0.2,0.5,0.1,1.1,0.6,1.3l3.1,1.6c0.4,0.3,1,0.3,1.4,0
		l1.7-2.4c1.6,0.6,3.2,0.9,4.8,1.1l0.7,2.6c0.1,0.5,0.6,0.9,1.2,0.9l3.6-0.2c0.5,0,1-0.4,1.1-1l0.5-2.7c1.6-0.3,3.2-0.8,4.7-1.4
		l1.9,2c0.4,0.3,1.1,0.3,1.5,0l2.9-1.8c0.4-0.3,0.6-0.9,0.5-1.4l-1-2.5c1.2-1.1,2.4-2.3,3.3-3.6l9.3,4.1c-0.2,0.5-0.3,1.1-0.3,1.6
		l-1.4,0.4c-0.3,0.1-0.5,0.3-0.5,0.6v1.8c0,0.3,0.2,0.5,0.5,0.6H81c0.2,0.9,0.5,1.7,0.8,2.5l-1.1,1c-0.2,0.2-0.2,0.5,0,0.8l1,1.6
		c0.2,0.1,0.5,0.1,0.8,0l1.3-0.5c0.6,0.7,1.2,1.3,2,1.8l-0.4,1.4c-0.1,0.3,0.1,0.6,0.3,0.7l1.6,0.9c0.2,0.1,0.5,0.1,0.8,0L89,252
		c0.8,0.3,1.7,0.5,2.6,0.6L92,254c0.1,0.3,0.3,0.5,0.6,0.5h1.9c0.3,0,0.6-0.2,0.6-0.5v-1.4c0.9-0.2,1.7-0.5,2.5-0.8l1,1
		c0.2,0.2,0.5,0.2,0.8,0l1.6-1c0.2-0.2,0.3-0.4,0.3-0.7l-0.6-1.4c0.7-0.6,1.3-1.2,1.9-1.9l1.4,0.4c0.3,0.1,0.6-0.1,0.7-0.3l0.9-1.6
		c0.1-0.2,0.1-0.5,0-0.8l-1.1-0.9c0.3-0.8,0.5-1.7,0.6-2.6l1.4-0.3c0.3-0.1,0.5-0.3,0.5-0.6L106.6,239.9z M69.8,225L56,216.6
		c-2.4-1.1-5.3-0.2-6.6,2.1c-1.3,2.4-0.4,5.3,2,6.5c0,0,0.1,0,0.1,0l14.7,6.4c-5.1,5.7-13.4,7.2-20.2,3.7c-8-4.1-11.1-13.9-7-21.9
		c0-0.1,0.1-0.2,0.1-0.2c4.3-8.1,14.4-11.2,22.6-6.8c0,0,0,0,0.1,0C68.4,210,71.7,217.7,69.8,225z M55.6,221.9
		c-0.5,1-1.8,1.4-2.8,0.9c0,0,0,0,0,0c-1-0.5-1.4-1.8-0.9-2.8c0,0,0,0,0-0.1c0.5-1,1.8-1.4,2.8-0.9c0,0,0,0,0,0
		C55.7,219.6,56.2,220.8,55.6,221.9C55.6,221.8,55.6,221.9,55.6,221.9z"/>
	<g>
		<path class="st5" d="M232.9,239.4c0,4-10.3,7.3-22.6,7.3s-22.7-3.3-22.7-7.3v-15.4l20.2,5.1c0.8,0.2,1.6,0.3,2.5,0.3
			c0.8,0,1.6-0.1,2.4-0.3l20.2-5.1V239.4z"/>
		<path class="st5" d="M247.2,217.4l-3.1,0.7v19.5c0.8,0.9,1.3,2.1,1.2,3.3c0.4,2-0.9,4-2.9,4.4c-2,0.4-4-0.9-4.4-2.9
			c-0.1-0.5-0.1-1,0-1.5c0-1.2,0.4-2.4,1.2-3.3v-18.3l-6.4,1.6l-20.6,5.1c-1.3,0.3-2.7,0.3-4,0l-20.6-5.1l-14.3-3.5
			c-0.4-0.1-0.7-0.3-0.9-0.6c-0.3-0.3-0.4-0.6-0.6-1l0,0c-0.5-1.3,0.2-2.7,1.5-3.2l35-8.6c0.6-0.2,1.3-0.3,2-0.3
			c0.7,0,1.3,0.1,2,0.3l35,8.6c0.6,0.2,1.1,0.7,1.3,1.3c0.6,1.3,0.1,2.8-1.2,3.4C247.4,217.3,247.3,217.4,247.2,217.4z"/>
	</g>
</g>
<path class="st0" d="M320.8,61h29.5c3,0,5.4,2.4,5.5,5.4c0,0,0,0,0,0v8.5l0,0c7.9-10.2,20-16.1,32.8-16.1
	c30.1,0,40.1,24.6,40.1,46.1v62c0,3-2.4,5.4-5.4,5.4c0,0,0,0-0.1,0h-29.7c-3,0-5.4-2.4-5.5-5.4c0,0,0,0,0,0V112
	c0.2-4.5-1.3-8.8-4.1-12.3c-3-3.1-7.2-4.7-11.5-4.5c-8.6-0.6-16,5.9-16.6,14.5c-0.1,0.8,0,1.6,0,2.5v54.5c0,3-2.5,5.4-5.5,5.4
	c0,0,0,0,0,0h-29.8"/>
<path class="st0" d="M479.2,126.5c1,5.1,3.9,9.6,8.3,12.5c4.3,3.2,9.6,4.9,15,4.7c6.9,0,13.4-3.1,17.8-8.4c1.4-1.6,3.8-2.2,5.8-1.5
	l23.7,8.1c2.8,1,4.4,4,3.4,6.9c-0.1,0.4-0.3,0.8-0.6,1.2c-10.5,16.7-28.9,24.7-51.2,24.7c-10.7,0.1-21.3-2.5-30.8-7.6
	c-9.3-4.7-17-11.9-22.5-20.8c-5.8-9-8.7-19.4-8.5-30.1c-0.1-10.4,2.8-20.5,8.3-29.3c5.6-8.7,13.2-16,22.3-21
	c9.3-4.9,19.6-7.4,30.1-7.4c10.3-0.1,20.5,2.4,29.6,7.4c8.8,4.5,16.2,11.5,21.2,20.1c5.1,8.8,7.7,18.7,7.6,28.8l0,0
	c0,6.4-5.2,11.5-11.6,11.5c0,0-0.1,0-0.1,0L479.2,126.5z M487,93.2c-3.7,2.9-6.3,6.9-7.4,11.4h36.8c1.3,0,2.4-1,2.4-2.3
	c0-0.2,0-0.4-0.1-0.6c-2.5-8.2-10.4-13.7-18.9-13C495.2,88.8,490.7,90.3,487,93.2z"/>
<path class="st0" d="M607.2,148.5l-15,21.3c-1,1.5-2.7,2.3-4.5,2.3h-31.2c-3,0.1-5.4-2.3-5.5-5.3c0-1.2,0.4-2.4,1.1-3.4l33.9-44.3
	c1.4-1.9,1.4-4.6,0-6.5l-33-43.2c-1.8-2.4-1.4-5.7,1-7.5c1-0.7,2.1-1.1,3.4-1.1H589c1.8,0,3.4,0.8,4.5,2.3l14.6,20.5
	c1.7,2.5,5.2,3,7.6,1.3c0.5-0.4,0.9-0.8,1.3-1.3l14.6-20.5c1-1.5,2.7-2.3,4.5-2.3h31c3-0.1,5.4,2.3,5.5,5.3c0,1.2-0.4,2.4-1.1,3.4
	L638.3,113c-1.5,1.9-1.5,4.6,0,6.5l33.8,44c1.8,2.4,1.4,5.7-1,7.5c-1,0.7-2.1,1.1-3.4,1.1h-31.9c-1.8,0-3.4-0.9-4.5-2.3l-15-21.3
	c-1.7-2.5-5.1-3.2-7.7-1.5C608.1,147.5,607.6,148,607.2,148.5z"/>
<path class="st0" d="M766.4,167.3c0,2.1-1.4,4-3.4,4.7c-5.9,1.5-12,2.1-18.1,2c-11.7,0.6-23.3-3.3-32.2-11c-8.5-8-13-19.4-12.2-31.1
	V98.8c0-2.8-2.2-5-5-5h-11.8c-2.8,0-5-2.2-5-5V65.9c0-2.8,2.2-5,5-5h12.5c2.8,0,5-2.2,5-5V30.1c0-2.8,2.2-5,5-5h30.1
	c2.8,0,5,2.2,5,5v26.1c0,2.8,2.2,5,5,5h16.5c2.8,0,5,2.2,5,5v23.1c0,2.8-2.2,5-5,5h-16.5c-2.8,0-5,2.2-5,5v29.1c0,8.5,5,13,14.7,13
	c1.1,0,2.9,0,5-0.3c2.6-0.2,4.9,1.6,5.3,4.2v21.8V167.3z"/>
<path class="st0" d="M885.3,133.5c0-19.2-15.9-32.2-43.2-37.2c-9.1-1.7-13.5-4.4-13.5-8.2s4-6.1,10-6.1c4.8-0.2,9.4,1.4,13.2,4.3
	c3.3,3.1,8.1,4,12.2,2.1l11.9-6.9c3.4-1.7,4.8-5.9,3.1-9.4c-0.2-0.3-0.4-0.7-0.6-1c-8.7-10.9-23.1-17-41-17
	c-11.9-0.3-23.5,3.4-33,10.7c-8.6,6-13.7,15.9-13.6,26.4c0,18.2,14,30.1,41.7,35.6c9.1,1.9,13.8,5,13.8,9s-4.7,6.9-10.4,6.9
	c-6.5,0.3-12.8-1.9-17.6-6.3c-3.1-3.6-8.3-4.6-12.6-2.7l-11.9,6.9c-3.5,1.9-4.8,6.3-2.8,9.8c0,0.1,0.1,0.1,0.1,0.2
	c9.2,13.4,24.6,20.1,46.2,20.1c15.3,0,26.9-3.6,35.1-10.9C880.5,153.4,885.2,143.8,885.3,133.5z"/>
<path class="st0" d="M984.8,125.3c-4.1-1.3-8.6,0-11.3,3.4c-3.9,4.2-9.4,6.4-15,6.2c-11.7,0.2-21.4-9.1-21.6-20.8c0-0.7,0-1.3,0.1-2
	c-0.3-11.8,9-21.6,20.7-21.9c0.3,0,0.5,0,0.8,0c5.3,0,10.4,2,14.2,5.7c3.1,3.6,8,5.1,12.5,3.8l19.7-8.2c3.8-1.3,5.7-5.5,4.3-9.2
	c-0.1-0.3-0.2-0.5-0.3-0.8c-9.2-17.4-27.6-27.1-50.1-27.1c-16.3-0.2-32,5.8-44,16.7c-12,10.5-18.7,25.7-18.4,41.7
	c-0.4,15.9,6.1,31.3,17.8,42.1c12.1,10.9,28,16.8,44.3,16.3c22.6,0,41.2-10,51-27.1c1.8-3.6,0.3-8-3.3-9.7c-0.2-0.1-0.4-0.2-0.7-0.3
	L984.8,125.3z"/>
<path class="st0" d="M1127.9,171.6c4.5,0,8.1-3.6,8.2-8.1V104c0-21.8-10-46.5-39.6-46.5c-12.5-0.4-24.4,5.2-32.1,15l0,0l0,0V9.2
	c0-4.5-3.6-8.1-8-8.1c-0.1,0-0.3,0-0.4,0h-24.2c-4.5,0-8.1,3.6-8.1,8c0,0,0,0.1,0,0.1v154.3c0,4.5,3.6,8.1,8.1,8.1h24
	c4.5,0,8.1-3.6,8.1-8.1v-52.6c-0.8-8.5,5.5-16.1,14-16.9c0.8-0.1,1.7-0.1,2.5,0c8.7,0.1,15.6,7.3,15.5,16c0,0.3,0,0.6,0,1v52.6
	c0,4.5,3.6,8.1,8.1,8.1H1127.9z"/>
<path class="st0" d="M1146.9,112.6c-0.4,15.9,6.2,31.2,18,41.9c25.3,22.2,63.2,22,88.3-0.4c12-10.7,18.7-26.2,18.4-42.3
	c0.3-15.7-6.3-30.8-18.2-41.2c-11.9-10.8-27.5-16.7-43.6-16.3c-16.3-0.2-32.1,5.8-44.3,16.7C1153.4,81.3,1146.6,96.6,1146.9,112.6z
	 M1209.3,135.3c-12.5,0-22.7-10.2-22.7-22.7s10.2-22.7,22.7-22.7l0,0c12.2,0.1,21.9,10,21.8,22.2c0,0.1,0,0.3,0,0.4
	c0.1,6-2.2,11.7-6.3,16.1C1220.8,133,1215.2,135.4,1209.3,135.3z"/>
<path class="st0" d="M1282.8,112.6c-0.4,15.9,6.2,31.2,18,41.9c25.3,22.2,63.2,22,88.3-0.4c12-10.7,18.8-26.2,18.4-42.3
	c0.3-15.7-6.4-30.8-18.2-41.2c-11.9-10.8-27.6-16.7-43.7-16.3c-16.3-0.2-32.1,5.8-44.2,16.7C1289.3,81.3,1282.5,96.6,1282.8,112.6z
	 M1345.2,135.3c-12.5,0-22.7-10.2-22.7-22.7s10.2-22.7,22.7-22.7l0,0c12.2,0.1,21.9,10.1,21.8,22.3c0,0.1,0,0.2,0,0.3
	c0.1,6-2.2,11.8-6.4,16.1C1356.7,133,1351.1,135.4,1345.2,135.3z"/>
<path class="st0" d="M1459.3,8.1c0-4.5-3.6-8.1-8.1-8.1h-24.4c-4.5,0-8.1,3.6-8.1,8.1v154.3c0,4.5,3.7,8,8.1,8c0,0,0,0,0,0h24.4
	c4.5,0,8.1-3.6,8.1-8.1V8.1z"/>
<g>
	<text transform="matrix(1 0 0 1 320.838 267.1673)" class="st6 st7">School ERP | CRM | Web | Mobile | App</text>
</g>
</svg>
