<svg width="38" height="43" viewBox="0 0 38 43" fill="none" xmlns="http://www.w3.org/2000/svg">
<rect width="35" height="43" rx="2" fill="#EAF4FF"/>
<rect x="5" y="28" width="26" height="3" rx="1.5" fill="white"/>
<rect x="5" y="22" width="26" height="3" rx="1.5" fill="white"/>
<rect x="5" y="16" width="26" height="3" rx="1.5" fill="white"/>
<rect x="5" y="34" width="26" height="3" rx="1.5" fill="white"/>
<path d="M36.756 7.47882C37.2942 7.60284 37.6299 8.13965 37.5059 8.67783L31.7543 33.6384L28.7031 32.9353L34.4547 7.97475C34.5788 7.43657 35.1156 7.10082 35.6538 7.22483L36.756 7.47882Z" fill="#FF7575"/>
<path d="M35.442 7.17579C35.8633 7.27287 36.1261 7.69308 36.0291 8.11436L30.2286 33.2865L28.703 32.935L34.5035 7.76282C34.6006 7.34154 35.0208 7.07872 35.442 7.17579V7.17579Z" fill="#FF5A5A"/>
<path d="M36.756 7.47882C37.2942 7.60284 37.6299 8.13965 37.5059 8.67783L37.2032 9.99175L34.152 9.28867L34.4547 7.97475C34.5788 7.43657 35.1156 7.10082 35.6538 7.22483L36.756 7.47882Z" fill="#1E0000"/>
<path d="M29.5257 36.3376L31.7544 33.6379L28.7032 32.9349L29.5257 36.3376Z" fill="#F7CC7F"/>
<path d="M29.5256 36.3379L30.6399 34.988L29.1143 34.6365L29.5256 36.3379Z" fill="black"/>
<path d="M5.774 12C5.694 12 5.632 11.978 5.588 11.934C5.544 11.886 5.522 11.822 5.522 11.742V7.998C5.522 7.914 5.542 7.85 5.582 7.806C5.626 7.762 5.688 7.74 5.768 7.74C5.848 7.74 5.908 7.762 5.948 7.806C5.992 7.85 6.014 7.914 6.014 7.998V11.568H7.982C8.054 11.568 8.11 11.588 8.15 11.628C8.19 11.664 8.21 11.716 8.21 11.784C8.21 11.852 8.19 11.906 8.15 11.946C8.11 11.982 8.054 12 7.982 12H5.774ZM9.04981 12C8.96181 12 8.89381 11.978 8.84581 11.934C8.80181 11.886 8.77981 11.818 8.77981 11.73V8.04C8.77981 7.952 8.80181 7.886 8.84581 7.842C8.89381 7.794 8.96181 7.77 9.04981 7.77H11.2818C11.3498 7.77 11.4018 7.788 11.4378 7.824C11.4738 7.86 11.4918 7.91 11.4918 7.974C11.4918 8.042 11.4738 8.094 11.4378 8.13C11.4018 8.166 11.3498 8.184 11.2818 8.184H9.25981V9.648H11.1558C11.2238 9.648 11.2758 9.666 11.3118 9.702C11.3478 9.734 11.3658 9.784 11.3658 9.852C11.3658 9.92 11.3478 9.972 11.3118 10.008C11.2758 10.044 11.2238 10.062 11.1558 10.062H9.25981V11.586H11.2818C11.3498 11.586 11.4018 11.604 11.4378 11.64C11.4738 11.676 11.4918 11.726 11.4918 11.79C11.4918 11.858 11.4738 11.91 11.4378 11.946C11.4018 11.982 11.3498 12 11.2818 12H9.04981ZM12.1058 12.042C12.0418 12.042 11.9898 12.028 11.9498 12C11.9138 11.968 11.8918 11.928 11.8838 11.88C11.8798 11.828 11.8918 11.77 11.9198 11.706L13.5698 7.95C13.6058 7.87 13.6478 7.814 13.6958 7.782C13.7478 7.746 13.8038 7.728 13.8638 7.728C13.9238 7.728 13.9778 7.746 14.0258 7.782C14.0778 7.814 14.1198 7.87 14.1518 7.95L15.8078 11.706C15.8398 11.77 15.8518 11.828 15.8438 11.88C15.8398 11.932 15.8198 11.972 15.7838 12C15.7478 12.028 15.6978 12.042 15.6338 12.042C15.5618 12.042 15.5038 12.024 15.4598 11.988C15.4158 11.948 15.3798 11.892 15.3518 11.82L14.9078 10.794L15.1478 10.92H12.5678L12.8138 10.794L12.3758 11.82C12.3398 11.896 12.3018 11.952 12.2618 11.988C12.2218 12.024 12.1698 12.042 12.1058 12.042ZM13.8578 8.346L12.8918 10.62L12.7478 10.506H14.9678L14.8358 10.62L13.8698 8.346H13.8578ZM17.7868 12.042C17.7108 12.042 17.6488 12.024 17.6008 11.988C17.5528 11.952 17.5148 11.898 17.4868 11.826L15.8368 8.052C15.8088 7.984 15.8008 7.928 15.8128 7.884C15.8248 7.836 15.8508 7.798 15.8908 7.77C15.9348 7.742 15.9848 7.728 16.0408 7.728C16.1168 7.728 16.1728 7.746 16.2088 7.782C16.2488 7.814 16.2808 7.862 16.3048 7.926L17.8888 11.604H17.6968L19.2748 7.92C19.3028 7.86 19.3368 7.814 19.3768 7.782C19.4168 7.746 19.4728 7.728 19.5448 7.728C19.6008 7.728 19.6468 7.742 19.6828 7.77C19.7228 7.798 19.7468 7.836 19.7548 7.884C19.7668 7.932 19.7588 7.988 19.7308 8.052L18.0808 11.826C18.0528 11.898 18.0148 11.952 17.9668 11.988C17.9228 12.024 17.8628 12.042 17.7868 12.042ZM20.6455 12C20.5575 12 20.4895 11.978 20.4415 11.934C20.3975 11.886 20.3755 11.818 20.3755 11.73V8.04C20.3755 7.952 20.3975 7.886 20.4415 7.842C20.4895 7.794 20.5575 7.77 20.6455 7.77H22.8775C22.9455 7.77 22.9975 7.788 23.0335 7.824C23.0695 7.86 23.0875 7.91 23.0875 7.974C23.0875 8.042 23.0695 8.094 23.0335 8.13C22.9975 8.166 22.9455 8.184 22.8775 8.184H20.8555V9.648H22.7515C22.8195 9.648 22.8715 9.666 22.9075 9.702C22.9435 9.734 22.9615 9.784 22.9615 9.852C22.9615 9.92 22.9435 9.972 22.9075 10.008C22.8715 10.044 22.8195 10.062 22.7515 10.062H20.8555V11.586H22.8775C22.9455 11.586 22.9975 11.604 23.0335 11.64C23.0695 11.676 23.0875 11.726 23.0875 11.79C23.0875 11.858 23.0695 11.91 23.0335 11.946C22.9975 11.982 22.9455 12 22.8775 12H20.6455Z" fill="#4E88FF"/>
</svg>
