<svg height="13.805" viewBox="0 0 13.329 13.805" width="13.329" xmlns="http://www.w3.org/2000/svg"><path d="m13.159 5.506a.576.576 0 0 0 -.815 0l-6.275 6.3a2.881 2.881 0 0 1 -4.069-4.071l6.077-6.1a1.728 1.728 0 0 1 2.444 2.444l-6.077 6.1a.589.589 0 0 1 -.815 0 .576.576 0 0 1 0-.815l5.407-5.435a.576.576 0 0 0 -.815-.815l-5.41 5.435a1.728 1.728 0 0 0 0 2.444 1.77 1.77 0 0 0 2.444 0l6.077-6.1a2.88 2.88 0 0 0 -4.074-4.075l-6.077 6.102a4.033 4.033 0 0 0 5.7 5.7l6.275-6.3a.576.576 0 0 0 0-.815z" fill="#151f3e"/></svg>