<svg width="18" height="12" viewBox="0 0 18 12" fill="none" xmlns="http://www.w3.org/2000/svg">
    <path
        d="M8.8585 11.4101C9.0925 11.2839 9.2384 11.0438 9.2384 10.7827V6.7173H17.2657C17.671 6.7173 18 6.396 18 6C18 5.6041 17.671 5.2828 17.2657 5.2828H9.2384V1.21731C9.2384 0.955271 9.0925 0.715231 8.8585 0.589951C8.6245 0.462751 8.3386 0.471361 8.1125 0.610031L0.34267 5.3927C0.12924 5.5247 0 5.7533 0 6C0 6.2468 0.12924 6.4753 0.34267 6.6073L8.1125 11.39C8.2319 11.4627 8.368 11.5 8.5041 11.5C8.6255 11.5 8.7479 11.4694 8.8585 11.4101Z"
        fill="#200E32" />
</svg>
