<svg width="39" height="42" viewBox="0 0 39 42" fill="none" xmlns="http://www.w3.org/2000/svg">
<path d="M0 5C0 4.44772 0.447715 4 1 4H27C28.1046 4 29 4.89543 29 6V40C29 41.1046 28.1046 42 27 42H2C0.89543 42 0 41.1046 0 40V5Z" fill="#FF7D7D"/>
<circle cx="4" cy="4" r="4" fill="#DF4545"/>
<path d="M4 0H25C27.2091 0 29 1.79086 29 4V8H4V0Z" fill="#DF4545"/>
<path d="M21.5 8.00005C21.9169 8.00004 22.4033 7.98892 22.9244 8.00005H29V14.0001C29 8.66727 25.5285 8.0557 22.9244 8.00005H21.5Z" fill="#DF4545"/>
<path d="M5 18V8H9V18L7 15.2222L5 18Z" fill="#FF7D7D"/>
<path fill-rule="evenodd" clip-rule="evenodd" d="M28.9691 5C28.9691 2.79086 27.1782 1 24.9691 1H3.96905C1.92924 1 0.246049 2.52684 0 4.5C0.246049 6.47316 1.92924 8 3.96905 8H21.519L21.4691 8.00005H22.8934C24.1843 8.02764 25.6883 8.19183 26.877 9H28.9691V8.00005H22.8934L22.891 8H28.9691V5ZM28.9691 9.00005H26.8771C28.0863 9.82222 28.9691 11.3108 28.9691 14.0001V9.00005Z" fill="#FFD7D7"/>
<path d="M3 11H23C24.6569 11 26 12.3431 26 14V21C26 22.1046 25.1046 23 24 23H5C3.89543 23 3 22.1046 3 21V11Z" fill="#FFD6D6"/>
<rect x="3" y="34" width="10" height="2" rx="1" fill="#F7CC7F"/>
<rect x="3" y="37" width="8" height="2" rx="1" fill="#AFCDFB"/>
<path fill-rule="evenodd" clip-rule="evenodd" d="M30.5 35C35.1944 35 39 31.1944 39 26.5C39 21.8056 35.1944 18 30.5 18C25.8056 18 22 21.8056 22 26.5C22 28.4263 22.6408 30.2029 23.7207 31.6283L22 35.5L26.1861 33.8255C27.4507 34.5718 28.9253 35 30.5 35Z" fill="#8FE1D9"/>
<path d="M29.6037 30V24.5455H31.1165V30H29.6037ZM30.3636 23.8423C30.1387 23.8423 29.9458 23.7678 29.7848 23.6186C29.6262 23.4671 29.5469 23.286 29.5469 23.0753C29.5469 22.867 29.6262 22.6882 29.7848 22.5391C29.9458 22.3875 30.1387 22.3118 30.3636 22.3118C30.5885 22.3118 30.7803 22.3875 30.9389 22.5391C31.0999 22.6882 31.1804 22.867 31.1804 23.0753C31.1804 23.286 31.0999 23.4671 30.9389 23.6186C30.7803 23.7678 30.5885 23.8423 30.3636 23.8423Z" fill="#4FA299"/>
</svg>
