<svg width="19" height="20" viewBox="0 0 19 20" fill="none" xmlns="http://www.w3.org/2000/svg">
<path fill-rule="evenodd" clip-rule="evenodd" d="M16.207 6.8C16.1835 7.32188 16.2654 7.84314 16.4479 8.33265C16.6303 8.82215 16.9096 9.26985 17.269 9.649C17.7909 10.3015 18.0512 11.125 17.999 11.959C18.0071 12.8297 17.7007 13.6741 17.136 14.337C16.3751 15.1474 15.3431 15.6502 14.236 15.75C12.665 15.884 11.093 15.997 9.49899 15.997C7.91658 16.0047 6.33501 15.9223 4.76199 15.75C3.65473 15.6506 2.62263 15.1477 1.86199 14.337C1.29707 13.6732 0.990949 12.8276 0.999987 11.956C0.948285 11.1221 1.20847 10.2988 1.72999 9.646C2.09358 9.27033 2.37573 8.82367 2.55881 8.33397C2.74189 7.84427 2.82195 7.32206 2.79399 6.8V6.37C2.72588 4.96904 3.18344 3.59315 4.07699 2.512C4.73804 1.72857 5.56145 1.09817 6.49022 0.664429C7.41899 0.230691 8.43094 0.00398324 9.45599 0H9.54499C10.5943 0.00254089 11.6297 0.239564 12.5756 0.693736C13.5215 1.14791 14.3539 1.80775 15.012 2.625C15.8544 3.68547 16.2795 5.01761 16.207 6.37V6.8ZM6.57399 18.061C6.57399 17.561 7.03599 17.327 7.46399 17.228C8.81058 17.1223 10.1634 17.1223 11.51 17.228C11.937 17.328 12.399 17.557 12.399 18.061C12.3799 18.2966 12.3073 18.5248 12.1869 18.7282C12.0665 18.9316 11.9014 19.1049 11.704 19.235C11.2062 19.6233 10.6158 19.8752 9.99099 19.966C9.65648 20.0108 9.3175 20.0108 8.98299 19.966C8.35788 19.8757 7.76731 19.6233 7.26999 19.234C7.07231 19.1044 6.90685 18.9313 6.78622 18.7281C6.6656 18.5248 6.59301 18.2966 6.57399 18.061Z" fill="#3843D0"/>
</svg>
