<svg height="157" viewBox="0 0 375 157" width="375" xmlns="http://www.w3.org/2000/svg" xmlns:xlink="http://www.w3.org/1999/xlink"><clipPath id="a"><path d="m0 654h375v157h-375z"/></clipPath><g clip-path="url(#a)" transform="translate(0 -654)"><path d="m245.8 207.6c.964.7 20.512 13.236 28.839 18.583a6.789 6.789 0 0 0 7.361-.083l27.525-18.5z" fill="#78acea" transform="translate(-30.337 597.377)"/><path d="m0 0h65.919v46.371h-65.919z" fill="#78acea" transform="translate(308.994 787.796)"/><path d="m0 0h29.102v19.285h-29.102z" fill="#4e88ff" transform="translate(279.891 806.204)"/><path d="m0 0h52.472v33.25h-52.472z" fill="#ecf4fa" transform="translate(83.864 697.483)"/><path d="m0 0h52.472v8.118h-52.472z" fill="#ff7d7d" transform="translate(83.864 697.483)"/><path d="m216.4 13.1 8.572 33.185h-8.572z" fill="#9bb2c4" transform="translate(-80.064 684.383)"/><path d="m0 0h58.468v71.71h-58.468z" fill="#4e88ff" transform="translate(248.422 704.077)"/><path d="m0 0h126.578v73.633h-126.578z" fill="#78acea" transform="translate(0 760.272)"/><path d="m0 0h62.588v73.633h-62.588z" fill="#679dd3" transform="translate(63.903 760.272)"/><path d="m0 0h23.317v80.557h-23.317z" fill="#ff7d7d" transform="translate(306.802 707.239)"/><path d="m0 0h23.054v80.557h-23.054z" fill="#ffc569" transform="translate(330.119 707.239)"/><path d="m0 0h21.651v80.557h-21.651z" fill="#4e88ff" transform="translate(353.261 707.239)"/><path d="m349.3 73.1 11.485 79.6-11.124-1.661z" fill="#222744" opacity=".1" transform="translate(-42.659 630.978)"/><path d="m0 0h88.973v58.292h-88.973z" fill="#ecf4fa" transform="translate(126.578 775.787)"/><path d="m0 0h86.168v9.993h-86.168z" fill="#73cfae" transform="matrix(-1 0 0 -1 105.681 760.293)"/><path d="m0 0h86.168v9.993h-86.168z" fill="#4eaf89" transform="matrix(-1 0 0 -1 105.681 750.257)"/><path d="m0 0h86.168v9.993h-86.168z" fill="#73cfae" transform="matrix(-1 0 0 -1 105.681 740.309)"/><path d="m0 0h64.428v29.19h-64.428z" fill="#78acea" transform="translate(215.463 804.977)"/><path d="m0 0h64.428v29.19h-64.428z" fill="#73cfae" transform="translate(215.463 775.787)"/><path d="m0 0h88.973v8.415h-88.973z" fill="#222744" transform="translate(126.578 775.787)"/><g fill="#c8dce8"><path d="m0 0h18.32v7.1h-18.32z" transform="translate(149.018 790.338)"/><path d="m0 0h18.32v7.1h-18.32z" transform="translate(170.757 790.338)"/><path d="m0 0h18.32v7.1h-18.32z" transform="translate(192.496 790.338)"/><path d="m0 0h18.32v7.1h-18.32z" transform="translate(149.018 800.068)"/><path d="m0 0h61.799v21.739h-61.799z" transform="translate(149.018 812.428)"/><path d="m0 0h19.109v7.1h-19.109z" transform="translate(168.917 800.068)"/><path d="m0 0h18.32v7.1h-18.32z" transform="translate(192.496 800.068)"/><path d="m56.486 173.953h-46.809a.878.878 0 0 1 -.877-.877.878.878 0 0 1 .877-.877h46.9a.878.878 0 0 1 .877.877 1.03 1.03 0 0 1 -.968.877z" transform="translate(-1.086 601.746)"/><path d="m56.486 184.653h-46.809a.878.878 0 0 1 -.877-.877.878.878 0 0 1 .877-.877h46.9a.878.878 0 0 1 .877.877 1.03 1.03 0 0 1 -.968.877z" transform="translate(-1.086 600.426)"/><path d="m56.486 195.353h-46.809a.878.878 0 0 1 -.877-.877.878.878 0 0 1 .877-.877h46.9a.878.878 0 0 1 .877.877 1.03 1.03 0 0 1 -.968.877z" transform="translate(-1.086 599.105)"/><path d="m56.486 205.953h-46.809a.878.878 0 0 1 -.877-.877.878.878 0 0 1 .877-.877h46.9a.878.878 0 0 1 .877.877.956.956 0 0 1 -.968.877z" transform="translate(-1.086 597.797)"/><path d="m56.486 216.653h-46.809a.878.878 0 0 1 -.877-.877.878.878 0 0 1 .877-.877h46.9a.878.878 0 0 1 .877.877.956.956 0 0 1 -.968.877z" transform="translate(-1.086 596.476)"/><path d="m56.486 227.353h-46.809a.878.878 0 0 1 -.877-.877.878.878 0 0 1 .877-.877h46.9a.878.878 0 0 1 .877.877.956.956 0 0 1 -.968.877z" transform="translate(-1.086 595.156)"/><path d="m129.173 173.953h-46.9a.878.878 0 0 1 -.877-.877.878.878 0 0 1 .877-.877h46.9a.878.878 0 0 1 .877.877.943.943 0 0 1 -.877.877z" transform="translate(-10.047 601.746)"/><path d="m129.173 184.653h-46.9a.878.878 0 0 1 -.877-.877.878.878 0 0 1 .877-.877h46.9a.878.878 0 0 1 .877.877.943.943 0 0 1 -.877.877z" transform="translate(-10.047 600.426)"/><path d="m129.173 195.353h-46.9a.878.878 0 0 1 -.877-.877.878.878 0 0 1 .877-.877h46.9a.878.878 0 0 1 .877.877.943.943 0 0 1 -.877.877z" transform="translate(-10.047 599.105)"/><path d="m129.173 205.953h-46.9a.878.878 0 0 1 -.877-.877.878.878 0 0 1 .877-.877h46.9a.878.878 0 0 1 .877.877.878.878 0 0 1 -.877.877z" transform="translate(-10.047 597.797)"/><path d="m129.173 216.653h-46.9a.878.878 0 0 1 -.877-.877.878.878 0 0 1 .877-.877h46.9a.878.878 0 0 1 .877.877.878.878 0 0 1 -.877.877z" transform="translate(-10.047 596.476)"/><path d="m129.173 227.353h-46.9a.878.878 0 0 1 -.877-.877.878.878 0 0 1 .877-.877h46.9a.878.878 0 0 1 .877.877.878.878 0 0 1 -.877.877z" transform="translate(-10.047 595.156)"/></g><path d="m8.3 132.405v11.133l12.272 8.853v-29.891z" fill="#ffb93e" transform="translate(-1.024 607.88)"/><path d="m132.947 152.391h-12.447v-29.891h12.447a8.417 8.417 0 0 1 8.415 8.415v13.061a8.307 8.307 0 0 1 -8.415 8.415z" fill="#222744" transform="translate(-14.872 607.88)"/><path d="m0 139.585 7.276 5.347v-11.132z" fill="#222744" transform="translate(0 606.486)"/><path d="m337.343 91.356h-29.365a1.571 1.571 0 0 1 -1.578-1.578 1.571 1.571 0 0 1 1.578-1.578h29.365a1.571 1.571 0 0 1 1.578 1.578 1.7 1.7 0 0 1 -1.578 1.578z" fill="#222744" opacity=".2" transform="translate(-37.817 622.114)"/><path d="m329.1 97.056h-21.122a1.571 1.571 0 0 1 -1.578-1.578 1.571 1.571 0 0 1 1.578-1.578h21.122a1.571 1.571 0 0 1 1.578 1.578 1.626 1.626 0 0 1 -1.578 1.578z" fill="#222744" opacity=".2" transform="translate(-37.817 621.41)"/><path d="m337.343 123.056h-29.365a1.571 1.571 0 0 1 -1.578-1.578 1.571 1.571 0 0 1 1.578-1.578h29.365a1.571 1.571 0 0 1 1.578 1.578 1.7 1.7 0 0 1 -1.578 1.578z" fill="#222744" opacity=".2" transform="translate(-37.817 613.201)"/><path d="m329.1 128.756h-21.122a1.571 1.571 0 0 1 -1.578-1.578 1.571 1.571 0 0 1 1.578-1.578h21.122a1.571 1.571 0 0 1 1.578 1.578 1.626 1.626 0 0 1 -1.578 1.578z" fill="#222744" opacity=".2" transform="translate(-37.817 612.498)"/><path d="m337.343 154.256h-29.365a1.571 1.571 0 0 1 -1.578-1.578 1.571 1.571 0 0 1 1.578-1.578h29.365a1.571 1.571 0 0 1 1.578 1.578 1.626 1.626 0 0 1 -1.578 1.578z" fill="#222744" opacity=".2" transform="translate(-37.817 604.351)"/><path d="m329.1 160.056h-21.122a1.571 1.571 0 0 1 -1.578-1.578 1.571 1.571 0 0 1 1.578-1.578h21.122a1.571 1.571 0 0 1 1.578 1.578 1.7 1.7 0 0 1 -1.578 1.578z" fill="#222744" opacity=".2" transform="translate(-37.817 603.635)"/><path d="m0 0v25.067" fill="none" stroke="#9bb2c4" stroke-miterlimit="10" stroke-width=".5" transform="translate(94.384 705.601)"/><path d="m0 0v25.067" fill="none" stroke="#9bb2c4" stroke-miterlimit="10" stroke-width=".5" transform="translate(104.84 705.601)"/><path d="m0 0v25.067" fill="none" stroke="#9bb2c4" stroke-miterlimit="10" stroke-width=".5" transform="translate(115.36 705.601)"/><path d="m0 0v25.067" fill="none" stroke="#9bb2c4" stroke-miterlimit="10" stroke-width=".5" transform="translate(125.816 705.601)"/><path d="m0 0h52.472" fill="none" stroke="#9bb2c4" stroke-miterlimit="10" stroke-width=".5" transform="translate(83.864 711.835)"/><path d="m0 0h52.472" fill="none" stroke="#9bb2c4" stroke-miterlimit="10" stroke-width=".5" transform="translate(83.864 718.134)"/><path d="m0 0h52.472" fill="none" stroke="#9bb2c4" stroke-miterlimit="10" stroke-width=".5" transform="translate(83.864 724.433)"/><path d="m294.552 222.852 20.862-15.252-21.914 14.551z" fill="#222744" transform="translate(-36.224 597.377)"/><path d="m245.8 203.49c1.227-1.227 32.872-29.19 32.872-29.19l31.469 29.19z" fill="#5e98d3" transform="translate(-30.337 601.487)"/><path d="m301.005 205.539h-44.705v-10.519a4.115 4.115 0 0 1 4.12-4.12h36.466a4.115 4.115 0 0 1 4.12 4.12v10.519z" fill="#ecf4fa" transform="translate(-31.633 599.438)"/><path d="m0 0h29.102v9.467h-29.102z" fill="#ff7d7d" transform="translate(279.891 824.7)"/><circle cx="5.5" cy="5.5" fill="#73cfae" r="5.5" transform="translate(253 708.911)"/><path d="m291.1 92.69 2.191 2.367 4.559-3.857" fill="none" stroke="#f1f2f2" stroke-linecap="round" stroke-linejoin="round" stroke-miterlimit="10" transform="translate(-35.928 621.743)"/><circle cx="5.259" cy="5.259" fill="#73cfae" r="5.259" transform="translate(253.331 732)"/><path d="m291.1 123.378 2.191 2.367 4.558-3.945" fill="none" stroke="#f1f2f2" stroke-linecap="round" stroke-linejoin="round" stroke-miterlimit="10" transform="translate(-35.928 613.7)"/><g transform="translate(253.331 754.136)"><circle cx="5.259" cy="5.259" fill="#73cfae" r="5.259"/><path d="m291.1 154.89 2.191 2.367 4.558-3.857" fill="none" stroke="#f1f2f2" stroke-linecap="round" stroke-linejoin="round" stroke-miterlimit="10" transform="translate(-289.259 -150.069)"/></g><path d="m0 0h10.52v6.299h-10.52z" fill="#73cfae" transform="translate(94.384 711.835)"/><path d="m0 0h10.52v6.299h-10.52z" fill="#ffb93e" transform="translate(115.36 718.134)"/><path d="m0 0h10.52v6.299h-10.52z" fill="#ff7d7d" transform="translate(125.816 711.835)"/><path d="m60.945 180.794-5.522-5.084-5.523 5.084v-24.194h11.045z" fill="#e25050" transform="translate(-6.159 603.672)"/><path d="m0 0h2.454v80.557h-2.454z" fill="#ffb448" transform="translate(350.806 707.239)"/><path d="m0 0h2.454v80.557h-2.454z" fill="#3979ea" transform="translate(372.458 707.239)"/><path d="m0 0h2.454v80.557h-2.454z" fill="#f25f5f" transform="translate(327.752 707.239)"/><path d="m0 0h21.651v2.893h-21.651z" fill="#222744" transform="translate(353.261 774.297)"/><path d="m0 0h21.651v1.403h-21.651z" fill="#222744" transform="translate(353.261 770.615)"/><path d="m0 0h10.782v66.182h-10.782z" fill="#ffd89f" transform="translate(335.729 712.586)"/><circle cx="34.099" cy="34.099" fill="#222744" opacity=".2" r="34.099" transform="translate(274.895 754.048)"/><circle cx="34.099" cy="34.099" fill="#fff" r="34.099" transform="translate(273.054 753.259)"/><path d="m383.043 183.346a34.081 34.081 0 0 1 -34.1 34.1 34.645 34.645 0 0 1 -17.444-4.734 33.357 33.357 0 0 0 10.694 1.753 34.108 34.108 0 0 0 17.357-63.465 33.955 33.955 0 0 1 23.493 32.346z" fill="#c8dce8" opacity=".5" transform="translate(-40.915 604.363)"/><path d="m0 0h1.753v4.208h-1.753z" fill="#222744" transform="translate(306.276 753.434)"/><path d="m0 0h1.753v4.208h-1.753z" fill="#222744" transform="translate(306.276 817.425)"/><path d="m0 0h1.753v4.208h-1.753z" fill="#222744" transform="matrix(0 -1 1 0 273.195 788.193)"/><path d="m0 0h1.753v4.208h-1.753z" fill="#222744" transform="matrix(0 -1 1 0 337.167 788.175)"/><path d="m0 17.882v-17.882" fill="none" stroke="#222744" stroke-miterlimit="10" stroke-width=".75" transform="translate(307.153 769.651)"/><path d="m352.069 167.8-1.928-7.1-1.841 7.1z" fill="#222744" transform="translate(-42.988 603.166)"/><circle cx="3.068" cy="3.068" fill="#ff7d7d" r="3.068" transform="translate(304.085 784.29)"/><circle cx="5.259" cy="5.259" fill="#e59e2c" r="5.259" transform="translate(337.745 823.561)"/><path d="m409.378 230.357h-43.478a5.649 5.649 0 0 0 5.61-5.61v-16.918a16.129 16.129 0 0 1 32.258 0v16.918a5.538 5.538 0 0 0 5.61 5.61z" fill="#ffb93e" transform="translate(-45.16 599.34)"/><circle cx="9.818" cy="9.818" fill="#222744" r="9.818" transform="translate(351.771 788.673)"/><circle cx="9.818" cy="9.818" fill="#ff7d7d" r="9.818" transform="translate(350.806 787.884)"/><text fill="#fff" font-family="Montserrat-Medium, Montserrat" font-size="11" font-weight="500" transform="translate(358.571 801.701)"><tspan x="0" y="0">1</tspan></text><path d="m385.2 235.8h10.607l-10.081 1.4z" fill="#222744" transform="translate(-47.542 593.897)"/><path d="m403 96.1 5.435 80.645h-5.435z" fill="#222744" opacity=".2" transform="translate(-49.739 611.139)"/><path d="m216.4 13.1 1.3 33.185h-1.3z" fill="#222744" opacity=".2" transform="translate(-80.064 684.383)"/><path d="m0 0h3.419v3.419h-3.419z" fill="#ff7d7d" transform="translate(209.151 778.242)"/><path d="m0 0h3.419v3.419h-3.419z" fill="#ffb93e" transform="translate(203.454 778.242)"/><path d="m0 0h3.419v3.419h-3.419z" fill="#73cfae" transform="translate(197.756 778.242)"/><path d="m307.3 194c0 .175.789 11.921.789 11.921l-.789-.088z" fill="#222744" transform="translate(-37.928 599.056)"/><path d="m0 0h44.705v1.403h-44.705z" fill="#c8dce8" transform="translate(224.667 803.575)"/><path d="m0 0h.964v50.14h-.964z" fill="#222744" opacity=".2" transform="translate(146.213 784.29)"/><path d="m63.99 156.6-1.49 24.194v-24.194z" fill="#222744" transform="translate(-7.714 603.672)"/><path d="m49.9 183.484 6.487-4.208-.964-.877z" fill="#222744" transform="translate(-6.159 600.981)"/><path d="m0 22.899v-22.899" fill="none" stroke="#222744" stroke-miterlimit="10" stroke-width=".5" transform="translate(51.43 698.466)"/><path d="m79.944 21.917-.85-3.117-.794 3.117z" fill="#222744" transform="translate(-27.664 677.115)"/><path d="m0 0h22.956" fill="none" stroke="#222744" stroke-miterlimit="10" stroke-width=".5" transform="translate(51.429 721.478)"/><path d="m119.2 64.144 3.061-.85-3.061-.794z" fill="#222744" transform="translate(-45.382 658.184)"/><path d="m0 11.053 11.053-11.053" fill="none" stroke="#000" stroke-miterlimit="10" stroke-width=".5" transform="translate(51.429 710.425)"/><path d="m98.69 44.021 1.587-2.721-2.777 1.587z" fill="#222744" transform="translate(-35.982 667.368)"/><path d="m425.4 49.7v32.609a16.3 16.3 0 1 1 0-32.609z" fill="#fff" transform="translate(-50.492 616.866)"/><path d="m414.353 45.145h.124v-7.651h-.435a4.8 4.8 0 0 1 -4.666-2.986c-.435-.933-.933-1.182-1.866-.809-1.431.56-2.8 1.182-4.168 1.866-.933.435-1.058 1-.622 1.991a4.732 4.732 0 0 1 -.809 5.288 4.925 4.925 0 0 1 -5.474 1.369c-1.244-.373-1.617-.249-2.115.933q-.84 1.96-1.493 3.919a1.419 1.419 0 0 0 .933 1.991 4.982 4.982 0 0 1 .187 9.207c-.871.435-1.182.933-.809 1.866.56 1.431 1.182 2.862 1.866 4.23a1.248 1.248 0 0 0 1.866.622 4.928 4.928 0 0 1 5.537.871 4.758 4.758 0 0 1 1.182 5.6c-.311.871-.124 1.431.684 1.742 1.431.622 2.924 1.182 4.417 1.68a1.21 1.21 0 0 0 1.68-.809 4.876 4.876 0 0 1 4.168-3.3v-7.527a10.089 10.089 0 0 1 -10.016-10.015 9.863 9.863 0 0 1 9.829-10.078z" fill="#222744" transform="translate(-39.539 646.629)"/><path d="m416.2 63.854a7.156 7.156 0 0 0 7.092 7.216v-14.37a7.182 7.182 0 0 0 -7.092 7.154z" fill="#c8dce8" transform="translate(-48.416 637.874)"/><path d="m244.425 43.3-10.325-2.389 21.367-13.011 33.244 11.459-10.325 3.641z" fill="#14182b" transform="translate(-96.297 677.2)"/><path d="m262.442 59.191h-11.042v-13.966l11.042-6.625z" fill="#2e344f" transform="translate(-103.272 672.886)"/><path d="m269.9 59.191h22.919v-15.518l-22.919-5.073z" fill="#222744" transform="translate(-110.73 672.886)"/><path d="m0 0v11.522" fill="none" stroke="#2e344f" stroke-miterlimit="10" transform="translate(187.102 716.977)"/><circle cx="1.611" cy="1.611" fill="#ffc569" r="1.611" transform="translate(185.491 727.631)"/><path d="m317.384 64.032a1.6 1.6 0 0 1 -1.612 1.611 1.579 1.579 0 0 1 -1.373-.776 1.594 1.594 0 0 0 2.328-1.432 1.943 1.943 0 0 0 -.239-.836 1.6 1.6 0 0 1 .896 1.433z" fill="#e89f56" transform="translate(-128.67 665.21)"/><path d="m148.432 230.845-4.032-73.545v73.282z" fill="#222744" opacity=".2" transform="translate(-17.822 603.585)"/><path d="m261.6 164.05v-37.693h4.558v-3.857h-99.058a22.708 22.708 0 0 0 -22.7 22.7 22.708 22.708 0 0 0 22.7 22.7h99.141v-3.85z" fill="#e25050" transform="translate(-17.822 607.88)"/><path d="m263.943 126.9v37.693h-95.109a18.93 18.93 0 0 1 -18.759-16.48 21.492 21.492 0 0 1 -.175-2.367 18.855 18.855 0 0 1 18.846-18.846h95.2z" fill="#fff" transform="translate(-18.501 607.337)"/><path d="m263.955 126.9v2.893h-97.3c-12.973.351-15.866 13.85-16.48 18.32a21.492 21.492 0 0 1 -.175-2.367 18.855 18.855 0 0 1 18.846-18.846z" fill="#c8dce8" transform="translate(-18.513 607.337)"/><path d="m272.268 136.927h-44.968c20.161.088 39.8.175 44.881.526a1.561 1.561 0 0 1 1.227 1.753v-3.506a1.125 1.125 0 0 1 -1.14 1.227z" fill="#222744" transform="translate(-28.054 606.251)"/><path d="m168.9 161.995h51.1c-25.066-.088-51.1 0-51.1 0z" fill="#c8dce8" transform="translate(-20.846 603.011)"/><path d="m272.268 161.815h-44.968c20.161.088 39.8.175 44.881.526a1.561 1.561 0 0 1 1.227 1.753v-3.594a1.2 1.2 0 0 1 -1.14 1.315z" fill="#222744" transform="translate(-28.054 603.19)"/><path d="m271.978 151.5h-56.978l56.978.789z" fill="#222744" transform="translate(-26.536 604.301)"/><path d="m0 0h28.389v25.78h-28.389z" fill="#96d8ca" transform="translate(191.643 704.6)"/><path d="m0 0h28.389v25.78h-28.389z" fill="#ff7d7d" transform="translate(220.033 704.6)"/><ellipse cx="5.271" cy="5.271" fill="#4eaf89" rx="5.271" ry="5.271" transform="translate(201.298 708.149)"/><path d="m204.07 113.8a10.426 10.426 0 0 0 -20.77 0z" fill="#4eaf89" transform="translate(12.884 616.583)"/><path d="m219.7 101.683c-.052.365 22.023 1.148 25.206 1.252a1.929 1.929 0 0 0 1.1-.313 1.731 1.731 0 0 0 .678-1.357v-1.565l-24.945 1.357z" fill="#222744" transform="translate(-4.521 618.782)"/><path d="m244.8 80.8h-19.938a1.982 1.982 0 0 0 -1.983 1.983v6.732l-3.079 3.079h25a1.982 1.982 0 0 0 1.983-1.983v-7.828a2.016 2.016 0 0 0 -1.983-1.983z" fill="#fff" transform="translate(-4.568 627.819)"/><path d="m245.115 80.9v7.985a1.982 1.982 0 0 1 -1.983 1.983h-21.605l-1.827 1.826h25a1.982 1.982 0 0 0 1.983-1.983v-7.828a1.921 1.921 0 0 0 -1.568-1.983z" fill="#c8dce8" transform="translate(-4.521 627.771)"/><ellipse cx="1.566" cy="1.566" fill="#4e88ff" rx="1.566" ry="1.566" transform="translate(222.642 713.263)"/><ellipse cx="1.566" cy="1.566" fill="#4e88ff" rx="1.566" ry="1.566" transform="translate(228.695 713.263)"/><ellipse cx="1.566" cy="1.566" fill="#4e88ff" rx="1.566" ry="1.566" transform="translate(234.801 713.263)"/><path d="m245 238.037c.964-.7 20.775-13.236 29.19-18.583a6.941 6.941 0 0 1 7.451.088l27.788 18.5h-64.429z" fill="#84baef" transform="translate(-30.238 596.043)"/><path d="m266.663 223.052-20.863-15.252 21.914 14.551z" fill="#222744" opacity=".2" transform="translate(-30.337 597.352)"/><path d="m16.348 0h-8.493l-7.855 17.28v18.852l12.028-27.394 13.009 29.5 3.044 6.873 6.627 15.022h9.033zm12.027 38.243h-28.375v6.873h30.879z" fill="#4c88fd" transform="translate(0 670.242)"/></g></svg>