<svg height="29.5" viewBox="0 0 27 29.5" width="27" xmlns="http://www.w3.org/2000/svg"><rect fill="#fff" height="27" rx="6" width="27" y="2.5"/><path d="m6 0h15a6 6 0 0 1 6 6v2a0 0 0 0 1 0 0h-27a0 0 0 0 1 0 0v-2a6 6 0 0 1 6-6z" fill="#ef3d3d" transform="translate(0 2.5)"/><path d="m6.462 5.308v-4.308" fill="none" stroke="#090909" stroke-linecap="round" stroke-width="2"/><path d="m20.246 5.308v-4.308" fill="none" stroke="#090909" stroke-linecap="round" stroke-width="2"/><g fill="#b8c0d7"><rect height="5" rx="2" width="5" x="4" y="13.5"/><rect height="5" rx="2" width="5" x="4" y="20.5"/><rect height="5" rx="2" width="5" x="11" y="13.5"/><rect height="5" rx="2" width="5" x="11" y="20.5"/><rect height="5" rx="2" width="5" x="18" y="13.5"/><rect height="5" rx="2" width="5" x="18" y="20.5"/></g></svg>