<svg xmlns="http://www.w3.org/2000/svg"  viewBox="0 0 64 64" width="64px" height="64px"><radialGradient id="S_VOwoUGDPBxmb3yvFIcPa" cx="32" cy="758.5" r="30.301" gradientTransform="translate(0 -726)" gradientUnits="userSpaceOnUse"><stop offset="0" stop-color="#9ceeff"/><stop offset=".642" stop-color="#c5f5ff"/><stop offset="1" stop-color="#dcf9ff"/></radialGradient><path fill="url(#S_VOwoUGDPBxmb3yvFIcPa)" d="M63.99,36.31C64.1,38.33,62.5,40,60.5,40h-9.48C51.009,40,51,40.009,51,40.02v5.96 c0,0.011,0.009,0.02,0.02,0.02h9.48c1.58,0,2.81,1.46,2.43,3.11C62.66,50.25,61.54,51,60.37,51H59.5c-0.825,0-1.5,0.675-1.5,1.5 l0,0c0,0.825,0.675,1.5,1.5,1.5l0,0c2,0,3.6,1.67,3.49,3.69C62.9,59.58,61.2,61,59.3,61H4c-2.48,0-4.43-2.26-3.92-4.82 C0.47,54.29,2.25,53,4.18,53H5c2.92,0,5.26-2.51,4.98-5.49C9.73,44.91,7.4,43,4.78,43H4c-2.48,0-4.43-2.26-3.92-4.82 C0.47,36.29,2.07,35,4,35l0,0c1.301,0,2.332-1.252,1.899-2.634C5.633,31.52,4.776,31,3.89,31H3.5c-2,0-3.6-1.67-3.49-3.69 C0.1,25.42,1.8,24,3.7,24h7.28c0.011,0,0.02-0.009,0.02-0.02v-4.96c0-0.011-0.009-0.02-0.02-0.02H3.5 c-1.577,0-2.805-1.445-2.432-3.091C1.329,14.757,2.448,14,3.63,14H4.5C5.33,14,6,13.33,6,12.5S5.33,11,4.5,11h-1 c-2,0-3.6-1.67-3.49-3.69C0.1,5.42,1.8,4,3.7,4H60c2.34,0,4.21,2.01,3.98,4.39c-0.19,2.05-2,3.56-4.04,3.61H58.5 c-2.485,0-4.5,2.015-4.5,4.5l0,0c0,2.485,0,4.5,0,4.5h6c2.48,0,4.43,2.26,3.92,4.82C63.53,27.71,61.93,29,60,29l0,0 c-1.1,0-2,0.9-2,2l0,0c0,1.1,0.9,2,2,2h0.3C62.2,33,63.9,34.42,63.99,36.31z"/><linearGradient id="S_VOwoUGDPBxmb3yvFIcPb" x1="32" x2="32" y1="731.779" y2="783.907" gradientTransform="translate(0 -726)" gradientUnits="userSpaceOnUse"><stop offset="0" stop-color="#d8d8d8"/><stop offset=".759" stop-color="#c9c9c9"/><stop offset="1" stop-color="#c3c3c3"/></linearGradient><path fill="url(#S_VOwoUGDPBxmb3yvFIcPb)" d="M18,8h28c5.523,0,10,4.477,10,10v28c0,5.523-4.477,10-10,10H18c-5.523,0-10-4.477-10-10V18 C8,12.477,12.477,8,18,8z"/><linearGradient id="S_VOwoUGDPBxmb3yvFIcPc" x1="15.002" x2="15.002" y1="725.459" y2="759.054" gradientTransform="translate(0 -726)" gradientUnits="userSpaceOnUse"><stop offset="0" stop-color="#d8d8d8"/><stop offset=".759" stop-color="#c9c9c9"/><stop offset="1" stop-color="#c3c3c3"/></linearGradient><path fill="url(#S_VOwoUGDPBxmb3yvFIcPc)" d="M21.99,10.24c0.15,1.5-1.02,2.76-2.49,2.76h-5c-0.83,0-1.5,0.67-1.5,1.5s0.67,1.5,1.5,1.5 s1.5,0.67,1.5,1.5S15.33,19,14.5,19H8v-1c0-5.52,4.48-10,10-10h1.36C20.67,8,21.86,8.94,21.99,10.24z"/><linearGradient id="S_VOwoUGDPBxmb3yvFIcPd" x1="49.498" x2="49.498" y1="746.368" y2="789.47" gradientTransform="translate(0 -726)" gradientUnits="userSpaceOnUse"><stop offset="0" stop-color="#d8d8d8"/><stop offset=".759" stop-color="#c9c9c9"/><stop offset="1" stop-color="#c3c3c3"/></linearGradient><path fill="url(#S_VOwoUGDPBxmb3yvFIcPd)" d="M56,44v2c0,5.52-4.48,10-10,10h-0.36c-1.3,0-2.5-0.94-2.63-2.24 C42.86,52.26,44.03,51,45.5,51h6c0.83,0,1.5-0.67,1.5-1.5S52.33,48,51.5,48h-0.38c-1,0-1.93-0.68-2.09-1.66 C48.82,45.09,49.79,44,51,44H56z"/><linearGradient id="S_VOwoUGDPBxmb3yvFIcPe" x1="31.5" x2="31.5" y1="12.288" y2="51.462" gradientUnits="userSpaceOnUse"><stop offset="0" stop-color="#a4a4a4"/><stop offset=".619" stop-color="gray"/><stop offset="1" stop-color="#6f6f6f"/><stop offset="1" stop-color="#6f6f6f"/></linearGradient><path fill="url(#S_VOwoUGDPBxmb3yvFIcPe)" d="M39,51H24c-2.761,0-5-2.239-5-5V19c0-2.761,2.239-5,5-5h15c2.761,0,5,2.239,5,5v27 C44,48.761,41.761,51,39,51z"/><linearGradient id="S_VOwoUGDPBxmb3yvFIcPf" x1="31.498" x2="31.498" y1="17" y2="26" gradientUnits="userSpaceOnUse"><stop offset="0" stop-color="#d8d8d8"/><stop offset=".759" stop-color="#c9c9c9"/><stop offset="1" stop-color="#c3c3c3"/></linearGradient><path fill="url(#S_VOwoUGDPBxmb3yvFIcPf)" d="M37.998,26h-13c-1.657,0-3-1.343-3-3v-3c0-1.657,1.343-3,3-3h13c1.657,0,3,1.343,3,3v3 C40.998,24.657,39.655,26,37.998,26z"/><circle cx="24.498" cy="31.5" r="2.5" fill="#fff"/><circle cx="24.498" cy="38.5" r="2.5" fill="#fff"/><circle cx="31.498" cy="31.5" r="2.5" fill="#fff"/><circle cx="31.498" cy="38.5" r="2.5" fill="#fff"/><linearGradient id="S_VOwoUGDPBxmb3yvFIcPg" x1="38.498" x2="38.498" y1="34" y2="29" gradientUnits="userSpaceOnUse"><stop offset="0" stop-color="#ff9757"/><stop offset="1" stop-color="#ffb65b"/><stop offset="1" stop-color="#ffb65b"/></linearGradient><circle cx="38.498" cy="31.5" r="2.5" fill="url(#S_VOwoUGDPBxmb3yvFIcPg)"/><linearGradient id="S_VOwoUGDPBxmb3yvFIcPh" x1="38.498" x2="38.498" y1="41" y2="36" gradientUnits="userSpaceOnUse"><stop offset="0" stop-color="#ff9757"/><stop offset="1" stop-color="#ffb65b"/><stop offset="1" stop-color="#ffb65b"/></linearGradient><circle cx="38.498" cy="38.5" r="2.5" fill="url(#S_VOwoUGDPBxmb3yvFIcPh)"/><linearGradient id="S_VOwoUGDPBxmb3yvFIcPi" x1="38.498" x2="38.498" y1="48" y2="43" gradientUnits="userSpaceOnUse"><stop offset="0" stop-color="#ff9757"/><stop offset="1" stop-color="#ffb65b"/><stop offset="1" stop-color="#ffb65b"/></linearGradient><circle cx="38.498" cy="45.5" r="2.5" fill="url(#S_VOwoUGDPBxmb3yvFIcPi)"/><path fill="#fff" d="M31.498,48h-7c-1.381,0-2.5-1.119-2.5-2.5v0c0-1.381,1.119-2.5,2.5-2.5h7c1.381,0,2.5,1.119,2.5,2.5 v0C33.998,46.881,32.879,48,31.498,48z"/></svg>