<svg width="21" height="22" viewBox="0 0 21 22" fill="none" xmlns="http://www.w3.org/2000/svg">
<path fill-rule="evenodd" clip-rule="evenodd" d="M5.1332e-05 11.015C-0.00699958 8.81159 0.712509 6.6673 2.04719 4.91411C3.38187 3.16092 5.25727 1.8966 7.38307 1.3169C9.50886 0.737192 11.7665 0.874431 13.8064 1.70737C15.8463 2.54031 17.5548 4.02248 18.6672 5.92444C19.7797 7.82639 20.2342 10.042 19.9603 12.2284C19.6864 14.4147 18.6994 16.4498 17.1521 18.0185C15.6048 19.5872 13.5835 20.6022 11.4012 20.9061C9.21884 21.2101 6.99714 20.7862 5.08005 19.7C4.87732 19.5273 4.63686 19.4047 4.37806 19.342C4.11925 19.2793 3.84933 19.2783 3.59005 19.339L1.57005 19.939C1.45933 19.9823 1.33856 19.9931 1.22192 19.9701C1.10528 19.9472 0.997601 19.8914 0.91152 19.8094C0.825439 19.7274 0.764525 19.6226 0.735925 19.5072C0.707325 19.3918 0.712226 19.2707 0.750051 19.158L1.42005 16.915C1.47619 16.7692 1.49903 16.6128 1.48692 16.4571C1.47481 16.3014 1.42805 16.1503 1.35005 16.015C0.493086 14.4858 0.0292091 12.7677 5.1332e-05 11.015ZM8.70005 11.015C8.69939 11.1831 8.73185 11.3497 8.79557 11.5052C8.85929 11.6608 8.95302 11.8022 9.07142 11.9216C9.18981 12.0409 9.33055 12.1357 9.4856 12.2006C9.64064 12.2656 9.80696 12.2993 9.97505 12.3C10.1431 12.3006 10.3097 12.2682 10.4653 12.2045C10.6208 12.1408 10.7623 12.047 10.8816 11.9286C11.0009 11.8102 11.0958 11.6695 11.1607 11.5144C11.2256 11.3594 11.2594 11.1931 11.2601 11.025C11.2614 10.6855 11.1278 10.3594 10.8887 10.1184C10.6496 9.87745 10.3245 9.74132 9.98505 9.73999C9.64557 9.73867 9.31947 9.87225 9.07849 10.1114C8.83751 10.3505 8.70138 10.6755 8.70005 11.015ZM13.3101 11.025C13.3104 11.2781 13.3859 11.5253 13.5267 11.7356C13.6676 11.9458 13.8677 12.1096 14.1016 12.2061C14.3355 12.3027 14.5928 12.3278 14.841 12.2782C15.0892 12.2285 15.317 12.1065 15.4959 11.9274C15.6747 11.7483 15.7964 11.5202 15.8456 11.272C15.8948 11.0237 15.8694 10.7665 15.7724 10.5327C15.6755 10.2989 15.5114 10.0991 15.301 9.95857C15.0905 9.81801 14.8431 9.74299 14.5901 9.74299C14.2505 9.74379 13.9251 9.87917 13.6851 10.1195C13.4452 10.3598 13.3103 10.6854 13.3101 11.025ZM5.37005 12.307C5.03104 12.3044 4.70669 12.1684 4.46715 11.9285C4.22761 11.6886 4.09214 11.364 4.09005 11.025C4.09005 10.6855 4.22491 10.3599 4.46495 10.1199C4.705 9.87985 5.03057 9.74499 5.37005 9.74499C5.70953 9.74499 6.0351 9.87985 6.27515 10.1199C6.51519 10.3599 6.65005 10.6855 6.65005 11.025C6.64796 11.364 6.51249 11.6886 6.27296 11.9285C6.03342 12.1684 5.70906 12.3044 5.37005 12.307Z" fill="#FF70BB"/>
</svg>
