<svg fill="none" height="49" viewBox="0 0 57 49" width="57" xmlns="http://www.w3.org/2000/svg"><path clip-rule="evenodd" d="m4 0c-2.20914 0-4 1.79086-4 4v14c0 2.2091 1.79086 4 4 4h16 10 10l-6-5.2714v-12.7286c0-2.20914-1.7909-4-4-4z" fill="#78acea" fill-rule="evenodd"/><g fill="#fff"><circle cx="8" cy="11" r="3"/><circle cx="17" cy="11" r="3"/><circle cx="26" cy="11" r="3"/></g><path clip-rule="evenodd" d="m53 27c2.2091 0 4 1.7909 4 4v14c0 2.2091-1.7909 4-4 4h-16-10-10l6-5.2714v-12.7286c0-2.2091 1.7909-4 4-4z" fill="#4e88ff" fill-rule="evenodd"/><circle fill="#fff" r="3" transform="matrix(-1 0 0 1 49 38)"/><circle fill="#fff" r="3" transform="matrix(-1 0 0 1 40 38)"/><circle fill="#fff" r="3" transform="matrix(-1 0 0 1 31 38)"/></svg>