<svg width="40" height="40" viewBox="0 0 40 40" fill="none" xmlns="http://www.w3.org/2000/svg">
<path d="M0 16H8V36C8 38.2091 6.20914 40 4 40V40C1.79086 40 0 38.2091 0 36V16Z" fill="#AECEF4"/>
<path d="M5 0H37C38.6569 0 40 1.34315 40 3V37C40 38.6569 38.6569 40 37 40H5V0Z" fill="#E2EFFF"/>
<path d="M13.822 8.048C13.706 8.048 13.616 8.016 13.552 7.952C13.492 7.888 13.462 7.796 13.462 7.676V4.106C13.462 3.982 13.492 3.888 13.552 3.824C13.616 3.756 13.698 3.722 13.798 3.722C13.89 3.722 13.958 3.74 14.002 3.776C14.05 3.808 14.106 3.864 14.17 3.944L16.468 6.926H16.312V4.088C16.312 3.972 16.342 3.882 16.402 3.818C16.466 3.754 16.556 3.722 16.672 3.722C16.788 3.722 16.876 3.754 16.936 3.818C16.996 3.882 17.026 3.972 17.026 4.088V7.688C17.026 7.8 16.998 7.888 16.942 7.952C16.886 8.016 16.81 8.048 16.714 8.048C16.622 8.048 16.548 8.03 16.492 7.994C16.44 7.958 16.382 7.9 16.318 7.82L14.026 4.838H14.176V7.676C14.176 7.796 14.146 7.888 14.086 7.952C14.026 8.016 13.938 8.048 13.822 8.048ZM18.3583 8C18.2263 8 18.1243 7.966 18.0523 7.898C17.9843 7.826 17.9503 7.724 17.9503 7.592V4.178C17.9503 4.046 17.9843 3.946 18.0523 3.878C18.1243 3.806 18.2263 3.77 18.3583 3.77H20.5003C20.6003 3.77 20.6763 3.796 20.7283 3.848C20.7843 3.9 20.8123 3.974 20.8123 4.07C20.8123 4.17 20.7843 4.248 20.7283 4.304C20.6763 4.356 20.6003 4.382 20.5003 4.382H18.6883V5.546H20.3683C20.4723 5.546 20.5503 5.572 20.6023 5.624C20.6543 5.676 20.6803 5.752 20.6803 5.852C20.6803 5.952 20.6543 6.028 20.6023 6.08C20.5503 6.132 20.4723 6.158 20.3683 6.158H18.6883V7.388H20.5003C20.6003 7.388 20.6763 7.414 20.7283 7.466C20.7843 7.518 20.8123 7.594 20.8123 7.694C20.8123 7.794 20.7843 7.87 20.7283 7.922C20.6763 7.974 20.6003 8 20.5003 8H18.3583ZM23.0008 8.048C22.8928 8.048 22.8048 8.022 22.7368 7.97C22.6728 7.918 22.6208 7.836 22.5808 7.724L21.3268 4.178C21.2828 4.05 21.2908 3.942 21.3508 3.854C21.4148 3.766 21.5208 3.722 21.6688 3.722C21.7768 3.722 21.8608 3.748 21.9208 3.8C21.9808 3.848 22.0288 3.926 22.0648 4.034L23.1448 7.238H22.9048L24.0328 4.04C24.0728 3.932 24.1228 3.852 24.1828 3.8C24.2428 3.748 24.3208 3.722 24.4168 3.722C24.5128 3.722 24.5888 3.748 24.6448 3.8C24.7008 3.852 24.7488 3.934 24.7888 4.046L25.8808 7.238H25.6708L26.7688 4.034C26.8048 3.93 26.8528 3.852 26.9128 3.8C26.9728 3.748 27.0548 3.722 27.1588 3.722C27.2868 3.722 27.3808 3.766 27.4408 3.854C27.5008 3.942 27.5088 4.05 27.4648 4.178L26.1988 7.73C26.1588 7.838 26.1068 7.918 26.0428 7.97C25.9788 8.022 25.8928 8.048 25.7848 8.048C25.6768 8.048 25.5908 8.022 25.5268 7.97C25.4628 7.918 25.4108 7.836 25.3708 7.724L24.3268 4.748H24.4648L23.4088 7.73C23.3688 7.838 23.3168 7.918 23.2528 7.97C23.1928 8.022 23.1088 8.048 23.0008 8.048ZM29.5743 8.06C29.3983 8.06 29.2223 8.046 29.0463 8.018C28.8703 7.994 28.7043 7.956 28.5483 7.904C28.3923 7.848 28.2523 7.78 28.1283 7.7C28.0563 7.652 28.0063 7.594 27.9783 7.526C27.9503 7.458 27.9403 7.392 27.9483 7.328C27.9603 7.26 27.9863 7.202 28.0263 7.154C28.0703 7.102 28.1243 7.07 28.1883 7.058C28.2523 7.046 28.3223 7.064 28.3983 7.112C28.5743 7.216 28.7603 7.292 28.9563 7.34C29.1523 7.388 29.3583 7.412 29.5743 7.412C29.8903 7.412 30.1203 7.36 30.2643 7.256C30.4083 7.148 30.4803 7.01 30.4803 6.842C30.4803 6.702 30.4283 6.592 30.3243 6.512C30.2243 6.432 30.0503 6.366 29.8023 6.314L29.1423 6.176C28.7623 6.096 28.4783 5.962 28.2903 5.774C28.1063 5.582 28.0143 5.33 28.0143 5.018C28.0143 4.822 28.0543 4.644 28.1343 4.484C28.2143 4.324 28.3263 4.186 28.4703 4.07C28.6183 3.954 28.7923 3.866 28.9923 3.806C29.1963 3.742 29.4203 3.71 29.6643 3.71C29.9043 3.71 30.1323 3.74 30.3483 3.8C30.5643 3.86 30.7583 3.948 30.9303 4.064C30.9943 4.108 31.0363 4.162 31.0563 4.226C31.0803 4.29 31.0863 4.354 31.0743 4.418C31.0623 4.478 31.0343 4.53 30.9903 4.574C30.9463 4.618 30.8903 4.644 30.8223 4.652C30.7583 4.66 30.6843 4.64 30.6003 4.592C30.4523 4.508 30.3023 4.448 30.1503 4.412C29.9983 4.376 29.8343 4.358 29.6583 4.358C29.4743 4.358 29.3163 4.384 29.1843 4.436C29.0523 4.488 28.9503 4.562 28.8783 4.658C28.8103 4.75 28.7763 4.86 28.7763 4.988C28.7763 5.132 28.8243 5.248 28.9203 5.336C29.0163 5.42 29.1803 5.486 29.4123 5.534L30.0663 5.672C30.4623 5.756 30.7563 5.888 30.9483 6.068C31.1443 6.248 31.2423 6.488 31.2423 6.788C31.2423 6.98 31.2023 7.154 31.1223 7.31C31.0463 7.466 30.9343 7.6 30.7863 7.712C30.6423 7.824 30.4683 7.91 30.2643 7.97C30.0603 8.03 29.8303 8.06 29.5743 8.06Z" fill="#FF4E4E"/>
<rect x="9" y="11" width="10" height="10" rx="2" fill="white"/>
<line x1="23.5" y1="13.5" x2="35.5" y2="13.5" stroke="#78ACEA" stroke-linecap="round"/>
<line x1="23.5" y1="17.5" x2="35.5" y2="17.5" stroke="#78ACEA" stroke-linecap="round"/>
<line x1="9.5" y1="23.5" x2="35.5" y2="23.5" stroke="#78ACEA" stroke-linecap="round"/>
<line x1="9.5" y1="27.5" x2="35.5" y2="27.5" stroke="#78ACEA" stroke-linecap="round"/>
<line x1="9.5" y1="31.5" x2="35.5" y2="31.5" stroke="#78ACEA" stroke-linecap="round"/>
<line x1="9.5" y1="35.5" x2="35.5" y2="35.5" stroke="#78ACEA" stroke-linecap="round"/>
</svg>
