<svg width="61" height="44" viewBox="0 0 61 44" fill="none" xmlns="http://www.w3.org/2000/svg">
<rect width="61" height="44" rx="5" fill="#FAE0B2"/>
<path d="M38.9416 13.4734C38.3093 14.1057 39.9956 18.4796 40.5226 20.1923L41.313 19.797L40.5225 16.24L41.7082 15.0543L46.4509 14.2639L50.4032 15.4496V19.4018C51.1936 18.6114 52.3793 14.6591 51.9841 13.4734C51.6679 12.5249 50.5349 12.5512 50.0079 12.683L49.6127 12.2877C45.2652 9.12589 39.7321 12.6829 38.9416 13.4734Z" fill="#222744" stroke="#222744"/>
<path d="M8.16187 17.8209C8.16187 14.1102 11.17 11.1021 14.8807 11.1021V11.1021C18.5914 11.1021 21.5995 14.1102 21.5995 17.8209V27.7015H8.16187V17.8209Z" fill="#222744"/>
<path d="M40.5607 22.213C39.971 22.213 39.4929 21.7349 39.4929 21.1452V20.3165C39.4929 19.7269 39.971 19.2488 40.5607 19.2488C41.1503 19.2488 41.6284 19.7269 41.6284 20.3165V21.1452C41.6284 21.7349 41.1503 22.213 40.5607 22.213Z" fill="#C16C6C"/>
<path d="M50.5211 22.213C49.9315 22.213 49.4534 21.7349 49.4534 21.1452V20.3165C49.4534 19.7269 49.9315 19.2488 50.5211 19.2488C51.1108 19.2488 51.5889 19.7269 51.5889 20.3165V21.1452C51.5889 21.7349 51.1108 22.213 50.5211 22.213Z" fill="#C16C6C"/>
<path d="M48.1942 23.6631H43.1423V29.6871H48.1942V23.6631Z" fill="#C16C6C"/>
<path d="M45.6764 26.8343C42.9831 26.8343 40.7998 24.651 40.7998 21.9578V16.2684C40.7998 15.0094 41.8197 13.9895 43.0787 13.9895H48.29C49.5489 13.9895 50.5689 15.0094 50.5689 16.2684V21.9578C50.5529 24.651 48.3696 26.8343 45.6764 26.8343Z" fill="#C16C6C"/>
<path d="M48.1944 26.1174V26.8505C47.4613 27.2967 46.6007 27.5517 45.6764 27.5517C44.7521 27.5517 43.8915 27.2967 43.1584 26.8505V26.1174C43.8915 26.5637 44.7521 26.8186 45.6764 26.8186C46.5848 26.8186 47.4613 26.5637 48.1944 26.1174Z" fill="#773535"/>
<path d="M55.541 40.2372H35.7798V32.8746C35.7798 30.6594 37.5806 28.8745 39.7798 28.8745H51.525C53.7402 28.8745 55.5251 30.6753 55.5251 32.8746V40.2372H55.541Z" fill="#3569D2"/>
<path d="M40.1942 17.0972C40.7223 17.0972 41.1504 16.6691 41.1504 16.141C41.1504 15.6129 40.7223 15.1848 40.1942 15.1848C39.6661 15.1848 39.238 15.6129 39.238 16.141C39.238 16.6691 39.6661 17.0972 40.1942 17.0972Z" fill="#222744"/>
<path d="M40.5607 15.886C41.0888 15.886 41.5169 15.4579 41.5169 14.9298C41.5169 14.4017 41.0888 13.9736 40.5607 13.9736C40.0326 13.9736 39.6045 14.4017 39.6045 14.9298C39.6045 15.4579 40.0326 15.886 40.5607 15.886Z" fill="#222744"/>
<path d="M41.517 14.93C42.0451 14.93 42.4732 14.5019 42.4732 13.9738C42.4732 13.4457 42.0451 13.0176 41.517 13.0176C40.9889 13.0176 40.5608 13.4457 40.5608 13.9738C40.5608 14.5019 40.9889 14.93 41.517 14.93Z" fill="#222744"/>
<path d="M43.1425 14.5952C43.6706 14.5952 44.0987 14.1671 44.0987 13.6391C44.0987 13.111 43.6706 12.6829 43.1425 12.6829C42.6144 12.6829 42.1863 13.111 42.1863 13.6391C42.1863 14.1671 42.6144 14.5952 43.1425 14.5952Z" fill="#222744"/>
<path d="M44.7201 14.5952C45.2482 14.5952 45.6763 14.1671 45.6763 13.6391C45.6763 13.111 45.2482 12.6829 44.7201 12.6829C44.192 12.6829 43.7639 13.111 43.7639 13.6391C43.7639 14.1671 44.192 14.5952 44.7201 14.5952Z" fill="#222744"/>
<path d="M46.1703 14.5952C46.6984 14.5952 47.1265 14.1671 47.1265 13.6391C47.1265 13.111 46.6984 12.6829 46.1703 12.6829C45.6422 12.6829 45.2141 13.111 45.2141 13.6391C45.2141 14.1671 45.6422 14.5952 46.1703 14.5952Z" fill="#222744"/>
<path d="M47.7162 14.5952C48.2443 14.5952 48.6724 14.1671 48.6724 13.6391C48.6724 13.111 48.2443 12.6829 47.7162 12.6829C47.1881 12.6829 46.76 13.111 46.76 13.6391C46.76 14.1671 47.1881 14.5952 47.7162 14.5952Z" fill="#222744"/>
<path d="M49.1505 14.93C49.6786 14.93 50.1067 14.5019 50.1067 13.9738C50.1067 13.4457 49.6786 13.0176 49.1505 13.0176C48.6224 13.0176 48.1943 13.4457 48.1943 13.9738C48.1943 14.5019 48.6224 14.93 49.1505 14.93Z" fill="#222744"/>
<path d="M50.3617 15.886C50.8898 15.886 51.3179 15.4579 51.3179 14.9298C51.3179 14.4017 50.8898 13.9736 50.3617 13.9736C49.8336 13.9736 49.4055 14.4017 49.4055 14.9298C49.4055 15.4579 49.8336 15.886 50.3617 15.886Z" fill="#222744"/>
<path d="M50.5529 17.0972C51.081 17.0972 51.5091 16.6691 51.5091 16.141C51.5091 15.6129 51.081 15.1848 50.5529 15.1848C50.0248 15.1848 49.5967 15.6129 49.5967 16.141C49.5967 16.6691 50.0248 17.0972 50.5529 17.0972Z" fill="#222744"/>
<path d="M49.8358 16.4597C50.3639 16.4597 50.792 16.0316 50.792 15.5036C50.792 14.9755 50.3639 14.5474 49.8358 14.5474C49.3077 14.5474 48.8796 14.9755 48.8796 15.5036C48.8796 16.0316 49.3077 16.4597 49.8358 16.4597Z" fill="#222744"/>
<path d="M48.2741 15.886C48.8021 15.886 49.2303 15.4579 49.2303 14.9298C49.2303 14.4017 48.8021 13.9736 48.2741 13.9736C47.746 13.9736 47.3179 14.4017 47.3179 14.9298C47.3179 15.4579 47.746 15.886 48.2741 15.886Z" fill="#222744"/>
<path d="M47.1266 15.886C47.6547 15.886 48.0828 15.4579 48.0828 14.9298C48.0828 14.4017 47.6547 13.9736 47.1266 13.9736C46.5985 13.9736 46.1704 14.4017 46.1704 14.9298C46.1704 15.4579 46.5985 15.886 47.1266 15.886Z" fill="#222744"/>
<path d="M45.4852 15.8862C46.0397 15.8862 46.4892 15.4367 46.4892 14.8822C46.4892 14.3277 46.0397 13.8782 45.4852 13.8782C44.9307 13.8782 44.4812 14.3277 44.4812 14.8822C44.4812 15.4367 44.9307 15.8862 45.4852 15.8862Z" fill="#222744"/>
<path d="M43.7641 15.886C44.2921 15.886 44.7202 15.4579 44.7202 14.9298C44.7202 14.4017 44.2921 13.9736 43.7641 13.9736C43.236 13.9736 42.8079 14.4017 42.8079 14.9298C42.8079 15.4579 43.236 15.886 43.7641 15.886Z" fill="#222744"/>
<path d="M42.1066 16.1411C42.6347 16.1411 43.0628 15.713 43.0628 15.1849C43.0628 14.6569 42.6347 14.2288 42.1066 14.2288C41.5785 14.2288 41.1504 14.6569 41.1504 15.1849C41.1504 15.713 41.5785 16.1411 42.1066 16.1411Z" fill="#222744"/>
<path d="M41.1503 16.4597C41.6784 16.4597 42.1065 16.0316 42.1065 15.5036C42.1065 14.9755 41.6784 14.5474 41.1503 14.5474C40.6222 14.5474 40.1941 14.9755 40.1941 15.5036C40.1941 16.0316 40.6222 16.4597 41.1503 16.4597Z" fill="#222744"/>
<path d="M48.4813 28.8584L49.6447 30.5795L45.804 28.8584H48.4813Z" fill="white"/>
<path d="M43.1266 28.8584L41.9473 30.5795L45.8039 28.8584H43.1266Z" fill="white"/>
<path d="M45.8038 28.8584L44.2898 38.3884L45.6763 40.4602L47.3177 38.3884L45.8038 28.8584Z" fill="#222744"/>
<path d="M45.8039 30.1333L44.7202 29.3524L45.8039 28.8584L46.8716 29.3365L45.8039 30.1333Z" fill="#222744"/>
<path d="M39.6046 30.5796H39.238V40.2371H39.6046V30.5796Z" fill="#3D7CEA"/>
<path d="M51.9554 30.5796H51.5889V40.2371H51.9554V30.5796Z" fill="#1F59BE"/>
<path d="M9.78088 22.2132C9.19123 22.2132 8.71313 21.7351 8.71313 21.1455V20.3168C8.71313 19.7271 9.19123 19.249 9.78088 19.249C10.3705 19.249 10.8486 19.7271 10.8486 20.3168V21.1455C10.8486 21.7351 10.3705 22.2132 9.78088 22.2132Z" fill="#C16C6C"/>
<path d="M19.7413 22.2132C19.1517 22.2132 18.6736 21.7351 18.6736 21.1455V20.3168C18.6736 19.7271 19.1517 19.249 19.7413 19.249C20.331 19.249 20.8091 19.7271 20.8091 20.3168V21.1455C20.8091 21.7351 20.331 22.2132 19.7413 22.2132Z" fill="#C16C6C"/>
<path d="M17.4144 23.6633H12.3625V29.6873H17.4144V23.6633Z" fill="#C16C6C"/>
<path d="M14.8966 26.8346C12.2033 26.8346 10.02 24.6513 10.02 21.958V16.2687C10.02 15.0097 11.04 13.9897 12.2989 13.9897H17.5102C18.7692 13.9897 19.7891 15.0097 19.7891 16.2687V21.958C19.7732 24.6513 17.5899 26.8346 14.8966 26.8346Z" fill="#C16C6C"/>
<path d="M17.4146 26.1174V26.8505C16.6815 27.2967 15.8209 27.5517 14.8966 27.5517C13.9723 27.5517 13.1117 27.2967 12.3787 26.8505V26.1174C13.1117 26.5637 13.9723 26.8186 14.8966 26.8186C15.805 26.8186 16.6815 26.5637 17.4146 26.1174Z" fill="#773535"/>
<path d="M24.7613 40.2375H5V32.8748C5 30.6596 6.80082 28.8748 9.00006 28.8748H20.7453C22.9604 28.8748 24.7453 30.6756 24.7453 32.8748V40.2375H24.7613Z" fill="#3569D2"/>
<path d="M17.7015 28.8586L18.8649 30.5798L15.0242 28.8586H17.7015Z" fill="white"/>
<path d="M12.3468 28.8586L11.1675 30.5798L15.0241 28.8586H12.3468Z" fill="white"/>
<path d="M15.024 28.8586L13.51 38.3887L14.8965 40.4604L16.5379 38.3887L15.024 28.8586Z" fill="#222744"/>
<path d="M15.0241 30.1336L13.9404 29.3527L15.0241 28.8586L16.0919 29.3367L15.0241 30.1336Z" fill="#222744"/>
<path d="M8.82479 30.5798H8.45825V40.2374H8.82479V30.5798Z" fill="#1F59BE"/>
<path d="M21.1756 30.5798H20.8091V40.2374H21.1756V30.5798Z" fill="#3D7CEA"/>
<path d="M8.95215 17.821C8.95215 14.5468 11.6064 11.8926 14.8805 11.8926V11.8926C18.1547 11.8926 20.8089 14.5468 20.8089 17.821V18.2162H8.95215V17.821Z" fill="#222744"/>
<rect x="2" y="39.5688" width="26" height="4" rx="2" fill="#9C3F17"/>
<rect x="33" y="39.5688" width="26" height="4" rx="2" fill="#9C3F17"/>
</svg>
