<svg width="47" height="40" viewBox="0 0 47 40" fill="none" xmlns="http://www.w3.org/2000/svg">
<rect x="5" y="0.554443" width="10" height="35" rx="1" fill="#CB3838"/>
<rect x="5" y="5.55444" width="10" height="2" fill="#F7CC7F"/>
<rect x="5" y="8.55444" width="10" height="1" fill="#F7CC7F"/>
<rect x="5" y="29.5544" width="10" height="1" fill="#F7CC7F"/>
<rect x="27.4136" y="1.51074" width="10" height="35" rx="1" transform="rotate(-8.68941 27.4136 1.51074)" fill="#4FA299"/>
<rect x="28.1689" y="6.45337" width="10" height="2" transform="rotate(-8.68941 28.1689 6.45337)" fill="#F7CC7F"/>
<rect x="28.6223" y="9.41895" width="10" height="1" transform="rotate(-8.68941 28.6223 9.41895)" fill="#F7CC7F"/>
<rect x="31.7949" y="30.178" width="10" height="1" transform="rotate(-8.68941 31.7949 30.178)" fill="#F7CC7F"/>
<rect x="17" y="0.554443" width="10" height="35" rx="1" fill="#4E88FF"/>
<rect x="20" y="2.55444" width="4" height="18" rx="1" fill="#AFCDFB"/>
<rect x="17" y="26.5544" width="10" height="3" fill="#1E3668"/>
<rect y="35.5544" width="47" height="4" rx="2" fill="#9C3F17"/>
</svg>
