<svg height="171" viewBox="0 0 376 171" width="376" xmlns="http://www.w3.org/2000/svg" xmlns:xlink="http://www.w3.org/1999/xlink"><clipPath id="a"><path d="m0 0h376a0 0 0 0 1 0 0v151a20 20 0 0 1 -20 20h-336a20 20 0 0 1 -20-20v-151a0 0 0 0 1 0 0z" transform="translate(4470 -747)"/></clipPath><g clip-path="url(#a)" transform="translate(-4470 747)"><g transform="matrix(.946 .326 -.326 .946 4490.457 -661.6)"><path d="m111.206 87.86h-102.237a8.959 8.959 0 0 1 -8.969-8.969v-69.922a8.959 8.959 0 0 1 8.969-8.969h102.237a8.959 8.959 0 0 1 8.969 8.969v69.922a8.971 8.971 0 0 1 -8.969 8.969z" fill="#222744"/><path d="m108.56 81.011h-105.7a2.865 2.865 0 0 1 -2.86-2.86v-75.291a2.865 2.865 0 0 1 2.86-2.86h105.7z" fill="#d1eaf2" transform="translate(3.113 3.405)"/><path d="m6.109 3.054a3.054 3.054 0 1 1 -3.054-3.054 3.047 3.047 0 0 1 3.054 3.054z" fill="#daeef7" opacity=".3" transform="translate(112.976 40.875)"/><path d="m0 0h99.066v68.871h-99.066z" fill="#fff" transform="translate(7.51 14.163)"/><g transform="translate(12.471 63.114)"><path d="m5.545 4.629-3.463-.058c-1.207-2.179-2.082-4.071-2.082-4.071a16.821 16.821 0 0 1 9.961.525l1.518 3.677.331-2.84c6.809 3.677 9.63 11.459 9.63 11.459s-12.04-1.279-14.592-2.466c-.992-.467-2.237-2.1-3.385-3.969.895-.876 2.082-2.257 2.082-2.257z" fill="#7772d6"/><path d="m0 0s15.467 6.5 21.42 12.84c0 0-12.043-1.284-14.591-2.471-.992-.469-2.238-2.101-3.385-3.969.914-.875 2.1-2.276 2.1-2.276l-3.462-.058c-1.207-2.179-2.082-4.066-2.082-4.066z" fill="#45258f" transform="translate(0 .485)"/><path d="m0 2.352a15.97 15.97 0 0 1 6.206-2.218c.6.739 1.323 1.615 1.323 1.615l.078-1.732c7.8-.35 14.261 4.864 14.261 4.864-4.514 2.84-8.368 3.638-11.518 3.385-.195-.6-.447-1.517-.447-1.517l-.565 1.381a13.468 13.468 0 0 1 -4.007-1.284c.292-.72.6-1.556.6-1.556l-1.651.953a14.732 14.732 0 0 1 -4.28-3.891z" fill="#7772d6" transform="translate(.486 8.542)"/><path d="m10.35 6.088c-.194-.603-.45-1.518-.45-1.518l-.564 1.4a13.47 13.47 0 0 1 -4.005-1.283c.292-.72.6-1.556.6-1.556l-1.651.953a14.73 14.73 0 0 1 -4.28-3.891c9.086-1.05 21.887 2.529 21.887 2.529-4.514 2.841-8.366 3.619-11.537 3.366z" fill="#45258f" transform="translate(.486 10.701)"/></g><g transform="translate(11.673 25.281)"><path d="m26.984 36.545-12.062 4.844-14.922-37.159 10.195-4.086a2 2 0 0 1 2.605 1.109z" fill="#3797db" transform="translate(16.031 .022)"/><path d="m0 0h23.443v32.957h-23.443z" fill="#adcfd8" transform="matrix(.98463756 -.17461063 .17461063 .98463756 15.592 6.821)"/><g fill="#55769f"><path d="m0 0h10.467v.233h-10.467z" transform="matrix(.98463756 -.17461063 .17461063 .98463756 22.552 8.917)"/><path d="m0 0h14.864v.233h-14.864z" transform="matrix(.98463756 -.17461063 .17461063 .98463756 20.271 8.72)"/><path d="m0 0h18.035v.233h-18.035z" transform="matrix(.98463756 -.17461063 .17461063 .98463756 19.245 12.012)"/><path d="m0 0h18.035v.233h-18.035z" transform="matrix(.98463756 -.17461063 .17461063 .98463756 19.439 13.121)"/><path d="m0 0h18.035v.233h-18.035z" transform="matrix(.98463756 -.17461063 .17461063 .98463756 19.846 15.337)"/><path d="m0 0h18.035v.233h-18.035z" transform="matrix(.98463756 -.17461063 .17461063 .98463756 20.043 16.465)"/><path d="m0 0h18.035v.233h-18.035z" transform="matrix(.98463756 -.17461063 .17461063 .98463756 20.237 17.575)"/><path d="m0 0h18.035v.233h-18.035z" transform="matrix(.98465584 -.17450752 .17450752 .98465584 21.103 22.458)"/><path d="m0 0h18.035v.233h-18.035z" transform="matrix(.98463756 -.17461063 .17461063 .98463756 21.308 23.625)"/><path d="m0 0h18.035v.233h-18.035z" transform="matrix(.98463756 -.17461063 .17461063 .98463756 21.521 24.771)"/><path d="m0 0h18.035v.233h-18.035z" transform="matrix(.98463756 -.17461063 .17461063 .98463756 21.714 25.921)"/><path d="m0 0h18.035v.233h-18.035z" transform="matrix(.98463756 -.17461063 .17461063 .98463756 21.931 27.087)"/><path d="m0 0h18.035v.233h-18.035z" transform="matrix(.98463756 -.17461063 .17461063 .98463756 22.124 28.236)"/><path d="m0 0h18.035v.233h-18.035z" transform="matrix(.98463756 -.17461063 .17461063 .98463756 22.337 29.383)"/></g><path d="m0 0h23.443v32.957h-23.443z" fill="#daeef7" transform="matrix(.967 -.255 .255 .967 12.69 7.895)"/><path d="m0 0h10.467v.233h-10.467z" fill="#3797db" transform="matrix(.967 -.255 .255 .967 19.771 9.405)"/><path d="m0 0h14.864v.233h-14.864z" fill="#3797db" transform="matrix(.967 -.255 .255 .967 17.492 9.401)"/><path d="m0 0h18.035v.233h-18.035z" fill="#3797db" transform="matrix(.967 -.255 .255 .967 16.745 12.76)"/><path d="m0 0h18.035v.233h-18.035z" fill="#3797db" transform="matrix(.967 -.255 .255 .967 17.036 13.848)"/><path d="m0 0h18.035v.233h-18.035z" fill="#3797db" transform="matrix(.967 -.255 .255 .967 17.604 16.049)"/><path d="m0 0h18.035v.233h-18.035z" fill="#3797db" transform="matrix(.967 -.255 .255 .967 17.894 17.138)"/><path d="m0 0h18.035v.233h-18.035z" fill="#3797db" transform="matrix(.967 -.255 .255 .967 18.185 18.226)"/><path d="m0 0h18.035v.233h-18.035z" fill="#3797db" transform="matrix(.967 -.255 .255 .967 19.449 23.032)"/><path d="m0 0h18.035v.233h-18.035z" fill="#3797db" transform="matrix(.967 -.255 .255 .967 19.74 24.162)"/><path d="m0 0h18.035v.233h-18.035z" fill="#3797db" transform="matrix(.967 -.255 .255 .967 20.055 25.306)"/><path d="m0 0h18.035v.233h-18.035z" fill="#3797db" transform="matrix(.967 -.255 .255 .967 20.345 26.437)"/><path d="m0 0h18.035v.233h-18.035z" fill="#55769f" transform="matrix(.967 -.255 .255 .967 20.636 27.567)"/><path d="m0 0h18.035v.233h-18.035z" fill="#55769f" transform="matrix(.967 -.255 .255 .967 20.945 28.693)"/><path d="m0 0h18.035v.233h-18.035z" fill="#55769f" transform="matrix(.967 -.255 .255 .967 21.241 29.842)"/><path d="m38.443 38.415-24.28 9.747-14.163-35.252 20.389-12.588a2.173 2.173 0 0 1 3.152 1.031z" fill="#ffc54e"/></g><path d="m8.629 6.576 2.782-2.043c-.272-2.471-.642-4.533-.642-4.533a16.659 16.659 0 0 0 -7.821 6.187l.895 3.872-1.907-2.121c-3.443 6.926-1.245 14.922-1.245 14.922s9.086-8 10.486-10.447c.545-.934.6-3.016.467-5.195-1.244-.195-3.015-.642-3.015-.642z" fill="#9ed16f" transform="translate(49.834 20.584)"/><path d="m10.078 0s-8.872 14.241-10.078 22.84c0 0 9.086-8 10.486-10.447.545-.934.6-3.016.467-5.195-1.265-.175-3.035-.642-3.035-.642l2.782-2.042c-.253-2.471-.622-4.514-.622-4.514z" fill="#96a65f" transform="translate(50.525 20.584)"/><path d="m16.42 0a16.092 16.092 0 0 0 -6.362 1.77c-.058.954-.158 2.082-.158 2.082l-1.067-1.381c-6.576 4.202-8.833 12.198-8.833 12.198 5.331-.292 8.93-1.868 11.362-3.891-.195-.6-.506-1.5-.506-1.5l1.265.817a13.624 13.624 0 0 0 2.529-3.363c-.661-.428-1.381-.914-1.381-.914l1.926-.195a14.567 14.567 0 0 0 1.225-5.623z" fill="#9ed16f" transform="translate(49.786 29.358)"/><path d="m11.342 10.817c-.195-.6-.506-1.5-.506-1.5l1.265.817a13.623 13.623 0 0 0 2.529-3.364c-.661-.428-1.381-.914-1.381-.914l1.926-.195a14.752 14.752 0 0 0 1.225-5.661c-8.034 4.4-16.4 14.689-16.4 14.689 5.311-.273 8.91-1.849 11.342-3.872z" fill="#96a65f" transform="translate(49.825 29.339)"/><g transform="translate(43.696 39.203)"><path d="m44.825.292h1.654a1.643 1.643 0 0 0 -.973-.292h-41.576a3.719 3.719 0 0 0 -3.93 3.483v2.217a3.732 3.732 0 0 0 3.93 3.483l41.109-.02z" fill="#7772d6"/><path d="m.895 5.7v-2.217a3.732 3.732 0 0 1 3.93-3.483h-.895a3.719 3.719 0 0 0 -3.93 3.483v2.217a3.732 3.732 0 0 0 3.93 3.483h.875a3.726 3.726 0 0 1 -3.91-3.483z" fill="#d1eaf2" transform="translate(2.568)"/><path d="m.895 5.7v-2.218a3.732 3.732 0 0 1 3.93-3.482h-.895a3.719 3.719 0 0 0 -3.93 3.482v2.218a3.732 3.732 0 0 0 3.93 3.483h.875a3.713 3.713 0 0 1 -3.91-3.483z" fill="#d1eaf2" transform="translate(12.315)"/><path d="m3.774 0a3.581 3.581 0 0 0 -3.774 3.346v2.51a3.581 3.581 0 0 0 3.774 3.344h25.876v-.562h-.1l-6.576-.545-1.323-4.63s2.571-2.549 2.749-2.626c.175-.058 5.175-.272 5.175-.272h.1v-.565z" fill="#45258f" transform="translate(17.432)"/><path d="m27.14 4.008a5.317 5.317 0 0 1 1.576-4.008h-25.253a3.293 3.293 0 0 0 -3.463 3.074v1.926a3.293 3.293 0 0 0 3.463 3.074h25.253c0-.02-1.576-.662-1.576-4.066z" fill="#d1eaf2" transform="translate(18.288 .564)"/><path d="m0 3.074v1.926a3.079 3.079 0 0 0 .1.739 7.278 7.278 0 0 1 5.584-4.2c7.254-1.344 23.016-1.539 23.016-1.539h-25.237a3.293 3.293 0 0 0 -3.463 3.074z" fill="#daeef7" transform="translate(18.288 .564)"/></g><path d="m50.759.37h1.887a1.852 1.852 0 0 0 -1.109-.37h-47.082a4.414 4.414 0 0 0 -4.455 4.377v2.782a4.426 4.426 0 0 0 4.455 4.377l46.537-.019z" fill="#45258f" transform="translate(37.081 57.509)"/><path d="m4.261.039a4.218 4.218 0 0 0 -4.261 4.183v3.132a4.218 4.218 0 0 0 4.261 4.183h29.3v-.72h-.117l-7.451-.7-1.5-5.8s2.9-3.191 3.093-3.288c.196-.076 5.857-.329 5.857-.329h.117v-.7h-29.299z" fill="#7772d6" transform="translate(56.847 57.49)"/><path d="m30.7 5.019a6.966 6.966 0 0 1 1.79-5.019h-28.579a3.87 3.87 0 0 0 -3.911 3.833v2.412a3.87 3.87 0 0 0 3.91 3.833h28.58s-1.79-.798-1.79-5.059z" fill="#d1eaf2" transform="translate(57.801 58.229)"/><path d="m0 3.852v2.413a3.571 3.571 0 0 0 .117.914 8.372 8.372 0 0 1 6.323-5.253c8.21-1.673 26.05-1.926 26.05-1.926h-28.579a3.9 3.9 0 0 0 -3.911 3.852z" fill="#daeef7" transform="translate(57.801 58.21)"/><g transform="translate(32.957 48.366)"><path d="m1.887.292h-1.887a2.292 2.292 0 0 1 1.109-.292h47.081c2.471 0 4.455 1.556 4.455 3.463v2.2c0 1.907-2 3.463-4.455 3.463l-46.556-.021z" fill="#ff884e" transform="translate(.681 .019)"/><path d="m29.3.019c2.354 0 4.261 1.479 4.261 3.307v2.49c0 1.829-1.907 3.307-4.261 3.307h-29.3v-.563h.117l7.451-.545 1.5-4.591s-2.901-2.529-3.095-2.607c-.195-.058-5.856-.272-5.856-.272h-.117v-.545h29.3z" fill="#e46324"/><path d="m1.79 3.988a5.062 5.062 0 0 0 -1.79-3.988h28.6c2.16 0 3.91 1.362 3.91 3.054v1.907c0 1.673-1.751 3.054-3.91 3.054h-28.6s1.79-.641 1.79-4.027z" fill="#d1eaf2" transform="translate(.117 .564)"/><path d="m32.51 3.035v1.907a2.352 2.352 0 0 1 -.117.739 8.129 8.129 0 0 0 -6.323-4.163c-8.21-1.323-26.07-1.518-26.07-1.518h28.6c2.159-.019 3.91 1.362 3.91 3.035z" fill="#daeef7" transform="translate(.117 .583)"/><path d="m4.455 5.661v-2.2c0-1.905-2.004-3.461-4.455-3.461h4.475c2.47 0 4.455 1.556 4.455 3.463v2.2c0 1.907-2 3.463-4.455 3.463h-4.417c2.432-.026 4.397-1.558 4.397-3.465z" fill="#e46324" opacity=".5" transform="translate(40.272 .019)"/></g><path d="m2.023.331h-2.023a2.192 2.192 0 0 1 1.206-.331h50.739c2.646 0 4.805 1.731 4.805 3.872v2.451c0 2.14-2.16 3.872-4.805 3.872l-50.175-.02z" fill="#9ed16f" transform="translate(29.961 69.047)"/><path d="m31.615.039c2.549 0 4.591 1.654 4.591 3.7v2.779c0 2.043-2.062 3.7-4.591 3.7h-31.596v-.627h.137l8.035-.623 1.614-5.135s-3.132-2.841-3.346-2.919-6.323-.291-6.323-.291h-.136v-.623h31.615z" fill="#96a65f" transform="translate(29.183 69.027)"/><path d="m1.926 4.455a5.729 5.729 0 0 0 -1.926-4.455h30.817c2.335 0 4.222 1.517 4.222 3.4v2.14c0 1.887-1.887 3.4-4.222 3.4h-30.817s1.926-.71 1.926-4.485z" fill="#d1eaf2" transform="translate(29.319 69.689)"/><path d="m35.039 3.385v2.14a2.86 2.86 0 0 1 -.117.817 8.716 8.716 0 0 0 -6.829-4.65c-8.852-1.478-28.093-1.692-28.093-1.692h30.817c2.335-.019 4.222 1.5 4.222 3.385z" fill="#daeef7" transform="translate(29.319 69.708)"/><g transform="translate(71.026 60.237)"><path d="m0 0h21.381v1.187h-21.381z" fill="#d1eaf2" transform="matrix(-1 0 0 -1 29.075 17.081)"/><path d="m21.027.828.331 1.5a1.075 1.075 0 0 1 -.817 1.265l-19.085 4.025a1.081 1.081 0 0 1 -1.265-.856l-.175-.973a1.044 1.044 0 0 1 .545-1.109l5.719-3.113a.907.907 0 0 1 .389-.117l13.094-1.42.1-.019a1.037 1.037 0 0 1 1.164.817z" fill="#d1eaf2" transform="translate(7.44 5.9)"/><path d="m8.152 1.945a3.815 3.815 0 0 0 -.74 5.255l-.112.835-3.5.233-3.216-.661-.584-5.331 7.685-2.276z" fill="#3b77be" transform="translate(1.016 9.218)"/><path d="m1.09 2.587h28.521a1.088 1.088 0 0 0 1.089-1.087v-.411a1.088 1.088 0 0 0 -1.089-1.089h-28.521a1.088 1.088 0 0 0 -1.09 1.089v.411a1.088 1.088 0 0 0 1.09 1.087z" fill="#3797db" transform="translate(.666 16.436)"/><path d="m30.685 6.378-21.828 5.155a.966.966 0 0 1 -.525-.019 6.8 6.8 0 0 0 -6.226 1.226 1.033 1.033 0 0 1 -1.673-.506l-.39-1.382a1.035 1.035 0 0 1 .448-1.167c3.171-1.985 17.043-10.292 26.167-9.65a2.66 2.66 0 0 1 2.082 1.284l2.374 4.027a.691.691 0 0 1 -.429 1.032z" fill="#3797db"/><path d="m0 1.3a1.3 1.3 0 1 0 1.3-1.3 1.3 1.3 0 0 0 -1.3 1.3z" fill="#62bdf3" transform="translate(3.662 13.031)"/></g><path d="m0 9.455 16.517-9.455 2.237 4.436-16.906 8.949z" fill="#3797db" transform="translate(15.992 32.627)"/><path d="m2.179 2.549h-1.809a.369.369 0 0 1 -.37-.37v-1.809a.369.369 0 0 1 .37-.37h1.809a.369.369 0 0 1 .37.37v1.809a.382.382 0 0 1 -.37.37zm-1.829-2.449a.278.278 0 0 0 -.272.27v1.809a.278.278 0 0 0 .272.272h1.809a.278.278 0 0 0 .272-.272v-1.809a.278.278 0 0 0 -.272-.27z" fill="#daeef7" transform="translate(114.766 42.646)"/><path d="m99.066 8.268v-5.1a3.172 3.172 0 0 0 -3.171-3.168h-92.724a3.172 3.172 0 0 0 -3.171 3.171v5.1z" fill="#222744" transform="translate(7.51 7.782)"/><g fill="#fff"><path d="m40.622 4.008h-38.622a2 2 0 0 1 -2-2.008 2 2 0 0 1 2-2h38.622a2 2 0 0 1 2 2 2 2 0 0 1 -2 2.008z" transform="translate(59.688 9.922)"/><path d="m3.5 1.751a1.751 1.751 0 1 1 -1.749-1.751 1.744 1.744 0 0 1 1.749 1.751z" transform="translate(12.198 10.175)"/><path d="m3.5 1.751a1.751 1.751 0 1 1 -1.749-1.751 1.744 1.744 0 0 1 1.749 1.751z" transform="translate(19.805 10.175)"/><path d="m3.5 1.751a1.751 1.751 0 1 1 -1.749-1.751 1.744 1.744 0 0 1 1.749 1.751z" transform="translate(27.432 10.175)"/></g></g><ellipse cx="21" cy="20" opacity=".19" rx="21" ry="20" transform="translate(4565 -615)"/><circle cx="20.5" cy="20.5" fill="#222744" r="20.5" transform="translate(4564 -617)"/><g fill="#fff"><path d="m2 1a1 1 0 1 0 -2 0v12a1 1 0 0 0 2 0z" transform="matrix(-1 0 0 -1 4585 -588)"/><path d="m17 0h-16a1 1 0 1 0 0 2h16a1 1 0 0 0 0-2z" transform="matrix(-1 0 0 -1 4593 -604)"/><path d="m1.707.293a1 1 0 1 0 -1.414 1.414l6 6a1 1 0 0 0 1.383.03l6-5.5a1 1 0 0 0 -1.352-1.474l-5.294 4.853z" transform="matrix(-1 0 0 -1 4591 -594)"/></g></g></svg>