<svg width="37" height="35" viewBox="0 0 37 35" fill="none" xmlns="http://www.w3.org/2000/svg">
<rect width="11.186" height="16.3488" rx="2" fill="#C8E1FF"/>
<line x1="2.22095" y1="4.66284" x2="8.96513" y2="4.66284" stroke="#78ACEA" stroke-linecap="round"/>
<line x1="2.22095" y1="7.24438" x2="8.96513" y2="7.24438" stroke="#78ACEA" stroke-linecap="round"/>
<line x1="2.22095" y1="9.82568" x2="8.96513" y2="9.82568" stroke="#78ACEA" stroke-linecap="round"/>
<line x1="2.22095" y1="12.407" x2="8.96513" y2="12.407" stroke="#78ACEA" stroke-linecap="round"/>
<rect y="18.0698" width="11.186" height="16.3488" rx="2" fill="#C8E1FF"/>
<line x1="2.22095" y1="22.7327" x2="8.96513" y2="22.7327" stroke="#78ACEA" stroke-linecap="round"/>
<line x1="2.22095" y1="25.314" x2="8.96513" y2="25.314" stroke="#78ACEA" stroke-linecap="round"/>
<line x1="2.22095" y1="27.8955" x2="8.96513" y2="27.8955" stroke="#78ACEA" stroke-linecap="round"/>
<line x1="2.22095" y1="30.4768" x2="8.96513" y2="30.4768" stroke="#78ACEA" stroke-linecap="round"/>
<rect x="12.907" width="11.186" height="16.3488" rx="2" fill="#C8E1FF"/>
<line x1="15.1279" y1="4.66284" x2="21.8721" y2="4.66284" stroke="#78ACEA" stroke-linecap="round"/>
<line x1="15.1279" y1="7.24438" x2="21.8721" y2="7.24438" stroke="#78ACEA" stroke-linecap="round"/>
<line x1="15.1279" y1="9.82568" x2="21.8721" y2="9.82568" stroke="#78ACEA" stroke-linecap="round"/>
<line x1="15.1279" y1="12.407" x2="21.8721" y2="12.407" stroke="#78ACEA" stroke-linecap="round"/>
<rect x="25.814" width="11.186" height="16.3488" rx="2" fill="#C8E1FF"/>
<line x1="28.0349" y1="4.66284" x2="34.7791" y2="4.66284" stroke="#78ACEA" stroke-linecap="round"/>
<line x1="28.0349" y1="7.24438" x2="34.7791" y2="7.24438" stroke="#78ACEA" stroke-linecap="round"/>
<line x1="28.0349" y1="9.82568" x2="34.7791" y2="9.82568" stroke="#78ACEA" stroke-linecap="round"/>
<line x1="28.0349" y1="12.407" x2="34.7791" y2="12.407" stroke="#78ACEA" stroke-linecap="round"/>
<rect x="12.907" y="18.0698" width="11.186" height="16.3488" rx="2" fill="#C8E1FF"/>
<line x1="15.1279" y1="22.7327" x2="21.8721" y2="22.7327" stroke="#78ACEA" stroke-linecap="round"/>
<line x1="15.1279" y1="25.314" x2="21.8721" y2="25.314" stroke="#78ACEA" stroke-linecap="round"/>
<line x1="15.1279" y1="27.8955" x2="21.8721" y2="27.8955" stroke="#78ACEA" stroke-linecap="round"/>
<line x1="15.1279" y1="30.4768" x2="21.8721" y2="30.4768" stroke="#78ACEA" stroke-linecap="round"/>
<rect x="25.814" y="18.0698" width="11.186" height="16.3488" rx="2" fill="#C8E1FF"/>
<line x1="28.0349" y1="22.7327" x2="34.7791" y2="22.7327" stroke="#78ACEA" stroke-linecap="round"/>
<line x1="28.0349" y1="25.314" x2="34.7791" y2="25.314" stroke="#78ACEA" stroke-linecap="round"/>
<line x1="28.0349" y1="27.8955" x2="34.7791" y2="27.8955" stroke="#78ACEA" stroke-linecap="round"/>
<line x1="28.0349" y1="30.4768" x2="34.7791" y2="30.4768" stroke="#78ACEA" stroke-linecap="round"/>
</svg>
