<svg width="49" height="42" viewBox="0 0 49 42" fill="none" xmlns="http://www.w3.org/2000/svg">
<rect y="3.60974" width="45.1219" height="33.3902" rx="4" fill="#EAEAEA"/>
<path d="M0 7.60974C0 5.4006 1.79086 3.60974 4 3.60974H41.1219C43.3311 3.60974 45.1219 5.4006 45.1219 7.60974V11.7317H0V7.60974Z" fill="#FF4E4E"/>
<line x1="10.7317" y1="7.12195" x2="10.7317" y2="0.999997" stroke="black" stroke-width="2" stroke-linecap="round"/>
<line x1="34.1951" y1="7.12195" x2="34.1951" y2="0.999997" stroke="black" stroke-width="2" stroke-linecap="round"/>
<line x1="8.31689" y1="19.6583" x2="34.0974" y2="19.6583" stroke="#F7CC7F" stroke-width="4" stroke-linecap="round"/>
<line x1="8.62183" y1="20.256" x2="11.2316" y2="20.256" stroke="#222744" stroke-linecap="round"/>
<line x1="14.939" y1="20.256" x2="17.5487" y2="20.256" stroke="#222744" stroke-linecap="round"/>
<line x1="22.1584" y1="20.256" x2="24.7682" y2="20.256" stroke="#222744" stroke-linecap="round"/>
<line x1="29.3782" y1="20.256" x2="31.9879" y2="20.256" stroke="#222744" stroke-linecap="round"/>
<line x1="8.31689" y1="26.8778" x2="19.6584" y2="26.8778" stroke="#F7CC7F" stroke-width="4" stroke-linecap="round"/>
<line x1="8.62183" y1="27.4753" x2="11.2316" y2="27.4753" stroke="#222744" stroke-linecap="round"/>
<line x1="14.939" y1="27.4753" x2="17.5487" y2="27.4753" stroke="#222744" stroke-linecap="round"/>
<circle cx="39.5" cy="32.5" r="9.5" fill="#FFBD5B"/>
<path d="M38.5489 27.9271C38.8483 27.0057 40.1517 27.0057 40.4511 27.9271L40.9593 29.4914C41.0932 29.9034 41.4772 30.1824 41.9104 30.1824H43.5552C44.524 30.1824 44.9267 31.422 44.143 31.9914L42.8123 32.9582C42.4618 33.2128 42.3152 33.6642 42.449 34.0762L42.9573 35.6406C43.2567 36.5619 42.2022 37.328 41.4185 36.7586L40.0878 35.7918C39.7373 35.5372 39.2627 35.5372 38.9122 35.7918L37.5815 36.7586C36.7978 37.328 35.7433 36.5619 36.0427 35.6406L36.551 34.0762C36.6848 33.6642 36.5382 33.2128 36.1877 32.9582L34.857 31.9914C34.0733 31.422 34.476 30.1824 35.4448 30.1824H37.0896C37.5228 30.1824 37.9068 29.9034 38.0407 29.4914L38.5489 27.9271Z" fill="white"/>
</svg>
