<svg width="53" height="35" viewBox="0 0 53 35" fill="none" xmlns="http://www.w3.org/2000/svg">
<path d="M4.27042 32.056C4.27118 32.2742 4.35677 32.4833 4.50853 32.6376C4.66028 32.7918 4.86589 32.8789 5.08051 32.8796H48.7994C49.014 32.8789 49.2196 32.7918 49.3713 32.6376C49.5231 32.4833 49.6087 32.2742 49.6094 32.056L49.9714 6.5119C49.9309 6.14787 49.7545 5.81351 49.4788 5.57769C49.203 5.34188 48.8488 5.22256 48.4891 5.24433L5.76133 4.11111C5.48514 4.1035 5.21033 4.1531 4.95359 4.25689C4.69686 4.36068 4.46358 4.51649 4.26795 4.71485C4.07232 4.9132 3.91843 5.14995 3.81564 5.41069C3.71285 5.67142 3.66331 5.95069 3.67004 6.23151L4.27042 32.056Z" fill="#222744"/>
<path d="M5.06877 31.2732C5.06952 31.479 5.15027 31.6762 5.29341 31.8217C5.43655 31.9673 5.63047 32.0494 5.83289 32.0501H47.7449C47.9473 32.0494 48.1412 31.9673 48.2843 31.8217C48.4275 31.6762 48.5082 31.479 48.509 31.2732L48.8537 8.08317C48.8479 7.82772 48.7918 7.57603 48.6889 7.34293C48.5859 7.10983 48.4382 6.90002 48.2543 6.72585C48.0704 6.55167 47.8541 6.41666 47.6181 6.32875C47.3821 6.24083 47.1312 6.2018 46.8802 6.21394L5.92769 5.09533C5.73399 5.09096 5.54141 5.12647 5.36156 5.19974C5.18171 5.27301 5.0183 5.38253 4.88116 5.52168C4.74402 5.66084 4.63599 5.82677 4.56357 6.00948C4.49115 6.1922 4.45584 6.38792 4.45977 6.58487L5.06877 31.2732Z" fill="#264B8A"/>
<path d="M1.65337 35L51.3359 35C51.8499 35 52.2666 34.5763 52.2666 34.0537V33.7032C52.2666 33.1806 51.8499 32.7569 51.3359 32.7569L1.65337 32.7569C1.13934 32.7569 0.722637 33.1806 0.722637 33.7032V34.0537C0.722637 34.5763 1.13934 35 1.65337 35Z" fill="#222744"/>
<path d="M26.8461 4.8748C22.4923 1.04963 14.7786 2.1653 11.4659 3.20129L9.573 25.196C14.6839 22.3271 23.218 23.4157 26.8461 25.0095V4.8748Z" fill="#B4CFF1"/>
<path d="M26.846 4.8748C31.1998 1.04963 38.9135 2.1653 42.2262 3.20129L44.1191 25.196C39.0082 22.3271 30.4742 23.4157 26.846 25.0095V4.8748Z" fill="#B4CFF1"/>
<path d="M26.8461 3.49296C22.4923 -0.332209 14.7786 0.783467 11.4659 1.81945L9.573 23.8141C14.6839 20.9453 23.218 23.4157 26.8461 25.0095V3.49296Z" fill="#C8E1FF"/>
<path d="M26.846 3.49296C31.1998 -0.332209 38.9135 0.783467 42.2262 1.81945L44.1191 23.8141C39.0082 20.9453 30.4742 23.4157 26.846 25.0095V3.49296Z" fill="#C8E1FF"/>
<rect x="26.155" y="2.90015" width="1.38185" height="22.1096" rx="0.690925" fill="#AECEF5"/>
<path d="M29.6096 5.31817C31.7975 4.7424 37.0025 3.93632 40.319 5.31817" stroke="#78ACEA" stroke-linecap="round"/>
<path d="M13.0276 5.31817C15.2155 4.7424 20.4205 3.93632 23.7369 5.31817" stroke="#78ACEA" stroke-linecap="round"/>
<path d="M29.6096 8.49932C31.7975 7.92355 37.0025 7.11747 40.319 8.49932" stroke="#78ACEA" stroke-linecap="round"/>
<path d="M13.0276 8.49932C15.2155 7.92355 20.4205 7.11747 23.7369 8.49932" stroke="#78ACEA" stroke-linecap="round"/>
<path d="M29.6096 11.9542C31.7975 11.3784 37.0025 10.5723 40.319 11.9542" stroke="#78ACEA" stroke-linecap="round"/>
<path d="M13.0276 11.9542C15.2155 11.3784 20.4205 10.5723 23.7369 11.9542" stroke="#78ACEA" stroke-linecap="round"/>
<path d="M29.6096 15.4085C31.7975 14.8327 37.0025 14.0266 40.319 15.4085" stroke="#78ACEA" stroke-linecap="round"/>
<path d="M13.0276 15.4085C15.2155 14.8327 20.4205 14.0266 23.7369 15.4085" stroke="#78ACEA" stroke-linecap="round"/>
<path d="M29.6096 18.8631C31.7975 18.2873 37.0025 17.4812 40.319 18.8631" stroke="#78ACEA" stroke-linecap="round"/>
<path d="M13.0276 18.8631C15.2155 18.2873 20.4205 17.4812 23.7369 18.8631" stroke="#78ACEA" stroke-linecap="round"/>
</svg>
