<svg xmlns="http://www.w3.org/2000/svg" width="16" height="16" viewBox="0 0 16 16">
  <g id="Group_1363" data-name="Group 1363" transform="translate(-26 -563)">
    <rect id="Rectangle_1734" data-name="Rectangle 1734" width="16" height="16" rx="3" transform="translate(26 563)" fill="#c5ebe0"/>
    <path id="Shape" d="M8.889,7H1.111A1.1,1.1,0,0,1,0,5.923V1.077A1.1,1.1,0,0,1,1.111,0H8.889A1.1,1.1,0,0,1,10,1.077V5.923A1.1,1.1,0,0,1,8.889,7ZM1.389.942a.418.418,0,0,0-.367.213.4.4,0,0,0,.169.547L4.8,3.586a.43.43,0,0,0,.4,0L8.809,1.7a.4.4,0,0,0,.169-.547A.418.418,0,0,0,8.611.942a.428.428,0,0,0-.2.048L5,2.772,1.587.991A.428.428,0,0,0,1.389.942Z" transform="translate(29 568)" fill="#4ac19e"/>
  </g>
</svg>
