<svg height="70" viewBox="0 0 105 70" width="105" xmlns="http://www.w3.org/2000/svg" xmlns:xlink="http://www.w3.org/1999/xlink"><clipPath id="a"><rect height="70" rx="12" width="105" x="-3469" y="645"/></clipPath><g transform="translate(3469 -645)"><rect fill="#c4e1fd" height="70" rx="12" width="105" x="-3469" y="645"/><g clip-path="url(#a)"><path d="m23.43 158.252-6.26-6.26-.695 1.14-.76-2.595-2.78-2.78-1.573 3.869-.876-.482-2.438 6.506.071 1.986-.9.215-1.87 4.985a.745.745 0 0 0 .959.959l3.944-1.479.151-.923 1.407.339 3.06-1.148v-1.145l1.6.544 2.967-1.113.312-.888 1.235.307 2.175-.815a.746.746 0 0 0 .271-1.222z" fill="#ff7d43" transform="translate(-3441.336 554.796)"/><path d="m27.377 259.538-2.175.815-1.235-.307-.312.888-2.967 1.113-1.6-.544v1.145l-3.06 1.148-1.407-.339-.151.923-3.944 1.479a.733.733 0 0 1 -.788-.171l12.64-12.639 5.267 5.267a.746.746 0 0 1 -.268 1.222z" fill="#e63950" transform="translate(-3445.548 454.734)"/><path d="m219.55 213.5-1.547.58a13.451 13.451 0 0 1 -3.727-10.335l1.454 1.454a11.875 11.875 0 0 0 3.82 8.3z" fill="#f0f7ff" transform="translate(-3639.896 501.586)"/><path d="m228.281 275.511-1.547.581a13.4 13.4 0 0 1 -3.308-5.858l1.237-1.234a11.91 11.91 0 0 0 3.618 6.511z" fill="#dfe7f4" transform="translate(-3648.627 439.576)"/><path d="m114.155 157.068-1.6.6a13.406 13.406 0 0 1 -4.387-11.441l1.185-3.161a.746.746 0 0 1 1.225-.265l.039.039a11.9 11.9 0 0 0 3.54 14.228z" fill="#f0f7ff" transform="translate(-3539.015 559.713)"/><path d="m146.1 357.442-1.6.6a13.417 13.417 0 0 1 -2.8-3.513l1.1-1.1a11.935 11.935 0 0 0 3.3 4.013z" fill="#dfe7f4" transform="translate(-3570.955 359.339)"/><path d="m48.528 353.08-1.558.584a13.379 13.379 0 0 1 -3.034-4.465l.826-2.2a11.741 11.741 0 0 0 3.766 6.082z" fill="#f0f7ff" transform="translate(-3478.05 365.449)"/><path d="m76.325 425.107-1.558.584a13.241 13.241 0 0 1 -1.581-1.843l1.06-1.06a11.792 11.792 0 0 0 2.079 2.319z" fill="#dfe7f4" transform="translate(-3505.847 293.422)"/><path d="m232.986 18.191a.745.745 0 0 1 0-1.053c2.8-2.8 1.936-5.531 1.927-5.558a.745.745 0 1 1 1.413-.471c.049.147 1.159 3.636-2.287 7.082a.745.745 0 0 1 -1.053 0z" fill="#8cd96b" transform="translate(-3657.505 685.143)"/><path d="m349.659 212.245a.745.745 0 0 0 1.053 0c2.8-2.8 5.531-1.936 5.558-1.927a.745.745 0 1 0 .471-1.413c-.147-.049-3.637-1.159-7.082 2.287a.745.745 0 0 0 0 1.053z" fill="#5ab267" transform="translate(-3768.384 496.883)"/><path d="m296.421 3.51c-.656.656-1.827-.041-2.237.134-.174.411.523 1.581-.133 2.237s-1.827-.041-2.237.134c-.175.411.523 1.58-.133 2.237s-1.828-.041-2.237.134c-.175.411.523 1.58-.133 2.237s-1.854-.058-2.243.136a.745.745 0 0 1 -1.049-1.059 2.1 2.1 0 0 1 1.952-.372l.056.01-.01-.056a2.1 2.1 0 0 1 .372-1.952 2.1 2.1 0 0 1 1.952-.372l.056.01-.01-.056a2.1 2.1 0 0 1 .372-1.952 2.1 2.1 0 0 1 1.952-.372l.056.01-.01-.056a2.1 2.1 0 0 1 .372-1.952 2.1 2.1 0 0 1 1.952-.372l.056.01-.01-.056a2.1 2.1 0 0 1 .373-1.954.745.745 0 0 1 1.053 0 .736.736 0 0 1 .193.334.743.743 0 0 1 -.188.715c-.192.386.527 1.58-.137 2.243z" fill="#ff7d43" transform="translate(-3707.905 695.215)"/><path d="m306.984 14.076c-.656.656-1.827-.041-2.237.134-.174.411.523 1.581-.133 2.237s-1.827-.041-2.237.134c-.175.411.523 1.58-.133 2.237s-1.828-.041-2.237.134c-.175.411.523 1.58-.133 2.237s-1.854-.058-2.243.136a.745.745 0 0 1 -.715.189l1.618-1.618.056.01-.01-.056 2.324-2.324.056.01-.01-.056 2.325-2.324.056.01-.01-.056 2.324-2.324.056.01-.01-.056 1.618-1.618a.744.744 0 0 1 -.188.715c-.192.385.527 1.579-.136 2.242z" fill="#e63950" transform="translate(-3718.468 684.65)"/><ellipse cx=".745" cy=".745" fill="#ffe470" rx=".745" ry=".745" transform="translate(-3418.943 697.323)"/><ellipse cx=".745" cy=".745" fill="#fabe2c" rx=".745" ry=".745" transform="translate(-3413.677 702.589)"/><ellipse cx=".745" cy=".745" fill="#fabe2c" rx=".745" ry=".745" transform="translate(-3414.73 709.963)"/><ellipse cx=".745" cy=".745" fill="#ffe470" rx=".745" ry=".745" transform="translate(-3426.317 698.376)"/><path d="m25.549 14.792-8.823-8.823-.979 1.607-1.071-3.657-3.919-3.919-2.217 5.453-1.234-.679-3.438 9.17.1 2.8-1.264.3-2.635 7.031a1.037 1.037 0 0 0 .241 1.11 1.033 1.033 0 0 0 1.11.241l5.56-2.084.213-1.3 1.983.477 4.313-1.619v-1.613l2.257.767 4.183-1.568.44-1.251 1.741.433 3.066-1.149a1.051 1.051 0 0 0 .373-1.727z" fill="#ff7d43" transform="matrix(-.27563736 -.9612617 .9612617 -.27563736 -3388.2715927603 720.48263406024)"/><path d="m24.865 9.149-3.065 1.151-1.741-.433-.44 1.251-4.183 1.569-2.257-.767v1.613l-4.313 1.616-1.983-.477-.213 1.3-5.56 2.085a1.033 1.033 0 0 1 -1.11-.242l17.816-17.815 7.423 7.423a1.051 1.051 0 0 1 -.374 1.726z" fill="#e63950" transform="matrix(-.27563736 -.9612617 .9612617 -.27563736 -3381.2725416129 718.15319559004)"/><path d="m7.486 13.749-2.18.818a18.885 18.885 0 0 1 -4.663-8.257 19 19 0 0 1 -.591-6.31l2.048 2.05a16.656 16.656 0 0 0 .283 2.517 16.787 16.787 0 0 0 5.103 9.182z" fill="#f0f7ff" transform="matrix(-.27563736 -.9612617 .9612617 -.27563736 -3388.53505327328 705.3458814073)"/><path d="m6.843 9.182-2.18.818a18.887 18.887 0 0 1 -4.663-8.257l1.743-1.743a16.787 16.787 0 0 0 5.1 9.182z" fill="#dfe7f4" transform="matrix(-.27563736 -.9612617 .9612617 -.27563736 -3384.32220591186 703.46895431108)"/><path d="m8.553 20.416-2.253.847a18.9 18.9 0 0 1 -6.188-16.127l1.671-4.455a1.051 1.051 0 0 1 1.726-.373l.055.055a16.775 16.775 0 0 0 4.99 20.054z" fill="#f0f7ff" transform="matrix(-.27563736 -.9612617 .9612617 -.27563736 -3390.60250466354 713.66709811476)"/><path d="m6.2 5.659-2.257.846a18.912 18.912 0 0 1 -3.943-4.951l1.554-1.554a16.822 16.822 0 0 0 4.646 5.659z" fill="#dfe7f4" transform="matrix(-.27563736 -.9612617 .9612617 -.27563736 -3377.06546482736 707.33863007484)"/><path d="m6.472 8.573-2.2.824a18.677 18.677 0 0 1 -2.225-2.597 18.768 18.768 0 0 1 -2.047-3.7l1.164-3.1a16.52 16.52 0 0 0 2.377 5.3 16.625 16.625 0 0 0 2.931 3.273z" fill="#f0f7ff" transform="matrix(-.27563736 -.9612617 .9612617 -.27563736 -3375.61212177524 714.03961943824)"/><path d="m4.425 3.269-2.2.824a18.665 18.665 0 0 1 -2.225-2.599l1.494-1.494a16.62 16.62 0 0 0 2.931 3.269z" fill="#dfe7f4" transform="matrix(-.27563736 -.9612617 .9612617 -.27563736 -3371.07685813266 710.60966054354)"/><path d="m.307 10.7a1.05 1.05 0 0 1 0-1.485c3.95-3.95 2.729-7.8 2.716-7.834a1.05 1.05 0 1 1 1.992-.663c.069.207 1.634 5.126-3.223 9.982a1.05 1.05 0 0 1 -1.485 0z" fill="#8cd96b" transform="matrix(-.27563736 -.9612617 .9612617 -.27563736 -3401.8868905898 707.82519081488)"/><path d="m.307 5a1.05 1.05 0 0 0 1.485 0c3.95-3.95 7.8-2.729 7.834-2.716a1.05 1.05 0 1 0 .664-1.99c-.207-.069-5.125-1.634-9.982 3.223a1.05 1.05 0 0 0 -.001 1.483z" fill="#5ab267" transform="matrix(-.27563736 -.9612617 .9612617 -.27563736 -3390.80985180106 696.15381577628)"/><path d="m14.969 4.947c-.925.925-2.576-.057-3.153.188-.246.58.738 2.228-.188 3.152s-2.575-.057-3.153.188c-.246.58.738 2.227-.188 3.152s-2.576-.057-3.153.188c-.246.58.738 2.227-.188 3.152-.944.944-2.613-.081-3.161.192a1.05 1.05 0 0 1 -1.477-1.489 2.954 2.954 0 0 1 2.751-.524l.079.015-.015-.079a2.956 2.956 0 0 1 .525-2.752 2.954 2.954 0 0 1 2.752-.53l.079.015-.015-.075a2.956 2.956 0 0 1 .525-2.752 2.954 2.954 0 0 1 2.751-.524l.079.015-.019-.079a2.956 2.956 0 0 1 .525-2.752 2.954 2.954 0 0 1 2.751-.524l.079.015c-.005-.026-.01-.052-.015-.079a2.956 2.956 0 0 1 .53-2.753 1.051 1.051 0 0 1 1.485 0 1.037 1.037 0 0 1 .272.471 1.048 1.048 0 0 1 -.265 1.008c-.271.543.738 2.226-.193 3.161z" fill="#ff7d43" transform="matrix(-.27563736 -.9612617 .9612617 -.27563736 -3403.62331265152 704.4615103056)"/><path d="m14.191 4.169c-.925.925-2.576-.057-3.153.188-.246.58.738 2.228-.188 3.152s-2.574-.057-3.15.191c-.246.58.738 2.227-.187 3.152s-2.576-.057-3.153.188c-.246.58.738 2.227-.187 3.152-.944.944-2.614-.081-3.161.192a1.05 1.05 0 0 1 -1.012.264l2.281-2.281.079.015-.015-.082 3.277-3.273.079.015-.015-.079 3.276-3.277.079.015-.015-.079 3.274-3.277.079.015-.015-.079 2.284-2.281a1.048 1.048 0 0 1 -.265 1.008c-.27.543.743 2.226-.192 3.161z" fill="#e63950" transform="matrix(-.27563736 -.9612617 .9612617 -.27563736 -3403.089896915 703.49920283692)"/><ellipse cx="1.05" cy="1.05" fill="#ffe470" rx="1.05" ry="1.05" transform="matrix(-.27563736 -.9612617 .9612617 -.27563736 -3401.99701546566 699.36168337196)"/><ellipse cx="1.05" cy="1.05" fill="#fabe2c" rx="1.05" ry="1.05" transform="matrix(-.27563736 -.9612617 .9612617 -.27563736 -3396.9069403655 690.17894475052)"/><ellipse cx="1.05" cy="1.05" fill="#fabe2c" rx="1.05" ry="1.05" transform="matrix(-.27563736 -.9612617 .9612617 -.27563736 -3386.5072260378 688.74171929254)"/><ellipse cx="1.05" cy="1.05" fill="#ffe470" rx="1.05" ry="1.05" transform="matrix(-.27563736 -.9612617 .9612617 -.27563736 -3397.70484275868 708.94275474046)"/></g><text fill="#090909" font-family="Archivo-Bold, Archivo" font-size="12" font-weight="700" transform="translate(-3459 663)"><tspan x="0" y="0">Events &amp;</tspan><tspan x="0" y="14">Celebrations</tspan></text></g></svg>