<svg width="38" height="43" viewBox="0 0 38 43" fill="none" xmlns="http://www.w3.org/2000/svg">
<rect width="35" height="43" rx="2" fill="#EAF4FF"/>
<rect x="5" y="28" width="26" height="3" rx="1.5" fill="#C0D1E6"/>
<rect x="5" y="22" width="26" height="3" rx="1.5" fill="#C0D1E6"/>
<rect x="5" y="16" width="26" height="3" rx="1.5" fill="#C0D1E6"/>
<rect x="5" y="34" width="26" height="3" rx="1.5" fill="#C0D1E6"/>
<path d="M36.7559 7.47882C37.2941 7.60284 37.6298 8.13965 37.5058 8.67783L31.7541 33.6384L28.703 32.9353L34.4546 7.97475C34.5786 7.43657 35.1155 7.10082 35.6536 7.22483L36.7559 7.47882Z" fill="#FF7575"/>
<path d="M35.4422 7.17579C35.8634 7.27287 36.1263 7.69308 36.0292 8.11436L30.2287 33.2865L28.7032 32.935L34.5036 7.76282C34.6007 7.34154 35.0209 7.07872 35.4422 7.17579V7.17579Z" fill="#FF5A5A"/>
<path d="M36.7559 7.47882C37.2941 7.60284 37.6298 8.13965 37.5058 8.67783L37.203 9.99175L34.1519 9.28867L34.4546 7.97475C34.5786 7.43657 35.1155 7.10082 35.6536 7.22483L36.7559 7.47882Z" fill="#1E0000"/>
<path d="M29.5256 36.3376L31.7543 33.6379L28.7031 32.9349L29.5256 36.3376Z" fill="#F7CC7F"/>
<path d="M29.5256 36.3379L30.6399 34.988L29.1143 34.6365L29.5256 36.3379Z" fill="black"/>
<path d="M5.792 10C5.704 10 5.636 9.978 5.588 9.934C5.544 9.886 5.522 9.818 5.522 9.73V6.04C5.522 5.952 5.544 5.886 5.588 5.842C5.636 5.794 5.704 5.77 5.792 5.77H8.024C8.092 5.77 8.144 5.788 8.18 5.824C8.216 5.86 8.234 5.91 8.234 5.974C8.234 6.042 8.216 6.094 8.18 6.13C8.144 6.166 8.092 6.184 8.024 6.184H6.002V7.648H7.898C7.966 7.648 8.018 7.666 8.054 7.702C8.09 7.734 8.108 7.784 8.108 7.852C8.108 7.92 8.09 7.972 8.054 8.008C8.018 8.044 7.966 8.062 7.898 8.062H6.002V9.586H8.024C8.092 9.586 8.144 9.604 8.18 9.64C8.216 9.676 8.234 9.726 8.234 9.79C8.234 9.858 8.216 9.91 8.18 9.946C8.144 9.982 8.092 10 8.024 10H5.792ZM8.91917 10.042C8.85117 10.042 8.79517 10.024 8.75117 9.988C8.71117 9.952 8.68717 9.908 8.67917 9.856C8.67517 9.804 8.69517 9.752 8.73917 9.7L10.1912 7.744V7.93L8.82317 6.082C8.77917 6.022 8.75917 5.966 8.76317 5.914C8.76717 5.862 8.78917 5.818 8.82917 5.782C8.87317 5.746 8.92517 5.728 8.98517 5.728C9.04117 5.728 9.08917 5.74 9.12917 5.764C9.16917 5.788 9.21117 5.83 9.25517 5.89L10.4852 7.576H10.3292L11.5532 5.89C11.5932 5.83 11.6332 5.788 11.6732 5.764C11.7132 5.74 11.7612 5.728 11.8172 5.728C11.8812 5.728 11.9332 5.746 11.9732 5.782C12.0172 5.814 12.0412 5.858 12.0452 5.914C12.0492 5.966 12.0292 6.022 11.9852 6.082L10.6172 7.93V7.744L12.0692 9.7C12.1092 9.752 12.1252 9.804 12.1172 9.856C12.1132 9.908 12.0912 9.952 12.0512 9.988C12.0112 10.024 11.9572 10.042 11.8892 10.042C11.8372 10.042 11.7892 10.028 11.7452 10C11.7052 9.976 11.6632 9.936 11.6192 9.88L10.3052 8.086H10.4972L9.18317 9.88C9.14317 9.936 9.10117 9.976 9.05717 10C9.01317 10.028 8.96717 10.042 8.91917 10.042ZM12.68 10.042C12.616 10.042 12.564 10.028 12.524 10C12.488 9.968 12.466 9.928 12.458 9.88C12.454 9.828 12.466 9.77 12.494 9.706L14.144 5.95C14.18 5.87 14.222 5.814 14.27 5.782C14.322 5.746 14.378 5.728 14.438 5.728C14.498 5.728 14.552 5.746 14.6 5.782C14.652 5.814 14.694 5.87 14.726 5.95L16.382 9.706C16.414 9.77 16.426 9.828 16.418 9.88C16.414 9.932 16.394 9.972 16.358 10C16.322 10.028 16.272 10.042 16.208 10.042C16.136 10.042 16.078 10.024 16.034 9.988C15.99 9.948 15.954 9.892 15.926 9.82L15.482 8.794L15.722 8.92H13.142L13.388 8.794L12.95 9.82C12.914 9.896 12.876 9.952 12.836 9.988C12.796 10.024 12.744 10.042 12.68 10.042ZM14.432 6.346L13.466 8.62L13.322 8.506H15.542L15.41 8.62L14.444 6.346H14.432ZM17.3811 10.042C17.3091 10.042 17.2531 10.022 17.2131 9.982C17.1731 9.938 17.1531 9.878 17.1531 9.802V5.968C17.1531 5.888 17.1731 5.828 17.2131 5.788C17.2531 5.748 17.3091 5.728 17.3811 5.728C17.4451 5.728 17.4951 5.742 17.5311 5.77C17.5711 5.794 17.6071 5.836 17.6391 5.896L19.2831 8.992H19.1031L20.7411 5.896C20.7731 5.836 20.8071 5.794 20.8431 5.77C20.8791 5.742 20.9311 5.728 20.9991 5.728C21.0671 5.728 21.1211 5.748 21.1611 5.788C21.2011 5.828 21.2211 5.888 21.2211 5.968V9.802C21.2211 9.878 21.2011 9.938 21.1611 9.982C21.1251 10.022 21.0691 10.042 20.9931 10.042C20.9211 10.042 20.8651 10.022 20.8251 9.982C20.7851 9.938 20.7651 9.878 20.7651 9.802V6.43H20.9091L19.4091 9.244C19.3811 9.296 19.3511 9.334 19.3191 9.358C19.2911 9.378 19.2491 9.388 19.1931 9.388C19.1371 9.388 19.0931 9.376 19.0611 9.352C19.0291 9.328 19.0011 9.292 18.9771 9.244L17.4591 6.424H17.6031V9.802C17.6031 9.878 17.5831 9.938 17.5431 9.982C17.5071 10.022 17.4531 10.042 17.3811 10.042ZM23.642 10.054C23.454 10.054 23.27 10.038 23.09 10.006C22.91 9.974 22.742 9.928 22.586 9.868C22.434 9.808 22.296 9.732 22.172 9.64C22.124 9.604 22.09 9.564 22.07 9.52C22.054 9.472 22.05 9.426 22.058 9.382C22.07 9.334 22.09 9.294 22.118 9.262C22.15 9.23 22.188 9.212 22.232 9.208C22.276 9.204 22.324 9.218 22.376 9.25C22.556 9.378 22.748 9.472 22.952 9.532C23.156 9.588 23.386 9.616 23.642 9.616C24.002 9.616 24.268 9.55 24.44 9.418C24.616 9.282 24.704 9.104 24.704 8.884C24.704 8.704 24.64 8.564 24.512 8.464C24.388 8.36 24.178 8.278 23.882 8.218L23.258 8.092C22.882 8.012 22.6 7.882 22.412 7.702C22.228 7.518 22.136 7.274 22.136 6.97C22.136 6.782 22.174 6.612 22.25 6.46C22.326 6.304 22.432 6.172 22.568 6.064C22.704 5.952 22.866 5.866 23.054 5.806C23.242 5.746 23.45 5.716 23.678 5.716C23.93 5.716 24.164 5.752 24.38 5.824C24.6 5.892 24.798 5.996 24.974 6.136C25.018 6.172 25.048 6.214 25.064 6.262C25.08 6.306 25.082 6.35 25.07 6.394C25.058 6.434 25.036 6.468 25.004 6.496C24.976 6.524 24.938 6.54 24.89 6.544C24.846 6.548 24.796 6.532 24.74 6.496C24.58 6.376 24.414 6.29 24.242 6.238C24.07 6.182 23.88 6.154 23.672 6.154C23.46 6.154 23.276 6.186 23.12 6.25C22.968 6.314 22.848 6.408 22.76 6.532C22.676 6.652 22.634 6.792 22.634 6.952C22.634 7.144 22.692 7.296 22.808 7.408C22.928 7.52 23.122 7.602 23.39 7.654L24.014 7.786C24.418 7.87 24.716 7.998 24.908 8.17C25.104 8.338 25.202 8.568 25.202 8.86C25.202 9.036 25.166 9.198 25.094 9.346C25.022 9.494 24.918 9.622 24.782 9.73C24.646 9.834 24.482 9.914 24.29 9.97C24.098 10.026 23.882 10.054 23.642 10.054Z" fill="#78ACEA"/>
</svg>
