<svg fill="none" height="39" viewBox="0 0 38 39" width="38" xmlns="http://www.w3.org/2000/svg"><rect fill="#eaeaea" height="33" rx="4" width="33" y="3"/><path d="m0 7c0-2.20914 1.79086-4 4-4h25c2.2091 0 4 1.79086 4 4v4h-33z" fill="#ff4e4e"/><path d="m6 5v-4" stroke="#000" stroke-linecap="round" stroke-width="2"/><path d="m27 5v-4" stroke="#000" stroke-linecap="round" stroke-width="2"/><g fill="#4ba484"><rect height="5" rx="1.5" width="5" x="4" y="13"/><rect height="5" rx="1.5" width="5" x="4" y="21"/><rect height="5" rx="1.5" width="5" x="4" y="29"/><rect height="5" rx="1.5" width="5" x="14" y="13"/><rect height="5" rx="1.5" width="5" x="14" y="21"/></g><rect fill="#ff5a5a" height="5" rx="1.5" width="5" x="14" y="29"/><rect fill="#4ba484" height="5" rx="1.5" width="5" x="24" y="13"/><rect fill="#4ba484" height="5" rx="1.5" width="5" x="24" y="21"/><rect fill="#4ba484" height="5" rx="1.5" width="5" x="24" y="29"/><circle cx="28.5" cy="30.5" fill="#000" fill-opacity=".12" r="8.5"/><circle cx="29.5" cy="30.5" fill="#25636b" r="8.5"/><path d="m30.4066 27.8454c0-.7338 0-1.4547 0-2.2664 1.643 1.2339 3.2275 2.4288 4.8511 3.6496-1.6106 1.2664-3.2016 2.5067-4.8381 3.7926 0-.8962 0-1.721 0-2.5522-2.6236-.2208-4.6368.6429-5.7927 3.1626-.2663-.9157.6169-3.1431 1.604-4.2016.8897-.9612 2.0521-1.4093 4.1757-1.5846z" fill="#fff"/></svg>