<?xml version="1.0" encoding="iso-8859-1"?>
<!-- Generator: Adobe Illustrator 19.0.0, SVG Export Plug-In . SVG Version: 6.00 Build 0)  -->
<svg version="1.1" id="Layer_1" xmlns="http://www.w3.org/2000/svg" xmlns:xlink="http://www.w3.org/1999/xlink" x="0px" y="0px"
	 viewBox="0 0 318.543 318.543" style="enable-background:new 0 0 318.543 318.543;" xml:space="preserve">
<g>
	<g>
		<path style="fill:#2F3233;" d="M70.266,236.841c0,0,14.85-27.608,11.511-57.606c-3.142-28.215-21.01-46.78-17.025-102.942
			C67.461,38.068,91.332,0,157.948,0c58.32,0,72.135,26.653,69.364,44.841c0,0,8.133-0.517,13.692,4.721
			c8.071,7.605,14.052,51.648,2.467,87.232c-23.584,72.444,5.744,101.874,5.744,101.874L70.266,236.841z"/>
		<path style="fill:#E8C59E;" d="M295.389,253.096c-10.522-37.754-63.361-33.566-86.164-44.408s-19.245-47.219-22.134-53.548
			h-55.638c-2.889,6.329,0.674,42.711-22.134,53.548c-22.803,10.842-75.642,6.655-86.164,44.408
			c-5.806,20.824-5.525,27.187-7.133,50.26c0,0,72.5,15.187,141.611,15.187s144.888-15.187,144.888-15.187
			C300.919,280.283,301.195,273.921,295.389,253.096z"/>
		<path style="fill:#DDB58E;" d="M179.761,217.001c22.803,10.842,75.642,6.655,86.164,44.408c5.531,19.83,5.542,26.552,6.913,47.073
			c18.155-2.816,29.682-5.126,29.682-5.126c-1.602-23.067-1.326-29.435-7.133-50.26c-10.522-37.754-63.361-33.566-86.164-44.408
			s-19.245-47.219-22.134-53.548h-29.458C157.633,155.14,156.953,206.164,179.761,217.001z"/>
		<path style="fill:#E0DBD3;" d="M250.025,311.753L250.025,311.753c-2.715-34.044,1.102-80.83,2.125-92.246
			c-15.378-3.912-31.301-5.75-41.716-10.274l0,0c0,0-45.701,55.498-51.159,55.498c-5.458,0-51.159-55.498-51.159-55.498l0,0
			c-10.443,4.536-26.417,6.368-41.829,10.303l0,0c1.029,11.489,4.851,58.404,2.102,92.442l0,0
			c25.692,3.423,57.819,6.565,89.244,6.565C189.749,318.543,223.299,315.26,250.025,311.753z"/>
		<path style="fill:#D3CEC7;" d="M199.13,222.739c16.856,3.58,37.315,6.615,51.49,16.884c0.59-9.257,1.203-16.48,1.523-20.116
			c-15.378-3.912-31.301-5.75-41.716-10.274C210.427,209.233,205.712,214.96,199.13,222.739z"/>
		<path style="fill:#E2963B;" d="M252.144,219.507c-5.334-1.36-10.741-2.467-15.951-3.524c-1.934,20.645-4.412,56.571-3.412,97.872
			c5.986-0.674,11.758-1.383,17.244-2.108C247.304,277.703,251.126,230.923,252.144,219.507z"/>
		<path style="fill:#D88832;" d="M234.894,231.541c5.688,2.091,11.05,4.693,15.726,8.082c0.59-9.257,1.203-16.48,1.523-20.116
			c-5.334-1.36-10.741-2.467-15.951-3.524C235.771,220.48,235.327,225.701,234.894,231.541z"/>
		<path style="fill:#E2963B;" d="M82.339,215.989c-5.25,1.062-10.685,2.181-16.052,3.552l0,0
			c1.029,11.489,4.851,58.404,2.102,92.442c5.514,0.736,11.32,1.456,17.356,2.136C86.763,272.707,84.273,236.673,82.339,215.989z"/>
		<path style="fill:#E2963B;" d="M210.427,209.233c-0.41-0.18-0.815-0.36-1.208-0.545c-22.803-10.842-19.245-47.219-22.134-53.548
			h-55.638c-2.889,6.329,0.674,42.711-22.134,53.548c-0.393,0.185-0.798,0.371-1.208,0.545c0,0,6.885,13.332,17.379,27.608
			c12.09,16.44,28.322,34.134,33.78,34.134s21.69-17.688,33.78-34.134C203.548,222.565,210.427,209.233,210.427,209.233z"/>
		<path style="fill:#D88832;" d="M210.427,209.233c-0.197-0.084-0.393-0.174-0.59-0.259c-0.011-0.006-0.017-0.006-0.028-0.011
			c-0.197-0.09-0.399-0.18-0.59-0.275c-4.097-1.95-7.341-4.727-9.932-8.004l0,0c-1.956,4.867-6.351,11.927-11.562,19.267
			c4.373,1.293,9.28,2.361,14.462,3.429C207.359,215.18,210.427,209.233,210.427,209.233L210.427,209.233z"/>
		<path style="fill:#E8C59E;" d="M199.293,200.684c-11.803-14.951-9.836-40.356-12.202-45.549h-55.638
			c-2.372,5.193-0.405,30.599-12.202,45.549c5.626,14.029,35.865,51.575,40.024,51.575
			C163.428,252.259,193.195,215.854,199.293,200.684z"/>
		<path style="fill:#CCA483;" d="M179.761,217.001c2.361,1.124,5.047,2.085,7.976,2.951c5.205-7.341,9.6-14.4,11.562-19.267l0,0
			c-9.993-12.658-10.117-32.813-11.354-41.845c-0.006-0.034-0.011-0.062-0.011-0.09c-0.022-0.157-0.045-0.309-0.067-0.455
			c-0.006-0.051-0.017-0.096-0.022-0.146c-0.022-0.135-0.039-0.264-0.062-0.388c-0.006-0.045-0.017-0.096-0.022-0.141
			c-0.022-0.141-0.051-0.275-0.073-0.41c-0.006-0.022-0.011-0.051-0.017-0.079c-0.028-0.157-0.062-0.304-0.096-0.45
			c-0.006-0.034-0.017-0.062-0.022-0.096c-0.022-0.107-0.051-0.214-0.079-0.315c-0.011-0.045-0.022-0.09-0.034-0.129
			c-0.022-0.084-0.045-0.169-0.073-0.247c-0.011-0.045-0.028-0.084-0.039-0.129c-0.028-0.079-0.051-0.157-0.079-0.23
			c-0.011-0.034-0.022-0.067-0.034-0.101c-0.039-0.101-0.079-0.202-0.118-0.292h-29.458
			C157.633,155.14,156.953,206.164,179.761,217.001z"/>
		<path style="fill:#CCA281;" d="M123.971,192.736c9.229,7.959,20.054,15.85,35.241,18.132
			c15.237-2.288,26.023-10.342,35.269-18.334c-7.689-14.973-5.311-32.83-7.391-37.4h-55.638
			C129.367,159.71,131.694,177.758,123.971,192.736z"/>
		<g>
			
				<ellipse transform="matrix(-0.177 0.9842 -0.9842 -0.177 380.1026 -81.5687)" style="fill:#DDB58E;" cx="224.155" cy="118.137" rx="21.386" ry="11.629"/>
			
				<ellipse transform="matrix(-0.9842 0.177 -0.177 -0.9842 207.8558 217.7436)" style="fill:#E8C59E;" cx="94.216" cy="118.143" rx="11.629" ry="21.386"/>
			<path style="fill:#E8C59E;" d="M219.645,46.943l-59.91,9.218c0,0-21.229,0.922-38.552,9.729
				c-15.901,8.088-28.002,23.91-28.159,28.378c-1.551,44.156,7.464,104.645,66.172,113.48
				C253.526,193.557,219.645,46.943,219.645,46.943z"/>
			<path style="fill:#DDB58E;" d="M159.195,207.749c94.331-14.192,60.45-160.806,60.45-160.806h-14.141
				c3.873,61.242,9.229,93.774-13.006,129.24C174.883,204.287,159.195,207.749,159.195,207.749z"/>
			<path style="fill:#DDB58E;" d="M217.403,40.412c0,0-32.701,15.721-81.51,14.883c-43.031-0.736-42.464,36.146-42.84,38.636
				c0,0,10.033-18.593,38.012-23.685c25.422-4.626,45.662,3.114,63.839,4.822c20.223,1.9,26.968-13.445,26.968-13.445
				L217.403,40.412z"/>
			<path style="fill:#2F3233;" d="M215.666,34.409c0,0-30.975,18.171-79.773,16.733c-52.154-1.54-43.11,41.654-42.84,42.795
				c0,0,5.379-20.24,33.094-26.76c17.992-4.232,35.286-2.552,53.222,1.006c40.339,8.004,43.897-15.918,43.897-15.918
				S225.288,42.947,215.666,34.409z"/>
		</g>
	</g>
</g>
<g>
</g>
<g>
</g>
<g>
</g>
<g>
</g>
<g>
</g>
<g>
</g>
<g>
</g>
<g>
</g>
<g>
</g>
<g>
</g>
<g>
</g>
<g>
</g>
<g>
</g>
<g>
</g>
<g>
</g>
</svg>
