<svg enable-background="new 0 0 1249.3 864.8" viewBox="0 0 1249.3 864.8" xmlns="http://www.w3.org/2000/svg" xmlns:xlink="http://www.w3.org/1999/xlink"><clipPath id="a"><circle cx="624.9" cy="175.3" r="175.3"/></clipPath><path d="m76.8 392.1c-1.6-.8-3.4-1.4-5.4-1.8-2-.5-4-.7-6.1-.7-6.9 0-11.5 2.4-13.8 7.3s-3.4 14.1-3.4 27.6v52.2h27.6v20.9h-27.6v115h-23.4v-115h-16v-20.9h16.1v-52.7c0-19.7 2.9-33.8 8.7-42.3s15.4-12.7 28.9-12.7c2.8 0 5.5.2 7.9.5s4.6.8 6.6 1.5v21.1z"/><path d="m195.1 475.2-5.5 23c-1.7-1-3.6-1.8-5.5-2.3-2-.5-4.1-.8-6.4-.8-11.5 0-20.1 4.9-25.9 14.7s-8.7 24.5-8.7 44v58.9h-23.2v-136h23.1v23.9c3.3-9.8 8.1-16.9 14.4-21.3 6.3-4.5 14.6-6.7 25-6.7 2.5 0 4.9.2 7.2.7 2.2.5 4.1 1.1 5.5 1.9z"/><path d="m363.1 544.2c0 20.2-7.1 37.4-21.2 51.5-14.1 14.2-31.3 21.3-51.6 21.3-20.1 0-37.1-7.1-51.1-21.2s-21-31.3-21-51.6 6.9-37.3 20.8-51c13.8-13.7 30.9-20.6 51.3-20.6 20.6 0 37.8 6.9 51.8 20.7s21 30.8 21 50.9zm-23.2 0c0-14.3-4.7-26.1-14.2-35.5-9.5-9.3-21.2-14-35.1-14-14 0-25.7 4.7-35.1 14s-14.1 21.2-14.1 35.5c0 14.4 4.8 26.4 14.3 36.1s21.2 14.5 34.9 14.5c14 0 25.8-4.8 35.2-14.5 9.4-9.6 14.1-21.6 14.1-36.1z"/><path d="m526.5 612.6h-23.3v-81.2c0-13.2-2.3-22.8-7-29s-12.2-9.2-22.4-9.2c-11.7 0-20.5 4.6-26.7 13.8-6.1 9.2-9.2 22.7-9.2 40.4v65.3h-23.2v-136h23.3v20c4.1-8.1 9.8-14.1 17.1-18.1s16.2-6 26.7-6c13.9 0 24.9 4.6 32.8 13.8 8 9.2 11.9 22.1 11.9 38.7z"/><path d="m634.2 497.6h-21.6v115h-23.2v-115h-16.3v-20.9h16.3v-55h23.2v55h21.6z"/><g fill="#fe0000"><path d="m763.5 575.9c0 12.5-4.5 22.5-13.6 29.9s-21.5 11.2-37.2 11.2c-11.8 0-21.9-2.4-30.1-7.2s-14.2-11.7-18-20.8l19.8-12.5c2.7 6.5 6.6 11.4 11.5 14.6s11 4.8 18.2 4.8c8 0 14.3-1.7 19-5s7.1-7.9 7.1-13.6c0-6.3-2.2-11.2-6.5-14.5s-12.7-7.2-25.2-11.7c-12.2-4.5-21.4-10.2-27.5-16.9s-9.2-14.7-9.2-23.9c0-11.8 3.9-21 11.7-27.7s18.7-10.1 32.8-10.1c10.2 0 18.8 2.1 25.6 6.3s12.3 10.6 16.3 19.3l-19.2 11.7c-2.5-5.7-5.6-9.9-9.4-12.6s-8.5-4.1-14.2-4.1c-6.5 0-11.7 1.5-15.4 4.5s-5.5 7-5.5 12.2 1.9 9.6 5.8 13.1c3.8 3.5 10.8 6.9 21 10.2 15 4.8 25.8 10.6 32.3 17.3 6.6 6.7 9.9 15.2 9.9 25.5z"/><path d="m936.5 548.2h-109.2c.9 14.7 5.2 26.1 13 34.2s18.3 12.2 31.3 12.2c10 0 18.4-2 25.4-5.9s12.5-9.8 16.6-17.7l19.5 10.2c-6.3 11.8-14.6 20.8-24.9 26.8-10.4 6-22.6 9-36.7 9-20.5 0-36.8-6.7-49-20-12.2-13.4-18.3-31-18.3-53 0-20.5 6.4-37.5 19.3-51 12.9-13.6 28.8-20.3 47.6-20.3 19.3 0 35.1 6.2 47.2 18.6s18.2 28.7 18.2 48.9zm-23.2-16.5c-1.2-11.7-5.6-20.7-13.1-27.2s-17.2-9.7-29.1-9.7c-11.5 0-21.2 3.3-29.1 10-8 6.7-12.7 15.7-14.1 26.9z"/><path d="m1114.7 612.6h-23.3v-22.5c-4.6 8.7-11.2 15.4-19.5 20-8.4 4.6-18.3 6.9-29.6 6.9-19 0-34.5-6.9-46.8-20.6-12.2-13.7-18.3-31.3-18.3-52.7 0-20.9 6.1-38 18.4-51.2s28-19.8 47.3-19.8c10.9 0 20.5 2.1 28.9 6.4 8.3 4.3 14.9 10.4 19.8 18.3v-20.6h23.3v135.8zm-23.3-69.5c0-14.9-4.1-26.7-12.3-35.3-8.2-8.7-19.1-13-32.8-13-13.6 0-24.6 4.5-33.1 13.5s-12.7 20.9-12.7 35.7c0 15 4.2 27.2 12.5 36.5 8.3 9.4 19 14.1 32.1 14.1 13.3 0 24.3-4.8 33.1-14.4 8.8-9.7 13.2-22 13.2-37.1z"/><path d="m1224.5 497.6h-21.6v115h-23.2v-115h-16.3v-20.9h16.3v-55h23.2v55h21.6z"/></g><path d="m1132.7 357.5h-16.4v-6.5h40.6v6.5h-16.4v45h-7.7v-45z"/><path d="m1213.9 381c0-9.4.1-19.2.3-24.6h-.3c-2.2 8.8-10 29.9-15.7 46.1h-6.8c-4.3-13.3-12.3-37.1-14.6-46.2h-.2c.4 6 .6 17.2.6 26.1v20.1h-7.1v-51.5h11.4c5.5 15.5 12.1 35.4 13.9 42.2h.1c1.2-5.3 9.1-27.1 14.9-42.2h11v51.5h-7.4v-21.5z"/><path d="m8.7 666.7h1212.7" fill="none" stroke="#000" stroke-miterlimit="10" stroke-width="3"/><path d="m924.7 827.6c0 12.6-2.9 22-8.7 28.1s-14.7 9.1-26.8 9.1c-9.5 0-17.1-2-22.8-6.1s-9-9.9-10.1-17.3h12.6c.8 4 2.9 6.9 6.4 8.9s8.2 3 14.1 3c8.2 0 14.2-2 17.8-5.9s5.4-10.1 5.4-18.7v-16.6c-2.4 4.5-5.8 8-10.2 10.4s-9.5 3.6-15.4 3.6c-9.9 0-18-3.6-24.4-10.7s-9.6-16.3-9.6-27.5c0-10.9 3.2-19.8 9.6-26.7s14.6-10.3 24.6-10.3c5.7 0 10.7 1.1 15 3.3s7.8 5.4 10.3 9.6v-10.8h12.2zm-12.2-40c0-7.8-2.1-13.9-6.4-18.4s-10-6.8-17.1-6.8-12.8 2.3-17.2 7-6.6 10.9-6.6 18.6c0 7.8 2.2 14.2 6.5 19 4.3 4.9 9.9 7.3 16.7 7.3 6.9 0 12.7-2.5 17.2-7.5 4.7-4.9 6.9-11.3 6.9-19.2z"/><path d="m986.6 752.2-2.9 12c-.9-.5-1.9-1-2.9-1.2-1-.3-2.1-.4-3.3-.4-6 0-10.5 2.6-13.5 7.7s-4.6 12.8-4.6 22.9v30.7h-12.1v-70.9h12.1v12.4c1.7-5.1 4.2-8.8 7.5-11.1s7.6-3.5 13-3.5c1.3 0 2.5.1 3.7.4 1.3.3 2.3.6 3 1z"/><path d="m1062.8 788.2c0 10.5-3.7 19.5-11 26.9-7.4 7.4-16.3 11.1-26.9 11.1-10.5 0-19.4-3.7-26.6-11-7.3-7.4-10.9-16.3-10.9-26.9s3.6-19.4 10.8-26.6 16.1-10.7 26.7-10.7c10.7 0 19.7 3.6 27 10.8 7.3 7.1 10.9 15.9 10.9 26.4zm-12.1 0c0-7.5-2.5-13.6-7.4-18.5s-11-7.3-18.3-7.3-13.4 2.4-18.3 7.3-7.3 11-7.3 18.5 2.5 13.8 7.4 18.8c5 5 11 7.6 18.2 7.6 7.3 0 13.4-2.5 18.3-7.6 5-5 7.4-11.3 7.4-18.8z"/><path d="m1134.2 793.3c0 11.3-2.3 19.6-6.9 24.9s-11.7 7.9-21.4 7.9-16.9-2.6-21.4-7.9-6.8-13.6-6.8-24.9v-40.3h12.2v39.9c0 7.6 1.2 13 3.7 16.4 2.4 3.4 6.6 5.1 12.4 5.1s9.9-1.7 12.3-5c2.4-3.4 3.6-8.9 3.6-16.5v-39.9h12.3z"/><path d="m1226.5 787.9c0 11.2-3.2 20.3-9.6 27.5s-14.5 10.7-24.5 10.7c-5.9 0-11-1.2-15.4-3.6s-7.8-5.9-10.2-10.4v51.1h-12.2v-110.2h12.2v10.7c2.6-4.1 6-7.3 10.4-9.6 4.3-2.2 9.3-3.3 15-3.3 10.1 0 18.3 3.4 24.7 10.3 6.4 7 9.6 15.9 9.6 26.8zm-12.3.2c0-7.7-2.2-13.9-6.6-18.6s-10.1-7-17.2-7c-7.2 0-12.9 2.3-17.2 6.8s-6.4 10.7-6.4 18.4c0 7.9 2.3 14.3 6.9 19.3s10.3 7.5 17.3 7.5c6.8 0 12.3-2.4 16.7-7.3s6.5-11.3 6.5-19.1z"/><circle clip-path="url(#a)" cx="624.9" cy="175.3" fill="#fe0000" r="175.3"/><path d="m799.2 175.3h-309.3" style="fill:none;stroke:#fff;stroke-width:16;stroke-linecap:round;stroke-linejoin:round;stroke-miterlimit:10;clip-path:url(#a)"/><path d="m801.9 163.7s-231.8-8.2-235.4-128.2" style="fill:none;stroke:#fff;stroke-width:16;stroke-linecap:round;stroke-linejoin:round;stroke-miterlimit:10;clip-path:url(#a)"/><path d="m801.9 187s-231.8 8.2-235.4 128.2" style="fill:none;stroke:#fff;stroke-width:16;stroke-linecap:round;stroke-linejoin:round;stroke-miterlimit:10;clip-path:url(#a)"/></svg>