<?xml version="1.0" encoding="UTF-8" standalone="no"?> <svg width="64" height="64" viewBox="0 0 64 64" fill="none" xmlns="http://www.w3.org/2000/svg">
<path d="M56 2.5H8C4.96243 2.5 2.5 4.96243 2.5 8V56C2.5 59.0376 4.96243 61.5 8 61.5H56C59.0376 61.5 61.5 59.0376 61.5 56V8C61.5 4.96243 59.0376 2.5 56 2.5Z" fill="#97CCEF"/>
<path d="M61.3901 49.8999C61.3146 49.7158 61.2023 49.549 61.0601 49.4099L46.0001 34.3199C45.719 34.0385 45.3377 33.8802 44.9401 33.8799C44.5424 33.8802 44.1611 34.0385 43.8801 34.3199L34.5401 43.6699C34.4977 43.7227 34.4609 43.7796 34.4301 43.8399C34.2064 44.122 34.0941 44.4764 34.1144 44.8358C34.1347 45.1952 34.2861 45.5347 34.5401 45.7899L49.8001 61.0599C49.9392 61.2021 50.1059 61.3144 50.2901 61.3899V61.3899C50.4646 61.4617 50.6513 61.4991 50.8401 61.4999H56.0001C57.4579 61.4972 58.8553 60.9169 59.8862 59.886C60.9171 58.8552 61.4974 57.4578 61.5001 55.9999V50.4499C61.4993 50.2612 61.4619 50.0744 61.3901 49.8999V49.8999Z" fill="#3D8C2A"/>
<path d="M52.25 59.45C52.1745 59.2658 52.0622 59.0991 51.92 58.9599V58.9599L20.92 27.9599C20.7814 27.8197 20.6164 27.7083 20.4344 27.6323C20.2524 27.5562 20.0572 27.5171 19.86 27.5171C19.6628 27.5171 19.4676 27.5562 19.2856 27.6323C19.1036 27.7083 18.9386 27.8197 18.8 27.9599L2.94 43.7799C2.79776 43.9191 2.68546 44.0858 2.61 44.27C2.53813 44.4445 2.50078 44.6312 2.5 44.82V44.82V56C2.50264 57.4578 3.08295 58.8552 4.11383 59.8861C5.14471 60.917 6.54212 61.4973 8 61.5H50.86C51.0487 61.4992 51.2355 61.4618 51.41 61.3899V61.3899C51.7797 61.2339 52.074 60.9397 52.23 60.57V60.57C52.3026 60.3957 52.34 60.2087 52.34 60.02C52.34 59.8312 52.3026 59.6442 52.23 59.47L52.25 59.45Z" fill="#71B263"/>
<path d="M33.1501 24.7598C34.578 24.7598 35.9739 24.3364 37.1613 23.543C38.3486 22.7497 39.274 21.6221 39.8205 20.3028C40.3669 18.9835 40.5099 17.5318 40.2313 16.1313C39.9527 14.7307 39.2651 13.4443 38.2554 12.4345C37.2456 11.4248 35.9591 10.7371 34.5586 10.4586C33.1581 10.18 31.7064 10.323 30.3871 10.8694C29.0678 11.4159 27.9402 12.3413 27.1468 13.5286C26.3535 14.7159 25.9301 16.1118 25.9301 17.5398C25.9327 19.4539 26.6942 21.2888 28.0477 22.6422C29.4011 23.9957 31.236 24.7572 33.1501 24.7598V24.7598Z" fill="#F8B64C"/>
</svg>
