<svg xmlns="http://www.w3.org/2000/svg" width="20.007" height="20.04" viewBox="0 0 20.007 20.04">
  <path id="book-open-cover" d="M20.007,2.5V17.182L10,20.04,0,17.182V3.334a2.479,2.479,0,0,1,1-2A2.5,2.5,0,0,1,1.667.989V15.924L10,18.306l8.336-2.382V.156A2.492,2.492,0,0,1,19.011.5,2.479,2.479,0,0,1,20.007,2.5Zm-9.17.309V14.7L10,14.938,9.17,14.7V2.81A2.527,2.527,0,0,0,7.293.39L5.9.057A2.084,2.084,0,0,0,3.334,2.085V14.767L10,16.672l6.669-1.906V2.113A2.084,2.084,0,0,0,14.141.077L12.65.405a2.512,2.512,0,0,0-1.814,2.4Z" transform="translate(0 0)" fill="#3843d0"/>
</svg>
