<svg width="32" height="51" viewBox="0 0 32 51" fill="none" xmlns="http://www.w3.org/2000/svg">
<path d="M3 5C3 4.44772 3.44772 4 4 4H30C31.1046 4 32 4.89543 32 6V40C32 41.1046 31.1046 42 30 42H5C3.89543 42 3 41.1046 3 40V5Z" fill="#FF7D7D"/>
<circle cx="7" cy="4" r="4" fill="#DF4545"/>
<path d="M7 0H28C30.2091 0 32 1.79086 32 4V8H7V0Z" fill="#DF4545"/>
<path d="M24.5 8.00005C24.9169 8.00004 25.4033 7.98892 25.9244 8.00005H32V14.0001C32 8.66727 28.5285 8.0557 25.9244 8.00005H24.5Z" fill="#DF4545"/>
<path d="M8 18V8H12V18L10 15.2222L8 18Z" fill="#FF7D7D"/>
<path fill-rule="evenodd" clip-rule="evenodd" d="M31.9691 5C31.9691 2.79086 30.1782 1 27.9691 1H6.96905C4.92924 1 3.24605 2.52684 3 4.5C3.24605 6.47316 4.92924 8 6.96905 8H24.519L24.4691 8.00005H25.8934C27.1843 8.02764 28.6883 8.19183 29.877 9H31.9691V8.00005H25.8934L25.891 8H31.9691V5ZM31.9691 9.00005H29.8771C31.0863 9.82222 31.9691 11.3108 31.9691 14.0001V9.00005Z" fill="#FFD7D7"/>
<path d="M11.0028 21.1818V27H9.77273V22.3494H9.73864L8.40625 23.1847V22.0938L9.84659 21.1818H11.0028ZM12.3857 27V26.1136L14.4567 24.196C14.6328 24.0256 14.7805 23.8722 14.8999 23.7358C15.0211 23.5994 15.1129 23.4659 15.1754 23.3352C15.2379 23.2027 15.2692 23.0597 15.2692 22.9062C15.2692 22.7358 15.2304 22.589 15.1527 22.4659C15.075 22.3409 14.969 22.2453 14.8345 22.179C14.7 22.1108 14.5476 22.0767 14.3771 22.0767C14.1991 22.0767 14.0438 22.1127 13.9112 22.1847C13.7786 22.2566 13.6764 22.3598 13.6044 22.4943C13.5324 22.6288 13.4964 22.7888 13.4964 22.9744H12.3288C12.3288 22.5937 12.415 22.2633 12.5874 21.983C12.7597 21.7027 13.0012 21.4858 13.3118 21.3324C13.6224 21.179 13.9804 21.1023 14.3857 21.1023C14.8023 21.1023 15.165 21.1761 15.4737 21.3239C15.7843 21.4697 16.0258 21.6723 16.1982 21.9318C16.3705 22.1913 16.4567 22.4886 16.4567 22.8239C16.4567 23.0436 16.4131 23.2604 16.326 23.4744C16.2408 23.6884 16.0883 23.9261 15.8686 24.1875C15.6489 24.447 15.3393 24.7585 14.9396 25.1222L14.0902 25.9545V25.9943H16.5334V27H12.3857ZM19.7571 22.6364V23.5455H17.1293V22.6364H19.7571ZM17.7259 21.5909H18.9361V25.6591C18.9361 25.7708 18.9531 25.858 18.9872 25.9205C19.0213 25.9811 19.0687 26.0237 19.1293 26.0483C19.1918 26.0729 19.2637 26.0852 19.3452 26.0852C19.402 26.0852 19.4588 26.0805 19.5156 26.071C19.5724 26.0597 19.616 26.0511 19.6463 26.0455L19.8366 26.946C19.776 26.965 19.6908 26.9867 19.581 27.0114C19.4711 27.0379 19.3376 27.054 19.1804 27.0597C18.8887 27.071 18.633 27.0322 18.4134 26.9432C18.1955 26.8542 18.026 26.7159 17.9048 26.5284C17.7836 26.3409 17.724 26.1042 17.7259 25.8182V21.5909ZM21.8494 24.4773V27H20.6392V21.1818H21.8153V23.4062H21.8665C21.965 23.1487 22.1241 22.947 22.3438 22.8011C22.5634 22.6534 22.839 22.5795 23.1705 22.5795C23.4735 22.5795 23.7377 22.6458 23.9631 22.7784C24.1903 22.9091 24.3665 23.0975 24.4915 23.3438C24.6184 23.5881 24.6809 23.8807 24.679 24.2216V27H23.4688V24.4375C23.4706 24.1686 23.4025 23.9593 23.2642 23.8097C23.1278 23.66 22.9366 23.5852 22.6903 23.5852C22.5256 23.5852 22.3797 23.6203 22.2528 23.6903C22.1278 23.7604 22.0294 23.8627 21.9574 23.9972C21.8873 24.1297 21.8513 24.2898 21.8494 24.4773Z" fill="white"/>
<path d="M0 14C0 13.4477 0.447715 13 1 13H27C28.1046 13 29 13.8954 29 15V49C29 50.1046 28.1046 51 27 51H2C0.89543 51 0 50.1046 0 49V14Z" fill="#9FCAFF"/>
<circle cx="4" cy="13" r="4" fill="#5896E2"/>
<path d="M4 9H25C27.2091 9 29 10.7909 29 13V17H4V9Z" fill="#5896E2"/>
<path d="M21.5 17.0001C21.9169 17 22.4033 16.9889 22.9244 17.0001H29V23.0001C29 17.6673 25.5285 17.0557 22.9244 17.0001H21.5Z" fill="#5896E2"/>
<path d="M5 27V17H9V27L7 24.2222L5 27Z" fill="#FF7D7D"/>
<path fill-rule="evenodd" clip-rule="evenodd" d="M28.9691 14C28.9691 11.7909 27.1782 10 24.9691 10H3.96905C1.92924 10 0.246049 11.5268 0 13.5C0.246049 15.4732 1.92924 17 3.96905 17H21.519L21.4691 17.0001H22.8934C24.1843 17.0276 25.6883 17.1918 26.877 18H28.9691V17.0001H22.8934L22.891 17H28.9691V14ZM28.9691 18.0001H26.8771C28.0863 18.8222 28.9691 20.3108 28.9691 23.0001V18.0001Z" fill="#D3E7FF"/>
<path d="M8.00284 30.1818V36H6.77273V31.3494H6.73864L5.40625 32.1847V31.0938L6.84659 30.1818H8.00284ZM9.38565 36V35.1136L11.4567 33.196C11.6328 33.0256 11.7805 32.8722 11.8999 32.7358C12.0211 32.5994 12.1129 32.4659 12.1754 32.3352C12.2379 32.2027 12.2692 32.0597 12.2692 31.9062C12.2692 31.7358 12.2304 31.589 12.1527 31.4659C12.075 31.3409 11.969 31.2453 11.8345 31.179C11.7 31.1108 11.5476 31.0767 11.3771 31.0767C11.1991 31.0767 11.0438 31.1127 10.9112 31.1847C10.7786 31.2566 10.6764 31.3598 10.6044 31.4943C10.5324 31.6288 10.4964 31.7888 10.4964 31.9744H9.32884C9.32884 31.5937 9.41501 31.2633 9.58736 30.983C9.75971 30.7027 10.0012 30.4858 10.3118 30.3324C10.6224 30.179 10.9804 30.1023 11.3857 30.1023C11.8023 30.1023 12.165 30.1761 12.4737 30.3239C12.7843 30.4697 13.0258 30.6723 13.1982 30.9318C13.3705 31.1913 13.4567 31.4886 13.4567 31.8239C13.4567 32.0436 13.4131 32.2604 13.326 32.4744C13.2408 32.6884 13.0883 32.9261 12.8686 33.1875C12.6489 33.447 12.3393 33.7585 11.9396 34.1222L11.0902 34.9545V34.9943H13.5334V36H9.38565ZM16.7571 31.6364V32.5455H14.1293V31.6364H16.7571ZM14.7259 30.5909H15.9361V34.6591C15.9361 34.7708 15.9531 34.858 15.9872 34.9205C16.0213 34.9811 16.0687 35.0237 16.1293 35.0483C16.1918 35.0729 16.2637 35.0852 16.3452 35.0852C16.402 35.0852 16.4588 35.0805 16.5156 35.071C16.5724 35.0597 16.616 35.0511 16.6463 35.0455L16.8366 35.946C16.776 35.965 16.6908 35.9867 16.581 36.0114C16.4711 36.0379 16.3376 36.054 16.1804 36.0597C15.8887 36.071 15.633 36.0322 15.4134 35.9432C15.1955 35.8542 15.026 35.7159 14.9048 35.5284C14.7836 35.3409 14.724 35.1042 14.7259 34.8182V30.5909ZM18.8494 33.4773V36H17.6392V30.1818H18.8153V32.4062H18.8665C18.965 32.1487 19.1241 31.947 19.3438 31.8011C19.5634 31.6534 19.839 31.5795 20.1705 31.5795C20.4735 31.5795 20.7377 31.6458 20.9631 31.7784C21.1903 31.9091 21.3665 32.0975 21.4915 32.3438C21.6184 32.5881 21.6809 32.8807 21.679 33.2216V36H20.4688V33.4375C20.4706 33.1686 20.4025 32.9593 20.2642 32.8097C20.1278 32.66 19.9366 32.5852 19.6903 32.5852C19.5256 32.5852 19.3797 32.6203 19.2528 32.6903C19.1278 32.7604 19.0294 32.8627 18.9574 32.9972C18.8873 33.1297 18.8513 33.2898 18.8494 33.4773Z" fill="white"/>
</svg>
