<svg width="35" height="30" viewBox="0 0 35 30" fill="none" xmlns="http://www.w3.org/2000/svg">
<circle cx="4.85285" cy="10.147" r="2.20588" fill="#AFCDFB"/>
<path fill-rule="evenodd" clip-rule="evenodd" d="M9.68608 17.6468H0.0197754C0.242688 15.1734 2.32145 13.2351 4.85293 13.2351C7.38441 13.2351 9.46317 15.1734 9.68608 17.6468Z" fill="#AFCDFB"/>
<circle cx="17.2059" cy="5.73518" r="2.20588" fill="#AFCDFB"/>
<path fill-rule="evenodd" clip-rule="evenodd" d="M12.3728 13.2352H22.0391C21.8162 10.7618 19.7374 8.82349 17.206 8.82349C14.6745 8.82349 12.5957 10.7618 12.3728 13.2352Z" fill="#AFCDFB"/>
<circle cx="29.5589" cy="2.20588" r="2.20588" fill="#AFCDFB"/>
<path fill-rule="evenodd" clip-rule="evenodd" d="M34.3919 9.70592H24.7256C24.9485 7.23248 27.0273 5.29419 29.5587 5.29419C32.0902 5.29419 34.169 7.23248 34.3919 9.70592Z" fill="#AFCDFB"/>
<path d="M0 21.4116C0 20.3071 0.89543 19.4116 2 19.4116H7.70588C8.81045 19.4116 9.70588 20.3071 9.70588 21.4116V29.9999H0V21.4116Z" fill="#73CFAE"/>
<path d="M12.353 17C12.353 15.8954 13.2485 15 14.353 15H20.0589C21.1635 15 22.0589 15.8954 22.0589 17V30H12.353V17Z" fill="#73CFAE"/>
<path d="M24.7058 13.4707C24.7058 12.3661 25.6012 11.4707 26.7058 11.4707H32.4117C33.5163 11.4707 34.4117 12.3661 34.4117 13.4707V30.0001H24.7058V13.4707Z" fill="#73CFAE"/>
</svg>
