<svg width="19" height="20" viewBox="0 0 19 20" fill="none" xmlns="http://www.w3.org/2000/svg">
<path d="M6.635 18.773V15.716C6.63539 15.5295 6.67252 15.345 6.74426 15.1729C6.816 15.0009 6.92094 14.8446 7.05309 14.7131C7.18524 14.5816 7.34201 14.4774 7.51444 14.4066C7.68686 14.3357 7.87157 14.2995 8.058 14.3H10.932C11.3091 14.2997 11.6711 14.4485 11.939 14.714C12.0711 14.8449 12.176 15.0006 12.2475 15.1723C12.3191 15.3439 12.356 15.528 12.356 15.714V18.772C12.3549 18.9329 12.3858 19.0924 12.4469 19.2413C12.508 19.3901 12.5981 19.5253 12.712 19.639C12.9428 19.8695 13.2558 19.999 13.582 19.999H15.543C16.4575 20.0015 17.3358 19.642 17.986 18.999C18.3066 18.6824 18.5612 18.3055 18.7353 17.8899C18.9093 17.4744 18.9993 17.0285 19 16.578V7.86698C18.9988 7.50361 18.9175 7.14497 18.762 6.81658C18.6064 6.48818 18.3804 6.19811 18.1 5.96698L11.434 0.675979C10.8702 0.226833 10.1675 -0.0117855 9.44673 0.00117268C8.726 0.0141309 8.03231 0.277855 7.485 0.746978L0.967 5.96498C0.674367 6.18956 0.435656 6.47673 0.268341 6.80547C0.101026 7.13422 0.00934203 7.49622 0 7.86498V16.565C0.00117981 17.0175 0.0915299 17.4654 0.265886 17.883C0.440242 18.3005 0.695186 18.6797 1.01615 18.9987C1.3371 19.3177 1.71779 19.5703 2.13643 19.7421C2.55508 19.9139 3.00347 20.0016 3.456 20H5.372C5.69711 20.0013 6.00954 19.874 6.24111 19.6458C6.47268 19.4176 6.60457 19.1071 6.608 18.782L6.635 18.773Z" fill="#4E88FF"/>
</svg>
