<svg width="19" height="21" viewBox="0 0 19 21" fill="none" xmlns="http://www.w3.org/2000/svg">
<path fill-rule="evenodd" clip-rule="evenodd" d="M14.411 0.768975V1.51897C15.0417 1.53345 15.6629 1.67489 16.2376 1.93483C16.8124 2.19477 17.3288 2.56788 17.7561 3.03187C18.1835 3.49587 18.5129 4.04124 18.7247 4.63539C18.9365 5.22954 19.0264 5.8603 18.989 6.48997L19 14.916C19 18.055 17.032 19.985 13.872 19.99L6.15205 20C5.46495 20.0538 4.77434 19.9584 4.12755 19.7203C3.48076 19.4823 2.89309 19.1072 2.4048 18.6208C1.91651 18.1344 1.53915 17.5482 1.29859 16.9024C1.05802 16.2565 0.959934 15.5663 1.01105 14.879L1.00005 6.55298C0.954772 5.92482 1.0365 5.29399 1.24035 4.69811C1.44419 4.10223 1.76599 3.55353 2.18653 3.08473C2.60708 2.61594 3.11775 2.23666 3.68807 1.96954C4.2584 1.70242 4.87669 1.55292 5.50605 1.52997V0.779975C5.50605 0.57841 5.58612 0.385101 5.72865 0.242573C5.87118 0.100046 6.06449 0.0199747 6.26605 0.0199747C6.46761 0.0199747 6.66092 0.100046 6.80345 0.242573C6.94598 0.385101 7.02605 0.57841 7.02605 0.779975V1.47997L12.891 1.47197V0.771975C12.891 0.570278 12.9712 0.376841 13.1138 0.23422C13.2564 0.0915986 13.4499 0.0114746 13.6515 0.0114746C13.8532 0.0114746 14.0467 0.0915986 14.1893 0.23422C14.3319 0.376841 14.4121 0.570278 14.4121 0.771975L14.411 0.768975ZM2.52105 6.86198L17.469 6.84197V6.49197C17.427 4.34297 16.348 3.21597 14.413 3.04797V3.81797C14.413 4.01967 14.3329 4.21311 14.1903 4.35573C14.0477 4.49835 13.8542 4.57847 13.6525 4.57847C13.4509 4.57847 13.2574 4.49835 13.1148 4.35573C12.9722 4.21311 12.892 4.01967 12.892 3.81797V3.00997L7.02705 3.01797V3.82697C7.02705 3.92678 7.00739 4.02561 6.9692 4.11781C6.931 4.21002 6.87502 4.2938 6.80445 4.36438C6.73388 4.43495 6.6501 4.49093 6.55789 4.52912C6.46568 4.56732 6.36685 4.58697 6.26705 4.58697C6.16725 4.58697 6.06842 4.56732 5.97621 4.52912C5.884 4.49093 5.80022 4.43495 5.72965 4.36438C5.65908 4.2938 5.6031 4.21002 5.5649 4.11781C5.52671 4.02561 5.50705 3.92678 5.50705 3.82697V3.05697C3.58305 3.25097 2.51805 4.38297 2.52005 6.55097L2.52105 6.86198ZM13.24 11.4V11.411C13.2417 11.519 13.2649 11.6255 13.3082 11.7244C13.3515 11.8234 13.4141 11.9127 13.4923 11.9872C13.5705 12.0616 13.6627 12.1198 13.7636 12.1582C13.8646 12.1966 13.9721 12.2146 14.08 12.211C14.2432 12.208 14.4018 12.1567 14.5357 12.0636C14.6697 11.9705 14.7731 11.8397 14.8328 11.6879C14.8924 11.536 14.9057 11.3699 14.871 11.2104C14.8363 11.051 14.755 10.9055 14.6376 10.7922C14.5201 10.679 14.3717 10.6031 14.2112 10.5742C14.0506 10.5453 13.885 10.5646 13.7355 10.6298C13.5859 10.6949 13.459 10.803 13.3708 10.9402C13.2826 11.0775 13.2371 11.2378 13.24 11.401V11.4ZM14.056 15.888C13.8359 15.881 13.627 15.7885 13.4738 15.6303C13.3206 15.472 13.2349 15.2603 13.235 15.04C13.2299 14.8199 13.3122 14.6067 13.4638 14.4471C13.6154 14.2874 13.824 14.1943 14.0441 14.188H14.0541C14.2795 14.188 14.4957 14.2775 14.6551 14.4369C14.8145 14.5963 14.904 14.8125 14.904 15.038C14.904 15.2634 14.8145 15.4796 14.6551 15.639C14.4957 15.7984 14.2795 15.888 14.0541 15.888H14.056ZM9.17205 11.42C9.18105 11.5792 9.23654 11.7322 9.33165 11.8601C9.42676 11.9881 9.55731 12.0854 9.70714 12.1399C9.85696 12.1944 10.0195 12.2037 10.1746 12.1668C10.3297 12.1298 10.4705 12.0482 10.5797 11.932C10.6889 11.8158 10.7616 11.6702 10.7888 11.5131C10.816 11.356 10.7965 11.1944 10.7328 11.0482C10.6691 10.9021 10.5639 10.7778 10.4303 10.6909C10.2967 10.6039 10.1405 10.5581 9.98105 10.559C9.76114 10.5703 9.55414 10.6663 9.40336 10.8267C9.25257 10.9872 9.16969 11.1998 9.17205 11.42ZM10.026 15.847C9.91763 15.8506 9.80957 15.8327 9.70808 15.7944C9.60659 15.7561 9.51368 15.6981 9.43469 15.6237C9.35569 15.5494 9.29218 15.4602 9.24779 15.3612C9.2034 15.2622 9.17902 15.1554 9.17605 15.047C9.17394 14.8269 9.25691 14.6144 9.40764 14.454C9.55837 14.2936 9.76523 14.1976 9.98505 14.186C10.2018 14.1856 10.41 14.2701 10.5653 14.4212C10.7206 14.5724 10.8106 14.7783 10.8161 14.995C10.8216 15.2116 10.7421 15.4218 10.5947 15.5806C10.4472 15.7395 10.2435 15.8343 10.0271 15.845L10.026 15.847ZM5.10005 11.455C5.10905 11.6142 5.16457 11.7673 5.25973 11.8952C5.35488 12.0232 5.48549 12.1205 5.63538 12.1749C5.78526 12.2294 5.94783 12.2387 6.10295 12.2017C6.25806 12.1647 6.39891 12.083 6.50804 11.9667C6.61717 11.8504 6.68979 11.7046 6.71689 11.5475C6.744 11.3903 6.7244 11.2287 6.66053 11.0825C6.59666 10.9364 6.49132 10.8122 6.35757 10.7254C6.22381 10.6386 6.06752 10.5929 5.90805 10.594C5.68823 10.6053 5.48134 10.7013 5.33072 10.8618C5.18009 11.0223 5.09743 11.2349 5.10005 11.455ZM5.95405 15.855C5.8456 15.8587 5.73748 15.8409 5.63593 15.8027C5.53439 15.7644 5.44142 15.7064 5.3624 15.632C5.28338 15.5577 5.21986 15.4684 5.17552 15.3693C5.13118 15.2703 5.10689 15.1635 5.10405 15.055C5.10169 14.8348 5.18458 14.6222 5.33536 14.4617C5.48614 14.3013 5.69314 14.2053 5.91305 14.194C6.12967 14.1939 6.33774 14.2785 6.49283 14.4298C6.64791 14.581 6.73771 14.7869 6.74307 15.0035C6.74842 15.22 6.66889 15.4301 6.52147 15.5888C6.37405 15.7475 6.17041 15.8423 5.95405 15.853V15.855Z" fill="#FFAA4E"/>
</svg>
