<svg fill="none" height="51" viewBox="0 0 42 51" width="42" xmlns="http://www.w3.org/2000/svg"><path d="m9.55469 0 32.21251 7.16601-9.5546 42.95009-32.21259458-7.166z" fill="#002855"/><path d="m5.3894 2.33838 32.9666 1.48363-1.9781 43.95549-32.96668-1.4836z" fill="#cb9400"/><path d="m2.38354 1.05811h20.99996c6.6275 0 12 5.37258 12 11.99999v32h-32.99996z" fill="#eaaa00"/><path clip-rule="evenodd" d="m5.38354 27.5581c0-.2761.22386-.5.5-.5h24.99996c.2762 0 .5.2239.5.5s-.2238.5-.5.5h-24.99996c-.27614 0-.5-.2239-.5-.5z" fill="#002855" fill-rule="evenodd"/><path clip-rule="evenodd" d="m5.38354 33.5581c0-.2761.22386-.5.5-.5h24.99996c.2762 0 .5.2239.5.5s-.2238.5-.5.5h-24.99996c-.27614 0-.5-.2239-.5-.5z" fill="#002855" fill-rule="evenodd"/><path clip-rule="evenodd" d="m5.38354 40.5581c0-.2761.22386-.5.5-.5h24.99996c.2762 0 .5.2239.5.5s-.2238.5-.5.5h-24.99996c-.27614 0-.5-.2239-.5-.5z" fill="#002855" fill-rule="evenodd"/><g fill="#fff"><path d="m28.995 13.6798c-.0248.0589-.0148.1178-.0198.1768-.0645.6974-.2778 1.3458-.6845 1.9204-.496.7024-1.1755 1.1493-2.0188 1.336-.7093.1571-1.4185.1375-2.108-.1081-1.0069-.3585-1.6616-1.0658-2.0287-2.0481-.1785-.4715-.2579-.9676-.2579-1.4686 0-2.1267 0-4.25343 0-6.37523 0-.03438-.005-.06877.005-.09824h1.2697c0 .01965.005.04421.005.06386v3.65421.0639c.0198-.0148.0298-.0197.0397-.0295.3125-.2505.6696-.4224 1.0515-.5452.3621-.1179.7341-.1719 1.1111-.1915.2728-.0099.5456-.0099.8184.0392.8283.1523 1.5079.5551 2.0436 1.2034.4365.5304.6845 1.1395.7589 1.8222.0049.054-.005.113.0198.167-.005.1326-.005.275-.005.4175zm-1.2846-.0049c0-.3488-.0347-.6189-.1091-.8743-.3225-1.0855-1.2252-1.5914-2.242-1.5668-.3919.0098-.7589.1326-1.1061.3094-.4861.2505-.8284.6189-1.002 1.1395-.0992.2996-.1091.6041-.0843.9136.0397.4076.124.8055.3026 1.1787.2281.4765.5704.8399 1.0614 1.0511.4365.1867.8879.2112 1.3492.1228.615-.1228 1.1011-.4371 1.4384-.9627.2828-.4223.3919-.8939.3919-1.3113z"/><path d="m23.157 7c0 .00491 0 .00491-.005.00982-.4216 0-.8432 0-1.2697 0 0-.00491 0-.00491-.005-.00982z"/><path d="m13.6286 14.8635c-.0694-.2063-.1289-.4126-.1636-.6287-.0794-.5059-.0893-1.0069.0545-1.503.1042-.3634.2331-.7171.4365-1.0412.5357-.8448 1.2946-1.3802 2.2717-1.6012.8284-.18665 1.6418-.11298 2.4156.2407.6002.275 1.0615.7121 1.4285 1.2524.1191.1768.2282.3684.3274.5599.0149.0246.0198.0393-.0149.059-.6151.3389-1.2301.6778-1.8452 1.0118-.0049 0-.0099 0-.0099 0-.0297-.0099-.0397-.0344-.0496-.0639-.0049-.0245-.0099-.0491-.0198-.0687-.0794-.1376-.1389-.2849-.2183-.4274-.0694-.1277-.124-.2603-.1934-.388-.0149-.0245-.0397-.0442-.0347-.0786.1736-.0933.3422-.1817.5158-.275.0992-.054.0992-.054.0149-.1326-.2034-.1916-.4166-.3586-.6845-.4568-.3918-.1424-.7986-.1572-1.2053-.0933-.625.0982-1.121.4027-1.4731.9234-.2729.4027-.3919.8546-.4068 1.3359-.0049.1621-.0049.3242.0298.4863.0099.1277.0397.2455.0744.3683.0744.2653.1885.5108.3522.7319.1587.2308.362.4125.6001.5599.3423.2112.7192.3143 1.126.3241.3373.0099.6646-.0196.9821-.1277.4811-.162.8233-.4764 1.0664-.9135.1835-.334.2926-.6876.367-1.056.01-.0442.0248-.054.0695-.0491.372.0491.744.0933 1.121.1375.119.0147.119.0098.1091.1228-.0695.6532-.3026 1.2475-.7143 1.7633-.5753.722-1.3342 1.1345-2.2419 1.2819-.7837.1277-1.5377.0393-2.2618-.2947-.5209-.2407-.9573-.5894-1.3095-1.0413-.0099-.0147-.0248-.0294-.0397-.0442-.1934-.2603-.3571-.5599-.4762-.8742z"/><path d="m8.13284 22c-.08432-.6582-.27776-1.2819-.51089-1.8959-.40672-1.056-.93746-2.0579-1.52275-3.0255-.03472-.054-.06448-.1081-.0992-.1621 0 0 0-.0049.00496-.0196.08432.0638.16864.1227.24801.1817.49601.3634.97714.7367 1.42354 1.1542.17857.167.34721.3389.4861.5403.0496.0687.08432.1473.12896.2259.73905-.7073 1.50787-1.3752 2.32633-2.0137 0 .1031.0049.1964 0 .2848 0 .0492.0148.059.0595.059.4464-.0049.8978-.0049 1.3442-.0049h.0694c0 .0294-.0248.0393-.0397.0491-.5803.501-1.1309 1.0314-1.6418 1.6012-.59022.663-1.13087 1.3654-1.6368 2.0923-.20337.2947-.40673.5894-.60017.889-.00992.0196-.01488.0393-.03969.0442z"/><path d="m10.7815 13.724c0-1.1199 0-2.2397 0-3.3546 0-.0541.0149-.0688.0695-.0688.3869.0049.7688 0 1.1557 0 .0446 0 .0595.0098.0595.0589 0 1.7731 0 3.5462-.005 5.3144v1.4243c0 .0491-.0099.0639-.0595.0639-.3869 0-.7688 0-1.1557.0049-.0496 0-.0645-.0147-.0645-.0589 0-.1327 0-.2653 0-.3979 0-1.0019 0-1.9941 0-2.9862z"/><path d="m11.3668 9.55894c-.6299-.00491-1.1259-.50098-1.116-1.12476.005-.61394.5159-1.10019 1.1458-1.09037.6051.00491 1.1111.52063 1.0962 1.11984-.0099.60904-.5159 1.10511-1.126 1.09529z"/><path d="m13.6286 14.8635c.1191.3143.2778.609.4762.884-.1438.1081-.2877.2211-.4315.3291-.4812.3635-.9573.7318-1.4236 1.1199-.0049.0049-.0148.0098-.0198.0196-.0199-.0098-.0099-.0245-.0099-.0393 0-.442 0-.8841.0049-1.331 0-.0246 0-.0491.0298-.0639.4514-.3094.9077-.6188 1.3739-.9184z"/><path d="m18.0729 13.4686c-.1736.0933-.3423.1915-.5159.2848-.1984.113-.4017.2211-.6051.3291-.0248.0147-.0546.0295-.0794.0442-.0892-.1817-.1835-.3585-.2728-.5403-.0694-.1522-.1488-.2996-.2232-.4469-.0099-.0197-.0198-.0344-.0446-.0344.0198-.0147.0446-.0245.0645-.0393.2232-.1228.4464-.2456.6696-.3684.1686-.0933.3373-.1866.5059-.275.0248.0688.0744.1277.1042.1965.0545.1228.1091.2406.1736.3585.0595.1032.0942.2161.1637.3193.0446.0491.0694.108.0595.1719z"/><path d="m15.2308 15.0796c-.1687-.2211-.2778-.4666-.3522-.7319-.0347-.1178-.0645-.2406-.0744-.3683.2678-.1572.5406-.3095.8085-.4666 0 .0098 0 .0147.0049.0245.0546.0737.0943.1572.134.2407.0496.1081.0992.2112.1537.3143.0397.0688.0695.1474.1042.2211.0347.0835.0843.1571.1141.2406-.2976.1768-.5952.3537-.8928.5256z"/><path d="m16.1236 14.5589c-.0298-.0835-.0794-.162-.1141-.2406-.0347-.0737-.0645-.1523-.1042-.2211-.0595-.1031-.1041-.2111-.1537-.3143-.0397-.0835-.0794-.167-.134-.2407-.0049-.0049-.0049-.0147-.0049-.0245.2381-.1425.4811-.28.7291-.4126.0248 0 .0347.0147.0447.0344.0744.1473.1488.2947.2232.4469.0843.1818.1785.3586.2728.5403-.1935.113-.3869.221-.5853.334-.0595.0344-.1191.0639-.1736.0982z"/><path d="m18.0729 13.4686c.005-.0639-.0198-.1228-.0496-.1719-.0695-.0983-.1042-.2161-.1637-.3193-.0645-.1179-.124-.2357-.1736-.3585-.0298-.0688-.0744-.1277-.1042-.1965.1439-.0786.2877-.1523.4316-.2308-.005.0343.0198.054.0347.0785.0694.1277.124.2653.1934.3881.0744.1424.134.2897.2183.4273.0099.0196.0149.0442.0198.0687.0099.0246.0149.0541.0496.0639-.1537.0835-.3025.167-.4563.2505z"/><path d="m17.7257 19.4509c.119-.1621.3472-.1425.4315 0 .0645-.0884.1439-.1277.253-.113.124.0197.2083.0983.2133.221.0049.1719 0 .3439.0049.5158 0 .0294-.0099.0392-.0347.0392h-.005c-.1636.005-.1636.005-.1636-.1522 0-.1081 0-.2161 0-.3242-.005-.108-.0794-.1621-.1687-.1179-.0496.0246-.0694.0639-.0694.113 0 .1425-.005.2849 0 .4273 0 .0442-.0149.054-.0546.054-.1488 0-.1488 0-.1488-.1522 0-.1179 0-.2309-.0049-.3487-.005-.0934-.0745-.1326-.1637-.1032-.0397.0148-.0596.0442-.0695.0786-.0149.054-.0099.1032-.0099.1572v.3192c0 .0393-.0099.0491-.0496.0442-.0496-.0049-.119.0197-.1488-.0098-.0248-.0295-.0099-.0933-.0099-.1424 0-.1768.0049-.3586 0-.5354 0-.0638.0198-.0835.0793-.0737h.0248c.0844.0099.0844.0099.0943.1032z"/><path d="m22.0559 19.4509c.0992-.1425.3174-.1621.4265 0 .1141-.1425.2381-.1228.3324-.0835.0892.0344.1339.108.1388.2014.005.1719 0 .3389 0 .5108 0 .0343-.0148.0393-.0446.0393-.1587.0049-.1587.0049-.1587-.1523 0-.1081 0-.2161 0-.3242-.005-.108-.0744-.162-.1687-.1228-.0496.0197-.0694.0688-.0694.1179 0 .1375-.005.28 0 .4175 0 .0491-.0099.0639-.0595.0639-.1439-.0049-.1439 0-.1439-.1425 0-.1179 0-.2406-.0049-.3585 0-.0737-.0348-.1032-.1042-.1081-.0645-.0049-.1091.0295-.124.0933-.0149.0492-.005.0983-.005.1474v.3291c0 .0343-.0099.0442-.0446.0442-.1587.0049-.1587.0049-.1587-.1523 0-.1866 0-.3782 0-.5648 0-.0393.0099-.054.0496-.0491h.0496c.0793 0 .0793 0 .0893.0933z"/><path d="m23.6629 20.0305c-.0893.0834-.1785.1178-.2877.1031-.119-.0197-.1835-.0835-.1984-.2014-.0099-.1129.0496-.2161.1588-.2456.0694-.0196.1388-.0245.2083-.0393.0149-.0049.0297-.0049.0446-.0098.0298-.0049.0595-.0196.0595-.054 0-.0393-.0198-.0688-.0595-.0786-.0843-.0245-.1438 0-.1885.0786-.0049.0098-.0099.0196-.0198.0196-.0546 0-.1091 0-.1587 0-.0248 0-.0149-.0196-.0149-.0343.0149-.0983.0595-.1719.1587-.2063.1141-.0344.2282-.0393.3423.0049.0992.0344.1389.0982.1389.2014v.4076c0 .0393 0 .0786.0347.1081.0248.0196.0149.0393-.0199.0393-.0396 0-.0793-.0049-.119 0-.0446 0-.0794-.0148-.0794-.0933zm-.0099-.2751c-.0595.0295-.124.0295-.1786.0442-.0694.0197-.0992.0688-.0793.1277.0149.0491.0645.0737.1289.0589.0893-.0245.1488-.0687.129-.2308z"/><path d="m12.5672 20.0305c-.0794.0834-.1687.1129-.2778.1031-.129-.0147-.1934-.0786-.2034-.1965-.0099-.1228.0496-.221.1637-.2505.0645-.0196.134-.0245.2034-.0343.0149 0 .0298-.005.0397-.005.0347-.0049.0595-.0196.0595-.0589s-.0248-.0638-.0645-.0737c-.0893-.0196-.1389 0-.1835.0786-.0099.0197-.0248.0197-.0397.0197-.0397 0-.0843 0-.124 0-.0347.0049-.0397-.0148-.0347-.0442.0198-.0934.0645-.167.1587-.1965.124-.0393.2431-.0393.3671.0098.0793.0344.124.0933.124.1818v.4076c0 .0442 0 .0835.0347.1179.0248.0245.0099.0393-.0199.0344-.0347 0-.0694-.0049-.1091 0-.0545 0-.0992-.0099-.0942-.0933zm-.0099-.2112c-.01-.0148.0148-.059-.0149-.0541-.0645.0148-.1339.0197-.1935.0491-.0496.0246-.0644.0639-.0545.113s.0496.0688.0992.0639c.0992-.005.1637-.0688.1637-.1719z"/><path d="m25.9446 19.8929c-.0397.1621-.1885.2554-.3621.2456-.2827-.0147-.3671-.2112-.3522-.4519.0149-.1915.1091-.3143.2679-.3389.3025-.0491.4613.1228.4563.4175 0 .0393-.0298.0295-.0496.0295-.1389 0-.2778.0049-.4167 0-.0595 0-.0644.0196-.0496.0638.0199.059.0546.0983.1141.113.0645.0147.124.0049.1637-.0491.0099-.0147.0199-.0246.0447-.0246.0644-.0049.124-.0049.1835-.0049zm-.501-.2357h.3026c-.0149-.1032-.0645-.1523-.1538-.1523s-.1339.0491-.1488.1523z"/><path d="m15.4887 19.8929c-.0248.1179-.1191.2112-.248.2358-.0695.0147-.1389.0098-.2084-.0049-.1636-.0393-.248-.1572-.2628-.3586-.005-.0687.0049-.1326.0248-.1964.0595-.167.1934-.2456.4017-.226.1588.0148.2728.1277.2976.2947.0248.1523.0248.1523-.1339.1523-.1141 0-.2281 0-.3373 0-.0347 0-.0446.0098-.0397.0442.0149.0589.0447.113.1092.1277.0694.0196.1339.0147.1785-.0491.01-.0148.0199-.0246.0397-.0197zm-.2034-.2308c-.0099-.0982-.0595-.1523-.1389-.1523-.0843-.0049-.1389.0393-.1587.1179-.005.0246-.005.0344.0248.0344.0942-.0049.1835 0 .2728 0z"/><path d="m19.5609 19.8929c-.0347.1572-.1835.2603-.3521.2456-.2381-.0196-.3473-.1326-.3572-.3684 0-.0589 0-.1129.0149-.1719.0446-.1719.1786-.2701.3571-.2652.1885.0049.3076.1081.3423.28.0347.1768.0347.1768-.1439.1768-.1091 0-.2182 0-.3273 0-.0397 0-.0447.0147-.0347.0442.0148.0638.0446.113.114.1277.0695.0147.129.0098.1736-.054.01-.0148.0199-.0197.0397-.0197.0546.0049.1141.0049.1736.0049zm-.3521-.2308h.119c.0248 0 .0347-.0049.0298-.0344-.0149-.0638-.0645-.113-.129-.1228-.0794-.0098-.129.0246-.1587.0933-.0149.0393-.0199.0688.0397.059.0297 0 .0644.0049.0992.0049z"/><path d="m20.0024 19.4558c.0942-.1277.2133-.1424.3472-.0982.0992.0343.1488.1178.1488.221.0049.167 0 .3291 0 .4961 0 .0392-.0099.0491-.0496.0442-.0397-.005-.0744-.005-.1141 0-.0397.0049-.0446-.0148-.0446-.0492 0-.1326 0-.2652 0-.4027 0-.113-.0348-.1621-.124-.1621-.0943-.0049-.1588.0639-.1588.167v.388c0 .0442-.0148.059-.0595.054-.0496-.0049-.1141.0197-.1438-.0098-.0298-.0294-.01-.0933-.01-.1424 0-.1867 0-.3733 0-.5599 0-.0442.01-.059.0546-.0491h.0546c.0942.0049.0942.0049.0992.1031z"/><path d="m26.882 19.8733h.0496c.0298 0 .0596-.0049.0596.0393 0 .0147.0148.0294.0297.0393.0447.0343.1637.0393.2133.0098.0198-.0147.0397-.0295.0397-.054 0-.0295-.0199-.0393-.0397-.0492-.0546-.0245-.1141-.0294-.1736-.0442-.0397-.0098-.0794-.0196-.119-.0343-.0794-.0295-.134-.0786-.1389-.167-.005-.0884.0248-.167.0992-.2211.1091-.0785.3472-.0736.4563.005.0546.0393.0794.0933.0942.1571.005.0295-.0049.0344-.0297.0344-.0447 0-.0893 0-.129 0-.0248 0-.0347-.0098-.0446-.0344-.0298-.0687-.1786-.0884-.2282-.0393-.0297.0295-.0198.0639.0199.0835.0496.0246.1041.0295.1587.0393.0496.0098.0992.0246.1488.0442.1587.0688.1835.2751.0446.3782-.1289.0983-.4067.0933-.5307-.0098-.0446-.0344-.0645-.0835-.0794-.1326-.0099-.0393-.0049-.054.0397-.0491.0149.0049.0397.0049.0595.0049z"/><path d="m13.0929 19.8733h.0596c.0297-.0049.0446 0 .0496.0344.0049.0294.0248.0491.0545.0589.0546.0196.1141.0246.1687.0049.0297-.0098.0545-.0245.0545-.0589.005-.0393-.0248-.0541-.0545-.059-.0744-.0196-.1488-.0343-.2183-.054-.0893-.0245-.1686-.0589-.1934-.1621-.0298-.1228.0446-.2456.1736-.2848.1091-.0295.2182-.0246.3224.0098.0893.0344.1389.0982.1538.1915.0049.0246 0 .0295-.0248.0295-.0496 0-.0943 0-.1439 0-.0248 0-.0297-.0098-.0397-.0295-.0297-.0687-.1587-.0933-.2232-.0491-.0396.0295-.0347.0688.0149.0933.0496.0246.1042.0295.1587.0442.0447.0099.0943.0197.1389.0393.0794.0295.1389.0835.1439.1768.0049.0934-.0248.1769-.1141.2211-.1587.0835-.3224.0786-.4812-.0049-.0595-.0295-.0892-.0835-.1041-.1474-.0099-.0393-.005-.0589.0397-.054z"/><path d="m17.2644 19.5884c-.0595 0-.1141 0-.1736 0-.0248 0-.0298-.0147-.0347-.0295-.0298-.0638-.1637-.0933-.2183-.0442-.0347.0295-.0297.0737.0149.0934.0496.0245.1042.0294.1587.0392.0496.0099.0992.0246.1488.0443.1538.0687.1786.2652.0496.3683-.1289.1032-.4166.0983-.5406-.0049-.0199-.0147-.0347-.0344-.0447-.054-.0248-.0344-.0496-.0835-.0297-.1228.0099-.0246.0645-.0049.0992-.0098h.0595c.0298-.0049.0496 0 .0546.0344.0049.0245.0198.0392.0446.054.0595.0294.124.0294.1835.0098.0298-.0098.0546-.0295.0546-.0638 0-.0344-.0248-.0492-.0546-.0541-.0545-.0147-.1091-.0245-.1587-.0393-.0397-.0098-.0744-.0196-.1141-.0343-.0843-.0295-.1438-.0885-.1438-.1818 0-.0982.0347-.1817.124-.221.1389-.0639.2827-.0589.4216.0147.0645.0442.0893.1179.0992.2014z"/><path d="m13.9907 19.8733h.0595c.0248 0 .0447 0 .0496.0344 0 .0294.0248.0442.0496.054.0596.0245.1191.0245.1786.0098.0298-.0098.0546-.0295.0546-.0638 0-.0344-.0248-.0492-.0546-.0541-.0496-.0147-.1041-.0245-.1537-.0393-.0249-.0049-.0497-.0098-.0745-.0147-.1388-.0393-.1984-.113-.1884-.2259.0049-.1179.0942-.2063.2182-.226.0843-.0147.1687-.0098.253.0148.0992.0294.1587.0933.1785.1915.005.0295.005.0442-.0347.0393-.0297-.0049-.0595 0-.0893 0-.0396 0-.0744.0049-.0942-.0491-.0198-.0589-.1786-.0638-.2183-.0196-.0248.0294-.0198.0638.0248.0835.0497.0245.1042.0294.1538.0392.0496.0099.0992.0197.1488.0393.0744.0295.129.0786.1339.1621.01.0983-.0198.1818-.1091.2309-.1587.0835-.3224.0736-.4811-.0099-.0595-.0294-.0893-.0884-.1042-.1473-.0099-.0393 0-.0589.0447-.054.0148.0049.0347.0049.0545.0049z"/><path d="m15.7912 19.8733h.0695c.0198 0 .0347.0049.0347.0295.005.0442.0397.0638.0744.0736.0546.0148.1042.0148.1587-.0049.0298-.0098.0496-.0295.0496-.0589.005-.0344-.0248-.0491-.0496-.0541-.0545-.0147-.1091-.0245-.1587-.0392-.0397-.0099-.0744-.0197-.1141-.0344-.0893-.0295-.1438-.0884-.1488-.1867-.0049-.1031.0496-.1964.1439-.2308.1289-.0491.2579-.0442.3819.0098.0744.0344.1141.0982.129.1719.0049.0246 0 .0393-.0298.0393-.0347-.0049-.0694 0-.0992 0-.0397.0049-.0645 0-.0843-.0491-.0248-.0589-.1786-.0688-.2232-.0197-.0248.0295-.0149.0639.0248.0835.0496.0246.1041.0295.1537.0393.0496.0099.1042.0246.1538.0442.1885.0737.1488.2996.0446.3733-.1339.0983-.4067.0933-.5307-.0098-.0446-.0344-.0694-.0786-.0794-.1326-.0099-.0393-.0049-.059.0447-.054.0099.0098.0347.0098.0545.0098z"/><path d="m20.9101 19.1513c.0992 0 .0992 0 .0992.0982v.0246c0 .0786 0 .0786.0793.0786.0348 0 .0496.0049.0447.0442v.0294c.0099.059-.0099.0884-.0744.0786-.0447-.0098-.0496.0147-.0496.054 0 .113.0049.226 0 .3389-.005.059.0248.0835.0744.0737.0446-.0049.0496.0147.0496.0491 0 .1081 0 .1081-.1091.1081-.0298 0-.0546 0-.0844-.0049-.0992-.0148-.1389-.0541-.1438-.1621 0-.1326 0-.2652 0-.3978 0-.0443-.0099-.0688-.0595-.059-.0348.0049-.0496-.0098-.0447-.0442 0-.0196 0-.0344 0-.054-.0049-.0344.005-.054.0496-.0491.0447.0098.0645-.0099.0546-.0541 0-.0147 0-.0294 0-.0393.0099-.1129.0099-.1129.1141-.1129z"/><path d="m24.154 19.7554c0-.0688 0-.1424 0-.2112 0-.0344-.0099-.0491-.0447-.0442-.0545.0098-.0644-.0147-.0644-.0638 0-.059.0049-.0934.0744-.0835.0248.0049.0297-.0099.0297-.0295 0-.0442 0-.0884 0-.1375 0-.0295.0099-.0393.0397-.0344.0546 0 .119-.0197.1587.0098s.0149.0982.0149.1473c0 .0492.0248.0492.0595.0492.0199 0 .0595-.0148.0645.0098.0099.0393.005.0884 0 .1277-.005.0147-.0397.0098-.0595.0049-.0447-.0049-.0595.0098-.0595.054.0049.113.0049.226 0 .3389 0 .059.0248.0786.0744.0737.0396-.0049.0496.0049.0496.0442 0 .113 0 .113-.1141.113-.0248 0-.0496-.0049-.0744-.0049-.1042-.0148-.1439-.0541-.1439-.1572-.0049-.0688-.0049-.1375-.0049-.2063z"/><path d="m24.7393 19.7652c0-.0736 0-.1473 0-.2161 0-.0344-.005-.0491-.0447-.0491-.0198 0-.0545.0147-.0595-.0196-.005-.0393-.0149-.0835.005-.1228.0099-.0197.0396-.0099.0595-.0049.0297 0 .0397-.0099.0347-.0344 0-.0099 0-.0148 0-.0246.005-.0442-.0198-.1179.0099-.1326.0447-.0246.1092-.0098.1687-.0098.0248 0 .0248.0098.0248.0294v.0688c0 .0933 0 .0933.0942.1032.0199 0 .0347.0098.0298.0294v.054c.0099.0541-.0099.0737-.0645.0639s-.0645.0147-.0645.0639c.005.108 0 .2161 0 .3241 0 .0737.0099.0835.0794.0786.0397 0 .0446.0098.0446.0442 0 .113 0 .113-.1141.113-.0297 0-.0644-.0049-.0942-.0099-.0794-.0147-.119-.0589-.119-.1424.0049-.0638.0099-.1326.0099-.2063z"/><path d="m26.386 19.4754c.0496-.0835.1042-.1375.1984-.1424.0347 0 .0546.0049.0496.0442v.0491c0 .0344.0099.0786-.0049.1032-.0149.0245-.0596.0049-.0943.0098-.0942.0147-.1389.0688-.1438.167v.3585c0 .0393-.0099.0541-.0496.0491-.0496-.0049-.1191.0197-.1488-.0098-.0248-.0294-.0099-.0933-.0099-.1424 0-.1867 0-.3733 0-.5599 0-.0442.0148-.059.0545-.0491h.0248c.1141.0049.1141.0049.124.1227z"/></g><path d="m27.3835 12.0581c2.4-5.19999-1-9.49999-3-10.99999 8 0 11 8 11 11.99999-1.2-3.59999-5.8333-2.1667-8-1z" fill="#d07d00"/></svg>