<svg xmlns="http://www.w3.org/2000/svg" width="38.625" height="38.625" viewBox="0 0 38.625 38.625">
  <path id="image-2852134" d="M12.943,40.625H29.68c6.547,0,10.945-4.593,10.945-11.426V13.427C40.625,6.593,36.227,2,29.682,2H12.943C6.4,2,2,6.593,2,13.427V29.2C2,36.032,6.4,40.625,12.943,40.625Zm1.608-21.243a4.828,4.828,0,1,1,4.826-4.828A4.832,4.832,0,0,1,14.551,19.381Zm21.865,7.6a7.277,7.277,0,0,1-.381,5.293A7.142,7.142,0,0,1,31.67,36.35a8.739,8.739,0,0,1-2.717.413H12.677A7.975,7.975,0,0,1,8.449,35.65a1.49,1.49,0,0,1-.32-2.182c.913-1.136,1.814-2.276,2.723-3.426,1.732-2.2,2.9-2.838,4.2-2.278a10.663,10.663,0,0,1,1.6.945c1.449.985,3.463,2.338,6.115.869a11,11,0,0,0,3.785-4.28l.015-.025.194-.319c.308-.51.612-1.013.956-1.476.431-.58,2.029-2.394,4.1-1.1a20.821,20.821,0,0,1,3.614,3.091A4.354,4.354,0,0,1,36.416,26.978Z" transform="translate(-2 -2)" fill="#4e88ff" fill-rule="evenodd"/>
</svg>
