<svg width="46" height="43" viewBox="0 0 46 43" fill="none" xmlns="http://www.w3.org/2000/svg">
<rect y="3.60974" width="45.1219" height="33.3902" rx="4" fill="#EAEAEA"/>
<path d="M0 7.60974C0 5.4006 1.79086 3.60974 4 3.60974H41.1219C43.3311 3.60974 45.1219 5.4006 45.1219 7.60974V11.7317H0V7.60974Z" fill="#FF4E4E"/>
<line x1="10.7317" y1="7.12195" x2="10.7317" y2="0.999997" stroke="black" stroke-width="2" stroke-linecap="round"/>
<line x1="34.1951" y1="7.12195" x2="34.1951" y2="0.999997" stroke="black" stroke-width="2" stroke-linecap="round"/>
<line x1="8.31689" y1="19.6584" x2="34.0974" y2="19.6584" stroke="#FFC0C0" stroke-width="4" stroke-linecap="round"/>
<line x1="8.62183" y1="20.2559" x2="11.2316" y2="20.2559" stroke="#222744" stroke-linecap="round"/>
<line x1="14.939" y1="20.2559" x2="17.5487" y2="20.2559" stroke="#222744" stroke-linecap="round"/>
<line x1="22.1584" y1="20.2559" x2="24.7682" y2="20.2559" stroke="#222744" stroke-linecap="round"/>
<line x1="29.3782" y1="20.2559" x2="31.9879" y2="20.2559" stroke="#222744" stroke-linecap="round"/>
<line x1="8.31689" y1="26.8777" x2="19.6584" y2="26.8777" stroke="#FFC0C0" stroke-width="4" stroke-linecap="round"/>
<line x1="8.62183" y1="27.4753" x2="11.2316" y2="27.4753" stroke="#222744" stroke-linecap="round"/>
<line x1="14.939" y1="27.4753" x2="17.5487" y2="27.4753" stroke="#222744" stroke-linecap="round"/>
<path d="M17.8387 24.5322C17.2419 24.5322 16.7581 24.0484 16.7581 23.4516V22.6129C16.7581 22.0161 17.2419 21.5322 17.8387 21.5322C18.4355 21.5322 18.9193 22.0161 18.9193 22.6129V23.4516C18.9193 24.0484 18.4355 24.5322 17.8387 24.5322Z" fill="#773535"/>
<path d="M27.9195 24.5322C27.3227 24.5322 26.8389 24.0484 26.8389 23.4516V22.6129C26.8389 22.0161 27.3227 21.5322 27.9195 21.5322C28.5163 21.5322 29.0002 22.0161 29.0002 22.6129V23.4516C29.0002 24.0484 28.5163 24.5322 27.9195 24.5322Z" fill="#773535"/>
<path d="M25.5646 26H20.4517V32.0968H25.5646V26Z" fill="#914343"/>
<path d="M23.0161 29.2095C20.2902 29.2095 18.0806 26.9998 18.0806 24.274V18.5159C18.0806 17.2417 19.1128 16.2095 20.387 16.2095H25.6612C26.9354 16.2095 27.9677 17.2417 27.9677 18.5159V24.274C27.9515 26.9998 25.7419 29.2095 23.0161 29.2095Z" fill="#914343"/>
<path d="M25.5645 28.4839V29.2258C24.8226 29.6774 23.9516 29.9355 23.0162 29.9355C22.0807 29.9355 21.2097 29.6774 20.4678 29.2258V28.4839C21.2097 28.9355 22.0807 29.1936 23.0162 29.1936C23.9355 29.1936 24.8226 28.9355 25.5645 28.4839Z" fill="#773535"/>
<path d="M33 42.7742H13V35.3226C13 33.0806 14.8226 31.2742 17.0484 31.2742H28.9355C31.1774 31.2742 32.9839 33.0968 32.9839 35.3226V42.7742H33Z" fill="#4E88FF"/>
<path d="M17.8388 22.1288C18.3733 22.1288 18.8066 21.6956 18.8066 21.1611C18.8066 20.6266 18.3733 20.1934 17.8388 20.1934C17.3044 20.1934 16.8711 20.6266 16.8711 21.1611C16.8711 21.6956 17.3044 22.1288 17.8388 22.1288Z" fill="#222744"/>
<path d="M17.4677 20.6452C18.0022 20.6452 18.4355 20.2119 18.4355 19.6775C18.4355 19.143 18.0022 18.7097 17.4677 18.7097C16.9333 18.7097 16.5 19.143 16.5 19.6775C16.5 20.2119 16.9333 20.6452 17.4677 20.6452Z" fill="#222744"/>
<path d="M17.4677 19.3549C18.0022 19.3549 18.4355 18.9216 18.4355 18.3872C18.4355 17.8527 18.0022 17.4194 17.4677 17.4194C16.9333 17.4194 16.5 17.8527 16.5 18.3872C16.5 18.9216 16.9333 19.3549 17.4677 19.3549Z" fill="#222744"/>
<path d="M17.8388 18.1291C18.3733 18.1291 18.8066 17.6958 18.8066 17.1613C18.8066 16.6269 18.3733 16.1936 17.8388 16.1936C17.3044 16.1936 16.8711 16.6269 16.8711 17.1613C16.8711 17.6958 17.3044 18.1291 17.8388 18.1291Z" fill="#222744"/>
<path d="M18.8066 17.1613C19.3411 17.1613 19.7744 16.728 19.7744 16.1936C19.7744 15.6591 19.3411 15.2258 18.8066 15.2258C18.2721 15.2258 17.8389 15.6591 17.8389 16.1936C17.8389 16.728 18.2721 17.1613 18.8066 17.1613Z" fill="#222744"/>
<path d="M20.4516 16.8226C20.9861 16.8226 21.4194 16.3893 21.4194 15.8548C21.4194 15.3204 20.9861 14.8871 20.4516 14.8871C19.9172 14.8871 19.4839 15.3204 19.4839 15.8548C19.4839 16.3893 19.9172 16.8226 20.4516 16.8226Z" fill="#222744"/>
<path d="M22.0486 16.8226C22.583 16.8226 23.0163 16.3893 23.0163 15.8548C23.0163 15.3204 22.583 14.8871 22.0486 14.8871C21.5141 14.8871 21.0808 15.3204 21.0808 15.8548C21.0808 16.3893 21.5141 16.8226 22.0486 16.8226Z" fill="#222744"/>
<path d="M23.5161 16.8226C24.0506 16.8226 24.4838 16.3893 24.4838 15.8548C24.4838 15.3204 24.0506 14.8871 23.5161 14.8871C22.9816 14.8871 22.5483 15.3204 22.5483 15.8548C22.5483 16.3893 22.9816 16.8226 23.5161 16.8226Z" fill="#222744"/>
<path d="M25.0808 16.8226C25.6152 16.8226 26.0485 16.3893 26.0485 15.8548C26.0485 15.3204 25.6152 14.8871 25.0808 14.8871C24.5463 14.8871 24.113 15.3204 24.113 15.8548C24.113 16.3893 24.5463 16.8226 25.0808 16.8226Z" fill="#222744"/>
<path d="M26.5322 17.1613C27.0667 17.1613 27.4999 16.728 27.4999 16.1936C27.4999 15.6591 27.0667 15.2258 26.5322 15.2258C25.9977 15.2258 25.5645 15.6591 25.5645 16.1936C25.5645 16.728 25.9977 17.1613 26.5322 17.1613Z" fill="#222744"/>
<path d="M27.758 18.1291C28.2925 18.1291 28.7258 17.6958 28.7258 17.1613C28.7258 16.6269 28.2925 16.1936 27.758 16.1936C27.2236 16.1936 26.7903 16.6269 26.7903 17.1613C26.7903 17.6958 27.2236 18.1291 27.758 18.1291Z" fill="#222744"/>
<path d="M27.9516 19.3549C28.4861 19.3549 28.9194 18.9216 28.9194 18.3872C28.9194 17.8527 28.4861 17.4194 27.9516 17.4194C27.4172 17.4194 26.9839 17.8527 26.9839 18.3872C26.9839 18.9216 27.4172 19.3549 27.9516 19.3549Z" fill="#222744"/>
<path d="M27.9516 20.6452C28.4861 20.6452 28.9194 20.2119 28.9194 19.6775C28.9194 19.143 28.4861 18.7097 27.9516 18.7097C27.4172 18.7097 26.9839 19.143 26.9839 19.6775C26.9839 20.2119 27.4172 20.6452 27.9516 20.6452Z" fill="#222744"/>
<path d="M27.758 21.7902C28.2925 21.7902 28.7258 21.3569 28.7258 20.8225C28.7258 20.288 28.2925 19.8547 27.758 19.8547C27.2236 19.8547 26.7903 20.288 26.7903 20.8225C26.7903 21.3569 27.2236 21.7902 27.758 21.7902Z" fill="#222744"/>
<path d="M27.2258 18.7097C27.7603 18.7097 28.1935 18.2764 28.1935 17.7419C28.1935 17.2074 27.7603 16.7742 27.2258 16.7742C26.6913 16.7742 26.2581 17.2074 26.2581 17.7419C26.2581 18.2764 26.6913 18.7097 27.2258 18.7097Z" fill="#222744"/>
<path d="M25.6452 18.1291C26.1797 18.1291 26.613 17.6958 26.613 17.1613C26.613 16.6269 26.1797 16.1936 25.6452 16.1936C25.1108 16.1936 24.6775 16.6269 24.6775 17.1613C24.6775 17.6958 25.1108 18.1291 25.6452 18.1291Z" fill="#222744"/>
<path d="M24.4839 18.1291C25.0183 18.1291 25.4516 17.6958 25.4516 17.1613C25.4516 16.6269 25.0183 16.1936 24.4839 16.1936C23.9494 16.1936 23.5161 16.6269 23.5161 17.1613C23.5161 17.6958 23.9494 18.1291 24.4839 18.1291Z" fill="#222744"/>
<path d="M22.8225 18.1289C23.3837 18.1289 23.8387 17.674 23.8387 17.1128C23.8387 16.5516 23.3837 16.0967 22.8225 16.0967C22.2613 16.0967 21.8064 16.5516 21.8064 17.1128C21.8064 17.674 22.2613 18.1289 22.8225 18.1289Z" fill="#222744"/>
<path d="M21.0808 18.1291C21.6152 18.1291 22.0485 17.6958 22.0485 17.1613C22.0485 16.6269 21.6152 16.1936 21.0808 16.1936C20.5463 16.1936 20.113 16.6269 20.113 17.1613C20.113 17.6958 20.5463 18.1291 21.0808 18.1291Z" fill="#222744"/>
<path d="M19.4033 18.3871C19.9378 18.3871 20.371 17.9539 20.371 17.4194C20.371 16.8849 19.9378 16.4517 19.4033 16.4517C18.8688 16.4517 18.4355 16.8849 18.4355 17.4194C18.4355 17.9539 18.8688 18.3871 19.4033 18.3871Z" fill="#222744"/>
<path d="M18.4355 18.7097C18.97 18.7097 19.4033 18.2764 19.4033 17.7419C19.4033 17.2074 18.97 16.7742 18.4355 16.7742C17.901 16.7742 17.4678 17.2074 17.4678 17.7419C17.4678 18.2764 17.901 18.7097 18.4355 18.7097Z" fill="#222744"/>
<path d="M25.8549 31.2581L27.0324 33L23.1453 31.2581H25.8549Z" fill="white"/>
<path d="M20.4355 31.2581L19.2419 33L23.1452 31.2581H20.4355Z" fill="white"/>
<path d="M23.1453 31.2581L21.613 40.9032L23.0163 43L24.6776 40.9032L23.1453 31.2581Z" fill="#222744"/>
<path d="M23.1451 32.5484L22.0483 31.7581L23.1451 31.2581L24.2258 31.7419L23.1451 32.5484Z" fill="#222744"/>
<path d="M16.871 33H16.5V42.7742H16.871V33Z" fill="#3D7CEA"/>
<path d="M29.371 33H29V42.7742H29.371V33Z" fill="#3D7CEA"/>
</svg>
