<svg xmlns="http://www.w3.org/2000/svg" xmlns:xlink="http://www.w3.org/1999/xlink" width="375" height="169" viewBox="0 0 375 169">
  <defs>
    <clipPath id="clip-path">
      <path id="Rectangle_273" data-name="Rectangle 273" d="M0,0H375a0,0,0,0,1,0,0V149a20,20,0,0,1-20,20H20A20,20,0,0,1,0,149V0A0,0,0,0,1,0,0Z" transform="translate(6288 1181)" fill="#def4ee"/>
    </clipPath>
  </defs>
  <g id="Mask_Group_24" data-name="Mask Group 24" transform="translate(-6288 -1181)" clip-path="url(#clip-path)">
    <g id="Add_Homework" data-name="Add Homework" transform="translate(6239.07 1155.532)">
      <g id="Group_82" data-name="Group 82" transform="translate(94.776 159.909)">
        <g id="Group_74" data-name="Group 74" transform="translate(3.896 16.437)">
          <g id="Group_73" data-name="Group 73">
            <g id="Group_71" data-name="Group 71">
              <g id="Group_70" data-name="Group 70">
                <path id="Path_37" data-name="Path 37" d="M392.447,853.368l-24.627,7.408L349.4,849.833l21.99-6.533Z" transform="translate(-347.046 -833.757)" fill="#83bb91"/>
                <path id="Path_38" data-name="Path 38" d="M392.447,848.268l-24.627,7.4L349.4,844.733l21.979-6.533Z" transform="translate(-347.046 -829.252)" fill="#83bb91"/>
                <path id="Path_39" data-name="Path 39" d="M484.334,910.615s-5.18,4.188-.128,9.158l-1.528-.758s-3.6-1.027-.572-8.714Z" transform="translate(-463.197 -892.941)" fill="#4c7555"/>
                <path id="Path_40" data-name="Path 40" d="M527.162,848.238l-22.9,6.5-1.062.968.828-.21,24.277-7.291v-.3Z" transform="translate(-482.904 -837.821)" fill="#4c7555"/>
                <path id="Path_41" data-name="Path 41" d="M392.447,771.579l-24.627,7.4L349.4,768.045l21.99-6.545Z" transform="translate(-347.046 -761.5)" fill="#95cbad"/>
                <path id="Path_42" data-name="Path 42" d="M526.362,925.095V924.5l-24.9,7.5L501,931.85s.49.408.735.653Z" transform="translate(-480.96 -905.484)" fill="#4c7555"/>
                <path id="Path_43" data-name="Path 43" d="M350,828.531s-5.553,3.99,0,9.531l-18.421-10.931s-5.3-4.235,0-9.531Z" transform="translate(-329.222 -811.055)" fill="#6aa075"/>
                <path id="Path_44" data-name="Path 44" d="M492.516,859.2s-4.958,3.873-.467,8.8l24.277-7.3s-4.118-3.1-.152-8.6Z" transform="translate(-471.392 -841.531)" fill="#f4ce8e"/>
              </g>
              <path id="Path_45" data-name="Path 45" d="M531.219,920.057,509.8,926.345l.082-.257L531.3,919.8Z" transform="translate(-488.734 -901.333)" fill="#cb9966"/>
              <path id="Path_46" data-name="Path 46" d="M524.619,912.368,503.2,918.656l.093-.268,21.419-6.288Z" transform="translate(-482.904 -894.531)" fill="#cb9966"/>
              <path id="Path_47" data-name="Path 47" d="M522.419,901.957,501,908.245l.093-.257,21.419-6.288Z" transform="translate(-480.96 -885.344)" fill="#cb9966"/>
              <path id="Path_48" data-name="Path 48" d="M523.619,892.457,502.2,898.745l.082-.257L523.7,892.2Z" transform="translate(-482.021 -876.953)" fill="#cb9966"/>
              <path id="Path_49" data-name="Path 49" d="M528.719,880.568,507.3,886.856l.082-.257,21.43-6.3Z" transform="translate(-486.526 -866.441)" fill="#cb9966"/>
              <path id="Path_50" data-name="Path 50" d="M531.819,868.657,510.4,874.945l.082-.257L531.9,868.4Z" transform="translate(-489.264 -855.929)" fill="#cb9966"/>
            </g>
            <g id="Group_72" data-name="Group 72" transform="translate(36.267 16.099)">
              <path id="Path_51" data-name="Path 51" d="M642.818,903.28l2.322.793-.455-4.573-4.585,1.19.712,4.655Z" transform="translate(-640.1 -899.5)" fill="#f89830"/>
            </g>
          </g>
          <path id="Path_52" data-name="Path 52" d="M453.216,891.13a6.406,6.406,0,0,0-.922,8.994l-1.47-.875s-3.745-3.861,1.33-8.75Z" transform="translate(-435.463 -875.451)" fill="#95cbad"/>
        </g>
        <g id="Group_78" data-name="Group 78" transform="translate(0 6.79)">
          <g id="Group_77" data-name="Group 77">
            <g id="Group_75" data-name="Group 75">
              <path id="Path_53" data-name="Path 53" d="M359.047,770.579l-24.627,7.4L316,767.033l21.979-6.533Z" transform="translate(-313.646 -750.969)" fill="#83bb91"/>
              <path id="Path_54" data-name="Path 54" d="M359.047,765.479l-24.638,7.4L316,761.933l21.979-6.533Z" transform="translate(-313.646 -746.464)" fill="#dc5b3e"/>
              <path id="Path_55" data-name="Path 55" d="M450.934,827.815s-5.18,4.2-.128,9.158l-1.528-.758s-3.6-1.027-.572-8.714Z" transform="translate(-429.797 -810.153)" fill="#700e32"/>
              <path id="Path_56" data-name="Path 56" d="M493.75,765.45l-22.9,6.486-1.05.968.828-.21,24.265-7.291v-.3Z" transform="translate(-449.504 -755.032)" fill="#700e32"/>
              <path id="Path_57" data-name="Path 57" d="M359.047,688.868l-24.627,7.4L316,685.333l21.979-6.533Z" transform="translate(-313.646 -678.8)" fill="#f89830"/>
              <path id="Path_58" data-name="Path 58" d="M492.962,842.4V841.8l-24.9,7.49-.467-.152s.49.408.735.653Z" transform="translate(-447.56 -822.785)" fill="#700e32"/>
              <path id="Path_59" data-name="Path 59" d="M316.6,745.731s-5.553,3.99,0,9.531l-18.421-10.931s-5.3-4.235,0-9.531Z" transform="translate(-295.822 -728.267)" fill="#dc5b3e"/>
              <path id="Path_60" data-name="Path 60" d="M458.1,776.4s-5.261,4.176-.467,8.8l24.265-7.3s-4.118-3.1-.152-8.6Z" transform="translate(-436.974 -758.742)" fill="#f4ce8e"/>
            </g>
            <path id="Path_61" data-name="Path 61" d="M501.619,835.357,480.2,841.645l.082-.257L501.7,835.1Z" transform="translate(-458.691 -816.866)" fill="#cb9966"/>
            <path id="Path_62" data-name="Path 62" d="M495.019,827.668,473.6,833.956l.093-.257,21.419-6.3Z" transform="translate(-452.861 -810.064)" fill="#cb9966"/>
            <path id="Path_63" data-name="Path 63" d="M492.819,817.257,471.4,823.545l.093-.257L492.912,817Z" transform="translate(-450.917 -800.878)" fill="#cb9966"/>
            <path id="Path_64" data-name="Path 64" d="M493.93,807.757l-21.43,6.288.093-.257,21.419-6.288Z" transform="translate(-451.889 -792.486)" fill="#cb9966"/>
            <path id="Path_65" data-name="Path 65" d="M499.119,795.957,477.7,802.245l.082-.257L499.2,795.7Z" transform="translate(-456.482 -782.063)" fill="#cb9966"/>
            <path id="Path_66" data-name="Path 66" d="M502.219,783.957,480.8,790.245l.082-.257L502.3,783.7Z" transform="translate(-459.221 -771.462)" fill="#cb9966"/>
            <g id="Group_76" data-name="Group 76" transform="translate(34.879 14.232)">
              <path id="Path_67" data-name="Path 67" d="M597.273,804.265l2.147.723-.432-4.188-4.188,1.1.642,4.258Z" transform="translate(-594.8 -800.8)" fill="#4c7555"/>
            </g>
          </g>
          <path id="Path_68" data-name="Path 68" d="M330.016,755.03a6.406,6.406,0,0,0-.922,8.994l-1.47-.875s-3.745-3.861,1.33-8.749Z" transform="translate(-322.739 -745.581)" fill="#f89830"/>
        </g>
        <g id="Group_81" data-name="Group 81" transform="translate(6.393)">
          <g id="Group_79" data-name="Group 79">
            <path id="Path_69" data-name="Path 69" d="M401.261,694.061l-19.715,5.926-14.746-8.75L384.392,686Z" transform="translate(-364.913 -678.37)" fill="#83bb91"/>
            <path id="Path_70" data-name="Path 70" d="M401.261,690.061l-19.715,5.915-14.746-8.75L384.392,682Z" transform="translate(-364.913 -674.837)" fill="#471540"/>
            <path id="Path_71" data-name="Path 71" d="M474.825,739.857a4.676,4.676,0,0,0-.1,7.326l-1.225-.607s-2.882-.817-.455-6.976Z" transform="translate(-457.901 -725.717)" fill="#700e32"/>
            <path id="Path_72" data-name="Path 72" d="M509.079,689.98l-18.327,5.191-.852.77.665-.163,19.424-5.833V689.7Z" transform="translate(-473.652 -681.639)" fill="#700e32"/>
            <path id="Path_73" data-name="Path 73" d="M401.261,628.661l-19.715,5.926L366.8,625.838l17.592-5.238Z" transform="translate(-364.913 -620.6)" fill="#8f6f88"/>
            <path id="Path_74" data-name="Path 74" d="M508.5,751.478V751l-19.925,6-.373-.128s.4.327.583.525Z" transform="translate(-472.15 -735.788)" fill="#700e32"/>
            <path id="Path_75" data-name="Path 75" d="M367.255,674.25s-4.445,3.2,0,7.63l-14.746-8.75s-4.246-3.395,0-7.63Z" transform="translate(-350.622 -660.262)" fill="#471540"/>
            <path id="Path_76" data-name="Path 76" d="M481.334,698.693a4.59,4.59,0,0,0-.373,7.035l19.424-5.845s-3.3-2.485-.117-6.883Z" transform="translate(-464.421 -684.554)" fill="#f4ce8e"/>
          </g>
          <path id="Path_77" data-name="Path 77" d="M513.639,748.11,496.7,753.08l.07-.2,16.939-4.981Z" transform="translate(-479.659 -733.049)" fill="#cb9966"/>
          <path id="Path_78" data-name="Path 78" d="M508.451,742.11,491.5,747.08l.07-.21,16.951-4.97Z" transform="translate(-475.065 -727.749)" fill="#cb9966"/>
          <path id="Path_79" data-name="Path 79" d="M506.739,733.81,489.8,738.78l.07-.2,16.939-4.981Z" transform="translate(-473.564 -720.417)" fill="#cb9966"/>
          <path id="Path_80" data-name="Path 80" d="M507.639,726.31,490.7,731.28l.07-.21,16.939-4.97Z" transform="translate(-474.359 -713.792)" fill="#cb9966"/>
          <path id="Path_81" data-name="Path 81" d="M511.651,717,494.7,721.98l.07-.21,16.951-4.97Z" transform="translate(-477.892 -705.577)" fill="#cb9966"/>
          <path id="Path_82" data-name="Path 82" d="M514.139,707.51,497.2,712.48l.07-.21,16.939-4.97Z" transform="translate(-480.1 -697.186)" fill="#cb9966"/>
          <g id="Group_80" data-name="Group 80" transform="translate(30.411 13.719)">
            <path id="Path_83" data-name="Path 83" d="M613.132,740.766l1.587.537-.315-3.1-3.1.817.478,3.15Z" transform="translate(-611.3 -738.2)" fill="#dc5b3e"/>
          </g>
        </g>
      </g>
      <g id="Group_84" data-name="Group 84" transform="translate(93.643 99.068)">
        <rect id="Rectangle_197" data-name="Rectangle 197" width="45.077" height="78.255" transform="matrix(0.59, -0.807, 0.807, 0.59, 0, 36.386)" fill="#dc5b3e"/>
        <rect id="Rectangle_198" data-name="Rectangle 198" width="40.679" height="73.297" transform="matrix(0.59, -0.807, 0.807, 0.59, 3.307, 36.073)" fill="#f9f2d9"/>
        <rect id="Rectangle_199" data-name="Rectangle 199" width="1.097" height="24.557" transform="matrix(0.59, -0.807, 0.807, 0.59, 59.151, 35.136)" fill="#95cbad"/>
        <rect id="Rectangle_200" data-name="Rectangle 200" width="1.097" height="24.557" transform="translate(57.858 36.898) rotate(-53.83)" fill="#95cbad"/>
        <rect id="Rectangle_201" data-name="Rectangle 201" width="1.097" height="24.557" transform="matrix(0.59, -0.807, 0.807, 0.59, 56.548, 38.688)" fill="#95cbad"/>
        <rect id="Rectangle_202" data-name="Rectangle 202" width="1.097" height="24.557" transform="matrix(0.59, -0.807, 0.807, 0.59, 45.955, 53.181)" fill="#95cbad"/>
        <rect id="Rectangle_203" data-name="Rectangle 203" width="1.097" height="24.557" transform="matrix(0.59, -0.807, 0.807, 0.59, 44.65, 54.963)" fill="#95cbad"/>
        <rect id="Rectangle_204" data-name="Rectangle 204" width="1.097" height="24.557" transform="matrix(0.59, -0.807, 0.807, 0.59, 43.352, 56.734)" fill="#95cbad"/>
        <rect id="Rectangle_205" data-name="Rectangle 205" width="1.097" height="24.557" transform="matrix(0.59, -0.807, 0.807, 0.59, 51.144, 46.079)" fill="#95cbad"/>
        <rect id="Rectangle_206" data-name="Rectangle 206" width="1.097" height="24.557" transform="matrix(0.59, -0.807, 0.807, 0.59, 49.839, 47.859)" fill="#95cbad"/>
        <rect id="Rectangle_207" data-name="Rectangle 207" width="1.097" height="24.557" transform="matrix(0.59, -0.807, 0.807, 0.59, 28.679, 12.851)" fill="#95cbad"/>
        <rect id="Rectangle_208" data-name="Rectangle 208" width="1.097" height="24.557" transform="matrix(0.59, -0.807, 0.807, 0.59, 27.374, 14.632)" fill="#95cbad"/>
        <rect id="Rectangle_209" data-name="Rectangle 209" width="1.097" height="24.557" transform="matrix(0.59, -0.807, 0.807, 0.59, 26.076, 16.403)" fill="#95cbad"/>
        <rect id="Rectangle_210" data-name="Rectangle 210" width="1.097" height="2.462" transform="translate(33.323 43.943) rotate(-53.83)" fill="#95cbad"/>
        <rect id="Rectangle_211" data-name="Rectangle 211" width="1.097" height="24.557" transform="matrix(0.59, -0.807, 0.807, 0.59, 20.672, 23.794)" fill="#95cbad"/>
        <rect id="Rectangle_212" data-name="Rectangle 212" width="1.097" height="24.557" transform="translate(19.38 25.576) rotate(-53.83)" fill="#95cbad"/>
        <g id="Group_83" data-name="Group 83" transform="translate(25.267 5.428)">
          <path id="Path_84" data-name="Path 84" d="M506.281,152.378l-3.581.128,5.051-6.906,4.538,3.313-5.051,6.918Z" transform="translate(-502.7 -145.6)" fill="#471540"/>
        </g>
      </g>
      <g id="Group_95" data-name="Group 95" transform="translate(60.167 131.045)">
        <g id="Group_94" data-name="Group 94" transform="translate(0 0)">
          <path id="Path_85" data-name="Path 85" d="M437.473,413.55s-.653,3.908-5.46.887-3.6-.817-3.6-.817l.595-4.025,4.4-1.295Z" transform="translate(-378.216 -404.203)" fill="#c69262"/>
          <path id="Path_86" data-name="Path 86" d="M187.307,401.662s4.585-10.383,5.448-14.711a3.579,3.579,0,0,1,4.748-3.056l8.609-4.083,1.622-.012c3.3,7.536,6.93,7.711,6.545,7.956-4.748,3.01-7.571-1.645-7.571-1.645a8.416,8.416,0,0,0-4.911,4.176s-.607,2.473,2.368,3.581,4.911-4.176,7.431-4.561a11.11,11.11,0,0,1,2.695-.292l-2.3,5.331-4.806,5.53c-1.878.828-10.2,6.836-10.2,6.836l-1.785,2.357-12.716,21.675L171.5,422.206Z" transform="translate(-151.394 -379.028)" fill="#f4ce8e"/>
          <g id="Group_85" data-name="Group 85" transform="translate(0 21.955)">
            <rect id="Rectangle_214" data-name="Rectangle 214" width="2.52" height="17.032" transform="translate(30.264 2.077) rotate(-55.495)" fill="#951a45"/>
            <rect id="Rectangle_215" data-name="Rectangle 215" width="51.494" height="19.68" transform="translate(0 43.761) rotate(-55.495)" fill="#471540"/>
          </g>
          <g id="Group_89" data-name="Group 89" transform="translate(30.075)">
            <g id="Group_88" data-name="Group 88" transform="translate(2.304 0.481)">
              <path id="Path_87" data-name="Path 87" d="M537.5,465.3c.023.012.047.012.058.023-.012-.012-.035-.012-.058-.023Z" transform="translate(-507.075 -455.034)" fill="#f4ce8e"/>
              <path id="Path_88" data-name="Path 88" d="M539.8,456.8h0a.5.5,0,0,1,.058.012.127.127,0,0,1-.058-.012Z" transform="translate(-509.107 -447.526)" fill="#f4ce8e"/>
              <path id="Path_89" data-name="Path 89" d="M535.2,473.8Z" transform="translate(-505.044 -462.542)" fill="#f4ce8e"/>
              <path id="Path_90" data-name="Path 90" d="M542.2,448.3Z" transform="translate(-511.227 -440.017)" fill="#f4ce8e"/>
              <path id="Path_91" data-name="Path 91" d="M535.2,473.8Z" transform="translate(-505.044 -462.542)" fill="#f4ce8e"/>
              <path id="Path_92" data-name="Path 92" d="M535.2,473.8Z" transform="translate(-505.044 -462.542)" fill="#f4ce8e"/>
              <path id="Path_93" data-name="Path 93" d="M537.5,465.3Z" transform="translate(-507.075 -455.034)" fill="#f4ce8e"/>
              <path id="Path_94" data-name="Path 94" d="M537.5,465.3Z" transform="translate(-507.075 -455.034)" fill="#dc5b3e"/>
              <path id="Path_95" data-name="Path 95" d="M539.8,456.8Z" transform="translate(-509.107 -447.526)" fill="#dc5b3e"/>
              <path id="Path_96" data-name="Path 96" d="M542.2,448.3Z" transform="translate(-511.227 -440.017)" fill="#951a45"/>
              <path id="Path_97" data-name="Path 97" d="M542.2,448.361Z" transform="translate(-511.227 -440.066)" fill="#951a45"/>
              <path id="Path_98" data-name="Path 98" d="M539.8,456.8Z" transform="translate(-509.107 -447.526)" fill="#951a45"/>
              <path id="Path_99" data-name="Path 99" d="M535.2,466.292h0l.268-.992h0Z" transform="translate(-505.044 -455.034)" fill="#f4ce8e"/>
              <path id="Path_100" data-name="Path 100" d="M537.5,457.792h0l.268-.992h0Z" transform="translate(-507.075 -447.526)" fill="#dc5b3e"/>
              <g id="Group_86" data-name="Group 86">
                <path id="Path_101" data-name="Path 101" d="M307.125,402.583l-.268.992h0L276.7,395.292l.268-.992Z" transform="translate(-276.7 -392.317)" fill="#f89830"/>
                <path id="Path_102" data-name="Path 102" d="M309.425,394.083l-.268.992h0L279,386.792l.28-.992Z" transform="translate(-278.732 -384.808)" fill="#dc5b3e"/>
                <path id="Path_103" data-name="Path 103" d="M311.825,385.583l-.28.992h0L281.4,378.292l.268-.992Z" transform="translate(-280.852 -377.3)" fill="#951a45"/>
                <path id="Path_104" data-name="Path 104" d="M535.557,465.3a.5.5,0,0,1,.058.012c.443.128.747.443.677.723a.443.443,0,0,1-.152.21l-.84.047h0Z" transform="translate(-505.132 -455.034)" fill="#f6debc"/>
                <path id="Path_105" data-name="Path 105" d="M537.768,456.8a.508.508,0,0,1,.058.012c.443.128.747.443.677.712s-.5.4-.945.268a.089.089,0,0,1-.058-.023Z" transform="translate(-507.075 -447.526)" fill="#dc5b3e"/>
                <path id="Path_106" data-name="Path 106" d="M540.168,448.4h0l.7.478a.4.4,0,0,1,.035.257c-.07.268-.5.4-.945.268-.023-.012-.047-.012-.058-.023Z" transform="translate(-509.195 -440.106)" fill="#951a45"/>
              </g>
              <path id="Path_107" data-name="Path 107" d="M539.8,449.292l.268-.992h0l-.268.992Z" transform="translate(-509.107 -440.017)" fill="#951a45"/>
              <g id="Group_87" data-name="Group 87" transform="translate(30.483 8.773)">
                <path id="Path_108" data-name="Path 108" d="M538.525,454.938a.314.314,0,0,0,.152-.21c.07-.268-.222-.6-.677-.723.443.128.863,0,.945-.268s-.222-.595-.677-.712c.443.128.863,0,.945-.268a.336.336,0,0,0-.035-.257l1.808,1.225-.3,1.085Z" transform="translate(-538 -452.5)" fill="#f4ce8e"/>
                <path id="Path_109" data-name="Path 109" d="M561.2,464l.292-1.1,1.458.992Z" transform="translate(-558.494 -461.687)" fill="#471540"/>
              </g>
            </g>
            <rect id="Rectangle_216" data-name="Rectangle 216" width="3.08" height="1.248" transform="translate(1.718 3.292) rotate(-74.632)" fill="#b3b3b3"/>
            <path id="Path_110" data-name="Path 110" d="M259.255,376.634l-1.423-.385c-.537-.152-.933-.408-.875-.595l.642-2.322c.047-.175.525-.21,1.062-.058l1.423.385Z" transform="translate(-256.951 -373.179)" fill="#f4ce8e"/>
          </g>
          <g id="Group_90" data-name="Group 90" transform="translate(54.905 6.442)">
            <path id="Path_111" data-name="Path 111" d="M506.355,459.016a11.11,11.11,0,0,1,2.695-.292l-.712,1.657-3.138-.863A2.863,2.863,0,0,1,506.355,459.016Z" transform="translate(-501.07 -455.178)" fill="#f4ce8e"/>
            <path id="Path_112" data-name="Path 112" d="M469.8,428.4l7.956,2.182c.058.035.07.07.023.093-4.748,3.01-7.583-1.645-7.595-1.633C470.1,428.9,469.847,428.482,469.8,428.4Z" transform="translate(-469.8 -428.4)" fill="#f4ce8e"/>
          </g>
          <g id="Group_91" data-name="Group 91" transform="translate(55.158 6.042)">
            <path id="Path_113" data-name="Path 113" d="M472.952,425.184a.473.473,0,0,1,.058.105.088.088,0,0,1,.023.047c.047.082-.07-.07,0,0a.437.437,0,0,1-.618.618l-.058-.058c.093.082.012.012,0,0a1.279,1.279,0,0,0-.175-.093.424.424,0,0,1-.152-.595.434.434,0,0,1,.257-.2.487.487,0,0,1,.338.047,1.688,1.688,0,0,1,.408.28l-.618.618a2.012,2.012,0,0,1-.222-.327.436.436,0,0,1,.152-.595.442.442,0,0,1,.607.152Z" transform="translate(-471.969 -424.97)" fill="#f4ce8e"/>
          </g>
          <g id="Group_92" data-name="Group 92" transform="translate(55.201 5.975)">
            <path id="Path_114" data-name="Path 114" d="M472.757,424.428c.3.128.572.28.863.432-.222.128-.432.245-.653.373V425.1a.44.44,0,0,1,.653-.373,5.005,5.005,0,0,1,.583.432c-.2.047-.4.1-.595.152a.292.292,0,0,1,.047-.082.434.434,0,0,1,.595-.152,2.771,2.771,0,0,0,.6.28c-.14.245-.28.478-.42.723-.047-.07-.1-.128-.152-.2a.433.433,0,0,1,.525-.677,6.345,6.345,0,0,0,.98.478c-.14.245-.28.478-.42.723a.942.942,0,0,0-.3-.3c-.385-.315.117-.933.525-.677a3.113,3.113,0,0,0,.828.373c-.14.245-.28.478-.42.723a2.1,2.1,0,0,1-.233-.222.435.435,0,0,1,.42-.723,5.811,5.811,0,0,1,1.318.583c.467.3.035,1.05-.443.747a5.571,5.571,0,0,0-1.108-.5c.14-.245.28-.478.42-.723a2.091,2.091,0,0,1,.233.222.435.435,0,0,1-.42.723,4.318,4.318,0,0,1-1.038-.455c.175-.222.35-.455.525-.677a.942.942,0,0,1,.3.3c.245.3.035.875-.42.723a7.883,7.883,0,0,1-1.19-.56c.175-.222.35-.455.525-.677.047.07.105.128.152.2.245.315.035.863-.42.723a3.511,3.511,0,0,1-.793-.373c.2-.047.4-.1.6-.152a.189.189,0,0,1-.047.082.434.434,0,0,1-.6.152,5.012,5.012,0,0,0-.583-.432c.222-.128.432-.245.653-.373v.128a.438.438,0,0,1-.653.373c-.222-.117-.292-.292-.513-.408-.513-.222-.432-.992.082-.782Z" transform="translate(-472.329 -424.392)" fill="#f4ce8e"/>
          </g>
          <g id="Group_93" data-name="Group 93" transform="translate(58.943 7.523)">
            <path id="Path_115" data-name="Path 115" d="M504.621,437.784c.537-.3,1.12.023,1.587.327.4.257.152.968-.338.793a1.206,1.206,0,0,1-.455-.268.434.434,0,0,1,.3-.735,2.417,2.417,0,0,1,.8.21c-.14.245-.28.478-.42.723-.047-.035-.082-.07-.128-.1a.431.431,0,0,1,.3-.735,1.637,1.637,0,0,1,.467.082c-.117.268-.222.525-.338.793l-.175-.1a.436.436,0,0,1,.338-.793,2.111,2.111,0,0,1,.735.385.436.436,0,0,1-.222.8H507V438.3c.14.012.28.035.42.058a.437.437,0,0,1,.1.793c-.012.012-.023.012-.047.023-.035-.268-.07-.525-.105-.793.105.023.163.152.28.175.548.152.268.758-.28.653-.14-.023-.152.023-.292-.035-.513-.222-.07-.968.443-.747.058.012.07.117.128.14-.082.28-.1.467-.175.747-.1-.023-.222-.058-.327-.082a.438.438,0,0,1-.1-.793c.012-.012.023-.012.047-.023.035.268.07.525.1.793a1.022,1.022,0,0,0-.187-.023.432.432,0,0,1,0-.863h.082c-.07.268-.14.537-.222.8a1.321,1.321,0,0,0-.525-.3c.117-.268.222-.525.338-.793a.7.7,0,0,0,.175.1c.42.245.14.957-.338.793-.082-.012-.152-.035-.233-.047.1-.245.21-.49.3-.735.047.035.082.07.128.1a.436.436,0,0,1-.42.723,1.471,1.471,0,0,0-.583-.175c.1-.245.21-.49.3-.735l.07.035c-.117.268-.222.525-.338.793-.128-.093-.548-.42-.712-.327a.445.445,0,0,1-.42-.782Z" transform="translate(-504.412 -437.663)" fill="#f4ce8e"/>
          </g>
        </g>
      </g>
    </g>
  </g>
</svg>
