<svg width="40" height="36" viewBox="0 0 40 36" fill="none" xmlns="http://www.w3.org/2000/svg">
<path d="M1.096 8.064C0.946667 8.064 0.832 8.02133 0.752 7.936C0.672 7.85067 0.632 7.73333 0.632 7.584V2.776C0.632 2.62133 0.674667 2.504 0.76 2.424C0.845333 2.33867 0.962667 2.296 1.112 2.296C1.24533 2.296 1.34933 2.32267 1.424 2.376C1.504 2.424 1.576 2.50933 1.64 2.632L3.616 6.288H3.36L5.336 2.632C5.4 2.50933 5.46933 2.424 5.544 2.376C5.61867 2.32267 5.72267 2.296 5.856 2.296C6.00533 2.296 6.12 2.33867 6.2 2.424C6.28 2.504 6.32 2.62133 6.32 2.776V7.584C6.32 7.73333 6.28 7.85067 6.2 7.936C6.12533 8.02133 6.01067 8.064 5.856 8.064C5.70667 8.064 5.592 8.02133 5.512 7.936C5.432 7.85067 5.392 7.73333 5.392 7.584V3.88H5.568L3.888 6.944C3.83467 7.03467 3.77867 7.10133 3.72 7.144C3.66133 7.18667 3.58133 7.208 3.48 7.208C3.37867 7.208 3.296 7.18667 3.232 7.144C3.168 7.096 3.112 7.02933 3.064 6.944L1.368 3.872H1.56V7.584C1.56 7.73333 1.52 7.85067 1.44 7.936C1.36533 8.02133 1.25067 8.064 1.096 8.064ZM8.07331 8.064C7.90798 8.064 7.77998 8.01867 7.68931 7.928C7.60398 7.832 7.56131 7.70133 7.56131 7.536V2.824C7.56131 2.65333 7.60398 2.52267 7.68931 2.432C7.77998 2.34133 7.90798 2.296 8.07331 2.296C8.23865 2.296 8.36398 2.34133 8.44931 2.432C8.53998 2.52267 8.58531 2.65333 8.58531 2.824V7.536C8.58531 7.70133 8.54265 7.832 8.45731 7.928C8.37198 8.01867 8.24398 8.064 8.07331 8.064ZM10.2991 8.064C10.1445 8.064 10.0245 8.02133 9.93913 7.936C9.85913 7.85067 9.81913 7.728 9.81913 7.568V2.808C9.81913 2.64267 9.85913 2.51733 9.93913 2.432C10.0245 2.34133 10.1338 2.296 10.2671 2.296C10.3898 2.296 10.4805 2.32 10.5391 2.368C10.6031 2.41067 10.6778 2.48533 10.7631 2.592L13.8271 6.568H13.6191V2.784C13.6191 2.62933 13.6591 2.50933 13.7391 2.424C13.8245 2.33867 13.9445 2.296 14.0991 2.296C14.2538 2.296 14.3711 2.33867 14.4511 2.424C14.5311 2.50933 14.5711 2.62933 14.5711 2.784V7.584C14.5711 7.73333 14.5338 7.85067 14.4591 7.936C14.3845 8.02133 14.2831 8.064 14.1551 8.064C14.0325 8.064 13.9338 8.04 13.8591 7.992C13.7898 7.944 13.7125 7.86667 13.6271 7.76L10.5711 3.784H10.7711V7.568C10.7711 7.728 10.7311 7.85067 10.6511 7.936C10.5711 8.02133 10.4538 8.064 10.2991 8.064ZM16.3475 8C16.1715 8 16.0355 7.95467 15.9395 7.864C15.8488 7.768 15.8035 7.632 15.8035 7.456V2.904C15.8035 2.728 15.8488 2.59467 15.9395 2.504C16.0355 2.408 16.1715 2.36 16.3475 2.36H17.8995C18.8435 2.36 19.5715 2.60267 20.0835 3.088C20.6008 3.57333 20.8595 4.26933 20.8595 5.176C20.8595 5.62933 20.7928 6.032 20.6595 6.384C20.5315 6.73067 20.3395 7.024 20.0835 7.264C19.8328 7.504 19.5235 7.688 19.1555 7.816C18.7928 7.93867 18.3742 8 17.8995 8H16.3475ZM16.8275 7.152H17.8355C18.1662 7.152 18.4515 7.112 18.6915 7.032C18.9368 6.94667 19.1395 6.824 19.2995 6.664C19.4648 6.49867 19.5875 6.29333 19.6675 6.048C19.7475 5.79733 19.7875 5.50667 19.7875 5.176C19.7875 4.51467 19.6248 4.02133 19.2995 3.696C18.9742 3.37067 18.4862 3.208 17.8355 3.208H16.8275V7.152ZM25.9411 8.064C25.7758 8.064 25.6478 8.01867 25.5571 7.928C25.4718 7.832 25.4291 7.70133 25.4291 7.536V3.216H23.8691C23.7305 3.216 23.6211 3.17867 23.5411 3.104C23.4665 3.024 23.4291 2.91733 23.4291 2.784C23.4291 2.64533 23.4665 2.54133 23.5411 2.472C23.6211 2.39733 23.7305 2.36 23.8691 2.36H28.0131C28.1518 2.36 28.2585 2.39733 28.3331 2.472C28.4131 2.54133 28.4531 2.64533 28.4531 2.784C28.4531 2.91733 28.4131 3.024 28.3331 3.104C28.2585 3.17867 28.1518 3.216 28.0131 3.216H26.4531V7.536C26.4531 7.70133 26.4105 7.832 26.3251 7.928C26.2398 8.01867 26.1118 8.064 25.9411 8.064ZM29.5499 8.064C29.3845 8.064 29.2565 8.01867 29.1659 7.928C29.0805 7.832 29.0379 7.70133 29.0379 7.536V2.824C29.0379 2.65333 29.0805 2.52267 29.1659 2.432C29.2565 2.34133 29.3845 2.296 29.5499 2.296C29.7152 2.296 29.8405 2.34133 29.9259 2.432C30.0165 2.52267 30.0619 2.65333 30.0619 2.824V4.712H32.9659V2.824C32.9659 2.65333 33.0085 2.52267 33.0939 2.432C33.1845 2.34133 33.3125 2.296 33.4779 2.296C33.6432 2.296 33.7685 2.34133 33.8539 2.432C33.9445 2.52267 33.9899 2.65333 33.9899 2.824V7.536C33.9899 7.70133 33.9445 7.832 33.8539 7.928C33.7685 8.01867 33.6432 8.064 33.4779 8.064C33.3125 8.064 33.1845 8.01867 33.0939 7.928C33.0085 7.832 32.9659 7.70133 32.9659 7.536V5.568H30.0619V7.536C30.0619 7.70133 30.0192 7.832 29.9339 7.928C29.8485 8.01867 29.7205 8.064 29.5499 8.064ZM35.7694 8C35.5934 8 35.4574 7.95467 35.3614 7.864C35.2707 7.768 35.2254 7.632 35.2254 7.456V2.904C35.2254 2.728 35.2707 2.59467 35.3614 2.504C35.4574 2.408 35.5934 2.36 35.7694 2.36H38.6254C38.7587 2.36 38.86 2.39467 38.9294 2.464C39.004 2.53333 39.0414 2.632 39.0414 2.76C39.0414 2.89333 39.004 2.99733 38.9294 3.072C38.86 3.14133 38.7587 3.176 38.6254 3.176H36.2094V4.728H38.4494C38.588 4.728 38.692 4.76267 38.7614 4.832C38.8307 4.90133 38.8654 5.00267 38.8654 5.136C38.8654 5.26933 38.8307 5.37067 38.7614 5.44C38.692 5.50933 38.588 5.544 38.4494 5.544H36.2094V7.184H38.6254C38.7587 7.184 38.86 7.21867 38.9294 7.288C39.004 7.35733 39.0414 7.45867 39.0414 7.592C39.0414 7.72533 39.004 7.82667 38.9294 7.896C38.86 7.96533 38.7587 8 38.6254 8H35.7694ZM3.328 19.08C2.704 19.08 2.176 18.9627 1.744 18.728C1.31733 18.4933 0.992 18.16 0.768 17.728C0.544 17.296 0.432 16.784 0.432 16.192C0.432 15.744 0.496 15.3413 0.624 14.984C0.757333 14.6267 0.946667 14.3227 1.192 14.072C1.44267 13.816 1.74667 13.6213 2.104 13.488C2.46133 13.3493 2.86667 13.28 3.32 13.28C3.61867 13.28 3.91733 13.3173 4.216 13.392C4.52 13.4613 4.80533 13.5813 5.072 13.752C5.16267 13.8107 5.22133 13.8827 5.248 13.968C5.28 14.0533 5.28533 14.1413 5.264 14.232C5.24267 14.3173 5.20267 14.392 5.144 14.456C5.08533 14.52 5.01067 14.56 4.92 14.576C4.83467 14.592 4.73867 14.5707 4.632 14.512C4.42933 14.3947 4.224 14.3093 4.016 14.256C3.808 14.2027 3.576 14.176 3.32 14.176C2.92533 14.176 2.592 14.256 2.32 14.416C2.048 14.5707 1.84267 14.7973 1.704 15.096C1.57067 15.3947 1.504 15.76 1.504 16.192C1.504 16.848 1.66133 17.3467 1.976 17.688C2.29067 18.0293 2.75733 18.2 3.376 18.2C3.58933 18.2 3.80533 18.1787 4.024 18.136C4.24267 18.0933 4.456 18.0347 4.664 17.96L4.464 18.416V16.712H3.584C3.45067 16.712 3.34667 16.6773 3.272 16.608C3.20267 16.5387 3.168 16.4453 3.168 16.328C3.168 16.2053 3.20267 16.112 3.272 16.048C3.34667 15.984 3.45067 15.952 3.584 15.952H4.904C5.03733 15.952 5.13867 15.9893 5.208 16.064C5.28267 16.1333 5.32 16.2347 5.32 16.368V18.312C5.32 18.4293 5.296 18.528 5.248 18.608C5.20533 18.688 5.13333 18.7467 5.032 18.784C4.79733 18.8693 4.528 18.9413 4.224 19C3.92 19.0533 3.62133 19.08 3.328 19.08ZM6.56263 19.064C6.43463 19.064 6.33063 19.0347 6.25063 18.976C6.17596 18.9173 6.13063 18.84 6.11463 18.744C6.09863 18.6427 6.11729 18.5307 6.17063 18.408L8.28263 13.728C8.35196 13.5733 8.43463 13.464 8.53063 13.4C8.63196 13.3307 8.74663 13.296 8.87463 13.296C8.99729 13.296 9.10663 13.3307 9.20263 13.4C9.30396 13.464 9.38929 13.5733 9.45863 13.728L11.5786 18.408C11.6373 18.5307 11.6586 18.6427 11.6426 18.744C11.6266 18.8453 11.5813 18.9253 11.5066 18.984C11.432 19.0373 11.3333 19.064 11.2106 19.064C11.0613 19.064 10.944 19.0293 10.8586 18.96C10.7786 18.8853 10.7066 18.7733 10.6426 18.624L10.1226 17.416L10.5546 17.696H7.17863L7.61063 17.416L7.09863 18.624C7.02929 18.7787 6.95729 18.8907 6.88263 18.96C6.80796 19.0293 6.70129 19.064 6.56263 19.064ZM8.85863 14.472L7.73863 17.136L7.53063 16.88H10.2026L10.0026 17.136L8.87463 14.472H8.85863ZM12.9718 19.064C12.8064 19.064 12.6784 19.0187 12.5878 18.928C12.5024 18.832 12.4598 18.7013 12.4598 18.536V13.88C12.4598 13.7093 12.5051 13.5813 12.5958 13.496C12.6864 13.4053 12.8144 13.36 12.9798 13.36H14.9078C15.5264 13.36 16.0038 13.5147 16.3398 13.824C16.6758 14.1333 16.8438 14.5653 16.8438 15.12C16.8438 15.6747 16.6758 16.1093 16.3398 16.424C16.0038 16.7333 15.5264 16.888 14.9078 16.888H13.4838V18.536C13.4838 18.7013 13.4411 18.832 13.3558 18.928C13.2704 19.0187 13.1424 19.064 12.9718 19.064ZM13.4838 16.08H14.7478C15.1104 16.08 15.3851 16 15.5718 15.84C15.7584 15.6747 15.8518 15.4347 15.8518 15.12C15.8518 14.8053 15.7584 14.568 15.5718 14.408C15.3851 14.248 15.1104 14.168 14.7478 14.168H13.4838V16.08Z" fill="#3E2D7B"/>
<path d="M28.8892 33.605L24.2767 33.7613L24.2837 13L28.9048 13.0486L28.8892 33.605Z" fill="url(#paint0_linear_54_54)"/>
<g style="mix-blend-mode:soft-light" opacity="0.5">
<path d="M28.3304 15.8864L24.948 15.8708V14.4246L28.3321 14.4523L28.3304 15.8864Z" fill="white"/>
</g>
<path d="M24.2837 13.2004L22 14.4001V33.9999L24.2768 33.9617L24.2837 13.2004Z" fill="#E25A44"/>
<path d="M36.8892 33.605L32.2767 33.7613L32.2837 13L36.9048 13.0486L36.8892 33.605Z" fill="url(#paint1_linear_54_54)"/>
<g style="mix-blend-mode:soft-light" opacity="0.5">
<path d="M36.3304 15.8864L32.948 15.8708V14.4246L36.3321 14.4523L36.3304 15.8864Z" fill="white"/>
</g>
<path d="M32.2837 13.2004L30 14.4001V33.9999L32.2768 33.9617L32.2837 13.2004Z" fill="#1BB3BD"/>
<path d="M2.01196 22.5863L15.4529 22L30.9387 22.5455L15.6612 25.8953L2.01196 22.5863Z" fill="#222744"/>
<path d="M12.8414 35.5849L1.95352 32.6431C0.858633 32.3474 0 31.2563 0 30.2137C0 29.1558 0.853551 28.4471 1.94843 28.6408L13.634 30.5604L12.8414 35.5849Z" fill="#4E88FF"/>
<path d="M30.9591 33.3773L13.3673 35.3479C13.1191 35.3873 12.8654 35.3723 12.6236 35.3038C12.3818 35.2354 12.1576 35.1151 11.9666 34.9512C11.7756 34.7874 11.6223 34.584 11.5172 34.355C11.4121 34.1259 11.3578 33.8768 11.3579 33.6246V32.893C11.3762 32.3552 11.5912 31.843 11.9618 31.4542C12.3325 31.0653 12.8328 30.827 13.3673 30.7848L30.9591 29.3801C30.1792 30.8332 30.0014 32.1945 30.9591 33.3773Z" fill="white"/>
<path d="M31.1114 33.5709L13.5145 35.567C12.0767 35.7302 10.8853 34.7207 10.8853 33.3109V33.2956C10.9122 32.5937 11.1947 31.9261 11.6793 31.4192C12.1638 30.9123 12.8168 30.6012 13.5145 30.545L31.1114 29.1659C31.1373 29.1651 31.163 29.1698 31.187 29.1796C31.211 29.1894 31.2326 29.2042 31.2506 29.2229C31.2685 29.2416 31.2824 29.2639 31.2912 29.2883C31.3 29.3128 31.3037 29.3388 31.3019 29.3647C31.3037 29.4194 31.2852 29.4729 31.25 29.5148C31.2148 29.5567 31.1654 29.5841 31.1114 29.5916L13.5145 31.0294C12.9525 31.0776 12.4275 31.3305 12.0386 31.7405C11.6497 32.1505 11.4238 32.6892 11.4035 33.2548V33.2727C11.4037 33.5377 11.4611 33.7996 11.5715 34.0404C11.6819 34.2811 11.8428 34.4951 12.0433 34.6677C12.2437 34.8403 12.479 34.9674 12.7329 35.0403C12.9868 35.1133 13.2534 35.1303 13.5145 35.0903L31.1114 33.1478C31.1369 33.1459 31.1625 33.1495 31.1865 33.1584C31.2105 33.1674 31.2322 33.1814 31.2503 33.1995C31.2684 33.2177 31.2824 33.2395 31.2913 33.2636C31.3002 33.2877 31.3038 33.3134 31.3019 33.339C31.3033 33.3942 31.2848 33.448 31.2498 33.4906C31.2148 33.5332 31.1656 33.5618 31.1114 33.5709V33.5709Z" fill="#222744"/>
<path d="M13.2986 30.5452L1.95352 28.6154C0.858632 28.4293 0 26.9788 0 25.3931V25.3702C0 23.782 0.853551 22.5227 1.94843 22.566L13.9845 23.0147L13.2986 30.5452Z" fill="#222744"/>
<path d="M30.9591 28.86L14.353 30.1168C13.975 30.1564 13.5929 30.1159 13.2316 29.9979C12.8702 29.8799 12.5375 29.6871 12.2552 29.4318C11.9728 29.1766 11.747 28.8647 11.5925 28.5163C11.4379 28.1679 11.358 27.7908 11.3579 27.4095V26.3108C11.3754 25.5189 11.6964 24.7643 12.2543 24.204C12.8122 23.6437 13.5639 23.3208 14.353 23.3026L30.9591 22.8489C30.1767 25.0361 30.0039 27.0755 30.9591 28.86Z" fill="white"/>
<path d="M31.1114 29.1659L13.5145 30.5451C12.0767 30.6572 10.8853 29.0308 10.8853 26.9149V26.8996C10.8853 24.7863 12.0767 23.035 13.5145 22.9993L31.1114 22.5659C31.2181 22.5659 31.3019 22.7036 31.3019 22.8795C31.3019 23.0554 31.2181 23.2032 31.1114 23.2058L13.5145 23.736C12.3586 23.7692 11.4035 25.1789 11.4035 26.8792V26.8996C11.4035 28.5974 12.3586 29.9078 13.5145 29.8236L31.1114 28.549C31.2181 28.549 31.3019 28.6765 31.3019 28.8524C31.3019 29.0283 31.2181 29.1583 31.1114 29.1659Z" fill="#4E88FF"/>
<path d="M9.7804 28.9544L7.36709 28.5287C6.80059 26.9788 6.84378 25.5537 7.36709 23.8508L9.79057 24.0242C9.32798 25.6343 9.32446 27.3424 9.7804 28.9544V28.9544Z" fill="#4E88FF"/>
<defs>
<linearGradient id="paint0_linear_54_54" x1="27.974" y1="7.72721" x2="20.6516" y2="89.3493" gradientUnits="userSpaceOnUse">
<stop stop-color="#FFC444"/>
<stop offset="1" stop-color="#F36F56"/>
</linearGradient>
<linearGradient id="paint1_linear_54_54" x1="35.974" y1="7.72721" x2="28.6516" y2="89.3493" gradientUnits="userSpaceOnUse">
<stop stop-color="#66D6DD"/>
<stop offset="1" stop-color="#1B8289"/>
</linearGradient>
</defs>
</svg>
