<svg height="70" viewBox="0 0 105 70" width="105" xmlns="http://www.w3.org/2000/svg" xmlns:xlink="http://www.w3.org/1999/xlink"><clipPath id="a"><rect height="70" rx="12" width="105" x="-3469" y="730"/></clipPath><g transform="translate(3469 -730)"><rect fill="#b4b4e7" height="70" rx="12" width="105" x="-3469" y="730"/><text fill="#090909" font-family="Archivo-Bold, Archivo" font-size="12" font-weight="700" transform="translate(-3457 752)"><tspan x="0" y="0">Moments</tspan></text><g clip-path="url(#a)"><path d="m41.491 167.183h-41.491v-39.183h52.244v28.43zm0 0" fill="#e4edfb" transform="matrix(.951 -.309 .309 .951 -3455.053151 657.259011)"/><path d="m0 128h52.244v6.53h-52.244zm0 0" fill="#d7e1f2" transform="matrix(.951 -.309 .309 .951 -3455.053151 657.259011)"/><path d="m67.265 6.53h-3.265v-4.9a1.633 1.633 0 1 1 3.265 0zm0 0" fill="#bfc9d1" transform="matrix(.951 -.309 .309 .951 -3474.19097 784.32423)"/><path d="m419.265 6.53h-3.265v-4.9a1.633 1.633 0 0 1 3.265 0zm0 0" fill="#bfc9d1" transform="matrix(.951 -.309 .309 .951 -3774.784952 881.993568)"/><path d="m406.625 406.625v10.752l10.752-10.752zm0 0" fill="#c8d5e8" transform="matrix(.951 -.309 .309 .951 -3879.60584 532.149972)"/><path d="m52.244 59.428h-52.244v-8.163a3.265 3.265 0 0 1 3.265-3.265h45.713a3.265 3.265 0 0 1 3.265 3.265zm0 0" fill="#ff7761" transform="matrix(.951 -.309 .309 .951 -3432.855518 725.575998)"/><path d="m146.32 221.371-8.233-4.173-8.233 4.173 1.572-8.849-6.738-6.329 9.306-1.3 4.093-7.995 4.093 7.995 9.306 1.3-6.738 6.329zm0 0" fill="#ffda6b" transform="matrix(.951 -.309 .309 .951 -3580.648151 633.022581)"/><path d="m191.779 291.728-8.233-4.173-8.233 4.173 1.572-8.849 10.754-7.632 9.306 1.3-6.738 6.33zm0 0" fill="#f5cd00" transform="matrix(.951 -.309 .309 .951 -3645.619973 580.159905)"/></g></g></svg>