<svg width="17" height="24" viewBox="0 0 17 24" fill="none" xmlns="http://www.w3.org/2000/svg">
    <path fill-rule="evenodd" clip-rule="evenodd"
        d="M15.2071 8.39488C15.2071 9.79598 15.539 10.6217 16.2695 11.5734C16.8231 12.2745 17 13.1744 17 14.1508C17 15.126 16.7128 16.0518 16.1373 16.8034C15.384 17.7046 14.3215 18.2797 13.2372 18.3798C11.6659 18.5292 10.0937 18.655 8.5005 18.655C6.9063 18.655 5.33505 18.5798 3.76375 18.3798C2.67846 18.2797 1.61602 17.7046 0.86367 16.8034C0.28822 16.0518 0 15.126 0 14.1508C0 13.1744 0.1779 12.2745 0.73049 11.5734C1.48384 10.6217 1.79392 9.79598 1.79392 8.39488V7.91963C1.79392 6.04331 2.21333 4.81641 3.077 3.61534C4.36106 1.86375 6.41935 0.813232 8.4558 0.813232H8.5452C10.6254 0.813232 12.7502 1.9143 14.0125 3.74117C14.8314 4.91752 15.2071 6.09274 15.2071 7.91963V8.39488ZM5.57367 20.961C5.57367 20.3993 6.03582 20.1419 6.46318 20.0318C6.9631 19.9139 10.0093 19.9139 10.5092 20.0318C10.9366 20.1419 11.3987 20.3993 11.3987 20.961C11.3738 21.4958 11.0926 21.97 10.704 22.2711C10.2001 22.7093 9.6088 22.9867 8.9906 23.0868C8.6487 23.1362 8.3128 23.1373 7.9828 23.0868C7.3636 22.9867 6.7723 22.7093 6.26938 22.27C5.87978 21.97 5.59852 21.4958 5.57367 20.961Z"
        fill="#222744" />
</svg>
