<svg width="42" height="51" viewBox="0 0 42 51" fill="none" xmlns="http://www.w3.org/2000/svg">
<path d="M9.55469 0L41.7672 7.16601L32.2126 50.1161L5.42402e-06 42.9501L9.55469 0Z" fill="#C6D5EA"/>
<path d="M5.3894 2.33838L38.356 3.82201L36.3779 47.7775L3.41122 46.2939L5.3894 2.33838Z" fill="#E2EBF8"/>
<path d="M2.38354 1.05811H23.3835C30.011 1.05811 35.3835 6.43069 35.3835 13.0581V45.0581H2.38354V1.05811Z" fill="#FAFCFF"/>
<path d="M27.3835 12.0581C29.7835 6.85811 26.3835 2.55811 24.3835 1.05811C32.3835 1.05811 35.3835 9.05811 35.3835 13.0581C34.1835 9.45811 29.5502 10.8914 27.3835 12.0581Z" fill="#C6D5EA"/>
<line x1="5.88354" y1="15.5581" x2="30.8835" y2="15.5581" stroke="#AFC3DB" stroke-linecap="round"/>
<line x1="5.88354" y1="21.5581" x2="30.8835" y2="21.5581" stroke="#AFC3DB" stroke-linecap="round"/>
<line x1="5.88354" y1="27.5581" x2="30.8835" y2="27.5581" stroke="#AFC3DB" stroke-linecap="round"/>
<line x1="5.88354" y1="33.5581" x2="30.8835" y2="33.5581" stroke="#AFC3DB" stroke-linecap="round"/>
<line x1="5.88354" y1="40.5581" x2="30.8835" y2="40.5581" stroke="#AFC3DB" stroke-linecap="round"/>
<path d="M7.13954 11.1001C7.06354 11.1001 7.00554 11.0801 6.96554 11.0401C6.92554 10.9961 6.90554 10.9341 6.90554 10.8541V7.03811C6.90554 6.95811 6.92554 6.89611 6.96554 6.85211C7.00554 6.80811 7.05754 6.78611 7.12154 6.78611C7.18554 6.78611 7.23155 6.79811 7.25954 6.82211C7.29155 6.84211 7.32754 6.88011 7.36754 6.93611L9.98355 10.4221H9.83955V7.02611C9.83955 6.95011 9.85955 6.89211 9.89955 6.85211C9.93955 6.80811 9.99755 6.78611 10.0735 6.78611C10.1455 6.78611 10.1995 6.80811 10.2355 6.85211C10.2755 6.89211 10.2955 6.95011 10.2955 7.02611V10.8601C10.2955 10.9361 10.2775 10.9961 10.2415 11.0401C10.2095 11.0801 10.1615 11.1001 10.0975 11.1001C10.0375 11.1001 9.98955 11.0881 9.95355 11.0641C9.91755 11.0401 9.87955 11.0021 9.83955 10.9501L7.22954 7.46411H7.36754V10.8541C7.36754 10.9341 7.34754 10.9961 7.30755 11.0401C7.26754 11.0801 7.21154 11.1001 7.13954 11.1001ZM12.715 11.1121C12.527 11.1121 12.343 11.0961 12.163 11.0641C11.983 11.0321 11.815 10.9861 11.659 10.9261C11.507 10.8661 11.369 10.7901 11.245 10.6981C11.197 10.6621 11.163 10.6221 11.143 10.5781C11.127 10.5301 11.123 10.4841 11.131 10.4401C11.143 10.3921 11.163 10.3521 11.191 10.3201C11.223 10.2881 11.261 10.2701 11.305 10.2661C11.349 10.2621 11.397 10.2761 11.449 10.3081C11.629 10.4361 11.821 10.5301 12.025 10.5901C12.229 10.6461 12.459 10.6741 12.715 10.6741C13.075 10.6741 13.341 10.6081 13.513 10.4761C13.689 10.3401 13.777 10.1621 13.777 9.94211C13.777 9.76211 13.713 9.62211 13.585 9.52211C13.461 9.41811 13.251 9.33611 12.955 9.27611L12.331 9.15011C11.955 9.07011 11.673 8.94011 11.485 8.76011C11.301 8.57611 11.209 8.33211 11.209 8.02811C11.209 7.84011 11.247 7.67011 11.323 7.51811C11.399 7.36211 11.505 7.23011 11.641 7.12211C11.777 7.01011 11.939 6.92411 12.127 6.86411C12.315 6.80411 12.523 6.77411 12.751 6.77411C13.003 6.77411 13.237 6.81011 13.453 6.88211C13.673 6.95011 13.871 7.05411 14.047 7.19411C14.091 7.23011 14.121 7.27211 14.137 7.32011C14.153 7.36411 14.155 7.40811 14.143 7.45211C14.131 7.49211 14.109 7.52611 14.077 7.55411C14.049 7.58211 14.011 7.59811 13.963 7.60211C13.919 7.60611 13.869 7.59011 13.813 7.55411C13.653 7.43411 13.487 7.34811 13.315 7.29611C13.143 7.24011 12.953 7.21211 12.745 7.21211C12.533 7.21211 12.349 7.24411 12.193 7.30811C12.041 7.37211 11.921 7.46611 11.833 7.59011C11.749 7.71011 11.707 7.85011 11.707 8.01011C11.707 8.20211 11.765 8.35411 11.881 8.46611C12.001 8.57811 12.195 8.66011 12.463 8.71211L13.087 8.84411C13.491 8.92811 13.789 9.05611 13.981 9.22811C14.177 9.39611 14.275 9.62611 14.275 9.91811C14.275 10.0941 14.239 10.2561 14.167 10.4041C14.095 10.5521 13.991 10.6801 13.855 10.7881C13.719 10.8921 13.555 10.9721 13.363 11.0281C13.171 11.0841 12.955 11.1121 12.715 11.1121ZM16.8684 11.1121C16.4524 11.1121 16.0964 11.0241 15.8004 10.8481C15.5044 10.6721 15.2764 10.4221 15.1164 10.0981C14.9604 9.77411 14.8824 9.38811 14.8824 8.94011C14.8824 8.60411 14.9264 8.30411 15.0144 8.04011C15.1064 7.77211 15.2364 7.54611 15.4044 7.36211C15.5764 7.17411 15.7864 7.03011 16.0344 6.93011C16.2824 6.82611 16.5604 6.77411 16.8684 6.77411C17.1164 6.77411 17.3524 6.81011 17.5764 6.88211C17.8004 6.95011 17.9944 7.05211 18.1584 7.18811C18.2104 7.22811 18.2444 7.27411 18.2604 7.32611C18.2804 7.37411 18.2824 7.42211 18.2664 7.47011C18.2544 7.51411 18.2304 7.55211 18.1944 7.58411C18.1624 7.61211 18.1224 7.62611 18.0744 7.62611C18.0264 7.62611 17.9724 7.60611 17.9124 7.56611C17.7684 7.45011 17.6104 7.36411 17.4384 7.30811C17.2664 7.25211 17.0804 7.22411 16.8804 7.22411C16.5644 7.22411 16.2964 7.29211 16.0764 7.42811C15.8564 7.56011 15.6904 7.75411 15.5784 8.01011C15.4664 8.26611 15.4104 8.57611 15.4104 8.94011C15.4104 9.30411 15.4664 9.61611 15.5784 9.87611C15.6904 10.1321 15.8564 10.3281 16.0764 10.4641C16.2964 10.5961 16.5644 10.6621 16.8804 10.6621C17.0764 10.6621 17.2624 10.6341 17.4384 10.5781C17.6144 10.5181 17.7764 10.4301 17.9244 10.3141C17.9844 10.2741 18.0384 10.2561 18.0864 10.2601C18.1344 10.2601 18.1744 10.2741 18.2064 10.3021C18.2384 10.3301 18.2604 10.3661 18.2724 10.4101C18.2884 10.4541 18.2884 10.5001 18.2724 10.5481C18.2604 10.5961 18.2304 10.6381 18.1824 10.6741C18.0144 10.8181 17.8164 10.9281 17.5884 11.0041C17.3644 11.0761 17.1244 11.1121 16.8684 11.1121Z" fill="#AFC3DB"/>
</svg>
