<svg height="7.835" viewBox="0 0 7.835 7.835" width="7.835" xmlns="http://www.w3.org/2000/svg"><path d="m3.917 0a3.917 3.917 0 1 0 3.918 3.917 3.917 3.917 0 0 0 -3.918-3.917zm2.823 2.285h-1.051a6.423 6.423 0 0 0 -.921-1.516 3.275 3.275 0 0 1 1.972 1.516zm-1.353 1.632a3.333 3.333 0 0 1 -.155.979h-2.632a3.333 3.333 0 0 1 -.155-.979 3.333 3.333 0 0 1 .155-.979h2.631a3.333 3.333 0 0 1 .155.979zm-2.521 1.633h2.1a6.4 6.4 0 0 1 -1.052 1.5 6.389 6.389 0 0 1 -1.052-1.5zm0-3.265a6.4 6.4 0 0 1 1.051-1.498 6.389 6.389 0 0 1 1.052 1.5zm.2-1.516a6.423 6.423 0 0 0 -.923 1.516h-1.048a3.275 3.275 0 0 1 1.974-1.516zm-2.266 2.169h1.126a3.923 3.923 0 0 0 -.131.979 3.923 3.923 0 0 0 .131.979h-1.126a3.262 3.262 0 0 1 0-1.959zm.295 2.612h1.051a6.423 6.423 0 0 0 .923 1.516 3.275 3.275 0 0 1 -1.974-1.516zm3.673 1.516a6.423 6.423 0 0 0 .921-1.516h1.051a3.275 3.275 0 0 1 -1.972 1.516zm2.264-2.166h-1.123a3.923 3.923 0 0 0 .131-.979 3.923 3.923 0 0 0 -.131-.979h1.122a3.262 3.262 0 0 1 0 1.959z" fill="#090909"/></svg>