<svg width="42" height="40" viewBox="0 0 42 40" fill="none" xmlns="http://www.w3.org/2000/svg">
<path d="M41.5686 4.93921H3.99998C1.79084 4.93921 -2.28882e-05 6.73007 -2.28882e-05 8.93921V30.51C-2.28882e-05 32.7191 1.79084 34.51 3.99998 34.51H37.5686C39.7777 34.51 41.5686 32.7191 41.5686 30.51V4.93921Z" fill="#E0A12F"/>
<path d="M41.5686 4C41.5686 1.79086 39.7777 0 37.5686 0H27.2011C26.4011 0 25.678 0.476794 25.3628 1.21216L23.5294 5.4902H41.5686V4Z" fill="#E0A12F"/>
<rect x="3.13721" y="8.62744" width="35.2941" height="25.8824" rx="1" fill="white"/>
<path d="M0 15.6863H37.5686C39.7778 15.6863 41.5686 17.4771 41.5686 19.6863V36C41.5686 38.2091 39.7778 40 37.5686 40H4C1.79086 40 0 38.2091 0 36V15.6863Z" fill="#FCB83E"/>
<path d="M0 14.9802C0 12.7711 1.79086 10.9802 4 10.9802H15.2345C15.9921 10.9802 16.6846 11.4082 17.0234 12.0858L18.8235 15.6861H0V14.9802Z" fill="#FCB83E"/>
<rect x="20.0168" y="21.1765" width="2.31884" height="8.69565" rx="1" fill="#3B3B8C"/>
<path d="M21.8585 33.8737C21.4743 34.2319 20.8785 34.2319 20.4944 33.8737L16.5062 30.1541C15.8423 29.535 16.2804 28.4228 17.1882 28.4228L25.1646 28.4228C26.0724 28.4228 26.5105 29.535 25.8466 30.1541L21.8585 33.8737Z" fill="#3B3B8C"/>
</svg>
