<svg fill="none" height="70" viewBox="0 0 74 70" width="74" xmlns="http://www.w3.org/2000/svg"><path d="m52.312 7.67958-23.1591-7.67958-23.15905 7.6825c-1.74441.57855-3.26233 1.69217-4.33827 3.1828-1.075935 1.4905-1.65520832 3.2823-1.65558 5.121v18.9875c0 21.945 26.8207 34.0637 27.9693 34.5683l1.032.4579 1.0729-.3558c1.1515-.385 28.2317-9.6542 28.2317-34.6704v-18.9875c.0002-1.8392-.5788-3.6316-1.6547-5.1228-1.076-1.49115-2.5943-2.6052-4.3392-3.18392z" fill="#4ba484"/><path d="m13.0117 32.5224 10.2381 12.1129 24.8443-19.2706" stroke="#fff" stroke-linecap="round" stroke-linejoin="round" stroke-width="4"/><path clip-rule="evenodd" d="m67.1294 6.09412c3.3137 0 6 2.68628 6 5.99998v9.2471c0 3.3137-2.6863 6-6 6h-29.3412c-.0056 0-.0111 0-.0167 0h-13.2304l7.2471-6.3672v-8.8799c0-3.31369 2.6863-5.99998 6-5.99998z" fill="#000" fill-opacity=".2" fill-rule="evenodd"/><path clip-rule="evenodd" d="m65.6472 3.45874c3.3137 0 6 2.68629 6 6v9.24706c0 3.3137-2.6863 6-6 6h-18.3315-24.2567l7.247-6.367v-8.88006c0-3.31371 2.6863-6 6-6z" fill="#f7cc7f" fill-rule="evenodd"/><path d="m54.0196 19.4215c0 .3094-.1213.6062-.3373.825-.2159.2187-.5089.3416-.8143.3416h-4.6066c-.3055 0-.5984-.1229-.8144-.3416-.216-.2188-.3373-.5156-.3373-.825s.1213-.6061.3373-.8249.5089-.3417.8144-.3417h4.6066c.3054 0 .5984.1229.8143.3417.216.2188.3373.5155.3373.8249zm-.3374-11.32426c-.216-.2187-.5088-.34157-.8142-.34157s-.5983.12287-.8142.34157l-1.4891 1.50843-1.4891-1.50843c-.1062-.11142-.2333-.2003-.3738-.26144s-.2917-.09332-.4446-.09467c-.1529-.00134-.3045.02817-.4461.08683-.1415.05866-.2701.14528-.3782.25482-.1082.10954-.1937.23979-.2516.38316-.0579.14338-.087.297-.0857.4519s.0331.30798.0935.45031c.0603.14233.1481.27106.258.37868l1.4891 1.50847-1.4891 1.5084c-.1099.1076-.1977.2363-.258.3787-.0604.1423-.0922.2954-.0935.4503s.0278.3085.0857.4519c.0579.1433.1434.2736.2516.3831.1081.1096.2367.1962.3782.2549.1416.0586.2932.0881.4461.0868.1529-.0014.3041-.0335.4446-.0947.1405-.0611.2676-.15.3738-.2614l1.4891-1.5085 1.4891 1.5085c.2172.2125.5081.3301.81.3274.302-.0026.5909-.1253.8044-.3416s.3346-.5089.3372-.8148c.0027-.3059-.1134-.6006-.3232-.8206l-1.4891-1.5084 1.4891-1.50847c.2159-.21877.3372-.51545.3372-.82479 0-.30935-.1213-.60603-.3372-.8248zm8.399 10.15766h-4.6066c-.3054 0-.5984.1229-.8143.3417-.216.2188-.3373.5155-.3373.8249s.1213.6062.3373.825c.2159.2187.5089.3416.8143.3416h4.6066c.3055 0 .5984-.1229.8144-.3416.2159-.2188.3373-.5156.3373-.825s-.1214-.6061-.3373-.8249c-.216-.2188-.5089-.3417-.8144-.3417zm-.6748-6.9996 1.489-1.50847c.11-.10762.1978-.23635.2581-.37868.0604-.14233.0922-.29541.0935-.45031s-.0278-.30852-.0857-.4519c-.0579-.14337-.1434-.27362-.2516-.38316-.1081-.10954-.2367-.19616-.3782-.25482-.1416-.05866-.2932-.08817-.4461-.08683-.1529.00135-.3041.03353-.4446.09467s-.2676.15002-.3738.26144l-1.4891 1.50843-1.4891-1.50843c-.1062-.11142-.2333-.2003-.3738-.26144s-.2916-.09332-.4445-.09467c-.153-.00134-.3046.02817-.4461.08683-.1416.05866-.2702.14528-.3783.25482s-.1936.23979-.2515.38316c-.0579.14338-.0871.297-.0858.4519.0014.1549.0331.30798.0935.45031s.1481.27106.2581.37868l1.4891 1.50847-1.4891 1.5084c-.11.1076-.1977.2363-.2581.3787-.0604.1423-.0921.2954-.0935.4503-.0013.1549.0279.3085.0858.4519.0579.1433.1434.2736.2515.3831.1081.1096.2367.1962.3783.2549.1415.0586.2931.0881.4461.0868.1529-.0014.304-.0335.4445-.0947.1405-.0611.2676-.15.3738-.2614l1.4891-1.5085 1.4891 1.5085c.2172.2125.5081.3301.8101.3274.3019-.0026.5908-.1253.8043-.3416s.3347-.5089.3373-.8148-.1135-.6006-.3233-.8206zm-17.7517 6.9996h-4.6066c-.3054 0-.5983.1229-.8143.3417s-.3373.5155-.3373.8249.1213.6062.3373.825c.216.2187.5089.3416.8143.3416h4.6066c.3055 0 .5984-.1229.8144-.3416.216-.2188.3373-.5156.3373-.825s-.1213-.6061-.3373-.8249-.5089-.3417-.8144-.3417zm.8143-10.15766c-.216-.2187-.5089-.34157-.8143-.34157-.3053 0-.5982.12287-.8142.34157l-1.4891 1.50843-1.489-1.50843c-.1063-.11142-.2334-.2003-.3739-.26144s-.2916-.09332-.4445-.09467c-.1529-.00134-.3046.02817-.4461.08683s-.2701.14528-.3783.25482c-.1081.10954-.1936.23979-.2515.38316-.0579.14338-.0871.297-.0857.4519.0013.1549.0331.30798.0934.45031.0604.14233.1481.27106.2581.37868l1.4891 1.50847-1.4891 1.5084c-.11.1076-.1977.2363-.2581.3787-.0603.1423-.0921.2954-.0934.4503-.0014.1549.0278.3085.0857.4519.0579.1433.1434.2736.2515.3831.1082.1096.2368.1962.3783.2549.1415.0586.2932.0881.4461.0868.1529-.0014.304-.0335.4445-.0947.1405-.0611.2676-.15.3739-.2614l1.489-1.5085 1.4891 1.5085c.1063.1114.2333.2003.3739.2614.1405.0612.2916.0933.4445.0947.1529.0013.3046-.0282.4461-.0868.1415-.0587.2701-.1453.3782-.2549.1082-.1095.1937-.2398.2516-.3831.0579-.1434.087-.297.0857-.4519s-.0331-.308-.0934-.4503c-.0604-.1424-.1481-.2711-.2581-.3787l-1.4891-1.5084 1.4891-1.50847c.2159-.21877.3372-.51545.3372-.82479 0-.30935-.1213-.60603-.3372-.8248z" fill="#fff"/></svg>