<svg height="752pt" preserveAspectRatio="xMidYMid meet" viewBox="0 0 1045 752" width="1045pt" xmlns="http://www.w3.org/2000/svg"><g transform="matrix(.1 0 0 -.1 0 752)"><path d="m5893 6950c-386-41-701-180-948-421-171-166-279-339-354-564-56-171-74-287-74-485s18-314 74-485c176-531 620-886 1223-977 45-6 162-11 261-11 215 1 358 23 536 82 140 47 225 89 349 172 93 63 275 230 268 248-1 5-95 95-208 199l-205 190-75-73c-169-164-358-247-590-261-456-28-826 231-942 657-19 72-22 108-22 259s3 187 22 259c116 424 485 683 938 658 234-13 432-100 597-262 36-36 68-65 71-65 8 0 410 370 414 381 2 5-36 49-85 97-93 92-229 189-346 249-103 51-288 110-419 132-135 23-368 33-485 21z"/><path d="m350 5480v-1430h330 330v400 400h304 303l279-400 279-400h353 353l-44 63c-25 34-169 239-321 456l-276 395 86 45c293 158 459 409 495 751 9 83 9 137 0 217-26 252-100 419-255 581-192 201-460 312-823 342-65 5-405 10-755 10h-638zm1408 874c260-53 402-223 402-484 0-207-88-353-262-435-124-58-185-65-558-65h-330v500 500h335c266 0 352-3 413-16z"/><path d="m3350 5480v-1430h330 330v1430 1430h-330-330z"/><path d="m7910 5533c-337-758-624-1402-637-1431l-23-52 337 2 338 3 125 303 125 302h666 665l125-302 126-303 345-3 345-2-637 1427-637 1428-325 3-325 2zm1164 172 223-540-450-3c-248-1-452-1-454 2-2 2 94 239 213 527s221 535 226 549c6 14 12 21 14 15 3-5 105-253 228-550z"/><path d="m5910 3529c-124-22-218-92-245-182-30-102-14-182 50-243 51-50 113-74 285-115 166-39 222-62 266-111 35-39 36-43 32-103-5-77-38-127-107-159-38-18-65-21-161-21-100 0-122 3-168 24-63 28-129 99-138 147-6 33-8 34-51 34h-45l7-37c29-155 192-263 395-263 204 0 340 98 356 257 8 75-7 129-51 181-51 59-136 96-313 137-217 50-270 81-279 169-7 60 1 89 38 130 61 70 222 98 347 61 61-18 117-70 130-118 8-30 12-32 55-35l46-3-14 46c-27 91-92 157-187 191-53 18-180 25-248 13z"/><path d="m6480 3015v-495h45 45v495 495h-45-45z"/><path d="m6700 3015v-495h45 45l2 382 3 382 160-379 160-380h40 40l140 330c77 182 150 353 162 380l21 50 1-382 1-383h45 45v496 495l-47-3-47-3-176-414c-96-227-179-414-183-415-5 0-88 187-184 417l-176 417h-48-49z"/><path d="m2704 3292c2-4 68-175 146-380 101-266 139-379 134-395-13-44-55-117-86-153-32-36-33-36-91-30l-58 6 3-43 3-42 64-3c147-7 165 20 371 558 72 190 144 378 160 418l28 72h-48-47l-119-315c-66-173-121-315-124-315s-45 107-94 238c-49 130-102 272-118 315l-30 77h-49c-28 0-48-4-45-8z"/><path d="m3627 3290c-133-34-220-134-254-294-35-167 26-358 140-434 63-42 94-53 167-59 203-17 351 129 367 362 12 182-59 330-190 395-69 34-164 46-230 30zm154-92c56-16 114-70 146-136 25-51 28-67 28-162 0-88-4-113-23-155-47-102-123-154-226-155-144 0-242 108-253 280-7 96 20 195 68 254 60 72 166 103 260 74z"/><path d="m4130 3053c0-332 14-406 87-475 83-79 247-87 357-18l46 30v-35c0-35 0-35 45-35h45v390 390h-45-45v-257c0-149-5-274-11-296-13-48-61-102-112-129-32-16-54-19-104-16-74 5-107 25-143 89-25 44-25 46-28 327l-3 282h-45-44z"/><path d="m5050 3289c-25-5-71-22-102-38l-58-30v30c0 28-2 29-45 29h-45v-380-380h45 45v251c0 160 4 266 11 290 25 82 110 148 192 149h37v45c0 50 1 50-80 34z"/><path d="m6056 1459c-79-8-216-45-216-57 0-4-22-17-49-30-91-41-226-174-271-267-14-27-28-51-32-53-15-7-48-136-58-223-7-60-7-118 0-176 10-87 42-211 57-222 4-3 19-28 33-56 50-100 201-245 283-272 9-3 17-9 17-14 0-4 37-20 83-36 75-24 96-27 237-27 136-1 164 2 228 22 40 13 78 29 85 35 7 7 35 23 62 36 51 26 77 46 139 107 56 57 86 90 86 98 0 3 11 24 25 46s25 46 25 55c0 8 4 15 9 15 27 0 62 169 62 300 0 110-30 277-54 303-7 6-25 37-40 69-43 84-174 214-262 258-27 14-51 28-53 32-5 12-131 46-192 53-109 12-126 12-204 4zm232-137c2-6 11-12 20-12 20 0 105-31 142-51 91-51 240-226 240-283 0-8 6-21 13-28 20-21 37-112 37-202 0-84-17-196-30-196-4 0-12-17-18-37-26-87-71-147-183-248-19-17-65-44-104-60-38-16-72-32-75-35-9-11-122-30-179-30-65 0-183 18-191 28-3 4-35 20-72 36-131 55-257 191-298 321-7 22-18 43-24 47-15 10-15 316-1 326 6 4 17 27 24 52 28 95 74 160 185 259 47 42 139 89 189 97 20 4 37 10 37 15 0 13 41 17 164 16 85-2 121-6 124-15z"/><path d="m6055 1103c-28-6-78-26-90-35-5-5-27-22-49-38-42-33-95-98-96-117 0-7-4-13-9-13-15 0-35-92-35-160 0-61 20-159 34-170 3-3 21-26 39-52 17-27 35-48 39-48s23-15 42-33c51-46 119-67 215-67 91 0 161 18 198 51 14 12 36 27 49 33 12 6 27 21 33 33 6 11 16 28 23 36 11 13 8 18-17 33-17 10-31 21-31 25 0 3-11 11-25 17-22 10-27 9-41-14-19-28-92-74-117-74-10 0-17-4-17-10 0-5-22-10-50-10-27 0-50 5-50 10 0 6-10 10-22 10-32 0-106 52-125 86-47 86-46 204 0 286 33 57 112 93 202 92 79-1 121-18 166-67 27-29 30-30 56-16 15 8 37 25 50 38 21 20 22 25 10 40-8 9-17 24-20 34-4 9-12 17-19 17-8 0-29 14-47 31-19 17-55 37-80 45-43 13-171 17-216 7z"/><path d="m4860 750v-370h55 55v370 370h-55-55z"/><path d="m5130 750v-370h65 65v370 370h-65-65z"/><path d="m3711 1095c-24-8-47-18-50-22-3-5-22-19-42-31s-49-39-65-60c-15-20-32-40-37-43-23-16-48-117-49-194 0-82 23-188 45-202 7-5 24-24 39-45 15-20 45-46 65-59 21-13 43-29 50-35 52-51 304-41 362 14 8 8 31 24 52 37 20 13 44 38 52 54 14 29 14 31-9 46-13 8-26 15-29 15s-14 9-26 21l-21 21-41-41c-23-23-58-47-79-53s-38-15-38-20c0-4-22-8-50-8-27 0-50 5-50 10 0 6-8 10-17 11-10 0-38 10-62 22-51 25-86 78-97 147-4 25-12 48-18 53-8 5-8 9 0 15 6 4 14 28 18 54s16 58 27 71c10 14 19 30 19 35 0 18 102 64 155 69 72 8 140-17 189-67 35-37 41-39 56-25 9 8 19 15 23 15 3 0 17 11 31 24 25 22 25 24 10 55-9 18-26 36-38 41-11 4-33 19-49 34-56 52-223 73-326 41z"/><path d="m4445 853c-11-2-29-6-41-8-31-7-124-90-124-112 0-6-8-19-17-28-21-22-26-166-5-172 6-3 12-13 12-24 0-30 91-115 136-128 49-14 128-14 175-1 45 13 131 92 123 113-7 20-93 48-108 36-55-46-61-49-108-49-34 0-50 5-54 15-4 8-12 15-20 15-17 0-47 57-40 76 4 11 39 14 181 14h175v35c0 136-146 248-285 218zm129-129c20-20 33-40 30-45s-54-9-115-9c-124 0-133 7-72 59 53 46 108 44 157-5z"/></g></svg>