<svg width="48" height="38" viewBox="0 0 48 38" fill="none" xmlns="http://www.w3.org/2000/svg">
<rect y="3.6001" width="48" height="33.6" rx="4" fill="#F7CC7F"/>
<rect x="2.3999" y="12" width="43.2" height="22.8" rx="3" fill="#25636B"/>
<rect x="10.8" y="15.6001" width="10.8" height="15.6" rx="1" fill="white"/>
<rect x="25.2" y="15.6001" width="10.8" height="15.6" rx="1" fill="white"/>
<line x1="9.1001" y1="4.30005" x2="9.1001" y2="0.500049" stroke="black" stroke-linecap="round"/>
<line x1="39.1001" y1="4.30005" x2="39.1001" y2="0.500049" stroke="black" stroke-linecap="round"/>
<path d="M9.28 10.04C9.16267 10.04 9.04533 10.0307 8.928 10.012C8.81067 9.996 8.7 9.97067 8.596 9.936C8.492 9.89867 8.39867 9.85333 8.316 9.8C8.268 9.768 8.23467 9.72933 8.216 9.684C8.19733 9.63867 8.19067 9.59467 8.196 9.552C8.204 9.50667 8.22133 9.468 8.248 9.436C8.27733 9.40133 8.31333 9.38 8.356 9.372C8.39867 9.364 8.44533 9.376 8.496 9.408C8.61333 9.47733 8.73733 9.528 8.868 9.56C8.99867 9.592 9.136 9.608 9.28 9.608C9.49067 9.608 9.644 9.57333 9.74 9.504C9.836 9.432 9.884 9.34 9.884 9.228C9.884 9.13467 9.84933 9.06133 9.78 9.008C9.71333 8.95467 9.59733 8.91067 9.432 8.876L8.992 8.784C8.73867 8.73067 8.54933 8.64133 8.424 8.516C8.30133 8.388 8.24 8.22 8.24 8.012C8.24 7.88133 8.26667 7.76267 8.32 7.656C8.37333 7.54933 8.448 7.45733 8.544 7.38C8.64267 7.30267 8.75867 7.244 8.892 7.204C9.028 7.16133 9.17733 7.14 9.34 7.14C9.5 7.14 9.652 7.16 9.796 7.2C9.94 7.24 10.0693 7.29867 10.184 7.376C10.2267 7.40533 10.2547 7.44133 10.268 7.484C10.284 7.52667 10.288 7.56933 10.28 7.612C10.272 7.652 10.2533 7.68667 10.224 7.716C10.1947 7.74533 10.1573 7.76267 10.112 7.768C10.0693 7.77333 10.02 7.76 9.964 7.728C9.86533 7.672 9.76533 7.632 9.664 7.608C9.56267 7.584 9.45333 7.572 9.336 7.572C9.21333 7.572 9.108 7.58933 9.02 7.624C8.932 7.65867 8.864 7.708 8.816 7.772C8.77067 7.83333 8.748 7.90667 8.748 7.992C8.748 8.088 8.78 8.16533 8.844 8.224C8.908 8.28 9.01733 8.324 9.172 8.356L9.608 8.448C9.872 8.504 10.068 8.592 10.196 8.712C10.3267 8.832 10.392 8.992 10.392 9.192C10.392 9.32 10.3653 9.436 10.312 9.54C10.2613 9.644 10.1867 9.73333 10.088 9.808C9.992 9.88267 9.876 9.94 9.74 9.98C9.604 10.02 9.45067 10.04 9.28 10.04ZM12.1434 10.04C11.8501 10.04 11.5981 9.98133 11.3874 9.864C11.1794 9.744 11.0194 9.576 10.9074 9.36C10.7954 9.14133 10.7394 8.884 10.7394 8.588C10.7394 8.36667 10.7714 8.168 10.8354 7.992C10.8994 7.81333 10.9914 7.66133 11.1114 7.536C11.2314 7.408 11.3781 7.31067 11.5514 7.244C11.7274 7.17467 11.9248 7.14 12.1434 7.14C12.2901 7.14 12.4341 7.15867 12.5754 7.196C12.7168 7.23333 12.8408 7.28667 12.9474 7.356C13.0034 7.39067 13.0408 7.43333 13.0594 7.484C13.0781 7.532 13.0821 7.58 13.0714 7.628C13.0608 7.67333 13.0381 7.712 13.0034 7.744C12.9714 7.776 12.9301 7.79467 12.8794 7.8C12.8314 7.80267 12.7781 7.78533 12.7194 7.748C12.6368 7.69467 12.5474 7.656 12.4514 7.632C12.3554 7.608 12.2581 7.596 12.1594 7.596C11.9701 7.596 11.8101 7.63467 11.6794 7.712C11.5488 7.78933 11.4501 7.90133 11.3834 8.048C11.3168 8.19467 11.2834 8.37467 11.2834 8.588C11.2834 8.79867 11.3168 8.97867 11.3834 9.128C11.4501 9.27733 11.5488 9.39067 11.6794 9.468C11.8101 9.54533 11.9701 9.584 12.1594 9.584C12.2608 9.584 12.3608 9.572 12.4594 9.548C12.5581 9.52133 12.6514 9.48133 12.7394 9.428C12.7981 9.39333 12.8501 9.37867 12.8954 9.384C12.9434 9.38667 12.9834 9.40267 13.0154 9.432C13.0474 9.46133 13.0688 9.49867 13.0794 9.544C13.0901 9.58667 13.0874 9.632 13.0714 9.68C13.0554 9.72533 13.0234 9.76533 12.9754 9.8C12.8688 9.87733 12.7408 9.93733 12.5914 9.98C12.4448 10.02 12.2954 10.04 12.1434 10.04ZM13.8062 10.032C13.7235 10.032 13.6595 10.0093 13.6142 9.964C13.5715 9.916 13.5502 9.85067 13.5502 9.768V7.412C13.5502 7.32667 13.5715 7.26133 13.6142 7.216C13.6595 7.17067 13.7235 7.148 13.8062 7.148C13.8889 7.148 13.9515 7.17067 13.9942 7.216C14.0395 7.26133 14.0622 7.32667 14.0622 7.412V8.356H15.5142V7.412C15.5142 7.32667 15.5355 7.26133 15.5782 7.216C15.6235 7.17067 15.6875 7.148 15.7702 7.148C15.8529 7.148 15.9155 7.17067 15.9582 7.216C16.0035 7.26133 16.0262 7.32667 16.0262 7.412V9.768C16.0262 9.85067 16.0035 9.916 15.9582 9.964C15.9155 10.0093 15.8529 10.032 15.7702 10.032C15.6875 10.032 15.6235 10.0093 15.5782 9.964C15.5355 9.916 15.5142 9.85067 15.5142 9.768V8.784H14.0622V9.768C14.0622 9.85067 14.0409 9.916 13.9982 9.964C13.9555 10.0093 13.8915 10.032 13.8062 10.032ZM17.9079 10.04C17.6359 10.04 17.3973 9.98 17.1919 9.86C16.9893 9.74 16.8319 9.572 16.7199 9.356C16.6079 9.13733 16.5519 8.88133 16.5519 8.588C16.5519 8.36667 16.5839 8.168 16.6479 7.992C16.7119 7.81333 16.8026 7.66133 16.9199 7.536C17.0399 7.408 17.1826 7.31067 17.3479 7.244C17.5159 7.17467 17.7026 7.14 17.9079 7.14C18.1826 7.14 18.4213 7.2 18.6239 7.32C18.8266 7.43733 18.9839 7.604 19.0959 7.82C19.2079 8.036 19.2639 8.29067 19.2639 8.584C19.2639 8.80533 19.2319 9.00533 19.1679 9.184C19.1039 9.36267 19.0119 9.516 18.8919 9.644C18.7746 9.772 18.6319 9.87067 18.4639 9.94C18.2986 10.0067 18.1133 10.04 17.9079 10.04ZM17.9079 9.6C18.0813 9.6 18.2279 9.56 18.3479 9.48C18.4706 9.4 18.5639 9.284 18.6279 9.132C18.6946 8.98 18.7279 8.79867 18.7279 8.588C18.7279 8.268 18.6559 8.02 18.5119 7.844C18.3706 7.668 18.1693 7.58 17.9079 7.58C17.7373 7.58 17.5906 7.62 17.4679 7.7C17.3453 7.77733 17.2506 7.892 17.1839 8.044C17.1199 8.19333 17.0879 8.37467 17.0879 8.588C17.0879 8.90533 17.1599 9.15333 17.3039 9.332C17.4479 9.51067 17.6493 9.6 17.9079 9.6ZM21.0486 10.04C20.7766 10.04 20.5379 9.98 20.3326 9.86C20.1299 9.74 19.9726 9.572 19.8606 9.356C19.7486 9.13733 19.6926 8.88133 19.6926 8.588C19.6926 8.36667 19.7246 8.168 19.7886 7.992C19.8526 7.81333 19.9432 7.66133 20.0606 7.536C20.1806 7.408 20.3232 7.31067 20.4886 7.244C20.6566 7.17467 20.8432 7.14 21.0486 7.14C21.3232 7.14 21.5619 7.2 21.7646 7.32C21.9672 7.43733 22.1246 7.604 22.2366 7.82C22.3486 8.036 22.4046 8.29067 22.4046 8.584C22.4046 8.80533 22.3726 9.00533 22.3086 9.184C22.2446 9.36267 22.1526 9.516 22.0326 9.644C21.9152 9.772 21.7726 9.87067 21.6046 9.94C21.4392 10.0067 21.2539 10.04 21.0486 10.04ZM21.0486 9.6C21.2219 9.6 21.3686 9.56 21.4886 9.48C21.6112 9.4 21.7046 9.284 21.7686 9.132C21.8352 8.98 21.8686 8.79867 21.8686 8.588C21.8686 8.268 21.7966 8.02 21.6526 7.844C21.5112 7.668 21.3099 7.58 21.0486 7.58C20.8779 7.58 20.7312 7.62 20.6086 7.7C20.4859 7.77733 20.3912 7.892 20.3246 8.044C20.2606 8.19333 20.2286 8.37467 20.2286 8.588C20.2286 8.90533 20.3006 9.15333 20.4446 9.332C20.5886 9.51067 20.7899 9.6 21.0486 9.6ZM23.1852 10C23.1025 10 23.0385 9.97733 22.9932 9.932C22.9479 9.884 22.9252 9.81867 22.9252 9.736V7.428C22.9252 7.34267 22.9465 7.27867 22.9892 7.236C23.0345 7.19067 23.0985 7.168 23.1812 7.168C23.2639 7.168 23.3265 7.19067 23.3692 7.236C23.4145 7.27867 23.4372 7.34267 23.4372 7.428V9.564H24.5972C24.6692 9.564 24.7239 9.58267 24.7612 9.62C24.8012 9.65733 24.8212 9.71067 24.8212 9.78C24.8212 9.84933 24.8012 9.904 24.7612 9.944C24.7239 9.98133 24.6692 10 24.5972 10H23.1852ZM26.4972 10.032C26.4199 10.032 26.3599 10.0107 26.3172 9.968C26.2772 9.92533 26.2572 9.864 26.2572 9.784V7.404C26.2572 7.32133 26.2772 7.25867 26.3172 7.216C26.3599 7.17067 26.4146 7.148 26.4812 7.148C26.5426 7.148 26.5879 7.16 26.6172 7.184C26.6492 7.20533 26.6866 7.24267 26.7292 7.296L28.2612 9.284H28.1572V7.392C28.1572 7.31467 28.1772 7.25467 28.2172 7.212C28.2599 7.16933 28.3199 7.148 28.3972 7.148C28.4746 7.148 28.5332 7.16933 28.5732 7.212C28.6132 7.25467 28.6332 7.31467 28.6332 7.392V9.792C28.6332 9.86667 28.6146 9.92533 28.5772 9.968C28.5399 10.0107 28.4892 10.032 28.4252 10.032C28.3639 10.032 28.3146 10.02 28.2772 9.996C28.2426 9.972 28.2039 9.93333 28.1612 9.88L26.6332 7.892H26.7332V9.784C26.7332 9.864 26.7132 9.92533 26.6732 9.968C26.6332 10.0107 26.5746 10.032 26.4972 10.032ZM29.5214 10C29.4334 10 29.3654 9.97733 29.3174 9.932C29.2721 9.884 29.2494 9.816 29.2494 9.728V7.452C29.2494 7.364 29.2721 7.29733 29.3174 7.252C29.3654 7.204 29.4334 7.18 29.5214 7.18H30.9494C31.0161 7.18 31.0667 7.19733 31.1014 7.232C31.1387 7.26667 31.1574 7.316 31.1574 7.38C31.1574 7.44667 31.1387 7.49867 31.1014 7.536C31.0667 7.57067 31.0161 7.588 30.9494 7.588H29.7414V8.364H30.8614C30.9307 8.364 30.9827 8.38133 31.0174 8.416C31.0521 8.45067 31.0694 8.50133 31.0694 8.568C31.0694 8.63467 31.0521 8.68533 31.0174 8.72C30.9827 8.75467 30.9307 8.772 30.8614 8.772H29.7414V9.592H30.9494C31.0161 9.592 31.0667 9.60933 31.1014 9.644C31.1387 9.67867 31.1574 9.72933 31.1574 9.796C31.1574 9.86267 31.1387 9.91333 31.1014 9.948C31.0667 9.98267 31.0161 10 30.9494 10H29.5214ZM32.6164 10.032C32.5444 10.032 32.4857 10.0147 32.4404 9.98C32.3977 9.94533 32.3631 9.89067 32.3364 9.816L31.5004 7.452C31.4711 7.36667 31.4764 7.29467 31.5164 7.236C31.5591 7.17733 31.6297 7.148 31.7284 7.148C31.8004 7.148 31.8564 7.16533 31.8964 7.2C31.9364 7.232 31.9684 7.284 31.9924 7.356L32.7124 9.492H32.5524L33.3044 7.36C33.3311 7.288 33.3644 7.23467 33.4044 7.2C33.4444 7.16533 33.4964 7.148 33.5604 7.148C33.6244 7.148 33.6751 7.16533 33.7124 7.2C33.7497 7.23467 33.7817 7.28933 33.8084 7.364L34.5364 9.492H34.3964L35.1284 7.356C35.1524 7.28667 35.1844 7.23467 35.2244 7.2C35.2644 7.16533 35.3191 7.148 35.3884 7.148C35.4737 7.148 35.5364 7.17733 35.5764 7.236C35.6164 7.29467 35.6217 7.36667 35.5924 7.452L34.7484 9.82C34.7217 9.892 34.6871 9.94533 34.6444 9.98C34.6017 10.0147 34.5444 10.032 34.4724 10.032C34.4004 10.032 34.3431 10.0147 34.3004 9.98C34.2577 9.94533 34.2231 9.89067 34.1964 9.816L33.5004 7.832H33.5924L32.8884 9.82C32.8617 9.892 32.8271 9.94533 32.7844 9.98C32.7444 10.0147 32.6884 10.032 32.6164 10.032ZM36.9988 10.04C36.8814 10.04 36.7641 10.0307 36.6468 10.012C36.5294 9.996 36.4188 9.97067 36.3148 9.936C36.2108 9.89867 36.1174 9.85333 36.0348 9.8C35.9868 9.768 35.9534 9.72933 35.9348 9.684C35.9161 9.63867 35.9094 9.59467 35.9148 9.552C35.9228 9.50667 35.9401 9.468 35.9668 9.436C35.9961 9.40133 36.0321 9.38 36.0748 9.372C36.1174 9.364 36.1641 9.376 36.2148 9.408C36.3321 9.47733 36.4561 9.528 36.5868 9.56C36.7174 9.592 36.8548 9.608 36.9988 9.608C37.2094 9.608 37.3628 9.57333 37.4588 9.504C37.5548 9.432 37.6028 9.34 37.6028 9.228C37.6028 9.13467 37.5681 9.06133 37.4988 9.008C37.4321 8.95467 37.3161 8.91067 37.1508 8.876L36.7108 8.784C36.4574 8.73067 36.2681 8.64133 36.1428 8.516C36.0201 8.388 35.9588 8.22 35.9588 8.012C35.9588 7.88133 35.9854 7.76267 36.0388 7.656C36.0921 7.54933 36.1668 7.45733 36.2628 7.38C36.3614 7.30267 36.4774 7.244 36.6108 7.204C36.7468 7.16133 36.8961 7.14 37.0588 7.14C37.2188 7.14 37.3708 7.16 37.5148 7.2C37.6588 7.24 37.7881 7.29867 37.9028 7.376C37.9454 7.40533 37.9734 7.44133 37.9868 7.484C38.0028 7.52667 38.0068 7.56933 37.9988 7.612C37.9908 7.652 37.9721 7.68667 37.9428 7.716C37.9134 7.74533 37.8761 7.76267 37.8307 7.768C37.7881 7.77333 37.7388 7.76 37.6828 7.728C37.5841 7.672 37.4841 7.632 37.3828 7.608C37.2814 7.584 37.1721 7.572 37.0548 7.572C36.9321 7.572 36.8268 7.58933 36.7388 7.624C36.6508 7.65867 36.5828 7.708 36.5348 7.772C36.4894 7.83333 36.4668 7.90667 36.4668 7.992C36.4668 8.088 36.4988 8.16533 36.5628 8.224C36.6268 8.28 36.7361 8.324 36.8908 8.356L37.3268 8.448C37.5908 8.504 37.7868 8.592 37.9148 8.712C38.0454 8.832 38.1108 8.992 38.1108 9.192C38.1108 9.32 38.0841 9.436 38.0308 9.54C37.9801 9.644 37.9054 9.73333 37.8068 9.808C37.7108 9.88267 37.5948 9.94 37.4588 9.98C37.3228 10.02 37.1694 10.04 36.9988 10.04Z" fill="#A77723"/>
</svg>
