<svg width="49" height="47" viewBox="0 0 49 47" fill="none" xmlns="http://www.w3.org/2000/svg">
<mask id="mask0_51_130" style="mask-type:alpha" maskUnits="userSpaceOnUse" x="0" y="0" width="39" height="39">
<circle cx="19.0238" cy="19.0238" r="18.0238" fill="#D9D9D9" stroke="#222744" stroke-width="2"/>
</mask>
<g mask="url(#mask0_51_130)">
<path d="M12.8554 24.6803C12.098 24.6803 11.4839 24.0662 11.4839 23.3088V22.2443C11.4839 21.4869 12.098 20.8728 12.8554 20.8728C13.6128 20.8728 14.2269 21.4869 14.2269 22.2443V23.3088C14.2269 24.0662 13.6128 24.6803 12.8554 24.6803Z" fill="#773535"/>
<path d="M25.6493 24.6803C24.8919 24.6803 24.2778 24.0662 24.2778 23.3088V22.2443C24.2778 21.4869 24.8919 20.8728 25.6493 20.8728C26.4067 20.8728 27.0209 21.4869 27.0209 22.2443V23.3088C27.0209 24.0662 26.4067 24.6803 25.6493 24.6803Z" fill="#773535"/>
<path d="M22.6606 26.5432H16.1715V34.281H22.6606V26.5432Z" fill="#914343"/>
<path d="M19.4264 30.617C15.9669 30.617 13.1625 27.8126 13.1625 24.3531V17.0452C13.1625 15.428 14.4726 14.1179 16.0897 14.1179H22.7835C24.4007 14.1179 25.7108 15.428 25.7108 17.0452V24.3531C25.6903 27.8126 22.8859 30.617 19.4264 30.617Z" fill="#914343"/>
<path d="M22.6606 29.6956V30.6372C21.719 31.2104 20.6136 31.5379 19.4263 31.5379C18.2391 31.5379 17.1337 31.2104 16.192 30.6372V29.6956C17.1337 30.2687 18.2391 30.5963 19.4263 30.5963C20.5931 30.5963 21.719 30.2687 22.6606 29.6956Z" fill="#773535"/>
<path d="M32.0975 47.8324H6.71423V38.3751C6.71423 35.5297 9.02738 33.2371 11.8523 33.2371H26.939C29.7843 33.2371 32.077 35.5502 32.077 38.3751V47.8324H32.0975Z" fill="#4E88FF"/>
<path d="M12.8553 21.6303C13.5336 21.6303 14.0835 21.0804 14.0835 20.4021C14.0835 19.7237 13.5336 19.1738 12.8553 19.1738C12.177 19.1738 11.6271 19.7237 11.6271 20.4021C11.6271 21.0804 12.177 21.6303 12.8553 21.6303Z" fill="#222744"/>
<path d="M12.3846 19.747C13.0629 19.747 13.6128 19.1971 13.6128 18.5187C13.6128 17.8404 13.0629 17.2905 12.3846 17.2905C11.7063 17.2905 11.1564 17.8404 11.1564 18.5187C11.1564 19.1971 11.7063 19.747 12.3846 19.747Z" fill="#222744"/>
<path d="M12.3846 18.1095C13.0629 18.1095 13.6128 17.5596 13.6128 16.8813C13.6128 16.203 13.0629 15.6531 12.3846 15.6531C11.7063 15.6531 11.1564 16.203 11.1564 16.8813C11.1564 17.5596 11.7063 18.1095 12.3846 18.1095Z" fill="#222744"/>
<path d="M12.8553 16.5536C13.5336 16.5536 14.0835 16.0037 14.0835 15.3254C14.0835 14.6471 13.5336 14.0972 12.8553 14.0972C12.177 14.0972 11.6271 14.6471 11.6271 15.3254C11.6271 16.0037 12.177 16.5536 12.8553 16.5536Z" fill="#222744"/>
<path d="M14.0836 15.3256C14.7619 15.3256 15.3118 14.7757 15.3118 14.0974C15.3118 13.419 14.7619 12.8691 14.0836 12.8691C13.4052 12.8691 12.8553 13.419 12.8553 14.0974C12.8553 14.7757 13.4052 15.3256 14.0836 15.3256Z" fill="#222744"/>
<path d="M16.1716 14.8954C16.8499 14.8954 17.3998 14.3455 17.3998 13.6672C17.3998 12.9889 16.8499 12.439 16.1716 12.439C15.4933 12.439 14.9434 12.9889 14.9434 13.6672C14.9434 14.3455 15.4933 14.8954 16.1716 14.8954Z" fill="#222744"/>
<path d="M18.1982 14.8954C18.8765 14.8954 19.4264 14.3455 19.4264 13.6672C19.4264 12.9889 18.8765 12.439 18.1982 12.439C17.5199 12.439 16.97 12.9889 16.97 13.6672C16.97 14.3455 17.5199 14.8954 18.1982 14.8954Z" fill="#222744"/>
<path d="M20.0611 14.8954C20.7394 14.8954 21.2893 14.3455 21.2893 13.6672C21.2893 12.9889 20.7394 12.439 20.0611 12.439C19.3828 12.439 18.8329 12.9889 18.8329 13.6672C18.8329 14.3455 19.3828 14.8954 20.0611 14.8954Z" fill="#222744"/>
<path d="M22.0466 14.8954C22.7249 14.8954 23.2748 14.3455 23.2748 13.6672C23.2748 12.9889 22.7249 12.439 22.0466 12.439C21.3683 12.439 20.8184 12.9889 20.8184 13.6672C20.8184 14.3455 21.3683 14.8954 22.0466 14.8954Z" fill="#222744"/>
<path d="M23.889 15.3256C24.5673 15.3256 25.1172 14.7757 25.1172 14.0974C25.1172 13.419 24.5673 12.8691 23.889 12.8691C23.2107 12.8691 22.6608 13.419 22.6608 14.0974C22.6608 14.7757 23.2107 15.3256 23.889 15.3256Z" fill="#222744"/>
<path d="M25.4445 16.5536C26.1229 16.5536 26.6728 16.0037 26.6728 15.3254C26.6728 14.6471 26.1229 14.0972 25.4445 14.0972C24.7662 14.0972 24.2163 14.6471 24.2163 15.3254C24.2163 16.0037 24.7662 16.5536 25.4445 16.5536Z" fill="#222744"/>
<path d="M25.6903 18.1095C26.3686 18.1095 26.9185 17.5596 26.9185 16.8813C26.9185 16.203 26.3686 15.6531 25.6903 15.6531C25.0119 15.6531 24.462 16.203 24.462 16.8813C24.462 17.5596 25.0119 18.1095 25.6903 18.1095Z" fill="#222744"/>
<path d="M25.6903 19.747C26.3686 19.747 26.9185 19.1971 26.9185 18.5187C26.9185 17.8404 26.3686 17.2905 25.6903 17.2905C25.0119 17.2905 24.462 17.8404 24.462 18.5187C24.462 19.1971 25.0119 19.747 25.6903 19.747Z" fill="#222744"/>
<path d="M25.4445 21.2006C26.1229 21.2006 26.6728 20.6507 26.6728 19.9724C26.6728 19.294 26.1229 18.7441 25.4445 18.7441C24.7662 18.7441 24.2163 19.294 24.2163 19.9724C24.2163 20.6507 24.7662 21.2006 25.4445 21.2006Z" fill="#222744"/>
<path d="M24.7692 17.2907C25.4476 17.2907 25.9975 16.7408 25.9975 16.0625C25.9975 15.3841 25.4476 14.8342 24.7692 14.8342C24.0909 14.8342 23.541 15.3841 23.541 16.0625C23.541 16.7408 24.0909 17.2907 24.7692 17.2907Z" fill="#222744"/>
<path d="M22.763 16.5536C23.4413 16.5536 23.9912 16.0037 23.9912 15.3254C23.9912 14.6471 23.4413 14.0972 22.763 14.0972C22.0847 14.0972 21.5348 14.6471 21.5348 15.3254C21.5348 16.0037 22.0847 16.5536 22.763 16.5536Z" fill="#222744"/>
<path d="M21.2891 16.5536C21.9675 16.5536 22.5174 16.0037 22.5174 15.3254C22.5174 14.6471 21.9675 14.0972 21.2891 14.0972C20.6108 14.0972 20.0609 14.6471 20.0609 15.3254C20.0609 16.0037 20.6108 16.5536 21.2891 16.5536Z" fill="#222744"/>
<path d="M19.1807 16.5536C19.893 16.5536 20.4704 15.9762 20.4704 15.264C20.4704 14.5518 19.893 13.9744 19.1807 13.9744C18.4685 13.9744 17.8911 14.5518 17.8911 15.264C17.8911 15.9762 18.4685 16.5536 19.1807 16.5536Z" fill="#222744"/>
<path d="M16.9699 16.5536C17.6482 16.5536 18.1981 16.0037 18.1981 15.3254C18.1981 14.6471 17.6482 14.0972 16.9699 14.0972C16.2916 14.0972 15.7417 14.6471 15.7417 15.3254C15.7417 16.0037 16.2916 16.5536 16.9699 16.5536Z" fill="#222744"/>
<path d="M14.841 16.881C15.5193 16.881 16.0692 16.3311 16.0692 15.6528C16.0692 14.9745 15.5193 14.4246 14.841 14.4246C14.1627 14.4246 13.6128 14.9745 13.6128 15.6528C13.6128 16.3311 14.1627 16.881 14.841 16.881Z" fill="#222744"/>
<path d="M13.6127 17.2907C14.2911 17.2907 14.841 16.7408 14.841 16.0625C14.841 15.3841 14.2911 14.8342 13.6127 14.8342C12.9344 14.8342 12.3845 15.3841 12.3845 16.0625C12.3845 16.7408 12.9344 17.2907 13.6127 17.2907Z" fill="#222744"/>
<path d="M23.0292 33.2168L24.5236 35.4276L19.5902 33.2168H23.0292Z" fill="white"/>
<path d="M16.151 33.2168L14.6362 35.4276L19.5901 33.2168H16.151Z" fill="white"/>
<path d="M19.5902 33.2168L17.6455 45.4581L19.4264 48.1192L21.5349 45.4581L19.5902 33.2168Z" fill="#222744"/>
<path d="M19.5902 34.8544L18.1982 33.8514L19.5902 33.2168L20.9617 33.8309L19.5902 34.8544Z" fill="#222744"/>
<path d="M11.6272 35.4272H11.1564V47.8323H11.6272V35.4272Z" fill="#3D7CEA"/>
<path d="M27.4917 35.4272H27.0209V47.8323H27.4917V35.4272Z" fill="#3D7CEA"/>
<path d="M25.8131 7.95605H12.9987V15.0388H25.8131V7.95605Z" fill="#4E88FF"/>
<path d="M8.59766 8.18121L19.9587 4.47607L30.5828 8.3245L19.9792 12.8075L8.59766 8.18121Z" fill="#4E88FF"/>
<path d="M25.8336 10.3307V11.2109L19.9791 13.6673L12.9987 10.8424V9.98267L19.9791 12.8076L25.8336 10.3307Z" fill="#3D7CEA"/>
</g>
<circle cx="19.0238" cy="19.0238" r="17.5238" stroke="#222744" stroke-width="3"/>
<line x1="32.1172" y1="31.8677" x2="46.8677" y2="44.8828" stroke="#222744" stroke-width="3" stroke-linecap="round"/>
</svg>
