<svg fill="none" height="434" viewBox="0 0 512 434" width="512" xmlns="http://www.w3.org/2000/svg"><path d="m354.33 228.276h-218.364c-20.008 0-36.2282-16.22-36.2282-36.228v-155.82c0-20.008 16.2202-36.228 36.2282-36.228h218.364c20.008 0 36.228 16.22 36.228 36.228v155.82c0 20.008-16.22 36.228-36.228 36.228z" fill="#78acea"/><path d="m390.559 36.223v155.825c0 20.01-16.22 36.23-36.23 36.23h-23.964c20.01 0 36.23-16.22 36.23-36.23v-155.825c0-19.999-16.22-36.21897168-36.23-36.21897168h23.964c20.01 0 36.23 16.21997168 36.23 36.21897168z" fill="#5f90cb"/><path d="m257.408 93.6h218.364c20.008 0 36.228 16.22 36.228 36.228v155.82c0 20.008-16.22 36.228-36.228 36.228h.967c-5.321 0-9.787 4.059-10.234 9.361-.573 6.797-.684 16.333 1.623 25.28 1.089 4.224-3.333 7.814-7.26 5.916-9.806-4.74-23.751-14.609-31.865-34.267-1.577-3.82-5.332-6.289-9.464-6.289h-162.131c-20.008 0-36.228-16.22-36.228-36.228v-155.82c0-20.01 16.22-36.229 36.228-36.229z" fill="#c8e1ff"/><path d="m511.998 129.826v155.825c0 20.01-16.22 36.23-36.23 36.23h.968c-5.314 0-9.784 4.057-10.227 9.351-.577 6.797-.69 16.333 1.617 25.283 1.092 4.222-3.326 7.817-7.26 5.922-5.201-2.523-11.575-6.477-17.62-12.585 1.174-1.195 1.761-2.935 1.287-4.809-2.317-8.939-2.204-18.475-1.627-25.272.443-5.304 4.912-9.361 10.237-9.361h-.968c20.01 0 36.23-16.22 36.23-36.23v-155.827c0-9.516-3.666-18.166-9.67-24.634 18.618 1.504 33.263 17.096 33.263 36.107z" fill="#78acea"/><path d="m338.076 62.5691h-185.857c-4.143 0-7.5-3.358-7.5-7.5s3.357-7.5 7.5-7.5h185.857c4.143 0 7.5 3.358 7.5 7.5s-3.357 7.5-7.5 7.5z" fill="#c8e1ff"/><path d="m197.579 96.183h-45.36c-4.143 0-7.5-3.358-7.5-7.5s3.357-7.5 7.5-7.5h45.36c4.143 0 7.5 3.358 7.5 7.5s-3.357 7.5-7.5 7.5z" fill="#c8e1ff"/><path d="m188.729 126.488h-36.51c-4.143 0-7.5-3.358-7.5-7.5s3.357-7.5 7.5-7.5h36.51c4.143 0 7.5 3.358 7.5 7.5s-3.358 7.5-7.5 7.5z" fill="#c8e1ff"/><g fill="#78acea"><path d="m459.519 149.106h-185.858c-4.143 0-7.5-3.358-7.5-7.5s3.357-7.5 7.5-7.5h185.857c4.143 0 7.5 3.358 7.5 7.5s-3.357 7.5-7.499 7.5z"/><path d="m459.519 182.72h-135.298c-4.143 0-7.5-3.358-7.5-7.5s3.357-7.5 7.5-7.5h135.298c4.143 0 7.5 3.358 7.5 7.5s-3.358 7.5-7.5 7.5z"/><path d="m459.519 215.975h-135.298c-4.143 0-7.5-3.358-7.5-7.5s3.357-7.5 7.5-7.5h135.298c4.143 0 7.5 3.358 7.5 7.5s-3.358 7.5-7.5 7.5z"/><path d="m459.519 249.231h-135.298c-4.143 0-7.5-3.358-7.5-7.5s3.357-7.5 7.5-7.5h135.298c4.143 0 7.5 3.358 7.5 7.5s-3.358 7.5-7.5 7.5z"/><path d="m407.038 279.894h-82.817c-4.143 0-7.5-3.358-7.5-7.5s3.357-7.5 7.5-7.5h82.817c4.143 0 7.5 3.358 7.5 7.5s-3.357 7.5-7.5 7.5z"/></g><path d="m254.592 164.258h-218.364c-20.008 0-36.228 16.22-36.228 36.228v155.82c0 20.008 16.22 36.228 36.228 36.228h-.968c5.321 0 9.787 4.059 10.234 9.361.573 6.797.684 16.333-1.623 25.28-1.089 4.224 3.333 7.814 7.26 5.916 9.806-4.74 23.751-14.609 31.865-34.267 1.577-3.82 5.332-6.289 9.464-6.289h162.132c20.008 0 36.228-16.22 36.228-36.228v-155.821c0-20.008-16.22-36.228-36.228-36.228z" fill="#efefef"/><path d="m290.82 200.478v155.825c0 20.01-16.22 36.23-36.23 36.23h-23.964c20.01 0 36.23-16.22 36.23-36.23v-155.825c0-19.999-16.22-36.219-36.23-36.219h23.964c20.01-.001 36.23 16.219 36.23 36.219z" fill="#e2e2e2"/><path d="m162.294 271.599h-34.948c-1.822 0-3.418-1.218-3.898-2.975s.274-3.618 1.842-4.544c15.227-8.998 23.136-19.493 24.18-32.087.363-4.37 4.256-7.861 8.675-7.803 4.509.072 8.733 1.879 11.897 5.089 3.166 3.214 4.911 7.469 4.913 11.981v.002 1.358c0 11.023-3.266 18.052-9.29 27.166-.749 1.132-2.014 1.813-3.371 1.813z" fill="#c77979"/><path d="m205.124 276.179c0-6.981-5.679-12.661-12.661-12.661h-65.117c-.724 0-1.434.194-2.057.562-4.571 2.703-9.186 4.928-12.895 6.716-1.293.624-2.515 1.213-3.626 1.768-1.369.685-2.234 2.084-2.234 3.615v51.719c0 1.531.865 2.93 2.234 3.614 16.326 8.162 29.898 9.149 45.724 9.149 2.45 0 4.957-.023 7.534-.048 2.851-.026 5.798-.054 8.888-.054h12.773c6.981 0 12.661-5.68 12.661-12.661 0-2.347-.642-4.547-1.76-6.434 3.638-2.227 6.07-6.237 6.07-10.806 0-2.347-.642-4.547-1.76-6.434 3.638-2.226 6.07-6.237 6.07-10.806 0-3.283-1.256-6.279-3.314-8.531 2.241-2.36 3.47-5.44 3.47-8.708z" fill="#db9090"/><path d="m196.719 240.942h-8.62c-2.231 0-4.04-1.809-4.04-4.041 0-2.231 1.809-4.04 4.04-4.04h8.62c2.231 0 4.041 1.809 4.041 4.04 0 2.232-1.809 4.041-4.041 4.041z" fill="#29ccb1"/><path d="m136.38 240.942h-8.62c-2.232 0-4.041-1.809-4.041-4.041 0-2.231 1.809-4.04 4.041-4.04h8.62c2.231 0 4.04 1.809 4.04 4.04 0 2.232-1.808 4.041-4.04 4.041z" fill="#29ccb1"/><path d="m149.314 218.548c-1.397 0-2.755-.725-3.503-2.021l-4.31-7.465c-1.116-1.933-.454-4.404 1.479-5.52 1.932-1.116 4.404-.453 5.519 1.479l4.31 7.465c1.116 1.933.454 4.404-1.479 5.52-.636.367-1.331.542-2.016.542z" fill="#29ccb1"/><path d="m175.166 218.548c-.686 0-1.381-.175-2.017-.542-1.932-1.116-2.594-3.587-1.479-5.52l4.31-7.465c1.116-1.932 3.587-2.595 5.52-1.479 1.932 1.116 2.594 3.587 1.479 5.52l-4.31 7.465c-.748 1.296-2.107 2.021-3.503 2.021z" fill="#29ccb1"/><path d="m97.3209 319.329v21.281h-8.0812v-21.281c0-2.23 1.8103-4.04 4.0406-4.04s4.0406 1.81 4.0406 4.04z" fill="#73c3ff"/><path d="m196.719 240.942h-8.62c-2.231 0-4.04-1.809-4.04-4.041 0-2.231 1.809-4.04 4.04-4.04h8.62c2.231 0 4.041 1.809 4.041 4.04 0 2.232-1.809 4.041-4.041 4.041z" fill="#29ccb1"/><path d="m136.38 240.942h-8.62c-2.232 0-4.041-1.809-4.041-4.041 0-2.231 1.809-4.04 4.041-4.04h8.62c2.231 0 4.04 1.809 4.04 4.04 0 2.232-1.808 4.041-4.04 4.041z" fill="#29ccb1"/><path d="m149.314 218.548c-1.397 0-2.755-.725-3.503-2.021l-4.31-7.465c-1.116-1.933-.454-4.404 1.479-5.52 1.932-1.116 4.404-.453 5.519 1.479l4.31 7.465c1.116 1.933.454 4.404-1.479 5.52-.636.367-1.331.542-2.016.542z" fill="#29ccb1"/><path d="m175.166 218.548c-.686 0-1.381-.175-2.017-.542-1.932-1.116-2.594-3.587-1.479-5.52l4.31-7.465c1.116-1.932 3.587-2.595 5.52-1.479 1.932 1.116 2.594 3.587 1.479 5.52l-4.31 7.465c-.748 1.296-2.107 2.021-3.503 2.021z" fill="#29ccb1"/><path d="m97.3209 319.329v21.281h-8.0812v-21.281c0-2.23 1.8103-4.04 4.0406-4.04s4.0406 1.81 4.0406 4.04z" fill="#73c3ff"/><path d="m110.52 263.518h-34.4794c-2.2303 0-4.0406 1.81-4.0406 4.041v68.959c0 2.233 1.8103 4.04 4.0406 4.091h25.8594c4.954-.051 9.25-2.909 11.327-7.063.854-1.699 1.334-3.62 1.334-5.648v-60.339c0-2.231-1.811-4.041-4.041-4.041z" fill="#44a4ec"/><path d="m97.3209 319.06v21.55h-8.0812v-21.55c0-2.231 1.8103-4.041 4.0406-4.041s4.0406 1.81 4.0406 4.041z" fill="#73c3ff"/></svg>