<svg width="54" height="52" viewBox="0 0 54 52" fill="none" xmlns="http://www.w3.org/2000/svg">
<circle cx="28.3251" cy="14.8366" r="7.67498" fill="#FF9244"/>
<circle cx="27.3115" cy="13.8229" r="7.67498" fill="#FFBC44"/>
<circle cx="27.3114" cy="13.8229" r="6.31649" stroke="#DC9923" stroke-width="0.4"/>
<ellipse cx="12.96" cy="8.83155" rx="3.47484" ry="4.52739" transform="rotate(-25.9481 12.96 8.83155)" fill="#FF9244"/>
<ellipse cx="13.71" cy="8.46656" rx="3.47484" ry="4.52739" transform="rotate(-25.9481 13.71 8.46656)" fill="#FFBC44"/>
<path d="M16.1996 7.255C17.0861 9.07687 16.6311 11.05 15.2856 11.7048C13.9401 12.3595 12.1067 11.4999 11.2201 9.67807C10.3336 7.8562 10.7886 5.88305 12.1341 5.22831C13.4796 4.57357 15.3131 5.43312 16.1996 7.255Z" stroke="#DC9923" stroke-width="0.3"/>
<ellipse rx="2.1878" ry="2.8505" transform="matrix(-0.899191 -0.437557 -0.437557 0.899191 37.0685 3.75014)" fill="#FF9244"/>
<ellipse rx="2.1878" ry="2.8505" transform="matrix(-0.899191 -0.437557 -0.437557 0.899191 36.596 3.5204)" fill="#FFBC44"/>
<path d="M35.0335 2.75994C34.476 3.90549 34.7631 5.14378 35.6064 5.55413C36.4497 5.96449 37.6012 5.42623 38.1586 4.28067C38.7161 3.13512 38.429 1.89684 37.5857 1.48648C36.7424 1.07612 35.5909 1.61439 35.0335 2.75994Z" stroke="#DC9923" stroke-width="0.2"/>
<path d="M45.6181 33.0533C45.2277 33.5413 29.8548 49.7438 29.8548 49.7438L11.3098 34.4686L17.2149 21.0235L35.2475 20.389L40.323 20.145L45.6181 33.0533Z" fill="#D89475"/>
<path opacity="0.5" d="M26.6829 26.6848C27.3417 25.0011 31.1239 23.4882 30.0502 23.4638C30.0014 23.4638 34.9061 22.9514 34.9061 22.9514L33.6616 25.1231L43.8614 34.9081L43.0562 35.7621L26.6829 26.6848Z" fill="#AD6B4E"/>
<path d="M30.3674 51.94C29.733 51.94 29.0985 51.7448 28.5617 51.33L11.1148 38.0069C9.82149 37.0064 9.55308 35.1519 10.5535 33.8342C11.554 32.541 13.4085 32.2726 14.7262 33.273L32.1731 46.5961C33.4664 47.5966 33.7348 49.4511 32.7343 50.7688C32.1487 51.5496 31.2703 51.94 30.3674 51.94Z" fill="#AD5B5B"/>
<path d="M34.4424 48.9144C33.8079 48.9144 33.1735 48.7192 32.6367 48.3044L15.1897 34.9812C13.8964 33.9808 13.628 32.1263 14.6285 30.8086C15.6289 29.5153 17.4834 29.2469 18.8011 30.2474L36.2481 43.5705C37.5413 44.571 37.8097 46.4255 36.8093 47.7431C36.2237 48.4996 35.3452 48.9144 34.4424 48.9144Z" fill="#AD5B5B"/>
<path d="M38.1513 45.2054C37.5169 45.2054 36.8825 45.0102 36.3456 44.5954L18.8987 31.2723C17.6054 30.2718 17.337 28.4173 18.3375 27.0996C19.3379 25.8064 21.1924 25.5379 22.5101 26.5384L39.957 39.8615C41.2503 40.862 41.5187 42.7165 40.5183 44.0341C39.9326 44.7906 39.0542 45.2054 38.1513 45.2054Z" fill="#AD5B5B"/>
<path d="M41.7141 41.4963C41.0797 41.4963 40.4452 41.3011 39.9084 40.8862L22.4614 27.5631C21.1682 26.5627 20.8998 24.7082 21.9002 23.3905C22.9007 22.0972 24.7552 21.8288 26.0728 22.8292L30.1967 21.7068V24.9278L43.5442 36.1524C44.8375 37.1528 45.1059 39.0073 44.1054 40.325C43.4954 41.0814 42.6169 41.4963 41.7141 41.4963Z" fill="#AD5B5B"/>
<path d="M25.78 45.2053L26.146 44.7416L26.0728 43.79H26.9025L29.1962 40.8862L29.0498 39.8126L30.0502 39.7882L32.3928 36.8356L32.1243 35.6643L33.3932 35.5667L34.7109 33.9074L24.6331 20.1451C24.6331 20.1451 17.6788 20.3891 15.4338 19.6083C13.0181 18.7542 7.13739 34.2247 10.7 37.104C14.2626 39.959 25.78 45.2053 25.78 45.2053Z" fill="#AD5B5B"/>
<path opacity="0.5" d="M23.8767 45.1808C23.9011 44.1071 23.4375 43.1067 22.5835 42.4234C21.9978 41.9598 21.2902 41.6914 20.5582 41.667C20.5582 41.4474 20.5338 41.2522 20.5094 41.0326C20.3386 40.1297 19.8261 39.3245 19.0697 38.812C18.4841 38.4216 17.8252 38.202 17.1176 38.202C16.9712 38.202 16.8248 38.202 16.6784 38.2264C16.4587 37.2992 15.8731 36.5183 15.0435 36.0547C14.5066 35.7619 13.921 35.5911 13.311 35.5911C12.1397 35.5911 11.0172 36.2011 10.3828 37.2016C10.578 37.5188 10.822 37.7872 11.1149 38.0312L26.7561 49.9634C26.9269 49.5486 27.0245 49.1094 27.0245 48.6458C27.0245 47.7185 26.6585 46.8401 26.0241 46.2056C25.4384 45.5956 24.682 45.254 23.8767 45.1808Z" fill="#994B4B"/>
<path opacity="0.5" d="M30.1721 25.0009V21.7799L28.9033 22.1216V21.7799L27.976 22.0239V19.7302L24.9015 20.5599L24.633 20.1938C24.633 20.1938 24.511 20.1938 24.267 20.1938L23.9986 20.145L18.8987 20.0718C18.8987 20.0718 18.5327 20.6331 18.4839 21.0235C18.4839 21.0235 18.2155 22.3656 18.1667 22.5364L16.849 30.174C15.751 36.2987 24.6086 33.4438 25.2675 29.7104L25.9507 25.6841L30.1721 25.0009Z" fill="#994B4B"/>
<path d="M19.6309 32.3458C17.5812 32.1993 17.8008 30.8817 18.0692 29.3444L19.3869 21.7068C19.5577 20.6819 20.2897 19.8279 21.2902 19.5107L29.489 16.2897C29.9526 16.1433 30.4163 16.1189 30.8799 16.1921L37.9807 17.9978C39.518 18.2906 40.5184 19.7547 40.25 21.2919C39.9572 22.8292 38.4931 23.8297 36.9558 23.5613L30.5871 23.3661L24.6819 24.3421L23.9987 28.3683C23.3399 32.1261 20.4849 32.419 19.6309 32.3458Z" fill="#D89475"/>
<path d="M15.4826 46.4498C15.019 46.4498 14.5553 46.3034 14.1405 46.035C13.0669 45.2786 12.7985 43.8145 13.5305 42.7164L15.141 40.3251C15.8974 39.2514 17.3615 38.983 18.4596 39.7151C19.5332 40.4715 19.8016 41.9356 19.0696 43.0336L17.4591 45.425C16.9955 46.0838 16.239 46.4498 15.4826 46.4498Z" fill="#D89475"/>
<path d="M19.2162 49.012C18.7037 49.012 18.1669 48.8412 17.7277 48.4996C16.7028 47.6699 16.532 46.1814 17.3617 45.1566L18.5817 43.6437C19.4114 42.6188 20.8999 42.448 21.9247 43.2777C22.9496 44.1073 23.1204 45.5958 22.2907 46.6207L21.0707 48.1335C20.607 48.7192 19.8994 49.012 19.2162 49.012Z" fill="#D89475"/>
<path d="M22.9739 51.5253C22.3638 51.5253 21.7538 51.2813 21.2902 50.8177C20.3629 49.8904 20.3629 48.3775 21.2902 47.4503L21.9246 46.9379C22.8518 46.0106 24.3647 46.0106 25.292 46.9379C26.2192 47.8651 26.2192 49.378 25.292 50.3053L24.6575 50.8177C24.1939 51.2813 23.5839 51.5253 22.9739 51.5253Z" fill="#D89475"/>
<path d="M12.1885 43.5216C11.7737 43.5216 11.3833 43.424 10.9929 43.2044C9.846 42.5456 9.45558 41.1059 10.1144 39.9591L11.2369 37.8605C11.8957 36.7137 13.3354 36.3233 14.4823 36.9821C15.6291 37.6409 16.0195 39.0806 15.3607 40.2275L14.2382 42.326C13.799 43.1068 13.0182 43.5216 12.1885 43.5216Z" fill="#D89475"/>
<path opacity="0.5" d="M15.5315 39.8858C15.7023 39.4466 15.7267 38.9829 15.6291 38.5437L12.2129 43.5216C12.5789 43.5216 12.9205 43.424 13.2621 43.2776C13.0913 43.7168 13.0913 44.2048 13.2133 44.644L16.8979 39.3001C16.3855 39.3733 15.9219 39.5686 15.5315 39.8858Z" fill="#C38061"/>
<path opacity="0.5" d="M18.8011 43.424L19.0695 43.0092C19.4111 42.5211 19.5331 41.9355 19.4599 41.3743L15.6045 46.4253C16.0681 46.4009 16.5317 46.2301 16.9222 45.9373C16.8002 46.3277 16.8002 46.7426 16.8734 47.133L20.1919 42.7651C19.7039 42.8383 19.1915 43.0336 18.8011 43.424Z" fill="#C38061"/>
<path opacity="0.5" d="M22.2661 46.6695L22.2905 46.6207C22.7053 46.1082 22.8761 45.4494 22.8029 44.8394L19.3867 49.012C19.8503 48.9876 20.314 48.8168 20.68 48.4996C20.5824 48.89 20.558 49.3048 20.68 49.6952L23.5105 46.2302C23.0713 46.279 22.6321 46.401 22.2661 46.6695Z" fill="#C38061"/>
<path opacity="0.5" d="M41.47 41.1304L35.9553 36.8845C35.6381 36.6405 35.1989 36.6893 34.9549 37.0066C34.7108 37.3238 34.7596 37.763 35.0769 38.007L40.5916 42.2528C40.7136 42.3504 40.8844 42.3992 41.0308 42.3992C41.0552 42.3992 41.0796 42.3992 41.1284 42.3992C41.1528 42.0576 41.104 41.716 41.0064 41.3744C41.2504 41.4232 41.47 41.472 41.714 41.472C41.6652 41.35 41.592 41.228 41.47 41.1304Z" fill="#863B3B"/>
<path opacity="0.5" d="M37.4194 45.9618C37.4194 45.669 37.3706 45.3518 37.2974 45.059C37.5903 45.1566 37.8831 45.181 38.1759 45.181C38.2735 45.181 38.3711 45.181 38.4443 45.1566C38.4199 44.9858 38.3223 44.8394 38.1759 44.7173L32.3196 40.1055C32.0024 39.8615 31.5631 39.9103 31.3191 40.2275C31.0751 40.5447 31.1239 40.9839 31.4411 41.228L37.2974 45.8398C37.3218 45.913 37.3706 45.9374 37.4194 45.9618Z" fill="#863B3B"/>
<path opacity="0.5" d="M34.5157 48.9143C34.4913 48.7679 34.3937 48.6215 34.2717 48.5239L30.5383 45.4737C30.2211 45.2297 29.7818 45.2541 29.5134 45.5713C29.2694 45.8885 29.3182 46.3278 29.611 46.5962L33.2712 49.5975C33.32 49.3047 33.3444 49.0119 33.32 48.7191C33.686 48.8655 34.0521 48.9387 34.4181 48.9387C34.4669 48.9143 34.4913 48.9143 34.5157 48.9143Z" fill="#863B3B"/>
<path d="M38.4199 18.5834L42.9342 17.8757L48.1805 31.5893L45.2767 33.4438L38.4199 18.5834Z" fill="#D89475"/>
<path d="M15.4337 19.584L11.4319 18.1199L5.4292 33.5903L10.1143 35.3716L15.4337 19.584Z" fill="#AD5B5B"/>
<path d="M47.4483 36.2744C47.6191 36.7869 48.2047 37.0797 48.7415 36.9333L52.6214 35.7864C53.1582 35.64 53.4266 35.0788 53.2558 34.5664L46.9846 16.7046C46.8138 16.1922 46.2282 15.8993 45.6914 16.0457L41.8116 17.1926C41.2747 17.339 41.0063 17.9002 41.1771 18.4127L47.4483 36.2744Z" fill="white"/>
<path d="M49.2541 36.7381C49.4249 37.2505 50.0106 37.5433 50.523 37.3481L53.3292 36.372C53.8416 36.2012 54.1344 35.6156 53.9392 35.1032L47.1312 15.6553C46.9604 15.1429 46.3748 14.8501 45.8623 15.0453L43.0562 16.0213C42.5438 16.1921 42.251 16.7778 42.4462 17.2902L49.2541 36.7381Z" fill="#494C6F"/>
<path d="M6.55154 36.2744C6.38073 36.7869 5.7951 37.0797 5.25827 36.9333L1.37846 35.762C0.841629 35.6156 0.573214 35.0544 0.744023 34.542L7.01516 16.7046C7.18597 16.1922 7.77161 15.8993 8.30843 16.0457L12.1882 17.1926C12.7251 17.339 12.9935 17.9002 12.8227 18.4127L6.55154 36.2744Z" fill="white"/>
<path d="M4.74596 36.7381C4.57516 37.2505 3.98952 37.5433 3.4771 37.3481L0.670943 36.372C0.158515 36.2012 -0.134301 35.6156 0.0609101 35.1032L6.86888 15.6553C7.03969 15.1429 7.62532 14.8501 8.13775 15.0453L10.9439 16.0213C11.4563 16.2165 11.7247 16.8022 11.5539 17.3146L4.74596 36.7381Z" fill="#717493"/>
</svg>
