<svg height="70" viewBox="0 0 105 70" width="105" xmlns="http://www.w3.org/2000/svg" xmlns:xlink="http://www.w3.org/1999/xlink"><clipPath id="a"><rect height="70" rx="12" width="105" x="-3610" y="645"/></clipPath><g transform="translate(3610 -645)"><rect fill="#a4d9c8" height="70" rx="12" width="105" x="-3610" y="645"/><text fill="#090909" font-family="Archivo-Bold, Archivo" font-size="12" font-weight="700" transform="translate(-3599 667)"><tspan x="0" y="0">Sports</tspan></text><g clip-path="url(#a)"><circle cx="22.815" cy="22.815" fill="#ff8d5c" r="22.815" transform="translate(-3545.111 671.943)"/><path d="m110.027 60.094a22.83 22.83 0 0 1 -28.977 28.977 22.819 22.819 0 1 0 28.977-28.977z" fill="#ff774d" transform="translate(-3624.939 613.072)"/><path d="m122.124 90.876c3.077-12.907-2.851-19.637-6.677-24.237a26.013 26.013 0 0 1 -3.447-4.772 20.675 20.675 0 0 1 10.131 3.446 22.917 22.917 0 0 0 -2.251-2.816 20.411 20.411 0 0 0 -8.412-2.074 6.692 6.692 0 0 1 .136-3.558q-.649-.257-1.318-.473a7.994 7.994 0 0 0 -.25 4.049 27.32 27.32 0 0 0 -6.359 1.09 31.124 31.124 0 0 0 -5.82-5.618q-.9.218-1.779.507l.509.32a27.722 27.722 0 0 1 5.642 5.238 25.9 25.9 0 0 0 -6.827 3.3 11.13 11.13 0 0 0 -8.9-2.705q-.762.82-1.443 1.714l.106-.033a10.293 10.293 0 0 1 9.046 1.846 32.561 32.561 0 0 0 -12.481 19.642 22.672 22.672 0 0 0 1.024 2.422 31.3 31.3 0 0 1 12.476-21.076c1.888 2.237 1.3 4.6.376 8.35-1.318 5.329-3.116 12.6 1.021 24.493q.807.243 1.637.428c-4.224-11.82-2.807-18.487-1.3-24.585.921-3.722 1.659-6.72-.573-9.474a24.991 24.991 0 0 1 6.783-3.154c7.1 9.247 7.537 25.651 6.865 36.785l1.568-1.226c.1-8.918.382-26.048-6.991-35.974a25.529 25.529 0 0 1 5.846-.883 23.031 23.031 0 0 0 3.907 5.685c4.317 5.191 9.69 11.651 5.959 24.663z" fill="#414344" transform="translate(-3625.524 616.671)"/><path d="m436.755 281.908a20.064 20.064 0 0 0 .816-3.122 2.252 2.252 0 0 0 -.923-2.227 20.074 20.074 0 0 0 -2.785-1.631l.675 3.49z" fill="#b56959" transform="translate(-4007.313 429.079)"/><path d="m204.217 279.463a21.6 21.6 0 0 0 22.557-10.4l-1.465-6.215-3.272-5.23a21.6 21.6 0 0 0 -23.309 8.6l1.962 6.939z" fill="#b56959" transform="translate(-3798.759 445.131)"/><path d="m217.036 315.49a14.411 14.411 0 0 1 -14.407-14.079 19.466 19.466 0 0 0 -3.9 4.345l1.962 6.939 3.527 6.305a20.4 20.4 0 0 0 12.148-1.3 22.29 22.29 0 0 0 5.082-2.909 14.4 14.4 0 0 1 -4.412.689z" fill="#a85b4a" transform="translate(-3798.76 405.589)"/><path d="m404.875 263.806 4.741 11.445a20.775 20.775 0 0 0 1.428-3.208l-2.891-6.979a20.776 20.776 0 0 0 -3.278-1.258z" fill="#f2f2ff" transform="translate(-3981.602 438.943)"/><path d="m250.354 288.922a38.317 38.317 0 0 0 -3.752.815l-.371-.895a.565.565 0 0 0 -1.044.433l.32.772q-1.989.592-4.008 1.4l-.309-.745a.565.565 0 0 0 -1.044.433l.308.744q-1.994.853-3.824 1.844l-.32-.772a.565.565 0 0 0 -1.044.433l.37.894q-1.133.653-2.187 1.356a.565.565 0 0 0 .627.94q.963-.642 2-1.242l.425 1.026a.565.565 0 0 0 1.044-.433l-.477-1.152q1.821-.992 3.822-1.849l.491 1.185a.565.565 0 0 0 1.044-.433l-.491-1.185q2.018-.809 4.01-1.395l.477 1.152a.565.565 0 0 0 1.044-.433l-.425-1.026q1.77-.468 3.5-.753a.565.565 0 0 0 -.186-1.114z" fill="#f2f2ff" transform="translate(-3829.327 417.047)"/><path d="m188.8 352.166a19.938 19.938 0 0 0 3.141.928l-5.488-13.248a19.94 19.94 0 0 0 -1.565 2.877z" fill="#ccccf0" transform="translate(-3786.488 371.499)"/><circle cx="7.893" cy="7.893" fill="#f2f2ff" r="7.893" transform="translate(-3609.35 698.085)"/><path d="m69.611 309.621a11.172 11.172 0 0 1 -10.964 9.767 7.893 7.893 0 1 0 10.964-9.767z" fill="#e6e6ff" transform="translate(-3667.514 389.307)"/><g fill="#ff596d"><path d="m141.479 324.749a9.719 9.719 0 0 0 -1.13 1.708l-.64-.636a.565.565 0 0 0 -.8.8l.914.908a16.43 16.43 0 0 0 -.823 2.371l-.973-.112a.565.565 0 0 0 -.129 1.123l.845.1a18.8 18.8 0 0 0 -.331 2.618l-.877.265a.565.565 0 0 0 .327 1.082l.519-.157a24.063 24.063 0 0 0 .161 2.621 7.9 7.9 0 0 0 1.083-.521 20.036 20.036 0 0 1 -.107-2.443l1.206-.364a.565.565 0 0 0 -.327-1.082l-.821.248a17.59 17.59 0 0 1 .306-2.135l.946.109a.565.565 0 0 0 .129-1.123l-.806-.093a15.743 15.743 0 0 1 .554-1.634l.382.38a.565.565 0 0 0 .8-.8l-.684-.679a10.072 10.072 0 0 1 1-1.642 7.931 7.931 0 0 0 -.724-.912z" transform="translate(-3737.126 375.889)"/><path d="m71.413 316.847-.825.509a.565.565 0 0 0 .593.962l.465-.287a15.653 15.653 0 0 1 .168 1.721l-.814-.093a.565.565 0 0 0 -.129 1.123l.951.109a17.567 17.567 0 0 1 -.19 2.15l-.746-.43a.565.565 0 0 0 -.564.98l1.094.63a20.287 20.287 0 0 1 -.662 2.353 7.9 7.9 0 0 0 .937.754 24.188 24.188 0 0 0 .753-2.516l.47.27a.565.565 0 0 0 .564-.98l-.794-.457a18.841 18.841 0 0 0 .275-2.625l.843.1a.565.565 0 0 0 .131-1.12l-.972-.112a16.438 16.438 0 0 0 -.267-2.5l1.1-.676a.565.565 0 0 0 -.593-.962l-.768.474a9.763 9.763 0 0 0 -.712-1.92 7.93 7.93 0 0 0 -.908.722 9.985 9.985 0 0 1 .6 1.821z" transform="translate(-3677.616 385.155)"/></g></g></g></svg>