<svg width="46" height="43" viewBox="0 0 46 43" fill="none" xmlns="http://www.w3.org/2000/svg">
<rect y="3.60974" width="45.1219" height="33.3902" rx="4" fill="#EAEAEA"/>
<path d="M0 7.60974C0 5.4006 1.79086 3.60974 4 3.60974H41.1219C43.3311 3.60974 45.1219 5.4006 45.1219 7.60974V11.7317H0V7.60974Z" fill="#FF4E4E"/>
<line x1="10.7317" y1="7.12195" x2="10.7317" y2="0.999997" stroke="black" stroke-width="2" stroke-linecap="round"/>
<line x1="34.1951" y1="7.12195" x2="34.1951" y2="0.999997" stroke="black" stroke-width="2" stroke-linecap="round"/>
<line x1="8.31689" y1="19.6584" x2="34.0974" y2="19.6584" stroke="#FFC0C0" stroke-width="4" stroke-linecap="round"/>
<line x1="8.62183" y1="20.2559" x2="11.2316" y2="20.2559" stroke="#222744" stroke-linecap="round"/>
<line x1="14.939" y1="20.2559" x2="17.5487" y2="20.2559" stroke="#222744" stroke-linecap="round"/>
<line x1="22.1584" y1="20.2559" x2="24.7682" y2="20.2559" stroke="#222744" stroke-linecap="round"/>
<line x1="29.3782" y1="20.2559" x2="31.9879" y2="20.2559" stroke="#222744" stroke-linecap="round"/>
<line x1="8.31689" y1="26.8777" x2="19.6584" y2="26.8777" stroke="#FFC0C0" stroke-width="4" stroke-linecap="round"/>
<line x1="8.62183" y1="27.4753" x2="11.2316" y2="27.4753" stroke="#222744" stroke-linecap="round"/>
<line x1="14.939" y1="27.4753" x2="17.5487" y2="27.4753" stroke="#222744" stroke-linecap="round"/>
<circle cx="22.7147" cy="21.1002" r="6.10024" fill="#6D3A3A"/>
<circle cx="18.3573" cy="28.0719" r="2.61439" fill="#6D3A3A"/>
<path d="M18.4278 26.1013C17.8817 26.1013 17.439 25.6585 17.439 25.1125V24.345C17.439 23.799 17.8817 23.3562 18.4278 23.3562C18.9739 23.3562 19.4166 23.799 19.4166 24.345V25.1125C19.4166 25.6585 18.9739 26.1013 18.4278 26.1013Z" fill="#C16C6C"/>
<path d="M27.6517 26.1013C27.1056 26.1013 26.6628 25.6585 26.6628 25.1125V24.345C26.6628 23.799 27.1056 23.3562 27.6517 23.3562C28.1977 23.3562 28.6405 23.799 28.6405 24.345V25.1125C28.6405 25.6585 28.1977 26.1013 27.6517 26.1013Z" fill="#C16C6C"/>
<path d="M25.4971 27.4446H20.8186V33.0233H25.4971V27.4446Z" fill="#C16C6C"/>
<path d="M23.1651 30.3813C20.6709 30.3813 18.6489 28.3594 18.6489 25.8652V20.5963C18.6489 19.4304 19.5935 18.4858 20.7594 18.4858H25.5855C26.7514 18.4858 27.696 19.4304 27.696 20.5963V25.8652C27.6812 28.3594 25.6593 30.3813 23.1651 30.3813Z" fill="#C16C6C"/>
<path d="M25.497 29.7173V30.3962C24.8181 30.8094 24.0211 31.0456 23.1651 31.0456C22.3091 31.0456 21.5121 30.8094 20.8333 30.3962V29.7173C21.5121 30.1305 22.3091 30.3667 23.1651 30.3667C24.0064 30.3667 24.8181 30.1305 25.497 29.7173Z" fill="#773535"/>
<path d="M32.3007 42.7937H14V35.9752C14 33.9237 15.6677 32.2708 17.7044 32.2708H28.5815C30.633 32.2708 32.286 33.9385 32.286 35.9752V42.7937H32.3007Z" fill="#78ACEA"/>
<path d="M25.7627 32.2559L26.84 33.8498L23.2832 32.2559H25.7627Z" fill="white"/>
<path d="M20.8036 32.2559L19.7114 33.8498L23.283 32.2559H20.8036Z" fill="white"/>
<path d="M23.2832 32.2559L21.8811 41.0815L23.1651 43.0002L24.6852 41.0815L23.2832 32.2559Z" fill="#4067B6"/>
<path d="M23.2831 33.4366L22.2795 32.7134L23.2831 32.2559L24.272 32.6986L23.2831 33.4366Z" fill="#4067B6"/>
<path d="M17.5421 33.8499H17.2026V42.7936H17.5421V33.8499Z" fill="#5F96D7"/>
<path d="M28.9801 33.8499H28.6406V42.7936H28.9801V33.8499Z" fill="#5F96D7"/>
</svg>
