<svg width="55" height="39" viewBox="0 0 55 39" fill="none" xmlns="http://www.w3.org/2000/svg">
<circle cx="10" cy="14" r="7" fill="#6D3A3A"/>
<circle cx="5" cy="22" r="3" fill="#6D3A3A"/>
<rect x="37" y="13" width="14" height="14" fill="#222744"/>
<path d="M39.0807 19.5069C38.4541 19.5069 37.946 18.9989 37.946 18.3723V17.4916C37.946 16.865 38.4541 16.3569 39.0807 16.3569C39.7073 16.3569 40.2154 16.865 40.2154 17.4916V18.3723C40.2154 18.9989 39.7073 19.5069 39.0807 19.5069Z" fill="#C16C6C"/>
<path d="M49.6654 19.5069C49.0388 19.5069 48.5308 18.9989 48.5308 18.3723V17.4916C48.5308 16.865 49.0388 16.3569 49.6654 16.3569C50.2921 16.3569 50.8001 16.865 50.8001 17.4916V18.3723C50.8001 18.9989 50.2921 19.5069 49.6654 19.5069Z" fill="#C16C6C"/>
<path d="M47.1928 21.0481H41.8242V27.4497H47.1928V21.0481Z" fill="#C16C6C"/>
<path d="M44.517 24.4181C41.6549 24.4181 39.3347 22.0979 39.3347 19.2358V13.1898C39.3347 11.8519 40.4186 10.7681 41.7565 10.7681H47.2944C48.6323 10.7681 49.7162 11.8519 49.7162 13.1898V19.2358C49.6992 22.0979 47.3791 24.4181 44.517 24.4181Z" fill="#C16C6C"/>
<path d="M47.1927 23.656V24.435C46.4136 24.9092 45.4991 25.1802 44.5169 25.1802C43.5346 25.1802 42.6201 24.9092 41.8411 24.435V23.656C42.6201 24.1302 43.5346 24.4012 44.5169 24.4012C45.4822 24.4012 46.4136 24.1302 47.1927 23.656Z" fill="#773535"/>
<path d="M55 38.6612H34V30.837C34 28.483 35.9137 26.5862 38.2508 26.5862H50.7323C53.0863 26.5862 54.9831 28.4999 54.9831 30.837V38.6612H55Z" fill="#515965"/>
<path d="M47.4975 26.5691L48.7338 28.3981L44.6523 26.5691H47.4975Z" fill="white"/>
<path d="M41.8072 26.5691L40.554 28.3981L44.6523 26.5691H41.8072Z" fill="white"/>
<path d="M44.6523 26.5691L43.0435 36.6965L44.5168 38.8981L46.2612 36.6965L44.6523 26.5691Z" fill="#161415"/>
<path d="M44.6523 27.9239L43.5007 27.0941L44.6523 26.5691L45.787 27.0772L44.6523 27.9239Z" fill="#161415"/>
<path d="M38.0646 28.3982H37.675V38.6611H38.0646V28.3982Z" fill="#9FBCEA"/>
<path d="M51.1896 28.3982H50.8V38.6611H51.1896V28.3982Z" fill="#2E3745"/>
<path d="M37.7252 16C41.6533 16 45.9088 11.6667 47 9.5C45.3633 7.5 40.4531 7.5 38.2708 9.5C36.5249 11.1 36.8159 14.5 37.7252 16Z" fill="#222744"/>
<path d="M50.5649 17C48.208 17 45.6547 12.6667 45 10.5C45.982 8.5 49.1906 8.5 50.4999 10.5C51.5474 12.1 51.1104 15.5 50.5649 17Z" fill="#222744"/>
<path d="M5.08072 19.5069C4.45411 19.5069 3.94604 18.9989 3.94604 18.3723V17.4916C3.94604 16.865 4.45411 16.3569 5.08072 16.3569C5.70733 16.3569 6.2154 16.865 6.2154 17.4916V18.3723C6.2154 18.9989 5.70733 19.5069 5.08072 19.5069Z" fill="#C16C6C"/>
<path d="M15.6654 19.5069C15.0388 19.5069 14.5308 18.9989 14.5308 18.3723V17.4916C14.5308 16.865 15.0388 16.3569 15.6654 16.3569C16.2921 16.3569 16.8001 16.865 16.8001 17.4916V18.3723C16.8001 18.9989 16.2921 19.5069 15.6654 19.5069Z" fill="#C16C6C"/>
<path d="M13.1928 21.0481H7.82422V27.4497H13.1928V21.0481Z" fill="#C16C6C"/>
<path d="M10.517 24.4181C7.65488 24.4181 5.33472 22.0979 5.33472 19.2358V13.1898C5.33472 11.8519 6.41859 10.7681 7.75649 10.7681H13.2944C14.6323 10.7681 15.7162 11.8519 15.7162 13.1898V19.2358C15.6992 22.0979 13.3791 24.4181 10.517 24.4181Z" fill="#C16C6C"/>
<path d="M13.1927 23.656V24.435C12.4136 24.9092 11.4991 25.1802 10.5169 25.1802C9.53461 25.1802 8.6201 24.9092 7.84106 24.435V23.656C8.6201 24.1302 9.53461 24.4012 10.5169 24.4012C11.4822 24.4012 12.4136 24.1302 13.1927 23.656Z" fill="#773535"/>
<path d="M21 38.6612H0V30.837C0 28.483 1.91371 26.5862 4.25081 26.5862H16.7323C19.0863 26.5862 20.9831 28.4999 20.9831 30.837V38.6612H21Z" fill="#78ACEA"/>
<path d="M13.4975 26.5691L14.7338 28.3981L10.6523 26.5691H13.4975Z" fill="white"/>
<path d="M7.80718 26.5691L6.55396 28.3981L10.6523 26.5691H7.80718Z" fill="white"/>
<path d="M10.6523 26.5691L9.04346 36.6965L10.5168 38.8981L12.2612 36.6965L10.6523 26.5691Z" fill="#4067B6"/>
<path d="M10.6523 27.9239L9.50073 27.0941L10.6523 26.5691L11.787 27.0772L10.6523 27.9239Z" fill="#4067B6"/>
<path d="M4.06457 28.3982H3.67505V38.6611H4.06457V28.3982Z" fill="#5F96D7"/>
<path d="M17.1896 28.3982H16.8V38.6611H17.1896V28.3982Z" fill="#2E3745"/>
<path d="M20.5324 13.9667C19.7267 13.9667 19.0735 13.3135 19.0735 12.5079V11.3756C19.0735 10.57 19.7267 9.91675 20.5324 9.91675C21.338 9.91675 21.9912 10.57 21.9912 11.3756V12.5079C21.9912 13.3135 21.338 13.9667 20.5324 13.9667Z" fill="#C16C6C"/>
<path d="M34.1412 13.9667C33.3356 13.9667 32.6824 13.3135 32.6824 12.5079V11.3756C32.6824 10.57 33.3356 9.91675 34.1412 9.91675C34.9469 9.91675 35.6001 10.57 35.6001 11.3756V12.5079C35.6001 13.3135 34.9469 13.9667 34.1412 13.9667Z" fill="#C16C6C"/>
<path d="M30.962 15.9482H24.0596V24.1789H30.962V15.9482Z" fill="#C16C6C"/>
<path d="M27.5218 20.281C23.842 20.281 20.8589 17.2979 20.8589 13.6181V5.84467C20.8589 4.12451 22.2524 2.73096 23.9726 2.73096H31.0928C32.8129 2.73096 34.2065 4.12451 34.2065 5.84467V13.6181C34.1847 17.2979 31.2016 20.281 27.5218 20.281Z" fill="#C16C6C"/>
<path d="M30.9622 19.3013V20.3029C29.9606 20.9126 28.7848 21.2609 27.5219 21.2609C26.259 21.2609 25.0832 20.9126 24.0815 20.3029V19.3013C25.0832 19.9109 26.259 20.2593 27.5219 20.2593C28.763 20.2593 29.9606 19.9109 30.9622 19.3013Z" fill="#773535"/>
<path d="M41 38.5936H14V28.5339C14 25.5073 16.4605 23.0686 19.4653 23.0686H35.5129C38.5395 23.0686 40.9782 25.5291 40.9782 28.5339V38.5936H41Z" fill="#CEE1FF"/>
<path d="M31.3541 23.0466L32.9436 25.3982L27.696 23.0466H31.3541Z" fill="white"/>
<path d="M24.0378 23.0466L22.4265 25.3982L27.6959 23.0466H24.0378Z" fill="white"/>
<path d="M27.696 23.0466L25.6274 36.0676L27.5218 38.8982L29.7645 36.0676L27.696 23.0466Z" fill="#D64C5A"/>
<path d="M27.696 24.7886L26.2153 23.7216L27.696 23.0466L29.1548 23.6999L27.696 24.7886Z" fill="#D64C5A"/>
<path d="M19.2257 25.3982H18.7249V38.5934H19.2257V25.3982Z" fill="#9FBCEA"/>
<path d="M36.1007 25.3982H35.5999V38.5934H36.1007V25.3982Z" fill="#9FBCEA"/>
<path d="M20.1483 2.15621C18.5088 2.70273 19.9206 7.84915 20.8314 10.354L22.1978 3.52252H33.1283L33.8114 10.354C37.6371 4.34227 35.8609 1.0176 34.4946 0.106742C33.1283 0.334454 29.5759 0.653247 26.2967 0.106723C23.0176 -0.439801 21.0592 1.24533 20.8315 2.1562L20.1483 2.15621Z" fill="#222744"/>
</svg>
