<svg fill="none" height="45" viewBox="0 0 40 45" width="40" xmlns="http://www.w3.org/2000/svg"><circle cx="20" cy="20" fill="#f7cc7f" r="20"/><circle cx="19" cy="11" fill="#6d3a3a" r="7"/><circle cx="14" cy="19" fill="#6d3a3a" r="3"/><path d="m14.0807 16.5069c-.6266 0-1.1347-.508-1.1347-1.1346v-.8807c0-.6266.5081-1.1347 1.1347-1.1347s1.1347.5081 1.1347 1.1347v.8807c0 .6266-.5081 1.1346-1.1347 1.1346z" fill="#c16c6c"/><path d="m24.6654 16.5069c-.6266 0-1.1346-.508-1.1346-1.1346v-.8807c0-.6266.508-1.1347 1.1346-1.1347.6267 0 1.1347.5081 1.1347 1.1347v.8807c0 .6266-.508 1.1346-1.1347 1.1346z" fill="#c16c6c"/><path d="m22.1928 18.0481h-5.3686v6.4016h5.3686z" fill="#c16c6c"/><path d="m19.517 21.4181c-2.8621 0-5.1823-2.3202-5.1823-5.1823v-6.046c0-1.33786 1.0839-2.42173 2.4218-2.42173h5.5379c1.3379 0 2.4218 1.08387 2.4218 2.42173v6.046c-.017 2.8621-2.3371 5.1823-5.1992 5.1823z" fill="#c16c6c"/><path d="m22.1927 20.656v.779c-.7791.4742-1.6936.7452-2.6758.7452-.9823 0-1.8968-.271-2.6758-.7452v-.779c.779.4742 1.6935.7452 2.6758.7452.9653 0 1.8967-.271 2.6758-.7452z" fill="#773535"/><path d="m30 35.6612h-21v-7.8242c0-2.354 1.9137-4.2508 4.2508-4.2508h12.4815c2.354 0 4.2508 1.9137 4.2508 4.2508v7.8242z" fill="#78acea"/><path d="m22.4975 23.5691 1.2363 1.829-4.0815-1.829z" fill="#fff"/><path d="m16.8072 23.5691-1.2532 1.829 4.0983-1.829z" fill="#fff"/><path d="m19.6523 23.5691-1.6088 10.1274 1.4733 2.2016 1.7444-2.2016z" fill="#4067b6"/><path d="m19.6523 24.9239-1.1516-.8298 1.1516-.525 1.1347.5081z" fill="#4067b6"/><path d="m13.0646 25.3982h-.3896v10.2629h.3896z" fill="#5f96d7"/><path d="m26.1896 25.3982h-.3896v10.2629h.3896z" fill="#5f96d7"/><rect fill="#78a9ba" height="10" rx="3" width="39" y="34"/><rect fill="#d5f4ff" height="10" rx="3" width="39" y="35"/><g fill="#1a2e35"><path d="m6.61111 42 .05703-1.5278-1.32596.8195-.34218-.5834 1.39725-.7083-1.39725-.7083.34218-.5834 1.32596.8195-.05703-1.5278h.68437l-.05703 1.5278 1.32595-.8195.34219.5834-1.39725.7083 1.39725.7083-.34219.5834-1.32595-.8195.05703 1.5278z"/><path d="m11.6298 42 .057-1.5278-1.3259.8195-.3422-.5834 1.3972-.7083-1.3972-.7083.3422-.5834 1.3259.8195-.057-1.5278h.6844l-.0571 1.5278 1.326-.8195.3422.5834-1.3973.7083 1.3973.7083-.3422.5834-1.326-.8195.0571 1.5278z"/><path d="m16.6485 42 .057-1.5278-1.326.8195-.3421-.5834 1.3972-.7083-1.3972-.7083.3421-.5834 1.326.8195-.057-1.5278h.6843l-.057 1.5278 1.326-.8195.3422.5834-1.3973.7083 1.3973.7083-.3422.5834-1.326-.8195.057 1.5278z"/><path d="m21.6672 42 .057-1.5278-1.326.8195-.3422-.5834 1.3973-.7083-1.3973-.7083.3422-.5834 1.326.8195-.057-1.5278h.6843l-.057 1.5278 1.326-.8195.3421.5834-1.3972.7083 1.3972.7083-.3421.5834-1.326-.8195.057 1.5278z"/><path d="m26.6858 42 .0571-1.5278-1.326.8195-.3422-.5834 1.3973-.7083-1.3973-.7083.3422-.5834 1.326.8195-.0571-1.5278h.6844l-.057 1.5278 1.3259-.8195.3422.5834-1.3972.7083 1.3972.7083-.3422.5834-1.3259-.8195.057 1.5278z"/><path d="m31.7045 42 .0571-1.5278-1.326.8195-.3422-.5834 1.3973-.7083-1.3973-.7083.3422-.5834 1.326.8195-.0571-1.5278h.6844l-.057 1.5278 1.3259-.8195.3422.5834-1.3972.7083 1.3972.7083-.3422.5834-1.3259-.8195.057 1.5278z"/></g></svg>