<svg width="45" height="31" viewBox="0 0 45 31" fill="none" xmlns="http://www.w3.org/2000/svg">
<path d="M19.847 4.65069C14.8444 0.255536 5.98127 1.53746 2.17501 2.72781L0 27.9999C5.87252 24.7035 15.6782 25.9543 19.847 27.7856V4.65069Z" fill="#B4CFF1"/>
<path d="M19.8469 4.65069C24.8494 0.255536 33.7126 1.53746 37.5188 2.72781L39.6938 27.9999C33.8213 24.7035 24.0157 25.9543 19.8469 27.7856V4.65069Z" fill="#B4CFF1"/>
<path d="M19.847 3.06304C14.8444 -1.33211 5.98127 -0.0501904 2.17501 1.14016L0 26.4122C5.87252 23.1159 15.6782 25.9544 19.847 27.7857V3.06304Z" fill="#C8E1FF"/>
<path d="M19.8469 3.06304C24.8494 -1.33211 33.7126 -0.0501903 37.5188 1.14016L39.6938 26.4122C33.8213 23.1159 24.0157 25.9544 19.8469 27.7857V3.06304Z" fill="#C8E1FF"/>
<rect x="19.053" y="2.38159" width="1.58776" height="25.4041" rx="0.793878" fill="#AECEF5"/>
<path d="M23.0225 5.16013C25.5364 4.49856 31.517 3.57237 35.3276 5.16013" stroke="#78ACEA" stroke-linecap="round"/>
<path d="M3.96948 5.16013C6.48343 4.49856 12.464 3.57237 16.2746 5.16013" stroke="#78ACEA" stroke-linecap="round"/>
<path d="M23.0225 8.8154C25.5364 8.15384 31.517 7.22765 35.3276 8.8154" stroke="#78ACEA" stroke-linecap="round"/>
<path d="M3.96948 8.8154C6.48343 8.15384 12.464 7.22765 16.2746 8.8154" stroke="#78ACEA" stroke-linecap="round"/>
<path d="M23.0225 12.7849C25.5364 12.1233 31.517 11.1971 35.3276 12.7849" stroke="#78ACEA" stroke-linecap="round"/>
<path d="M3.96948 12.7849C6.48343 12.1233 12.464 11.1971 16.2746 12.7849" stroke="#78ACEA" stroke-linecap="round"/>
<path d="M23.0225 16.7541C25.5364 16.0926 31.517 15.1664 35.3276 16.7541" stroke="#78ACEA" stroke-linecap="round"/>
<path d="M3.96948 16.7541C6.48343 16.0926 12.464 15.1664 16.2746 16.7541" stroke="#78ACEA" stroke-linecap="round"/>
<path d="M23.0225 20.7236C25.5364 20.062 31.517 19.1358 35.3276 20.7236" stroke="#78ACEA" stroke-linecap="round"/>
<path d="M3.96948 20.7236C6.48343 20.062 12.464 19.1358 16.2746 20.7236" stroke="#78ACEA" stroke-linecap="round"/>
<path d="M11 23C11 20.2386 13.2386 18 16 18H41V28H16C13.2386 28 11 25.7614 11 23V23Z" fill="#4E88FF"/>
<path d="M13 23C13 20.7909 14.7909 19 17 19H41V27H17C14.7909 27 13 25.2091 13 23V23Z" fill="#F7EDDB"/>
<line x1="15" y1="19.9" x2="41" y2="19.9" stroke="#F7CC7F" stroke-width="0.2"/>
<line x1="14" y1="20.9" x2="41" y2="20.9" stroke="#F7CC7F" stroke-width="0.2"/>
<line x1="14" y1="21.9" x2="41" y2="21.9" stroke="#F7CC7F" stroke-width="0.2"/>
<line x1="14" y1="22.9" x2="41" y2="22.9" stroke="#F7CC7F" stroke-width="0.2"/>
<line x1="14" y1="23.9" x2="41" y2="23.9" stroke="#F7CC7F" stroke-width="0.2"/>
<line x1="14" y1="24.9" x2="41" y2="24.9" stroke="#F7CC7F" stroke-width="0.2"/>
<line x1="15" y1="25.9" x2="41" y2="25.9" stroke="#F7CC7F" stroke-width="0.2"/>
<path d="M7 13C7 10.2386 9.23858 8 12 8H37V18H12C9.23858 18 7 15.7614 7 13V13Z" fill="#CE2E2E"/>
<path d="M9 13C9 10.7909 10.7909 9 13 9H37V17H13C10.7909 17 9 15.2091 9 13V13Z" fill="#F7EDDB"/>
<line x1="11" y1="9.9" x2="37" y2="9.9" stroke="#F7CC7F" stroke-width="0.2"/>
<line x1="10" y1="10.9" x2="37" y2="10.9" stroke="#F7CC7F" stroke-width="0.2"/>
<line x1="10" y1="11.9" x2="37" y2="11.9" stroke="#F7CC7F" stroke-width="0.2"/>
<line x1="10" y1="12.9" x2="37" y2="12.9" stroke="#F7CC7F" stroke-width="0.2"/>
<line x1="10" y1="13.9" x2="37" y2="13.9" stroke="#F7CC7F" stroke-width="0.2"/>
<line x1="10" y1="14.9" x2="37" y2="14.9" stroke="#F7CC7F" stroke-width="0.2"/>
<line x1="11" y1="15.9" x2="37" y2="15.9" stroke="#F7CC7F" stroke-width="0.2"/>
<path d="M43.9186 6.73357C44.3091 7.12409 44.3091 7.75726 43.9186 8.14778L23.8813 28.1851L21.4407 25.7446L41.4781 5.70725C41.8686 5.31673 42.5018 5.31673 42.8923 5.70725L43.9186 6.73357Z" fill="#FF7575"/>
<path d="M42.7951 5.61033C43.1321 5.94729 43.1321 6.49362 42.7951 6.83059L22.6608 26.9649L21.4405 25.7447L41.5749 5.61033C41.9118 5.27336 42.4582 5.27336 42.7951 5.61033V5.61033Z" fill="#FF5A5A"/>
<path d="M43.9186 6.73357C44.3091 7.12409 44.3091 7.75726 43.9186 8.14778L42.7953 9.27107L40.3548 6.83054L41.4781 5.70725C41.8686 5.31673 42.5018 5.31673 42.8923 5.70725L43.9186 6.73357Z" fill="#1E0000"/>
<path d="M20.2203 29.4056L23.8811 28.1853L21.4406 25.7448L20.2203 29.4056Z" fill="#F7CC7F"/>
<path d="M20.2204 29.4055L22.0508 28.7954L20.8305 27.5751L20.2204 29.4055Z" fill="black"/>
</svg>
