<svg width="52" height="38" viewBox="0 0 52 38" fill="none" xmlns="http://www.w3.org/2000/svg">
<path d="M34.4772 6.65632C33.9447 7.18884 35.3647 10.8721 35.8085 12.3143L36.4741 11.9815L35.8085 8.98613L36.8069 7.98767L40.8008 7.32202L44.129 8.32049V11.6487C44.7946 10.9831 45.7931 7.65484 45.4603 6.65638C45.194 5.85761 44.2399 5.8798 43.7962 5.99074L43.4633 5.65786C39.8023 2.99529 35.1428 5.99068 34.4772 6.65632Z" fill="#222744" stroke="#222744"/>
<path d="M5.18896 10.3174C5.18896 7.19258 7.72212 4.65942 10.8469 4.65942C13.9717 4.65942 16.5049 7.19258 16.5049 10.3174V18.6379H5.18896V10.3174Z" fill="#222744"/>
<path d="M35.8406 14.0162C35.344 14.0162 34.9414 13.6136 34.9414 13.117V12.4192C34.9414 11.9226 35.344 11.52 35.8406 11.52C36.3371 11.52 36.7397 11.9226 36.7397 12.4192V13.117C36.7397 13.6136 36.3371 14.0162 35.8406 14.0162Z" fill="#C16C6C"/>
<path d="M44.2285 14.0162C43.732 14.0162 43.3293 13.6136 43.3293 13.117V12.4192C43.3293 11.9226 43.732 11.52 44.2285 11.52C44.725 11.52 45.1277 11.9226 45.1277 12.4192V13.117C45.1277 13.6136 44.725 14.0162 44.2285 14.0162Z" fill="#C16C6C"/>
<path d="M42.2689 15.2373H38.0146V20.3101H42.2689V15.2373Z" fill="#C16C6C"/>
<path d="M40.1486 17.9078C37.8806 17.9078 36.042 16.0692 36.042 13.8012V9.01015C36.042 7.94996 36.9009 7.09106 37.9611 7.09106H42.3495C43.4097 7.09106 44.2686 7.94996 44.2686 9.01015V13.8012C44.2552 16.0692 42.4166 17.9078 40.1486 17.9078Z" fill="#C16C6C"/>
<path d="M42.2691 17.304V17.9213C41.6518 18.297 40.9271 18.5118 40.1487 18.5118C39.3703 18.5118 38.6456 18.297 38.0283 17.9213V17.304C38.6456 17.6797 39.3703 17.8944 40.1487 17.8944C40.9137 17.8944 41.6518 17.6797 42.2691 17.304Z" fill="#773535"/>
<path d="M48.4558 29.1943H31.8147V22.9942C31.8147 21.1288 33.3312 19.6257 35.1832 19.6257H45.0739C46.9393 19.6257 48.4423 21.1422 48.4423 22.9942V29.1943H48.4558Z" fill="#3569D2"/>
<path d="M35.532 9.70808C35.9767 9.70808 36.3372 9.34758 36.3372 8.90287C36.3372 8.45816 35.9767 8.09766 35.532 8.09766C35.0873 8.09766 34.7268 8.45816 34.7268 8.90287C34.7268 9.34758 35.0873 9.70808 35.532 9.70808Z" fill="#222744"/>
<path d="M35.8406 8.68806C36.2853 8.68806 36.6458 8.32756 36.6458 7.88285C36.6458 7.43814 36.2853 7.07764 35.8406 7.07764C35.3959 7.07764 35.0354 7.43814 35.0354 7.88285C35.0354 8.32756 35.3959 8.68806 35.8406 8.68806Z" fill="#222744"/>
<path d="M36.646 7.88313C37.0907 7.88313 37.4512 7.52262 37.4512 7.07792C37.4512 6.63321 37.0907 6.27271 36.646 6.27271C36.2013 6.27271 35.8408 6.63321 35.8408 7.07792C35.8408 7.52262 36.2013 7.88313 36.646 7.88313Z" fill="#222744"/>
<path d="M38.0149 7.60115C38.4596 7.60115 38.8201 7.24064 38.8201 6.79594C38.8201 6.35123 38.4596 5.99072 38.0149 5.99072C37.5702 5.99072 37.2097 6.35123 37.2097 6.79594C37.2097 7.24064 37.5702 7.60115 38.0149 7.60115Z" fill="#222744"/>
<path d="M39.3433 7.60115C39.788 7.60115 40.1485 7.24064 40.1485 6.79594C40.1485 6.35123 39.788 5.99072 39.3433 5.99072C38.8986 5.99072 38.5381 6.35123 38.5381 6.79594C38.5381 7.24064 38.8986 7.60115 39.3433 7.60115Z" fill="#222744"/>
<path d="M40.5645 7.60115C41.0092 7.60115 41.3697 7.24064 41.3697 6.79594C41.3697 6.35123 41.0092 5.99072 40.5645 5.99072C40.1198 5.99072 39.7593 6.35123 39.7593 6.79594C39.7593 7.24064 40.1198 7.60115 40.5645 7.60115Z" fill="#222744"/>
<path d="M41.8665 7.60115C42.3112 7.60115 42.6717 7.24064 42.6717 6.79594C42.6717 6.35123 42.3112 5.99072 41.8665 5.99072C41.4218 5.99072 41.0613 6.35123 41.0613 6.79594C41.0613 7.24064 41.4218 7.60115 41.8665 7.60115Z" fill="#222744"/>
<path d="M43.0743 7.88313C43.519 7.88313 43.8795 7.52262 43.8795 7.07792C43.8795 6.63321 43.519 6.27271 43.0743 6.27271C42.6295 6.27271 42.269 6.63321 42.269 7.07792C42.269 7.52262 42.6295 7.88313 43.0743 7.88313Z" fill="#222744"/>
<path d="M44.0943 8.68806C44.539 8.68806 44.8995 8.32756 44.8995 7.88285C44.8995 7.43814 44.539 7.07764 44.0943 7.07764C43.6496 7.07764 43.2891 7.43814 43.2891 7.88285C43.2891 8.32756 43.6496 8.68806 44.0943 8.68806Z" fill="#222744"/>
<path d="M44.2552 9.70808C44.6999 9.70808 45.0604 9.34758 45.0604 8.90287C45.0604 8.45816 44.6999 8.09766 44.2552 8.09766C43.8105 8.09766 43.45 8.45816 43.45 8.90287C43.45 9.34758 43.8105 9.70808 44.2552 9.70808Z" fill="#222744"/>
<path d="M43.6514 9.17122C44.0961 9.17122 44.4566 8.81071 44.4566 8.366C44.4566 7.9213 44.0961 7.56079 43.6514 7.56079C43.2067 7.56079 42.8462 7.9213 42.8462 8.366C42.8462 8.81071 43.2067 9.17122 43.6514 9.17122Z" fill="#222744"/>
<path d="M42.3362 8.68806C42.7809 8.68806 43.1414 8.32756 43.1414 7.88285C43.1414 7.43814 42.7809 7.07764 42.3362 7.07764C41.8915 7.07764 41.531 7.43814 41.531 7.88285C41.531 8.32756 41.8915 8.68806 42.3362 8.68806Z" fill="#222744"/>
<path d="M41.3699 8.68806C41.8146 8.68806 42.1751 8.32756 42.1751 7.88285C42.1751 7.43814 41.8146 7.07764 41.3699 7.07764C40.9252 7.07764 40.5647 7.43814 40.5647 7.88285C40.5647 8.32756 40.9252 8.68806 41.3699 8.68806Z" fill="#222744"/>
<path d="M39.9876 8.68826C40.4545 8.68826 40.833 8.30973 40.833 7.84279C40.833 7.37584 40.4545 6.99731 39.9876 6.99731C39.5206 6.99731 39.1421 7.37584 39.1421 7.84279C39.1421 8.30973 39.5206 8.68826 39.9876 8.68826Z" fill="#222744"/>
<path d="M38.5384 8.68806C38.9831 8.68806 39.3436 8.32756 39.3436 7.88285C39.3436 7.43814 38.9831 7.07764 38.5384 7.07764C38.0937 7.07764 37.7332 7.43814 37.7332 7.88285C37.7332 8.32756 38.0937 8.68806 38.5384 8.68806Z" fill="#222744"/>
<path d="M37.1426 8.90291C37.5873 8.90291 37.9478 8.5424 37.9478 8.09769C37.9478 7.65299 37.5873 7.29248 37.1426 7.29248C36.6979 7.29248 36.3374 7.65299 36.3374 8.09769C36.3374 8.5424 36.6979 8.90291 37.1426 8.90291Z" fill="#222744"/>
<path d="M36.3372 9.17122C36.7819 9.17122 37.1424 8.81071 37.1424 8.366C37.1424 7.9213 36.7819 7.56079 36.3372 7.56079C35.8925 7.56079 35.532 7.9213 35.532 8.366C35.532 8.81071 35.8925 9.17122 36.3372 9.17122Z" fill="#222744"/>
<path d="M42.5107 19.6123L43.4904 21.0617L40.2561 19.6123H42.5107Z" fill="white"/>
<path d="M38.0014 19.6123L37.0083 21.0617L40.256 19.6123H38.0014Z" fill="white"/>
<path d="M40.2559 19.6123L38.981 27.6376L40.1485 29.3822L41.5308 27.6376L40.2559 19.6123Z" fill="#222744"/>
<path d="M40.2561 20.6859L39.3435 20.0283L40.2561 19.6123L41.1552 20.0149L40.2561 20.6859Z" fill="#222744"/>
<path d="M35.0355 21.0618H34.7268V29.1944H35.0355V21.0618Z" fill="#3D7CEA"/>
<path d="M45.4364 21.0618H45.1277V29.1944H45.4364V21.0618Z" fill="#1F59BE"/>
<path d="M6.55247 14.0162C6.05593 14.0162 5.65332 13.6136 5.65332 13.117V12.4192C5.65332 11.9226 6.05593 11.52 6.55247 11.52C7.04902 11.52 7.45163 11.9226 7.45163 12.4192V13.117C7.45163 13.6136 7.04902 14.0162 6.55247 14.0162Z" fill="#C16C6C"/>
<path d="M14.9402 14.0162C14.4436 14.0162 14.041 13.6136 14.041 13.117V12.4192C14.041 11.9226 14.4436 11.52 14.9402 11.52C15.4367 11.52 15.8393 11.9226 15.8393 12.4192V13.117C15.8393 13.6136 15.4367 14.0162 14.9402 14.0162Z" fill="#C16C6C"/>
<path d="M12.9808 15.2373H8.72656V20.3101H12.9808V15.2373Z" fill="#C16C6C"/>
<path d="M10.8605 17.9078C8.59248 17.9078 6.75391 16.0692 6.75391 13.8012V9.01015C6.75391 7.94996 7.6128 7.09106 8.673 7.09106H13.0614C14.1216 7.09106 14.9805 7.94996 14.9805 9.01015V13.8012C14.9671 16.0692 13.1285 17.9078 10.8605 17.9078Z" fill="#C16C6C"/>
<path d="M12.9808 17.304V17.9213C12.3634 18.297 11.6388 18.5118 10.8604 18.5118C10.082 18.5118 9.35732 18.297 8.73999 17.9213V17.304C9.35732 17.6797 10.082 17.8944 10.8604 17.8944C11.6253 17.8944 12.3634 17.6797 12.9808 17.304Z" fill="#773535"/>
<path d="M19.1674 29.1943H2.52637V22.9942C2.52637 21.1288 4.04285 19.6257 5.89484 19.6257H15.7855C17.6509 19.6257 19.154 21.1422 19.154 22.9942V29.1943H19.1674Z" fill="#3569D2"/>
<path d="M13.2224 19.6123L14.202 21.0617L10.9678 19.6123H13.2224Z" fill="white"/>
<path d="M8.71331 19.6123L7.72021 21.0617L10.9679 19.6123H8.71331Z" fill="white"/>
<path d="M10.9678 19.6123L9.69287 27.6376L10.8604 29.3822L12.2427 27.6376L10.9678 19.6123Z" fill="#222744"/>
<path d="M10.9677 20.6859L10.0552 20.0283L10.9677 19.6123L11.8669 20.0149L10.9677 20.6859Z" fill="#222744"/>
<path d="M5.74739 21.0618H5.43872V29.1944H5.74739V21.0618Z" fill="#1F59BE"/>
<path d="M16.148 21.0618H15.8394V29.1944H16.148V21.0618Z" fill="#3D7CEA"/>
<path d="M5.85449 10.3173C5.85449 7.56009 8.08963 5.32495 10.8468 5.32495C13.604 5.32495 15.8391 7.56009 15.8391 10.3173V10.6501H5.85449V10.3173Z" fill="#222744"/>
<path d="M20.2465 10.112C19.6208 10.112 19.1135 9.60471 19.1135 8.97905V8.09975C19.1135 7.47409 19.6208 6.9668 20.2465 6.9668C20.8721 6.9668 21.3794 7.47409 21.3794 8.09975V8.97905C21.3794 9.60471 20.8721 10.112 20.2465 10.112Z" fill="#773535"/>
<path d="M30.8153 10.112C30.1897 10.112 29.6824 9.60471 29.6824 8.97905V8.09975C29.6824 7.47409 30.1897 6.9668 30.8153 6.9668C31.441 6.9668 31.9483 7.47409 31.9483 8.09975V8.97905C31.9483 9.60471 31.441 10.112 30.8153 10.112Z" fill="#773535"/>
<path d="M28.3462 11.6509H22.9858V18.0428H28.3462V11.6509Z" fill="#914343"/>
<path d="M25.6744 15.0157C22.8166 15.0157 20.5 12.6991 20.5 9.84134V3.80457C20.5 2.4687 21.5822 1.38647 22.9181 1.38647H28.4476C29.7834 1.38647 30.8657 2.4687 30.8657 3.80457V9.84134C30.8488 12.6991 28.5321 15.0157 25.6744 15.0157Z" fill="#914343"/>
<path d="M28.3462 14.2549V15.0327C27.5683 15.5062 26.6552 15.7768 25.6744 15.7768C24.6937 15.7768 23.7805 15.5062 23.0027 15.0327V14.2549C23.7805 14.7284 24.6937 14.9989 25.6744 14.9989C26.6383 14.9989 27.5683 14.7284 28.3462 14.2549Z" fill="#773535"/>
<path d="M36.1417 29.2371H15.1736V21.4248C15.1736 19.0743 17.0844 17.1804 19.4179 17.1804H31.8804C34.2309 17.1804 36.1247 19.0912 36.1247 21.4248V29.2371H36.1417Z" fill="#4E88FF"/>
<path d="M20.2465 7.5924C20.8069 7.5924 21.2611 7.13816 21.2611 6.57782C21.2611 6.01748 20.8069 5.56323 20.2465 5.56323C19.6862 5.56323 19.2319 6.01748 19.2319 6.57782C19.2319 7.13816 19.6862 7.5924 20.2465 7.5924Z" fill="#222744"/>
<path d="M19.8576 6.03674C20.4179 6.03674 20.8722 5.58249 20.8722 5.02215C20.8722 4.46181 20.4179 4.00757 19.8576 4.00757C19.2973 4.00757 18.843 4.46181 18.843 5.02215C18.843 5.58249 19.2973 6.03674 19.8576 6.03674Z" fill="#222744"/>
<path d="M19.8576 4.68395C20.4179 4.68395 20.8722 4.22971 20.8722 3.66937C20.8722 3.10903 20.4179 2.65479 19.8576 2.65479C19.2973 2.65479 18.843 3.10903 18.843 3.66937C18.843 4.22971 19.2973 4.68395 19.8576 4.68395Z" fill="#222744"/>
<path d="M20.2465 3.3988C20.8069 3.3988 21.2611 2.94455 21.2611 2.38421C21.2611 1.82387 20.8069 1.36963 20.2465 1.36963C19.6862 1.36963 19.2319 1.82387 19.2319 2.38421C19.2319 2.94455 19.6862 3.3988 20.2465 3.3988Z" fill="#222744"/>
<path d="M21.2612 2.38415C21.8215 2.38415 22.2757 1.9299 22.2757 1.36956C22.2757 0.809225 21.8215 0.35498 21.2612 0.35498C20.7008 0.35498 20.2466 0.809225 20.2466 1.36956C20.2466 1.9299 20.7008 2.38415 21.2612 2.38415Z" fill="#222744"/>
<path d="M22.986 2.02917C23.5464 2.02917 24.0006 1.57492 24.0006 1.01458C24.0006 0.454245 23.5464 0 22.986 0C22.4257 0 21.9714 0.454245 21.9714 1.01458C21.9714 1.57492 22.4257 2.02917 22.986 2.02917Z" fill="#222744"/>
<path d="M24.6601 2.02917C25.2204 2.02917 25.6747 1.57492 25.6747 1.01458C25.6747 0.454245 25.2204 0 24.6601 0C24.0998 0 23.6455 0.454245 23.6455 1.01458C23.6455 1.57492 24.0998 2.02917 24.6601 2.02917Z" fill="#222744"/>
<path d="M26.1987 2.02917C26.759 2.02917 27.2132 1.57492 27.2132 1.01458C27.2132 0.454245 26.759 0 26.1987 0C25.6383 0 25.1841 0.454245 25.1841 1.01458C25.1841 1.57492 25.6383 2.02917 26.1987 2.02917Z" fill="#222744"/>
<path d="M27.839 2.02917C28.3994 2.02917 28.8536 1.57492 28.8536 1.01458C28.8536 0.454245 28.3994 0 27.839 0C27.2787 0 26.8245 0.454245 26.8245 1.01458C26.8245 1.57492 27.2787 2.02917 27.839 2.02917Z" fill="#222744"/>
<path d="M29.361 2.38415C29.9214 2.38415 30.3756 1.9299 30.3756 1.36956C30.3756 0.809225 29.9214 0.35498 29.361 0.35498C28.8007 0.35498 28.3464 0.809225 28.3464 1.36956C28.3464 1.9299 28.8007 2.38415 29.361 2.38415Z" fill="#222744"/>
<path d="M30.6462 3.3988C31.2065 3.3988 31.6608 2.94455 31.6608 2.38421C31.6608 1.82387 31.2065 1.36963 30.6462 1.36963C30.0858 1.36963 29.6316 1.82387 29.6316 2.38421C29.6316 2.94455 30.0858 3.3988 30.6462 3.3988Z" fill="#222744"/>
<path d="M30.8491 4.68395C31.4094 4.68395 31.8636 4.22971 31.8636 3.66937C31.8636 3.10903 31.4094 2.65479 30.8491 2.65479C30.2887 2.65479 29.8345 3.10903 29.8345 3.66937C29.8345 4.22971 30.2887 4.68395 30.8491 4.68395Z" fill="#222744"/>
<path d="M30.8491 6.03674C31.4094 6.03674 31.8636 5.58249 31.8636 5.02215C31.8636 4.46181 31.4094 4.00757 30.8491 4.00757C30.2887 4.00757 29.8345 4.46181 29.8345 5.02215C29.8345 5.58249 30.2887 6.03674 30.8491 6.03674Z" fill="#222744"/>
<path d="M30.6462 7.23718C31.2065 7.23718 31.6608 6.78293 31.6608 6.22259C31.6608 5.66225 31.2065 5.20801 30.6462 5.20801C30.0858 5.20801 29.6316 5.66225 29.6316 6.22259C29.6316 6.78293 30.0858 7.23718 30.6462 7.23718Z" fill="#222744"/>
<path d="M30.0881 4.00768C30.6484 4.00768 31.1027 3.55344 31.1027 2.9931C31.1027 2.43276 30.6484 1.97852 30.0881 1.97852C29.5277 1.97852 29.0735 2.43276 29.0735 2.9931C29.0735 3.55344 29.5277 4.00768 30.0881 4.00768Z" fill="#222744"/>
<path d="M28.4308 3.3988C28.9912 3.3988 29.4454 2.94455 29.4454 2.38421C29.4454 1.82387 28.9912 1.36963 28.4308 1.36963C27.8705 1.36963 27.4163 1.82387 27.4163 2.38421C27.4163 2.94455 27.8705 3.3988 28.4308 3.3988Z" fill="#222744"/>
<path d="M27.2133 3.3988C27.7737 3.3988 28.2279 2.94455 28.2279 2.38421C28.2279 1.82387 27.7737 1.36963 27.2133 1.36963C26.653 1.36963 26.1987 1.82387 26.1987 2.38421C26.1987 2.94455 26.653 3.3988 27.2133 3.3988Z" fill="#222744"/>
<path d="M25.4716 3.39894C26.0599 3.39894 26.5369 2.92198 26.5369 2.33362C26.5369 1.74527 26.0599 1.26831 25.4716 1.26831C24.8832 1.26831 24.4062 1.74527 24.4062 2.33362C24.4062 2.92198 24.8832 3.39894 25.4716 3.39894Z" fill="#222744"/>
<path d="M23.6454 3.3988C24.2058 3.3988 24.66 2.94455 24.66 2.38421C24.66 1.82387 24.2058 1.36963 23.6454 1.36963C23.0851 1.36963 22.6309 1.82387 22.6309 2.38421C22.6309 2.94455 23.0851 3.3988 23.6454 3.3988Z" fill="#222744"/>
<path d="M21.8869 3.6693C22.4472 3.6693 22.9015 3.21506 22.9015 2.65472C22.9015 2.09438 22.4472 1.64014 21.8869 1.64014C21.3266 1.64014 20.8723 2.09438 20.8723 2.65472C20.8723 3.21506 21.3266 3.6693 21.8869 3.6693Z" fill="#222744"/>
<path d="M20.8722 4.00768C21.4326 4.00768 21.8868 3.55344 21.8868 2.9931C21.8868 2.43276 21.4326 1.97852 20.8722 1.97852C20.3119 1.97852 19.8577 2.43276 19.8577 2.9931C19.8577 3.55344 20.3119 4.00768 20.8722 4.00768Z" fill="#222744"/>
<path d="M28.6509 17.1633L29.8853 18.9896L25.8101 17.1633H28.6509Z" fill="white"/>
<path d="M22.9689 17.1633L21.7175 18.9896L25.8097 17.1633H22.9689Z" fill="white"/>
<path d="M25.8098 17.1633L24.2034 27.2754L25.6745 29.4736L27.4162 27.2754L25.8098 17.1633Z" fill="#222744"/>
<path d="M25.81 18.5161L24.6602 17.6875L25.81 17.1633L26.943 17.6706L25.81 18.5161Z" fill="#222744"/>
<path d="M19.2319 18.9897H18.843V29.237H19.2319V18.9897Z" fill="#3D7CEA"/>
<path d="M32.3369 18.9897H31.948V29.237H32.3369V18.9897Z" fill="#3D7CEA"/>
<rect y="28.6316" width="51.3684" height="3.36842" rx="1.68421" fill="#9C3F17"/>
<circle cx="26" cy="30" r="8" fill="#4BA484"/>
<path d="M22.48 29.9999L24.4 32.5599L29.52 28.3999" stroke="white" stroke-linecap="round" stroke-linejoin="round"/>
</svg>
