<svg fill="none" height="39" viewBox="0 0 45 39" width="45" xmlns="http://www.w3.org/2000/svg"><path clip-rule="evenodd" d="m10.4285 0c-2.20917 0-4.00003 1.79086-4.00003 4v19.551c0 2.2092 1.79086 4 4.00003 4h12.3936l2.0066 3.8232c.3746.7137 1.3963.7137 1.7709 0l2.0067-3.8232h12.3936c2.2091 0 4-1.7908 4-4v-19.551c0-2.20914-1.7909-4-4-4z" fill="#254b99" fill-rule="evenodd"/><g fill="#fff"><circle cx="16.5305" cy="13.7756" r="2.7551"/><circle cx="25.7141" cy="13.7756" r="2.7551"/><circle cx="34.8979" cy="13.7756" r="2.7551"/></g><path clip-rule="evenodd" d="m7.67358 2.75513c-2.20913 0-4 1.79086-4 4v19.55097c0 2.2092 1.79087 4 4.00001 4h12.39361l2.0067 3.8232c.3745.7137 1.3963.7137 1.7709 0l2.0066-3.8232h12.3936c2.2092 0 4-1.7908 4-4v-19.55097c0-2.20914-1.7908-4-4-4z" fill="#3e65b6" fill-rule="evenodd"/><circle cx="13.7756" cy="16.5307" fill="#fff" r="2.7551"/><circle cx="22.9592" cy="16.5307" fill="#fff" r="2.7551"/><circle cx="32.143" cy="16.5307" fill="#fff" r="2.7551"/><path clip-rule="evenodd" d="m4 6.42847c-2.20914 0-4 1.79086-4 4.00003v19.551c0 2.2091 1.79086 4 4 4h12.3936l2.0067 3.8232c.3746.7137 1.3963.7137 1.7709 0l2.0066-3.8232h12.3936c2.2092 0 4-1.7909 4-4v-19.551c0-2.20917-1.7908-4.00003-4-4.00003z" fill="#4e88ff" fill-rule="evenodd"/><circle cx="10.102" cy="20.2041" fill="#fff" r="2.7551"/><circle cx="19.2856" cy="20.2041" fill="#fff" r="2.7551"/><circle cx="28.4695" cy="20.2041" fill="#fff" r="2.7551"/></svg>