<svg xmlns="http://www.w3.org/2000/svg" width="36.666" height="45.554" viewBox="0 0 36.666 45.554">
  <g id="Group_274" data-name="Group 274" transform="translate(-0.667 -0.667)">
    <path id="Path_2673" data-name="Path 2673" d="M6.172,42.686l6.563-11.812a1,1,0,0,1,1.36-.388l3.687,2.049a1,1,0,0,1,.388,1.36L11.608,45.706A1,1,0,0,1,9.772,45.5L9.5,44.55a1,1,0,0,0-1.236-.687l-.945.27A1,1,0,0,1,6.172,42.686Z" fill="#f7cc7f"/>
    <path id="Path_2674" data-name="Path 2674" d="M31.3,42.686,24.739,30.874a1,1,0,0,0-1.36-.388l-3.687,2.049a1,1,0,0,0-.388,1.36l6.563,11.812A1,1,0,0,0,27.7,45.5l.27-.945a1,1,0,0,1,1.236-.687l.945.27A1,1,0,0,0,31.3,42.686Z" fill="#f7cc7f"/>
    <path id="Path_2675" data-name="Path 2675" d="M18.189,1.07a1.018,1.018,0,0,1,1.623,0h0a1.018,1.018,0,0,0,1.5.132h0a1.018,1.018,0,0,1,1.6.282h0a1.018,1.018,0,0,0,1.458.391h0a1.018,1.018,0,0,1,1.525.555h0a1.018,1.018,0,0,0,1.368.638h0a1.018,1.018,0,0,1,1.405.811h0a1.018,1.018,0,0,0,1.236.866h0a1.018,1.018,0,0,1,1.243,1.043h0a1.018,1.018,0,0,0,1.067,1.067h0A1.018,1.018,0,0,1,33.257,8.1h0a1.018,1.018,0,0,0,.866,1.236h0a1.018,1.018,0,0,1,.811,1.405h0a1.018,1.018,0,0,0,.638,1.368h0a1.018,1.018,0,0,1,.555,1.525h0a1.018,1.018,0,0,0,.391,1.458h0a1.018,1.018,0,0,1,.282,1.6h0a1.018,1.018,0,0,0,.132,1.5h0a1.018,1.018,0,0,1,0,1.623h0a1.018,1.018,0,0,0-.132,1.5h0a1.018,1.018,0,0,1-.282,1.6h0a1.018,1.018,0,0,0-.391,1.458h0a1.018,1.018,0,0,1-.555,1.525h0a1.018,1.018,0,0,0-.638,1.368h0a1.018,1.018,0,0,1-.811,1.405h0a1.018,1.018,0,0,0-.866,1.236h0a1.018,1.018,0,0,1-1.043,1.243h0a1.018,1.018,0,0,0-1.067,1.067h0A1.018,1.018,0,0,1,29.9,33.257h0a1.018,1.018,0,0,0-1.236.866h0a1.018,1.018,0,0,1-1.405.811h0a1.018,1.018,0,0,0-1.368.638h0a1.018,1.018,0,0,1-1.525.555h0a1.018,1.018,0,0,0-1.458.391h0a1.018,1.018,0,0,1-1.6.282h0a1.018,1.018,0,0,0-1.5.132h0a1.018,1.018,0,0,1-1.623,0h0a1.018,1.018,0,0,0-1.5-.132h0a1.018,1.018,0,0,1-1.6-.282h0a1.018,1.018,0,0,0-1.458-.391h0a1.018,1.018,0,0,1-1.525-.555h0a1.018,1.018,0,0,0-1.368-.638h0a1.018,1.018,0,0,1-1.405-.811h0A1.018,1.018,0,0,0,8.1,33.257h0a1.018,1.018,0,0,1-1.243-1.043h0a1.018,1.018,0,0,0-1.067-1.067h0A1.018,1.018,0,0,1,4.743,29.9h0a1.018,1.018,0,0,0-.866-1.236h0a1.018,1.018,0,0,1-.811-1.405h0a1.018,1.018,0,0,0-.638-1.368h0a1.018,1.018,0,0,1-.555-1.525h0a1.018,1.018,0,0,0-.391-1.458h0a1.018,1.018,0,0,1-.282-1.6h0a1.018,1.018,0,0,0-.132-1.5h0a1.018,1.018,0,0,1,0-1.623h0a1.018,1.018,0,0,0,.132-1.5h0a1.018,1.018,0,0,1,.282-1.6h0a1.018,1.018,0,0,0,.391-1.458h0a1.018,1.018,0,0,1,.555-1.525h0a1.018,1.018,0,0,0,.638-1.368h0a1.018,1.018,0,0,1,.811-1.405h0A1.018,1.018,0,0,0,4.743,8.1h0A1.018,1.018,0,0,1,5.786,6.853h0A1.018,1.018,0,0,0,6.853,5.786h0A1.018,1.018,0,0,1,8.1,4.743h0a1.018,1.018,0,0,0,1.236-.866h0a1.018,1.018,0,0,1,1.405-.811h0a1.018,1.018,0,0,0,1.368-.638h0a1.018,1.018,0,0,1,1.525-.555h0a1.018,1.018,0,0,0,1.458-.391h0a1.018,1.018,0,0,1,1.6-.282h0a1.018,1.018,0,0,0,1.5-.132Z" fill="#ff4e4e"/>
    <path id="Path_2676" data-name="Path 2676" d="M18.3,29.606A10.858,10.858,0,0,0,23.731,9.344a10.859,10.859,0,1,1-9.68,19.4A10.822,10.822,0,0,0,18.3,29.606Z" fill="#df3434" fill-rule="evenodd"/>
    <circle id="Ellipse_347" data-name="Ellipse 347" cx="10.857" cy="10.857" r="10.857" transform="translate(8.182 8.171)" fill="#f7cc7f"/>
    <path id="Path_2677" data-name="Path 2677" d="M12.063,26.3a6.749,6.749,0,1,1,13.372,0,10.893,10.893,0,0,1-1.207.82,5.749,5.749,0,1,0-10.958,0A10.865,10.865,0,0,1,12.063,26.3Zm6.979-9.261a2.521,2.521,0,1,0-2.521-2.521A2.521,2.521,0,0,0,19.042,17.042Zm0,1a3.521,3.521,0,1,0-3.521-3.521A3.521,3.521,0,0,0,19.042,18.042Z" fill="#fff" fill-rule="evenodd"/>
  </g>
</svg>
