<svg width="38" height="33" viewBox="0 0 38 33" fill="none" xmlns="http://www.w3.org/2000/svg">
<path d="M1 4C1 1.79086 2.79086 0 5 0H34C36.2091 0 38 1.79086 38 4V23C38 25.2091 36.2091 27 34 27H5C2.79086 27 1 25.2091 1 23V4Z" fill="#9DB7E3"/>
<path fill-rule="evenodd" clip-rule="evenodd" d="M4 1C1.79077 1 0 2.79077 0 5V24C0 26.2092 1.79077 28 4 28H16.2285L18.092 32.0344C18.4497 32.8086 19.5503 32.8086 19.908 32.0344L21.7715 28H33C35.2092 28 37 26.2092 37 24V5C37 2.79077 35.2092 1 33 1H4Z" fill="#BDD5FF"/>
<path d="M19 7C17.4178 7 15.871 7.46919 14.5554 8.34824C13.2398 9.22729 12.2145 10.4767 11.609 11.9385C11.0035 13.4003 10.845 15.0089 11.1537 16.5607C11.4624 18.1126 12.2243 19.538 13.3431 20.6569C14.462 21.7757 15.8874 22.5376 17.4393 22.8463C18.9911 23.155 20.5997 22.9965 22.0615 22.391C23.5233 21.7855 24.7727 20.7602 25.6518 19.4446C26.5308 18.129 27 16.5822 27 15C26.9977 12.879 26.1541 10.8455 24.6543 9.34568C23.1545 7.84589 21.121 7.00229 19 7V7ZM24.7647 11.6667H22.6173C22.1366 10.5527 21.5037 9.51072 20.7367 8.57067C22.4343 9.03262 23.8815 10.145 24.7647 11.6667V11.6667ZM22 15C21.9945 15.6788 21.8876 16.3529 21.6827 17H16.3173C16.1124 16.3529 16.0055 15.6788 16 15C16.0055 14.3212 16.1124 13.6471 16.3173 13H21.6827C21.8876 13.6471 21.9945 14.3212 22 15V15ZM16.852 18.3333H21.148C20.5822 19.4505 19.8588 20.4806 19 21.392C18.1409 20.4808 17.4175 19.4507 16.852 18.3333V18.3333ZM16.852 11.6667C17.4178 10.5495 18.1412 9.51944 19 8.608C19.8591 9.51918 20.5825 10.5493 21.148 11.6667H16.852ZM17.2667 8.57067C16.4984 9.51052 15.8644 10.5525 15.3827 11.6667H13.2353C14.1192 10.1443 15.5678 9.03184 17.2667 8.57067V8.57067ZM12.6407 13H14.9333C14.7605 13.6528 14.6709 14.3248 14.6667 15C14.6709 15.6752 14.7605 16.3472 14.9333 17H12.6407C12.2309 15.6981 12.2309 14.3018 12.6407 13V13ZM13.2353 18.3333H15.3827C15.8644 19.4475 16.4984 20.4895 17.2667 21.4293C15.5678 20.9682 14.1192 19.8557 13.2353 18.3333V18.3333ZM20.7367 21.4293C21.5037 20.4893 22.1366 19.4473 22.6173 18.3333H24.7647C23.8815 19.855 22.4343 20.9674 20.7367 21.4293V21.4293ZM25.3593 17H23.0667C23.2395 16.3472 23.3291 15.6752 23.3333 15C23.3291 14.3248 23.2395 13.6528 23.0667 13H25.358C25.7678 14.3018 25.7678 15.6981 25.358 17H25.3593Z" fill="#4E88FF"/>
</svg>
