<svg width="33" height="38" viewBox="0 0 33 38" fill="none" xmlns="http://www.w3.org/2000/svg">
<path d="M11.3572 32.8747C11.3572 32.8747 11.235 28.5017 11.2017 27.3248C11.1728 26.2595 11.5726 24.6814 9.97568 22.5417C9.97568 22.5417 8.58973 21.171 8.09444 20.7586C7.59914 20.3463 6.71072 18.8485 6.71072 18.8485C6.71072 18.8485 6.40865 18.084 5.21372 16.9807C5.21372 16.9807 3.79668 15.922 3.92106 17.402C3.92106 17.402 3.82334 18.0907 5.36698 19.6308C5.51579 19.7779 6.22208 20.645 6.22431 20.9682C6.23985 22.4347 5.48691 21.7661 5.48691 21.7661C5.48691 21.7661 5.2959 21.5588 4.09431 20.8745C3.82112 20.7208 3.15924 19.0692 2.05315 18.3247C2.05315 18.3247 1.9421 16.5104 1.31576 15.9711C1.31576 15.9711 1.87325 13.7845 0.222998 13.6553C0.187768 14.2484 0.120295 14.8392 0.0208803 15.425C-0.110162 15.8373 0.41845 18.483 0.41845 18.483C0.41845 18.483 1.9954 21.4251 2.12423 22.0113C2.25261 22.4376 2.44188 22.843 2.68615 23.2148L7.48587 29.2328C7.4827 30.9988 7.28531 32.7591 6.89729 34.4817L11.3572 32.8747Z" fill="#EDC4AE"/>
<path d="M12.1145 37.1964L11.3571 30.4341H9.3137L8.70068 37.1964H12.1145Z" fill="#222744"/>
<path d="M9.31366 30.4341H7.27916L5.37793 37.1964H8.70064L9.31366 30.4341Z" fill="#222744"/>
<path d="M5.28714 18.1809C5.5244 17.9938 5.46423 17.5197 5.15273 17.1218C4.84123 16.724 4.39637 16.5532 4.1591 16.7403C3.92184 16.9274 3.98201 17.4016 4.29351 17.7994C4.60501 18.1972 5.04987 18.368 5.28714 18.1809Z" fill="#4E88FF"/>
<path d="M21.6406 32.8747C21.6406 32.8747 21.7628 28.5017 21.7961 27.3248C21.825 26.2595 21.4252 24.6814 23.0221 22.5417C23.0221 22.5417 24.4103 21.171 24.9034 20.7586C25.3964 20.3463 26.2871 18.8485 26.2871 18.8485C26.2871 18.8485 26.5914 18.084 27.7863 16.9807C27.7863 16.9807 29.2011 15.922 29.0767 17.402C29.0767 17.402 29.1767 18.0907 27.6308 19.6308C27.4842 19.7779 26.7779 20.645 26.7735 20.9682C26.7602 22.4347 27.5109 21.7661 27.5109 21.7661C27.5109 21.7661 27.7019 21.5588 28.9035 20.8745C29.1767 20.7208 29.8408 19.0692 30.9446 18.3247C30.9446 18.3247 31.0579 16.5104 31.682 15.9711C31.682 15.9711 31.1245 13.7845 32.777 13.6553C32.8111 14.2485 32.8786 14.8394 32.9791 15.425C33.1102 15.8373 32.5793 18.483 32.5793 18.483C32.5793 18.483 31.0046 21.4251 30.8758 22.0113C30.7474 22.4376 30.5581 22.843 30.3139 23.2148L25.5142 29.2328C25.5173 30.9988 25.7147 32.7591 26.1027 34.4817L21.6406 32.8747Z" fill="#EDC4AE"/>
<path d="M21.1875 37.1964L21.5051 30.4341H23.6862L24.3481 37.1964H21.1875Z" fill="#222744"/>
<path d="M23.686 30.4341H25.6761L27.6684 37.1964H24.3479L23.686 30.4341Z" fill="#222744"/>
<path d="M28.7023 17.7947C29.0138 17.3969 29.074 16.9227 28.8367 16.7356C28.5994 16.5485 28.1546 16.7193 27.8431 17.1171C27.5316 17.5149 27.4714 17.9891 27.7087 18.1762C27.9459 18.3633 28.3908 18.1925 28.7023 17.7947Z" fill="#4E88FF"/>
<path d="M6.222 10.8915C7.37029 10.7266 7.98552 10.4257 8.04993 9.99996C8.2254 8.79861 9.02276 4.07567 9.03164 4.02886H9.69796L10.0978 12.9777L10.1266 12.8083C10.2341 12.3012 10.3766 11.8022 10.5531 11.315C10.6949 10.9245 10.8788 10.5508 11.1017 10.2006C11.3008 9.85622 11.6076 9.58748 11.9745 9.43606L12.5076 9.24215V10.8804C12.6281 11.039 12.7819 11.1692 12.9581 11.2616C13.1342 11.354 13.3285 11.4065 13.5271 11.4153C14.3844 11.4554 17.2784 11.3752 17.3029 11.3729H17.3495C17.8516 11.3832 18.3477 11.2618 18.7888 11.0208L19.5506 10.448L19.846 10.5772H19.8682L20.59 4.30078H21.2408V12.8306L21.4629 11.9391C21.6005 11.548 21.7675 11.168 21.9627 10.8024C22.3958 9.98436 22.8866 9.43606 23.4152 9.17083L23.8128 8.97469L24.659 10.2986C24.8401 10.5776 25.0819 10.8116 25.3662 10.983C25.6506 11.1544 25.97 11.2588 26.3004 11.2882H28.0462C28.9927 9.70506 29.3184 7.82511 28.96 6.01423C28.6015 4.20335 27.5845 2.59106 26.1069 1.4911C24.6292 0.391145 22.7966 -0.117802 20.9657 0.0632999C19.1347 0.244402 17.4364 1.1026 16.2012 2.47089C14.9855 1.11287 13.3152 0.250141 11.5074 0.0465059C9.69961 -0.15713 7.88024 0.312513 6.39476 1.36626C4.90928 2.42 3.86112 3.98447 3.4493 5.7626C3.03749 7.54074 3.2907 9.40873 4.16085 11.0119C4.84972 11.0146 5.5381 10.9744 6.222 10.8915Z" fill="#CE2E2E"/>
<path d="M26.1785 11.6629C25.7503 11.629 25.3349 11.5008 24.9617 11.2874C24.5885 11.074 24.2669 10.7806 24.0196 10.4281L23.5377 9.65915C22.8203 10.281 22.2961 11.5113 22.1362 12.0039L21.2589 15.7283L20.5814 15.7105V9.97565L20.4215 11.4467H19.7552C19.7557 11.2854 19.7026 11.1285 19.6042 11.0009L19.3243 11.2104C18.5669 11.6963 17.5075 11.7008 17.3254 11.6963C17.0522 11.6963 14.3403 11.7788 13.4563 11.7387C13.1517 11.739 12.8511 11.6695 12.5775 11.5354C12.3038 11.4014 12.0642 11.2064 11.8771 10.9653V10.943V10.1517C11.6306 10.4036 11.444 10.7936 11.2219 11.391C11.0471 11.8701 10.9032 12.3599 10.791 12.8576L10.2291 16.0493L9.56275 16.0381L9.16741 7.18066C8.97417 8.3419 8.78538 9.50313 8.70987 10.018C8.62547 10.5841 7.82144 10.992 6.39552 11.1948C5.71671 11.2855 5.0325 11.3295 4.3477 11.3263L4.2522 11.1815C4.35215 11.3553 4.46098 11.5247 4.57647 11.6941L16.1971 23.244L27.8243 11.7052C27.8243 11.6941 27.8399 11.6807 27.8488 11.6807H26.2229L26.1785 11.6629Z" fill="#CE2E2E"/>
<path d="M4.14526 10.9739L4.25631 11.1433C4.223 11.0876 4.1919 11.0987 4.16081 10.9739H4.14526Z" fill="#D8D8D8"/>
<path d="M27.8418 11.6806H27.8707L28.0661 11.3083H28.0461C27.9897 11.4385 27.9213 11.5631 27.8418 11.6806V11.6806Z" fill="#D8D8D8"/>
<path d="M26.3002 11.3082C25.97 11.2793 25.6507 11.1751 25.3666 11.0036C25.0826 10.8321 24.8413 10.5978 24.6611 10.3186L23.8148 8.98129L23.4195 9.18189C22.8909 9.44712 22.4045 9.99765 21.9714 10.8156C21.7756 11.1822 21.6057 11.562 21.4627 11.9524L21.2406 12.8439V4.30961H20.5899L19.8591 10.5861H19.8414L19.5482 10.4568L18.7864 11.0296C18.3463 11.2711 17.8508 11.3925 17.3493 11.3818H17.3049C17.2738 11.3818 14.3776 11.4642 13.5291 11.4241C13.3305 11.4153 13.1363 11.3629 12.9601 11.2704C12.7839 11.178 12.6302 11.0478 12.5096 10.8892V9.25098L11.9766 9.4449C11.6094 9.59676 11.302 9.86532 11.1015 10.2094C10.8795 10.5598 10.6962 10.9335 10.5551 11.3238C10.3786 11.8111 10.2361 12.31 10.1287 12.8172L10.0998 12.9865L9.69555 4.03101H9.02924C9.02924 4.07781 8.22299 8.80076 8.04753 10.0021C7.98312 10.4345 7.36788 10.7354 6.21959 10.8936C5.53566 10.9762 4.84731 11.0164 4.15845 11.014C4.18954 11.072 4.22064 11.1277 4.25395 11.1834L4.34946 11.3283C5.03426 11.3314 5.71846 11.2875 6.39728 11.1968C7.82764 10.9939 8.61834 10.5861 8.7094 10.0199C8.78714 9.50508 8.97593 8.34384 9.16694 7.18261L9.56229 16.02L10.2286 16.0312L10.7883 12.8394C10.9074 12.3422 11.0557 11.8525 11.2325 11.3729C11.4546 10.7755 11.6412 10.3855 11.8877 10.1336V10.9249V10.9471C12.0775 11.1881 12.3191 11.3829 12.5945 11.5168C12.8699 11.6508 13.172 11.7204 13.478 11.7206C14.3664 11.7607 17.0673 11.6871 17.3404 11.6782C17.5292 11.6782 18.5865 11.6782 19.3394 11.1923L19.6193 10.9828C19.7169 11.1107 19.7692 11.2675 19.7681 11.4286H20.4344L20.5943 9.95753V15.7102L21.2717 15.7258L22.149 12.0014C22.309 11.5088 22.8309 10.2785 23.5505 9.65664L24.0325 10.4211C24.2786 10.7748 24.5995 11.0694 24.9724 11.2841C25.3452 11.4987 25.7607 11.628 26.1892 11.6626L26.2291 11.6804H27.855C27.9344 11.563 28.0028 11.4384 28.0593 11.3082H26.3002Z" fill="white"/>
</svg>
