<svg width="44" height="37" viewBox="0 0 44 37" fill="none" xmlns="http://www.w3.org/2000/svg">
<line x1="0.5" x2="0.5" y2="37" stroke="black"/>
<line y1="36.5" x2="44" y2="36.5" stroke="black"/>
<path d="M7 6C7 5.44772 7.44772 5 8 5H12C12.5523 5 13 5.44772 13 6V36H7V6Z" fill="#D9425D"/>
<path d="M20 10C20 9.44771 20.4477 9 21 9H25C25.5523 9 26 9.44772 26 10V36H20V10Z" fill="#20AD72"/>
<path d="M5 6C5 5.44772 5.44772 5 6 5H10C10.5523 5 11 5.44772 11 6V36H5V6Z" fill="#FF5775"/>
<path d="M18 10C18 9.44771 18.4477 9 19 9H23C23.5523 9 24 9.44772 24 10V36H18V10Z" fill="#3ACC8F"/>
<path d="M33 17C33 16.4477 33.4477 16 34 16H38C38.5523 16 39 16.4477 39 17V36H33V17Z" fill="#E49929"/>
<path d="M31 17C31 16.4477 31.4477 16 32 16H36C36.5523 16 37 16.4477 37 17V36H31V17Z" fill="#FFB13B"/>
</svg>
