<svg width="45" height="39" viewBox="0 0 45 39" fill="none" xmlns="http://www.w3.org/2000/svg">
<path fill-rule="evenodd" clip-rule="evenodd" d="M10.4286 0C8.21945 0 6.42859 1.79086 6.42859 4V23.551C6.42859 25.7602 8.21945 27.551 10.4286 27.551H22.8222L24.8288 31.3742C25.2034 32.0879 26.2251 32.0879 26.5997 31.3742L28.6064 27.551H41C43.2092 27.551 45 25.7602 45 23.551V4C45 1.79086 43.2092 0 41 0H10.4286Z" fill="#83A4D9"/>
<circle cx="16.5306" cy="13.7755" r="2.7551" fill="white"/>
<circle cx="25.7143" cy="13.7755" r="2.7551" fill="white"/>
<circle cx="34.898" cy="13.7755" r="2.7551" fill="white"/>
<path fill-rule="evenodd" clip-rule="evenodd" d="M7.67346 2.75513C5.46432 2.75513 3.67346 4.54599 3.67346 6.75513V26.3061C3.67346 28.5153 5.46432 30.3061 7.67346 30.3061H20.0671L22.0737 34.1293C22.4483 34.843 23.47 34.843 23.8446 34.1293L25.8513 30.3061H38.2449C40.454 30.3061 42.2449 28.5153 42.2449 26.3061V6.75513C42.2449 4.54599 40.454 2.75513 38.2449 2.75513H7.67346Z" fill="#9CBAE9"/>
<circle cx="13.7755" cy="16.5306" r="2.7551" fill="white"/>
<circle cx="22.9592" cy="16.5306" r="2.7551" fill="white"/>
<circle cx="32.1429" cy="16.5306" r="2.7551" fill="white"/>
<path fill-rule="evenodd" clip-rule="evenodd" d="M4 6.42859C1.79086 6.42859 0 8.21945 0 10.4286V29.9796C0 32.1887 1.79086 33.9796 4 33.9796H16.3936L18.4003 37.8028C18.7749 38.5165 19.7966 38.5165 20.1712 37.8028L22.1778 33.9796H34.5714C36.7806 33.9796 38.5714 32.1887 38.5714 29.9796V10.4286C38.5714 8.21945 36.7806 6.42859 34.5714 6.42859H4Z" fill="#AFCDFB"/>
<circle cx="10.102" cy="20.2041" r="2.7551" fill="white"/>
<circle cx="19.2857" cy="20.2041" r="2.7551" fill="white"/>
<circle cx="28.4694" cy="20.2041" r="2.7551" fill="white"/>
</svg>
