<svg xmlns="http://www.w3.org/2000/svg" width="18" height="20" viewBox="0 0 18 20">
  <path id="calendar-2852107" d="M16.411,2.769v.75A4.694,4.694,0,0,1,20.989,8.49L21,16.916c0,3.139-1.968,5.069-5.128,5.074L8.152,22a4.781,4.781,0,0,1-5.141-5.121L3,8.553A4.689,4.689,0,0,1,7.506,3.53v-.75a.76.76,0,1,1,1.52,0v.7l5.865-.008v-.7a.76.76,0,1,1,1.521,0ZM4.521,8.862l14.948-.02v-.35c-.042-2.149-1.121-3.276-3.056-3.444v.77a.76.76,0,1,1-1.521,0V5.01l-5.865.008v.809a.76.76,0,1,1-1.52,0v-.77C5.583,5.251,4.518,6.383,4.52,8.551ZM15.24,13.4v.011a.813.813,0,0,0,.84.8.825.825,0,1,0-.84-.81Zm.816,4.488a.848.848,0,0,1-.821-.848.833.833,0,0,1,.809-.852h.01a.85.85,0,0,1,0,1.7ZM11.172,13.42a.815.815,0,1,0,.809-.861A.853.853,0,0,0,11.172,13.42Zm.854,4.427a.823.823,0,0,1-.85-.8.854.854,0,0,1,.809-.861.83.83,0,0,1,.042,1.659ZM7.1,13.455a.815.815,0,1,0,.808-.861A.852.852,0,0,0,7.1,13.455Zm.854,4.4a.822.822,0,0,1-.85-.8.853.853,0,0,1,.809-.861.83.83,0,0,1,.041,1.659Z" transform="translate(-3 -2)" fill="#8395ae" fill-rule="evenodd"/>
</svg>
