<svg width="53" height="51" viewBox="0 0 53 51" fill="none" xmlns="http://www.w3.org/2000/svg">
<path d="M28.5955 37.2035C36.4438 37.2035 42.8062 30.7762 42.8062 22.8477C42.8062 14.9192 36.4438 8.49182 28.5955 8.49182C20.7472 8.49182 14.3849 14.9192 14.3849 22.8477C14.3849 30.7762 20.7472 37.2035 28.5955 37.2035Z" fill="#47B3AA"/>
<g opacity="0.36">
<path opacity="0.36" d="M23.3326 29.2469C23.4065 28.6218 23.8921 27.9888 23.615 27.4246C23.3009 26.7943 22.3903 26.8949 21.7489 26.6141C20.8541 26.2195 20.5796 25.1044 19.9937 24.3177C19.4658 23.6132 18.2464 22.8398 17.3173 23.0517C17.0574 23.0874 16.818 23.2126 16.6399 23.4058C16.4618 23.5991 16.356 23.8484 16.3407 24.1111H16.2563C15.9923 24.0847 15.7125 24.0688 15.5753 23.8622C15.438 23.6556 15.5753 23.2609 15.409 23.0252C15.3075 22.9168 15.1878 22.8271 15.0553 22.7603C14.9339 22.6729 14.831 22.5113 14.9049 22.3789C14.9788 22.2465 15.1213 22.2465 15.2005 22.1458C15.232 22.1053 15.249 22.0555 15.249 22.0041C15.249 21.9528 15.232 21.9029 15.2005 21.8624C14.9366 21.5578 14.6726 22.1802 14.5195 22.3259C14.4829 22.3643 14.4441 22.4006 14.4034 22.4345V22.4345C14.402 22.461 14.402 22.4875 14.4034 22.514C14.4034 22.5987 14.4034 22.6835 14.4034 22.7788C14.4034 22.8742 14.4034 22.9484 14.4034 23.0437C14.4034 23.1391 14.4034 23.1814 14.4034 23.253C14.4034 23.3245 14.4034 23.3907 14.4034 23.4596C14.5557 23.5185 14.7023 23.5912 14.8415 23.6768C15.1055 23.8383 15.4249 24.0502 15.4433 24.3707C15.4379 24.4228 15.448 24.4753 15.4724 24.5217C15.5074 24.5584 15.554 24.5818 15.6043 24.5879C15.8417 24.6446 16.0838 24.6792 16.3275 24.6912C16.3275 24.9773 16.3513 25.2766 16.346 25.56C16.346 25.9732 16.2061 26.3811 16.251 26.7916C16.3143 27.369 16.7155 27.8511 17.0639 28.3067C18.3836 30.0839 19.1042 32.1234 19.8802 34.2132C20.0254 34.3271 20.2312 34.4781 20.379 34.5867C20.5268 34.6953 20.6034 34.7456 20.7222 34.8251C20.8409 34.9045 20.9492 34.976 21.0706 35.0529L21.2632 35.1747C21.2632 35.1482 21.2632 35.1906 21.2632 35.1747C20.9492 34.486 20.9492 33.5325 21.6222 33.1935C21.7572 33.1435 21.885 33.0758 22.0023 32.9922C22.3005 32.7061 22.0551 32.1208 22.3533 31.8373C22.5223 31.6784 22.7862 31.689 22.9947 31.5937C23.3695 31.4215 23.4909 30.9394 23.4619 30.5342C23.4329 30.1289 23.285 29.6601 23.3326 29.2469Z" fill="#222744"/>
</g>
<g opacity="0.36">
<path opacity="0.36" d="M15.2665 18.7395C15.5304 18.5117 15.9923 18.4747 16.1956 18.7687C16.3131 18.9928 16.3395 19.2538 16.2695 19.497C16.2193 19.8308 16.1665 20.1645 16.1138 20.4982C16.0833 20.5957 16.0833 20.7001 16.1138 20.7975C16.2114 21.0094 16.5572 20.9697 16.6918 20.779C16.8051 20.572 16.8344 20.3291 16.7736 20.1009C16.7101 19.8749 16.7101 19.6357 16.7736 19.4096C16.998 18.8799 17.7951 18.9541 18.2596 18.615C18.5473 18.3978 18.674 18.035 18.8456 17.7171C19.0171 17.3993 19.3022 17.0788 19.6611 17.0947C19.7826 17.0947 19.9013 17.145 20.0227 17.1397C20.1094 17.1294 20.1916 17.0956 20.2607 17.0421C20.3298 16.9886 20.3832 16.9173 20.4151 16.8358C20.4471 16.7543 20.4564 16.6657 20.4422 16.5793C20.4279 16.4929 20.3906 16.4119 20.3342 16.3451C20.2756 16.2974 20.2224 16.2432 20.1758 16.1835C20.1515 16.1203 20.1494 16.0505 20.1701 15.986C20.1907 15.9214 20.2328 15.8658 20.2893 15.8286C20.4038 15.7587 20.5331 15.717 20.6668 15.7068L21.5774 15.5611C21.9126 15.5108 22.3402 15.336 22.2953 14.9996C22.2531 14.7082 21.8598 14.5784 21.8017 14.2897C21.7961 14.2181 21.7837 14.1472 21.7648 14.0778C21.6724 13.8924 21.3952 13.9666 21.2184 14.0778C21.1961 14.0133 21.1592 13.9549 21.1105 13.9072C21.0618 13.8595 21.0028 13.8238 20.938 13.803C20.8732 13.7822 20.8044 13.7768 20.7372 13.7872C20.67 13.7977 20.6061 13.8238 20.5506 13.8633C20.3685 14.0116 20.3474 14.2738 20.2867 14.4963C20.1389 15.0261 19.7086 15.4472 19.2995 15.8207C19.1745 15.9604 19.0062 16.0537 18.8218 16.0855C18.6344 16.0855 18.4391 15.8922 18.5235 15.728C18.5816 15.6141 18.7453 15.5505 18.7294 15.4234C18.7136 15.2962 18.4312 15.2777 18.3784 15.1267C18.4866 14.6791 18.996 14.4937 19.3866 14.2553C19.8673 13.9634 20.2321 13.5131 20.4187 12.9813C20.4382 12.9399 20.4483 12.8947 20.4483 12.8489C20.4483 12.8031 20.4382 12.7578 20.4187 12.7164C20.3606 12.6025 20.2101 12.584 20.0834 12.584C19.7826 12.584 19.4051 12.6211 19.2916 12.9018C19.2619 13.0609 19.2442 13.2221 19.2388 13.3839C19.1333 13.8527 18.4919 13.9136 18.1012 14.1785C17.9633 14.3044 17.8159 14.4195 17.6605 14.5228C17.4682 14.5909 17.2651 14.6232 17.0613 14.6182C17.027 14.6182 16.9346 14.6182 16.8977 14.6182C16.7763 14.7903 16.6786 14.9466 16.5625 15.1267C16.4463 15.3068 16.3328 15.5055 16.2273 15.6882C15.7259 16.5643 15.3206 17.4924 15.0184 18.4561C14.9075 18.7925 14.8125 19.1554 14.7281 19.5156C14.6436 19.8758 14.5855 20.1936 14.5275 20.5512C14.6482 20.2626 14.7367 19.9615 14.7914 19.6533C14.8483 19.3056 15.0148 18.9853 15.2665 18.7395V18.7395Z" fill="#222744"/>
</g>
<g opacity="0.36">
<path opacity="0.36" d="M27.2072 12.2821C27.3418 12.1072 27.3022 11.853 27.3893 11.649C27.5345 11.3073 27.9858 11.1855 28.1415 10.8544C28.1996 10.7273 28.2155 10.5684 28.321 10.473C28.4266 10.3777 28.5375 10.3777 28.6298 10.3061C28.6743 10.2586 28.7074 10.2015 28.7267 10.1393C28.7461 10.077 28.7511 10.0112 28.7415 9.94671C28.7318 9.88222 28.7077 9.82077 28.671 9.76697C28.6343 9.71316 28.5859 9.66839 28.5295 9.63603C27.9726 9.27846 26.9459 9.69165 26.4655 10.0413C25.8479 10.4916 25.2408 11.0319 24.4173 10.9789C24.1945 10.9325 23.9645 10.9325 23.7416 10.9789C23.5305 11.061 23.3985 11.3815 23.5806 11.5086C23.6836 11.5828 23.8287 11.5616 23.9422 11.6172C24.039 11.6835 24.1064 11.7847 24.1305 11.8997C24.1546 12.0147 24.1335 12.1346 24.0716 12.2344C23.9686 12.4436 23.7812 12.6026 23.6598 12.8012C23.5394 12.9968 23.4857 13.2265 23.5067 13.4554C23.5091 13.5346 23.5274 13.6125 23.5605 13.6844C23.5936 13.7563 23.6409 13.8208 23.6994 13.8739C23.9633 14.0805 24.3461 13.9031 24.5625 13.6567C24.7789 13.4104 24.9294 13.0926 25.2118 12.923C25.3563 12.845 25.5122 12.7904 25.6737 12.7615L26.7453 12.4966C26.9191 12.4801 27.0821 12.4044 27.2072 12.2821V12.2821Z" fill="#222744"/>
</g>
<g opacity="0.36">
<path opacity="0.36" d="M42.8035 22.7391C42.8035 22.5325 42.8035 22.3285 42.7851 22.1272C42.7666 21.9259 42.7666 21.7193 42.7455 21.518C42.7244 21.3167 42.7164 21.1949 42.6927 21.0333C42.6689 20.8717 42.6478 20.6704 42.6214 20.5036C42.5439 20.0195 42.4391 19.5402 42.3073 19.068C42.2545 18.8826 42.1648 18.6839 42.1067 18.5012C42.0487 18.3184 41.9827 18.1357 41.9141 17.9556C41.8428 17.8205 41.7663 17.6907 41.6844 17.5556C40.8926 16.3028 39.7471 15.3201 38.8787 14.1123C38.5963 13.723 38.3772 13.3998 37.8758 13.3177C37.1341 13.2038 36.7566 13.6276 36.2314 12.9204C36.0889 12.7324 35.8434 12.5549 35.6322 12.6555L35.7985 13.1111C35.8115 13.1421 35.8169 13.1756 35.8144 13.2091C35.8144 13.3177 35.6481 13.3468 35.5504 13.2859C35.4693 13.2107 35.4031 13.1209 35.3551 13.0211C35.2931 12.9413 35.2153 12.8753 35.1266 12.8272C35.0379 12.7792 34.9402 12.7501 34.8397 12.7419C34.7393 12.7337 34.6382 12.7465 34.5429 12.7795C34.4476 12.8125 34.3602 12.865 34.2861 12.9337C34.2797 12.8618 34.2543 12.7931 34.2125 12.7344C34.1708 12.6757 34.1142 12.6293 34.0486 12.5999C34.0381 12.6679 34.0133 12.7328 33.976 12.7905C33.9386 12.8481 33.8896 12.8972 33.832 12.9345C33.7744 12.9718 33.7096 12.9964 33.6418 13.0068C33.5741 13.0171 33.5049 13.013 33.4389 12.9946C33.3967 12.8568 33.6395 12.833 33.7266 12.7138C33.8137 12.5946 33.7107 12.4489 33.6104 12.3589C33.3339 12.1372 32.9904 12.0167 32.6365 12.0172C32.4099 12.0477 32.1793 12.0204 31.9661 11.9377C31.8526 11.8689 31.7708 11.7576 31.6546 11.6914C31.3907 11.5484 31.0924 11.6914 30.8391 11.8212C30.4748 11.979 30.1828 12.2682 30.0208 12.6317C29.8968 13.0052 30.1686 13.5137 30.5487 13.466C30.645 13.4352 30.7463 13.4235 30.847 13.4316C30.913 13.4608 30.9686 13.5093 31.0068 13.5707C31.0449 13.6321 31.0637 13.7036 31.0608 13.7759C31.0514 13.9195 31.074 14.0633 31.1268 14.1971C31.1927 14.3242 31.3907 14.3878 31.4778 14.2686C31.5531 14.166 31.6027 14.0468 31.6225 13.9209C31.6422 13.7951 31.6315 13.6663 31.5913 13.5455C31.5513 13.4253 31.5354 13.2984 31.5445 13.172C31.5535 13.0457 31.5874 12.9224 31.6441 12.8092C31.7945 12.6026 32.2221 12.6688 32.1931 12.9204C32.1746 13.0714 32.0057 13.1853 32.011 13.331C32.0162 13.4766 32.2063 13.564 32.3594 13.5587C32.5098 13.5298 32.6634 13.5217 32.816 13.5349C32.9664 13.572 33.0799 13.768 32.977 13.8792C32.7896 14.0911 32.3039 13.7256 32.2089 13.9905C32.1799 14.0593 32.2089 14.1362 32.2089 14.2077C32.1904 14.4275 31.9133 14.5096 31.6942 14.5361C31.4759 14.5819 31.2491 14.5654 31.0397 14.4884C30.9888 14.4676 30.9426 14.4368 30.9037 14.3977C30.8649 14.3587 30.8343 14.3123 30.8136 14.2612C30.7929 14.2101 30.7827 14.1554 30.7834 14.1002C30.7842 14.0451 30.7959 13.9907 30.8179 13.9402C30.7552 13.912 30.6839 13.9095 30.6193 13.9332C30.5547 13.957 30.5019 14.0051 30.4722 14.0673C30.4245 14.1989 30.4163 14.3416 30.4484 14.4778C30.2135 14.4275 30.005 14.6235 29.873 14.8222C29.7411 15.0208 29.6091 15.2486 29.3821 15.3201C29.1551 15.3916 28.8384 15.2936 28.7196 15.5029C28.5639 15.7677 29.0152 16.1147 28.8569 16.3849C28.7671 16.5359 28.5507 16.5306 28.3791 16.5782C28.2726 16.6212 28.1775 16.6886 28.1015 16.775C28.0255 16.8613 27.9707 16.9644 27.9415 17.0758C27.9123 17.1872 27.9094 17.304 27.9331 17.4167C27.9569 17.5295 28.0066 17.6351 28.0782 17.7251C28.1603 17.8076 28.2579 17.873 28.3652 17.9177C28.4725 17.9623 28.5876 17.9853 28.7038 17.9853C28.82 17.9853 28.935 17.9623 29.0423 17.9177C29.1497 17.873 29.2472 17.8076 29.3293 17.7251C29.5239 17.4661 29.6861 17.1841 29.8123 16.8855C29.976 16.6206 30.2874 16.3557 30.6041 16.4458C30.7239 16.4916 30.8334 16.5609 30.9262 16.6498L31.3775 17.0312C31.4752 17.1106 31.5807 17.2139 31.5728 17.3384C31.5649 17.4629 31.4831 17.5212 31.4514 17.6033C31.3564 17.8681 31.7497 18.133 31.9978 17.9873C32.1125 17.8996 32.188 17.7698 32.2078 17.6264C32.2276 17.483 32.19 17.3376 32.1033 17.2219C31.8684 16.8987 31.3405 16.7345 31.3537 16.3346C31.6177 16.1121 32.0479 16.3346 32.2063 16.6577C32.3646 16.9808 32.3673 17.3411 32.4993 17.6642C32.6312 17.9873 33.0034 18.2734 33.3148 18.1171C33.233 17.8364 33.1538 17.5582 33.0746 17.2828C33.27 17.1318 33.4996 17.5662 33.7345 17.4947C33.877 17.4497 33.8955 17.2298 33.8322 17.1C33.7499 16.9726 33.6835 16.8356 33.6342 16.6921C33.6315 16.6243 33.6438 16.5566 33.6701 16.494C33.6965 16.4315 33.7364 16.3755 33.7868 16.3302C33.8373 16.2849 33.8971 16.2514 33.9619 16.232C34.0268 16.2126 34.0952 16.2078 34.1621 16.218C34.2974 16.2515 34.4197 16.3245 34.5137 16.4277C34.6076 16.531 34.669 16.6599 34.69 16.7981C34.6987 16.9086 34.7227 17.0173 34.7612 17.1212C34.8642 17.3384 35.1308 17.4046 35.3525 17.4947C35.5742 17.5847 35.8038 17.8072 35.7114 18.0244C35.6692 18.1198 35.5689 18.2125 35.6032 18.3131C35.6375 18.4138 35.7669 18.4376 35.7669 18.533C35.7669 18.6283 35.7009 18.6389 35.6428 18.6627C35.4924 18.7237 35.3314 18.7449 35.1888 18.8137C35.1144 18.8427 35.0499 18.8926 35.0031 18.9574C34.9563 19.0223 34.9291 19.0993 34.9249 19.1792C34.9434 19.407 35.2099 19.5156 35.3366 19.709C35.4201 19.9079 35.4804 20.1159 35.5161 20.3288C35.6059 20.5083 35.7205 20.6741 35.8566 20.8214C36.2288 21.3326 36.3159 21.9895 36.498 22.5934C36.5798 22.8583 36.7276 23.1708 37.0074 23.2211C37.1622 23.2357 37.3179 23.2053 37.4561 23.1337C37.8704 23.007 38.248 22.7816 38.5567 22.4769C38.8418 22.1458 38.9368 21.6107 38.6465 21.2876C38.6121 21.2435 38.5636 21.2126 38.5092 21.2002C38.4334 21.2051 38.3604 21.2308 38.2981 21.2744C38.1913 21.3137 38.0757 21.3219 37.9645 21.298C37.8533 21.2741 37.7512 21.219 37.6699 21.1393C37.5105 20.9783 37.384 20.7875 37.2977 20.5777C37.1869 20.3553 37.076 20.1301 36.9652 19.9023C37.0391 19.8556 37.1265 19.8349 37.2135 19.8435C37.3005 19.8521 37.3821 19.8896 37.4455 19.95C37.568 20.0737 37.6776 20.2094 37.7728 20.3553C38.1432 20.7524 38.6517 20.9914 39.1928 21.0227C39.329 21.0298 39.4634 21.0575 39.5914 21.1048C39.9899 21.2876 40.1034 21.8782 40.5257 22.0027C40.646 22.0232 40.765 22.0506 40.882 22.0848C40.9605 22.1341 41.0276 22.1994 41.079 22.2766C41.1304 22.3537 41.1649 22.441 41.1803 22.5325C41.244 22.8704 41.3322 23.2033 41.4442 23.5284C41.5013 23.691 41.6029 23.8342 41.7373 23.9415C41.8718 24.0487 42.0337 24.1158 42.2044 24.1349C42.3097 24.1335 42.4137 24.1109 42.5102 24.0686C42.6068 24.0263 42.6939 23.9651 42.7666 23.8886C42.7851 23.5787 42.8035 23.2556 42.8035 22.9404C42.8062 22.8768 42.8062 22.8053 42.8035 22.7391Z" fill="#222744"/>
</g>
<g opacity="0.36">
<path opacity="0.36" d="M37.0523 28.6562C36.8411 28.6986 36.7883 28.8231 36.6827 28.9793C36.5349 29.1859 36.3185 29.3899 36.1839 29.5912C35.9516 29.9355 36.1601 30.4706 35.8566 30.7566C35.7959 30.8175 35.7141 30.8546 35.6586 30.9208C35.6039 30.9967 35.5809 31.091 35.5948 31.1836C35.6086 31.2763 35.658 31.3597 35.7325 31.4161C35.811 31.4675 35.9028 31.4949 35.9965 31.4949C36.0902 31.4949 36.1819 31.4675 36.2604 31.4161C36.4195 31.3129 36.535 31.1545 36.5851 30.9712C36.6066 30.8378 36.6631 30.7126 36.7487 30.6083C36.9229 30.4547 37.1948 30.5686 37.4244 30.5368C38.3984 30.4096 37.9787 28.4734 37.0523 28.6562Z" fill="#222744"/>
</g>
<g opacity="0.36">
<path opacity="0.36" d="M37.3822 25.9652C37.9444 25.4779 38.174 24.376 37.4719 24.1112C37.208 24.0158 36.9071 24.0926 36.6431 23.992C36.3027 23.8595 36.1443 23.4755 36.0202 23.1285C35.6965 22.2226 35.3727 21.315 35.0489 20.4056C34.8536 19.86 34.558 19.227 33.9932 19.1449C33.6685 19.0998 33.3544 19.2561 33.0324 19.3144C31.9212 19.5157 30.0525 16.822 29.2079 18.6363C29.0918 18.141 28.292 18.3264 28.036 18.7661C27.78 19.2058 27.7272 19.7832 27.3234 20.0905C27.0145 20.3235 26.5606 20.3368 26.3098 20.6202C26.1555 20.847 26.0752 21.1164 26.0802 21.391C26.0362 21.9083 25.9931 22.4266 25.9509 22.9457C25.8757 23.3614 25.9253 23.7901 26.0934 24.1774C26.2993 24.5429 26.8403 24.7442 27.1491 24.4608C27.2691 24.311 27.3752 24.1506 27.4659 23.9814C27.5616 23.8582 27.6908 23.7655 27.8378 23.7142C27.9848 23.663 28.1435 23.6555 28.2947 23.6927C28.5431 23.7799 28.7625 23.9349 28.9281 24.1403C30.3719 25.7004 30.8892 27.9253 30.9552 30.0548C30.9391 30.4449 30.9909 30.8348 31.1083 31.207C31.2772 31.6334 31.6362 31.9777 31.7338 32.4227C31.813 32.7644 31.7338 33.1405 31.8843 33.4583C32.1482 34.0464 33.0509 34.0702 33.5418 33.6491C34.0328 33.2279 34.199 32.5499 34.2993 31.9115C34.3996 31.2732 34.463 30.6004 34.8272 30.0574C35.0489 29.7237 35.3736 29.4562 35.5267 29.088C35.7431 28.5583 35.5847 27.957 35.7906 27.4352C36.0361 26.7572 36.8226 26.4499 37.3822 25.9652Z" fill="#222744"/>
</g>
<path d="M19.4183 50.3569C18.6451 50.4182 17.8718 50.2401 17.2026 49.8464C16.5335 49.4528 16.0009 48.8626 15.6766 48.1556C15.3523 47.4486 15.2519 46.6587 15.3891 45.8927C15.5262 45.1266 15.8943 44.4212 16.4435 43.8717C16.9928 43.3221 17.6969 42.9549 18.4607 42.8196C19.2245 42.6843 20.0113 42.7874 20.7148 43.115C21.4184 43.4426 22.0049 43.9789 22.3951 44.6516C22.7853 45.3242 22.9605 46.1008 22.897 46.8765C22.8223 47.7763 22.4316 48.6202 21.7944 49.2576C21.1572 49.8951 20.3151 50.2847 19.4183 50.3569V50.3569Z" fill="#FAFAFA"/>
<path d="M19.4183 50.357H19.479L19.6558 50.3305C19.7528 50.3167 19.8488 50.2973 19.9435 50.2723C20.0734 50.2436 20.2012 50.2064 20.3262 50.161C20.6692 50.0392 20.9935 49.8698 21.2896 49.6578C21.6821 49.3709 22.0163 49.0112 22.2741 48.5983C22.4251 48.3615 22.5508 48.1094 22.6489 47.8461C22.6969 47.7044 22.7374 47.5603 22.7703 47.4143C22.7862 47.3402 22.8047 47.266 22.8179 47.1892L22.8469 46.9588C22.8565 46.8797 22.861 46.8 22.8601 46.7204V46.4767C22.8601 46.3151 22.8363 46.1509 22.8152 45.984L22.7651 45.7351C22.7651 45.6953 22.7492 45.653 22.7387 45.6106L22.6991 45.4887L22.6199 45.2398C22.5856 45.1603 22.5513 45.0782 22.5143 44.9987L22.4615 44.8769L22.3956 44.7604L22.2609 44.5246L22.0999 44.3048L22.0181 44.1935L21.9257 44.0902C21.6792 43.8042 21.3898 43.5584 21.0679 43.3618L20.804 43.2162C20.7195 43.1711 20.6271 43.1367 20.54 43.0943L20.4054 43.0387L20.2655 42.9937C20.1721 42.9602 20.077 42.9319 19.9805 42.9089C19.5889 42.8177 19.186 42.7846 18.7848 42.8109C18.0174 42.8779 17.2885 43.1782 16.6957 43.6719C16.1028 44.1655 15.6742 44.8289 15.4671 45.5735C15.3783 45.9079 15.334 46.2525 15.3351 46.5985C15.3285 46.6814 15.3285 46.7647 15.3351 46.8475C15.3351 46.9296 15.3351 47.0117 15.3562 47.0912C15.3852 47.2528 15.4116 47.4117 15.4512 47.5627C15.6085 48.1283 15.8929 48.6502 16.2826 49.0883C16.6052 49.4483 16.9919 49.7447 17.4229 49.9624L17.7027 50.0895C17.7924 50.1292 17.8874 50.1504 17.9666 50.1822C18.3455 50.3027 18.7411 50.3617 19.1385 50.357H19.3813H19.3206H19.1385C18.9073 50.3668 18.6756 50.3534 18.447 50.3173C18.2809 50.2893 18.1169 50.2504 17.956 50.2007C17.8689 50.1716 17.7766 50.1504 17.6921 50.1107L17.407 49.9862C16.9207 49.7477 16.4901 49.4087 16.1435 48.9915C15.7969 48.5743 15.5421 48.0883 15.3958 47.5653C15.3536 47.4117 15.3272 47.2501 15.2955 47.0885L15.2744 46.8396C15.2673 46.7514 15.2673 46.6628 15.2744 46.5747C15.2668 46.0192 15.3811 45.4688 15.6092 44.9625C15.8372 44.4562 16.1735 44.0065 16.5941 43.6453C17.209 43.1103 17.9767 42.784 18.7875 42.7129C19.1967 42.6862 19.6075 42.7202 20.0069 42.8136C20.1045 42.8321 20.1996 42.8718 20.2946 42.8983L20.4397 42.946C20.4846 42.9619 20.5295 42.9857 20.5743 43.0043C20.6667 43.0467 20.7591 43.0837 20.8383 43.1288L21.1022 43.2744C21.4288 43.4774 21.7225 43.7293 21.9732 44.0214L22.0683 44.1247L22.1501 44.2386L22.3137 44.4637L22.451 44.7021L22.517 44.8213L22.5697 44.9458C22.6067 45.0279 22.6437 45.11 22.678 45.1921L22.7572 45.4437L22.7967 45.5708C22.7967 45.6132 22.8152 45.6556 22.8231 45.698C22.8416 45.7827 22.8574 45.8675 22.8733 45.9496C22.897 46.1191 22.9102 46.2886 22.9182 46.4529V46.6992C22.919 46.7797 22.9146 46.8603 22.905 46.9402L22.8733 47.176C22.8733 47.2528 22.8416 47.3296 22.8258 47.4037C22.7923 47.5518 22.75 47.6978 22.6991 47.8408C22.5988 48.1071 22.4705 48.3619 22.3164 48.6009C22.0517 49.0145 21.7114 49.3739 21.3134 49.6604C21.0118 49.8732 20.6811 50.0409 20.3315 50.1584C20.206 50.2035 20.0771 50.2389 19.9462 50.2643C19.8508 50.2892 19.7538 50.3069 19.6558 50.3173L19.4763 50.3358L19.4183 50.357Z" fill="#1A2E35"/>
<path d="M43.9227 24.5402C43.9183 24.2608 43.9288 23.9814 43.9543 23.7032C43.9566 23.4268 43.976 23.1508 44.0124 22.8768C44.0636 23.4362 44.0333 24.0001 43.9227 24.5508V24.5402Z" fill="#1A2E35"/>
<path d="M43.2206 27.8087C43.273 27.5344 43.3427 27.2637 43.4291 26.9982C43.4925 26.7289 43.5719 26.4635 43.6666 26.2036C43.5944 26.7605 43.4442 27.3045 43.2206 27.8193V27.8087Z" fill="#1A2E35"/>
<path d="M41.8085 30.8441C41.9188 30.5884 42.0449 30.3398 42.1859 30.0998C42.3054 29.8471 42.4403 29.6021 42.5897 29.3661C42.5067 29.6342 42.3933 29.8919 42.2519 30.1342C42.1309 30.3866 41.9821 30.6247 41.8085 30.8441V30.8441Z" fill="#1A2E35"/>
<path d="M39.7893 33.506C39.9527 33.2806 40.1289 33.0648 40.3172 32.8598C40.489 32.6393 40.6732 32.4288 40.8688 32.2294C40.7304 32.4734 40.5648 32.7009 40.3753 32.9074C40.202 33.1276 40.0056 33.3283 39.7893 33.506Z" fill="#1A2E35"/>
<path d="M37.2476 35.6727C37.4564 35.4878 37.6759 35.3153 37.9048 35.1562C38.1178 34.9752 38.3426 34.8089 38.5778 34.6582C38.3897 34.8664 38.179 35.053 37.9496 35.2144C37.7343 35.3942 37.4987 35.548 37.2476 35.6727V35.6727Z" fill="#1A2E35"/>
<path d="M34.3046 37.2434C34.5473 37.1071 34.7975 36.9851 35.0542 36.8779C35.3023 36.7495 35.5579 36.6363 35.8197 36.5388C35.5914 36.7017 35.3452 36.8377 35.0859 36.9441C34.8375 37.0729 34.5754 37.1733 34.3046 37.2434Z" fill="#1A2E35"/>
<path d="M31.0924 38.1359C31.3584 38.055 31.629 37.9905 31.9027 37.9425C32.1717 37.8706 32.445 37.8158 32.7209 37.7783C32.4666 37.8869 32.201 37.9669 31.9291 38.0167C31.6558 38.0893 31.375 38.1293 31.0924 38.1359V38.1359Z" fill="#1A2E35"/>
<path d="M27.7615 38.316C28.0389 38.2908 28.3181 38.2908 28.5955 38.316C28.8739 38.291 29.1539 38.291 29.4322 38.316C29.1557 38.361 28.8756 38.3805 28.5955 38.3742C28.3163 38.3807 28.0371 38.3612 27.7615 38.316V38.316Z" fill="#1A2E35"/>
<path d="M24.4807 37.7783C24.7567 37.8155 25.03 37.8704 25.2989 37.9425C25.5731 37.9926 25.8445 38.0571 26.1119 38.1359C25.8319 38.1286 25.5538 38.0886 25.2831 38.0167C25.0077 37.9672 24.7386 37.8872 24.4807 37.7783V37.7783Z" fill="#1A2E35"/>
<path d="M21.3715 36.5388C21.6324 36.636 21.8872 36.7492 22.1343 36.8779C22.3919 36.9848 22.6431 37.1068 22.8865 37.2434C22.6121 37.1741 22.3464 37.0737 22.0947 36.9441C21.839 36.837 21.5964 36.701 21.3715 36.5388V36.5388Z" fill="#1A2E35"/>
<path d="M18.6133 34.6582C18.8485 34.8089 19.0733 34.9752 19.2863 35.1562C19.5152 35.3153 19.7347 35.4878 19.9436 35.6727C19.6924 35.548 19.4568 35.3942 19.2415 35.2144C19.0121 35.053 18.8014 34.8664 18.6133 34.6582V34.6582Z" fill="#1A2E35"/>
<path d="M16.3223 32.2294C16.5179 32.4288 16.7021 32.6393 16.8739 32.8598C17.0622 33.0648 17.2384 33.2806 17.4018 33.506C17.1839 33.33 16.9873 33.1291 16.8158 32.9074C16.6263 32.7009 16.4607 32.4734 16.3223 32.2294V32.2294Z" fill="#1A2E35"/>
<path d="M14.5987 29.3661C14.7502 29.6 14.8852 29.8443 15.0026 30.0971C15.1448 30.3378 15.2717 30.5873 15.3826 30.8441C15.0517 30.3906 14.7852 29.8932 14.5908 29.3661H14.5987Z" fill="#1A2E35"/>
<path d="M13.535 26.1956C13.6306 26.4552 13.71 26.7206 13.7726 26.9902C13.8575 27.2561 13.9271 27.5267 13.9811 27.8007C13.8574 27.5476 13.7636 27.2809 13.7013 27.0061C13.6164 26.7428 13.5607 26.471 13.535 26.1956V26.1956Z" fill="#1A2E35"/>
<path d="M13.1787 22.8768C13.2157 23.1534 13.2351 23.4321 13.2368 23.7112C13.2639 23.9893 13.2736 24.2688 13.2658 24.5481C13.2005 24.2757 13.1659 23.9967 13.1629 23.7165C13.1359 23.4369 13.1412 23.1552 13.1787 22.8768Z" fill="#1A2E35"/>
<path d="M13.535 19.5396C13.5116 19.819 13.4711 20.0968 13.4136 20.3712C13.3815 20.6487 13.3322 20.9238 13.2658 21.195C13.2609 20.914 13.2866 20.6334 13.3423 20.358C13.3761 20.0789 13.4407 19.8044 13.535 19.5396V19.5396Z" fill="#1A2E35"/>
<path d="M14.5987 16.3691C14.5157 16.6396 14.417 16.9049 14.3031 17.1637C14.2101 17.4273 14.1026 17.6855 13.9811 17.9372C14.0381 17.6629 14.1267 17.3963 14.245 17.1426C14.3344 16.8726 14.453 16.6132 14.5987 16.3691V16.3691Z" fill="#1A2E35"/>
<path d="M16.3196 13.5032C16.1834 13.7473 16.0309 13.9818 15.8629 14.2051C15.718 14.4432 15.5575 14.6715 15.3826 14.8884C15.4951 14.6316 15.6358 14.3882 15.8022 14.1627C15.9493 13.9239 16.1228 13.7027 16.3196 13.5032V13.5032Z" fill="#1A2E35"/>
<path d="M18.6132 11.0742C18.427 11.2827 18.2278 11.4791 18.0167 11.6622C17.8229 11.863 17.6175 12.0523 17.4017 12.229C17.5653 12.001 17.7548 11.793 17.9666 11.6093C18.1616 11.4074 18.3785 11.2279 18.6132 11.0742V11.0742Z" fill="#1A2E35"/>
<path d="M21.3715 9.19641C21.1446 9.3561 20.9084 9.50203 20.6641 9.63344C20.4326 9.78965 20.191 9.93034 19.9409 10.0546C20.1506 9.86817 20.3809 9.70643 20.6272 9.57252C20.8599 9.41856 21.1097 9.29234 21.3715 9.19641Z" fill="#1A2E35"/>
<path d="M24.4807 7.95679C24.2222 8.06522 23.9578 8.15895 23.6889 8.23755C23.4301 8.34068 23.1657 8.42911 22.897 8.50242C23.1404 8.3641 23.3991 8.25477 23.6677 8.17663C23.9289 8.07066 24.2019 7.99685 24.4807 7.95679V7.95679Z" fill="#1A2E35"/>
<path d="M27.7588 7.41654C27.485 7.4691 27.2082 7.50449 26.93 7.52249C26.6547 7.56411 26.377 7.58888 26.0986 7.59665C26.367 7.51736 26.6431 7.46763 26.9221 7.44832C27.199 7.40682 27.4796 7.39616 27.7588 7.41654V7.41654Z" fill="#1A2E35"/>
<path d="M31.0793 7.59666C30.8009 7.58901 30.5232 7.56425 30.2478 7.5225C29.9696 7.50499 29.6928 7.4696 29.4191 7.41655C29.6983 7.39615 29.9789 7.40681 30.2558 7.44834C30.535 7.46608 30.8113 7.51585 31.0793 7.59666V7.59666Z" fill="#1A2E35"/>
<path d="M34.302 8.48923C34.0324 8.41886 33.7679 8.33037 33.5101 8.22436C33.2403 8.14864 32.9757 8.05484 32.7183 7.9436C32.9954 7.98375 33.2672 8.05482 33.5286 8.1555C33.7983 8.23664 34.0578 8.34862 34.302 8.48923V8.48923Z" fill="#1A2E35"/>
<path d="M37.2476 10.0598C36.9984 9.932 36.7569 9.78961 36.5244 9.63341C36.2847 9.50051 36.0529 9.3537 35.8302 9.19373C36.0923 9.29304 36.3428 9.42094 36.5772 9.57514C36.8176 9.71167 37.0424 9.87421 37.2476 10.0598V10.0598Z" fill="#1A2E35"/>
<path d="M39.7893 12.2264C39.5742 12.0488 39.3689 11.8596 39.1743 11.6596C38.9645 11.4761 38.7653 11.2807 38.5778 11.0742C38.8135 11.2245 39.0305 11.4024 39.2245 11.604C39.4364 11.7886 39.6259 11.9975 39.7893 12.2264V12.2264Z" fill="#1A2E35"/>
<path d="M41.8085 14.8884C41.6333 14.6702 41.4719 14.441 41.3255 14.2024C41.1602 13.9782 41.0077 13.7448 40.8688 13.5032C41.07 13.7014 41.2472 13.9228 41.3967 14.1627C41.5603 14.3886 41.6984 14.632 41.8085 14.8884V14.8884Z" fill="#1A2E35"/>
<path d="M43.2206 17.9239C43.0959 17.6737 42.9883 17.4153 42.8986 17.1505C42.7839 16.8962 42.6843 16.6353 42.6003 16.3691C42.7521 16.6049 42.8744 16.8584 42.9646 17.124C43.0804 17.3798 43.1663 17.6483 43.2206 17.9239V17.9239Z" fill="#1A2E35"/>
<path d="M43.9226 21.1923C43.8566 20.921 43.8072 20.6459 43.7748 20.3686C43.7174 20.0942 43.6777 19.8164 43.6561 19.5369C43.7503 19.8017 43.8149 20.0762 43.8487 20.3553C43.906 20.6304 43.9308 20.9114 43.9226 21.1923Z" fill="#1A2E35"/>
<path d="M20.5004 43.0201C20.482 43.0201 21.0442 41.7275 21.7594 40.1542C22.4747 38.5809 23.0633 37.3122 23.0792 37.3201C23.095 37.3281 22.5354 38.61 21.8228 40.1833C21.1101 41.7566 20.5216 43.028 20.5004 43.0201Z" fill="#1A2E35"/>
<path d="M19.4658 46.6303C19.6445 46.5511 19.7963 46.4212 19.9023 46.2564C20.0083 46.0917 20.0639 45.8994 20.0623 45.7033C20.072 45.5738 20.0549 45.4438 20.0122 45.3213C19.9695 45.1988 19.9021 45.0865 19.8141 44.9913C19.7262 44.8962 19.6196 44.8203 19.5011 44.7684C19.3825 44.7165 19.2546 44.6897 19.1253 44.6897C18.9959 44.6897 18.868 44.7165 18.7495 44.7684C18.6309 44.8203 18.5244 44.8962 18.4364 44.9913C18.3485 45.0865 18.281 45.1988 18.2383 45.3213C18.1956 45.4438 18.1786 45.5738 18.1883 45.7033C18.185 45.9007 18.2399 46.0947 18.346 46.261C18.4521 46.4273 18.6047 46.5586 18.7848 46.6382C17.3437 46.8554 17.4096 48.4288 17.4096 48.4288L20.8171 48.4446C20.8171 48.4446 20.891 46.8475 19.4658 46.6303Z" fill="#222744"/>
<path d="M5.06249 32.7618C4.28916 32.8254 3.51501 32.6493 2.84461 32.2572C2.17421 31.8652 1.63986 31.2761 1.31374 30.5696C0.987617 29.8631 0.885441 29.0731 1.02101 28.3064C1.15658 27.5398 1.52336 26.8333 2.07182 26.2825C2.62027 25.7317 3.32396 25.3631 4.08785 25.2265C4.85173 25.0899 5.639 25.1918 6.34331 25.5185C7.04762 25.8453 7.63504 26.381 8.02622 27.0535C8.41739 27.7259 8.59348 28.5027 8.53069 29.2788C8.45641 30.1772 8.06723 31.02 7.43227 31.6577C6.79731 32.2954 5.95767 32.6866 5.06249 32.7618V32.7618Z" fill="#FAFAFA"/>
<path d="M5.06251 32.7617H5.12322L5.30006 32.7353C5.39701 32.7215 5.49307 32.702 5.58775 32.677C5.7176 32.6483 5.84545 32.6111 5.97047 32.5657C6.31373 32.4434 6.63806 32.2731 6.93386 32.0598C7.32637 31.7729 7.66055 31.4133 7.91836 31.0004C8.06987 30.7639 8.19553 30.5117 8.29316 30.2481C8.34111 30.1073 8.38164 29.9641 8.41457 29.8191C8.43041 29.7449 8.44889 29.6707 8.46208 29.5939L8.49112 29.3608C8.49652 29.2815 8.49652 29.2018 8.49112 29.1224V28.8814C8.49112 28.7198 8.46736 28.553 8.44625 28.3888L8.3961 28.1398C8.3961 28.0974 8.38026 28.055 8.3697 28.0153L8.33011 27.8908L8.25093 27.6445C8.21662 27.5624 8.1823 27.4829 8.14535 27.4008L8.09256 27.279L8.02658 27.1624L7.89197 26.9293L7.73096 26.7068L7.65178 26.5956L7.55676 26.495C7.31035 26.2081 7.02095 25.9615 6.69895 25.7639L6.43501 25.6182C6.35055 25.5759 6.25817 25.5388 6.17107 25.499L6.03646 25.4408L5.89657 25.3957C5.80155 25.3693 5.70917 25.3322 5.61151 25.311C5.21976 25.2206 4.81691 25.1885 4.41585 25.2156C3.63614 25.293 2.89988 25.6124 2.30959 26.1294C1.74873 26.6199 1.34319 27.2645 1.14297 27.9835C1.05408 28.3169 1.0097 28.6607 1.011 29.0059C1.00436 29.0888 1.00436 29.172 1.011 29.2549C1.011 29.337 1.0242 29.4191 1.03212 29.5012C1.06115 29.6601 1.08754 29.819 1.12713 29.97C1.27178 30.4855 1.5221 30.965 1.86207 31.3777C2.20204 31.7905 2.62417 32.1275 3.10142 32.3671L3.3812 32.4916C3.47358 32.5313 3.56596 32.5551 3.64514 32.5843C3.80345 32.6375 3.9659 32.6773 4.13079 32.7035C4.35717 32.7446 4.58703 32.7632 4.81704 32.7591H5.05987H4.99916H4.81704C4.58569 32.769 4.35394 32.7548 4.12551 32.7167C3.95929 32.691 3.79519 32.6529 3.63458 32.6028C3.54748 32.5737 3.4551 32.5498 3.37064 32.5128L3.0803 32.4121C2.64183 32.1944 2.24791 31.8961 1.91896 31.5327C1.52163 31.0911 1.23084 30.5637 1.06907 29.9912C1.02684 29.8349 1.00044 29.6734 0.968769 29.5118L0.947654 29.2628C0.93597 29.1751 0.931556 29.0865 0.934457 28.998C0.931219 28.6468 0.974713 28.2967 1.06379 27.957C1.2731 27.1975 1.70897 26.5204 2.31289 26.0166C2.9168 25.5128 3.65984 25.2065 4.44225 25.1388C4.85131 25.1112 5.26219 25.1443 5.66166 25.2368C5.75932 25.258 5.85434 25.2951 5.94936 25.3242L6.09452 25.3693L6.23177 25.4302C6.32151 25.4699 6.41389 25.507 6.49572 25.552L6.75966 25.7003C7.08614 25.9024 7.37988 26.1534 7.63067 26.4446L7.72568 26.5506L7.80751 26.6645L7.97115 26.8896L8.1084 27.128L8.17439 27.2472L8.22717 27.3717C8.26413 27.4538 8.30108 27.5359 8.33539 27.618L8.41457 27.8829L8.45416 28.0073C8.45416 28.0497 8.47264 28.0921 8.48056 28.1345C8.49903 28.2192 8.51487 28.304 8.53071 28.3994C8.55446 28.5689 8.56766 28.7357 8.57558 28.9V29.1463C8.5823 29.2265 8.5823 29.3071 8.57558 29.3873L8.54391 29.6257C8.54391 29.7025 8.51223 29.7767 8.4964 29.8535C8.46292 30.0016 8.42061 30.1475 8.3697 30.2905C8.0967 31.0195 7.61449 31.6508 6.98401 32.1049C6.68186 32.3167 6.35127 32.4843 6.00214 32.6028C5.8762 32.6467 5.74745 32.6821 5.61679 32.7088C5.52117 32.7317 5.42419 32.7485 5.32645 32.7591L5.14697 32.7776L5.06251 32.7617Z" fill="#1A2E35"/>
<path d="M8.44092 28.9689C8.44092 28.9477 9.83717 29.0298 11.5554 29.1517C13.2737 29.2735 14.6647 29.3874 14.6647 29.4165C14.6647 29.4457 13.2684 29.3556 11.5502 29.2338C9.83189 29.1119 8.44092 29.0007 8.44092 28.9689Z" fill="#1A2E35"/>
<path d="M5.10738 29.035C5.28569 28.9547 5.43681 28.8241 5.54228 28.6589C5.64775 28.4938 5.70299 28.3015 5.70125 28.1054C5.71094 27.9759 5.6939 27.8459 5.6512 27.7234C5.60851 27.6009 5.54107 27.4886 5.45311 27.3934C5.36516 27.2983 5.25858 27.2224 5.14005 27.1705C5.02152 27.1186 4.89358 27.0918 4.76426 27.0918C4.63494 27.0918 4.507 27.1186 4.38847 27.1705C4.26994 27.2224 4.16336 27.2983 4.07541 27.3934C3.98745 27.4886 3.92001 27.6009 3.87731 27.7234C3.83462 27.8459 3.81758 27.9759 3.82726 28.1054C3.82586 28.3014 3.88124 28.4936 3.98666 28.6587C4.09209 28.8237 4.24303 28.9545 4.42113 29.035C2.98001 29.2522 3.046 30.8229 3.046 30.8229L6.45349 30.8388C6.45349 30.8388 6.53267 29.2496 5.10738 29.035Z" fill="#222744"/>
<path d="M47.6205 40.8163C46.9155 41.1415 46.128 41.2417 45.3644 41.1034C44.6008 40.9651 43.8979 40.595 43.3506 40.043C42.8033 39.491 42.4381 38.7837 42.3042 38.0167C42.1703 37.2498 42.2742 36.46 42.6019 35.7542C42.9295 35.0484 43.4652 34.4605 44.1365 34.0699C44.8078 33.6794 45.5823 33.505 46.3555 33.5703C47.1287 33.6356 47.8633 33.9375 48.4601 34.4352C49.0568 34.9329 49.487 35.6024 49.6925 36.3533C49.9304 37.2229 49.8527 38.1491 49.4732 38.9666C49.0937 39.7841 48.4371 40.4396 47.6205 40.8163V40.8163Z" fill="#FAFAFA"/>
<path d="M47.6205 40.8163L47.6759 40.7872L47.8343 40.6998C47.9201 40.6539 48.003 40.6026 48.0824 40.5462C48.1946 40.4745 48.3021 40.3958 48.4044 40.3104C48.684 40.0804 48.9308 39.8131 49.1381 39.5158C49.5666 38.8779 49.7963 38.1265 49.798 37.3572C49.7951 37.2075 49.7846 37.0581 49.7663 36.9095C49.7663 36.8354 49.7478 36.7586 49.7346 36.6817L49.6818 36.454C49.6639 36.3766 49.6409 36.3005 49.6132 36.2262L49.5367 35.9984C49.4707 35.8474 49.4021 35.6964 49.3255 35.5481L49.1936 35.3336C49.1698 35.2965 49.1487 35.2594 49.1249 35.225L49.0457 35.1217L48.8874 34.9177L48.7053 34.727L48.6129 34.6317C48.5812 34.5999 48.5469 34.5734 48.5126 34.5443L48.3067 34.3694L48.0797 34.2158L47.9662 34.1417L47.8422 34.0754C47.5127 33.8909 47.1565 33.7596 46.7864 33.6861L46.5013 33.6358C46.4037 33.6225 46.306 33.6199 46.211 33.6146H46.0632H45.918C45.8192 33.6154 45.7206 33.6216 45.6224 33.6331C45.2228 33.6816 44.8324 33.7887 44.4637 33.951C43.7657 34.2788 43.1838 34.8124 42.7957 35.4806C42.4076 36.1488 42.2317 36.9198 42.2915 37.6909C42.3211 38.0343 42.3975 38.3721 42.5185 38.6947C42.543 38.7743 42.5748 38.8515 42.6135 38.9252L42.7164 39.1503C42.8009 39.2881 42.8774 39.4284 42.9804 39.5582C43.3195 40.0357 43.7639 40.4282 44.279 40.7051C44.7049 40.9325 45.1695 41.0781 45.6488 41.1342L45.9576 41.158C46.0553 41.158 46.1503 41.158 46.2427 41.158C46.4083 41.1527 46.5733 41.135 46.7363 41.1051C46.9635 41.0655 47.1863 41.0034 47.4014 40.9196L47.5703 40.8587L47.6284 40.8375C47.6284 40.8375 47.6125 40.8375 47.573 40.864L47.4067 40.9355C47.1922 41.024 46.9693 41.0905 46.7415 41.1342C46.5768 41.1658 46.4102 41.1862 46.2427 41.1951C46.1503 41.1951 46.0553 41.1951 45.955 41.1951L45.6462 41.1766C45.16 41.1231 44.6882 40.9784 44.2552 40.7501C43.7319 40.4721 43.2801 40.0759 42.9355 39.5927C42.8431 39.4629 42.7613 39.3278 42.6715 39.1795C42.6372 39.1053 42.6003 39.0285 42.566 38.9517C42.5276 38.8766 42.4949 38.7987 42.4683 38.7186C42.345 38.3898 42.266 38.046 42.2334 37.6962C42.1753 36.9392 42.3386 36.1816 42.7032 35.5163C43.0971 34.8011 43.7071 34.2298 44.4452 33.8847C44.8203 33.7183 45.2179 33.6085 45.6251 33.5589C45.7227 33.5431 45.8257 33.5589 45.926 33.5404H46.0738H46.2242C46.3245 33.5404 46.4222 33.5404 46.5198 33.5642L46.8102 33.6146C47.1867 33.6914 47.549 33.8264 47.8844 34.0145L48.0085 34.0807L48.1246 34.1575L48.3542 34.3138L48.5654 34.4913L48.6683 34.5813L48.7607 34.6793C48.824 34.7429 48.8847 34.8091 48.9454 34.8727L49.1065 35.0819L49.1883 35.1879C49.212 35.2223 49.2331 35.2621 49.2569 35.2965L49.3889 35.519C49.4681 35.6699 49.5367 35.8236 49.6027 35.9745L49.6792 36.2076C49.7085 36.2833 49.7314 36.3613 49.7478 36.4407C49.7663 36.5175 49.7821 36.5943 49.8006 36.6712C49.8191 36.748 49.8217 36.8274 49.8323 36.9042C49.8506 37.0546 49.8612 37.2057 49.864 37.3572C49.86 37.6415 49.8264 37.9247 49.7637 38.2021C49.6558 38.6811 49.4578 39.1351 49.1804 39.5397C48.9685 39.8382 48.7162 40.1057 48.4308 40.3343C48.3264 40.4176 48.2171 40.4946 48.1035 40.5647C48.0193 40.6207 47.9311 40.6703 47.8395 40.713L47.6785 40.7925C47.6416 40.811 47.6231 40.819 47.6205 40.8163Z" fill="#1A2E35"/>
<path d="M46.3879 37.2697C46.5662 37.1901 46.7174 37.06 46.8229 36.8953C46.9284 36.7306 46.9837 36.5385 46.9818 36.3427C46.9914 36.2132 46.9744 36.0832 46.9317 35.9607C46.889 35.8382 46.8216 35.7259 46.7336 35.6307C46.6457 35.5356 46.5391 35.4597 46.4205 35.4078C46.302 35.3559 46.1741 35.3291 46.0448 35.3291C45.9154 35.3291 45.7875 35.3559 45.669 35.4078C45.5504 35.4597 45.4439 35.5356 45.3559 35.6307C45.268 35.7259 45.2005 35.8382 45.1578 35.9607C45.1151 36.0832 45.0981 36.2132 45.1078 36.3427C45.105 36.5403 45.1601 36.7345 45.2661 36.9011C45.3721 37.0678 45.5244 37.1996 45.7043 37.2803C44.2632 37.4975 44.3291 39.0682 44.3291 39.0682L47.7393 39.084C47.7393 39.084 47.8184 37.4842 46.3879 37.2697Z" fill="#222744"/>
<path d="M43.0385 35.0396C43.0253 35.0555 42.4103 34.5867 41.666 33.9934C40.9216 33.4001 40.3251 32.9074 40.3462 32.8915C40.3674 32.8756 40.9744 33.3444 41.7187 33.9377C42.4631 34.531 43.0516 35.0237 43.0385 35.0396Z" fill="#1A2E35"/>
<path d="M11.1992 10.6002C10.4258 10.6638 9.65167 10.4877 8.98127 10.0956C8.31087 9.70358 7.77651 9.11451 7.45039 8.40798C7.12427 7.70144 7.0221 6.91149 7.15767 6.14482C7.29324 5.37815 7.66002 4.6717 8.20847 4.12091C8.75693 3.57011 9.46062 3.2015 10.2245 3.06487C10.9884 2.92825 11.7757 3.03018 12.48 3.35691C13.1843 3.68363 13.7717 4.21941 14.1629 4.89187C14.5541 5.56432 14.7301 6.34106 14.6673 7.11715C14.5931 8.01553 14.2039 8.85841 13.5689 9.49608C12.934 10.1338 12.0943 10.5249 11.1992 10.6002V10.6002Z" fill="#FAFAFA"/>
<path d="M11.1991 10.6003C11.2188 10.5935 11.2392 10.589 11.2598 10.587L11.4367 10.5632C11.5336 10.5494 11.6297 10.5299 11.7244 10.5049C11.8539 10.475 11.9817 10.4379 12.1071 10.3937C12.4495 10.2741 12.7738 10.1075 13.0705 9.89837C13.463 9.61147 13.7972 9.25185 14.055 8.8389C14.2065 8.6024 14.3321 8.3502 14.4298 8.08667C14.4777 7.94588 14.5183 7.80265 14.5512 7.65758C14.567 7.58342 14.5855 7.50926 14.5987 7.43245L14.6277 7.19936C14.6331 7.11999 14.6331 7.04035 14.6277 6.96098V6.71995C14.6277 6.55838 14.604 6.39151 14.5829 6.22465C14.567 6.14254 14.5486 6.06043 14.5327 5.97832C14.5327 5.93594 14.5169 5.89356 14.5063 5.85118L14.4667 5.72934L14.3876 5.48037C14.3532 5.40091 14.3163 5.32145 14.282 5.23934L14.2292 5.1175L14.1632 5.00095L14.0286 4.76787L13.8676 4.54538L13.7858 4.43414L13.7119 4.33613C13.4697 4.04939 13.1848 3.80191 12.8672 3.60245L12.6033 3.45677C12.5188 3.41439 12.4265 3.37731 12.3394 3.33758C12.2945 3.31904 12.2496 3.2952 12.2048 3.27931L12.0754 3.23428C11.9804 3.20779 11.888 3.16806 11.7904 3.14952C11.3985 3.0596 10.9959 3.0266 10.5947 3.05152C9.82482 3.1168 9.09319 3.41663 8.49786 3.91085C7.90253 4.40507 7.47193 5.07007 7.26376 5.81675C7.1757 6.15029 7.13221 6.4941 7.13443 6.83914C7.12911 6.92205 7.12911 7.00521 7.13443 7.08812C7.13443 7.17023 7.15027 7.25234 7.15555 7.33444C7.18722 7.49337 7.21361 7.65229 7.25321 7.80326C7.40994 8.36912 7.69443 8.89116 8.08462 9.3289C8.40713 9.68968 8.79381 9.98699 9.22485 10.2056L9.50463 10.3301C9.59437 10.3698 9.68939 10.3937 9.76857 10.4228C9.92724 10.4748 10.0896 10.5146 10.2542 10.542C10.4808 10.5818 10.7105 10.6004 10.9405 10.5976H11.12C11.141 10.5947 11.1623 10.5947 11.1833 10.5976H11.12H10.9405C10.7091 10.6075 10.4774 10.5933 10.2489 10.5552C10.0827 10.5295 9.91862 10.4915 9.75801 10.4414C9.67091 10.4122 9.57853 10.3884 9.49407 10.3513L9.20901 10.2242C8.72269 9.98566 8.29211 9.64669 7.9455 9.22948C7.59888 8.81226 7.34407 8.32623 7.19778 7.80326C7.15555 7.64964 7.12915 7.48807 7.09748 7.3265L7.07373 7.07752C7.06795 6.98933 7.06795 6.90085 7.07373 6.81265C7.06902 6.46136 7.11254 6.1111 7.20306 5.77172C7.41237 5.01216 7.84824 4.33504 8.45215 3.83128C9.05606 3.32752 9.7991 3.02122 10.5815 2.95352C10.9906 2.92594 11.4015 2.95896 11.8009 3.05152C11.8986 3.07271 11.9936 3.10979 12.0886 3.13893L12.2311 3.18396L12.3684 3.24488C12.4608 3.28461 12.5532 3.32169 12.6323 3.36671L12.8963 3.51504C13.2241 3.71635 13.5188 3.96742 13.7699 4.25932L13.8649 4.36527L13.9468 4.47651L14.1104 4.7043L14.245 4.94268C14.2688 4.98241 14.2925 5.01949 14.3136 5.06187L14.3664 5.18636L14.4747 5.43004L14.5538 5.69491L14.5934 5.8194C14.5934 5.86178 14.6119 5.90416 14.6198 5.94653L14.67 6.2114C14.6911 6.37827 14.7069 6.54779 14.7148 6.712V6.95833C14.7202 7.03859 14.7202 7.11911 14.7148 7.19936L14.6832 7.43509C14.6832 7.51455 14.6515 7.58872 14.6357 7.66553C14.601 7.81243 14.5587 7.95742 14.509 8.09991C14.4092 8.36732 14.2809 8.62308 14.1262 8.86273C13.8606 9.27637 13.5194 9.63585 13.1206 9.92221C12.812 10.1395 12.4731 10.3099 12.115 10.4281C11.9887 10.4708 11.86 10.5062 11.7297 10.5341C11.634 10.557 11.5371 10.5738 11.4393 10.5844L11.2598 10.6029L11.1991 10.6003Z" fill="#1A2E35"/>
<path d="M11.2414 6.86028C11.4219 6.78116 11.5749 6.65009 11.6811 6.48365C11.7872 6.31721 11.8418 6.12289 11.8379 5.9253C11.8476 5.79588 11.8305 5.66586 11.7878 5.54336C11.7451 5.42086 11.6777 5.30852 11.5898 5.21338C11.5018 5.11824 11.3952 5.04234 11.2767 4.99043C11.1582 4.93853 11.0302 4.91174 10.9009 4.91174C10.7716 4.91174 10.6436 4.93853 10.5251 4.99043C10.4066 5.04234 10.3 5.11824 10.212 5.21338C10.1241 5.30852 10.0567 5.42086 10.014 5.54336C9.97126 5.66586 9.95422 5.79588 9.96391 5.9253C9.95962 6.12296 10.0141 6.31743 10.1203 6.48394C10.2265 6.65044 10.3797 6.78145 10.5604 6.86028C9.11929 7.08012 9.18528 8.65079 9.18528 8.65079L12.6033 8.66668C12.6033 8.66668 12.6719 7.07747 11.2414 6.86028Z" fill="#222744"/>
<path d="M17.0665 12.5946C17.0665 12.6105 16.2272 11.9483 15.2189 11.1166C14.2107 10.2849 13.4057 9.59625 13.4189 9.58036C13.4321 9.56447 14.2582 10.2266 15.2665 11.061C16.2747 11.8953 17.0903 12.5787 17.0665 12.5946Z" fill="#1A2E35"/>
<path d="M35.8117 5.94645C35.2537 5.9923 34.6952 5.86516 34.2115 5.58222C33.7278 5.29928 33.3423 4.87416 33.1071 4.36432C32.8719 3.85447 32.7983 3.28446 32.8963 2.73131C32.9943 2.17815 33.2591 1.66851 33.655 1.27124C34.0509 0.873969 34.5588 0.608216 35.11 0.509886C35.6612 0.411555 36.2292 0.485387 36.7373 0.721406C37.2454 0.957425 37.669 1.34426 37.9509 1.82964C38.2329 2.31501 38.3596 2.87554 38.3139 3.4355C38.261 4.08371 37.9804 4.692 37.5221 5.15189C37.0638 5.61178 36.4577 5.89337 35.8117 5.94645V5.94645Z" fill="#FAFAFA"/>
<path d="M35.8117 5.94653H35.8539L35.9833 5.92534C36.0529 5.91681 36.1218 5.90264 36.1891 5.88296C36.2786 5.86177 36.3668 5.83524 36.4531 5.8035C36.7012 5.71145 36.9357 5.5858 37.1499 5.43003C37.4311 5.22451 37.6711 4.96749 37.8572 4.67251C37.9633 4.5056 38.0518 4.32806 38.1212 4.14277C38.194 3.93648 38.2418 3.72217 38.2637 3.50444C38.312 3.02186 38.23 2.53513 38.0262 2.09534C37.9738 1.97801 37.9129 1.8647 37.8441 1.75631L37.7306 1.59739L37.6725 1.51793L37.6039 1.44377C37.4269 1.23689 37.2195 1.05826 36.9889 0.914032C36.7487 0.767415 36.488 0.657608 36.2155 0.588244C35.9337 0.522666 35.6437 0.499458 35.3551 0.519379C34.8051 0.569818 34.2835 0.786811 33.8592 1.14159C33.435 1.49636 33.1282 1.97216 32.9796 2.50589C32.8542 2.97345 32.8542 3.46597 32.9796 3.93353C33.0928 4.34058 33.2968 4.71646 33.5761 5.03273C33.8085 5.29091 34.0858 5.50452 34.3943 5.66312L34.5976 5.75317C34.6609 5.78231 34.7295 5.7982 34.7902 5.82204C34.9043 5.85818 35.0207 5.8865 35.1386 5.9068C35.3023 5.93674 35.4685 5.95093 35.6349 5.94917H35.8091C35.8091 5.94917 35.7932 5.94917 35.7642 5.94917H35.6349C35.4672 5.95537 35.2992 5.94562 35.1334 5.92004C35.0138 5.90045 34.8957 5.87302 34.7797 5.83793C34.719 5.81674 34.6504 5.80085 34.5844 5.77436L34.3759 5.68431C34.0592 5.52758 33.7746 5.31289 33.5365 5.05127C33.1923 4.66715 32.9618 4.19428 32.8708 3.68584C32.7798 3.1774 32.832 2.65358 33.0216 2.17329C33.2111 1.69301 33.5304 1.27532 33.9436 0.967225C34.3568 0.659127 34.8474 0.472841 35.3604 0.429323C35.6571 0.411166 35.9549 0.436145 36.2446 0.503486C36.5242 0.572724 36.7914 0.685324 37.0364 0.83722C37.2724 0.980467 37.4851 1.15911 37.6672 1.36696L37.7358 1.44112L37.7965 1.52323L37.9127 1.68745C37.9829 1.79965 38.0455 1.91646 38.1001 2.03707C38.3069 2.48719 38.3881 2.98518 38.335 3.47796C38.3111 3.70042 38.2605 3.91918 38.1845 4.12953C37.99 4.66187 37.6406 5.12327 37.1816 5.45387C36.9629 5.60672 36.7239 5.72798 36.4716 5.81409C36.3801 5.8452 36.2866 5.86998 36.1918 5.88825C36.1234 5.9063 36.0537 5.9187 35.9833 5.92534H35.8539C35.8302 5.94917 35.8117 5.94917 35.8117 5.94653Z" fill="#1A2E35"/>
<path d="M35.8434 3.25802C35.9722 3.20111 36.0816 3.10756 36.1581 2.98894C36.2345 2.87032 36.2747 2.73182 36.2736 2.59056C36.2819 2.49647 36.2706 2.40169 36.2404 2.31223C36.2102 2.22277 36.1618 2.14059 36.0982 2.07093C36.0347 2.00126 35.9574 1.94563 35.8713 1.90757C35.7851 1.86951 35.692 1.84985 35.5979 1.84985C35.5038 1.84985 35.4107 1.86951 35.3246 1.90757C35.2384 1.94563 35.1611 2.00126 35.0976 2.07093C35.034 2.14059 34.9856 2.22277 34.9554 2.31223C34.9252 2.40169 34.9139 2.49647 34.9222 2.59056C34.9188 2.73331 34.958 2.87383 35.0346 2.99415C35.1113 3.11446 35.2219 3.2091 35.3524 3.26597C34.3125 3.42489 34.36 4.55852 34.36 4.55852H36.8173C36.8173 4.55852 36.8859 3.4143 35.8434 3.25802Z" fill="#222744"/>
<path d="M34.8721 5.85913C34.7337 6.26963 34.5725 6.67198 34.389 7.06428C34.227 7.46623 34.0428 7.85884 33.8374 8.24029C33.9763 7.82999 34.1375 7.42767 34.3204 7.03515C34.4818 6.63292 34.666 6.24028 34.8721 5.85913V5.85913Z" fill="#1A2E35"/>
<path d="M49.0458 21.7432C48.3296 21.8015 47.6128 21.6379 46.9922 21.2745C46.3716 20.911 45.8771 20.3652 45.5755 19.7108C45.2739 19.0563 45.1796 18.3247 45.3055 17.6148C45.4314 16.9049 45.7713 16.2509 46.2794 15.741C46.7875 15.2312 47.4392 14.89 48.1467 14.7637C48.8541 14.6374 49.5831 14.732 50.2353 15.0346C50.8874 15.3373 51.4313 15.8336 51.7935 16.4563C52.1557 17.0791 52.3187 17.7984 52.2606 18.5171C52.1926 19.3499 51.8321 20.1315 51.2433 20.7223C50.6545 21.3132 49.8757 21.675 49.0458 21.7432V21.7432Z" fill="#FAFAFA"/>
<path d="M49.0458 21.7433H49.1012L49.2675 21.7168C49.3568 21.7064 49.445 21.6887 49.5314 21.6639C49.6526 21.6382 49.7717 21.6037 49.8878 21.5606C50.2055 21.4469 50.5058 21.2891 50.7799 21.0918C51.1416 20.8291 51.4506 20.5002 51.6905 20.1223C51.8313 19.9038 51.9473 19.6702 52.0363 19.4257C52.1293 19.1603 52.1905 18.8846 52.2184 18.6046C52.2882 17.9832 52.1887 17.3543 51.9307 16.785L51.8805 16.6711C51.8621 16.634 51.8409 16.5996 51.8198 16.5652L51.6958 16.348L51.548 16.1414L51.4714 16.0407L51.387 15.9454C51.1587 15.6812 50.8917 15.4534 50.5951 15.27C50.2867 15.0802 49.9511 14.939 49.6001 14.8515C49.2372 14.7655 48.8634 14.7351 48.4915 14.7614C47.7559 14.8252 47.0593 15.1209 46.5014 15.6063C45.983 16.0593 45.607 16.6538 45.4192 17.3174C45.3385 17.6269 45.2986 17.9457 45.3005 18.2656C45.2939 18.3423 45.2939 18.4194 45.3005 18.496L45.3189 18.7238C45.348 18.8695 45.3717 19.0178 45.4087 19.1582C45.553 19.6819 45.8158 20.165 46.1767 20.57C46.475 20.9041 46.8331 21.179 47.2325 21.3805L47.4965 21.497C47.5783 21.5341 47.6654 21.5553 47.7446 21.5844C48.0949 21.6974 48.4614 21.752 48.8294 21.746H49.0537H48.9956H48.8294C48.6148 21.7543 48.3999 21.741 48.188 21.7063C48.034 21.6835 47.8822 21.648 47.734 21.6003C47.6548 21.5738 47.5677 21.5526 47.4701 21.5182L47.2061 21.4017C46.7563 21.1795 46.3579 20.8651 46.0369 20.4786C45.7159 20.0921 45.4794 19.6423 45.3427 19.1582C45.3031 19.0152 45.2793 18.8669 45.2503 18.7159C45.2503 18.6391 45.2345 18.5623 45.2292 18.4855C45.2182 18.4074 45.2138 18.3285 45.216 18.2497C45.2139 17.9235 45.2547 17.5984 45.3374 17.283C45.531 16.5789 45.9347 15.9513 46.4944 15.4844C47.054 15.0175 47.7427 14.7338 48.4678 14.6713C48.8468 14.6446 49.2277 14.6759 49.5974 14.7641C49.9551 14.8557 50.2968 15.0012 50.611 15.1958C50.9138 15.3846 51.1869 15.6176 51.4213 15.8871L51.5084 15.9851L51.5849 16.091L51.7354 16.3003L51.8621 16.5201C51.8805 16.5572 51.9043 16.5943 51.9228 16.6314L51.9729 16.7453C52.2394 17.3243 52.3434 17.9654 52.2738 18.5993C52.2436 18.884 52.1798 19.1641 52.0838 19.4337C51.9932 19.6814 51.8745 19.9178 51.7301 20.1382C51.4837 20.5201 51.1676 20.8517 50.7984 21.1156C50.5195 21.3124 50.2136 21.4676 49.8904 21.5765C49.773 21.6169 49.6531 21.6496 49.5314 21.6745C49.4446 21.6963 49.3565 21.7122 49.2675 21.7221L49.0986 21.7407L49.0458 21.7433Z" fill="#1A2E35"/>
<path d="M49.0853 18.2893C49.2513 18.2168 49.3923 18.0966 49.4904 17.9439C49.5886 17.7912 49.6396 17.6128 49.637 17.4312C49.6435 17.3129 49.6259 17.1945 49.5852 17.0832C49.5446 16.972 49.4818 16.8702 49.4007 16.7842C49.3195 16.6981 49.2217 16.6296 49.1133 16.5827C49.0048 16.5359 48.888 16.5117 48.7699 16.5117C48.6519 16.5117 48.535 16.5359 48.4266 16.5827C48.3181 16.6296 48.2204 16.6981 48.1392 16.7842C48.0581 16.8702 47.9952 16.972 47.9546 17.0832C47.914 17.1945 47.8964 17.3129 47.9029 17.4312C47.8987 17.6142 47.949 17.7943 48.0472 17.9485C48.1455 18.1028 48.2873 18.2242 48.4545 18.2973C47.119 18.4986 47.1797 19.9554 47.1797 19.9554L50.347 19.9712C50.347 19.9712 50.4103 18.4906 49.0853 18.2893Z" fill="#222744"/>
<path d="M45.3559 19.0945C45.0834 19.2071 44.8017 19.2957 44.5139 19.3594C44.2325 19.4442 43.9448 19.5062 43.6534 19.5448C43.9261 19.4326 44.2078 19.344 44.4954 19.2799C44.7768 19.195 45.0646 19.133 45.3559 19.0945Z" fill="#1A2E35"/>
</svg>
