<svg xmlns="http://www.w3.org/2000/svg" fill="none" viewBox="0 0 39 38">
  <path fill="#4E88FF" d="m38.737 30.009-6.457.219.04-29.763 6.47.07-.053 29.474Z"/>
  <path fill="#fff" d="m36.685 24.456-2.424.061.028-18.37 2.426.006-.03 18.303Z" style="mix-blend-mode:soft-light"/>
  <path fill="#222744" d="m32.28 30.228-9.448.32.023-28.298 9.463.074-.038 27.904Z"/>
  <path fill="#4E88FF" d="m32.313 5.49-9.46-.03v-.995l9.462.04-.002.985ZM32.313 7.126l-9.463-.005.003-.996 9.46.02v.981Z"/>
  <path fill="#fff" d="m32.285 26.526-9.45.27.002-.994 9.448-.255v.98ZM32.282 28.16l-9.447.29v-.99l9.45-.279-.003.98Z" opacity=".9" style="mix-blend-mode:soft-light"/>
  <path fill="" d="m22.832 30.549-6.772.23.01-30.485 6.785.072-.023 30.183Z"/>
  <path fill="#fff" d="m22.012 4.238-4.966-.023V2.092l4.968.04-.002 2.106Z" opacity=".5" style="mix-blend-mode:soft-light"/>
  <path fill="#E25A44" d="m16.07.294-3.353 1.762v28.778l3.343-.056.01-30.484Z"/>
  <path fill="#222744" d="m2.525 24.398 13.44-.587 15.487.546-15.278 3.35-13.65-3.31Z"/>
  <path fill="#4E88FF" d="M13.354 37.396 2.467 34.454C1.372 34.16.513 33.068.513 32.025c0-1.058.854-1.767 1.948-1.573l11.686 1.92-.793 5.024Z"/>
  <path fill="#fff" d="m31.472 35.189-17.592 1.97a1.732 1.732 0 0 1-1.85-.993 1.75 1.75 0 0 1-.16-.73v-.732c.02-.538.234-1.05.605-1.438.37-.39.87-.628 1.405-.67l17.592-1.405c-.78 1.454-.958 2.815 0 3.998Z"/>
  <path fill="#222744" d="m31.624 35.382-17.596 1.996c-1.438.164-2.63-.846-2.63-2.256v-.015c.027-.702.31-1.37.794-1.876a2.856 2.856 0 0 1 1.836-.875l17.596-1.379a.185.185 0 0 1 .191.2.223.223 0 0 1-.19.226l-17.597 1.438a2.306 2.306 0 0 0-1.476.71c-.39.41-.615.95-.636 1.515v.018a1.847 1.847 0 0 0 .64 1.395 1.832 1.832 0 0 0 1.472.423l17.596-1.943a.178.178 0 0 1 .191.191.23.23 0 0 1-.19.232ZM13.812 32.356l-11.345-1.93C1.372 30.242.513 28.79.513 27.205v-.023c0-1.588.854-2.847 1.948-2.804l12.037.449-.686 7.53Z"/>
  <path fill="#fff" d="m31.472 30.671-16.606 1.257a2.705 2.705 0 0 1-2.098-.685 2.723 2.723 0 0 1-.897-2.022v-1.099a3.083 3.083 0 0 1 .896-2.107 3.061 3.061 0 0 1 2.099-.901l16.606-.454c-.782 2.187-.955 4.227 0 6.011Z"/>
  <path fill="#4E88FF" d="m31.624 30.977-17.596 1.38c-1.438.111-2.63-1.515-2.63-3.63v-.016c0-2.113 1.192-3.865 2.63-3.9l17.596-.434c.107 0 .191.138.191.314s-.084.324-.19.326l-17.597.53c-1.156.033-2.112 1.443-2.112 3.143v.02c0 1.699.956 3.009 2.112 2.925l17.596-1.275c.107 0 .191.128.191.304 0 .175-.084.306-.19.313ZM10.293 30.766 7.88 30.34c-.567-1.55-.523-2.975 0-4.678l2.423.174a8.993 8.993 0 0 0-.01 4.93Z"/>
  <defs>
    <linearGradient id="a" x1="21.488" x2="10.737" y1="-7.448" y2="112.399" gradientUnits="userSpaceOnUse">
      <stop stop-color="#FFC444"/>
      <stop offset="1" stop-color="#F36F56"/>
    </linearGradient>
  </defs>
</svg>
