<svg width="43" height="37" viewBox="0 0 43 37" fill="none" xmlns="http://www.w3.org/2000/svg">
<path d="M21.2076 23.0294C21.6079 22.5094 22.3921 22.5094 22.7924 23.0294L29.4209 31.64C29.9271 32.2976 29.4583 33.25 28.6285 33.25H15.3715C14.5417 33.25 14.0729 32.2976 14.5791 31.64L21.2076 23.0294Z" fill="#1B2039"/>
<rect width="43" height="30" rx="2" fill="#222744"/>
<rect x="2" y="2" width="39" height="26" rx="2" fill="#CEE1FF"/>
<path fill-rule="evenodd" clip-rule="evenodd" d="M15.6667 15H14C13.4477 15 13 15.4477 13 16V19C13 21.2091 14.7909 23 17 23H26.3333C28.5425 23 30.3333 21.2091 30.3333 19V16C30.3333 15.4477 29.8856 15 29.3333 15H27.6667V18.3333C27.6667 19.4379 26.7712 20.3333 25.6667 20.3333H17.6667C16.5621 20.3333 15.6667 19.4379 15.6667 18.3333V15Z" fill="#378B72"/>
<rect x="19.6667" y="11" width="4" height="6" rx="1" fill="#378B72"/>
<path d="M20.9559 7.71811C21.3473 7.32271 21.9861 7.32271 22.3774 7.71811L25.1769 10.5465C25.8018 11.178 25.3545 12.25 24.4661 12.25H18.8673C17.9788 12.25 17.5316 11.178 18.1565 10.5465L20.9559 7.71811Z" fill="#378B72"/>
</svg>
