<svg width="55" height="39" viewBox="0 0 55 39" fill="none" xmlns="http://www.w3.org/2000/svg">
<circle cx="10" cy="14" r="7" fill="#6D3A3A"/>
<circle cx="5" cy="22" r="3" fill="#6D3A3A"/>
<rect x="37" y="13" width="14" height="14" fill="#222744"/>
<path d="M39.0806 19.5069C38.454 19.5069 37.9459 18.9989 37.9459 18.3723V17.4916C37.9459 16.865 38.454 16.3569 39.0806 16.3569C39.7072 16.3569 40.2153 16.865 40.2153 17.4916V18.3723C40.2153 18.9989 39.7072 19.5069 39.0806 19.5069Z" fill="#C16C6C"/>
<path d="M49.6653 19.5069C49.0387 19.5069 48.5306 18.9989 48.5306 18.3723V17.4916C48.5306 16.865 49.0387 16.3569 49.6653 16.3569C50.2919 16.3569 50.8 16.865 50.8 17.4916V18.3723C50.8 18.9989 50.2919 19.5069 49.6653 19.5069Z" fill="#C16C6C"/>
<path d="M47.1927 21.0481H41.8242V27.4497H47.1927V21.0481Z" fill="#C16C6C"/>
<path d="M44.517 24.4181C41.6549 24.4181 39.3347 22.0979 39.3347 19.2358V13.1898C39.3347 11.8519 40.4186 10.7681 41.7565 10.7681H47.2944C48.6323 10.7681 49.7162 11.8519 49.7162 13.1898V19.2358C49.6992 22.0979 47.3791 24.4181 44.517 24.4181Z" fill="#C16C6C"/>
<path d="M47.1927 23.656V24.435C46.4137 24.9092 45.4992 25.1802 44.5169 25.1802C43.5347 25.1802 42.6202 24.9092 41.8411 24.435V23.656C42.6202 24.1302 43.5347 24.4012 44.5169 24.4012C45.4823 24.4012 46.4137 24.1302 47.1927 23.656Z" fill="#773535"/>
<path d="M55 38.6612H34V30.837C34 28.483 35.9137 26.5862 38.2508 26.5862H50.7323C53.0863 26.5862 54.9831 28.4999 54.9831 30.837V38.6612H55Z" fill="#515965"/>
<path d="M47.4976 26.5691L48.7339 28.3981L44.6524 26.5691H47.4976Z" fill="white"/>
<path d="M41.8073 26.5691L40.5541 28.3981L44.6525 26.5691H41.8073Z" fill="white"/>
<path d="M44.6524 26.5691L43.0435 36.6965L44.5169 38.8981L46.2613 36.6965L44.6524 26.5691Z" fill="#161415"/>
<path d="M44.6523 27.9239L43.5007 27.0941L44.6523 26.5691L45.787 27.0772L44.6523 27.9239Z" fill="#161415"/>
<path d="M38.0645 28.3982H37.675V38.6611H38.0645V28.3982Z" fill="#9FBCEA"/>
<path d="M51.1894 28.3982H50.7999V38.6611H51.1894V28.3982Z" fill="#2E3745"/>
<path d="M37.7252 16C41.6533 16 45.9088 11.6667 47 9.5C45.3633 7.5 40.4531 7.5 38.2708 9.5C36.5249 11.1 36.8159 14.5 37.7252 16Z" fill="#222744"/>
<path d="M50.5649 17C48.208 17 45.6547 12.6667 45 10.5C45.982 8.5 49.1906 8.5 50.5 10.5C51.5475 12.1 51.1105 15.5 50.5649 17Z" fill="#222744"/>
<path d="M5.0806 19.5069C4.45399 19.5069 3.94592 18.9989 3.94592 18.3723V17.4916C3.94592 16.865 4.45399 16.3569 5.0806 16.3569C5.70721 16.3569 6.21528 16.865 6.21528 17.4916V18.3723C6.21528 18.9989 5.70721 19.5069 5.0806 19.5069Z" fill="#C16C6C"/>
<path d="M15.6653 19.5069C15.0387 19.5069 14.5306 18.9989 14.5306 18.3723V17.4916C14.5306 16.865 15.0387 16.3569 15.6653 16.3569C16.2919 16.3569 16.8 16.865 16.8 17.4916V18.3723C16.8 18.9989 16.2919 19.5069 15.6653 19.5069Z" fill="#C16C6C"/>
<path d="M13.1927 21.0481H7.82416V27.4497H13.1927V21.0481Z" fill="#C16C6C"/>
<path d="M10.517 24.4181C7.65488 24.4181 5.33472 22.0979 5.33472 19.2358V13.1898C5.33472 11.8519 6.41859 10.7681 7.75649 10.7681H13.2944C14.6323 10.7681 15.7162 11.8519 15.7162 13.1898V19.2358C15.6992 22.0979 13.3791 24.4181 10.517 24.4181Z" fill="#C16C6C"/>
<path d="M13.1927 23.656V24.435C12.4137 24.9092 11.4992 25.1802 10.5169 25.1802C9.53467 25.1802 8.62016 24.9092 7.84113 24.435V23.656C8.62016 24.1302 9.53467 24.4012 10.5169 24.4012C11.4823 24.4012 12.4137 24.1302 13.1927 23.656Z" fill="#773535"/>
<path d="M21 38.6612H0V30.837C0 28.483 1.91371 26.5862 4.25081 26.5862H16.7323C19.0863 26.5862 20.9831 28.4999 20.9831 30.837V38.6612H21Z" fill="#78ACEA"/>
<path d="M13.4976 26.5691L14.7339 28.3981L10.6524 26.5691H13.4976Z" fill="white"/>
<path d="M7.8073 26.5691L6.55408 28.3981L10.6525 26.5691H7.8073Z" fill="white"/>
<path d="M10.6524 26.5691L9.04352 36.6965L10.5169 38.8981L12.2613 36.6965L10.6524 26.5691Z" fill="#4067B6"/>
<path d="M10.6523 27.9239L9.50073 27.0941L10.6523 26.5691L11.787 27.0772L10.6523 27.9239Z" fill="#4067B6"/>
<path d="M4.0645 28.3982H3.67499V38.6611H4.0645V28.3982Z" fill="#5F96D7"/>
<path d="M17.1894 28.3982H16.7999V38.6611H17.1894V28.3982Z" fill="#2E3745"/>
<path d="M20.5322 13.9667C19.7266 13.9667 19.0734 13.3135 19.0734 12.5079V11.3756C19.0734 10.57 19.7266 9.91675 20.5322 9.91675C21.3379 9.91675 21.9911 10.57 21.9911 11.3756V12.5079C21.9911 13.3135 21.3379 13.9667 20.5322 13.9667Z" fill="#C16C6C"/>
<path d="M34.1411 13.9667C33.3355 13.9667 32.6823 13.3135 32.6823 12.5079V11.3756C32.6823 10.57 33.3355 9.91675 34.1411 9.91675C34.9468 9.91675 35.6 10.57 35.6 11.3756V12.5079C35.6 13.3135 34.9468 13.9667 34.1411 13.9667Z" fill="#C16C6C"/>
<path d="M30.9621 15.9482H24.0596V24.1789H30.9621V15.9482Z" fill="#C16C6C"/>
<path d="M27.5218 20.281C23.842 20.281 20.8589 17.2979 20.8589 13.6181V5.84467C20.8589 4.12451 22.2524 2.73096 23.9726 2.73096H31.0928C32.8129 2.73096 34.2065 4.12451 34.2065 5.84467V13.6181C34.1847 17.2979 31.2016 20.281 27.5218 20.281Z" fill="#C16C6C"/>
<path d="M30.9621 19.3013V20.3029C29.9605 20.9126 28.7847 21.2609 27.5218 21.2609C26.2589 21.2609 25.0831 20.9126 24.0815 20.3029V19.3013C25.0831 19.9109 26.2589 20.2593 27.5218 20.2593C28.7629 20.2593 29.9605 19.9109 30.9621 19.3013Z" fill="#773535"/>
<path d="M41 38.5936H14V28.5339C14 25.5073 16.4605 23.0686 19.4653 23.0686H35.5129C38.5395 23.0686 40.9782 25.5291 40.9782 28.5339V38.5936H41Z" fill="#CEE1FF"/>
<path d="M31.354 23.0466L32.9436 25.3982L27.696 23.0466H31.354Z" fill="white"/>
<path d="M24.0379 23.0466L22.4266 25.3982L27.696 23.0466H24.0379Z" fill="white"/>
<path d="M27.6959 23.0466L25.6274 36.0676L27.5217 38.8982L29.7645 36.0676L27.6959 23.0466Z" fill="#D64C5A"/>
<path d="M27.6959 24.7886L26.2152 23.7216L27.6959 23.0466L29.1547 23.6999L27.6959 24.7886Z" fill="#D64C5A"/>
<path d="M19.2258 25.3982H18.725V38.5934H19.2258V25.3982Z" fill="#9FBCEA"/>
<path d="M36.1007 25.3982H35.5999V38.5934H36.1007V25.3982Z" fill="#9FBCEA"/>
<path d="M20.1484 2.15621C18.5088 2.70273 19.9206 7.84915 20.8315 10.354L22.1979 3.52252H33.1283L33.8115 10.354C37.6372 4.34227 35.861 1.0176 34.4946 0.106742C33.1283 0.334454 29.5759 0.653247 26.2968 0.106723C23.0176 -0.439801 21.0593 1.24533 20.8315 2.1562L20.1484 2.15621Z" fill="#222744"/>
</svg>
