<svg width="33" height="55" viewBox="0 0 33 55" fill="none" xmlns="http://www.w3.org/2000/svg">
<path d="M8.35564 25.3659C7.4157 25.3659 6.65359 24.6038 6.65359 23.6639V22.3429C6.65359 21.403 7.4157 20.6409 8.35564 20.6409C9.29557 20.6409 10.0577 21.403 10.0577 22.3429V23.6639C10.0577 24.6038 9.29557 25.3659 8.35564 25.3659Z" fill="#773535"/>
<path d="M24.2329 25.3659C23.293 25.3659 22.5309 24.6038 22.5309 23.6639V22.3429C22.5309 21.403 23.293 20.6409 24.2329 20.6409C25.1728 20.6409 25.9349 21.403 25.9349 22.3429V23.6639C25.9349 24.6038 25.1728 25.3659 24.2329 25.3659Z" fill="#773535"/>
<path d="M20.524 27.6777H12.471V37.2803H20.524V27.6777Z" fill="#914343"/>
<path d="M16.5102 32.733C12.217 32.733 8.73669 29.2527 8.73669 24.9595V15.8904C8.73669 13.8835 10.3625 12.2577 12.3694 12.2577H20.6764C22.6833 12.2577 24.3091 13.8835 24.3091 15.8904V24.9595C24.2837 29.2527 20.8034 32.733 16.5102 32.733Z" fill="#914343"/>
<path d="M20.524 31.5898V32.7584C19.3554 33.4697 17.9836 33.8762 16.5102 33.8762C15.0368 33.8762 13.665 33.4697 12.4964 32.7584V31.5898C13.665 32.3011 15.0368 32.7076 16.5102 32.7076C17.9582 32.7076 19.3554 32.3011 20.524 31.5898Z" fill="#773535"/>
<path d="M32.2351 54.0974H0.734558V42.3609C0.734558 38.8298 3.60517 35.9846 7.11087 35.9846H25.8333C29.3645 35.9846 32.2097 38.8552 32.2097 42.3609V54.0974H32.2351Z" fill="#4E88FF"/>
<path d="M8.35564 21.5808C9.19744 21.5808 9.87986 20.8984 9.87986 20.0566C9.87986 19.2148 9.19744 18.5323 8.35564 18.5323C7.51384 18.5323 6.83142 19.2148 6.83142 20.0566C6.83142 20.8984 7.51384 21.5808 8.35564 21.5808Z" fill="#222744"/>
<path d="M7.77135 19.2436C8.61315 19.2436 9.29557 18.5612 9.29557 17.7194C9.29557 16.8776 8.61315 16.1952 7.77135 16.1952C6.92955 16.1952 6.24713 16.8776 6.24713 17.7194C6.24713 18.5612 6.92955 19.2436 7.77135 19.2436Z" fill="#222744"/>
<path d="M7.77135 17.2113C8.61315 17.2113 9.29557 16.5289 9.29557 15.6871C9.29557 14.8453 8.61315 14.1628 7.77135 14.1628C6.92955 14.1628 6.24713 14.8453 6.24713 15.6871C6.24713 16.5289 6.92955 17.2113 7.77135 17.2113Z" fill="#222744"/>
<path d="M8.35564 15.2807C9.19744 15.2807 9.87986 14.5983 9.87986 13.7565C9.87986 12.9147 9.19744 12.2323 8.35564 12.2323C7.51384 12.2323 6.83142 12.9147 6.83142 13.7565C6.83142 14.5983 7.51384 15.2807 8.35564 15.2807Z" fill="#222744"/>
<path d="M9.87987 13.7564C10.7217 13.7564 11.4041 13.074 11.4041 12.2322C11.4041 11.3904 10.7217 10.708 9.87987 10.708C9.03807 10.708 8.35565 11.3904 8.35565 12.2322C8.35565 13.074 9.03807 13.7564 9.87987 13.7564Z" fill="#222744"/>
<path d="M12.471 13.223C13.3128 13.223 13.9952 12.5406 13.9952 11.6988C13.9952 10.857 13.3128 10.1746 12.471 10.1746C11.6292 10.1746 10.9468 10.857 10.9468 11.6988C10.9468 12.5406 11.6292 13.223 12.471 13.223Z" fill="#222744"/>
<path d="M14.986 13.223C15.8278 13.223 16.5102 12.5406 16.5102 11.6988C16.5102 10.857 15.8278 10.1746 14.986 10.1746C14.1442 10.1746 13.4618 10.857 13.4618 11.6988C13.4618 12.5406 14.1442 13.223 14.986 13.223Z" fill="#222744"/>
<path d="M17.2977 13.223C18.1395 13.223 18.8219 12.5406 18.8219 11.6988C18.8219 10.857 18.1395 10.1746 17.2977 10.1746C16.4559 10.1746 15.7735 10.857 15.7735 11.6988C15.7735 12.5406 16.4559 13.223 17.2977 13.223Z" fill="#222744"/>
<path d="M19.7619 13.223C20.6037 13.223 21.2861 12.5406 21.2861 11.6988C21.2861 10.857 20.6037 10.1746 19.7619 10.1746C18.9201 10.1746 18.2376 10.857 18.2376 11.6988C18.2376 12.5406 18.9201 13.223 19.7619 13.223Z" fill="#222744"/>
<path d="M22.0482 13.7564C22.89 13.7564 23.5724 13.074 23.5724 12.2322C23.5724 11.3904 22.89 10.708 22.0482 10.708C21.2064 10.708 20.524 11.3904 20.524 12.2322C20.524 13.074 21.2064 13.7564 22.0482 13.7564Z" fill="#222744"/>
<path d="M23.9789 15.2807C24.8207 15.2807 25.5031 14.5983 25.5031 13.7565C25.5031 12.9147 24.8207 12.2323 23.9789 12.2323C23.1371 12.2323 22.4547 12.9147 22.4547 13.7565C22.4547 14.5983 23.1371 15.2807 23.9789 15.2807Z" fill="#222744"/>
<path d="M24.2837 17.2113C25.1255 17.2113 25.8079 16.5289 25.8079 15.6871C25.8079 14.8453 25.1255 14.1628 24.2837 14.1628C23.4419 14.1628 22.7595 14.8453 22.7595 15.6871C22.7595 16.5289 23.4419 17.2113 24.2837 17.2113Z" fill="#222744"/>
<path d="M24.2837 19.2436C25.1255 19.2436 25.8079 18.5612 25.8079 17.7194C25.8079 16.8776 25.1255 16.1952 24.2837 16.1952C23.4419 16.1952 22.7595 16.8776 22.7595 17.7194C22.7595 18.5612 23.4419 19.2436 24.2837 19.2436Z" fill="#222744"/>
<path d="M23.9789 21.0472C24.8207 21.0472 25.5031 20.3648 25.5031 19.523C25.5031 18.6812 24.8207 17.9988 23.9789 17.9988C23.1371 17.9988 22.4547 18.6812 22.4547 19.523C22.4547 20.3648 23.1371 21.0472 23.9789 21.0472Z" fill="#222744"/>
<path d="M23.1406 16.1952C23.9824 16.1952 24.6648 15.5127 24.6648 14.6709C24.6648 13.8291 23.9824 13.1467 23.1406 13.1467C22.2987 13.1467 21.6163 13.8291 21.6163 14.6709C21.6163 15.5127 22.2987 16.1952 23.1406 16.1952Z" fill="#222744"/>
<path d="M20.651 15.2807C21.4928 15.2807 22.1752 14.5983 22.1752 13.7565C22.1752 12.9147 21.4928 12.2323 20.651 12.2323C19.8092 12.2323 19.1268 12.9147 19.1268 13.7565C19.1268 14.5983 19.8092 15.2807 20.651 15.2807Z" fill="#222744"/>
<path d="M18.8219 15.2807C19.6637 15.2807 20.3462 14.5983 20.3462 13.7565C20.3462 12.9147 19.6637 12.2323 18.8219 12.2323C17.9801 12.2323 17.2977 12.9147 17.2977 13.7565C17.2977 14.5983 17.9801 15.2807 18.8219 15.2807Z" fill="#222744"/>
<path d="M16.2053 15.2807C17.0892 15.2807 17.8058 14.5642 17.8058 13.6803C17.8058 12.7964 17.0892 12.0798 16.2053 12.0798C15.3215 12.0798 14.6049 12.7964 14.6049 13.6803C14.6049 14.5642 15.3215 15.2807 16.2053 15.2807Z" fill="#222744"/>
<path d="M13.4618 15.2807C14.3036 15.2807 14.986 14.5983 14.986 13.7565C14.986 12.9147 14.3036 12.2323 13.4618 12.2323C12.62 12.2323 11.9376 12.9147 11.9376 13.7565C11.9376 14.5983 12.62 15.2807 13.4618 15.2807Z" fill="#222744"/>
<path d="M10.8198 15.6871C11.6616 15.6871 12.344 15.0047 12.344 14.1629C12.344 13.3211 11.6616 12.6387 10.8198 12.6387C9.97798 12.6387 9.29556 13.3211 9.29556 14.1629C9.29556 15.0047 9.97798 15.6871 10.8198 15.6871Z" fill="#222744"/>
<path d="M9.29558 16.1952C10.1374 16.1952 10.8198 15.5127 10.8198 14.6709C10.8198 13.8291 10.1374 13.1467 9.29558 13.1467C8.45378 13.1467 7.77136 13.8291 7.77136 14.6709C7.77136 15.5127 8.45378 16.1952 9.29558 16.1952Z" fill="#222744"/>
<path d="M20.9813 35.9592L22.8357 38.7028L16.7134 35.9592H20.9813Z" fill="white"/>
<path d="M12.4456 35.9592L10.5658 38.7028L16.7134 35.9592H12.4456Z" fill="white"/>
<path d="M16.7134 35.9592L14.3001 51.1506L16.5102 54.4531L19.1268 51.1506L16.7134 35.9592Z" fill="#222744"/>
<path d="M16.7134 37.9915L14.986 36.7467L16.7134 35.9592L18.4155 36.7213L16.7134 37.9915Z" fill="#222744"/>
<path d="M6.83142 38.7028H6.24713V54.0974H6.83142V38.7028Z" fill="#3D7CEA"/>
<path d="M26.5192 38.7028H25.9349V54.0974H26.5192V38.7028Z" fill="#3D7CEA"/>
<path d="M24.4362 4.61108H8.53348V13.4007H24.4362V4.61108Z" fill="#4E88FF"/>
<path d="M3.07169 4.89066L17.1707 0.292603L30.3552 5.06849L17.1961 10.6319L3.07169 4.89066Z" fill="#4E88FF"/>
<path d="M24.4616 7.55796V8.65032L17.1961 11.6988L8.53348 8.19305V7.1261L17.1961 10.6318L24.4616 7.55796Z" fill="#3D7CEA"/>
</svg>
