<svg width="39" height="38" viewBox="0 0 39 38" fill="none" xmlns="http://www.w3.org/2000/svg">
<path d="M38.7374 30.0085L32.2798 30.2278L32.3205 0.465332L38.7907 0.534163L38.7374 30.0085Z" fill="#4E88FF"/>
<g style="mix-blend-mode:soft-light">
<path d="M36.6848 24.4563L34.2614 24.5175L34.2893 6.14758L36.7153 6.15268L36.6848 24.4563Z" fill="white"/>
</g>
<path d="M32.2798 30.2277L22.8323 30.5489L22.8552 2.24976L32.318 2.32368L32.2798 30.2277Z" fill="#222744"/>
<path d="M32.3129 5.48989L22.8527 5.4593V4.46509L32.3154 4.50588L32.3129 5.48989Z" fill="#4E88FF"/>
<path d="M32.3128 7.12649L22.8501 7.12139L22.8526 6.12463L32.3128 6.14503V7.12649Z" fill="#4E88FF"/>
<g style="mix-blend-mode:soft-light" opacity="0.9">
<path d="M32.2849 26.5263L22.8349 26.7965L22.8374 25.8023L32.2849 25.5474V26.5263Z" fill="white"/>
</g>
<g style="mix-blend-mode:soft-light" opacity="0.9">
<path d="M32.2824 28.1603L22.8349 28.4509V27.4593L32.2849 27.1814L32.2824 28.1603Z" fill="white"/>
</g>
<path d="M22.8323 30.5489L16.0598 30.7783L16.07 0.294434L22.8552 0.365812L22.8323 30.5489Z" fill="url(#paint0_linear_37_1102)"/>
<g style="mix-blend-mode:soft-light" opacity="0.5">
<path d="M22.0118 4.23826L17.0455 4.21532V2.0918L22.0144 2.13258L22.0118 4.23826Z" fill="white"/>
</g>
<path d="M16.07 0.294434L12.7168 2.05596V30.8344L16.0599 30.7783L16.07 0.294434Z" fill="#E25A44"/>
<path d="M2.5249 24.3976L15.9658 23.8113L31.4517 24.3568L16.1741 27.7065L2.5249 24.3976Z" fill="#222744"/>
<path d="M13.3544 37.3962L2.46652 34.4544C1.37163 34.1587 0.513 33.0676 0.513 32.025C0.513 30.967 1.36655 30.2583 2.46143 30.4521L14.147 32.3717L13.3544 37.3962Z" fill="#4E88FF"/>
<path d="M31.472 35.1886L13.8803 37.1592C13.6321 37.1986 13.3783 37.1836 13.1365 37.1151C12.8947 37.0466 12.6706 36.9263 12.4796 36.7625C12.2885 36.5987 12.1352 36.3953 12.0301 36.1662C11.925 35.9372 11.8707 35.688 11.8708 35.4359V34.7043C11.8892 34.1665 12.1041 33.6543 12.4748 33.2655C12.8454 32.8766 13.3457 32.6383 13.8803 32.596L31.472 31.1914C30.6922 32.6445 30.5143 34.0058 31.472 35.1886Z" fill="white"/>
<path d="M31.6244 35.3823L14.0276 37.3784C12.5897 37.5416 11.3983 36.5321 11.3983 35.1223V35.107C11.4253 34.4051 11.7078 33.7375 12.1923 33.2306C12.6769 32.7237 13.3298 32.4126 14.0276 32.3564L31.6244 30.9773C31.6503 30.9765 31.6761 30.9812 31.7001 30.991C31.724 31.0008 31.7457 31.0156 31.7636 31.0343C31.7816 31.053 31.7954 31.0753 31.8043 31.0997C31.8131 31.1242 31.8167 31.1502 31.815 31.1761C31.8167 31.2308 31.7982 31.2843 31.7631 31.3262C31.7279 31.3681 31.6785 31.3955 31.6244 31.403L14.0276 32.8408C13.4655 32.889 12.9406 33.1419 12.5516 33.5519C12.1627 33.9619 11.9368 34.5006 11.9165 35.0662V35.0841C11.9168 35.3491 11.9741 35.611 12.0845 35.8518C12.195 36.0925 12.3559 36.3065 12.5563 36.4791C12.7568 36.6517 12.992 36.7788 13.2459 36.8517C13.4999 36.9247 13.7665 36.9417 14.0276 36.9017L31.6244 34.9592C31.6499 34.9573 31.6756 34.9609 31.6995 34.9698C31.7235 34.9788 31.7453 34.9928 31.7634 35.0109C31.7815 35.0291 31.7954 35.0509 31.8043 35.075C31.8132 35.0991 31.8169 35.1248 31.815 35.1504C31.8163 35.2056 31.7978 35.2594 31.7628 35.302C31.7278 35.3446 31.6787 35.3732 31.6244 35.3823V35.3823Z" fill="#222744"/>
<path d="M13.8116 32.3564L2.46652 30.4267C1.37163 30.2406 0.513 28.7901 0.513 27.2044V27.1815C0.513 25.5933 1.36655 24.334 2.46143 24.3773L14.4975 24.826L13.8116 32.3564Z" fill="#222744"/>
<path d="M31.472 30.6713L14.8659 31.9281C14.4879 31.9677 14.1059 31.9272 13.7445 31.8092C13.3831 31.6912 13.0505 31.4984 12.7681 31.2431C12.4858 30.9879 12.26 30.676 12.1054 30.3276C11.9508 29.9792 11.8709 29.6021 11.8708 29.2208V28.122C11.8883 27.3302 12.2094 26.5756 12.7672 26.0152C13.3251 25.4549 14.0768 25.1321 14.8659 25.1139L31.472 24.6602C30.6896 26.8474 30.5169 28.8868 31.472 30.6713Z" fill="white"/>
<path d="M31.6244 30.9772L14.0276 32.3563C12.5897 32.4685 11.3983 30.8421 11.3983 28.7262V28.7109C11.3983 26.5976 12.5897 24.8463 14.0276 24.8106L31.6244 24.3772C31.7311 24.3772 31.815 24.5149 31.815 24.6908C31.815 24.8667 31.7311 25.0145 31.6244 25.0171L14.0276 25.5473C12.8717 25.5804 11.9165 26.9902 11.9165 28.6905V28.7109C11.9165 30.4087 12.8717 31.719 14.0276 31.6349L31.6244 30.3603C31.7311 30.3603 31.815 30.4877 31.815 30.6636C31.815 30.8395 31.7311 30.9696 31.6244 30.9772Z" fill="#4E88FF"/>
<path d="M10.2933 30.7657L7.87997 30.34C7.31347 28.79 7.35666 27.365 7.87997 25.6621L10.3034 25.8355C9.84086 27.4456 9.83734 29.1536 10.2933 30.7657V30.7657Z" fill="#4E88FF"/>
<defs>
<linearGradient id="paint0_linear_37_1102" x1="21.4885" y1="-7.44763" x2="10.737" y2="112.399" gradientUnits="userSpaceOnUse">
<stop stop-color="#FFC444"/>
<stop offset="1" stop-color="#F36F56"/>
</linearGradient>
</defs>
</svg>
