<svg width="50" height="37" viewBox="0 0 50 37" fill="none" xmlns="http://www.w3.org/2000/svg">
<path d="M3.3717 34.2573C3.37236 34.4478 3.44707 34.6303 3.57952 34.7649C3.71198 34.8996 3.89144 34.9756 4.07877 34.9762H42.238C42.4253 34.9756 42.6048 34.8996 42.7372 34.7649C42.8697 34.6303 42.9444 34.4478 42.945 34.2573L43.261 11.9616C43.2256 11.6439 43.0717 11.352 42.831 11.1462C42.5903 10.9404 42.2811 10.8363 41.9672 10.8553L4.67301 9.86614C4.43195 9.8595 4.19208 9.90279 3.96799 9.99338C3.74391 10.084 3.5403 10.22 3.36955 10.3931C3.19879 10.5662 3.06447 10.7729 2.97475 11.0005C2.88503 11.228 2.84179 11.4718 2.84766 11.7169L3.3717 34.2573Z" fill="#222744"/>
<path d="M4.06874 33.5742C4.0694 33.7538 4.13988 33.9259 4.26481 34.0529C4.38975 34.18 4.55901 34.2516 4.73569 34.2523H41.3178C41.4945 34.2516 41.6637 34.18 41.7887 34.0529C41.9136 33.9259 41.9841 33.7538 41.9847 33.5742L42.2856 13.3332C42.2805 13.1102 42.2316 12.8905 42.1418 12.6871C42.0519 12.4836 41.9229 12.3005 41.7624 12.1485C41.6019 11.9964 41.4131 11.8786 41.2071 11.8019C41.0012 11.7251 40.7822 11.6911 40.5631 11.7017L4.81843 10.7253C4.64936 10.7215 4.48128 10.7525 4.3243 10.8164C4.16732 10.8804 4.02468 10.976 3.90499 11.0974C3.78529 11.2189 3.691 11.3637 3.62779 11.5232C3.56458 11.6827 3.53376 11.8535 3.53718 12.0254L4.06874 33.5742Z" fill="#BDD5FF"/>
<path d="M1.08751 36.827L44.452 36.827C44.9006 36.827 45.2643 36.4572 45.2643 36.0011V35.6952C45.2643 35.239 44.9006 34.8692 44.452 34.8692L1.08751 34.8692C0.638851 34.8692 0.275139 35.239 0.275139 35.6952V36.0011C0.275139 36.4572 0.638851 36.827 1.08751 36.827Z" fill="#222744"/>
<path d="M33.4147 0.306572L10.7734 0.179109C10.5971 0.177859 10.4224 0.213174 10.2601 0.282894C10.0977 0.352614 9.95097 0.455275 9.82894 0.5846C9.7069 0.713925 9.61209 0.867197 9.5503 1.03505C9.48851 1.20289 9.46104 1.38179 9.46957 1.5608L11.0266 34.2702H36.2254L37.6245 5.02268L33.4147 0.306572Z" fill="white"/>
<path d="M34.3574 4.89261C34.182 4.88728 34.0095 4.84581 33.8504 4.7707C33.6912 4.69559 33.5487 4.5884 33.4315 4.45564C33.3143 4.32288 33.2248 4.1673 33.1684 3.99834C33.1121 3.82938 33.0901 3.65054 33.1038 3.47268L33.3545 0.349854L37.617 5.01497L34.3574 4.89261Z" fill="#AAAAAA"/>
<path opacity="0.78" d="M21.417 6.55217C23.4505 6.55217 31.2533 6.52413 33.2241 6.51648C33.2874 6.52156 33.349 6.53949 33.4053 6.56923C33.4616 6.59896 33.5114 6.63988 33.5519 6.68957C33.5923 6.73926 33.6226 6.7967 33.6408 6.85849C33.659 6.92028 33.6648 6.98515 33.6579 7.04927V7.04927C33.6642 7.17554 33.6219 7.29935 33.54 7.3945C33.4581 7.48966 33.343 7.54869 33.2191 7.55912L21.417 7.66109C21.2995 7.65459 21.1889 7.60266 21.1078 7.51594C21.0267 7.42921 20.9812 7.31425 20.9808 7.19458V7.1283C20.9716 7.06126 20.9757 6.99304 20.9928 6.92762C21.0098 6.86221 21.0395 6.80089 21.0801 6.74727C21.1207 6.69364 21.1714 6.64877 21.2293 6.61528C21.2871 6.58178 21.351 6.56033 21.417 6.55217V6.55217Z" fill="#DBDBDB"/>
<path opacity="0.78" d="M21.3243 8.84648C23.3577 8.84648 31.1606 8.81844 33.1313 8.81079C33.1946 8.81622 33.2561 8.83437 33.3123 8.86418C33.3686 8.89399 33.4185 8.93486 33.4591 8.98443C33.4996 9.034 33.5301 9.09128 33.5488 9.15293C33.5674 9.21459 33.5738 9.27939 33.5676 9.34358V9.34358C33.5726 9.46994 33.5295 9.5934 33.4474 9.68834C33.3652 9.78327 33.2502 9.8424 33.1263 9.85343L21.3243 9.9554C21.2067 9.9489 21.0961 9.89697 21.015 9.81025C20.9339 9.72352 20.8885 9.60856 20.888 9.48889V9.42261C20.8788 9.35557 20.8829 9.28736 20.9 9.22194C20.9171 9.15652 20.9468 9.09521 20.9874 9.04158C21.028 8.98795 21.0787 8.94308 21.1365 8.90959C21.1944 8.87609 21.2582 8.85464 21.3243 8.84648V8.84648Z" fill="#DBDBDB"/>
<path opacity="0.78" d="M14.2761 12.1146H32.5095C32.8931 12.1146 33.204 12.3568 33.1965 12.65C33.1965 12.9278 32.8956 13.1471 32.5321 13.1598L14.3062 13.2312C14.156 13.246 14.0054 13.2073 13.8801 13.1217C13.7548 13.0362 13.6626 12.9091 13.6192 12.7621V12.6959C13.564 12.3772 13.8724 12.1121 14.2761 12.1146Z" fill="#DBDBDB"/>
<path opacity="0.78" d="M14.1307 14.5211C16.5729 14.5211 25.9553 14.4573 28.3223 14.442C28.3918 14.4403 28.461 14.4528 28.5257 14.4787C28.5904 14.5046 28.6494 14.5434 28.6992 14.5928C28.7489 14.6422 28.7885 14.7012 28.8155 14.7664C28.8424 14.8316 28.8563 14.9016 28.8563 14.9723V14.9723C28.8511 15.1098 28.7935 15.2399 28.6957 15.335C28.598 15.4302 28.4676 15.4829 28.3323 15.4822L14.1483 15.6275C14.0187 15.6305 13.8925 15.5849 13.794 15.4993C13.6955 15.4137 13.6314 15.2941 13.6142 15.1635V15.0972C13.6068 15.024 13.6146 14.95 13.6373 14.8801C13.6599 14.8102 13.6969 14.746 13.7456 14.6916C13.7944 14.6372 13.8539 14.5939 13.9202 14.5645C13.9866 14.5351 14.0583 14.5203 14.1307 14.5211V14.5211Z" fill="#DBDBDB"/>
<path opacity="0.78" d="M14.2435 17.6746C17.3827 17.6746 29.4355 17.6746 32.4769 17.6746C32.8605 17.6746 33.174 17.9142 33.1664 18.2074C33.1664 18.4852 32.8656 18.7172 32.4995 18.7172L14.2761 18.7886C14.1262 18.804 13.9756 18.7658 13.8503 18.6807C13.7249 18.5956 13.6326 18.4688 13.5891 18.3221V18.2532C13.534 17.9371 13.8323 17.6746 14.2435 17.6746Z" fill="#DBDBDB"/>
<path opacity="0.78" d="M13.9702 20.1219C16.4274 20.1219 25.85 20.1219 28.232 20.1219C28.3016 20.1209 28.3708 20.134 28.4354 20.1605C28.5 20.1869 28.5588 20.2263 28.6083 20.2761C28.6578 20.3259 28.697 20.3853 28.7237 20.4508C28.7503 20.5162 28.7639 20.5864 28.7635 20.6572V20.6572C28.7583 20.7956 28.7 20.9264 28.6012 21.0217C28.5023 21.117 28.3707 21.1692 28.2345 21.1671L13.9828 21.2232C13.8529 21.2266 13.7265 21.1808 13.6282 21.0945C13.5299 21.0082 13.4668 20.8877 13.4512 20.7566V20.6878C13.4453 20.6152 13.4543 20.5421 13.4778 20.4733C13.5013 20.4044 13.5386 20.3413 13.5875 20.288C13.6364 20.2347 13.6957 20.1924 13.7616 20.1638C13.8275 20.1352 13.8986 20.1209 13.9702 20.1219Z" fill="#DBDBDB"/>
<path opacity="0.78" d="M14.0831 23.3491H32.3164C32.7001 23.3491 33.011 23.5913 33.0035 23.8845C33.0035 24.1624 32.7026 24.3816 32.3365 24.3943L14.1131 24.4657C13.9628 24.481 13.812 24.4425 13.6866 24.3569C13.5612 24.2712 13.4691 24.1439 13.4261 23.9967V23.9304C13.3785 23.6117 13.6869 23.3466 14.0831 23.3491Z" fill="#DBDBDB"/>
<path opacity="0.78" d="M13.9 25.7658C16.3547 25.7658 25.7798 25.7658 28.1593 25.7658C28.2291 25.7641 28.2986 25.7767 28.3635 25.8029C28.4284 25.8291 28.4875 25.8684 28.5371 25.9184C28.5868 25.9684 28.626 26.0281 28.6524 26.0938C28.6788 26.1596 28.6919 26.2301 28.6908 26.3011V26.3011C28.6869 26.4395 28.6294 26.5707 28.5308 26.6662C28.4321 26.7617 28.3004 26.8137 28.1643 26.811L13.9101 26.8671C13.7804 26.87 13.6543 26.8239 13.5561 26.7377C13.4579 26.6515 13.3946 26.5314 13.3785 26.4005V26.3343C13.3729 26.2614 13.3823 26.1882 13.4061 26.1192C13.4298 26.0502 13.4674 25.987 13.5164 25.9335C13.5655 25.8801 13.6249 25.8376 13.6909 25.8087C13.7569 25.7798 13.8282 25.7652 13.9 25.7658V25.7658Z" fill="#DBDBDB"/>
<path opacity="0.78" d="M14.2761 28.955C17.4153 28.955 29.4656 28.955 32.5095 28.955C32.8931 28.955 33.204 29.1971 33.1965 29.4903C33.1965 29.7682 32.8956 29.9874 32.5321 30.0001L14.3062 30.0715C14.156 30.0863 14.0054 30.0476 13.8801 29.962C13.7548 29.8765 13.6626 29.7494 13.6192 29.6025V29.5362C13.564 29.2201 13.8724 28.955 14.2761 28.955Z" fill="#DBDBDB"/>
<path opacity="0.78" d="M14.0981 31.6368C16.5227 31.6368 25.8274 31.6241 28.1768 31.6215C28.246 31.6205 28.3147 31.6336 28.3789 31.6599C28.4431 31.6863 28.5014 31.7255 28.5505 31.7751C28.5995 31.8248 28.6383 31.8839 28.6646 31.949C28.6908 32.0141 28.704 32.0839 28.7033 32.1543V32.1543C28.6994 32.2918 28.6426 32.4223 28.5451 32.5176C28.4475 32.6129 28.3171 32.6656 28.1818 32.6642L14.1106 32.7457C13.9817 32.748 13.8565 32.7015 13.7592 32.6153C13.662 32.5292 13.5996 32.4094 13.5841 32.2792V32.2129C13.5746 32.1396 13.5809 32.065 13.6026 31.9943C13.6243 31.9237 13.6609 31.8587 13.7098 31.8038C13.7588 31.749 13.8188 31.7057 13.8859 31.6768C13.9529 31.648 14.0253 31.6343 14.0981 31.6368Z" fill="#DBDBDB"/>
<path d="M16.5327 5.09393L15.2565 9.86613H14.913L12.6564 4.00286C12.6085 3.80669 12.4973 3.63253 12.3405 3.5083C12.0565 3.42853 11.7624 3.39244 11.4679 3.40123V3.31201L14.9782 3.43947V3.5287C14.6912 3.50777 14.4028 3.51889 14.1182 3.56184C13.951 3.60093 13.8674 3.6859 13.8674 3.81676C13.8698 3.90507 13.8903 3.99189 13.9276 4.07169L15.5248 8.2754L16.4475 4.86705L16.2344 4.15581C16.2001 3.96052 16.0944 3.78565 15.9385 3.66636C15.649 3.58396 15.3489 3.54615 15.0484 3.55419V3.44202L18.491 3.56949V3.65871C18.2115 3.63648 17.9304 3.6476 17.6535 3.69185C17.4955 3.72754 17.4178 3.81421 17.4178 3.94677C17.4192 4.02077 17.4328 4.09401 17.4579 4.16346L18.7492 8.33658L19.8499 5.31827C19.9471 5.07453 20.0039 4.8161 20.0179 4.5535C20.0179 4.00031 19.6218 3.70715 18.832 3.6791V3.59243L21.3694 3.6842V3.77087C21.15 3.75937 20.9325 3.81845 20.748 3.93972C20.5635 4.06098 20.4212 4.23828 20.3414 4.44643C20.3088 4.5178 20.1884 4.83136 19.9778 5.38965L18.3455 9.92221H18.0171L16.5327 5.09393Z" fill="#DBDBDB"/>
<path d="M47.9547 15.0437L33.7431 18.7172L34.2646 20.8458L48.5565 17.2922C48.7033 17.2554 48.8327 17.1673 48.922 17.0434C49.0114 16.9194 49.0551 16.7675 49.0454 16.6141C48.9996 16.1343 48.832 15.6749 48.559 15.2808C48.4954 15.1819 48.4029 15.1057 48.2945 15.0632C48.186 15.0206 48.0672 15.0138 47.9547 15.0437Z" fill="#222744"/>
<path d="M29.8993 20.6928L31.6144 19.8108C31.809 20.1244 31.897 20.4943 31.8651 20.8636L29.957 20.8764C29.934 20.8812 29.9099 20.8773 29.8896 20.8652C29.8693 20.8531 29.8541 20.8338 29.8469 20.811C29.8397 20.7882 29.8411 20.7635 29.8508 20.7417C29.8605 20.7199 29.8778 20.7025 29.8993 20.6928V20.6928Z" fill="#222744"/>
<path d="M33.7431 18.7173C33.9715 19.0154 34.1359 19.3588 34.2257 19.7254C34.3155 20.0921 34.3288 20.4738 34.2647 20.8459L31.8526 20.8638C31.8845 20.4944 31.7964 20.1245 31.6019 19.8109L33.7431 18.7173Z" fill="url(#paint0_linear_37_1100)"/>
<path d="M48.1578 15.6683C48.1653 15.6636 48.171 15.6566 48.1742 15.6483C48.1774 15.6401 48.1778 15.631 48.1754 15.6224C48.174 15.6172 48.1715 15.6123 48.1682 15.6081C48.1649 15.6038 48.1608 15.6003 48.1561 15.5977C48.1514 15.5951 48.1463 15.5935 48.141 15.5929C48.1357 15.5923 48.1303 15.5928 48.1252 15.5944L34.5455 19.1302C34.535 19.1332 34.5261 19.1401 34.5205 19.1496C34.5149 19.1591 34.5131 19.1704 34.5154 19.1812C34.5166 19.1866 34.5188 19.1917 34.522 19.1963C34.5252 19.2008 34.5293 19.2046 34.534 19.2075C34.5387 19.2103 34.5439 19.2122 34.5493 19.2129C34.5547 19.2137 34.5603 19.2133 34.5655 19.2117L48.1453 15.6734L48.1578 15.6683Z" fill="url(#paint1_linear_37_1100)"/>
<path d="M48.4135 16.4688C48.4203 16.4642 48.4255 16.4575 48.4282 16.4497C48.4309 16.4419 48.431 16.4334 48.4286 16.4254C48.4274 16.42 48.4252 16.4149 48.422 16.4103C48.4188 16.4058 48.4147 16.402 48.41 16.3991C48.4053 16.3963 48.4001 16.3944 48.3947 16.3937C48.3892 16.3929 48.3837 16.3933 48.3784 16.3949L34.7987 19.9332C34.7934 19.9343 34.7883 19.9366 34.784 19.9399C34.7796 19.9432 34.776 19.9474 34.7733 19.9522C34.7707 19.9571 34.7692 19.9624 34.7688 19.968C34.7684 19.9735 34.7692 19.979 34.7711 19.9842C34.774 19.9942 34.7806 20.0026 34.7895 20.0078C34.7983 20.013 34.8088 20.0146 34.8188 20.0122L48.401 16.4764L48.4135 16.4688Z" fill="url(#paint2_linear_37_1100)"/>
<defs>
<linearGradient id="paint0_linear_37_1100" x1="29.4713" y1="15.6905" x2="43.227" y2="18.5109" gradientUnits="userSpaceOnUse">
<stop stop-color="#FF928E"/>
<stop offset="1" stop-color="#FE7062"/>
</linearGradient>
<linearGradient id="paint1_linear_37_1100" x1="34.5823" y1="12.5446" x2="46.9963" y2="15.0891" gradientUnits="userSpaceOnUse">
<stop stop-color="#4F52FF"/>
<stop offset="1" stop-color="#4042E2"/>
</linearGradient>
<linearGradient id="paint2_linear_37_1100" x1="-58318.5" y1="599.287" x2="-58380.1" y2="838.209" gradientUnits="userSpaceOnUse">
<stop stop-color="#4F52FF"/>
<stop offset="1" stop-color="#4042E2"/>
</linearGradient>
</defs>
</svg>
