<svg width="39" height="44" viewBox="0 0 39 44" fill="none" xmlns="http://www.w3.org/2000/svg">
<path d="M13.9735 38.228C13.9735 38.228 13.8338 33.2264 13.7957 31.8804C13.7627 30.6618 14.2199 28.857 12.3934 26.4097C12.3934 26.4097 10.8082 24.8419 10.2418 24.3703C9.67526 23.8987 8.65913 22.1856 8.65913 22.1856C8.65913 22.1856 8.31364 21.3112 6.94694 20.0493C6.94694 20.0493 5.32621 18.8384 5.46847 20.5311C5.46847 20.5311 5.35669 21.3189 7.12223 23.0804C7.29243 23.2486 8.10025 24.2403 8.10279 24.6099C8.12058 26.2873 7.2594 25.5226 7.2594 25.5226C7.2594 25.5226 7.04094 25.2855 5.66662 24.5029C5.35416 24.327 4.59714 22.438 3.33205 21.5865C3.33205 21.5865 3.20503 19.5114 2.48866 18.8945C2.48866 18.8945 3.12628 16.3937 1.23882 16.2458C1.19852 16.9243 1.12135 17.6 1.00765 18.27C0.857767 18.7416 1.46237 21.7675 1.46237 21.7675C1.46237 21.7675 3.266 25.1325 3.41334 25.803C3.56018 26.2906 3.77666 26.7543 4.05604 27.1796L9.5457 34.0625C9.54208 36.0825 9.31632 38.0958 8.87251 40.066L13.9735 38.228Z" fill="#EDC4AE"/>
<path d="M14.8397 43.1709L13.9735 35.4365H11.6364L10.9352 43.1709H14.8397Z" fill="#222744"/>
<path d="M11.6364 35.4365H9.30941L7.13489 43.1709H10.9352L11.6364 35.4365Z" fill="#222744"/>
<path d="M7.031 21.4223C7.30238 21.2083 7.23355 20.666 6.87728 20.211C6.521 19.756 6.01219 19.5606 5.74082 19.7746C5.46944 19.9886 5.53827 20.5309 5.89454 20.9859C6.25082 21.4409 6.75963 21.6363 7.031 21.4223Z" fill="#4E88FF"/>
<path d="M25.7352 38.228C25.7352 38.228 25.8749 33.2264 25.9131 31.8804C25.9461 30.6618 25.4888 28.857 27.3153 26.4097C27.3153 26.4097 28.903 24.8419 29.467 24.3703C30.0309 23.8987 31.0496 22.1856 31.0496 22.1856C31.0496 22.1856 31.3976 21.3112 32.7643 20.0493C32.7643 20.0493 34.3825 18.8384 34.2402 20.5311C34.2402 20.5311 34.3546 21.3189 32.5865 23.0804C32.4188 23.2486 31.611 24.2403 31.6059 24.6099C31.5907 26.2873 32.4493 25.5226 32.4493 25.5226C32.4493 25.5226 32.6678 25.2855 34.0421 24.5029C34.3546 24.327 35.1141 22.438 36.3767 21.5865C36.3767 21.5865 36.5062 19.5114 37.2201 18.8945C37.2201 18.8945 36.5824 16.3937 38.4724 16.2458C38.5115 16.9244 38.5886 17.6002 38.7036 18.27C38.8535 18.7416 38.2463 21.7675 38.2463 21.7675C38.2463 21.7675 36.4453 25.1325 36.2979 25.803C36.1511 26.2906 35.9346 26.7543 35.6552 27.1796L30.1656 34.0625C30.1692 36.0825 30.3949 38.0958 30.8387 40.066L25.7352 38.228Z" fill="#EDC4AE"/>
<path d="M25.217 43.1709L25.5802 35.4365H28.0748L28.8319 43.1709H25.217Z" fill="#222744"/>
<path d="M28.0748 35.4365H30.351L32.6296 43.1709H28.8319L28.0748 35.4365Z" fill="#222744"/>
<path d="M33.8117 20.9803C34.1679 20.5253 34.2368 19.983 33.9654 19.769C33.694 19.555 33.1852 19.7504 32.8289 20.2053C32.4727 20.6603 32.4038 21.2027 32.6752 21.4166C32.9466 21.6306 33.4554 21.4353 33.8117 20.9803Z" fill="#4E88FF"/>
<path d="M8.10023 13.0848C9.41358 12.8962 10.1173 12.552 10.1909 12.0651C10.3916 10.6911 11.3036 5.28921 11.3138 5.23568H12.0759L12.5331 15.4709L12.5661 15.2772C12.689 14.6972 12.852 14.1264 13.0539 13.5692C13.2161 13.1226 13.4265 12.6952 13.6813 12.2945C13.9091 11.9007 14.26 11.5933 14.6797 11.4202L15.2894 11.1984V13.0721C15.4272 13.2535 15.6031 13.4024 15.8046 13.5081C16.0061 13.6138 16.2282 13.6738 16.4554 13.6839C17.436 13.7298 20.746 13.638 20.7739 13.6354H20.8273C21.4016 13.6471 21.969 13.5083 22.4734 13.2327L23.3448 12.5775L23.6826 12.7254H23.708L24.5336 5.54669H25.278V15.3027L25.532 14.283C25.6893 13.8356 25.8804 13.401 26.1036 12.9828C26.5989 12.0473 27.1603 11.4202 27.7649 11.1168L28.2197 10.8925L29.1875 12.4067C29.3946 12.7257 29.6712 12.9934 29.9964 13.1895C30.3216 13.3855 30.6869 13.5049 31.0648 13.5386H33.0615C34.1441 11.7278 34.5167 9.57763 34.1067 7.50644C33.6967 5.43525 32.5335 3.5912 30.8435 2.33313C29.1534 1.07506 27.0574 0.49295 24.9633 0.700085C22.8691 0.907219 20.9267 1.88878 19.5139 3.45376C18.1235 1.90053 16.213 0.913784 14.1454 0.680877C12.0777 0.447969 9.99684 0.985121 8.29783 2.19034C6.59881 3.39555 5.39998 5.18491 4.92897 7.21865C4.45796 9.25238 4.74757 11.3889 5.7428 13.2225C6.5307 13.2256 7.31802 13.1796 8.10023 13.0848Z" fill="#CE2E2E"/>
<path d="M30.9251 13.9669C30.4353 13.9281 29.9601 13.7815 29.5333 13.5374C29.1065 13.2933 28.7386 12.9577 28.4559 12.5546L27.9046 11.6751C27.0841 12.3863 26.4846 13.7935 26.3017 14.3569L25.2982 18.6167L24.5234 18.5963V12.0371L24.3405 13.7196H23.5784C23.579 13.5351 23.5182 13.3557 23.4057 13.2097L23.0856 13.4494C22.2194 14.0051 21.0076 14.0102 20.7993 14.0051C20.4869 14.0051 17.3851 14.0994 16.3741 14.0535C16.0257 14.0539 15.6819 13.9744 15.3689 13.8211C15.0559 13.6678 14.7819 13.4447 14.5679 13.169V13.1435V12.2385C14.2859 12.5265 14.0725 12.9727 13.8185 13.6559C13.6186 14.2038 13.454 14.7641 13.3257 15.3333L12.683 18.9838L11.9209 18.971L11.4687 8.84033C11.2477 10.1685 11.0317 11.4966 10.9454 12.0855C10.8488 12.733 9.92924 13.1995 8.29834 13.4315C7.52195 13.5353 6.73939 13.5855 5.95616 13.5819L5.84692 13.4162C5.96124 13.6151 6.08571 13.8088 6.21781 14.0026L19.5088 27.2128L32.8075 14.0153C32.8075 14.0026 32.8252 13.9873 32.8354 13.9873H30.9759L30.9251 13.9669Z" fill="#CE2E2E"/>
<path d="M5.72498 13.1791L5.85198 13.3728C5.81388 13.3091 5.77832 13.3218 5.74276 13.1791H5.72498Z" fill="#D8D8D8"/>
<path d="M32.8278 13.9873H32.8608L33.0844 13.5615H33.0615C32.997 13.7104 32.9187 13.8529 32.8278 13.9873V13.9873Z" fill="#D8D8D8"/>
<path d="M31.0648 13.5614C30.6871 13.5283 30.3219 13.4092 29.997 13.213C29.6721 13.0169 29.3961 12.7489 29.19 12.4296L28.2222 10.9L27.77 11.1295C27.1654 11.4328 26.6091 12.0625 26.1137 12.9981C25.8898 13.4173 25.6954 13.8517 25.532 14.2982L25.2779 15.3179V5.55681H24.5336L23.6978 12.7355H23.6775L23.3422 12.5876L22.4709 13.2428C21.9675 13.519 21.4008 13.6579 20.8273 13.6456H20.7765C20.7409 13.6456 17.4283 13.7399 16.4579 13.694C16.2307 13.684 16.0086 13.6239 15.8071 13.5182C15.6056 13.4125 15.4297 13.2636 15.2919 13.0822V11.2085L14.6822 11.4303C14.2622 11.604 13.9106 11.9111 13.6813 12.3047C13.4274 12.7054 13.2178 13.1328 13.0564 13.5793C12.8545 14.1366 12.6915 14.7073 12.5686 15.2873L12.5356 15.481L12.0733 5.23816H11.3112C11.3112 5.29169 10.389 10.6935 10.1884 12.0676C10.1147 12.5621 9.41102 12.9063 8.09766 13.0873C7.31542 13.1817 6.52812 13.2277 5.74023 13.2249C5.7758 13.2912 5.81136 13.355 5.84947 13.4187L5.9587 13.5844C6.74194 13.588 7.5245 13.5377 8.30089 13.434C9.93686 13.202 10.8412 12.7355 10.9454 12.088C11.0343 11.4991 11.2502 10.1709 11.4687 8.84279L11.9209 18.9506L12.683 18.9633L13.3231 15.3128C13.4593 14.7441 13.6289 14.1839 13.8312 13.6354C14.0852 12.9522 14.2986 12.5061 14.5806 12.218V13.123V13.1485C14.7976 13.4241 15.074 13.6469 15.389 13.8001C15.704 13.9532 16.0494 14.0329 16.3995 14.0331C17.4156 14.0789 20.5046 13.9948 20.8171 13.9846C21.033 13.9846 22.2422 13.9846 23.1034 13.4289L23.4235 13.1893C23.5351 13.3355 23.595 13.5149 23.5937 13.6991H24.3558L24.5387 12.0166V18.5962L25.3135 18.6141L26.3169 14.3543C26.4998 13.7909 27.0968 12.3837 27.9199 11.6725L28.4711 12.5468C28.7526 12.9513 29.1197 13.2884 29.5461 13.5338C29.9725 13.7793 30.4478 13.9271 30.9378 13.9668L30.9835 13.9872H32.843C32.9339 13.8529 33.0122 13.7103 33.0767 13.5614H31.0648Z" fill="white"/>
</svg>
