<svg width="57" height="33" viewBox="0 0 57 33" fill="none" xmlns="http://www.w3.org/2000/svg">
<path d="M15.6861 32.1313H17.4999L17.4999 9.59857H15.6861L15.6861 32.1313Z" fill="#FCF5EB"/>
<path d="M17.5609 0.576782H4.8186V7.96705H17.5609V0.576782Z" fill="#FAE0B2"/>
<g style="mix-blend-mode:multiply">
<path d="M17.5584 0.576782H16.057V7.96705H17.5584V0.576782Z" fill="#FAE0B2"/>
</g>
<path d="M17.8378 0.219849H4.23431V0.931095H17.8378V0.219849Z" fill="#222744"/>
<path d="M8.20233 5.85371V1.95337L5.29365 1.95337V5.85371H8.20233Z" fill="#4E88FF"/>
<path d="M15.4016 5.85372V1.95337L12.4929 1.95337V5.85372H15.4016Z" fill="#4E88FF"/>
<path d="M39.4103 7.96704L52.1526 7.96704V0.57677L39.4103 0.57677V7.96704Z" fill="#FAE0B2"/>
<g style="mix-blend-mode:multiply">
<path d="M39.4128 7.96704H40.9142V0.57677H39.4128V7.96704Z" fill="#FAE0B2"/>
</g>
<path d="M17.5889 8.07666H1.48315V32.7228H17.5889V8.07666Z" fill="#FAE0B2"/>
<path d="M8.81708 13.4939V9.59351H2.62629V13.4939H8.81708Z" fill="#4E88FF"/>
<path d="M8.81708 18.0212V14.1208H2.62629V18.0212H8.81708Z" fill="#4E88FF"/>
<path d="M8.81708 22.5461V18.6458H2.62629V22.5461H8.81708Z" fill="#4E88FF"/>
<path d="M8.81708 27.0737V23.1733H2.62629V27.0737H8.81708Z" fill="#4E88FF"/>
<path d="M8.81708 31.601V27.7007H2.62629V31.601H8.81708Z" fill="#4E88FF"/>
<path d="M15.6811 13.4939V9.59351H9.49027V13.4939H15.6811Z" fill="#4E88FF"/>
<path d="M15.6811 18.0212V14.1208H9.49027V18.0212H15.6811Z" fill="#4E88FF"/>
<path d="M15.6811 22.5461V18.6458H9.49027V22.5461H15.6811Z" fill="#4E88FF"/>
<path d="M15.6811 27.0737V23.1733H9.49027V27.0737H15.6811Z" fill="#4E88FF"/>
<path d="M15.6811 31.601V27.7007H9.49027V31.601H15.6811Z" fill="#4E88FF"/>
<path d="M39.4128 32.7228H55.516V8.07666L39.4128 8.07666V32.7228Z" fill="#FAE0B2"/>
<path d="M39.4103 32.7228H55.7065V32.1339H39.4103V32.7228Z" fill="#222744"/>
<path d="M1.34089 32.7228H17.6371V32.1339H1.34089V32.7228Z" fill="#222744"/>
<g style="mix-blend-mode:multiply">
<path d="M39.4128 32.7228H40.9142V8.07666H39.4128V32.7228Z" fill="#FAE0B2"/>
</g>
<path d="M39.1461 0.933594L52.7369 0.933594V0.222347L39.1461 0.222347V0.933594Z" fill="#222744"/>
<path d="M17.505 7.79114L39.4128 7.79114V2.67226L17.505 2.67226V7.79114Z" fill="#FAE0B2"/>
<path d="M17.505 32.7228H39.4128V8.51003L17.505 8.51003L17.505 32.7228Z" fill="#FAE0B2"/>
<path d="M54.3754 13.4963V9.59595H48.1846V13.4963H54.3754Z" fill="#4E88FF"/>
<path d="M54.3729 18.0212V14.1208H48.1821V18.0212H54.3729Z" fill="#4E88FF"/>
<path d="M54.3729 22.5488V18.6484H48.1821V22.5488H54.3729Z" fill="#4E88FF"/>
<path d="M54.3754 27.0761V23.1758H48.1846V27.0761H54.3754Z" fill="#4E88FF"/>
<path d="M54.3729 31.601V27.7007H48.1821V31.601H54.3729Z" fill="#4E88FF"/>
<path d="M47.5114 13.4963V9.59595H41.3206V13.4963H47.5114Z" fill="#4E88FF"/>
<path d="M51.6801 5.85115V1.95081L48.7714 1.95081V5.85115H51.6801Z" fill="#4E88FF"/>
<path d="M44.4808 5.85116V1.95081L41.5722 1.95081V5.85116H44.4808Z" fill="#4E88FF"/>
<path d="M47.5089 18.0212V14.1208H41.3181V18.0212H47.5089Z" fill="#4E88FF"/>
<path d="M47.5089 22.5488V18.6484H41.3181V22.5488H47.5089Z" fill="#4E88FF"/>
<path d="M47.5114 27.0761V23.1758H41.3206V27.0761H47.5114Z" fill="#4E88FF"/>
<path d="M47.5089 31.601V27.7007H41.3181V31.601H47.5089Z" fill="#4E88FF"/>
<path d="M25.1641 32.7788H31.4489V26.6504H25.1641V32.7788Z" fill="#E25A44"/>
<path d="M48.6926 5.91492H51.7614V5.71352H48.6926V5.91492Z" fill="#222744"/>
<path d="M41.4934 5.91492H44.5621V5.71352H41.4934V5.91492Z" fill="#222744"/>
<path d="M12.4472 5.91492H15.5159V5.71352H12.4472V5.91492Z" fill="#222744"/>
<path d="M5.24793 5.91492H8.31665V5.71352H5.24793V5.91492Z" fill="#222744"/>
<path d="M54.3754 31.7821H55.5186V9.596H54.3754V31.7821Z" fill="#FAE0B2"/>
<path d="M41.2444 13.4963H47.5876V13.295H41.2444V13.4963Z" fill="#222744"/>
<path d="M48.1084 18.0238H54.4516V17.8224H48.1084V18.0238Z" fill="#222744"/>
<path d="M41.2444 18.0238H47.5876V17.8224H41.2444V18.0238Z" fill="#222744"/>
<path d="M48.1084 22.5487H54.4516V22.3473H48.1084V22.5487Z" fill="#222744"/>
<path d="M41.2444 22.5487H47.5876V22.3473H41.2444V22.5487Z" fill="#222744"/>
<path d="M48.1084 27.0762H54.4516V26.8748H48.1084V27.0762Z" fill="#222744"/>
<path d="M41.2444 27.0762H47.5876V26.8748H41.2444V27.0762Z" fill="#222744"/>
<path d="M48.1084 31.6036H54.4516V31.4022H48.1084V31.6036Z" fill="#222744"/>
<path d="M41.2444 31.6036H47.5876V31.4022H41.2444V31.6036Z" fill="#222744"/>
<path d="M48.1084 13.4963H54.4516V13.295H48.1084V13.4963Z" fill="#222744"/>
<path d="M47.5114 31.7795H48.1846V9.56796H47.5114V31.7795Z" fill="#FAE0B2"/>
<path d="M41.2444 27.7007H54.604V27.0761H41.2444V27.7007Z" fill="#FAE0B2"/>
<path d="M41.2444 23.1758H54.604V22.5512H41.2444V23.1758Z" fill="#FAE0B2"/>
<path d="M41.2444 18.6458H54.604V18.0212H41.2444V18.6458Z" fill="#FAE0B2"/>
<path d="M41.2444 14.1208L54.604 14.1208V13.4963L41.2444 13.4963V14.1208Z" fill="#FAE0B2"/>
<path d="M8.81455 31.7795H9.48773L9.48773 9.56796H8.81455L8.81455 31.7795Z" fill="#FAE0B2"/>
<path d="M2.54756 27.7007H15.9072V27.0761H2.54756V27.7007Z" fill="#FAE0B2"/>
<path d="M2.54756 23.1758H15.9072V22.5512H2.54756V23.1758Z" fill="#FAE0B2"/>
<path d="M2.54756 18.6458H15.9072V18.0212H2.54756V18.6458Z" fill="#FAE0B2"/>
<path d="M2.54756 14.1208L15.9072 14.1208V13.4963L2.54756 13.4963V14.1208Z" fill="#FAE0B2"/>
<path d="M2.56024 13.4963H8.90344V13.295H2.56024V13.4963Z" fill="#222744"/>
<path d="M9.42422 18.0238H15.7674V17.8224H9.42422V18.0238Z" fill="#222744"/>
<path d="M2.56024 18.0238H8.90344V17.8224H2.56024V18.0238Z" fill="#222744"/>
<path d="M9.42422 22.5487H15.7674V22.3473H9.42422V22.5487Z" fill="#222744"/>
<path d="M2.56024 22.5487H8.90344V22.3473H2.56024V22.5487Z" fill="#222744"/>
<path d="M9.42422 27.0762H15.7674V26.8748H9.42422V27.0762Z" fill="#222744"/>
<path d="M2.56024 27.0762H8.90344V26.8748H2.56024V27.0762Z" fill="#222744"/>
<path d="M9.42422 31.6036H15.7674V31.4022H9.42422V31.6036Z" fill="#222744"/>
<path d="M2.56024 31.6036H8.90344V31.4022H2.56024V31.6036Z" fill="#222744"/>
<path d="M9.42422 13.4963H15.7674V13.295H9.42422V13.4963Z" fill="#222744"/>
<path d="M38.5313 14.7251V10.8247H32.3406V14.7251H38.5313Z" fill="#4E88FF"/>
<path d="M24.8339 14.7251V10.8247H18.6431V14.7251H24.8339Z" fill="#4E88FF"/>
<path d="M18.577 14.7275H24.9203V14.5261H18.577V14.7275Z" fill="#222744"/>
<path d="M32.2745 14.7275H38.6177V14.5261H32.2745V14.7275Z" fill="#222744"/>
<path d="M31.6674 20.002V16.1017H25.4766V20.002H31.6674Z" fill="#4E88FF"/>
<path d="M25.4105 20.002H31.7537V19.8006H25.4105V20.002Z" fill="#222744"/>
<g style="mix-blend-mode:multiply" opacity="0.5">
<path d="M17.505 4.37769L39.4128 4.37769V2.67224L17.505 2.67224V4.37769Z" fill="#FAE0B2"/>
</g>
<path d="M17.0173 3.05981L39.8955 3.05981V2.34857L17.0173 2.34857V3.05981Z" fill="#222744"/>
<path d="M28.2811 32.7788H28.3319V26.6504H28.2811V32.7788Z" fill="#F47458"/>
<path d="M18.8158 32.7228H19.9514V26.6505H18.8158V32.7228Z" fill="#222744"/>
<path d="M36.9767 32.7228H38.1122V26.6505H36.9767V32.7228Z" fill="#222744"/>
<path d="M30.9891 31.4023V26.9768H28.7384V31.4023H30.9891Z" fill="#4E88FF"/>
<path d="M27.8746 31.3997V26.9742H25.6239V31.3997H27.8746Z" fill="#4E88FF"/>
<path d="M15.6861 31.9529H17.3196V21.269H15.6861L15.6861 31.9529Z" fill="#FAE0B2"/>
<g style="mix-blend-mode:multiply">
<path d="M17.4974 8.43091H15.9961V32.5927H17.4974V8.43091Z" fill="#FAE0B2"/>
</g>
<g style="mix-blend-mode:multiply" opacity="0.3">
<path d="M36.6032 5.50708H38.0258V4.95899H36.6032V5.50708Z" fill="#F7CC7F"/>
</g>
<g style="mix-blend-mode:multiply" opacity="0.3">
<path d="M37.7235 6.34058H39.1461V5.79249H37.7235V6.34058Z" fill="#F7CC7F"/>
</g>
<g style="mix-blend-mode:multiply" opacity="0.3">
<path d="M36.8039 7.16138H38.2595V6.69741H36.8039V7.16138Z" fill="#F7CC7F"/>
</g>
<g style="mix-blend-mode:multiply" opacity="0.3">
<path d="M35.897 6.30237H37.312V5.8384H35.897V6.30237Z" fill="#F7CC7F"/>
</g>
<g style="mix-blend-mode:multiply" opacity="0.3">
<path d="M27.2294 7.15894H28.3802V6.74596H27.2294V7.15894Z" fill="#F7CC7F"/>
</g>
<g style="mix-blend-mode:multiply" opacity="0.3">
<path d="M26.4673 6.4834H27.6181V6.07041H26.4673V6.4834Z" fill="#F7CC7F"/>
</g>
<g style="mix-blend-mode:multiply" opacity="0.3">
<path d="M33.1382 28.5166H34.289V28.1036H33.1382V28.5166Z" fill="#F7CC7F"/>
</g>
<g style="mix-blend-mode:multiply" opacity="0.3">
<path d="M32.3787 27.8409H33.5294V27.428H32.3787V27.8409Z" fill="#F7CC7F"/>
</g>
<g style="mix-blend-mode:multiply" opacity="0.3">
<path d="M20.8811 28.3125H22.0319V27.8995H20.8811V28.3125Z" fill="#F7CC7F"/>
</g>
<g style="mix-blend-mode:multiply" opacity="0.3">
<path d="M20.3121 29.0671H21.4629V28.6542H20.3121V29.0671Z" fill="#F7CC7F"/>
</g>
<g style="mix-blend-mode:multiply" opacity="0.3">
<path d="M22.1741 5.15015H20.7516V5.69823H22.1741V5.15015Z" fill="#F7CC7F"/>
</g>
<g style="mix-blend-mode:multiply" opacity="0.3">
<path d="M17.9673 6.61084H17.505V7.15893H17.9673V6.61084Z" fill="#F7CC7F"/>
</g>
<g style="mix-blend-mode:multiply" opacity="0.3">
<path d="M18.4831 5.73389H17.4949V6.28197H18.4831V5.73389Z" fill="#F7CC7F"/>
</g>
<g style="mix-blend-mode:multiply" opacity="0.3">
<path d="M21.4679 5.86902H20.0453V6.4171H21.4679V5.86902Z" fill="#F7CC7F"/>
</g>
<g style="mix-blend-mode:multiply" opacity="0.3">
<path d="M32.0103 6.05005H30.5877V6.59814H32.0103V6.05005Z" fill="#F7CC7F"/>
</g>
<g style="mix-blend-mode:multiply" opacity="0.3">
<path d="M32.8613 5.23169H31.4387V5.77979H32.8613V5.23169Z" fill="#F7CC7F"/>
</g>
<g style="mix-blend-mode:multiply" opacity="0.3">
<path d="M21.9709 6.69751H20.5153V7.16148H21.9709V6.69751Z" fill="#F7CC7F"/>
</g>
<g style="mix-blend-mode:multiply" opacity="0.3">
<path d="M24.369 29.8319H22.9464V30.38H24.369V29.8319Z" fill="#F7CC7F"/>
</g>
<g style="mix-blend-mode:multiply" opacity="0.3">
<path d="M23.6628 30.5508H22.2402V31.0989H23.6628V30.5508Z" fill="#F7CC7F"/>
</g>
<g style="mix-blend-mode:multiply" opacity="0.3">
<path d="M24.1658 31.3818H22.7101V31.8458H24.1658V31.3818Z" fill="#F7CC7F"/>
</g>
<g style="mix-blend-mode:multiply" opacity="0.3">
<path d="M33.7251 30.4922H35.1476V29.9441H33.7251V30.4922Z" fill="#F7CC7F"/>
</g>
<g style="mix-blend-mode:multiply" opacity="0.3">
<path d="M34.4287 31.2111H35.8513V30.663H34.4287V31.2111Z" fill="#F7CC7F"/>
</g>
<g style="mix-blend-mode:multiply" opacity="0.3">
<path d="M33.9283 31.9554H35.3839V31.4915H33.9283V31.9554Z" fill="#F7CC7F"/>
</g>
<g style="mix-blend-mode:multiply" opacity="0.3">
<path d="M23.1471 5.96338H21.7321V6.42735H23.1471V5.96338Z" fill="#F7CC7F"/>
</g>
<path d="M18.7981 24.5371L38.1173 24.5371V20.3615L18.7981 20.3615V24.5371Z" fill="#222744"/>
<path d="M18.7981 24.5371L38.1173 24.5371V22.773L18.7981 22.773V24.5371Z" fill="#222744"/>
<path d="M24.4427 23.6678C24.381 23.6392 24.3258 23.5984 24.2801 23.548C24.2578 23.525 24.2398 23.4982 24.2267 23.469L24.3207 23.2803C24.3334 23.3032 24.3497 23.3239 24.369 23.3415C24.4073 23.3816 24.452 23.4152 24.5011 23.4409C24.5604 23.4701 24.6256 23.485 24.6916 23.4842C24.7261 23.4864 24.7607 23.4803 24.7924 23.4666C24.8242 23.4529 24.8523 23.4318 24.8745 23.4052C24.9192 23.3431 24.9416 23.2676 24.938 23.1911C24.9398 23.1398 24.9284 23.0889 24.905 23.0432C24.8825 23.0029 24.8533 22.9667 24.8186 22.9362L24.6764 22.824C24.6058 22.7783 24.5394 22.7263 24.4782 22.6685C24.4231 22.6123 24.3783 22.5467 24.3461 22.4747C24.3081 22.381 24.2899 22.2802 24.2928 22.179C24.2905 22.0642 24.3131 21.9503 24.3588 21.8451C24.3991 21.7553 24.4644 21.6792 24.5468 21.6258C24.6273 21.5746 24.7208 21.5481 24.8161 21.5494C24.8802 21.5498 24.9437 21.561 25.0041 21.5825C25.0566 21.6016 25.1069 21.6264 25.154 21.6564C25.176 21.6683 25.1965 21.6828 25.2149 21.6998L25.1743 21.919L25.1133 21.8757C25.0748 21.8499 25.0339 21.8277 24.9914 21.8094C24.9431 21.7887 24.8914 21.7774 24.839 21.7762C24.8101 21.775 24.7813 21.7809 24.7552 21.7933C24.7291 21.8058 24.7064 21.8244 24.6891 21.8476C24.6477 21.9024 24.627 21.9702 24.6307 22.0388C24.6273 22.1173 24.6506 22.1946 24.6967 22.2581C24.7582 22.3255 24.8283 22.3846 24.905 22.434C24.9745 22.483 25.0407 22.5367 25.1032 22.5946C25.1572 22.6496 25.2003 22.7145 25.2302 22.7857C25.2683 22.8822 25.2864 22.9854 25.2835 23.0891C25.2865 23.2075 25.2604 23.3249 25.2073 23.4307C25.162 23.5219 25.0914 23.598 25.0041 23.65C24.916 23.7005 24.8159 23.7261 24.7145 23.7239C24.6207 23.7278 24.5273 23.7085 24.4427 23.6678V23.6678Z" fill="#F4F4F4"/>
<path d="M25.6519 23.4385C25.513 23.2012 25.4467 22.9281 25.4613 22.6533C25.4572 22.456 25.4864 22.2595 25.5477 22.0721C25.5945 21.9223 25.6825 21.7888 25.8018 21.6871C25.9121 21.595 26.052 21.5461 26.1955 21.5495C26.2725 21.5495 26.3489 21.5625 26.4216 21.5877C26.4875 21.609 26.5512 21.6363 26.6121 21.6693L26.6934 21.7152L26.6579 21.9523L26.574 21.9013C26.522 21.8746 26.4686 21.8508 26.414 21.8299C26.3584 21.8068 26.2989 21.7947 26.2387 21.7942C26.1559 21.7899 26.0748 21.8183 26.0126 21.8732C25.9439 21.9475 25.8987 22.0407 25.883 22.1409C25.8486 22.3034 25.8333 22.4694 25.8373 22.6354C25.8229 22.8581 25.8585 23.0811 25.9415 23.288C25.9688 23.3482 26.0133 23.3987 26.0695 23.4333C26.1256 23.4678 26.1907 23.4847 26.2565 23.4818C26.3312 23.4829 26.4043 23.4596 26.4648 23.4155C26.5223 23.3765 26.5722 23.3272 26.6121 23.2702C26.6341 23.2427 26.6529 23.2128 26.668 23.181L26.7773 23.3365C26.7611 23.3786 26.7389 23.4182 26.7112 23.4538C26.6601 23.5274 26.5954 23.5906 26.5207 23.6398C26.4269 23.6979 26.3183 23.7271 26.2082 23.724C26.0987 23.7296 25.9896 23.7061 25.8919 23.656C25.7943 23.6059 25.7115 23.5309 25.6519 23.4385Z" fill="#F4F4F4"/>
<path d="M26.9932 23.6908V21.5928H27.3437V22.5131H27.9026V21.5928H28.2455V23.701H27.9026V22.7399H27.3437V23.701L26.9932 23.6908Z" fill="#F4F4F4"/>
<path d="M28.7104 23.4358C28.5853 23.189 28.52 22.9161 28.52 22.6392C28.52 22.3623 28.5853 22.0893 28.7104 21.8426C28.7697 21.7526 28.8503 21.6788 28.9449 21.6278C29.0395 21.5768 29.1453 21.55 29.2528 21.55C29.3602 21.55 29.466 21.5768 29.5606 21.6278C29.6553 21.6788 29.7358 21.7526 29.7951 21.8426C29.936 22.0838 30.0031 22.3613 29.9882 22.6405C30.0031 22.9181 29.936 23.1939 29.7951 23.4333C29.738 23.5254 29.6576 23.6008 29.5622 23.6518C29.4667 23.7029 29.3596 23.7277 29.2515 23.7239C29.144 23.7283 29.0372 23.704 28.9421 23.6534C28.847 23.6027 28.7671 23.5277 28.7104 23.4358V23.4358ZM29.5258 23.2931C29.6393 22.8654 29.6393 22.4155 29.5258 21.9879C29.5084 21.9291 29.4725 21.8775 29.4236 21.8408C29.3746 21.804 29.3152 21.7841 29.254 21.7839C29.1931 21.7838 29.1339 21.8037 29.0853 21.8405C29.0367 21.8773 29.0014 21.9291 28.9848 21.9879C28.918 22.1986 28.8896 22.4196 28.9009 22.6405C28.8904 22.8611 28.9179 23.0818 28.9822 23.2931C28.9994 23.3518 29.0353 23.4033 29.0844 23.4397C29.1334 23.476 29.193 23.4953 29.254 23.4945C29.3148 23.4944 29.374 23.4749 29.423 23.4386C29.4719 23.4024 29.5079 23.3514 29.5258 23.2931V23.2931Z" fill="#F4F4F4"/>
<path d="M30.3565 23.4358C30.2335 23.1884 30.1695 22.9157 30.1695 22.6392C30.1695 22.3627 30.2335 22.09 30.3565 21.8425C30.4129 21.7501 30.4927 21.6743 30.5877 21.6228C30.6828 21.5713 30.7897 21.546 30.8976 21.5494C31.0063 21.5461 31.1138 21.5715 31.2096 21.6229C31.3055 21.6744 31.3862 21.7501 31.4438 21.8425C31.5846 22.0838 31.6518 22.3612 31.6369 22.6405C31.6518 22.918 31.5847 23.1939 31.4438 23.4333C31.3861 23.5254 31.3052 23.6008 31.2094 23.6518C31.1136 23.7028 31.0061 23.7276 30.8976 23.7239C30.7901 23.7283 30.6833 23.704 30.5882 23.6533C30.4931 23.6027 30.4132 23.5277 30.3565 23.4358V23.4358ZM31.172 23.2931C31.2838 22.8652 31.2838 22.4157 31.172 21.9878C31.154 21.9289 31.1177 21.8772 31.0683 21.8405C31.0189 21.8038 30.9591 21.7839 30.8976 21.7839C30.8368 21.7842 30.7778 21.8043 30.7292 21.841C30.6807 21.8778 30.6453 21.9293 30.6284 21.9878C30.5165 22.4157 30.5165 22.8652 30.6284 23.2931C30.645 23.3516 30.6804 23.403 30.7291 23.4394C30.7777 23.4758 30.837 23.4951 30.8976 23.4945C30.959 23.4954 31.0189 23.4762 31.0684 23.4399C31.118 23.4036 31.1543 23.352 31.172 23.2931V23.2931Z" fill="#F4F4F4"/>
<path d="M31.9163 23.6908V21.5928H32.2593V23.4665H32.8867V23.701L31.9163 23.6908Z" fill="#F4F4F4"/>
<path d="M18.3662 26.6504L38.5466 26.6504V24.8889L18.3662 24.8889V26.6504Z" fill="#222744"/>
<path d="M23.7441 7.69165H0.865845V8.51251H23.7441V7.69165Z" fill="#222744"/>
<path d="M20.749 8.51001L56.1333 8.51001V7.68915L20.749 7.68915V8.51001Z" fill="#222744"/>
</svg>
