<svg width="43" height="37" viewBox="0 0 43 37" fill="none" xmlns="http://www.w3.org/2000/svg">
<path d="M21.2076 23.0294C21.6079 22.5094 22.3921 22.5094 22.7924 23.0294L29.4209 31.64C29.9271 32.2976 29.4583 33.25 28.6285 33.25H15.3715C14.5417 33.25 14.0729 32.2976 14.5791 31.64L21.2076 23.0294Z" fill="#1B2039"/>
<rect width="43" height="30" rx="2" fill="#222744"/>
<rect x="2" y="2" width="39" height="26" rx="2" fill="#CEE1FF"/>
<rect x="15" y="10" width="12.1429" height="10" rx="1" fill="#4E88FF"/>
<path d="M25.7858 16.2232C25.1191 15.8383 25.1191 14.876 25.7858 14.4911L29.7501 12.2023C30.4167 11.8174 31.2501 12.2986 31.2501 13.0684L31.2501 17.6459C31.2501 18.4157 30.4167 18.8968 29.7501 18.5119L25.7858 16.2232Z" fill="#4E88FF"/>
</svg>
