<svg xmlns="http://www.w3.org/2000/svg" width="24" height="23" viewBox="0 0 24 23">
  <g id="Group_824" data-name="Group 824" transform="translate(-209 -725)">
    <path id="Rectangle_759" data-name="Rectangle 759" d="M2,0H4A2,2,0,0,1,6,2V17a0,0,0,0,1,0,0H0a0,0,0,0,1,0,0V2A2,2,0,0,1,2,0Z" transform="translate(209 731)" fill="#fff"/>
    <path id="Rectangle_760" data-name="Rectangle 760" d="M2,0H4A2,2,0,0,1,6,2V21a0,0,0,0,1,0,0H0a0,0,0,0,1,0,0V2A2,2,0,0,1,2,0Z" transform="translate(218 727)" fill="#fff"/>
    <path id="Rectangle_761" data-name="Rectangle 761" d="M2,0H4A2,2,0,0,1,6,2V23a0,0,0,0,1,0,0H0a0,0,0,0,1,0,0V2A2,2,0,0,1,2,0Z" transform="translate(227 725)" fill="#fff"/>
  </g>
</svg>
