<svg xmlns="http://www.w3.org/2000/svg" width="865.45" height="851.062" enable-background="new 0 0 1364 960" viewBox="249.275 29.321 865.45 851.062"><ellipse cx="655.509" cy="822.336" fill="#E6ECFA" rx="346.229" ry="19.363"/><path fill="#FFB5F0" d="M920.726 519.416c1.976-2.51 2.057-6.194.647-9.055-1.41-2.861-4.112-4.938-7.074-6.122-2.963-1.184-6.187-1.555-9.376-1.689-5.277-.222-10.747.236-15.563 2.299 3.019-7.139 6.593-14.047 10.677-20.649.371-.6.753-1.194 1.133-1.789 4.487 3.234 8.973 6.467 13.46 9.7 2.993 2.157 6.084 4.361 9.667 5.245 3.584.884 7.826.145 10.111-2.758 1.975-2.51 2.057-6.194.647-9.055-1.41-2.861-4.112-4.938-7.074-6.122-2.962-1.184-6.187-1.555-9.376-1.689-5.443-.229-11.094.264-16.017 2.497 4.755-7.185 10.109-13.97 15.995-20.26 4.672 3.102 9.343 6.203 14.015 9.305 3.074 2.041 6.247 4.124 9.862 4.87 3.615.746 7.826-.155 9.999-3.143 1.878-2.583 1.818-6.268.299-9.072-1.519-2.804-4.299-4.776-7.304-5.846-3.006-1.07-6.242-1.317-9.435-1.329-5.11-.019-10.379.602-15.003 2.676 4.361-4.452 8.989-8.643 13.866-12.526 1.444-1.15 2.916-2.262 4.402-3.355 4.909 3.031 9.819 6.063 14.728 9.095 3.14 1.939 6.379 3.917 10.018 4.543 3.638.627 7.817-.411 9.89-3.47 1.792-2.644 1.611-6.324.001-9.076-1.61-2.753-4.453-4.633-7.492-5.603-3.039-.97-6.283-1.111-9.474-1.018-4.559.133-9.225.783-13.413 2.501 5.169-3.527 10.563-6.722 16.148-9.557 5.616.32 11.233.639 16.85.959 3.686.21 7.479.406 10.98-.774 3.501-1.181 6.685-4.081 7.054-7.755.319-3.176-1.591-6.324-4.32-7.977-2.728-1.653-6.125-1.951-9.262-1.358-3.137.594-6.059 2.013-8.823 3.613-5.094 2.948-9.941 6.734-12.856 11.809-.019.008-.037.012-.056.022-5.949 3.006-11.684 6.423-17.165 10.206 2.757-3.864 4.443-8.523 5.55-13.18.738-3.106 1.259-6.311.926-9.484-.333-3.174-1.595-6.339-3.964-8.475-2.369-2.136-5.934-3.06-8.887-1.842-3.415 1.409-5.28 5.292-5.405 8.982-.125 3.69 1.154 7.264 2.414 10.732 1.92 5.282 3.84 10.564 5.76 15.845-6.569 4.827-12.744 10.191-18.455 16.013 1.945-4.603 2.482-9.803 2.394-14.843-.055-3.191-.346-6.424-1.457-9.414-1.11-2.99-3.12-5.743-5.945-7.223-2.825-1.481-6.511-1.491-9.069.422-2.96 2.212-3.803 6.434-3.008 10.038.795 3.605 2.921 6.748 5.004 9.794 3.171 4.636 6.341 9.272 9.511 13.908-.175.188-.354.371-.529.56-5.714 6.178-10.919 12.819-15.562 19.829 1.504-5.394.99-11.248-.248-16.748-.7-3.113-1.64-6.218-3.333-8.921-1.694-2.703-4.219-4.99-7.287-5.868-3.068-.878-6.68-.141-8.799 2.249-2.451 2.765-2.422 7.069-.914 10.436 1.509 3.367 4.228 6.015 6.885 8.574 4.175 4.022 8.349 8.045 12.524 12.067-.064.099-.126.198-.189.297l-.164.002c.037.027.074.053.112.081-4.404 6.897-8.265 14.138-11.518 21.652-.663-4.986-2.825-9.782-5.446-14.128-1.679-2.784-3.586-5.484-6.093-7.554-2.507-2.07-5.685-3.471-8.933-3.337-3.248.134-6.503 2.003-7.782 4.991-1.48 3.457-.068 7.607 2.474 10.379 2.542 2.771 6.023 4.459 9.415 6.082 4.818 2.305 9.636 4.61 14.454 6.916.131.095.263.19.395.284-3.363 8.369-5.965 17.034-7.734 25.878-.187.934 1.236 1.405 1.426.458 1.739-8.695 4.284-17.209 7.562-25.433 4.256 3.068 8.513 6.135 12.769 9.203 2.993 2.157 6.084 4.361 9.667 5.245C914.199 523.057 918.441 522.319 920.726 519.416zM465.347 390.369c-1.901-3.338.154-7.845 3.501-9.714 3.347-1.869 7.475-1.678 11.241-.89 6.091 1.273 11.36 3.729 16.753 6.538-3.563-4.539-6.96-9.207-10.199-13.966-2.142-3.147-4.216-6.344-6.222-9.586-7.535 4.225-16.351 6.145-24.96 5.408-3.263-.28-6.9-1.206-8.513-4.056-1.885-3.33.17-7.837 3.505-9.711 3.336-1.874 7.445-1.692 11.192-.914 6.29 1.306 11.698 3.889 17.275 6.816-6.067-10.059-11.429-20.551-15.84-31.429-8.018 2.861-16.882 3.319-25.143 1.257-3.178-.793-6.621-2.284-7.763-5.354-1.333-3.586 1.411-7.711 5.002-9.032 3.59-1.322 7.619-.491 11.195.872 5.794 2.207 10.587 5.457 15.447 9.074-4.469-11.54-8.047-23.919-7.962-36.33.002-.258.015-.517.019-.775-8.424 1.762-17.375.965-25.345-2.292-3.032-1.239-6.228-3.206-6.919-6.407-.807-3.74 2.498-7.431 6.24-8.226 3.742-.795 7.611.602 10.955 2.461 5.893 3.275 10.439 7.601 15.121 12.314.489-14.334 3.624-28.639 3.619-42.967-8.551 1.882-17.67 1.118-25.777-2.195-3.032-1.238-6.228-3.206-6.919-6.407-.807-3.74 2.498-7.43 6.24-8.225 3.742-.795 7.611.602 10.955 2.461 6.051 3.363 10.683 7.835 15.498 12.696-.065-3.581-.337-7.162-.916-10.747-1.172-7.258-3.888-14.194-7.696-20.554-7.897 4.227-17.121 5.941-26.008 4.803-3.248-.416-6.843-1.494-8.336-4.41-1.743-3.406.5-7.823 3.911-9.555 3.411-1.732 7.51-1.378 11.22-.443 6.804 1.714 12.492 4.903 18.484 8.415-6.358-10.135-15.491-18.72-25.564-24.654-7.579 2.934-15.99 3.712-23.972 2.169-3.216-.622-6.735-1.926-8.038-4.93-1.523-3.51.996-7.776 4.511-9.288 3.515-1.511 7.582-.897 11.226.272 5.812 1.865 10.709 4.79 15.675 8.078.221.01.453.069.69.201 8.686 4.859 16.333 11.488 22.612 19.196 1.384 1.7 2.713 3.458 3.977 5.266-1.745-7.712-1.368-15.902 1.138-23.404 1.038-3.107 2.792-6.424 5.941-7.323 3.679-1.05 7.578 2.006 8.616 5.688 1.039 3.683-.104 7.634-1.739 11.094-3.052 6.451-7.377 11.474-12.076 16.771 2.48 3.907 4.595 8.041 6.09 12.414 2.264 6.623 3.16 13.405 3.305 20.246 1.891-7.933 6.044-15.324 11.875-21.028 2.341-2.29 5.416-4.442 8.629-3.804 3.752.745 5.826 5.244 5.07 8.994-.757 3.75-3.577 6.745-6.611 9.076-5.815 4.466-12.138 6.978-18.942 9.621-.089 11.29-2 22.71-3.028 33.833-.323 3.501-.546 6.985-.579 10.464 1.616-8.707 5.954-16.894 12.278-23.096 2.338-2.293 5.411-4.449 8.624-3.816 3.754.74 5.834 5.236 5.082 8.987-.752 3.751-3.567 6.75-6.599 9.085-5.941 4.576-12.416 7.108-19.395 9.828.005 3.708.245 7.411.851 11.122 1.108 6.788 2.987 13.441 5.257 19.926.603 1.725 1.24 3.438 1.899 5.143.707-8 3.658-15.799 8.467-22.235 1.96-2.623 4.668-5.223 7.939-5.087 3.823.158 6.565 4.284 6.395 8.106-.17 3.822-2.495 7.216-5.134 9.986-4.876 5.119-10.499 8.515-16.557 12.032 4.311 10.627 9.632 20.868 15.57 30.678-1.336-8.275-.24-16.935 3.164-24.596 1.33-2.993 3.393-6.128 6.614-6.722 3.763-.694 7.351 2.721 8.033 6.486.682 3.765-.832 7.589-2.791 10.876-3.718 6.237-8.607 10.876-13.895 15.792.798 1.294 1.603 2.584 2.419 3.863 4.487 7.02 9.309 13.862 14.494 20.415-1.178-8.078-.05-16.489 3.267-23.952 1.33-2.993 3.393-6.128 6.614-6.722 3.763-.693 7.352 2.721 8.033 6.487.682 3.765-.833 7.589-2.792 10.876-3.616 6.066-8.339 10.62-13.459 15.387 6.001 7.398 12.48 14.403 19.491 20.833 1.46 1.34-.718 3.512-2.175 2.175-7.08-6.494-13.608-13.581-19.662-21.055-7.575 4.236-16.45 6.152-25.125 5.393C470.63 394.161 466.974 393.226 465.347 390.369z"/><path fill="#858EFF" d="M479.374,491.289l0.089,0.02c9.186,7.622,16.911,15.667,21.821,22.416l1.351-0.989     c-4.863-6.68-12.458-14.617-21.499-22.184c0.623-5.513-2.004-15.66-2.035-15.766l-1.612,0.438     c0.517,1.897,2.218,9.399,2.092,14.057c-5.159-4.216-10.747-8.266-16.553-11.903c-0.198-5.506-4.389-15.246-4.433-15.35     l-1.526,0.696c0.042,0.09,3.589,8.34,4.243,13.573c-10.77-6.538-22.18-11.522-32.842-13.13l-0.254,1.654     c8.892,1.341,18.317,5.088,27.446,10.12c-3.428,2.135-9.763,5.712-13.182,6.071l0.175,1.67c4.421-0.469,12.336-5.332,14.65-6.803     c5.325,3.038,10.517,6.485,15.433,10.159c-1.977,1.86-8.534,7.857-12.391,9.036l0.496,1.603     c4.387-1.348,11.491-7.941,13.255-9.624c1.803,1.376,3.571,2.771,5.282,4.188C479.376,491.255,479.377,491.275,479.374,491.289z"/><path fill="#FFB5F0" d="M461.627,470.384c0,0-16.867-13.848-30.517-35.453c-13.65-21.604-18.912-42.784-18.912-42.784      s16.867,13.848,30.517,35.452C456.364,449.204,461.627,470.384,461.627,470.384z"/><path fill="#858EFF" d="M479.764 481.916c0 0-9.155-16.222-12.06-37.384-2.905-21.163 1.542-39.251 1.542-39.251s9.154 16.223 12.059 37.385C484.209 463.828 479.764 481.916 479.764 481.916zM374.333 501.655c0 0 14.713-11.423 35.225-17.383 20.512-5.961 39.056-4.201 39.056-4.201s-14.713 11.423-35.225 17.383C392.877 503.414 374.333 501.655 374.333 501.655z"/><path fill="#FFB5F0" d="M404.229,534.485c0,0,10.476-15.402,28.151-27.395c17.676-11.993,35.859-16.036,35.859-16.036      s-10.475,15.402-28.151,27.395C422.412,530.442,404.229,534.485,404.229,534.485z"/><path fill="#858EFF" d="M438.022 466.34c0 0-21.821-.37-45.94-8.818-24.119-8.446-41.402-21.772-41.402-21.772s21.821.37 45.94 8.817C420.737 453.015 438.022 466.34 438.022 466.34zM903.952 326.897l-.07.056c-11.657 2.372-22.73 3.345-31.039 2.941l-.076 1.667c8.225.397 19.134-.543 30.656-2.836 3.892 3.928 13.412 8.227 13.514 8.269l.667-1.525c-1.796-.784-8.684-4.149-12.222-7.157 6.497-1.372 13.133-3.181 19.584-5.418 4.399 3.286 14.581 6.116 14.689 6.147l.413-1.62c-.096-.024-8.718-2.423-13.19-5.184 11.805-4.279 22.803-10.026 30.712-17.301l-1.126-1.23c-6.597 6.067-15.394 11.045-25.004 14.99.484-3.996 1.664-11.149 3.521-14.029l-1.407-.907c-2.397 3.727-3.566 12.91-3.869 15.626-5.686 2.237-11.606 4.116-17.529 5.638-.209-2.697-.77-11.535.724-15.267l-1.555-.616c-1.694 4.248-1.012 13.884-.807 16.305-2.195.541-4.383 1.042-6.552 1.485C903.977 326.92 903.961 326.908 903.952 326.897z"/><path fill="#FFB5F0" d="M931.271,326.175c0,0,21.291-4.447,46.595-1.549c25.304,2.897,45.037,12.042,45.037,12.042      s-21.29,4.447-46.593,1.55C951.006,335.32,931.271,326.175,931.271,326.175z"/><path fill="#858EFF" d="M910.986 333.056c0 0 18.316 3.025 36.564 13.989 18.248 10.965 29.516 25.717 29.516 25.717s-18.316-3.026-36.563-13.991C922.256 347.807 910.986 333.056 910.986 333.056zM961.522 238.855c0 0-.321 18.561-8.507 38.213-8.185 19.652-21.136 32.952-21.136 32.952s.321-18.561 8.507-38.213C948.572 252.155 961.522 238.855 961.522 238.855z"/><path fill="#FFB5F0" d="M917.352,241.561c0,0,5.416,17.757,3.687,38.974c-1.729,21.218-9.949,37.863-9.949,37.863      s-5.416-17.756-3.687-38.974C909.133,258.206,917.352,241.561,917.352,241.561z"/><path fill="#858EFF" d="M949.158,310.372c0,0,13.919-16.714,35.546-30.165c21.626-13.453,42.771-18.549,42.771-18.549      s-13.919,16.714-35.546,30.165C970.303,305.275,949.158,310.372,949.158,310.372z"/><rect width="374.894" height="601.805" x="500.451" y="175.546" fill="#FFF"/><path fill="#99A1FF" d="M846.257,143.256H531.353c-21.385,0-38.71,17.326-38.71,38.707v590.617     c0,11.663,5.177,22.142,13.357,29.242c0.273,0.231,0.548,0.466,0.822,0.698c6.678,5.492,15.233,8.766,24.531,8.766h314.904     c9.296,0,17.854-3.274,24.531-8.766c8.664-7.101,14.199-17.878,14.199-29.94V181.963     C884.987,160.583,867.64,143.256,846.257,143.256z M873.55,719.246c0,21.156-18.912,38.305-42.244,38.305H546.325     c-23.33,0-42.244-17.148-42.244-38.305V212.96c0-13.157,11.765-23.821,26.275-23.821h316.922     c14.511,0,26.273,10.664,26.273,23.821V719.246z"/><circle cx="688.815" cy="332.081" r="77.971" fill="#CCCFFF" transform="rotate(-64.957 688.83 332.072)"/><circle cx="687.654" cy="310.026" r="30.269" fill="#FFF" transform="rotate(-67.5 687.642 310.017)"/><path fill="#FFF" d="M715.417 340.539c-2.436-1.903-5.841-1.836-8.236.117-5.21 4.25-11.87 6.811-19.134 6.811-7.028 0-13.493-2.393-18.621-6.417-2.441-1.915-5.902-1.876-8.258.144-6.106 5.236-9.825 12.787-9.825 22.602v.885c0 5.076 4.115 9.19 9.191 9.19h56.564c5.076 0 9.191-4.115 9.191-9.19v-.885C726.288 353.563 722.134 345.787 715.417 340.539zM533.857 165.95c0 5.968-4.845 10.813-10.815 10.813-5.968 0-10.813-4.845-10.813-10.813 0-5.97 4.845-10.815 10.813-10.815C529.012 155.135 533.857 159.98 533.857 165.95z"/><path fill="#99A1FF" d="M530.359,165.949c0,4.038-3.277,7.316-7.316,7.316c-4.037,0-7.315-3.277-7.315-7.316        s3.278-7.317,7.315-7.317C527.081,158.632,530.359,161.911,530.359,165.949z"/><path fill="#FFF" d="M555.993 165.949c0 4.038-3.277 7.316-7.316 7.316-4.038 0-7.316-3.277-7.316-7.316s3.278-7.317 7.316-7.317C552.716 158.632 555.993 161.911 555.993 165.949zM746.737 172.539h-138.93c-3.411 0-6.175-2.764-6.175-6.175l0 0c0-3.41 2.764-6.174 6.175-6.174h138.93c3.411 0 6.174 2.765 6.174 6.174l0 0C752.911 169.775 750.148 172.539 746.737 172.539z"/><path fill="#99A1FF" d="M881.28 359.579L881.28 359.579V252.038l0 0c5.534 0 10.021 4.486 10.021 10.021v87.5C891.3 355.093 886.814 359.579 881.28 359.579zM881.28 434.062L881.28 434.062v-55.958l0 0c5.534 0 10.021 4.486 10.021 10.021v35.915C891.3 429.575 886.814 434.062 881.28 434.062z"/><path fill="#CCCFFF" d="M573.607 453.641h-6.354l-.883 2.99h-5.714l6.807-18.112h6.105l6.806 18.112h-5.861L573.607 453.641zM572.446 449.725l-1.999-6.511-1.978 6.511H572.446zM593.074 438.519h5.584v10.791c0 1.07-.167 2.08-.5 3.031-.334.951-.857 1.782-1.569 2.494-.712.712-1.46 1.212-2.242 1.5-1.087.403-2.393.605-3.916.605-.881 0-1.843-.062-2.885-.185-1.042-.124-1.913-.368-2.613-.735-.7-.366-1.34-.887-1.921-1.562-.581-.675-.978-1.37-1.192-2.087-.346-1.152-.519-2.173-.519-3.062v-10.791h5.584v11.048c0 .988.274 1.759.822 2.315.548.556 1.307.833 2.279.833.964 0 1.719-.274 2.267-.821.548-.547.822-1.323.822-2.327V438.519zM601.093 438.519h17.012v4.472h-5.708v13.639H606.8v-13.639h-5.708V438.519zM620.662 438.519h5.597v6.338h6.115v-6.338h5.621v18.112h-5.621v-7.326h-6.115v7.326h-5.597V438.519zM641.702 438.519H656.7v3.867h-9.389v2.879h8.71v3.694h-8.71v3.57h9.661v4.102h-15.27V438.519zM660.024 438.519h5.226l6.82 10.02v-10.02h5.275v18.112h-5.275l-6.783-9.945v9.945h-5.263V438.519zM679.791 438.519h17.012v4.472h-5.708v13.639h-5.597v-13.639h-5.708V438.519zM699.558 438.519h5.609v18.112h-5.609V438.519zM721.24 449.218l4.905 1.483c-.329 1.376-.848 2.525-1.557 3.447-.708.923-1.588 1.618-2.638 2.088-1.05.47-2.386.704-4.009.704-1.969 0-3.577-.286-4.824-.858-1.248-.572-2.325-1.578-3.231-3.018s-1.359-3.284-1.359-5.531c0-2.996.797-5.299 2.391-6.908 1.594-1.609 3.848-2.414 6.764-2.414 2.281 0 4.075.461 5.38 1.384 1.305.923 2.275 2.339 2.909 4.25l-4.942 1.1c-.173-.552-.354-.955-.544-1.211-.313-.428-.696-.758-1.149-.988-.453-.231-.96-.346-1.52-.346-1.268 0-2.24.51-2.916 1.53-.511.757-.766 1.946-.766 3.566 0 2.007.305 3.383.914 4.128.609.745 1.466 1.117 2.57 1.117 1.071 0 1.88-.301 2.428-.902C720.596 451.236 720.993 450.363 721.24 449.218zM739.998 453.641h-6.354l-.883 2.99h-5.714l6.807-18.112h6.105l6.806 18.112h-5.861L739.998 453.641zM738.837 449.725l-1.999-6.511-1.978 6.511H738.837zM745.53 438.519h17.012v4.472h-5.708v13.639h-5.597v-13.639h-5.708V438.519zM765.297 438.519h5.609v18.112h-5.609V438.519zM774.217 447.587c0-2.957.823-5.259 2.471-6.906 1.647-1.647 3.941-2.471 6.881-2.471 3.015 0 5.337.809 6.968 2.428 1.631 1.618 2.446 3.886 2.446 6.801 0 2.117-.356 3.853-1.069 5.207-.712 1.355-1.742 2.409-3.089 3.163-1.347.754-3.025 1.131-5.034 1.131-2.043 0-3.733-.325-5.071-.976-1.339-.651-2.424-1.68-3.255-3.089C774.633 451.467 774.217 449.704 774.217 447.587zM779.813 447.612c0 1.829.34 3.142 1.019 3.941.68.799 1.604 1.198 2.774 1.198 1.203 0 2.133-.391 2.792-1.173.659-.783.988-2.187.988-4.213 0-1.705-.344-2.951-1.032-3.737-.688-.786-1.621-1.18-2.798-1.18-1.129 0-2.035.4-2.718 1.198C780.155 444.445 779.813 445.767 779.813 447.612zM796.035 438.519h5.226l6.82 10.02v-10.02h5.275v18.112h-5.275l-6.783-9.945v9.945h-5.263V438.519z"/><g><path fill="#CCCFFF" d="M757.536,520.196H569.999c-5.16,0-9.343-4.183-9.343-9.343v-2.849c0-5.16,4.183-9.343,9.343-9.343     h187.538c5.16,0,9.343,4.183,9.343,9.343v2.849C766.879,516.014,762.696,520.196,757.536,520.196z"/></g><g><path fill="#CCCFFF" d="M751.596,569.76H626.035c-5.16,0-9.343-4.183-9.343-9.343v-2.849c0-5.16,4.183-9.343,9.343-9.343h125.561     c5.16,0,9.343,4.183,9.343,9.343v2.849C760.938,565.577,756.755,569.76,751.596,569.76z"/></g><g><path fill="#CCCFFF" d="M808.809,520.196H787.16c-5.16,0-9.343-4.183-9.343-9.343v-2.849c0-5.16,4.183-9.343,9.343-9.343h21.649     c5.16,0,9.343,4.183,9.343,9.343v2.849C818.152,516.014,813.969,520.196,808.809,520.196z"/></g><g><path fill="#FFF" d="M582.543 501.844l.707 4.962c.035.249.291.401.527.315l4.704-1.73c.422-.155.733.403.38.68l-3.944 3.094c-.198.155-.202.453-.009.613l3.851 3.209c.345.288.017.837-.4.669l-4.651-1.869c-.233-.094-.493.051-.536.299l-.854 4.939c-.076.443-.716.433-.779-.012l-.707-4.962c-.035-.249-.291-.401-.527-.315l-4.705 1.73c-.422.155-.733-.403-.38-.681l3.944-3.093c.198-.155.202-.453.009-.613l-3.851-3.209c-.345-.288-.017-.837.4-.669l4.651 1.869c.233.094.493-.051.536-.299l.854-4.939C581.841 501.39 582.48 501.399 582.543 501.844zM604.708 501.844l.707 4.962c.035.249.291.401.527.315l4.705-1.73c.422-.155.733.403.38.68l-3.944 3.094c-.198.155-.202.453-.009.613l3.851 3.209c.345.288.018.837-.4.669l-4.651-1.869c-.233-.094-.493.051-.536.299l-.854 4.939c-.077.443-.716.433-.779-.012l-.707-4.962c-.035-.249-.291-.401-.527-.315l-4.704 1.73c-.422.155-.733-.403-.38-.681l3.944-3.093c.198-.155.202-.453.009-.613l-3.851-3.209c-.345-.288-.018-.837.4-.669l4.651 1.869c.233.094.493-.051.536-.299l.854-4.939C604.005 501.39 604.645 501.399 604.708 501.844zM626.873 501.844l.707 4.962c.035.249.291.401.527.315l4.704-1.73c.422-.155.733.403.38.68l-3.944 3.094c-.198.155-.202.453-.009.613l3.851 3.209c.345.288.018.837-.4.669l-4.651-1.869c-.233-.094-.493.051-.536.299l-.854 4.939c-.077.443-.716.433-.779-.012l-.707-4.962c-.035-.249-.291-.401-.527-.315l-4.704 1.73c-.422.155-.733-.403-.38-.681l3.944-3.093c.198-.155.202-.453.009-.613l-3.851-3.209c-.345-.288-.018-.837.4-.669l4.651 1.869c.233.094.493-.051.536-.299l.854-4.939C626.17 501.39 626.81 501.399 626.873 501.844zM649.038 501.844l.707 4.962c.036.249.291.401.527.315l4.704-1.73c.422-.155.733.403.38.68l-3.944 3.094c-.198.155-.202.453-.009.613l3.851 3.209c.345.288.017.837-.4.669l-4.651-1.869c-.233-.094-.493.051-.536.299l-.854 4.939c-.077.443-.716.433-.779-.012l-.707-4.962c-.035-.249-.291-.401-.527-.315l-4.704 1.73c-.422.155-.733-.403-.38-.681l3.944-3.093c.198-.155.202-.453.009-.613l-3.851-3.209c-.345-.288-.018-.837.4-.669l4.651 1.869c.233.094.493-.051.536-.299l.854-4.939C648.335 501.39 648.974 501.399 649.038 501.844zM671.203 501.844l.707 4.962c.035.249.291.401.527.315l4.705-1.73c.422-.155.733.403.38.68l-3.944 3.094c-.198.155-.202.453-.009.613l3.851 3.209c.345.288.018.837-.4.669l-4.651-1.869c-.233-.094-.493.051-.536.299l-.854 4.939c-.077.443-.716.433-.779-.012l-.707-4.962c-.035-.249-.291-.401-.527-.315l-4.705 1.73c-.422.155-.733-.403-.38-.681l3.944-3.093c.198-.155.202-.453.009-.613l-3.851-3.209c-.345-.288-.018-.837.4-.669l4.651 1.869c.233.094.493-.051.536-.299l.854-4.939C670.5 501.39 671.139 501.399 671.203 501.844z"/></g><g><path fill="#CCCFFF" d="M566.383,227.318h-47.924c-1.365,0-2.472-1.106-2.472-2.472v-0.754c0-1.365,1.107-2.472,2.472-2.472     h47.924c1.365,0,2.472,1.107,2.472,2.472v0.754C568.854,226.211,567.748,227.318,566.383,227.318z"/></g><g><path fill="#CCCFFF" d="M566.383,242.813h-47.924c-1.365,0-2.472-1.107-2.472-2.472v-0.754c0-1.365,1.107-2.472,2.472-2.472     h47.924c1.365,0,2.472,1.107,2.472,2.472v0.754C568.854,241.707,567.748,242.813,566.383,242.813z"/></g><g><path fill="#CCCFFF" d="M566.383,258.309h-47.924c-1.365,0-2.472-1.107-2.472-2.472v-0.754c0-1.365,1.107-2.472,2.472-2.472     h47.924c1.365,0,2.472,1.107,2.472,2.472v0.754C568.854,257.202,567.748,258.309,566.383,258.309z"/></g><g><path fill="#CCCFFF" d="M702.749 680.308H538.376c-1.827 0-3.308-.739-3.308-1.65l0 0c0-.912 1.481-1.651 3.308-1.651h164.373c1.827 0 3.308.739 3.308 1.651l0 0C706.057 679.569 704.576 680.308 702.749 680.308zM786.97 713.061H628.069c-1.827 0-3.308-.739-3.308-1.65l0 0c0-.912 1.481-1.651 3.308-1.651H786.97c1.827 0 3.308.739 3.308 1.651l0 0C790.278 712.322 788.797 713.061 786.97 713.061zM788.243 680.307h-66.665c-1.827 0-3.309-.739-3.309-1.65l0 0c0-.911 1.482-1.65 3.309-1.65h66.665c1.827 0 3.308.739 3.308 1.65l0 0C791.55 679.569 790.069 680.307 788.243 680.307zM564.838 695.795h-26.462c-1.827 0-3.308-.739-3.308-1.65l0 0c0-.911 1.481-1.65 3.308-1.65h26.462c1.828 0 3.308.739 3.308 1.65l0 0C568.146 695.056 566.666 695.795 564.838 695.795zM600.588 713.06h-62.212c-1.827 0-3.308-.739-3.308-1.65l0 0c0-.911 1.481-1.65 3.308-1.65h62.212c1.827 0 3.308.739 3.308 1.65l0 0C603.896 712.321 602.414 713.06 600.588 713.06zM788.243 695.794h-31.806c-1.827 0-3.308-.739-3.308-1.65l0 0c0-.912 1.481-1.65 3.308-1.65h31.806c1.827 0 3.308.738 3.308 1.65l0 0C791.55 695.055 790.069 695.794 788.243 695.794zM734.236 695.794H587.484c-1.827 0-3.308-.739-3.308-1.65l0 0c0-.911 1.481-1.65 3.308-1.65h146.752c1.827 0 3.308.739 3.308 1.65l0 0C737.544 695.055 736.063 695.794 734.236 695.794z"/></g><g><path fill="#CCCFFF" d="M538.528,630.714h20.904c1.911,0,3.46,1.549,3.46,3.46v20.904c0,1.911-1.549,3.46-3.46,3.46h-20.904     c-1.911,0-3.46-1.549-3.46-3.46v-20.904C535.068,632.263,536.617,630.714,538.528,630.714z"/></g><g><path fill="#CCCFFF" d="M586.781,630.714h20.904c1.911,0,3.46,1.549,3.46,3.46v20.904c0,1.911-1.549,3.46-3.46,3.46h-20.904     c-1.911,0-3.46-1.549-3.46-3.46v-20.904C583.32,632.263,584.87,630.714,586.781,630.714z"/></g><g><path fill="#CCCFFF" d="M635.033,630.714h20.904c1.911,0,3.46,1.549,3.46,3.46v20.904c0,1.911-1.549,3.46-3.46,3.46h-20.904     c-1.911,0-3.46-1.549-3.46-3.46v-20.904C631.573,632.263,633.122,630.714,635.033,630.714z"/></g><g><path fill="#F9CBCB" d="M826.44,647.836c0,0,1.309,81.549,16.199,99.759c7.184,8.786,31.102,55.8,31.102,55.8       c2.678,0.372,5.166-0.168,7.094-3.375c-4.872-26.62-11.371-49.407-21.851-62.643c-5.47-37.541,10.573-53.925-7.126-89.523       L826.44,647.836z"/><path fill="#F9CBCB" d="M820.054,647.83c-6.282,39.132-4.014,61.433,0.924,102.262c0.05,0.414,0.123,0.834,0.217,1.238       l14.539,62.542l7.328,1.012c1.848-20.665,0.778-46.651-2.872-64.13c2.712-50.956,28.352-65.141,4.491-102.905L820.054,647.83z"/><path fill="#45359E" d="M869.442,764.619c-8.189-1.017-15.654-5.742-20.861,0.211c-3.809,4.343-8.212,7.88-13.674,9.674       c-2.314,0.767-4.803,1.233-7.533,1.306c-4.994,0.127-9.44-3.679-10.753-9.318c-2.498-10.791-6.321-30.594-6.307-50.975       c0.027-36.414,10.329-70.218,10.329-70.218s0.16-0.037,0.45-0.112c3.357-0.747,24.639-5.077,32.453,4.612       c8.488,10.534,14.693,24.457,12.537,51.579c-1.539,19.367,6.22,37.375,11.334,50.266       C879.966,758.108,875.512,765.392,869.442,764.619z"/><path fill="#F9CBCB" d="M826.219,584.635l-8.911,18.879c0,0-0.304-0.482-0.818-1.333c-3.401-5.511-16.297-26.622-19.567-35.04       c-2.629-6.779-3.114-24.188-2.64-36.008c0.18-4.384,0.488-8.013,0.874-10.037c0,0-5.521-5.047-0.395-7.854       c4.932-2.694,1.469-10.582,3.316-10.837c1.847-0.255,2.851,10.409,2.851,10.409s2.62-2.777,3.502-1.716       c1.332,1.575-3.203,10.003-3.203,10.003c0.641,1.944,1.25,3.936,1.826,5.959c2.98,10.473,5.011,21.861,6.046,34.099       C814.604,566.865,820.364,575.236,826.219,584.635z"/><path fill="#3E3279" d="M850.825,647.076l-31.813-0.023c1.659-7.225,5.725-11.093-0.237-27.494       c-2.485-6.827-2.914-12.609-2.284-17.378c1.582-11.851,9.729-17.546,9.729-17.546l7.632-4.282l9.331,0.006l9.374,6.655       c0,0-0.484,26.354-1.953,35.361C849.311,630.325,847.795,639.398,850.825,647.076z"/><path fill="#FE81DF" d="M856.073,652.011c-14.636,7.489-19.641-0.577-30.754-0.665c-0.868-0.001-1.783,0.047-2.73,0.143       c-3.373,0.367-6.101-2.655-5.536-5.995c1.758-10.261,1.172-21.599-1.403-36.905c-0.575-3.406-1.52-6.73-2.819-9.928       c-0.785-1.927-1.684-3.806-2.71-5.622c-4.796-8.579-10.971-20.179-13.198-25.897c-2.629-6.779-3.114-24.188-2.64-36.008       l8.771-4.073c2.98,10.473,5.188,20.833,6.994,33.682c4.461,4.644,8.487,11.296,12.962,18.671       c1.781,2.924,5.554,3.906,8.527,2.239l2.313-1.299l9.331,0.006l9.374,6.655c0,0-0.484,26.354-1.953,35.361       C849.311,630.325,853.043,644.332,856.073,652.011z"/><path fill="#F9CBCB" d="M884.71,625.453c-0.017,0.128-0.017,0.273-0.049,0.417c-0.307,2.553-1.915,5.475-4.133,8.429       c-4.212,5.602-10.672,11.298-14.818,14.7c-2.378,1.941-3.985,3.144-3.985,3.144c4.105,9.286-4.22,17.823-6.69,12.907       c-0.513-1.06,1.368-4.688,1.369-6.134c0.001-0.9-1.58-1.896-2.665-3.487c-1.233-1.808-0.188-4.063,0.568-5.123       c1.463-2.006,2.894-4.254,4.357-6.566c3.907-6.148,8.087-12.826,13.92-17.334c-9.84-5.242-16.471-7.591-23.26-13.796       l3.231-25.596C852.555,587.015,885.538,613.714,884.71,625.453z"/><path fill="#FE81DF" d="M884.71,625.453c-0.017,0.128-0.017,0.273-0.049,0.417c-1.383,2.842-2.782,5.699-4.133,8.429       c-4.212,5.602-10.672,11.298-14.818,14.7l-7.047-5.257c3.907-6.148,8.087-12.826,13.92-17.334       c-9.84-5.242-16.471-7.591-23.26-13.796l3.231-25.596C852.555,587.015,885.538,613.714,884.71,625.453z"/><path fill="#F9CBCB" d="M829.463,548.931c0,0-4.009,11.077-0.936,18.005c3.073,6.928,15.388,2.165,15.388,2.165       L829.463,548.931z"/><polygon fill="#F9CBCB" points="835.887 569.009 833.856 580.351 843.178 580.358 842.867 568.559"/><path fill="#45359E" d="M873.107 588.235c-.823-6.131 2.729-9.049.49-14.816-2.135-5.496-8.637-8.079-11.536-13.214-2.166-3.837-2.021-8.556-3.589-12.674-2.242-5.885-8.245-10.134-14.541-10.289-6.296-.156-12.502 3.789-15.032 9.557 0 0-3.342 5.972 1.559 14.294 2.642 4.485 9.718 8.381 11.285 13.345 2.905 9.207-9.677 21.753-6.119 30.728 1.934 4.878 7.522 4.814 8.551 9.959.923 4.613-7.587 8.047-.013 17.971 5.66 7.415 12.435 1.463 16.841 1.026 3.687-.366 10.011 3.463 16.773-.356 12.341-6.969 1.969-16.406 4.583-25.985C885.729 595.433 873.994 594.846 873.107 588.235zM843.379 811.469l1.184 6.066c.418 1.657.537 3.374.351 5.072l-.679 6.551-2.404-.019.214-4.147c-.106-1.072-1.454-1.483-2.139-.652l-2.244 2.719c-.648 1.218-1.829 2.076-3.195 2.271-4.17.598-12.318.85-12.693-1.883-.387-2.81 7.52-3.04 9.786-6.168 2.195-3.028 3.671-9.566 3.671-9.566C837.713 812.712 840.637 812.39 843.379 811.469zM880.835 800.019l3.828 4.667c1.083 1.321 1.922 2.824 2.478 4.44l2.176 6.217-2.183 1.007-1.573-3.843c-.552-.926-1.947-.723-2.213.321l-.871 3.415c-.068 1.378-.772 2.657-1.924 3.416-3.517 2.317-10.782 6.015-12.286 3.702-1.547-2.378 5.509-5.953 6.228-9.748.696-3.675-.753-10.219-.753-10.219C876.412 803.241 878.747 802.02 880.835 800.019z"/></g><g><path fill="#504E9C" d="M912.629,97.164v19.328c0,3.846-3.118,6.964-6.964,6.964l0,0c-3.846,0-6.964-3.118-6.964-6.964V98.898     c0-9.364-7.591-16.955-16.955-16.955h-39.488c-9.368,0-16.963,7.595-16.963,16.963v59.517h-13.928V97.164     c0-16.103,13.055-29.158,29.158-29.158h42.947C899.574,68.007,912.629,81.061,912.629,97.164z"/><path fill="#454487" d="M876.621 81.34h-39.488c-9.369 0-16.963 7.595-16.963 16.963v59.517h-8.803v.603h13.928V98.906c0-9.369 7.595-16.963 16.963-16.963h38.845C879.674 81.552 878.172 81.34 876.621 81.34zM884.366 68.029c13.215 2.775 23.138 14.493 23.138 28.532v19.328c0 3.224-2.193 5.928-5.167 6.721.989.539 2.122.846 3.328.846 3.846 0 6.964-3.118 6.964-6.964V97.164C912.629 81.361 900.054 68.504 884.366 68.029z"/><path fill="#FF7AE5" d="M944.274,157.465v20.291c0,20.607-9.206,39.257-24.096,52.761     c-14.891,13.504-35.459,21.855-58.185,21.855c-45.435,0-82.273-33.41-82.273-74.616v-20.291c0-2.458,0.447-4.823,1.271-7.034     c0.57-1.541,1.325-2.996,2.242-4.368c4.252-6.325,11.933-10.554,20.699-10.554h116.13c8.767,0,16.447,4.229,20.699,10.554     c0.909,1.371,1.672,2.827,2.242,4.368C943.828,152.643,944.274,155.008,944.274,157.465z"/><path fill="#F567D9" d="M926.023,136.18c3.728,3.862,5.992,8.915,5.992,14.451v20.295c0,41.207-36.836,74.611-82.276,74.611     c-13.207,0-25.684-2.826-36.744-7.841c13.689,9.218,30.642,14.674,49.003,14.674c45.44,0,82.276-33.405,82.276-74.611v-20.294     C944.273,147.203,936.512,138.589,926.023,136.18z"/><circle cx="861.997" cy="193.939" r="31.61" fill="#FFF"/><circle cx="861.997" cy="193.939" r="27.519" fill="#FFA8EE" transform="rotate(-22.5 861.96 193.934)"/><g><path fill="#504E9C" d="M871.157,184.705c0-5.225-4.374-9.428-9.66-9.146c-4.705,0.25-8.52,4.167-8.655,8.877      c-0.099,3.438,1.703,6.454,4.425,8.102l-1.663,20.968c-0.068,0.86,0.612,1.596,1.474,1.596h9.837      c0.863,0,1.543-0.736,1.474-1.596l-1.663-20.968C869.379,190.933,871.157,188.031,871.157,184.705z"/></g><g><path fill="#FFF" d="M943.003,150.432H780.991c0.57-1.541,1.325-2.996,2.242-4.368h157.529     C941.671,147.435,942.433,148.891,943.003,150.432z"/></g></g><g><path fill="#F9CBCB" d="M506.327,588.773c0,0-6.434,36.225-15.829,38.726c-4.253,1.132-9.716,0.182-14.932-1.584      c-8.82-2.985-16.928-8.293-17.209-9.741l-8.948-27.163c5.151,2.22,34.494,18.947,36.892,20.549      c3.882-5.828,12.302-20.993,12.578-22.106c0,0-1.817-8.172-0.212-10.472c1.426-2.036,1.951,4.64,2.553,3.831      c0.656-0.891,4.543-10.341,7.128-7.58C514.089,579.386,506.327,588.773,506.327,588.773z"/><path fill="#FEA0E7" d="M481.349,605.713c-0.673,7.089-4.783,16.672-5.211,21.113c-8.821-2.984-19.455-3.984-19.735-5.432      l-6.994-32.383C454.56,591.231,471.111,599.639,481.349,605.713z"/><path fill="#F1CCCD" d="M447.046,743.469c-1.853,6.901-2.998,13.095-3.605,18.854c-1.561,14.712-1.121,37.365,1.571,51.683      l7.544-0.741c0,0,10.657-38.699,15.693-58.489c1.295-5.021,2.299-9.507,2.822-12.89c3.043-19.311-8.228-74.021-8.951-77.563      l-0.03-0.136l-0.01-0.05l-30.354-4.24C415.599,698.27,434.729,707.922,447.046,743.469z"/><path fill="#3A2B8F" d="M432.735,711.939c4.283,8.813,9.759,18.4,14.311,31.53c-1.68,6.251-3.592,12.749-5.802,20.325      l26.253,3.667c1.294-5.021,3.05-22.192,3.573-25.575c3.043-19.311-8.228-74.021-8.951-77.563l-0.03-0.136l-0.01-0.05      l-30.354-4.24C421.545,684.105,425.407,696.875,432.735,711.939z"/><path fill="#342680" d="M432.735,711.939c4.283,8.813,9.759,18.4,14.311,31.53c-1.68,6.251-3.592,12.749-5.802,20.325      l4.844,0.677c0.831-7.495,7.452-19.818,9.675-19.422c-1.97-0.487-20.013-35.82-21.385-48.056L432.735,711.939z"/><path fill="#F1CCCD" d="M415.268,822.841l-18.494-21.437c0,0,13.58-21.209,24.568-35.311c2.608-3.375,5.07-6.325,7.173-8.51      c15.048-15.585,22.905-94.13,22.905-94.13h-24.878c-19.503,17.929-14.591,42.614-15.167,67      c-0.199,8.452-2.918,16.602-7.483,23.719c-0.919,1.433-1.785,2.886-2.603,4.373c-5.69,10.384-9.064,22.562-12.178,42.565      l-3.851,12.983L415.268,822.841z"/><path fill="#45359E" d="M400.035,758.121l7.189,3.293l14.608,6.684c2.608-3.374,4.581-8.33,6.684-10.515      c15.048-15.585,24.763-94.44,24.763-94.44l-25.676,0.293l-1.06,0.016c-18.851,17.328-14.893,40.97-15.126,64.552      c-0.095,9.623-3.206,19.017-9.076,26.644C401.479,755.767,400.695,756.916,400.035,758.121z"/><path fill="#3A2B8F" d="M400.035,758.121l7.189,3.293c2.332-3.652,5.836-10.588,7.687-15.273      c4.891-12.38,1.883-29.192,3.057-52.83c0.865-17.417,15.586-25.88,15.586-25.88l-5.951-3.994l-1.06,0.016      c-18.851,17.328-14.893,40.97-15.126,64.552c-0.095,9.623-3.206,19.017-9.076,26.644      C401.479,755.767,400.695,756.916,400.035,758.121z"/><path fill="#FE81DF" d="M413.908,612.752c0.212,15.683,4.076,42.876,5.543,52.657c0.212,1.418,0.995,2.641,2.103,3.407      c0.603,0.424,1.321,0.717,2.087,0.831c7.026,1.043,13.906,1.614,20.606,1.597c6.032,0,11.917-0.456,17.639-1.45      c2.234-0.391,3.945-2.185,4.19-4.435c0.799-7.401-1.523-23.638-1.148-39.436c0.244-9.993-2.891-35.573-21.553-39.597      l-10.932-0.099c-12.259,3.179-17.395,12.553-18.242,19.106C413.941,607.274,413.859,609.817,413.908,612.752z"/><path fill="#3A2B8F" d="M453.441 811.107c11.61 4.457 24.492 3.998 25.295 14.476l-36.528-1.275c-.43-4.441.309-8.841 2.214-13.201H453.441zM396.775 801.404c9.293 8.264 23.195 14.091 20.252 24.179l-33.733-11.277c1.164-4.307 2.724-11.223 6.045-14.631L396.775 801.404z"/><path fill="#45359E" d="M439.969,576.685c-3.559,1.101-4.997,2.878-9.549,0.821c-6.926-3.129-12.772-15.117-3.575-20.538       c0.636-1.898,1.276-2.637,3.701-3.163c2.423-0.526,4.908,0.529,8.249,0.471c3.341-0.057,8.067-3.497,10.979,1.362       c2.913,4.858-4.309,8.636-7.929,11.028C438.225,569.058,439.399,573.185,439.969,576.685z"/><path fill="#F9CBCB" d="M432.289,586.256c3.978,3.978,7.73,4.74,11.087,0.07l-0.945-7.673l-0.395-3.231h-8.802l-0.169,2.003       L432.289,586.256z"/><path fill="#F0B4B4" d="M432.939,578.854c2.175,2.618,8.169,3.375,9.794,2.253l-0.697-5.683l-8.852-3.715L432.939,578.854z"/><path fill="#F9CBCB" d="M446.547,560.038c1.62,4.566,3.207,14.66-0.667,18.414c-2.453,2.376-11.353,1.457-13.171-5.078       c-2.147-1.555-3.723-5.345-1.744-7.065c1.41-1.226,3.211,2.013,5.671,1.477c0.933-0.203-1.933-6.439,0.979-7.519       C440.528,559.188,443.61,561.529,446.547,560.038z"/><g><path fill="#5544B3" d="M499.249,577.74l-0.041,0.015c-0.765,0.302-1.204,1.108-0.915,1.887l2.552,6.892      c1.48,3.996,5.909,6.031,9.905,4.552c0.156-0.058,0.309-0.124,0.453-0.187c0.178-0.075,0.352-0.158,0.52-0.258      c0.104-0.048,0.204-0.104,0.302-0.168c0.261-0.153,0.512-0.33,0.753-0.512c0.089-0.061,0.167-0.127,0.251-0.205      c0.065-0.052,0.13-0.104,0.191-0.164c0.121-0.101,0.231-0.207,0.338-0.321c0.11-0.106,0.217-0.22,0.316-0.332      c-0.003-0.008,0.005-0.011,0.005-0.011c1.795-2.055,2.437-5.008,1.423-7.748l-2.546-6.876c-0.283-0.763-1.126-1.151-1.889-0.868      l-1.345,0.498c-1.026,0.38-2.153-0.145-2.53-1.163l-1.446-3.905c-0.015-0.041-0.034-0.09-0.041-0.134      c-0.021-0.057-0.034-0.118-0.039-0.181c-0.016-0.069-0.026-0.121-0.031-0.184c-0.005-0.063-0.01-0.127-0.003-0.185      c-0.005-0.064,0.001-0.122,0.008-0.18c0.003-0.066,0.01-0.125,0.024-0.186c0.027-0.178,0.085-0.349,0.174-0.512      c0.026-0.056,0.055-0.104,0.089-0.164c0.124-0.195,0.286-0.386,0.484-0.534c0.089-0.061,0.187-0.125,0.29-0.173      c0.071-0.036,0.134-0.068,0.208-0.096l14.637-5.42c0.861-0.319,1.82,0.128,2.139,0.99l1.653,4.464      c0.322,0.87-0.117,1.825-0.978,2.144l-0.033,0.012c-0.172,0.064-0.327,0.149-0.465,0.256c-0.566,0.461-0.785,1.28-0.554,2.006      l3.166,8.549c0.167,0.451,0.499,0.795,0.904,0.981c0.101,0.047,0.203,0.093,0.314,0.117c0.084,0.025,0.181,0.036,0.27,0.049      c0.028-0.001,0.067,0.003,0.094,0.002c0.114,0.004,0.232-0.002,0.348-0.017c0.088-0.014,0.181-0.039,0.267-0.061l0.033-0.012      c0.506-0.169,1.029-0.12,1.449,0.107c0.096,0.058,0.184,0.118,0.263,0.182c0,0,0.008-0.003,0.003,0.008      c0.077,0.056,0.137,0.117,0.192,0.19c0.049,0.056,0.09,0.116,0.13,0.176c0.064,0.097,0.112,0.201,0.151,0.308l2.303,6.219      l5.826-2.157c2.117-0.784,4.32-0.881,6.362-0.406c0.742,0.164,1.458,0.412,2.145,0.727c2.586,1.188,4.717,3.366,5.783,6.246      c2.133,5.76-0.807,12.157-6.567,14.29l-137.792,51.024l-7.723-20.857l89.211-33.035l-2.251-6.08      c-0.349-0.943,0.131-1.989,1.075-2.338l1.206-0.447c0.919-0.34,1.392-1.355,1.052-2.274l-3.166-8.549      c-0.337-0.911-1.36-1.381-2.28-1.04l-1.698,0.629c-0.673,0.249-1.415-0.092-1.661-0.756l-1.917-5.177      c-0.249-0.673,0.092-1.415,0.765-1.664l14.99-5.551c1.018-0.377,2.153,0.145,2.53,1.162l1.446,3.905      c0.118,0.32,0.146,0.646,0.104,0.96c-0.021,0.12-0.042,0.239-0.085,0.349c-0.088,0.266-0.233,0.506-0.428,0.709      c-0.023,0.037-0.059,0.068-0.093,0.1c-0.032,0.04-0.067,0.071-0.113,0.098c-0.048,0.046-0.1,0.084-0.162,0.116      c-0.052,0.038-0.106,0.067-0.16,0.097C499.345,577.695,499.296,577.713,499.249,577.74z"/><path fill="#3C2B99" d="M488.819 597.041c.917-.34 1.385-1.358 1.045-2.275l-.019-.052-.779.289c-.943.349-1.424 1.397-1.075 2.339l.002.005L488.819 597.041zM513.88 588.931c-.819.94-1.878 1.694-3.13 2.157-3.993 1.479-8.429-.56-9.907-4.553l-2.475-6.683c-.184.172-.405.311-.655.404-.761.282-1.15 1.128-.868 1.89l2.546 6.874c1.479 3.993 5.914 6.031 9.907 4.553C511.524 592.749 513.14 591.004 513.88 588.931zM546.124 585.311c-1.244-.674-4.087-.338-6.881-.033L401.67 636.221l.967 2.611L546.124 585.311zM505.509 568.733l14.381-5.325c.864-.32 1.823.121 2.143.985l1.633 4.411c.145-.117.305-.218.489-.286.864-.32 1.305-1.279.985-2.144l-1.654-4.467c-.32-.864-1.28-1.305-2.143-.985l-14.636 5.42C505.733 566.703 505.224 567.751 505.509 568.733zM480.601 577.384l.186.503 14.114-5.226c1.019-.377 2.152.143 2.529 1.162l1.446 3.904c.02.055.028.11.043.165.078-.047.16-.088.248-.121 1.019-.377 1.54-1.51 1.162-2.529l-1.446-3.904c-.377-1.019-1.51-1.54-2.529-1.162l-14.992 5.551C480.694 575.975 480.353 576.716 480.601 577.384z"/><path fill="#3C2B99" d="M523.104,570.782l3.169,8.558c0.167,0.451,0.499,0.795,0.904,0.981c0.101,0.047,0.211,0.09,0.314,0.117       c0.092,0.022,0.181,0.036,0.27,0.049c0.028-0.001,0.058,0.006,0.094,0.002c0.114,0.004,0.232-0.002,0.348-0.017       c0.088-0.014,0.181-0.039,0.267-0.061l0.082-0.03c0.484-0.179,1.001-0.119,1.4,0.125c0.096,0.058,0.184,0.118,0.263,0.182       c0,0,0.008-0.003,0.003,0.008c0.077,0.056,0.137,0.117,0.192,0.19c0.049,0.056,0.09,0.116,0.13,0.176       c0.064,0.097,0.112,0.201,0.151,0.308l2.303,6.219l5.826-2.157c2.117-0.784,4.32-0.881,6.362-0.406l-13.636,5.05l-2.306-6.227       c-0.319-0.862-1.283-1.298-2.144-0.979c-0.919,0.34-1.934-0.133-2.274-1.052l-3.163-8.541c-0.34-0.919,0.125-1.931,1.044-2.271       C522.85,570.951,522.985,570.863,523.104,570.782z"/><g><path fill="#5544B3" d="M350.682,620.956c-14.927,5.528-22.575,22.169-17.047,37.097c1.744,4.711,4.598,8.694,8.152,11.77      c-0.694,4.649-0.265,9.53,1.479,14.241c5.528,14.928,22.169,22.575,37.097,17.048c14.924-5.527,22.571-22.163,17.05-37.088      c1.533-0.045,3.082-0.324,4.597-0.885c7.501-2.777,11.343-11.139,8.566-18.64c-2.778-7.501-11.14-11.344-18.64-8.566      c-1.518,0.562-2.876,1.361-4.07,2.327c-0.031-0.085-0.056-0.17-0.087-0.255C382.251,623.076,365.609,615.428,350.682,620.956z       M353.416,628.34c10.855-4.02,22.958,1.542,26.978,12.398c0.828,2.235,1.243,4.522,1.296,6.781      c-6.563-2.812-14.168-3.222-21.376-0.553s-12.711,7.934-15.861,14.342c-1.432-1.749-2.606-3.755-3.433-5.99      C336.999,644.462,342.561,632.36,353.416,628.34z M367.997,667.716c-5.874,2.175-12.111,1.54-17.237-1.216      c2.094-5.43,6.414-9.974,12.288-12.149c5.874-2.175,12.111-1.54,17.237,1.216C378.191,660.997,373.871,665.541,367.997,667.716z       M377.629,693.726c-10.855,4.02-22.958-1.542-26.978-12.398c-0.828-2.235-1.243-4.522-1.296-6.781      c6.564,2.811,14.168,3.222,21.376,0.553c7.209-2.669,12.712-7.934,15.861-14.342c1.431,1.749,2.606,3.755,3.433,5.99      C394.046,677.604,388.484,689.706,377.629,693.726z M403.191,647.232c1.27,3.429-0.487,7.252-3.916,8.522      c-3.429,1.27-7.252-0.486-8.522-3.916c-1.27-3.429,0.487-7.252,3.917-8.522C398.098,642.046,401.921,643.803,403.191,647.232z"/></g><g><path fill="#F5B84E" d="M341.565,671.852C341.565,671.852,341.564,671.851,341.565,671.852       c-0.001,0.003-0.001,0.008-0.001,0.012C341.564,671.86,341.564,671.856,341.565,671.852z"/><path fill="#3C2B99" d="M380.063 657.596c-.181-.098-.367-.186-.551-.278-2.292 4.645-6.285 8.462-11.514 10.398-5.666 2.098-11.667 1.576-16.686-.938-.282.572-.544 1.155-.773 1.751 5.126 2.757 11.363 3.391 17.237 1.216S377.968 663.026 380.063 657.596zM377.407 695.756c8.044-2.979 13.176-10.396 13.662-18.455-1.154 7.253-6.077 13.699-13.44 16.426-10.855 4.02-22.958-1.542-26.978-12.398-.561-1.514-.918-3.053-1.115-4.59-.134-.055-.27-.105-.402-.162.053 2.259.468 4.546 1.296 6.781C354.449 694.214 366.551 699.775 377.407 695.756zM339.754 646.795c-.547 3.44-.251 7.06 1.043 10.553.827 2.235 2.002 4.241 3.433 5.99 3.149-6.408 8.652-11.673 15.861-14.342 7.208-2.669 14.813-2.259 21.376.553-.017-.728-.086-1.46-.18-2.191-6.471-2.659-13.911-3.006-20.974-.391-7.208 2.669-12.711 7.934-15.861 14.342-1.432-1.749-2.606-3.755-3.433-5.99C339.978 652.507 339.584 649.612 339.754 646.795z"/><path fill="#3C2B99" d="M350.682,620.956c-10.907,4.039-17.919,14.013-18.753,24.914c1.497-10.095,8.305-19.098,18.531-22.885       c14.927-5.528,31.569,2.12,37.097,17.048c0.031,0.085,0.057,0.17,0.087,0.255c1.194-0.966,2.552-1.765,4.07-2.327       c7.5-2.777,15.863,1.065,18.64,8.566c0.674,1.82,0.951,3.69,0.888,5.519c0.436-2.453,0.26-5.047-0.666-7.548       c-2.778-7.501-11.14-11.344-18.64-8.566c-1.518,0.562-2.876,1.361-4.07,2.327c-0.031-0.085-0.056-0.17-0.087-0.255       C382.251,623.076,365.609,615.428,350.682,620.956z"/><path fill="#3C2B99" d="M403.373 651.239c-.538 2.009-2.004 3.739-4.098 4.514-3.429 1.27-7.252-.486-8.522-3.916-.241-.652-.372-1.318-.404-1.978-.343 1.28-.312 2.673.182 4.007 1.27 3.429 5.093 5.186 8.522 3.916C401.83 656.754 403.509 654.052 403.373 651.239zM397.191 666.052c1.487 4.018 2.01 8.159 1.703 12.175.592-3.993.347-8.155-.84-12.234C397.766 666.018 397.478 666.043 397.191 666.052z"/></g></g><g><path fill="#F9CBCB" d="M428.864,630.787c0,0,13.175,7.781,23.714,10.88c2.517,0.728,4.868,1.193,6.865,1.232       c13.829,0.255,40.613-13.459,40.613-13.459c10.468,1.341,20.689-5.346,21.701-9.472c1.768-7.364-10.713,3.459-13.393,0.396       c0,0,5.365-6.021,2.546-7.999c-2.812-1.999-11.889,9.269-11.889,9.269c-13.483-0.623-26.27,0.953-37.73,4.204       c-1.348-0.938-2.697-1.875-4.067-2.783c-9.897-6.499-20.577-11.816-33.083-13.408C421.424,618.185,424,624.892,428.864,630.787       z"/><path fill="#FEA0E7" d="M450.076,642.896l8.704-21.446c-9.898-6.499-29.737-21.41-35.897-10.411       C414.681,625.683,439.537,639.797,450.076,642.896z"/></g></g><g><path fill="#7D65E0" d="M940.944 750.061c-3.125-1.877-5.857-4.39-7.966-7.366-.988-1.396-1.922-2.909-2.5-4.533l.131.091c.444.105 3.506.785 5.339-.964 1.49-1.422 1.545-3.856 1.589-5.8.015-.686-.022-1.26-.061-1.667-.54.683-1.405 1.616-2.682 2.402-1.011.622-1.535.693-2.196 1.116-.854.546-1.835 1.616-2.4 3.913-.427-1.67-.323-3.384-.116-5.083.205-1.687.513-3.385.418-5.091-.072-1.304-.425-2.513-1.088-3.6.816.169 3.487.579 5.149-1.007 1.491-1.422 1.546-3.855 1.589-5.8.016-.685-.022-1.259-.061-1.667-.54.683-1.405 1.617-2.682 2.402-1.011.622-1.535.693-2.196 1.116-.872.558-1.878 1.661-2.436 4.064-1.176-1.444-2.673-2.679-4.132-3.819-.719-.561-1.468-1.077-2.221-1.589 1.042.175 3.356.365 4.852-1.062 1.49-1.423 1.545-3.856 1.59-5.801.015-.686-.023-1.26-.062-1.667-.54.683-1.405 1.616-2.682 2.402-1.011.622-1.534.693-2.196 1.116-.905.579-1.951 1.743-2.496 4.333-.386-.266-.769-.536-1.146-.816-1.64-1.216-3.016-2.729-3.356-4.801l.274.19c.444.105 3.506.785 5.339-.964 1.49-1.422 1.546-3.856 1.589-5.801.015-.686-.022-1.26-.061-1.667-.54.683-1.405 1.616-2.682 2.402-1.011.622-1.535.693-2.196 1.116-.832.533-1.785 1.561-2.357 3.74-.043-1.471.312-2.942.749-4.359l.519-.147c.377-.288 2.942-2.302 2.744-4.929-.161-2.136-2.081-3.784-3.616-5.102-.541-.465-1.027-.813-1.381-1.05.193.885.373 2.195.163 3.74-.166 1.223-.454 1.691-.55 2.501-.131 1.111.116 2.726 1.85 4.878-.43 1.394-.774 2.826-.77 4.285.004 1.487.445 2.87 1.305 4.044-.862-.618-2.527-1.56-4.221-1.084-1.837.516-2.939 2.483-3.82 4.054-.31.554-.529 1.04-.674 1.39.738-.324 1.851-.712 3.238-.8 1.097-.07 1.556.1 2.28.041 1.017-.082 2.424-.603 4.045-2.607l-.029-.056c1.102 1.09 2.443 1.914 3.719 2.781.952.646 1.874 1.336 2.764 2.065l-.077-.042c-.419-.056-3.303-.403-4.833 1.377-1.244 1.447-1.072 3.694-.935 5.491.048.633.135 1.159.209 1.531.436-.679 1.147-1.618 2.253-2.459.875-.665 1.351-.779 1.922-1.229.788-.622 1.656-1.808 1.912-4.293.552.467 1.092.949 1.616 1.448.538.512 1.04 1.043 1.474 1.614-.005.024-.01.047-.015.072l.139.096c.642.884 1.117 1.863 1.3 3.012.183 1.146.124 2.308-.002 3.462l-.404-.268c-.413-.089-3.262-.658-4.925.997-1.352 1.346-1.356 3.6-1.358 5.402-.001.635.045 1.166.089 1.542.487-.643 1.269-1.524 2.437-2.277.924-.596 1.407-.671 2.011-1.076.705-.472 1.498-1.342 1.997-3.083-.023.177-.047.353-.07.529-.22 1.682-.432 3.4-.155 5.089.077.466.191.923.333 1.371-.001.007-.003.013-.004.021l.013.009c.457 1.429 1.208 2.769 2.016 4.02 2.211 3.427 5.211 6.312 8.705 8.41C940.957 750.409 941.106 750.157 940.944 750.061zM958.481 750.891c3.173-1.796 5.969-4.236 8.154-7.157 1.024-1.37 1.998-2.858 2.617-4.467l-.134.088c-.447.093-3.525.694-5.313-1.102-1.453-1.461-1.445-3.894-1.438-5.84.002-.686.055-1.258.105-1.665.522.697 1.363 1.652 2.619 2.471.995.648 1.516.732 2.166 1.172.84.568 1.792 1.662 2.298 3.973.47-1.658.41-3.374.248-5.078-.161-1.692-.425-3.397-.286-5.101.106-1.301.49-2.502 1.182-3.57-.82.147-3.502.488-5.122-1.14-1.453-1.46-1.445-3.894-1.438-5.84.002-.686.055-1.258.105-1.665.522.697 1.363 1.652 2.619 2.471.994.648 1.516.733 2.166 1.172.858.581 1.835 1.71 2.331 4.126 1.213-1.413 2.741-2.609 4.23-3.711.733-.543 1.496-1.039 2.261-1.531-1.047.148-3.364.278-4.822-1.187-1.453-1.461-1.445-3.894-1.438-5.84.002-.686.055-1.259.105-1.665.522.697 1.363 1.652 2.62 2.471.994.648 1.516.733 2.166 1.173.889.602 1.905 1.793 2.383 4.395.393-.256.783-.516 1.167-.785 1.671-1.173 3.085-2.65 3.479-4.713l-.279.183c-.446.093-3.525.694-5.312-1.102-1.453-1.461-1.445-3.895-1.438-5.84.002-.686.055-1.259.105-1.665.522.697 1.363 1.652 2.62 2.471.995.648 1.516.733 2.166 1.172.818.554 1.744 1.607 2.259 3.8.081-1.47-.235-2.949-.636-4.377l-.515-.161c-.369-.297-2.882-2.377-2.616-4.998.216-2.131 2.178-3.729 3.747-5.006.553-.451 1.048-.786 1.407-1.013-.216.879-.43 2.185-.26 3.735.135 1.227.411 1.702.485 2.514.103 1.114-.186 2.721-1.975 4.828.393 1.405.701 2.845.658 4.304-.043 1.487-.519 2.857-1.409 4.009.878-.596 2.567-1.493 4.248-.974 1.823.563 2.873 2.558 3.713 4.152.296.562.502 1.053.638 1.407-.729-.343-1.832-.759-3.216-.883-1.095-.098-1.558.059-2.281-.018-1.014-.108-2.407-.666-3.976-2.71l.03-.055c-1.13 1.061-2.492 1.85-3.79 2.683-.968.622-1.908 1.287-2.816 1.993l.078-.041c.42-.045 3.313-.317 4.795 1.502 1.206 1.479.976 3.721.792 5.513-.065.632-.165 1.155-.249 1.525-.417-.69-1.105-1.647-2.188-2.517-.857-.688-1.33-.814-1.889-1.278-.772-.642-1.608-1.85-1.8-4.341-.564.453-1.116.921-1.653 1.406-.551.498-1.067 1.016-1.515 1.575.004.024.009.048.013.072l-.141.093c-.665.867-1.165 1.834-1.378 2.977-.212 1.141-.184 2.304-.088 3.461l.411-.257c.415-.078 3.278-.573 4.898 1.125 1.317 1.381 1.261 3.634 1.218 5.436-.015.635-.075 1.164-.13 1.539-.469-.655-1.229-1.556-2.377-2.339-.908-.62-1.39-.708-1.982-1.128-.693-.49-1.463-1.38-1.917-3.133.019.177.038.354.056.531.177 1.687.344 3.41.023 5.092-.089.464-.214.917-.368 1.362.001.007.002.013.004.02l-.013.009c-.494 1.417-1.279 2.736-2.119 3.967-2.299 3.368-5.373 6.174-8.92 8.182C958.459 751.24 958.317 750.984 958.481 750.891zM951.258 749.915c-1.955-3.077-3.274-6.547-3.827-10.152-.259-1.691-.417-3.462-.208-5.173l.077.14c.35.293 2.784 2.271 5.207 1.527 1.969-.605 3.108-2.756 4.017-4.476.321-.606.544-1.136.691-1.518-.788.369-1.98.816-3.474.947-1.182.104-1.682-.067-2.463.015-1.008.106-2.364.623-3.897 2.425.365-1.684 1.226-3.17 2.171-4.597.938-1.417 1.973-2.798 2.653-4.366.519-1.198.745-2.438.638-3.707.654.516 2.86 2.079 5.055 1.404 1.969-.605 3.107-2.756 4.017-4.476.321-.606.544-1.136.691-1.519-.788.37-1.98.817-3.474.948-1.182.104-1.682-.067-2.463.015-1.03.109-2.423.645-3.998 2.544-.406-1.817-1.191-3.592-1.986-5.265-.392-.824-.831-1.621-1.274-2.415.853.623 2.838 1.828 4.814 1.221 1.969-.605 3.107-2.756 4.017-4.476.321-.606.544-1.136.691-1.518-.788.369-1.98.817-3.474.948-1.182.104-1.682-.067-2.462.015-1.068.113-2.525.685-4.171 2.758-.226-.411-.448-.824-.66-1.242-.922-1.822-1.476-3.79-.853-5.795l.16.292c.35.293 2.784 2.271 5.206 1.527 1.969-.605 3.108-2.756 4.017-4.476.321-.606.544-1.136.691-1.518-.788.369-1.98.816-3.474.948-1.182.104-1.682-.067-2.463.015-.983.104-2.296.597-3.781 2.29.62-1.335 1.595-2.491 2.621-3.562l.53.1c.466-.089 3.661-.741 4.66-3.179.812-1.982-.167-4.315-.95-6.18-.276-.658-.555-1.187-.765-1.557-.223.878-.648 2.13-1.528 3.418-.696 1.019-1.163 1.309-1.611 1.99-.615.935-1.116 2.489-.529 5.19-1.008 1.055-1.957 2.181-2.607 3.488-.662 1.332-.886 2.765-.643 4.201-.494-.938-1.562-2.525-3.29-2.858-1.873-.361-3.739.905-5.23 1.916-.526.357-.938.693-1.225.942.805.04 1.974.192 3.253.734 1.012.429 1.347.786 2.021 1.057.946.382 2.437.545 4.784-.521l-.001-.063c.497 1.468 1.328 2.805 2.081 4.151.562 1.004 1.078 2.033 1.547 3.084l-.05-.072c-.349-.238-2.773-1.838-4.938-.932-1.76.737-2.612 2.824-3.293 4.493-.24.588-.397 1.097-.498 1.462.693-.412 1.75-.934 3.115-1.191 1.08-.204 1.557-.092 2.269-.239.983-.203 2.29-.876 3.631-2.984.285.665.552 1.338.797 2.019.252.698.463 1.398.596 2.102-.015.02-.03.038-.046.058l.081.149c.179 1.077.165 2.166-.185 3.275-.349 1.107-.922 2.119-1.551 3.095l-.241-.421c-.33-.264-2.623-2.049-4.851-1.312-1.812.599-2.823 2.613-3.632 4.223-.285.568-.481 1.063-.61 1.419.723-.357 1.817-.795 3.198-.946 1.093-.119 1.559.029 2.28-.062.841-.107 1.94-.53 3.165-1.863-.1.148-.2.295-.299.442-.95 1.406-1.908 2.847-2.416 4.482-.14.451-.243.91-.316 1.374-.004.006-.008.011-.013.017l.008.014c-.231 1.482-.159 3.016.003 4.497.444 4.054 1.835 7.976 4.021 11.417C951.113 750.232 951.359 750.074 951.258 749.915z"/><path fill="#9D8DE0" d="M944.014,751.094c-2.775-3.439-4.838-7.437-5.998-11.704c-0.543-2.001-0.976-4.112-0.957-6.202     l0.112,0.159c0.461,0.304,3.664,2.354,6.48,1.127c2.289-0.998,3.365-3.745,4.226-5.941c0.303-0.774,0.5-1.443,0.624-1.923     c-0.899,0.552-2.272,1.255-4.054,1.617c-1.41,0.287-2.035,0.149-2.964,0.355c-1.2,0.266-2.762,1.074-4.362,3.454     c0.21-2.078,1.043-3.986,1.986-5.834c0.937-1.835,1.994-3.64,2.597-5.621c0.461-1.514,0.563-3.038,0.261-4.552     c0.858,0.532,3.728,2.112,6.28,1c2.289-0.998,3.365-3.745,4.226-5.941c0.303-0.774,0.5-1.443,0.625-1.923     c-0.899,0.552-2.273,1.255-4.054,1.617c-1.41,0.287-2.035,0.149-2.964,0.355c-1.226,0.272-2.83,1.109-4.467,3.61     c-0.737-2.133-1.926-4.163-3.112-6.069c-0.584-0.939-1.222-1.838-1.865-2.735c1.113,0.634,3.667,1.814,5.965,0.812     c2.289-0.998,3.365-3.745,4.226-5.941c0.303-0.774,0.5-1.443,0.625-1.923c-0.899,0.552-2.273,1.254-4.054,1.617     c-1.41,0.287-2.035,0.149-2.964,0.355c-1.271,0.282-2.948,1.171-4.646,3.892c-0.328-0.464-0.652-0.931-0.965-1.406     c-1.36-2.068-2.295-4.363-1.819-6.863l0.232,0.331c0.461,0.305,3.664,2.354,6.48,1.127c2.289-0.998,3.366-3.745,4.226-5.941     c0.303-0.774,0.5-1.443,0.624-1.923c-0.899,0.552-2.273,1.254-4.054,1.617c-1.41,0.287-2.036,0.15-2.964,0.355     c-1.169,0.259-2.683,1.033-4.241,3.276c0.564-1.693,1.581-3.219,2.669-4.649l0.652,0.048c0.549-0.17,4.308-1.393,5.178-4.467     c0.706-2.498-0.792-5.174-1.99-7.314c-0.422-0.754-0.831-1.353-1.134-1.77c-0.149,1.087-0.49,2.654-1.373,4.326     c-0.699,1.323-1.221,1.735-1.668,2.617c-0.613,1.21-1.004,3.151,0.073,6.323c-1.07,1.409-2.059,2.895-2.662,4.558     c-0.615,1.695-0.689,3.452-0.2,5.147c-0.723-1.063-2.227-2.828-4.353-2.992c-2.306-0.178-4.38,1.601-6.038,3.023     c-0.584,0.501-1.035,0.963-1.346,1.302c0.976-0.061,2.404-0.039,4.019,0.439c1.278,0.378,1.73,0.762,2.579,0.997     c1.191,0.33,3.01,0.323,5.69-1.282l-0.01-0.076c0.8,1.7,1.984,3.197,3.075,4.715c0.814,1.133,1.576,2.302,2.285,3.502     l-0.069-0.08c-0.453-0.238-3.592-1.835-6.075-0.446c-2.019,1.129-2.76,3.759-3.352,5.861c-0.209,0.741-0.329,1.376-0.4,1.829     c0.779-0.591,1.98-1.364,3.589-1.861c1.273-0.393,1.862-0.324,2.699-0.598c1.156-0.38,2.638-1.368,3.965-4.09     c0.434,0.762,0.847,1.535,1.236,2.322c0.399,0.806,0.749,1.621,1.005,2.451c-0.015,0.025-0.031,0.05-0.047,0.076l0.118,0.168     c0.363,1.274,0.495,2.586,0.225,3.97c-0.269,1.381-0.82,2.679-1.444,3.94l-0.348-0.474c-0.433-0.273-3.439-2.108-6.022-0.917     c-2.1,0.969-3.043,3.533-3.797,5.583c-0.265,0.723-0.434,1.346-0.541,1.793c0.822-0.529,2.08-1.206,3.723-1.576     c1.3-0.293,1.882-0.178,2.738-0.387c0.999-0.244,2.264-0.903,3.557-2.677c-0.1,0.191-0.201,0.383-0.3,0.573     c-0.952,1.823-1.909,3.69-2.297,5.729c-0.107,0.562-0.168,1.13-0.193,1.699c-0.005,0.007-0.009,0.014-0.013,0.022l0.011,0.016     c-0.075,1.817,0.221,3.654,0.619,5.416c1.09,4.822,3.302,9.356,6.404,13.201C943.882,751.496,944.157,751.272,944.014,751.094z"/><path fill="#9D8DE0" d="M952.124,747.416c3.243-3.002,5.862-6.66,7.626-10.714c0.827-1.901,1.561-3.928,1.844-5.998l-0.133,0.141     c-0.501,0.235-3.966,1.8-6.575,0.178c-2.121-1.318-2.789-4.192-3.323-6.489c-0.188-0.81-0.286-1.5-0.34-1.993     c0.81,0.677,2.068,1.569,3.778,2.186c1.354,0.488,1.993,0.442,2.882,0.78c1.148,0.437,2.577,1.462,3.817,4.048     c0.093-2.087-0.456-4.095-1.122-6.06c-0.662-1.951-1.447-3.889-1.758-5.937c-0.237-1.565-0.118-3.088,0.4-4.542     c-0.926,0.402-3.995,1.552-6.359,0.082c-2.121-1.318-2.789-4.192-3.323-6.489c-0.189-0.81-0.286-1.5-0.34-1.993     c0.81,0.676,2.068,1.569,3.778,2.186c1.354,0.488,1.993,0.442,2.882,0.78c1.174,0.446,2.64,1.506,3.898,4.218     c1.038-2.004,2.507-3.841,3.957-5.555c0.714-0.845,1.475-1.643,2.241-2.436c-1.193,0.466-3.892,1.265-6.02-0.059     c-2.121-1.318-2.789-4.192-3.323-6.489c-0.188-0.81-0.286-1.5-0.34-1.993c0.81,0.676,2.067,1.569,3.778,2.186     c1.354,0.487,1.992,0.442,2.882,0.78c1.216,0.463,2.748,1.585,4.035,4.522c0.392-0.411,0.78-0.826,1.159-1.251     c1.645-1.85,2.902-3.986,2.792-6.528l-0.278,0.294c-0.5,0.235-3.966,1.8-6.575,0.179c-2.121-1.318-2.789-4.192-3.323-6.489     c-0.188-0.81-0.286-1.5-0.34-1.993c0.81,0.676,2.068,1.57,3.778,2.185c1.354,0.488,1.992,0.443,2.881,0.78     c1.12,0.425,2.506,1.41,3.723,3.854c-0.314-1.757-1.099-3.414-1.969-4.986l-0.652-0.047c-0.519-0.248-4.062-2.002-4.478-5.168     c-0.338-2.574,1.532-5.006,3.027-6.95c0.527-0.685,1.017-1.219,1.378-1.588c-0.01,1.097,0.101,2.697,0.733,4.479     c0.5,1.41,0.958,1.893,1.273,2.831c0.432,1.286,0.538,3.263-0.986,6.246c0.855,1.548,1.619,3.162,1.975,4.894     c0.364,1.766,0.183,3.515-0.546,5.122c0.869-0.947,2.612-2.477,4.74-2.332c2.308,0.157,4.102,2.217,5.537,3.864     c0.506,0.581,0.886,1.103,1.144,1.483c-0.957-0.202-2.373-0.386-4.04-0.147c-1.319,0.189-1.822,0.504-2.696,0.614     c-1.227,0.154-3.025-0.115-5.445-2.09l0.02-0.074c-1.037,1.567-2.424,2.877-3.724,4.222c-0.969,1.003-1.892,2.05-2.767,3.135     l0.08-0.069c0.483-0.171,3.82-1.297,6.076,0.436c1.834,1.409,2.187,4.118,2.469,6.284c0.099,0.764,0.126,1.408,0.131,1.868     c-0.685-0.698-1.762-1.635-3.282-2.36c-1.203-0.573-1.796-0.59-2.585-0.982c-1.089-0.543-2.413-1.735-3.332-4.62     c-0.539,0.691-1.061,1.397-1.559,2.119c-0.511,0.74-0.976,1.495-1.349,2.28c0.012,0.027,0.023,0.054,0.035,0.081l-0.141,0.149     c-0.543,1.207-0.864,2.487-0.797,3.896c0.067,1.406,0.425,2.77,0.86,4.107l0.413-0.418c0.468-0.208,3.707-1.589,6.091-0.037     c1.938,1.262,2.5,3.936,2.95,6.074c0.158,0.753,0.235,1.394,0.276,1.852c-0.737-0.642-1.884-1.494-3.456-2.098     c-1.244-0.478-1.836-0.448-2.653-0.779c-0.953-0.386-2.109-1.221-3.133-3.163c0.071,0.204,0.143,0.408,0.214,0.61     c0.678,1.942,1.356,3.928,1.445,6.001c0.025,0.572,0.003,1.142-0.054,1.709c0.003,0.008,0.007,0.016,0.01,0.024l-0.014,0.014     c-0.188,1.809-0.747,3.584-1.395,5.269c-1.775,4.614-4.619,8.781-8.245,12.137C952.195,747.832,951.956,747.57,952.124,747.416z"/><path fill="#FE81DF" d="M974.886,748.892c-0.273,3.508-4.898,62.409-5.326,67.873h-40.784c-0.498-5.742-5.561-64.121-5.88-67.873     H974.886z"/><path fill="#F06CCE" d="M922.895,748.892c0.046,0.542,0.192,2.227,0.408,4.722h15.701c14.276,0,25.523,12.163,24.406,26.394     c-1.07,13.632-2.275,28.974-2.885,36.757h9.035c0.429-5.465,5.055-64.365,5.327-67.873H922.895z"/><path fill="#FE81DF" d="M973.868,748.894h-49.955c-3.352,0-6.069-2.204-6.069-4.923l0,0c0-2.719,2.717-4.923,6.069-4.923h49.955     c3.352,0,6.07,2.204,6.07,4.923l0,0C979.938,746.69,977.221,748.894,973.868,748.894z"/></g><g><path fill="#FFB5F0" d="M516.815,117.889c-0.591,0.91-1.519,1.549-2.623,1.774c-1.458,0.297-2.917-0.191-3.903-1.305          l-9.518-10.757c-0.986-1.114-1.293-2.622-0.821-4.033c0.473-1.41,1.625-2.43,3.082-2.727l14.075-2.865          c1.458-0.297,2.917,0.191,3.903,1.306c0.986,1.114,1.292,2.622,0.82,4.033l-4.556,13.621          C517.158,117.279,517.004,117.598,516.815,117.889z M503.126,104.392c-0.052,0.08-0.083,0.156-0.1,0.206          c-0.048,0.143-0.127,0.514,0.174,0.853l9.518,10.757c0.301,0.34,0.678,0.306,0.826,0.276          c0.148-0.03,0.507-0.146,0.652-0.577l4.557-13.622c0.144-0.431-0.073-0.74-0.173-0.853c-0.1-0.113-0.381-0.367-0.826-0.277          l-14.075,2.865C503.39,104.08,503.222,104.244,503.126,104.392z"/></g><g><path fill="#FFB5F0" d="M290.385,487.469c-0.895-0.614-1.51-1.559-1.706-2.668c-0.259-1.465,0.266-2.911,1.405-3.869          l10.998-9.239c1.139-0.957,2.655-1.225,4.053-0.717c1.397,0.509,2.388,1.687,2.647,3.151l2.503,14.143          c0.26,1.466-0.266,2.912-1.405,3.868c-1.139,0.957-2.654,1.225-4.052,0.716l-13.5-4.904          C290.986,487.828,290.671,487.665,290.385,487.469z M304.229,474.131c-0.079-0.054-0.153-0.087-0.203-0.105          c-0.142-0.052-0.51-0.14-0.857,0.152l-10.998,9.239c-0.347,0.292-0.324,0.67-0.297,0.819c0.026,0.148,0.133,0.51,0.56,0.666          l13.5,4.905c0.427,0.155,0.742-0.054,0.857-0.152c0.116-0.097,0.376-0.371,0.298-0.818l-2.503-14.143          C304.534,474.403,304.374,474.23,304.229,474.131z"/></g><g><path fill="#FFB5F0" d="M1000.534,214.273c-0.591,0.91-1.519,1.549-2.623,1.774c-1.458,0.297-2.917-0.191-3.903-1.305          l-9.518-10.757c-0.986-1.114-1.293-2.622-0.821-4.033c0.473-1.41,1.625-2.43,3.082-2.727l14.075-2.865          c1.458-0.297,2.917,0.191,3.903,1.306c0.986,1.114,1.292,2.622,0.82,4.033l-4.556,13.621          C1000.877,213.663,1000.723,213.982,1000.534,214.273z M986.845,200.776c-0.052,0.08-0.083,0.155-0.1,0.206          c-0.048,0.143-0.127,0.514,0.174,0.853l9.518,10.757c0.301,0.34,0.678,0.306,0.826,0.276          c0.148-0.03,0.507-0.146,0.652-0.577l4.557-13.622c0.144-0.431-0.073-0.74-0.173-0.853c-0.1-0.113-0.381-0.367-0.826-0.277          l-14.075,2.865C987.109,200.464,986.941,200.628,986.845,200.776z"/></g><g><path fill="#94A2FA" d="M349.133,342.731c-5.872,0-10.65-4.778-10.65-10.65c0-5.872,4.778-10.65,10.65-10.65     s10.65,4.778,10.65,10.65C359.783,337.953,355.006,342.731,349.133,342.731z M349.133,324.576c-4.138,0-7.505,3.367-7.505,7.505     c0,4.138,3.367,7.505,7.505,7.505c4.138,0,7.505-3.367,7.505-7.505C356.638,327.943,353.271,324.576,349.133,324.576z"/></g><g><path fill="#94A2FA" d="M983.451,575.461c-5.872,0-10.65-4.778-10.65-10.65c0-5.872,4.778-10.65,10.65-10.65     c5.873,0,10.65,4.778,10.65,10.65C994.101,570.683,989.324,575.461,983.451,575.461z M983.451,557.306     c-4.138,0-7.505,3.367-7.505,7.505c0,4.138,3.367,7.505,7.505,7.505c4.138,0,7.505-3.367,7.505-7.505     C990.956,560.673,987.589,557.306,983.451,557.306z"/></g><g><path fill="#94A2FA" d="M1064.737,416.733c-5.872,0-10.65-4.778-10.65-10.65s4.778-10.65,10.65-10.65     c5.873,0,10.65,4.778,10.65,10.65S1070.609,416.733,1064.737,416.733z M1064.737,398.578c-4.138,0-7.505,3.367-7.505,7.505     s3.367,7.505,7.505,7.505c4.138,0,7.505-3.367,7.505-7.505S1068.875,398.578,1064.737,398.578z"/></g><g><path fill="#94A2FA" d="M754.917,117.171c-5.872,0-10.65-4.778-10.65-10.65c0-5.872,4.778-10.65,10.65-10.65     s10.65,4.778,10.65,10.65C765.567,112.394,760.789,117.171,754.917,117.171z M754.917,99.017c-4.138,0-7.505,3.367-7.505,7.505     c0,4.138,3.367,7.505,7.505,7.505c4.138,0,7.505-3.367,7.505-7.505C762.422,102.383,759.055,99.017,754.917,99.017z"/></g></svg>