<?xml version="1.0" encoding="UTF-8" standalone="no"?> <svg width="48" height="48" viewBox="0 0 48 48" fill="none" xmlns="http://www.w3.org/2000/svg">
<path d="M12 15V11C12 10.7348 11.8946 10.4804 11.7071 10.2929C11.5196 10.1054 11.2652 10 11 10H8C7.73478 10 7.48043 10.1054 7.29289 10.2929C7.10536 10.4804 7 10.7348 7 11V15H12Z" fill="#8FA5A5"/>
<path d="M42 12H35.07C34.7407 11.9999 34.4166 11.9186 34.1263 11.7631C33.836 11.6077 33.5886 11.383 33.406 11.109L31.187 7.781C30.8217 7.23315 30.3268 6.78395 29.7463 6.47326C29.1657 6.16257 28.5175 6.00001 27.859 6H20.141C19.4825 6.00001 18.8343 6.16257 18.2537 6.47326C17.6732 6.78395 17.1783 7.23315 16.813 7.781L14.594 11.109C14.4114 11.383 14.164 11.6077 13.8737 11.7631C13.5834 11.9186 13.2593 11.9999 12.93 12H6C4.93913 12 3.92172 12.4214 3.17157 13.1716C2.42143 13.9217 2 14.9391 2 16V37C2 38.0609 2.42143 39.0783 3.17157 39.8284C3.92172 40.5786 4.93913 41 6 41H42C43.0609 41 44.0783 40.5786 44.8284 39.8284C45.5786 39.0783 46 38.0609 46 37V16C46 14.9391 45.5786 13.9217 44.8284 13.1716C44.0783 12.4214 43.0609 12 42 12V12Z" fill="#2D4A60"/>
<path d="M24 37C30.3513 37 35.5 31.8513 35.5 25.5C35.5 19.1487 30.3513 14 24 14C17.6487 14 12.5 19.1487 12.5 25.5C12.5 31.8513 17.6487 37 24 37Z" fill="#8FA5A5"/>
<path d="M24 33C28.1421 33 31.5 29.6421 31.5 25.5C31.5 21.3579 28.1421 18 24 18C19.8579 18 16.5 21.3579 16.5 25.5C16.5 29.6421 19.8579 33 24 33Z" fill="#EAEFF0"/>
<path d="M24 28C23.337 28 22.7011 27.7366 22.2322 27.2678C21.7634 26.7989 21.5 26.163 21.5 25.5C21.5 25.2348 21.3946 24.9804 21.2071 24.7929C21.0196 24.6054 20.7652 24.5 20.5 24.5C20.2348 24.5 19.9804 24.6054 19.7929 24.7929C19.6054 24.9804 19.5 25.2348 19.5 25.5C19.5013 26.6931 19.9759 27.8369 20.8195 28.6805C21.6631 29.5241 22.8069 29.9987 24 30C24.2652 30 24.5196 29.8946 24.7071 29.7071C24.8946 29.5196 25 29.2652 25 29C25 28.7348 24.8946 28.4804 24.7071 28.2929C24.5196 28.1054 24.2652 28 24 28Z" fill="#8FA5A5"/>
</svg>
