<svg xmlns="http://www.w3.org/2000/svg" width="16" height="16" viewBox="0 0 16 16">
  <g id="Group_1364" data-name="Group 1364" transform="translate(-26 -652)">
    <rect id="Rectangle_1736" data-name="Rectangle 1736" width="16" height="16" rx="3" transform="translate(26 652)" fill="#ffd2d2"/>
    <path id="Subtraction_1" data-name="Subtraction 1" d="M694,837.787h-.546l-1.212-3H695v2A1,1,0,0,1,694,837.787Zm-1.625,0H688a1,1,0,0,1-1-1v-2h4.163l1.211,3Zm2.625-4h-3.163l-1.616-4H694a1,1,0,0,1,1,1v3Zm-4.241,0H687v-3a1,1,0,0,1,1-1h1.142l1.616,4Z" transform="translate(-657 -173.787)" fill="#fe5d5c"/>
  </g>
</svg>
