<svg xmlns="http://www.w3.org/2000/svg" width="10.238" height="10.223" viewBox="0 0 10.238 10.223">
  <path id="Path_2686" data-name="Path 2686" d="M12.365.522,5.79,7.1A2.678,2.678,0,0,0,5,9v.724a.539.539,0,0,0,.539.539h.724a2.678,2.678,0,0,0,1.907-.79L14.746,2.9a1.685,1.685,0,0,0,0-2.381,1.723,1.723,0,0,0-2.381,0ZM13.983,2.14,7.408,8.716a1.629,1.629,0,0,1-1.144.474H6.079V9A1.629,1.629,0,0,1,6.552,7.86l6.575-6.575a.619.619,0,0,1,.855,0,.606.606,0,0,1,0,.855Z" transform="translate(-5 -0.045)" fill="#86919c"/>
</svg>
