<svg xmlns="http://www.w3.org/2000/svg" viewBox="0 0 353.24 317.11"><defs><style>.cls-1{isolation:isolate;}.cls-2{fill:#fff;}.cls-3{fill:#ecf4fa;}.cls-4{fill:#f48f4a;}.cls-5{fill:#ffaa4e;}.cls-6{fill:#25636b;}.cls-7{fill:#a03c25;}.cls-8{fill:#ff7557;}.cls-9{fill:#202f77;}.cls-10{fill:#ffd6d6;}.cls-11{fill:#fff5ed;}.cls-12{fill:#2b1710;}.cls-13{fill:#bc4f31;}.cls-14{fill:#ce5f45;}.cls-15{mix-blend-mode:multiply;}.cls-16{fill:#e0b3a8;}.cls-17{fill:#4e88ff;}.cls-18{fill:#4984eb;}.cls-19{fill:#f7c593;}</style></defs><g class="cls-1"><g id="Layer_2" data-name="Layer 2"><g id="Layer_2-2" data-name="Layer 2"><path class="cls-2" d="M294.9,88.07a13.77,13.77,0,0,1,2.5-.22,4.41,4.41,0,0,1,2.91.77,2.23,2.23,0,0,1,.88,1.87,2.52,2.52,0,0,1-1.79,2.33v0a2.74,2.74,0,0,1,2.18,2.66,2.87,2.87,0,0,1-.89,2.12,5.32,5.32,0,0,1-3.67,1,16.8,16.8,0,0,1-2.12-.12Zm1.37,4.34h1.24c1.45,0,2.3-.75,2.3-1.77,0-1.25-.95-1.73-2.33-1.73a5.75,5.75,0,0,0-1.21.09Zm0,5.08a7.07,7.07,0,0,0,1.15.06c1.41,0,2.72-.52,2.72-2.06s-1.25-2-2.74-2h-1.13Z"/><path class="cls-2" d="M309.72,87.62a10.34,10.34,0,0,0-2,6.43,10.55,10.55,0,0,0,2,6.38h-1.09a10.18,10.18,0,0,1-2.06-6.38,10.4,10.4,0,0,1,2.06-6.43Z"/><path class="cls-2" d="M311.83,90.92l1.08,1.63c.28.43.52.82.77,1.25h.05c.25-.46.5-.85.75-1.26l1.07-1.62H317l-2.59,3.68,2.67,3.93h-1.57l-1.12-1.72c-.29-.44-.55-.86-.81-1.32h0c-.26.46-.52.87-.81,1.32l-1.1,1.72h-1.52l2.7-3.89-2.58-3.72Z"/><path class="cls-2" d="M317.58,100.46a22.94,22.94,0,0,0,.95-3.76l1.52-.15a20.49,20.49,0,0,1-1.51,3.82Zm.68-8.28a.93.93,0,0,1,.93-1,1,1,0,0,1,0,2A.92.92,0,0,1,318.26,92.18Z"/><path class="cls-2" d="M322.22,90.92l1.67,4.49c.17.51.36,1.11.49,1.56h0c.14-.45.3-1,.48-1.59l1.51-4.46h1.47l-2.08,5.42c-1,2.61-1.67,4-2.61,4.77a3.77,3.77,0,0,1-1.7.89l-.34-1.16a3.67,3.67,0,0,0,1.21-.68,4.21,4.21,0,0,0,1.16-1.54,1,1,0,0,0,.11-.33,1.22,1.22,0,0,0-.09-.36l-2.82-7Z"/><path class="cls-2" d="M328.29,100.43a10.62,10.62,0,0,0,2-6.43,10.36,10.36,0,0,0-2-6.38h1.07a10,10,0,0,1,2.06,6.4,10.18,10.18,0,0,1-2.06,6.41Z"/><path class="cls-3" d="M107.62,0H339.71a0,0,0,0,1,0,0V317.11a0,0,0,0,1,0,0H22.6a0,0,0,0,1,0,0V85A85,85,0,0,1,107.62,0Z"/><rect class="cls-4" x="139.61" y="74" width="213.63" height="169.1" rx="20.54"/><rect class="cls-5" x="133.97" y="74" width="213.63" height="169.1" rx="20.54"/><rect class="cls-6" x="160.85" y="56.35" width="159.87" height="204.41" rx="11.54" transform="translate(399.34 -82.23) rotate(90)"/><path class="cls-2" d="M176.34,110a4.55,4.55,0,0,1-2,.41,3.3,3.3,0,0,1-3.46-3.55,3.53,3.53,0,0,1,3.73-3.68,4.24,4.24,0,0,1,1.75.35l-.28,1a3,3,0,0,0-1.47-.33,2.4,2.4,0,0,0-2.45,2.63,2.38,2.38,0,0,0,2.41,2.59,3.56,3.56,0,0,0,1.55-.34Z"/><path class="cls-2" d="M184,106.71a3.39,3.39,0,0,1-3.45,3.69,3.3,3.3,0,0,1-3.33-3.57,3.39,3.39,0,0,1,3.44-3.69A3.28,3.28,0,0,1,184,106.71Zm-5.5.08c0,1.52.87,2.66,2.1,2.66s2.11-1.13,2.11-2.69c0-1.18-.58-2.67-2.08-2.67S178.51,105.47,178.51,106.79Z"/><path class="cls-2" d="M185.44,109a3.23,3.23,0,0,0,1.66.5c.92,0,1.35-.46,1.35-1s-.36-.93-1.29-1.28c-1.25-.44-1.84-1.13-1.84-2a2.15,2.15,0,0,1,2.4-2,3.49,3.49,0,0,1,1.71.43l-.32.92a2.7,2.7,0,0,0-1.42-.4c-.74,0-1.16.43-1.16,1s.42.83,1.32,1.17c1.2.46,1.82,1.06,1.82,2.1,0,1.22-.95,2.08-2.6,2.08a3.93,3.93,0,0,1-1.95-.48Z"/><path class="cls-2" d="M202.24,105.41v-.86h7.4v.86Zm0,2.81v-.86h7.4v.86Z"/><path class="cls-2" d="M211.86,103.3l1,1.49c.25.39.47.75.7,1.13h0c.23-.41.46-.77.69-1.14l1-1.48h1.36l-2.37,3.36,2.44,3.58h-1.43l-1-1.56c-.27-.4-.5-.79-.75-1.21h0c-.23.42-.47.79-.73,1.21l-1,1.56h-1.39l2.46-3.54-2.35-3.4Z"/><path class="cls-2" d="M192.86,110.39a1.11,1.11,0,0,1-.69-.24,1.38,1.38,0,0,1-.39-1.44c.18-1,.46-2,1.37-2.37a2.56,2.56,0,0,1,1.74,0,11.57,11.57,0,0,0,.69-2.94.66.66,0,1,1,1.31.15,13.5,13.5,0,0,1-.78,3.28,22.75,22.75,0,0,1,2.69,1.58.66.66,0,0,1-.74,1.1,23.06,23.06,0,0,0-2.5-1.49,4.83,4.83,0,0,1-2.11,2.25A1.62,1.62,0,0,1,192.86,110.39Zm1.1-2.89a.76.76,0,0,0-.29,0c-.26.11-.44.54-.59,1.39a.09.09,0,0,0,0,0,4,4,0,0,0,1.25-1.45A1.71,1.71,0,0,0,194,107.5Z"/><path class="cls-2" d="M167.62,126.18a3.4,3.4,0,0,0,1.67.5c.92,0,1.35-.46,1.35-1s-.36-.94-1.29-1.28c-1.25-.44-1.84-1.13-1.84-2a2.14,2.14,0,0,1,2.4-2,3.42,3.42,0,0,1,1.7.43l-.31.92a2.66,2.66,0,0,0-1.42-.41c-.75,0-1.17.43-1.17,1s.42.83,1.33,1.18c1.2.46,1.82,1.06,1.82,2.09,0,1.22-1,2.08-2.6,2.08a3.93,3.93,0,0,1-1.95-.47Z"/><path class="cls-2" d="M174.89,118.57a.79.79,0,0,1-1.57,0,.77.77,0,0,1,.79-.79A.75.75,0,0,1,174.89,118.57Zm-1.41,8.9v-6.94h1.26v6.94Z"/><path class="cls-2" d="M176.84,122.4c0-.71,0-1.3-.06-1.87h1.12l.07,1.14h0a2.56,2.56,0,0,1,2.3-1.3c1,0,2.45.57,2.45,2.95v4.15h-1.26v-4c0-1.12-.42-2.06-1.61-2.06a1.79,1.79,0,0,0-1.69,1.3,1.68,1.68,0,0,0-.09.58v4.18h-1.26Z"/><path class="cls-2" d="M199.34,122.63v-.86h7.4v.86Zm0,2.82v-.86h7.4v.86Z"/><path class="cls-2" d="M211.87,120.53l1.52,4.1c.16.46.33,1,.45,1.42h0c.12-.42.27-1,.44-1.45l1.38-4.07H217l-1.89,4.94c-.91,2.39-1.52,3.61-2.38,4.35a3.45,3.45,0,0,1-1.55.82l-.32-1.06A3.31,3.31,0,0,0,212,129a3.91,3.91,0,0,0,1.06-1.4.59.59,0,0,0,0-.64l-2.57-6.39Z"/><path class="cls-2" d="M187.24,127.57a1.06,1.06,0,0,1-.69-.24,1.39,1.39,0,0,1-.39-1.44,2.86,2.86,0,0,1,1.37-2.37,2.56,2.56,0,0,1,1.74,0,11.57,11.57,0,0,0,.69-2.94.66.66,0,1,1,1.31.15,12.63,12.63,0,0,1-.78,3.28,22,22,0,0,1,2.69,1.58.67.67,0,0,1,.18.92.66.66,0,0,1-.91.18,22,22,0,0,0-2.51-1.48,4.8,4.8,0,0,1-2.11,2.24A1.58,1.58,0,0,1,187.24,127.57Zm1.1-2.89a.76.76,0,0,0-.29,0c-.26.11-.44.54-.59,1.39a.43.43,0,0,1,0,0,3.9,3.9,0,0,0,1.25-1.44A1.29,1.29,0,0,0,188.34,124.68Z"/><rect class="cls-2" x="266.49" y="132.24" width="46.42" height="1.31" transform="translate(7.09 280.28) rotate(-52.18)"/><path class="cls-2" d="M295.86,149l-1.29-.18a14.61,14.61,0,0,0-5.42-12.23l.85-1A15.56,15.56,0,0,1,295.86,149Z"/><path class="cls-2" d="M297.81,142.35a1.23,1.23,0,0,1-.76-.26,1.55,1.55,0,0,1-.43-1.58c.2-1.1.51-2.18,1.51-2.6a2.78,2.78,0,0,1,1.9,0,12.61,12.61,0,0,0,.76-3.22.72.72,0,1,1,1.44.16,14.66,14.66,0,0,1-.86,3.59,26.26,26.26,0,0,1,2.94,1.74.71.71,0,0,1,.2,1,.71.71,0,0,1-1,.2,23.7,23.7,0,0,0-2.74-1.62,5.35,5.35,0,0,1-2.32,2.46A1.69,1.69,0,0,1,297.81,142.35Zm1.2-3.17a.68.68,0,0,0-.31.06c-.29.12-.49.59-.65,1.52a.13.13,0,0,0,0,.06,4.4,4.4,0,0,0,1.37-1.59A2.28,2.28,0,0,0,299,139.18Z"/><path class="cls-2" d="M276.24,190.53a39,39,0,1,1,38.95-38.95A39,39,0,0,1,276.24,190.53Zm0-76.59a37.64,37.64,0,1,0,37.64,37.64A37.68,37.68,0,0,0,276.24,113.94Z"/><rect class="cls-2" x="274.81" y="105.08" width="1.31" height="93.09"/><rect class="cls-2" x="230.59" y="150.32" width="90.27" height="1.31"/><path class="cls-7" d="M3.2,217.27c-1,19.43,4.67,37.39,4.67,37.39S24.1,226.12,24.1,222.93s-3-10.83-3-10.83Z"/><path class="cls-8" d="M130.36,193.41l10.09,16.23-15.5,18s-17.71-1.48-18.2-2.21S105,203.74,106.26,203,130.36,193.41,130.36,193.41Z"/><path class="cls-9" d="M50.18,269.66c-24.85,14.51-29.52,47-29.52,47H134.54c1-28-18.44-49.93-18.44-49.93Z"/><path class="cls-10" d="M62.54,158.48C30,161.19,20.91,171.27,16.23,180.37S0,220,0,220l28.29,2.45,12.54,10.09c11.07,17.95,9.35,37.14,9.35,37.14h69.36l7.87-39.11c-1.72-7.38-11.07-21.4-11.07-21.4L135,195.62c-7.14-14.26-27-34.52-40.79-38.78S62.54,158.48,62.54,158.48Z"/><path class="cls-11" d="M135.22,191.09c1.66-3,2.86-7.1,9.22-7s6.18,11.34,6.18,11.34-7.65.65-8.3.37S132.82,196,135.22,191.09Z"/><path class="cls-12" d="M79.51,76.39c8.85,1.66,18.63-.92,29.88.93S120.28,93.55,116,98.71c4.43,6.46-6.45,15.68-1.1,23.62s5.16,23.24,1.29,15.31c-1.66,10.14-9,21.77-15.68,16.42-6.46,1.47-19.19,1.47-19.19,1.47s-21.58,1.11-24,1.48c-8.3.37-9.41-7-9.41-7-7.38,5.35-10-.92-10-.92-6.64-2.22-5.16-10-3.5-12.73-8.12,7.56-6.28,15.31-11.44,10.88s-2.4-23.8,13.1-31.36c-9.23.55-4.25-7.75,5.16-12.17S56.45,89.49,62,83.77,70.1,75.47,79.51,76.39Z"/><path class="cls-13" d="M94.25,156.84c-8.77-2.32-7.16-7.86-5.33-13.48a16.86,16.86,0,0,0,18.85-9.85c1.79-4.31,1.75-11.11,3.65-20.4s-.55-14.33-5.34-22.42c-15.31-4.4-21.08,7.87-22.42,15.9s-4.08,12.4-9.73,10c-1.32,15.28-8.2,37.88-11.39,41.94C75.16,191.75,96.82,183.6,94.25,156.84Z"/><path class="cls-2" d="M90,129.84c7.46-1.13,14.32,0,13.45,1.73C103.15,136.09,94.81,139.64,90,129.84Z"/><path class="cls-12" d="M106.08,90.69c-2.86,12.91-21.37,12.06-24.58,10.85S89.84,82.4,106.08,90.69Z"/><ellipse class="cls-7" cx="88.75" cy="124.23" rx="3.83" ry="4.02" transform="translate(-36.26 211.87) rotate(-89.49)"/><circle class="cls-14" cx="70.98" cy="119.16" r="4.43" transform="translate(-59.86 165.19) rotate(-78.6)"/><g class="cls-15"><path class="cls-16" d="M72,116.17a3.13,3.13,0,0,0-2.74.34.18.18,0,0,0-.05.25.17.17,0,0,0,.25.06,2.8,2.8,0,0,1,2.42-.3,2.87,2.87,0,0,1,1,.65l-.11-.06a1.89,1.89,0,0,0-1.23,3.58,1.88,1.88,0,0,0,2-.47,2.76,2.76,0,0,1-1.77,1.6.2.2,0,0,0-.13.24.18.18,0,0,0,.12.12h.11a3.15,3.15,0,0,0,.13-6Zm-.3,4.17a1.52,1.52,0,1,1,1.93-1A1.52,1.52,0,0,1,71.7,120.34Z"/></g><path class="cls-7" d="M88,142.82c-11.12-5.75-12.74-18.46-12.92-18.25C74,144.54,84.54,152.88,88,142.82Z"/><path class="cls-12" d="M90.73,125.51a8.12,8.12,0,0,1-1.29-.11,8,8,0,0,1,2.74-15.73,7.57,7.57,0,0,1,5,3.24,8.1,8.1,0,0,1,1.27,6A7.94,7.94,0,0,1,90.73,125.51ZM90.88,110a7.5,7.5,0,1,0,7.1,8.76,7.56,7.56,0,0,0-1.19-5.6A7.19,7.19,0,0,0,90.88,110Z"/><path class="cls-12" d="M109,128.64a7.21,7.21,0,0,1-1.3-.11,7.58,7.58,0,0,1-4.81-3l.38-.28a7.15,7.15,0,0,0,4.51,2.8,7.52,7.52,0,1,0-5.88-8.65,7.59,7.59,0,0,0,0,2.89l-.46.1a8.13,8.13,0,0,1,0-3.07,7.76,7.76,0,1,1,7.57,9.3Z"/><rect class="cls-12" x="99.64" y="117.76" width="0.47" height="3.53" transform="translate(-35.23 197.04) rotate(-79.96)"/><rect class="cls-12" x="77.66" y="108.25" width="0.47" height="11.56" transform="translate(-48.94 168.64) rotate(-78.96)"/><path class="cls-7" d="M59.86,135.46c3.74-8-6.13-8.15-3.58-13.81s5.81-9.11,12-11,8.75-2.35,9.62-1.45-.67,1.94-4.8,3.28-8.49,6.68-7.15,10.29,4,4.4,7,1.92,5-2.27,5.7-1.21-1.71,2.89-4.64,4.94-7.19,8-7.13,13.89Z"/><path class="cls-7" d="M62,109.9c-1.45-1.78-4.23,1.42-5.2,6.34a51.18,51.18,0,0,0-1,8.55A26.54,26.54,0,0,0,59,123C59.13,122.8,62,109.9,62,109.9Z"/><path class="cls-7" d="M65,107c-1.1-1.44-3.13.74-4.52,4a17.67,17.67,0,0,0-1.44,7.17C62,118,65,107,65,107Z"/><path class="cls-13" d="M66.94,141.24c-.09-2.37,1.91-5,1.83-8.28s-1.26-5.38-2.4-8.19-.89-10.56.07-12.57c.64-3.44,5.26-8.67,4.25-9.32s-8.76,4.78-10.35,11.91c-5.84,8.07-4.54,7-5.74,12.3s-4.52,20.2-4.52,20.2c-9.25,25-42.21,78.83-43.93,94.58S9.1,274.33,22.63,273.6s24.1-9.6,27.55-32.23S61.56,151.54,66.94,141.24Z"/><path class="cls-13" d="M8.08,262.44c2.54,6.87,7.25,11.55,14.55,11.16a26.36,26.36,0,0,0,11.84-3.34C34.31,256.64,16.48,251,8.08,262.44Z"/><path class="cls-13" d="M173.22,219.73c9.59,15.86,6.46,34.31,5.17,36.34s-16.24-1.29-17-3.14-5.53-9.77-5.71-12.54S173.22,219.73,173.22,219.73Z"/><polygon class="cls-17" points="138.6 276.06 80.8 276.06 132.45 191.2 190.25 191.2 138.6 276.06"/><polygon class="cls-18" points="141.43 276.06 83.63 276.06 135.28 191.2 193.08 191.2 141.43 276.06"/><path class="cls-2" d="M186.42,184.13h-42.9c6.46,3.13,0,12.17-5,21.21s-6.46,15.5-2.95,23.61h42.9c-3.51-8.11-2-14.57,2.95-23.61S192.88,187.26,186.42,184.13Z"/><path class="cls-13" d="M178.08,243.34c-19.92-3.2-28,.25-42.06,2.22S120.77,236.7,115.85,234,106,221.21,106,221.21c-2.46,1.47-3.2,4.67-2.21,7.62s3.93,3.2-1.48,4.67-20.66,4.68-18.45,8.37S90,247,89,249.25s-.49,4.67.74,7.13-2.46,4.43,2.7,5.66,10.33.24,20.91-1,25.83,7.38,40.58,9.1S183,263,178.08,243.34Z"/><path class="cls-19" d="M113.64,206.19a.23.23,0,0,1-.21-.13,118.26,118.26,0,0,1-8.14-20,.24.24,0,0,1,.17-.29.23.23,0,0,1,.29.16,116.69,116.69,0,0,0,8.09,19.88.22.22,0,0,1-.09.31Z"/><path class="cls-12" d="M86.55,105.33a29.53,29.53,0,0,1-6.78-.81.47.47,0,1,1,.22-.91c6.92,1.63,13.81.66,18.42-2.59a12.33,12.33,0,0,0,5.35-8.91.46.46,0,0,1,.52-.41.48.48,0,0,1,.42.52A13.25,13.25,0,0,1,99,101.79,21.56,21.56,0,0,1,86.55,105.33Z"/><path class="cls-12" d="M29.7,116.34a.49.49,0,0,1-.34-.14,7,7,0,0,1-2-7.26c1.14-3.49,5-6.38,9.6-7.19,7.54-1.31,12.73-3.82,23.54-15.17a.47.47,0,0,1,.68.65C50.29,98.7,44.76,101.35,37.16,102.68c-4.27.75-7.83,3.38-8.86,6.56a6,6,0,0,0,1.74,6.3.47.47,0,0,1,0,.67A.46.46,0,0,1,29.7,116.34Z"/><path class="cls-12" d="M118.8,141.8a.48.48,0,0,1-.47-.44.47.47,0,0,1,.44-.5,3.53,3.53,0,0,0,3.06-2.11c1.4-3,.13-7.94-3.23-12.64-4.31-6-3.92-11.72-3.57-16.73a41.56,41.56,0,0,0,.16-4.38.48.48,0,0,1,1,0c0,1.43-.06,2.91-.17,4.48-.34,4.85-.72,10.34,3.4,16.11,3.55,5,4.85,10.31,3.31,13.59a4.45,4.45,0,0,1-3.84,2.65Z"/><path class="cls-12" d="M117.69,79.26a.44.44,0,0,1-.35-.16c-5.88-6.69-13.23-4.54-21-2.26-4.2,1.23-8.54,2.5-12.61,2.24a.47.47,0,0,1,.06-.94c3.9.25,8.16-1,12.28-2.2,7.72-2.26,15.71-4.6,22,2.54a.48.48,0,0,1,0,.67A.52.52,0,0,1,117.69,79.26Z"/><path class="cls-12" d="M20.29,147a.44.44,0,0,1-.36-.17,10.54,10.54,0,0,1-2.72-8.16c.56-5.13,5-10.89,13.68-17.6a.47.47,0,0,1,.66.09.47.47,0,0,1-.08.66c-8.43,6.54-12.79,12.09-13.32,17a9.63,9.63,0,0,0,2.51,7.45.49.49,0,0,1-.07.67A.47.47,0,0,1,20.29,147Z"/></g></g></g></svg>