<svg enable-background="new 0 0 540.2 182" viewBox="0 0 540.2 182" xmlns="http://www.w3.org/2000/svg"><path d="m540.1 54.7v127.3h-540.1v-119.2c.8-2.5 1.4-5 1.8-7.6 0-.1 0-.3.1-.4l.1.2c1.1 1.8 2.4 3.5 3.7 5.1 1.9 2.4 4.1 4.6 6.4 6.6.7.6 1.4 1.2 2.2 1.8 2.7 2.2 5.7 4 8.8 5.6 1.5.8 3.1 1.5 4.7 2.1 3.7 1.5 7.6 2.5 11.6 3.1 1.3.2 2.6.4 4 .5s2.9.2 4.3.2c2.9 0 5.9-.2 8.8-.7 3.4-.5 6.7-1.4 9.9-2.6 3.3-1.2 6.5-2.8 9.5-4.6 1.2-.7 2.4-1.5 3.5-2.3 5.6-4.1 10.4-9.1 14.2-15h1.5c0 18.6 15.1 33.6 33.7 33.6 14.1 0 26.7-8.8 31.6-22 11 14.9 32.1 18.1 47 7.1 4-2.9 7.3-6.7 9.6-11.1 2.6 4.1 5.6 8 8.8 11.7 6.8 7.7 14.8 14.1 23.6 19.2 3.4 2 7 3.7 10.7 5.2l.4.2 1.6.6c3.6 1.4 7.3 2.5 11 3.4.6.1 1.1.3 1.7.4 1.8.4 3.6.8 5.4 1l1.7.3c3.4.5 6.9.8 10.4.9h5.4c3.1-.1 6.3-.3 9.4-.8.5-.1.9-.1 1.4-.2 3-.4 6-1 9-1.8l1.3-.3c2.3-.6 4.6-1.3 6.8-2.1 17.1-6 32-17 43-31.4 12.2 27.4 44.4 39.7 71.8 27.5 8.5-3.8 15.9-9.7 21.4-17.1.5-.6.9-1.2 1.3-1.8 1.3-1.9 2.5-3.8 3.5-5.8 2-3.9 3.6-8.1 4.6-12.4.3-1.4.6-2.7.8-4.1h1.7c.5 2 1.2 4 2.1 5.9.5 1.1 1.1 2.3 1.8 3.3v.1c2.4 3.9 5.6 7.2 9.3 9.9.8.6 1.6 1.1 2.4 1.6 1.2.7 2.4 1.3 3.6 1.8 1.3.6 2.6 1 4 1.4 3 .9 6.1 1.3 9.2 1.3 1.5 0 3-.1 4.5-.3 4.3-.6 8.4-2 12.1-4.1 4.4-2.5 8.3-6.1 11.1-10.3 2.2-3.2 3.8-6.8 4.8-10.5l1.5-.4z" fill="#222744"/><path d="m27.8 61.9c2.7 5.1 8.2 8.3 13.9 9.5s11.5.8 17.3.3c2.8-.1 5.6-.6 8.3-1.5 2.7-1.2 5.1-3 7.1-5.2 2-1.8 3.6-4.2 4.6-6.8.8-2.6.3-5.8-1.9-7.5s-5.6-1.5-8.2-.2-4.8 3.1-7.4 4.5c-7.2 3.8-16.2 2.5-23.6-.8-2.7-1.2-5.6-2.7-8.5-2s-4.6 5.2-2 6.6l.4 3.1zm93.3 19.5c2.5 1.7 5.8 1.8 8.8 1.8 3.8 0 7.8 0 11.3-1.5 4.7-2 7.8-6.6 9.9-11.2.9-2 1.5-4.8-.2-6.1-1-.6-2.3-.7-3.4-.2s-2.1 1.2-2.9 2c-3.7 3-8.2 5.6-13 5.5-2.5-.1-5-.8-7.4-.1-1.7.5-3 1.8-3.5 3.5s.2 3.5 1.6 4.6zm54.8-9.4c6.3 4.6 14.7 5.1 21.5 1.1 1.4-.7 2.5-1.9 3.3-3.2.8-1.4.7-3.1-.2-4.4-1.2-1.4-3.4-1.6-5.2-1s-3.5 1.5-5.3 1.9c-3.8.8-7.6-1.1-11.4-1.5-1.3-.2-2.6.1-3.7.7-1.7 1.1-2.2 3.4-1.1 5.1.7 1.1 1.9 1.7 3.1 1.7zm64.1 1.6c1.1-2.6 3.3-4.6 5.9-5.6 4.7-1.9 10.1-1.2 14.8.7s8.8 4.9 13.1 7.7c3.6 2.3 7.3 4.5 11.1 6.4s7.6 3.7 11.7 4c3.5.3 7-.5 10.3.5s6.3 4.7 4.7 7.8c-1.2 2.2-4.1 2.8-6.6 3.1-19.8 1.8-39.6-2.8-56.5-13.3-4.1-2.5-8.3-6-8.7-10.8zm158.4 10.1c3.6 3.4 8.1 5.7 13 6.6s9.8 1.3 14.7 1.2c8.6.1 18.1-.3 24.6-6 4.4-3.8 6.7-9.3 8.9-14.6 1.1-2.7 2.1-6.3 0-8.3-1.5-1.2-3.5-1.5-5.3-.7-1.7.8-3.3 1.8-4.6 3.1-4.9 4-10.3 7.5-16.4 9.1-9.8 2.5-20-.1-30.1.2-1.2-.1-2.5.2-3.6.7-1.8 1-2.8 3-2.6 5 .3 2 1.3 3.8 2.9 5zm93.4-20.4c3.4 6.2 9.9 10 17 10 2.9-.1 5.7-.8 8.3-2 4.8-2.2 8.9-6.6 9-11.9 0-.7-.1-1.4-.4-2.1-.3-.5-.8-1-1.4-1.3-2.1-1.2-4.8-.8-7.1.1s-4.3 2.4-6.5 3.4c-3.8 1.8-8 2.4-12.1 1.7-1.1-.2-2.3-.5-3.4-.8-1-.4-2-.4-3 0-.9.5-1.1 2.1-.1 2.4zm-25.7-59.3c-1.8-.4-3.7-.7-5.6-.8-1.8 0-3.6.3-5.3.9-5 1.3-6.3 8.9-1.5 11.5 1.5.9 3.2 1.6 4.9 2 1.8.4 3.7.6 5.6.6 3.6 0 6.6-2.7 7.1-6.2.4-3.4-1.7-7.2-5.2-8z" fill="#c3e5f4"/><path d="m31 154.3s-3.6-7.9 10.8-13.6c0 0 14.9-2.6 15.7 6.8z" fill="#ff92af"/><path d="m48.1 36.1c-11.3-3.7-23.6-2.9-34.4 2.1-.5.2-.9.7-1 1.2-.2.4-.2.9 0 1.4 12 32.8 18.5 67.1 27.3 100.8 1.3-.3 2.6-.6 3.9-1-.6-2.2-1.1-4.3-1.7-6.5 20.7-6.5 37-24.8 38.9-46.7 1.9-22.4-11.3-44.4-33-51.3zm19.6 75.4c-6.7 8.8-15.9 15.4-26.5 18.7-7.4-29.9-13.7-60.1-24.2-89.1 17.4-7.6 39-1.8 50.6 13.1 12.9 16.7 12.6 40.6.1 57.3z" fill="#6769d8"/><path d="m67 83.7v.5c0 .6 0 1.2-.1 1.7 0 .7-.1 1.5-.2 2.2-.4 3.6-1.2 7.1-2.5 10.5-.6 1.7-1.4 3.4-2.2 5-.4.8-.8 1.5-1.2 2.2-.3.4-.5.9-.8 1.3-.2.3-.3.5-.5.8s-.4.6-.6 1l-.3.5-.6.9c-.2.3-.5.7-.7 1s-.7.9-1 1.3l-.7.9c-.3.3-.6.7-.9 1l-.5.5-1.2 1.2-.6.6-.4.2-.3.3c-.4.4-.8.7-1.2 1.1-.1.1-.2.2-.3.2l-1.2.9-.9.7-1.8 1.2-.8.5-.1.1-.8.5-.8.5c-.3.2-.6.4-1 .5l-.8.4v.1c-.1 0-.2.1-.2.1l-.9.4c-.3.2-.6.3-1 .4h-.1l-1 .4-1.1.4-.7.2-.7.2-.2.1-.6.2-.9.3-.3.1-.3.1c-.7.2-1.3.3-2 .5s-1.3.3-2 .4l-.7.1h-.2c-1 .1-1.9.2-2.9.3h-4.7c-1.7-.1-3.5-.3-5.2-.6-5.5-.9-10.8-3.2-15.3-6.5l-.5-.1-.5-.4v-63.6l1.8-1.8.2-.2c.4-.4.8-.7 1.2-1.1.9-.7 1.8-1.4 2.6-2.1 1.2-.8 2.4-1.6 3.6-2.3 1.7-1 3.5-1.8 5.4-2.5 1.2-.5 2.5-.8 3.8-1.2.5-.1.9-.2 1.4-.3l1.5-.3 2.4-.3c.4 0 .9-.1 1.3-.1s.8-.1 1.2-.1h2.4c.5 0 1 0 1.6.1h.6c.7 0 1.4.1 2.2.2l.8.1.7.1c.7.1 1.3.2 2 .4.3 0 .5.1.8.2h.1l.8.2 1.1.3.9.3.4.1.5.2.9.3.8.3c.4.2.8.3 1.1.5l.7.3c.3.1.6.3.9.4l.8.4.6.3.4.2.7.4 1 .6.6.4.6.4.4.3.7.5c.5.4 1 .8 1.6 1.2l.7.5c.2.2.5.4.7.6.4.3.8.7 1.2 1.1l.4.4.1.1.5.5.1.1c.5.6 1 1.1 1.5 1.7.2.2.3.4.5.6s.2.2.2.3c.2.2.4.5.5.7 1.3 1.7 2.4 3.5 3.4 5.5l.4.7.2.5.3.6c.1.2.3.6.4.9l.4.9c.1.3.2.6.3.8s.2.5.3.8.2.4.2.6.2.7.3 1.1.2.6.3 1l.3 1.1.1.5c.1.3.1.6.2.8s.1.4.1.6v.2c0 .3.1.5.1.8.1.7.2 1.3.2 2v.6c0 .4.1.9.1 1.3v1.1c0 .4-.1.8-.1 1.3z" fill="#b0efde"/><path d="m10.3 77.6c0 .2 0 .4-.1.6-.1 1.9.2 3.8.9 5.5.8 2.3 1.9 4.6 2.7 6.9.4 1.2.7 2.3.9 3.6.1.6.1 1.2.1 1.8 0 1-.2 1.9-.5 2.8-.2.5-.5 1-.9 1.5-.5.6-1.2 1.1-2 1.3-2.4.8-5 0-6.6-1.9-.7-1-1.2-2.1-1.5-3.3-.3-1.1-.7-2.3-1.2-3.4-.2-.4-.5-.9-.8-1.3-.4-.5-.8-.8-1.3-1.1v-33.6l1.8-1.8.2-.2c.4-.4.8-.7 1.2-1.1.8.5 1.7.9 2.5 1.4 1.2.6 2.3 1.3 3.5 2 2.2 1.3 4 3 5.4 5.1.2.3.4.7.6 1 .3.6.5 1.3.6 2v.2c-.2.9-.6 1.7-1.1 2.4l-.3.4c-1.9 2.9-3.7 5.9-4.1 9.2zm50.6 28.2c-.3.4-.5.9-.8 1.3-.2.3-.3.5-.5.8s-.4.7-.6 1l-.3.5-.6.9c-.2.3-.5.6-.7 1s-.7.9-1 1.3-.5.6-.7.8-.6.7-.9 1l-.5.5-1.2 1.2-.6.6-.5.3-.3.3c-.4.4-.8.7-1.2 1.1l-.3.2-1.2.9-.9.7-1.8 1.2-.8.6-.1.1-.8.5-.8.5c-.3.2-.6.4-1 .5l-.8.4-.2.1-.9.4c-.3.2-.7.3-1 .5l-1 .4-1.1.4c-.7.3-1.4.5-2.2.8l-.9.3c-.1 0-.2.1-.3.1l-.3.1c-.7.2-1.3.3-2 .5s-1.3.3-2 .4l-.7.1h-.2c-1 .1-1.9.2-2.9.3l-.8.1h-3.9c-1.7-.1-3.5-.3-5.2-.6-.3-.9-.5-1.8-.8-2.7-.6-1.9-.9-3.9-.7-5.8.1-1.1.6-2.2 1.4-3s1.8-1.3 2.9-1.5c2.4-.7 5.1-.7 6.8-2.5 1-1.3 1.6-3 1.6-4.7.3-3.1.1-6.2.4-9.2s1.3-6.2 3.5-8.4c1.1-1.2 2.7-1.8 4.3-1.8.3 0 .5.1.8.2 1.9.8 3.2 2.3 3.7 4.3.7 2.1.6 4.4.9 6.7.4 2.5 1.7 5.4 4.2 5.7.6.1 1.1 0 1.7-.1 1.2-.5 2.3-1.1 3.2-1.9 1.5-1.1 2.9-2.2 4.7-2.3 1.1 0 2.1.4 2.9 1s1.5 1.3 2 2.1c.2.2.3.4.4.7.2.3.4.7.6 1.1zm4.8-32.1c1.2 4.7 1.6 9.6 1.1 14.5-.3.2-.5.3-.8.5-3.8 1.9-8.7 1.2-12.3-1.2-1.7-1.2-3.1-2.6-4.3-4.3-.7-1-1.2-2-1.7-3.1-.4-1-.8-2-1.1-3.1-1-3.7-1.8-8.4-5.4-9.7-1.1-.3-2.3-.4-3.5-.2-1 .2-2.1.4-3.1.6l-.5.1c-1.9.3-3.8.3-5.6 0-.9 0-1.8-.4-2.5-1-.5-.7-.8-1.4-.8-2.2 0-.4-.1-.7-.2-1.1-.2-1.2-.3-2.3-.4-3.4-.3-2.9-.4-5.8-.3-8.6.1-1.4.3-2.8.5-4.1 0-.3.1-.6.2-.9.1-.5.2-.9.4-1.4.4 0 .8 0 1.2-.1s.5 0 .7 0h1.7c.5 0 1 0 1.6.1h.4c.7 0 1.4.1 2.2.2l.8.1.7.1c.7.1 1.3.2 2 .4l.8.2h.1l.8.2c.4.1.7.2 1.1.3l.9.3.4.2.5.2.9.3.8.3c.4.2.8.3 1.1.5l.7.3c.3.1.6.3.9.4l.8.4.6.3c.1.1.3.1.4.2.2.1.5.2.7.4s.7.4 1 .6.4.3.6.4l.6.4.4.3.7.5c.5.4 1 .8 1.6 1.2.2.2.4.3.7.5l.7.6c.4.3.8.7 1.2 1.1l.4.4.1.1c.2.2.4.4.6.7l1.5 1.8c.2.2.3.4.5.6.1.1.2.2.2.3.2.2.4.5.5.7 1.3 1.7 2.4 3.6 3.4 5.5.1.2.2.5.4.7s.2.3.2.5.2.4.3.6.3.6.4.9l.4 1c.1.3.2.5.3.8.2.5.3.9.5 1.4s.2.7.3 1.1-.1.2 0 .6z" fill="#74d1b6"/><path d="m10.3 77.6c0 .2 0 .4-.1.6-.1 1.9.2 3.8.9 5.5-.3-2-.6-4-.8-6.1zm0 0c0 .2 0 .4-.1.6-.1 1.9.2 3.8.9 5.5-.3-2-.6-4-.8-6.1zm47.4 24.2c-2.4 1.1-4.7 2.2-7.2 3.2-.1-.6-.2-1.3-.4-1.9-1.2-6.1-2.9-12.1-4.9-18 1.4-.6 2.8-1.2 4.2-1.9 2.4-1.2 4.7-2.4 7.1-3.8l.5-.4c2.9-1.7 5.8-3.5 8.7-5.3-.1-.3-.2-.6-.3-1s-.2-.7-.3-1.1-.1-.4-.2-.6-.2-.5-.3-.8l-1.8 1.2-6.3 3.9c-2.9 1.7-5.8 3.3-8.7 4.7-1.2.6-2.4 1.2-3.6 1.7-.2-.6-.5-1.2-.7-1.9-1.2-3-2.4-6-3.8-8.9-.6-1.3-1.2-2.6-1.9-3.8-1-2-2.1-4-3.2-5.9 7.2-1.6 14.5-3 21.9-4.1l-.1-.1c-.2-.2-.3-.4-.5-.5l-.1-.1-.4-.4c-.4-.4-.8-.7-1.2-1.1-.2-.2-.5-.4-.7-.6-3 .5-6.1 1-9.1 1.6l-1.6.1c-3.3.7-6.7 1.3-10 2l-1.8-3c-.6-1-1.2-1.9-1.8-2.8-1.3-2.1-2.7-4.1-4.2-6-.3-.4-.6-.8-.9-1.3l-2.4.3-1.5.3c1.4 1.8 2.8 3.7 4.2 5.7.8 1.1 1.6 2.3 2.3 3.4.9 1.3 1.8 2.7 2.6 4.1l-1.7.4-2.9.7-1.2.3c-1.3.3-2.6.6-3.9 1l-1.6.4c-1.1.3-2.2.6-3.4.9-1.8.5-3.6 1-5.3 1.5-.1-2.2-.1-4.4-.1-6.6 0-2.6.1-5.2.3-7.7-1.2.7-2.5 1.5-3.6 2.3 0 1.2-.1 2.3-.1 3.5v4.8c0 1.6 0 3.2.1 4.8-2 .6-4 1.3-5.9 2v3.7c2-.7 4-1.4 6-2 .5 7.7 1.5 15.4 3 23l-4.5.9c-.8.2-1.6.3-2.4.4s-1.4.2-2.1.3v3.7l3.3-.6c2.2-.4 4.3-.8 6.5-1.2l.6 2.7c.3 1.2.6 2.5.9 3.7 1.2 4.6 2.6 9.3 4.2 13.9-5.1 1-10.3 1.6-15.6 2v3.1l.5.4c4.7-.3 9.4-.9 14.1-1.7.8-.1 1.5-.2 2.2-.4 1.3 3.3 2.8 6.4 4.5 9.5h3.9c-1.9-3.3-3.6-6.7-5-10.2 4.4-.9 8.7-2 13.1-3.3 1.3-.4 2.5-.8 3.8-1.2 3.6-1.1 7.2-2.4 10.7-3.7.5 3.2.9 6.3 1.2 9.5l1.2-.9c.1-.1.2-.1.3-.2.4-.3.8-.7 1.2-1.1l.4-.3.3-.3c-.3-2.7-.7-5.4-1.1-8.1 3-1.3 6-2.6 9-4 .7-.3 1.3-.6 1.9-.9.8-1.6 1.6-3.3 2.2-5-1.1.6-2.2 1.1-3.3 1.6zm-46.6-18c-.3-2-.6-4.1-.8-6.2-.4-3.3-.7-6.7-.8-10.1.9-.3 1.8-.5 2.7-.8 1.2-.3 2.4-.7 3.6-1l4.5-1.2h.2l3.9-1 .7-.2 3.2-.8 2.8-.7c1.1 1.9 2.1 3.8 3.1 5.8l.5 1c1.7 3.5 3.3 7 4.8 10.6.5 1.2 1 2.4 1.4 3.7-3.2 1.3-6.4 2.5-9.8 3.4l-.5.1c-1.3.4-2.6.7-3.8 1.1-4.3 1.1-8.6 2.1-12.9 3l-1.4.3c-.6-2.2-1-4.6-1.4-7zm25.3 26.4-1.9.6-1.9.6c-4.5 1.3-9 2.5-13.5 3.4v-.1c-1.9-5.2-3.5-10.5-4.8-15.9l-.6-2.7-.4-1.6 1.4-.3c4.4-1 8.7-2 13-3.2 1.3-.3 2.5-.7 3.8-1h.1l.5-.2c1.5-.4 3-.9 4.5-1.4 1.9-.6 3.7-1.3 5.5-2 2.1 6.1 3.8 12.3 5 18.6.1.4.2.9.3 1.4-3.7 1.3-7.4 2.6-11 3.8zm-26.1-32.6c0 .2 0 .4-.1.6-.1 1.9.2 3.8.9 5.5-.3-2-.6-4-.8-6.1zm0 0c0 .2 0 .4-.1.6-.1 1.9.2 3.8.9 5.5-.3-2-.6-4-.8-6.1z" fill="#fff"/><path d="m540.2 38.5v89.4l-.1.1c-17.3 9.3-35.8 17.2-55.3 18.9-16.7 1.4-21.8-10.3-27.1-23.4-4.3-10-7.7-20.4-10.2-31-.1-.6-.2-1.1-.4-1.6-.2-.8-.3-1.7-.5-2.5-1.2-6.6-1.6-13.3-1.4-20 .2-6.3 1.2-12.6 3-18.7v-.1c1.1-3.9 2.6-7.6 4.4-11.2 1.1-2.1 2.3-4.2 3.6-6.2 1.2-1.8 2.6-3.6 4.1-5.2 1.8-2.1 3.9-4.1 6.1-5.8 1.3-1 2.7-1.9 4.1-2.8l1-.5c4.8-2.6 10.1-4.3 15.5-4.8 1.7-.2 3.3-.2 5-.2 1.8 0 3.6.2 5.4.4 3.2.4 6.3 1.1 9.3 2.1 1.2.4 2.4.8 3.5 1.2 2.4.9 4.7 2 6.9 3.1.8.4 1.6.9 2.4 1.3 8 4.6 14.9 10.5 20.7 17.5z" fill="#ffbd39"/><path d="m540.2 38.5v36l-.1-.2c-1.8-3.1-3.7-6.1-5.8-9-1.2-1.7-2.4-3.3-3.7-4.8-2.5-3.2-5.2-6.2-8-9.1-.8-.8-1.5-1.6-2.3-2.3-4.9-4.8-10.1-9.4-15.6-13.6-1.6-1.3-3.3-2.5-4.9-3.7-8-5.8-16.7-11.2-26.4-13.5l-1.7-.4c4.8-2.6 10.1-4.3 15.5-4.8 1.7-.2 3.3-.2 5-.2 1.8 0 3.6.2 5.4.4 3.2.4 6.3 1.1 9.3 2.1 1.2.4 2.4.8 3.5 1.2 2.4.9 4.7 2 6.9 3.1.8.4 1.6.9 2.4 1.3 7.8 4.6 14.7 10.5 20.5 17.5z" fill="#f9af2b"/><path d="m486.6 3.8c-3.3-3.3-8.2-4.6-12.7-3.2-11.2 3.7-9.2 18.3-5 26.5 1.4 2.6 5.7 1 4.3-1.7-2.9-5.6-6.2-17.8 2.3-20.5 8.7-2.7 12.3 9.3 13.9 15.3.8 2.9 5.1 1.2 4.4-1.7-1.4-5.3-3-10.8-7.2-14.7z" fill="#ff92af"/><path d="m540.2 49.5v4.1c-6.7-9.8-14.8-18.6-24.1-26-1.3-1.1-2.7-2.1-4.1-3.1l-.3-.3-.1-.2c-.2-.6.2-1.3.8-1.5.4-.1.7 0 1 .2l.5.4c3.3 2.4 6.6 5.1 9.6 7.9 6.2 5.5 11.8 11.7 16.7 18.5z" fill="#fff"/><path d="m530.5 60.6c-3.7 8.1-14.4 12.2-23.9 15.1l-17.5 5.5c-4.3 1.3-8.6 2.7-12.9 4-6.5 2-14 4-19.2 1.1-2.9-1.6-4.5-4.5-5.6-7.4-5.2-12.7-5.6-32.2 2.5-46.4.6-1.1 1.3-2.2 2.1-3.2.5-.7 1.1-1.4 1.7-2.1 7.7-8.4 24.7-15.6 38.2-16.6 2.7-.2 5.5-.1 8.2.3 1.2.2 2.3.5 3.4.9l.3.1c6.5 2.5 10.2 8.2 13.1 13.8 3.2 6.1 6.1 12.3 8.5 18.8 1.9 5 3.6 10.7 1.1 16.1zm8.8 54.4c.2 3.3-1.5 6-4.1 8.1-2.1 1.6-4.4 3-6.9 4-4.4 2-8.8 4-13.4 5.7-2.8 1.1-5.6 2.1-8.4 3-4.8 1.6-10.1 2.3-14.6.5-2.5-1.1-5.2-3.8-7.3-7.1-.9-1.5-1.7-3-2.3-4.7-.3-.9-.6-1.9-.8-2.8-.8-3.7-.4-7.3 1.9-9.7 3.6-3.8 9.1-5.4 13.8-7.5 7.5-3.2 15.2-5.8 23-7.8l2.2-.6c1.7-.6 3.5-.8 5.4-.7 2.8.5 5.2 2.2 6.6 4.7.4.6.7 1.3 1 2 .4.9.7 1.9 1 2.8s.6 2 .9 3c.9 2.2 1.9 4.5 2 7.1z" fill="#6769d8"/><path d="m539.3 115c.2 3.3-1.5 6-4.1 8.1-2.1 1.6-4.4 3-6.9 4-4.4 2-8.8 4-13.4 5.7 3.6-3.8 6.1-8.4 7.5-13.4 1.4-5.8.8-11.8-.6-17.5-.4-1.7-1-3.4-1.6-5.2l2.2-.6c1.7-.6 3.5-.8 5.4-.7 2.8.5 5.2 2.2 6.6 4.7.4.6.7 1.3 1 2 .4.9.7 1.9 1 2.8s.6 2 .9 3c.9 2.2 1.9 4.5 2 7.1z" fill="#5d63ce"/><path d="m489.5 130.2c.3 1 .9 2 1.7 2.7s2 .7 2.9.1c.8-.9.5-2.3.1-3.4-.7-2.1-1.5-4.1-2.4-6.2-.8-1.8-3.4-3.7-4.4-1-.8 2.2 1.3 6 2.1 7.8z" fill="#ff92af"/><path d="m535.4 102c.4.9.7 1.9 1 2.8-16.3 10.5-34.8 17.2-54 19.7-.3-.9-.6-1.9-.8-2.8 19.2-2.4 37.6-9.1 53.8-19.7zm-43.3 28.2c-.5.2-.7.7-.5 1.1s.7.7 1.1.5.7-.7.5-1.1-.7-.6-1.1-.5z" fill="#fff"/><path d="m530.5 60.6c-3.7 8.1-14.4 12.2-23.9 15.1l-17.5 5.5c1.6-1.3 3-2.7 4.3-4.3 3.6-4.4 5.9-9.7 7.7-15.1 2.3-6.6 3.5-13.6 3.7-20.6.1-10.9-3-21.5-9-30.6 2.7-.2 5.5-.1 8.2.3 1.2.2 2.3.5 3.4.9l.3.1c6.5 2.5 10.2 8.2 13.1 13.8 3.2 6.1 6.1 12.3 8.5 18.8 2 5 3.7 10.7 1.2 16.1z" fill="#5d63ce"/><path d="m521.8 44.4c1.2 5 1.2 10.6-1.7 15-3.2 4.9-10.1 7.5-15.2 9.9-6.6 3.1-13.4 5.7-20.4 7.7-5.4 1.6-11.3 3.4-17 3.3-11.6-.3-14.7-13.3-15.6-22.9-.7-8.3 0-16.7 2.1-24.9.6-1.1 1.3-2.2 2.1-3.3.5-.7 1.1-1.4 1.7-2.1-2.9 10.2-4.8 20.9-3.4 31.5.6 5.1 1.9 11.3 5.1 15.4 3.3 4.4 8.9 4.3 13.8 3.4 11.8-2.3 23.2-6.3 33.9-11.8 5.6-2.8 11.6-5.5 12.9-12.2 1.2-6-1.2-12.1-3.3-17.6-3.3-8.8-7.5-17.2-12.6-25 1.2.2 2.3.5 3.4.9 6.3 10.1 11.6 21.3 14.2 32.7z" fill="#fff"/><path d="m465.6 67.8c3.6 10.1 7.3 20.3 10.9 30.4 3 8.2 14.9 3.6 12-4.6-3.6-10.1-7.3-20.3-10.9-30.4-3-8.3-15-3.6-12 4.6zm47.5-17.5c-3-7.7-15-3-11.9 4.6 4.1 10.3 8.2 20.6 12.3 30.8 3 7.7 15 3 11.9-4.6-4.1-10.3-8.2-20.6-12.3-30.8z" fill="#ff92af"/><path d="m483.9 92.5c-.9-.4-1.8-.4-2.7-.1h-.1c-.9.3-1.6 1-1.9 1.8-.8 1.8 0 3.8 1.7 4.6h.1c.9.4 1.8.4 2.7.1l.1-.1c.9-.3 1.5-1 1.9-1.8.7-1.6-.1-3.7-1.8-4.5zm34-12.8c-4.2 1.6-1.7 8.1 2.5 6.5s1.7-8.2-2.5-6.5z" fill="#fff"/><path d="m330.2 122.1-.5.3-1.1.7c-1.9 1.3-4.3 2.8-7 4.6l-1.1.7c-2 1.3-4.3 2.7-6.6 4.2l-1.1.7c-3.1 2-6.5 4.1-10 6.2l-1.1.7c-3.6 2.2-7.4 4.5-11.3 6.7l-.5.3-.7.4c-2.8 1.6-5.7 3.2-8.6 4.8-5.2 2.9-10.4 5.6-15.5 8.1 0 0-28.8-51.4-42.4-84.4 0 0 5.3-4 13.9-9.5l3.5-2.2 1.1-.7c2.6-1.7 5.4-3.4 8.4-5.2l1.1-.7c3-1.8 6.3-3.6 9.6-5.4l1.2-.6c3.1-1.7 6.4-3.4 9.7-5l1.2-.6c3-1.5 6.1-2.8 9.2-4.2l1.2-.5 2.5-1 1.2-.5c2.8-1.1 6-.1 7.6 2.5 7.1 11.6 26.5 44.2 38.2 71.9 1.3 2.9.3 6-2.1 7.7z" fill="#ff92af"/><path d="m280.6 152.5c-5.2 2.9-10.4 5.6-15.5 8.1 0 0-28.8-51.4-42.4-84.4 0 0 5.3-4 13.9-9.5.6 1.4 1.1 2.8 1.7 3.9 10 20.5 20.1 40.9 30.9 61 3.7 7 7.5 14 11.4 20.9z" fill="#ffbd39"/><path d="m330.2 122.1-.5.3-1.1.7c-1.9 1.3-4.3 2.8-7 4.6l-1.1.7c-2 1.3-4.3 2.7-6.6 4.2l-1.1.7c-3.1 2-6.5 4.1-10 6.2l-1.1.7c-3.6 2.2-7.4 4.5-11.3 6.7l-.5.3c9.8-26.2 10.1-55.6 4.6-83.2-1-5.5-2.5-10.8-4.7-15.9-1.1-2.6-2.5-5-4.2-7.3l-.2-.2 1.2-.5c2.8-1.1 6-.1 7.6 2.5 7.1 11.6 26.5 44.2 38.2 71.9 1.2 2.8.2 5.9-2.2 7.6z" fill="#f97aa1"/><path d="m290.3 147-1.1.7-8.9-15.1-40.2-68.1 1.1-.7c2.9 4.9 5.7 9.7 8.6 14.6zm12.5-7.4-1.1.7c-2.6-4-5.1-8.1-7.5-12.3-7.5-12.8-14.5-25.8-22.6-38.2-6.9-10.6-14.3-20.9-21.8-31.2l1.1-.7c3.6 4.9 7.1 9.8 10.6 14.8 8.5 12 16.4 24.3 23.7 37 5.7 10.1 11.3 20.2 17.6 29.9zm11-6.9-1.1.7c-1.6-2.7-3.1-5.3-4.7-8-14.9-24.9-30.8-49.3-47.6-73l1.2-.6c4 5.6 7.9 11.2 11.8 16.9 14.2 20.9 27.7 42.2 40.4 64zm7.8-4.9-1.1.7c-1.1-1.9-2.2-3.9-3.3-5.8-7.5-13.5-14.3-27.4-22.3-40.6-7.4-12.1-16.4-23.1-23.6-35.2l1.2-.6c3.7 6.3 7.9 12.2 12.1 18.1 4.4 6.3 8.7 12.7 12.7 19.3s7.5 13.3 11.1 20c4.3 8.1 8.6 16.2 13.2 24.1zm8.1-5.4-1.1.7c-.8-1.6-1.6-3.1-2.4-4.7-13.5-26.2-28.3-51.7-44.5-76.3l1.2-.5c3.8 5.9 7.6 11.8 11.3 17.7 12.7 20.6 24.5 41.6 35.5 63.1z" fill="#ffa6c2"/><path d="m258.8 94.5c-.3-.8.1-1.7.9-2 .9-.4 1.7-1 2.1-1.9.5-.9.5-2 .1-3-.3-.7.1-1.5.7-1.8 9.1-5.2 18.3-10.3 27.8-14.9.6-.3 1.4-.2 1.9.3 1.1 1.1 2.5 1.7 4 1.8 1.2 0 2.4-.4 3.4-1.1.7-.6 1.7-.5 2.3.2l.1.1 9.1 15.2c.2.3.3.6.3.9-.1.3-.3.6-.5.7-1 .6-1.9 1.3-2.8 2.1-1.1 1.2-1.2 2.9-.4 4.3.4.7.1 1.6-.7 2l-29.6 15.6c-.7.4-1.7.2-2.1-.6 0 0 0-.1-.1-.1-.5-1-1.4-1.7-2.4-2-1.1-.2-2.3 0-3.3.8-.7.6-1.7.4-2.3-.3-3.4-5.1-6.3-10.5-8.5-16.3z" fill="#fff"/><path d="m294.5 77.3c-8.9 6.1-18 12-27.2 17.7-.7.4.1 1.5.8 1 9.2-5.7 18.3-11.6 27.2-17.7.7-.4-.1-1.4-.8-1zm5.9 7.4c-9.8 6.1-19.5 12.5-28.9 19.2-.7.5.1 1.5.8 1 9.5-6.7 19.1-13 28.9-19.2.8-.5-.1-1.5-.8-1z" fill="#aeb4ff"/></svg>