<svg xmlns="http://www.w3.org/2000/svg" width="361.576" height="203.414" viewBox="0 0 361.576 203.414">
  <g id="Group_77" data-name="Group 77" transform="translate(-113.924 -249.254)">
    <g id="undraw_Forgot_password_re_hxwm" transform="translate(138 249.254)">
      <path id="Path_1027" data-name="Path 1027" d="M439.294,430.661c10.439-18.363,30.351-32.462,51.429-31.1a97.32,97.32,0,0,0-25.6,61.719c-.346,8.852.191,18.733-5.687,25.362-3.657,4.124-9.247,6.122-14.743,6.541s-10.991-.574-16.414-1.563l-1.315.4C426.468,470.9,428.856,449.024,439.294,430.661Z" transform="translate(-330.034 -314.162)" fill="#ddd"/>
      <path id="Path_1028" data-name="Path 1028" d="M490.734,399.159A83.184,83.184,0,0,0,453.7,434.479a35.823,35.823,0,0,0-3.921,10.516,20.545,20.545,0,0,0,1.069,10.76c1.158,3.22,2.715,6.379,3.07,9.824a12.58,12.58,0,0,1-3.367,9.721c-2.943,3.3-6.895,5.34-10.829,7.2-4.368,2.069-8.938,4.149-12.031,8.011-.375.468-1.079-.141-.7-.608,5.383-6.719,14.6-7.982,20.986-13.395,2.981-2.526,5.22-5.965,5.078-9.995-.124-3.524-1.727-6.783-2.927-10.033A21.922,21.922,0,0,1,448.682,446a33.114,33.114,0,0,1,3.5-10.628,80.7,80.7,0,0,1,14.84-20.395,84.656,84.656,0,0,1,23.407-16.7c.538-.259.836.623.3.881Z" transform="translate(-330.013 -313.323)" fill="#fff"/>
      <path id="Path_1029" data-name="Path 1029" d="M507.239,461.581a12.48,12.48,0,0,1-3.766-15.715c.273-.533,1.114-.135.841.4a11.556,11.556,0,0,0,3.533,14.611C508.332,461.227,507.721,461.93,507.239,461.581Z" transform="translate(-381.165 -345.532)" fill="#fff"/>
      <path id="Path_1030" data-name="Path 1030" d="M498.348,554.232a24.054,24.054,0,0,0,15.23-8.681c.376-.467,1.081.142.7.608a25.019,25.019,0,0,1-15.866,9c-.594.085-.659-.844-.068-.928Z" transform="translate(-378.319 -413.355)" fill="#fff"/>
      <path id="Path_1031" data-name="Path 1031" d="M573.286,432.447A7.064,7.064,0,0,0,579.6,434.7c.593-.093.657.836.068.928a7.916,7.916,0,0,1-6.99-2.475.481.481,0,0,1-.048-.656A.468.468,0,0,1,573.286,432.447Z" transform="translate(-429.021 -336.506)" fill="#fff"/>
      <path id="Path_1032" data-name="Path 1032" d="M530.938,556.092c-.369.068-.737.137-1.109.212a93.031,93.031,0,0,0-14.546,4.021c-.368.128-.739.263-1.1.4A98.077,98.077,0,0,0,483.335,579.5a95.246,95.246,0,0,0-9.991,10.469c-4.226,5.163-8.4,11.1-13.918,14.463a16.338,16.338,0,0,1-1.778.964L425.838,592.2c-.057-.066-.118-.125-.175-.192l-1.294-.469c.144-.2.3-.412.443-.616.083-.119.174-.234.257-.353.058-.078.116-.156.163-.23.019-.026.039-.052.055-.071.048-.074.1-.137.144-.2q1.287-1.75,2.6-3.488c0-.007,0-.007.013-.012A140.041,140.041,0,0,1,450.788,562.5c.257-.208.516-.424.787-.626a90.888,90.888,0,0,1,12.285-8.31,80.358,80.358,0,0,1,7.287-3.6A66.815,66.815,0,0,1,491.39,544.8c13.907-1.291,28.073,1.879,38.74,10.616C530.4,555.641,530.668,555.862,530.938,556.092Z" transform="translate(-328.309 -412.77)" fill="#ddd"/>
      <path id="Path_1033" data-name="Path 1033" d="M531.638,576.465a83.182,83.182,0,0,0-50.837,5.9,35.821,35.821,0,0,0-9.462,6.036,20.545,20.545,0,0,0-5.625,9.235c-1.014,3.268-1.673,6.728-3.464,9.692a12.58,12.58,0,0,1-8.541,5.735c-4.335.861-8.72.113-12.983-.768-4.733-.978-9.634-2.068-14.43-.847-.581.148-.777-.762-.2-.91,8.343-2.124,16.46,2.415,24.82,1.94,3.9-.222,7.759-1.62,10.072-4.923,2.023-2.888,2.706-6.456,3.7-9.773a21.923,21.923,0,0,1,5.163-9.234,33.115,33.115,0,0,1,9.2-6.377,80.7,80.7,0,0,1,24.128-7.349,84.658,84.658,0,0,1,28.744.758c.586.117.292,1-.29.885Z" transform="translate(-329.248 -432.769)" fill="#fff"/>
      <path id="Path_1034" data-name="Path 1034" d="M612.1,560.449a12.48,12.48,0,0,1,6.455-14.815c.539-.262.971.563.431.825a11.556,11.556,0,0,0-5.976,13.793c.176.573-.735.766-.91.2Z" transform="translate(-455.559 -413.491)" fill="#fff"/>
      <path id="Path_1035" data-name="Path 1035" d="M549.936,642.421a24.054,24.054,0,0,0,17.386,2.238c.582-.146.777.764.2.91a25.02,25.02,0,0,1-18.087-2.366C548.906,642.913,549.414,642.132,549.936,642.421Z" transform="translate(-413.174 -479.276)" fill="#fff"/>
      <path id="Path_1036" data-name="Path 1036" d="M694.447,575.3a7.064,7.064,0,0,0,3.686,5.6c.529.283.021,1.064-.5.782a7.916,7.916,0,0,1-4.091-6.185.481.481,0,0,1,.357-.553.468.468,0,0,1,.553.357Z" transform="translate(-511.28 -433.44)" fill="#fff"/>
      <path id="Path_1037" data-name="Path 1037" d="M266.416,531.146c-4.455-21.54-10.023-28.721-10.023-28.721l-2.127-1.65-2.558-1.987.012-.255-.607-.206-.143-.111-.234-.179-.038.04-.079.082-11.576-3.935-14.687-4.989-6.8-8.84a11.763,11.763,0,0,0-9.41-4.59l-21.72.161a11.763,11.763,0,0,0-7.912,3.138l-14.276,13.242-22.245,10.624-.038-.038-.234.167-3.437,1.643.142.738-2.127,1.535s-5.569,6.682-10.023,26.725c-1.133,5.1-1.691,16.039-1.892,29.52a5.145,5.145,0,0,0,5.143,5.222H263.171a5.146,5.146,0,0,0,5.143-5.216C268.118,548.6,267.56,536.677,266.416,531.146Z" transform="translate(-124.382 -366.056)" fill="#333a67"/>
      <path id="Path_1038" data-name="Path 1038" d="M578.547,191.732a17.429,17.429,0,1,0,0,34.859H708.439a17.429,17.429,0,0,0,0-34.859Z" transform="translate(-421.268 -172.947)" fill="#e5e5e5"/>
      <path id="Path_1039" data-name="Path 1039" d="M586.035,202.747a13.9,13.9,0,0,0,0,27.8H715.927a13.9,13.9,0,0,0,0-27.8Z" transform="translate(-428.757 -180.435)" fill="#fff"/>
      <circle id="ab6171fa-7d69-4734-b81c-8dff60f9761b" cx="28.455" cy="28.455" r="28.455" transform="translate(47.86 44.679)" fill="#9e616a"/>
      <path id="Path_1040" data-name="Path 1040" d="M339.2,444.263q-.182-.4-.364-.806c.047,0,.093.008.139.009Z" transform="translate(-270.165 -344.067)" fill="#2f2e41"/>
      <path id="Path_1041" data-name="Path 1041" d="M247.7,248.007a7.92,7.92,0,0,1,4.961-2.145c1.84.059,3.706,1.721,3.325,3.522a29.241,29.241,0,0,1,35.19-13.2c4.573,1.613,9.058,4.841,10.109,9.576.27,1.215.328,2.548,1.086,3.535a4.035,4.035,0,0,0,4.295,1.088l.045-.013a1.344,1.344,0,0,1,1.625,1.9l-1.294,2.413a10.37,10.37,0,0,0,4.94-.105,1.343,1.343,0,0,1,1.426,2.09,23.414,23.414,0,0,1-18.67,9.6c-5.17-.032-10.394-1.813-15.425-.624a13.4,13.4,0,0,0-9.012,18.809c-1.546-1.691-4.534-1.29-6.115.367a8.387,8.387,0,0,0-1.831,6.417c.244,3.5,1.613,6.789,3.057,9.995A29.879,29.879,0,0,1,247.7,248.007Z" transform="translate(-200.631 -202.033)" fill="#2f2e41"/>
      <path id="Path_1042" data-name="Path 1042" d="M87.464,495.253l7.981,43.423,4.789.417Z" transform="translate(-59.456 -336.666)" opacity="0.2"/>
      <path id="Path_1043" data-name="Path 1043" d="M334.9,485.026l-7.981,46.667-4.789.448Z" transform="translate(-218.978 -329.714)" opacity="0.2"/>
      <path id="Path_1044" data-name="Path 1044" d="M258.578,164.428a2.837,2.837,0,0,1-3.8-1.665,2.881,2.881,0,0,1,1.51-3.93,3.026,3.026,0,0,1,2.287,5.6Zm-2.931-8.8-1.217.508a1.313,1.313,0,0,1-1.667-.611l-.06-.118c-1.309-2.361-1.459-5.231-.443-8.524.941-2.955,1.332-5.033.546-6.915-.909-2.177-2.85-2.858-5.325-1.871a4.524,4.524,0,0,0-2.021,1.144,1.734,1.734,0,0,1-1.256.51,1.676,1.676,0,0,1-1.2-.526,1.712,1.712,0,0,1-.012-2.337,13.3,13.3,0,0,1,4.5-3.088c5.318-2.22,7.995,1.058,9.22,3.991,1.2,2.869.524,5.532-.559,8.98-.908,2.865-.855,4.988.176,7.1a1.307,1.307,0,0,1-.681,1.758Z" transform="translate(-204.702 -133.069)" fill="#4e88ff"/>
      <path id="Path_1045" data-name="Path 1045" d="M648.964,269.479H623.121a.622.622,0,1,1,0-1.245h25.844a.622.622,0,0,1,0,1.245Z" transform="translate(-462.994 -224.953)" fill="#4e88ff"/>
      <path id="Path_1046" data-name="Path 1046" d="M751.345,270.127H725.5a.622.622,0,1,1,0-1.245h25.844a.622.622,0,0,1,0,1.245Z" transform="translate(-532.591 -225.393)" fill="#4e88ff"/>
      <path id="Path_1047" data-name="Path 1047" d="M853.727,270.775H827.884a.622.622,0,1,1,0-1.245h25.843a.622.622,0,0,1,0,1.245Z" transform="translate(-602.189 -225.834)" fill="#4e88ff"/>
      <path id="Path_1048" data-name="Path 1048" d="M956.105,271.423H930.262a.622.622,0,1,1,0-1.245h25.844a.622.622,0,0,1,0,1.245Z" transform="translate(-671.784 -226.274)" fill="#4e88ff"/>
      <circle id="Ellipse_86" data-name="Ellipse 86" cx="4.803" cy="4.803" r="4.803" transform="translate(168.188 29.191)" fill="#4e88ff"/>
      <circle id="Ellipse_87" data-name="Ellipse 87" cx="4.803" cy="4.803" r="4.803" transform="translate(201.17 29.191)" fill="#4e88ff"/>
      <circle id="Ellipse_88" data-name="Ellipse 88" cx="4.803" cy="4.803" r="4.803" transform="translate(234.152 29.191)" fill="#4e88ff"/>
      <circle id="Ellipse_89" data-name="Ellipse 89" cx="4.803" cy="4.803" r="4.803" transform="translate(267.134 29.191)" fill="#4e88ff"/>
    </g>
    <path id="Path_1080" data-name="Path 1080" d="M607.065,726.92H246.511a.493.493,0,1,1,0-.986H607.065a.493.493,0,1,1,0,.986Z" transform="translate(-132.076 -274.253)" fill="#3f3d56"/>
  </g>
</svg>
