<svg xmlns="http://www.w3.org/2000/svg" width="229" height="149.2" viewBox="0 0 229 149.2">
  <g id="Group_1490" data-name="Group 1490" transform="translate(-73 -200)">
    <g id="Group_1486" data-name="Group 1486" transform="translate(0 -22)">
      <path id="Path_3012" data-name="Path 3012" d="M584.143,1094.738s-10.627-29.093-20.5-24.952,14.779,22.683,18.478,33.558Z" transform="translate(-444.079 -789.446)" fill="#9ea03d"/>
      <path id="Path_3013" data-name="Path 3013" d="M428.908,1083.506s-27.449-35.947-38.579-26.3,29.051,23.3,38.552,35.928Z" transform="translate(-289.578 -777.099)" fill="#c4c461"/>
      <path id="Path_3014" data-name="Path 3014" d="M306.928,1180.8s-14.515-20.2-37.719-16.607-26.847,31.131-7.166,34.775,37.637-11.807,44.815-6.98S306.928,1180.8,306.928,1180.8Z" transform="translate(-165.29 -873.77)" fill="#dde298"/>
      <path id="Path_3016" data-name="Path 3016" d="M1892.32,1157.077s18.042-44.272,29.871-38.925-18.663,26.988-23.505,40.042Z" transform="translate(-1652.283 -826.62)" fill="#dde298"/>
      <path id="Path_3017" data-name="Path 3017" d="M1950.979,1234.49s4.922-21.98,25.526-27.22,33.414,16.406,18.31,26.42-35.543,3.523-39.809,10.092S1950.979,1234.49,1950.979,1234.49Z" transform="translate(-1709.691 -899.924)" fill="#c4c461"/>
      <path id="Path_3018" data-name="Path 3018" d="M2038.459,1324.633a.2.2,0,0,1-.2.006,25.619,25.619,0,0,0-11.155-2.307,34.147,34.147,0,0,0-12.091,2.288,49.135,49.135,0,0,0-14.808,9.19.2.2,0,0,1-.264-.3,49.4,49.4,0,0,1,14.946-9.268,34.444,34.444,0,0,1,12.24-2.309,26.015,26.015,0,0,1,11.322,2.355.2.2,0,0,1,.081.273A.2.2,0,0,1,2038.459,1324.633Z" transform="translate(-1758.386 -1002.089)" fill="#9ea03d"/>
    </g>
    <path id="Path_3019" data-name="Path 3019" d="M569.856,1461.082c-7.484,2.111-17.024,2.889-28.569,1.443-7.681-.959-14.766-2.45-21.477-3.9-15-3.237-28.135-6.277-41.868-2.82-16.158,4.068-28.444,5.771-38.319,6.135-24.645.909-34.208-6.531-51.22-6.364a22.344,22.344,0,0,1-8.53-1.5c-12.038-4.814-13.493-19.849,8.7-25.219.426-.107.852-.2,1.289-.291,8.136-1.7,18.776-1.533,47.341-1.335q4.155.029,8.833.057c7.289.042,15.575.076,25.035.08,12.4.006,23.509-.036,33.457-.086l6.974-.037,5.16-.028c13.154-.071,23.941-.118,32.782-.01,10.547.13,18.324.482,24.038,1.279C596.943,1431.752,595.057,1453.97,569.856,1461.082Z" transform="translate(-293.249 -1114.063)" fill="#eaeef1"/>
    <g id="Group_311" data-name="Group 311" transform="translate(73 202)">
      <rect id="Rectangle_1886" data-name="Rectangle 1886" width="59" height="89" rx="29" transform="translate(92 5)" fill="none" stroke="#000" stroke-width="10"/>
      <rect id="Rectangle_1887" data-name="Rectangle 1887" width="100" height="88" rx="7.5" transform="translate(63.5 41.5)" fill="#fff" stroke="#000" stroke-width="1"/>
      <rect id="Rectangle_1888" data-name="Rectangle 1888" width="89" height="88" rx="7.5" transform="translate(86.5 41.5)" fill="#fff" stroke="#000" stroke-width="1"/>
      <circle id="Ellipse_391" data-name="Ellipse 391" cx="10.5" cy="10.5" r="10.5" transform="translate(121 83)"/>
      <rect id="Rectangle_1889" data-name="Rectangle 1889" width="9" height="27" rx="1" transform="translate(127 94)"/>
      <path id="Path_3076" data-name="Path 3076" d="M173.641,60.814A32.5,32.5,0,0,0,167,80.6a34.349,34.349,0,0,0,4.379,16.219,3.4,3.4,0,0,1,.227,2.919l-2.173,7.276a2.027,2.027,0,0,0,2.66,2.533l6.553-1.946a5.508,5.508,0,0,1,4.833,1.171,32.5,32.5,0,1,0-9.838-47.963Z" transform="translate(-3 -50)" fill="#f7cc7f" fill-rule="evenodd"/>
      <path id="Path_3077" data-name="Path 3077" d="M195.8,93.589v-3.61a9.273,9.273,0,0,1,2.8-7.092,32.15,32.15,0,0,1,2.672-2.256q1.433-1.1,2.672-2.192a9.39,9.39,0,0,0,2.085-2.643,8.061,8.061,0,0,0,.782-3.675,9.313,9.313,0,0,0-.261-2,5.081,5.081,0,0,0-1.042-2.321,5.822,5.822,0,0,0-2.412-1.934,10.106,10.106,0,0,0-4.3-.774,9.91,9.91,0,0,0-4.757.967,6.733,6.733,0,0,0-2.672,2.321,9.981,9.981,0,0,0-1.173,2.772,12.327,12.327,0,0,0-.261,2.256v.9a7.224,7.224,0,0,0,.066.9h-5.8a6.964,6.964,0,0,1-.131-.774A13.126,13.126,0,0,1,184,73.023a12.78,12.78,0,0,1,.456-3.224,13.39,13.39,0,0,1,1.5-3.481,11.967,11.967,0,0,1,2.8-3.159,13.536,13.536,0,0,1,4.3-2.256,18.745,18.745,0,0,1,6.126-.9,17.747,17.747,0,0,1,5.54.774,11.135,11.135,0,0,1,3.91,2,9.557,9.557,0,0,1,2.541,2.772,9.916,9.916,0,0,1,1.369,3.03,10.289,10.289,0,0,1,.456,2.9,14.156,14.156,0,0,1-.847,5.222,11.576,11.576,0,0,1-2.216,3.61,19.184,19.184,0,0,1-2.8,2.514q-1.434,1.1-2.8,2.192a8.88,8.88,0,0,0-2.216,2.385,5.75,5.75,0,0,0-.847,3.224v2.966ZM195.339,105V98.231h6.387V105Z" transform="translate(-3 -50)" fill="#fff"/>
      <rect id="Rectangle_1890" data-name="Rectangle 1890" width="116" height="30" rx="8" transform="translate(0 91)" fill="#cee1ff"/>
      <path id="Path_3078" data-name="Path 3078" d="M13.16,113.16l.44-5.48L9.36,110.8,8,108.44l4.68-2.32L8,103.72l1.36-2.32,4.24,3.16L13.16,99h2.68l-.44,5.56,4.24-3.16L21,103.72l-4.72,2.4L21,108.44l-1.36,2.36-4.24-3.12.44,5.48Z"/>
      <path id="Path_3079" data-name="Path 3079" d="M29.449,113.16l.44-5.48-4.24,3.12-1.36-2.36,4.68-2.32-4.68-2.4,1.36-2.32,4.24,3.16L29.449,99h2.68l-.44,5.56,4.24-3.16,1.36,2.32-4.72,2.4,4.72,2.32-1.36,2.36-4.24-3.12.44,5.48Z"/>
      <path id="Path_3080" data-name="Path 3080" d="M45.738,113.16l.44-5.48-4.24,3.12-1.36-2.36,4.68-2.32-4.68-2.4,1.36-2.32,4.24,3.16L45.738,99h2.68l-.44,5.56,4.24-3.16,1.36,2.32-4.72,2.4,4.72,2.32-1.36,2.36-4.24-3.12.44,5.48Z"/>
      <path id="Path_3081" data-name="Path 3081" d="M62.027,113.16l.44-5.48-4.24,3.12-1.36-2.36,4.68-2.32-4.68-2.4,1.36-2.32,4.24,3.16L62.027,99h2.68l-.44,5.56,4.24-3.16,1.36,2.32-4.72,2.4,4.72,2.32-1.36,2.36-4.24-3.12.44,5.48Z"/>
      <path id="Path_3082" data-name="Path 3082" d="M78.316,113.16l.44-5.48-4.24,3.12-1.36-2.36,4.68-2.32-4.68-2.4,1.36-2.32,4.24,3.16L78.316,99H81l-.44,5.56,4.24-3.16,1.36,2.32-4.72,2.4,4.72,2.32L84.8,110.8l-4.24-3.12.44,5.48Z"/>
      <path id="Path_3083" data-name="Path 3083" d="M94.605,113.16l.44-5.48-4.24,3.12-1.36-2.36,4.68-2.32-4.68-2.4,1.36-2.32,4.24,3.16L94.605,99h2.68l-.44,5.56,4.24-3.16,1.36,2.32-4.72,2.4,4.72,2.32-1.36,2.36-4.24-3.12.44,5.48Z"/>
    </g>
  </g>
</svg>
