<svg xmlns="http://www.w3.org/2000/svg" width="16" height="16" viewBox="0 0 16 16">
  <g id="Group_1344" data-name="Group 1344" transform="translate(-30 -192)">
    <rect id="Rectangle_1711" data-name="Rectangle 1711" width="16" height="16" rx="3" transform="translate(30 192)" fill="#d5f6ec"/>
    <path id="flag" d="M6.311,1.262H4.733A1.262,1.262,0,0,0,3.471,0H1.262A1.262,1.262,0,0,0,0,1.262v6a.316.316,0,0,0,.631,0V4.1H3.156A1.262,1.262,0,0,0,4.418,5.364H6.311A1.262,1.262,0,0,0,7.573,4.1V2.524A1.262,1.262,0,0,0,6.311,1.262ZM.631,3.471V1.262A.631.631,0,0,1,1.262.631H3.471a.631.631,0,0,1,.631.631V2.84a.631.631,0,0,1-.631.631ZM6.942,4.1a.631.631,0,0,1-.631.631H4.418A.631.631,0,0,1,3.787,4.1V4.057A1.262,1.262,0,0,0,4.733,2.84V1.893H6.311a.631.631,0,0,1,.631.631Z" transform="translate(34 196)" fill="#4ac19e"/>
  </g>
</svg>
