<svg xmlns="http://www.w3.org/2000/svg" width="20" height="20" viewBox="0 0 20 20">
  <g id="Group_1354" data-name="Group 1354" transform="translate(-85 -490)">
    <rect id="Rectangle_1721" data-name="Rectangle 1721" width="20" height="20" rx="3" transform="translate(85 490)" fill="#fff6e1"/>
    <g id="Layer_2" data-name="Layer 2" transform="translate(89.043 494)">
      <g id="Layer_1" data-name="Layer 1" transform="translate(-0.043)">
        <path id="Path_2489" data-name="Path 2489" d="M417.328,212.434h-.37a.386.386,0,1,1,0-.771h.219c.04,0,.073,0,.1,0h.046a.443.443,0,0,1,.421.251l.018.035v.182l-.012.03A.435.435,0,0,1,417.328,212.434Z" transform="translate(-405.035 -205.809)" fill="#fabf35"/>
        <path id="Path_2490" data-name="Path 2490" d="M68.286,138.76a.731.731,0,0,1-.545-.273c-1.119-1.255-2.312-2.594-3.868-4.342a.682.682,0,0,1-.07-.912l.41-.63c.249-.381.5-.774.754-1.163a.751.751,0,0,1,.677-.369h.006l1.2,0H69.74c.464,0,.839,0,1.182,0h.006a.759.759,0,0,1,.685.374c.251.392.509.79.758,1.174l.4.613a.682.682,0,0,1-.067.912c-1.486,1.669-2.715,3.049-3.868,4.342A.738.738,0,0,1,68.286,138.76Zm.8-1.723,2.639-2.961H70Zm-1.605,0-.912-2.958H64.848Zm.8-.021.905-2.939h-1.81Zm-2.136-3.722-.731-1.129-.734,1.129Zm2.857,0-.719-1.111-.719,1.111Zm2.881,0-.727-1.124-.727,1.124Zm-2.169-.319.725-1.119H68.994Zm-2.859,0,.72-1.114H66.138Z" transform="translate(-61.9 -127.447)" fill="#fabf35"/>
        <path id="Path_2491" data-name="Path 2491" d="M217.519,2.207a.393.393,0,0,1-.387-.428c0-.491,0-.935,0-1.357A.393.393,0,0,1,217.519,0h.01a.387.387,0,0,1,.375.421V1.779a.392.392,0,0,1-.384.428Z" transform="translate(-211.127)" fill="#fabf35"/>
        <path id="Path_2492" data-name="Path 2492" d="M339.118,66.634a.375.375,0,0,1-.265-.114.386.386,0,0,1,.02-.567c.213-.217.432-.435.644-.645l.044-.045a.413.413,0,0,1,.294-.135.387.387,0,0,1,.163.038.4.4,0,0,1,.225.376l0,.05-.026.043-.012.024a.59.59,0,0,1-.1.148c-.207.213-.432.438-.688.691A.43.43,0,0,1,339.118,66.634Z" transform="translate(-329.373 -63.33)" fill="#fabf35"/>
        <path id="Path_2493" data-name="Path 2493" d="M65.73,64.97a.426.426,0,0,1-.3-.134c-.2-.2-.4-.4-.591-.59l-.1-.105a.368.368,0,0,1-.081-.462.565.565,0,0,1,.163-.159.529.529,0,0,0,.055-.043l.091-.077.1.061.068.038a.626.626,0,0,1,.15.1c.245.239.486.482.691.688a.392.392,0,0,1,.026.566A.375.375,0,0,1,65.73,64.97Z" transform="translate(-62.817 -61.648)" fill="#fabf35"/>
        <path id="Path_2494" data-name="Path 2494" d="M.543,212.419l-.074,0a1.443,1.443,0,0,1-.2-.019.374.374,0,0,1-.308-.4.38.38,0,0,1,.359-.353c.083,0,.168-.006.252-.006s.164,0,.245.005a.372.372,0,0,1,.359.35.366.366,0,0,1-.313.4,1.5,1.5,0,0,1-.212.017c-.028,0-.055,0-.083,0H.543Z" transform="translate(0.043 -205.79)" fill="#fabf35"/>
        <path id="Path_2495" data-name="Path 2495" d="M217.87,95.128a.384.384,0,0,1,.009-.768h.007a.383.383,0,0,1,.375.391.39.39,0,0,1-.381.377Z" transform="translate(-211.486 -91.752)" fill="#fabf35"/>
      </g>
    </g>
  </g>
</svg>
