<svg xmlns="http://www.w3.org/2000/svg" xmlns:xlink="http://www.w3.org/1999/xlink" width="375" height="171" viewBox="0 0 375 171">
  <defs>
    <clipPath id="clip-path">
      <path id="Rectangle_613" data-name="Rectangle 613" d="M0,0H375a0,0,0,0,1,0,0V151a20,20,0,0,1-20,20H20A20,20,0,0,1,0,151V0A0,0,0,0,1,0,0Z" fill="#f4e8fa"/>
    </clipPath>
  </defs>
  <g id="Mask_Group_32" data-name="Mask Group 32" clip-path="url(#clip-path)">
    <g id="Group_614" data-name="Group 614">
      <g id="Group_611" data-name="Group 611" transform="translate(57.088 105.511)">
        <line id="Line_147" data-name="Line 147" y1="13.301" x2="8.849" transform="translate(10.434 6.761)" fill="none" stroke="#8c4510" stroke-linecap="round" stroke-miterlimit="10" stroke-width="2"/>
        <path id="Path_995" data-name="Path 995" d="M97.776,242.582s-6.309-2.233-11.333.112S76.9,265.863,92.319,268.5h0S106.793,282.486,97.776,242.582Z" transform="translate(-81.705 -213.154)" fill="#1e3865"/>
        <path id="Path_996" data-name="Path 996" d="M95.095,303.551a27.119,27.119,0,0,0,.265,5.583c1.131,9.072,4.829,23.574,4.829,23.574l4.634.558c-.335-2.554.628-12.38,1.912-23.253,1.94-16.414,4.592-35.256,4.592-35.256s-10.091-8.374-16.037-6.03S95.793,297.186,95.095,303.551Z" transform="translate(-77.334 -202.593)" fill="#f9924f"/>
        <path id="Path_997" data-name="Path 997" d="M94.62,297.52c1.131,9.072,4.829,23.574,4.829,23.574l4.634.558c-.335-2.554.628-12.38,1.912-23.253a20.461,20.461,0,0,1-9.868-.544,4.563,4.563,0,0,0-1.507-.335Z" transform="translate(-76.593 -191.034)" fill="#dceaff"/>
        <path id="Path_998" data-name="Path 998" d="M97.749,224.757a6.755,6.755,0,0,1,5.192,0c2.791,1.172,4.731,6.169,3.5,10.831s2.917,4.745,1,8.486c-.684,1.4-9.77,2.456-10.007-2.722-.181-3.2,2.708-3.35,1.87-6.825S97.749,224.757,97.749,224.757Z" transform="translate(-75.481 -220.034)" fill="#2a3967"/>
        <path id="Path_999" data-name="Path 999" d="M88.628,302.788a33.5,33.5,0,0,0,0,7.272c.782,9.254,3.308,22.471,3.308,22.471l4.578,1.061c-.181-2.526,1.4-12.059,3.21-22.708,2.931-16.567,6.811-35.884,6.811-35.884s-9.547-8.947-15.632-6.979S89.717,296.479,88.628,302.788Z" transform="translate(-79.297 -202.82)" fill="#ffae73"/>
        <path id="Path_1000" data-name="Path 1000" d="M103.3,314.338a5.387,5.387,0,0,0,3.21,2.484,5.22,5.22,0,0,1,3.14,1.968,1.228,1.228,0,0,1-.991,1.954H97.993a1.549,1.549,0,0,1-1.521-1.7c.084-.781.168-1.7.209-2.414a5.123,5.123,0,0,1,1.759-2.917,11.024,11.024,0,0,0,2.024.935,7.412,7.412,0,0,0,2.833-.307Z" transform="translate(-75.863 -184.628)" fill="#1f2d4e"/>
        <path id="Path_1001" data-name="Path 1001" d="M91.923,262.41a81.985,81.985,0,0,0-8.263,29.938s18.619,7.369,35.116,1.131l-2.791-30.427a37.223,37.223,0,0,1-24.062-.642Z" transform="translate(-80.931 -204.928)" fill="#25468f"/>
        <path id="Path_1002" data-name="Path 1002" d="M103.637,240.57s6.979,11.738,8.374,21.313c0,0-3.392,4.578-4.773,1.4S95.975,242.859,103.637,240.57Z" transform="translate(-74.166 -213.571)" fill="#ffae73"/>
        <path id="Path_1003" data-name="Path 1003" d="M107.286,227.373a14.334,14.334,0,0,0-9.016-6.043A8.626,8.626,0,0,0,88.4,228.6c-.726,4.759,0,10.914,7.774,13.134Z" transform="translate(-79.14 -221.226)" fill="#2a3967"/>
        <path id="Path_1004" data-name="Path 1004" d="M103.956,244.217l-8.779,5.22L93,243.254a19.373,19.373,0,0,0,1.312-5.862,23.727,23.727,0,0,0-.14-5.192l7.634,3.322a12.185,12.185,0,0,0-.181,1.7,11.78,11.78,0,0,0,.377,3.95A5.457,5.457,0,0,0,103.956,244.217Z" transform="translate(-77.234 -216.883)" fill="#ffae73"/>
        <path id="Path_1005" data-name="Path 1005" d="M101.6,239.75c-4.187.153-7.69-3.782-7.69-3.782l7.3-.167A12.185,12.185,0,0,0,101.6,239.75Z" transform="translate(-76.873 -215.458)" fill="#f9924f"/>
        <path id="Path_1006" data-name="Path 1006" d="M104.505,241.689s-8.249,2.791-11.556-3.741c-3.587-6.979-.488-12.45,2.331-12.994,5.583-1.061,9.072.893,10.217,3.126S109.013,240.209,104.505,241.689Z" transform="translate(-77.895 -219.868)" fill="#ffae73"/>
        <path id="Path_1007" data-name="Path 1007" d="M98.22,234.684s.4.851,2.582.223c0,0,1.828-.53,1.563-1.493A6.155,6.155,0,0,0,98.22,234.684Z" transform="translate(-75.168 -216.408)" fill="#fff"/>
        <path id="Path_1008" data-name="Path 1008" d="M110.9,255.844a23.825,23.825,0,0,1-5.792,16.218s-1.759-2.121-1.535-2.791,2.791-10.775,4.592-12.213S110.9,255.844,110.9,255.844Z" transform="translate(-73.057 -207.532)" fill="#f9924f"/>
        <path id="Path_1009" data-name="Path 1009" d="M114.708,271.976a35.539,35.539,0,0,1-5.806,1.535,33.983,33.983,0,0,1-5.736.488,31.276,31.276,0,0,1-4.48-.321,30.068,30.068,0,0,1-5.778-1.4,17.482,17.482,0,0,1-2.191-.935,3.423,3.423,0,0,0,0-.544,25.825,25.825,0,0,0-.377-2.945v-.251c-.07-.433-.14-.893-.223-1.4-.991-6.03-2.791-15.144-2.791-15.144l-.572-4.187a4.941,4.941,0,0,1,2.4-4.913,3.823,3.823,0,0,1,.586-.293,15.168,15.168,0,0,1,2.121-.712c1.019-.265,2.08-.461,3.5-.754h0a14.083,14.083,0,0,0,1.605,1.214,7.928,7.928,0,0,0,5.667,1.4c2.275-.433,2.708-1.661,2.6-2.959a10.845,10.845,0,0,1,1.591.181,6.657,6.657,0,0,1,5.694,5.583c.349,2.163.74,6.141,1.131,11.166C114.052,261.229,114.4,266.49,114.708,271.976Z" transform="translate(-79.724 -213.852)" fill="#4e88ff"/>
        <path id="Path_1010" data-name="Path 1010" d="M104.258,265.47s-3.322,1.535-2.191,3.168a2.205,2.205,0,0,0,3.727-.391C106.142,267.2,104.258,265.47,104.258,265.47Z" transform="translate(-73.74 -203.718)" fill="#f9924f"/>
        <path id="Path_1011" data-name="Path 1011" d="M99.213,226.415s.782,7.732-6.56,10.468c-2.917,1.089-4.438-10.719,1.661-13.078s12.115.433,12.827,4.564.181,4.983.181,4.983S104.461,225.507,99.213,226.415Z" transform="translate(-78.382 -220.547)" fill="#2a3967"/>
        <path id="Path_1012" data-name="Path 1012" d="M102.306,266.78s4.187,0,4.355.949a2.987,2.987,0,0,1-4.089,2.945c-3.015-1.061-2.931-1.717-2.931-1.717Z" transform="translate(-74.607 -203.199)" fill="#ffae73"/>
        <path id="Path_1013" data-name="Path 1013" d="M93.005,224.826a6.043,6.043,0,0,0-5.192,0c-2.791,1.4-4.731,6.979-3.5,12.185s-2.917,5.346-1,9.561c.684,1.493,9.77,2.791,10.007-3.057.181-3.6-2.708-3.782-1.87-7.69S93.005,224.826,93.005,224.826Z" transform="translate(-81.274 -220.033)" fill="#2a3967"/>
        <path id="Path_1014" data-name="Path 1014" d="M88.44,298.06c.782,9.254,3.308,22.471,3.308,22.471l4.578,1.061c-.181-2.526,1.4-12.059,3.21-22.708a29.49,29.49,0,0,1-11.1-.824Z" transform="translate(-79.038 -190.821)" fill="#fff"/>
        <path id="Path_1015" data-name="Path 1015" d="M96.118,314.338a5.387,5.387,0,0,0,3.2,2.484,5.22,5.22,0,0,1,3.154,1.968,1.228,1.228,0,0,1-1,1.954H90.814a1.535,1.535,0,0,1-1.521-1.7c.084-.782.168-1.7.209-2.415a5.039,5.039,0,0,1,1.759-2.917,11.025,11.025,0,0,0,2.024.935A7.413,7.413,0,0,0,96.118,314.338Z" transform="translate(-78.704 -184.628)" fill="#2a3967"/>
        <path id="Path_1016" data-name="Path 1016" d="M99.295,267.161a16.168,16.168,0,0,1-1.326,1.717,30.061,30.061,0,0,1-5.778-1.4c-2.415-5.89-3.671-15.492-3.671-15.492Z" transform="translate(-79.007 -209.052)" fill="#3977e5"/>
        <path id="Path_1017" data-name="Path 1017" d="M104.841,242.24s7.2,16.944,6.979,21.494-3.2,11.166-4.187,11.515l-1.047.349s-2.6-.642-2.666-2.205c0,0,2.108-9.77,1.605-11.166S104.841,242.24,104.841,242.24Z" transform="translate(-72.913 -212.91)" fill="#4e88ff"/>
        <path id="Path_1018" data-name="Path 1018" d="M106.958,259.2c-1.619-2.973-2.708-11.864-2.708-11.864l1.8,17.781S107.767,260.669,106.958,259.2Z" transform="translate(-72.783 -210.892)" fill="#3977e5"/>
        <path id="Path_1019" data-name="Path 1019" d="M104.793,265.3c-2.791-.628-6.979-10.189-6.979-10.189l-4.355,4.955,7.076,7.9a33.974,33.974,0,0,0,5.731-.488l2.015-.364,2.08-5.066-.4-3.95C110.6,265.034,107.152,265.829,104.793,265.3Z" transform="translate(-77.053 -207.817)" fill="#3977e5"/>
        <path id="Path_1020" data-name="Path 1020" d="M100.5,243.286s-4.787-2.177-6.49-4.536c0,0-1.9,1.089-2.066,2.345S97.956,244.486,100.5,243.286Z" transform="translate(-77.654 -214.291)" fill="#fff"/>
        <path id="Path_1021" data-name="Path 1021" d="M100.164,239.07s-.265,3.266-2.094,4.187c0,0,3.447-.2,4.634-2.791a4.4,4.4,0,0,0-2.54-1.4Z" transform="translate(-75.228 -214.164)" fill="#fff"/>
        <path id="Path_1022" data-name="Path 1022" d="M97.93,242.087a.307.307,0,1,1,.307.307A.307.307,0,0,1,97.93,242.087Z" transform="translate(-75.283 -213.092)" fill="#2a3967"/>
        <path id="Path_1023" data-name="Path 1023" d="M98.178,257.243a16.93,16.93,0,0,1-8.556,10.049c-.07-.433-.14-.893-.223-1.4a15.632,15.632,0,0,0,7.523-9.114,12.729,12.729,0,0,0-.782-11.166,9.058,9.058,0,0,0-7.69-3.992,3.825,3.825,0,0,1,.586-.293,15.155,15.155,0,0,1,2.121-.712,9.854,9.854,0,0,1,6.1,4.285A14.083,14.083,0,0,1,98.178,257.243Z" transform="translate(-79.036 -213.551)" fill="#25468f"/>
        <path id="Path_1024" data-name="Path 1024" d="M95.886,244.48s3.182,12.813,3.308,18.144c0,0,7.383,12.91,7.83,13.818s-2.666,2.177-2.666,2.177-9.267-9.882-11.054-14.041-6.42-16.9-5.457-20.056C89.229,239.93,95.886,244.48,95.886,244.48Z" transform="translate(-79.326 -212.819)" fill="#ffae73"/>
        <path id="Path_1025" data-name="Path 1025" d="M87.309,243.875c-.6,3.406,3,18.591,4.885,22.555s5.262,8.765,9.254,8.835c0,0,3.057-.74,3.392-2.987a47.721,47.721,0,0,0-3.308-8.528c-1.577-2.54-4.062-18.647-5.583-19.666S87.909,240.525,87.309,243.875Z" transform="translate(-79.513 -212.926)" fill="#4e88ff"/>
      </g>
      <g id="Group_612" data-name="Group 612" transform="translate(-0.317 99.172)">
        <path id="Path_1026" data-name="Path 1026" d="M64.072,238.938s-9.212-3.685-16.567.2-13.957,38.187,8.6,42.542h0S77.233,304.733,64.072,238.938Z" transform="translate(-40.575 -208.504)" fill="#1e3865"/>
        <path id="Path_1027" data-name="Path 1027" d="M76.424,277.879l-.572-2.038s-2.694-.265-2.791-.209l.237,6.141a4.409,4.409,0,0,0,1.9-.893l.991-1.647A3.168,3.168,0,0,0,76.424,277.879Z" transform="translate(-27.721 -193.361)" fill="#ffae73"/>
        <path id="Path_1028" data-name="Path 1028" d="M70.45,239.56s3.294-.167,5.15,4.187c3.824,8.988,2.163,28.528,1.926,31.32,0,0,1.4,5.583-.642,15.1l-2.429-.126s-4.034-36.177-3.559-39.918a54.323,54.323,0,0,0-.447-10.566Z" transform="translate(-28.753 -207.632)" fill="#fff"/>
        <path id="Path_1029" data-name="Path 1029" d="M50.72,315.881l1.242,4.508H62.514S65.668,314.625,50.72,315.881Z" transform="translate(-36.56 -177.501)" fill="#1e3865"/>
        <path id="Path_1030" data-name="Path 1030" d="M66.93,315.881l1.256,4.508H78.738S81.878,314.625,66.93,315.881Z" transform="translate(-30.146 -177.501)" fill="#1e3865"/>
        <path id="Path_1031" data-name="Path 1031" d="M70.438,243.214l-9.9,5.108-1.312-6.546a28.417,28.417,0,0,0,1.3-6.462,35.424,35.424,0,0,0,.07-5.764l8.067,4.187a13.864,13.864,0,0,0-.321,1.787,14.279,14.279,0,0,0,0,3.126,6.63,6.63,0,0,0,2.094,4.564Z" transform="translate(-33.192 -211.593)" fill="#ffae73"/>
        <path id="Path_1032" data-name="Path 1032" d="M78.815,268.27,58.8,269.861s-2.442,35.061,10.677,66.129l11.808-.8Z" transform="translate(-33.433 -196.271)" fill="#1e3865"/>
        <path id="Path_1033" data-name="Path 1033" d="M51.441,269.65s-3.95,20.126-1.158,65.236h12.38L70.4,280.062c.251-1.605,3.406-3.838,3.406-3.838l.126-6.183Z" transform="translate(-37.127 -195.725)" fill="#25468f"/>
        <path id="Path_1034" data-name="Path 1034" d="M51.5,255.647l1.144,8.165-3.168,16.33a2.443,2.443,0,0,0,2.233,2.917c6.029.4,20.6,1.019,30.482-1.787a2.875,2.875,0,0,0,2.094-2.987l-1.745-21.829-.614-7.677-.628-7.9a23.309,23.309,0,0,0-8.249-2.61c.084,1.214-.335,2.331-2.791,2.61a9.211,9.211,0,0,1-6.769-2.247,2.637,2.637,0,0,0-.335-.363c-1.773.181-3.838.488-5.583.837-.279,0-6.574,12.561-6.574,12.561Z" transform="translate(-37.072 -208.142)" fill="#4e88ff"/>
        <path id="Path_1035" data-name="Path 1035" d="M49.46,280.035S77.472,265.7,63.71,242.35c-.656-1.117-1.759-3.168-3.154-3.81a13.717,13.717,0,0,0-2.582.447c1.4.391,3.489,3.741,4.578,6.783,2.038,5.681,7.09,16.455-12.729,30.706Z" transform="translate(-37.059 -208.036)" fill="#25468f"/>
        <path id="Path_1036" data-name="Path 1036" d="M56.032,257.423c.307,0,2.917.084,2.917.084s1.3-4.885,4.885-4.885c0,0,1.675-.154,1.158,1.2a6.392,6.392,0,0,0-1.117,2.345,4.773,4.773,0,0,1-2.973,3.545l-1.549.419S55.181,257.493,56.032,257.423Z" transform="translate(-34.503 -202.465)" fill="#ffae73"/>
        <path id="Path_1037" data-name="Path 1037" d="M67.976,237.655c-3.029.391-7.7-3.922-7.816-4.006s5.583,0,7.816.14A22.333,22.333,0,0,0,67.976,237.655Z" transform="translate(-32.825 -209.984)" fill="#f9924f"/>
        <path id="Path_1038" data-name="Path 1038" d="M71.044,241.055s-12.3,1.507-12.561-7.16S63.4,219.63,66.759,219.7c6.825.126,7.956,2.875,8.737,5.75S76.7,240.468,71.044,241.055Z" transform="translate(-33.492 -215.491)" fill="#ffae73"/>
        <path id="Path_1039" data-name="Path 1039" d="M65.73,231.787s.223.907,2.484.74c0,0,1.884-.14,1.814-1.145a6.085,6.085,0,0,0-4.3.4Z" transform="translate(-30.62 -210.955)" fill="#fff"/>
        <path id="Path_1040" data-name="Path 1040" d="M62.988,240.364a16.441,16.441,0,0,1-.907-4.815s-2.429-3.071-1.033-3.922,2.205,1.089,2.54.726.837-6.532,2.582-6.337,9.616,2.443,12.436,0-5.471-12.185-17.069-8.514S52.241,233.874,62.988,240.364Z" transform="translate(-35.332 -216.684)" fill="#b2b3b7"/>
        <path id="Path_1041" data-name="Path 1041" d="M55.315,221.664a4.062,4.062,0,0,1,0-2.694,4.327,4.327,0,0,0,.628,2.233C56.6,221.887,55.315,221.664,55.315,221.664Z" transform="translate(-34.832 -215.78)" fill="#b2b3b7"/>
        <path id="Path_1042" data-name="Path 1042" d="M56.018,220.114a2.289,2.289,0,0,0-2.107.949,1.87,1.87,0,0,1,2.038,0Z" transform="translate(-35.298 -215.333)" fill="#b2b3b7"/>
        <path id="Path_1043" data-name="Path 1043" d="M59.44,238.87s-2.359-.126-6.574,6.909C50.6,249.533,41,267.385,45.957,269.325s14.892,0,17.446-2.722l-1.4-4.187s-6.979.307-6.867,0a29.633,29.633,0,0,1,3.517-6.686C65.358,246.225,59.44,238.87,59.44,238.87Z" transform="translate(-39 -207.905)" fill="#fff"/>
        <path id="Path_1044" data-name="Path 1044" d="M66.723,241.43s-4.843-2.191-6.546-4.55c0,0-1.759,1.019-1.926,2.275S64.183,242.63,66.723,241.43Z" transform="translate(-33.58 -208.693)" fill="#fff"/>
        <path id="Path_1045" data-name="Path 1045" d="M66.645,237.25s-.335,3.392-2.275,4.034c0,0,3.531.251,4.717-2.289C69.018,238.995,67.8,237.208,66.645,237.25Z" transform="translate(-31.159 -208.546)" fill="#fff"/>
        <path id="Path_1046" data-name="Path 1046" d="M66.535,249.846a.614.614,0,1,1-.6-.726.67.67,0,0,1,.6.726Z" transform="translate(-30.784 -203.849)" fill="#1e3865"/>
        <path id="Path_1047" data-name="Path 1047" d="M66.535,256.846a.614.614,0,1,1-.6-.726A.67.67,0,0,1,66.535,256.846Z" transform="translate(-30.784 -201.079)" fill="#1e3865"/>
        <path id="Path_1048" data-name="Path 1048" d="M66.535,264.4a.614.614,0,1,1-.6-.726A.67.67,0,0,1,66.535,264.4Z" transform="translate(-30.784 -198.091)" fill="#1e3865"/>
        <path id="Path_1049" data-name="Path 1049" d="M75.768,276.354l.656-1.842-3.154-.181.07,1.9Z" transform="translate(-27.637 -193.873)" fill="#fff"/>
        <path id="Path_1050" data-name="Path 1050" d="M58,256.35a15.185,15.185,0,0,0,.391-2.9c-.1-.544.963-.126.963,1a1.214,1.214,0,0,1-.307.7l-.558,2.261Z" transform="translate(-33.68 -202.23)" fill="#ffae73"/>
        <path id="Path_1051" data-name="Path 1051" d="M58.791,255.46,56,256.074l.5,3.405H58.6l-1.2,1.7.544.223,2.917-2.791a10.383,10.383,0,0,1-2.066-3.154Z" transform="translate(-34.471 -201.34)" fill="#d2e8ff"/>
      </g>
      <g id="Group_613" data-name="Group 613">
        <rect id="Rectangle_611" data-name="Rectangle 611" width="34" height="34" rx="4" transform="translate(82 82)" fill="#e8657a"/>
        <rect id="Rectangle_612" data-name="Rectangle 612" width="34" height="34" rx="4" transform="translate(108 104)" fill="#49bca1"/>
        <text id="A" transform="translate(98 104)" fill="#fff" font-size="16" font-family="Lato-Bold, Lato" font-weight="700"><tspan x="-5.68" y="0">A</tspan></text>
        <text id="B" transform="translate(125 128)" fill="#fff" font-size="16" font-family="Lato-Bold, Lato" font-weight="700"><tspan x="-5.212" y="0">B</tspan></text>
      </g>
    </g>
  </g>
</svg>
