<svg version="1.2" xmlns="http://www.w3.org/2000/svg" viewBox="0 0 38 24" width="38" height="24"><defs><clipPath clipPathUnits="userSpaceOnUse" id="cp1"><path d="m-208-789h375v920h-375z"/></clipPath></defs><style>.a{fill:#fff;stroke:#fff;stroke-linecap:round;stroke-width:2}.b{fill:none;stroke:#4e88ff;stroke-linecap:round;stroke-width:1.5}</style><g clip-path="url(#cp1)"><path class="a" d="m0 4c0-1.7 1.3-3 3-3h12c1.7 0 3 1.3 3 3v17c0 1.7-1.3 3-3 3h-12c-1.7 0-3-1.3-3-3z"/><path class="b" d="m5 6h10"/><path class="b" d="m5 10h10"/><path class="b" d="m5 15h10"/><path class="b" d="m5 19h10"/><path class="a" d="m19 4c0-1.7 1.3-3 3-3h12c1.7 0 3 1.3 3 3v17c0 1.7-1.3 3-3 3h-12c-1.7 0-3-1.3-3-3z"/><path class="b" d="m32 6h-10"/><path class="b" d="m32 10h-10"/><path class="b" d="m32 15h-10"/><path class="b" d="m32 19h-10"/></g></svg>