<svg version="1.2" xmlns="http://www.w3.org/2000/svg" viewBox="0 0 122 95" width="122" height="95"><defs><clipPath clipPathUnits="userSpaceOnUse" id="cp1"><path d="m0-95h375v920h-375z"/></clipPath><clipPath clipPathUnits="userSpaceOnUse" id="cp2"><path d="m0-8c0-11.05 8.95-20 20-20h336c11.04 0 20 8.95 20 20v64c0 11.05-8.96 20-20 20h-336c-11.05 0-20-8.95-20-20z"/></clipPath></defs><style>tspan{white-space:pre}.a{fill:#3c71dc}.b{fill:#f9f2d9}.c{fill:#95cbad}.d{fill:#471540}.e{fill:#c69262}.f{fill:#f4ce8e}.g{fill:#951a45}.h{fill:#dc5b3e}.i{fill:#f89830}.j{fill:#f6debc}.k{fill:#b3b3b3}.l{opacity:.1}.m{fill:#fff}.n{font-size: 6px;fill: #8395ae;font-weight: 700;font-family: "Lato-Bold", "Lato"}.o{font-size: 7px;fill: #8395ae;font-weight: 700;font-family: "Lato-Bold", "Lato"}</style><g clip-path="url(#cp1)"><g clip-path="url(#cp2)"><path class="a" d="m20.9 57.6l1.2-57 98.9 2-1.1 57z"/><path class="b" d="m24.1 54.8l1.1-51.4 92.6 1.9-1 51.4z"/><path class="c" d="m81.3 13.4v-1.4l31.1 0.6-0.1 1.4z"/><path class="c" d="m81.2 16.1l0.1-1.4 31 0.7v1.4z"/><path class="c" d="m81.2 18.9v-1.4l31 0.7v1.4z"/><path class="c" d="m80.7 41.6v-1.4l31.1 0.7v1.4z"/><path class="c" d="m80.6 44.4l0.1-1.4 31 0.7v1.4z"/><path class="c" d="m80.6 47.2v-1.4l31.1 0.7-0.1 1.3z"/><path class="c" d="m80.9 30.5l0.1-1.4 31 0.7v1.3z"/><path class="c" d="m80.9 33.3v-1.4l31 0.6v1.4z"/><path class="c" d="m33.5 12.4l0.1-1.4 31 0.6v1.4z"/><path class="c" d="m33.5 15.2v-1.4l31.1 0.6-0.1 1.4z"/><path class="c" d="m33.4 17.9v-1.3l31.1 0.6v1.4z"/><path class="c" d="m60.9 41.2v-1.4l3.2 0.1-0.1 1.4z"/><path class="c" d="m33.2 29.5v-1.4l31.1 0.7-0.1 1.4z"/><path class="c" d="m33.1 32.3l0.1-1.4 31 0.7v1.3z"/><path class="d" d="m33.2 11.6l-3.6 2.7 0.3-10.8 7.1 0.1-0.3 10.9z"/><path class="e" d="m77.9 10.6l5 2.9-0.4 5.1c0 0 2.1-2.4-4.7 0-6.7 2.3-6.4-2.7-6.4-2.7z"/><path class="f" d="m110 68.8l-16 7.4-9.5-30.4-1.5-3.4c0 0-8.6-9.7-10.6-11.3l-4.4-8.2-1.3-7.2c0 0 0.2-0.1 3.2 1.1 3 1.2 3.9 8.3 7.9 7.8 4-0.6 3.9-3.8 3.9-3.8 0 0-0.6-3.7-4.8-6.5 0 0-4.8 4.9-9.8-0.2-0.4-0.4 4.1 0.4 10.3-7.9l2 0.5 9.4 7.5c0 0 5.2-0.5 5 5.1-0.1 5.6 2.6 19.7 2.6 19.7z"/><path class="g" d="m82.9 50.2l-1.2-3 20.1-7.9 1.1 3z"/><path class="d" d="m98.3 94l-17-43.2 23.2-9.1 17 43.2z"/><path class="f" d="m66.6 16.7q-0.1 0-0.1 0 0 0 0.1 0z"/><path class="f" d="m66.5 15.4q0-0.1 0-0.1 0 0.1 0 0.1z"/><path class="f" d="m66.6 17.9z"/><path class="f" d="m66.5 14.1q0 0 0 0z"/><path class="f" d=""/><path class="f" d="m66.6 17.9z"/><path class="f" d=""/><path class="h" d="m66.6 16.7z"/><path class="h" d="m66.5 15.4z"/><path class="g" d=""/><path class="g" d="m66.5 14.1q0 0 0 0z"/><path class="g" d="m66.5 15.4z"/><path class="f" d="m66.6 17.9v-1.2z"/><path class="h" d="m66.6 16.7l-0.1-1.3z"/><path class="i" d="m106.1 15l0.1 1.3-39.6 1.6v-1.2z"/><path class="h" d="m106.1 13.7v1.3l-39.5 1.7-0.1-1.3z"/><path class="g" d="m106 12.4l0.1 1.3-39.6 1.7v-1.3z"/><path class="j" d="m66.6 17.9l-1-0.3q-0.1-0.1-0.1-0.3c0-0.3 0.4-0.6 1-0.7q0 0 0.1 0.1z"/><path class="h" d="m66.6 16.6q0 0-0.1 0c-0.6 0.1-1.1-0.2-1.1-0.6 0-0.3 0.5-0.6 1.1-0.7q0 0 0 0.1z"/><path class="g" d="m66.5 15.3q0 0.1 0 0.1c-0.6 0-1.1-0.3-1.1-0.6q0-0.2 0.1-0.3l1-0.4z"/><path class="g" d="m66.5 15.4v-1.3 1.3z"/><path class="f" d="m63 16.9l-0.1-1.4 2.6-1q-0.1 0.1-0.1 0.3c0 0.3 0.5 0.6 1.1 0.6-0.6 0-1.1 0.3-1.1 0.6 0.1 0.4 0.5 0.7 1.1 0.6-0.6 0.1-1 0.4-1 0.7q0 0.2 0.1 0.3z"/><path class="d" d="m60.8 16.2l2.1-0.8 0.1 1.5z"/><path class="k" d="m105.4 16.4l-0.2-3.9 1.6-0.1 0.1 3.9z"/><path class="f" d="m106 12.4l1.9-0.1c0.7 0 1.2 0.2 1.2 0.4l0.2 3.1c0 0.2-0.6 0.4-1.3 0.5h-1.8z"/><path class="f" d="m71.2 17.8l-4.1 0.1-0.4-2.2c0 0 0.3-0.1 3.2 1.1 0.5 0.2 0.9 0.5 1.3 1z"/><path class="f" d="m76.9 14.3c0 0-4.8 4.9-9.8-0.2q-0.1 0 0-0.1l10.5-0.4c-0.1 0.1-0.6 0.5-0.7 0.7z"/><path class="f" d="m76.9 13c0.2 0.2 0.2 0.6 0 0.8q-0.2 0.2-0.4 0.3-0.3-0.5-0.6-0.9 0.3-0.2 0.6-0.3c0.2 0 0.3 0 0.5 0.1 0.1 0 0.2 0.2 0.2 0.3 0.1 0.3 0 0.6-0.3 0.7q-0.2 0-0.3 0.1c0 0-0.1 0 0 0q0 0-0.1 0c-0.2 0.2-0.6 0.1-0.7-0.2-0.2-0.2-0.1-0.6 0.1-0.7 0.1-0.1 0 0.1 0 0q0-0.1 0.1-0.1 0 0 0.1-0.1c0.2-0.2 0.5-0.2 0.8 0z"/><path class="f" d="m76.7 13.8c-0.3 0.1-0.5 0.3-0.8 0.4-0.4 0.1-0.8-0.2-0.7-0.6q0-0.1 0.1-0.2 0.3 0.3 0.6 0.6c-0.2 0.1-0.5 0.3-0.8 0.4-0.3 0.1-0.6-0.1-0.7-0.4q0 0 0-0.1 0.3 0.2 0.7 0.4c-0.4 0.1-0.7 0.2-1.1 0.2-0.6 0.1-0.7-0.7-0.3-1q0.1-0.1 0.2-0.2 0.2 0.5 0.5 1c-0.6 0.1-1.1 0.3-1.6 0.3-0.7 0.1-0.8-0.7-0.4-1q0.2-0.2 0.5-0.2 0.2 0.4 0.5 0.9c-0.5 0.2-1 0.3-1.5 0.3-0.5 0-0.8-0.7-0.3-1q0.2-0.1 0.4-0.2 0.1 0.5 0.3 1c-0.5 0.1-1 0.1-1.5 0.3-0.7 0.2-1-0.8-0.3-1.1 0.5-0.2 1.1-0.2 1.7-0.3 0.6-0.1 0.8 0.7 0.4 1q-0.2 0.1-0.4 0.2-0.2-0.5-0.3-1c0.4 0 0.7-0.1 1.1-0.2 0.6-0.2 1 0.7 0.5 1q-0.3 0.1-0.5 0.3-0.1-0.5-0.3-1.1c0.5 0 0.9-0.1 1.3-0.3 0.7-0.2 1 0.6 0.5 1q-0.1 0.1-0.2 0.2-0.2-0.5-0.4-1 0.5 0 0.9-0.2c0.2-0.1 0.6 0.1 0.6 0.4q0.1 0.1 0.1 0.1-0.4-0.2-0.7-0.4c0.3-0.1 0.5-0.2 0.8-0.3 0.4-0.1 0.8 0.2 0.7 0.6q0 0.1 0 0.2-0.4-0.3-0.7-0.7c0.4-0.1 0.8-0.2 1.2-0.2 0.7-0.2 0.6 0.8-0.1 0.9z"/><path class="f" d="m71.2 14.7c-0.1-0.2-0.7 0.1-0.9 0.2q-0.1-0.5-0.2-1.1 0 0 0.1 0 0 0.5 0.1 1c-0.2-0.1-0.5 0-0.7 0.1-0.6 0-0.8-0.8-0.3-1.1q0 0 0.1-0.1 0.1 0.5 0.2 1-0.1 0-0.3 0c-0.6 0.1-0.8-0.9-0.2-1q0.1-0.1 0.3-0.1 0.1 0.5 0.2 1.1c-0.3 0-0.5 0.1-0.8 0.2q0-0.6 0-1.1 0 0 0.1 0c0.7 0.2 0.4 1.2-0.3 1.1q-0.1 0-0.2 0 0.2-0.5 0.3-1 0.1 0.1 0.1 0.1c0.4 0.3 0.1 0.9-0.4 0.9q-0.2 0-0.4 0c0-0.3 0-0.6 0-0.9 0.1 0 0.1-0.2 0.2-0.2 0.7-0.1 1 0.9 0.3 1.1-0.1 0-0.1-0.1-0.3-0.1-0.7 0-0.9-0.8-0.2-0.8 0.2 0 0.3-0.2 0.4-0.2q-0.2 0.5-0.3 1-0.1-0.1-0.1-0.1c-0.3-0.3-0.1-0.9 0.4-0.9q0.2 0 0.5 0-0.1 0.5-0.2 1.1-0.1 0-0.1 0c-0.6-0.2-0.6-0.9-0.1-1.1 0.3-0.1 0.6-0.3 1-0.3 0.7 0.1 0.8 0.9 0.2 1.1q-0.1 0.1-0.2 0.1-0.1-0.5-0.2-1.1c0.2 0 0.4 0 0.6 0.1 0.4 0 0.6 0.7 0.1 0.9q-0.1 0.1-0.1 0.1-0.2-0.5-0.4-1c0.4 0 0.7-0.1 1.1 0 0.4 0.1 0.6 0.8 0.2 1-0.3 0.1-0.4 0.2-0.7 0.2-0.6 0.1-0.7-0.9-0.2-1.1 0.7-0.2 1.5-0.5 2.1 0.1 0.5 0.4-0.3 1.2-0.8 0.8z"/><path class="l" d="m-5 29c0-2.2 1.8-4 4-4h60c2.2 0 4 1.8 4 4v8c0 2.2-1.8 4-4 4h-60c-2.2 0-4-1.8-4-4z"/><path class="m" d="m-6 27c0-2.2 1.8-4 4-4h61c2.2 0 4 1.8 4 4v9c0 2.2-1.8 4-4 4h-61c-2.2 0-4-1.8-4-4z"/><path class="l" d="m-5 48c0-2.2 1.8-4 4-4h60c2.2 0 4 1.8 4 4v9c0 2.2-1.8 4-4 4h-60c-2.2 0-4-1.8-4-4z"/><path class="m" d="m-6 47c0-2.2 1.8-4 4-4h61c2.2 0 4 1.8 4 4v9c0 2.2-1.8 4-4 4h-61c-2.2 0-4-1.8-4-4z"/><text style="transform:matrix(1,0,0,1,15,32)" ><tspan x="0" y="0" class="n">Maths
</tspan></text><text style="transform:matrix(1,0,0,1,14,52)" ><tspan x="0" y="0" class="o">English
</tspan></text></g></g></svg>