<svg xmlns="http://www.w3.org/2000/svg" width="231.727" height="187.003" viewBox="0 0 231.727 187.003">
  <g id="login-02" transform="translate(-249.29 -67.714)">
    <path id="Path_3007" data-name="Path 3007" d="M490.856,374.335a.054.054,0,0,1-.041-.088l14.6-17.528a.057.057,0,0,1,.044-.019l23.273.947a.053.053,0,0,1,.051.055.055.055,0,0,1-.055.051l-23.248-.946L490.9,374.316A.056.056,0,0,1,490.856,374.335Z" transform="translate(-215.785 -252.171)"/>
    <rect id="Rectangle_1874" data-name="Rectangle 1874" width="54.765" height="28.993" rx="3" transform="translate(268.526 123.213) rotate(-23.65)" fill="#e3a638"/>
    <path id="Path_3008" data-name="Path 3008" d="M672.913,420.313a.254.254,0,0,1-.2.015.285.285,0,0,1-.14-.157l-1.643-3.754a.284.284,0,0,1-.021-.213.213.213,0,0,1,.125-.132.231.231,0,0,1,.151-.023.443.443,0,0,1,.156.066l4.075,2.3-.142.062-1.463-3.341a.252.252,0,0,1-.016-.2.243.243,0,0,1,.143-.14.213.213,0,0,1,.188,0,.251.251,0,0,1,.134.145l1.651,3.771a.3.3,0,0,1,.024.2.186.186,0,0,1-.116.121.28.28,0,0,1-.157.027A.587.587,0,0,1,675.5,419l-4.069-2.305.135-.06,1.461,3.334a.288.288,0,0,1,.021.213A.251.251,0,0,1,672.913,420.313Zm5.891-2.565a2.105,2.105,0,0,1-1.124.182,1.954,1.954,0,0,1-.987-.455,2.818,2.818,0,0,1-.725-1.032,3.031,3.031,0,0,1-.258-.942,2.036,2.036,0,0,1,.092-.835,1.805,1.805,0,0,1,.41-.686,2.15,2.15,0,0,1,.723-.5,2.08,2.08,0,0,1,1.128-.18,1.851,1.851,0,0,1,.984.448,2.712,2.712,0,0,1,.73,1.024,2.965,2.965,0,0,1,.255.95,2.131,2.131,0,0,1-.09.841,1.85,1.85,0,0,1-.413.695A2.193,2.193,0,0,1,678.8,417.747Zm-.19-.431a1.473,1.473,0,0,0,.668-.533,1.385,1.385,0,0,0,.223-.794,2.526,2.526,0,0,0-.239-.993,2.081,2.081,0,0,0-.913-1.091,1.407,1.407,0,0,0-1.229,0,1.482,1.482,0,0,0-.662.533,1.4,1.4,0,0,0-.213.792,2.469,2.469,0,0,0,.235.986,2.119,2.119,0,0,0,.916,1.1A1.333,1.333,0,0,0,678.615,417.316Zm3.965-1.236a.263.263,0,0,1-.206.012.287.287,0,0,1-.147-.16l-1.546-3.529-1.328.577a.242.242,0,0,1-.191.013.228.228,0,0,1-.126-.128.213.213,0,0,1-.009-.179.261.261,0,0,1,.142-.126l3.146-1.378a.262.262,0,0,1,.189-.019.213.213,0,0,1,.127.128.242.242,0,0,1,.011.185.264.264,0,0,1-.143.126l-1.327.582,1.545,3.529a.291.291,0,0,1,.018.213A.258.258,0,0,1,682.58,416.08Zm2.529-1.108a.269.269,0,0,1-.213.015.31.31,0,0,1-.142-.163l-1.634-3.736a.3.3,0,0,1-.023-.213.266.266,0,0,1,.154-.145.244.244,0,0,1,.206-.013.278.278,0,0,1,.148.161l1.635,3.735a.306.306,0,0,1,.023.213A.255.255,0,0,1,685.109,414.972Zm3.08-1.334a2.206,2.206,0,0,1-1.164.2,1.887,1.887,0,0,1-1-.443,2.838,2.838,0,0,1-.729-1.039,3.03,3.03,0,0,1-.258-.942,2.037,2.037,0,0,1,.092-.835,1.82,1.82,0,0,1,.434-.7,2.3,2.3,0,0,1,.753-.514,2.47,2.47,0,0,1,.746-.2,1.772,1.772,0,0,1,.7.05.3.3,0,0,1,.16.092.213.213,0,0,1,.068.139.25.25,0,0,1-.021.143.187.187,0,0,1-.1.093.32.32,0,0,1-.185.012,1.584,1.584,0,0,0-.577-.05,1.931,1.931,0,0,0-.585.158,1.615,1.615,0,0,0-.7.547,1.322,1.322,0,0,0-.24.787,2.868,2.868,0,0,0,.8,1.838,1.364,1.364,0,0,0,.746.364,1.649,1.649,0,0,0,.877-.152,1.953,1.953,0,0,0,.512-.32,1.762,1.762,0,0,0,.364-.469.275.275,0,0,1,.136-.123.185.185,0,0,1,.136-.011.229.229,0,0,1,.107.078.22.22,0,0,1,.06.135.243.243,0,0,1-.034.163,1.879,1.879,0,0,1-.442.581A2.539,2.539,0,0,1,688.189,413.638Zm2.413-1.12a.32.32,0,0,1-.229.022.306.306,0,0,1-.152-.173l-1.59-3.63a.285.285,0,0,1-.02-.223.294.294,0,0,1,.169-.159l2.2-.959a.232.232,0,0,1,.177-.014.218.218,0,0,1,.117.125.2.2,0,0,1-.116.3l-1.989.87.631,1.44,1.865-.817a.232.232,0,0,1,.177-.014.224.224,0,0,1,0,.422l-1.864.816.656,1.5,1.989-.87a.223.223,0,0,1,.177-.014.213.213,0,0,1,.117.124.2.2,0,0,1-.116.3Z" transform="translate(-376.696 -297.447)" fill="#fff"/>
    <rect id="Rectangle_1875" data-name="Rectangle 1875" width="15.034" height="20.403" rx="3" transform="translate(274.184 125.425) rotate(-23.65)" fill="#ffc865"/>
    <path id="Path_3009" data-name="Path 3009" d="M700.96,474.706a.052.052,0,0,1-.049-.032.053.053,0,0,1,.027-.07l23.609-10.334a.053.053,0,1,1,.043.1L700.981,474.7a.054.054,0,0,1-.021.005Z" transform="translate(-403.504 -348.275)" fill="#b66f1c"/>
    <path id="Path_3010" data-name="Path 3010" d="M717.035,511.623a.054.054,0,0,1-.021-.107l23.608-10.334a.053.053,0,1,1,.043.1l-23.608,10.334a.054.054,0,0,1-.021.009Z" transform="translate(-417.857 -381.257)" fill="#b66f1c"/>
    <path id="Path_3011" data-name="Path 3011" d="M733.3,577.472a.052.052,0,0,1-.049-.032.053.053,0,0,1,.028-.07l15.738-6.891a.052.052,0,0,1,.07.028.053.053,0,0,1,0,.041.052.052,0,0,1-.028.029l-15.733,6.892a.054.054,0,0,1-.027,0Z" transform="translate(-432.401 -443.172)" fill="#b66f1c"/>
    <path id="Path_3012" data-name="Path 3012" d="M584.143,1094.738s-10.627-29.093-20.5-24.952,14.779,22.683,18.478,33.558Z" transform="translate(-278.789 -888.929)" fill="#9ea03d"/>
    <path id="Path_3013" data-name="Path 3013" d="M428.908,1083.506s-27.449-35.947-38.579-26.3,29.051,23.3,38.552,35.928Z" transform="translate(-124.288 -876.581)" fill="#c4c461"/>
    <path id="Path_3014" data-name="Path 3014" d="M306.928,1180.8s-14.515-20.2-37.719-16.607-26.847,31.131-7.166,34.775,37.637-11.807,44.815-6.98S306.928,1180.8,306.928,1180.8Z" transform="translate(0 -973.253)" fill="#dde298"/>
    <path id="Path_3015" data-name="Path 3015" d="M318.224,1288.129a.213.213,0,0,1-.107-.046.221.221,0,0,1-.035-.311,28.723,28.723,0,0,1,10.483-7.294A38.065,38.065,0,0,1,342,1277.523a54.739,54.739,0,0,1,19.2,2.948.224.224,0,0,1-.137.426,54.206,54.206,0,0,0-19.023-2.927,37.564,37.564,0,0,0-13.274,2.908,28.271,28.271,0,0,0-10.334,7.173A.222.222,0,0,1,318.224,1288.129Z" transform="translate(-61.421 -1074.863)" fill="#9ea03d"/>
    <path id="Path_3016" data-name="Path 3016" d="M1892.32,1157.077s18.042-44.272,29.871-38.925-18.663,26.988-23.505,40.042Z" transform="translate(-1467.993 -932.103)" fill="#dde298"/>
    <path id="Path_3017" data-name="Path 3017" d="M1950.979,1234.49s4.922-21.98,25.526-27.22,33.414,16.406,18.31,26.42-35.543,3.523-39.809,10.092S1950.979,1234.49,1950.979,1234.49Z" transform="translate(-1520.401 -1011.407)" fill="#c4c461"/>
    <path id="Path_3018" data-name="Path 3018" d="M2038.459,1324.633a.2.2,0,0,1-.2.006,25.619,25.619,0,0,0-11.155-2.307,34.147,34.147,0,0,0-12.091,2.288,49.135,49.135,0,0,0-14.808,9.19.2.2,0,0,1-.264-.3,49.4,49.4,0,0,1,14.946-9.268,34.444,34.444,0,0,1,12.24-2.309,26.015,26.015,0,0,1,11.322,2.355.2.2,0,0,1,.081.273A.2.2,0,0,1,2038.459,1324.633Z" transform="translate(-1564.096 -1114.572)" fill="#9ea03d"/>
    <path id="Path_3019" data-name="Path 3019" d="M569.856,1461.082c-7.484,2.111-17.024,2.889-28.569,1.443-7.681-.959-14.766-2.45-21.477-3.9-15-3.237-28.135-6.277-41.868-2.82-16.158,4.068-28.444,5.771-38.319,6.135-24.645.909-34.208-6.531-51.22-6.364a22.344,22.344,0,0,1-8.53-1.5c-12.038-4.814-13.493-19.849,8.7-25.219.426-.107.852-.2,1.289-.291,8.136-1.7,18.776-1.533,47.341-1.335q4.155.029,8.833.057c7.289.042,15.575.076,25.035.08,12.4.006,23.509-.036,33.457-.086l6.974-.037,5.16-.028c13.154-.071,23.941-.118,32.782-.01,10.547.13,18.324.482,24.038,1.279C596.943,1431.752,595.057,1453.97,569.856,1461.082Z" transform="translate(-108.959 -1208.547)" fill="#eaeef1"/>
    <path id="Path_3020" data-name="Path 3020" d="M1886.42,884.2l7.373-.922,2.383,1.85-.541,1.7Zm7.306-.681-6.157.769,7.916,2.262.426-1.337Z" transform="translate(-1462.722 -722.653)" fill="#31313b"/>
    <path id="Path_3021" data-name="Path 3021" d="M1884.29,878.963l10.82-1.633,8.05,3.344Z" transform="translate(-1460.819 -717.337)" fill="#ffd26d"/>
    <path id="Path_3022" data-name="Path 3022" d="M1892.685,823.32l-8.395,3.179,7.781-7.889Z" transform="translate(-1460.819 -664.873)" fill="#ffd26d"/>
    <path id="Path_3023" data-name="Path 3023" d="M1892.685,862.82l-.728,2.022L1884.29,866Z" transform="translate(-1460.819 -704.373)" fill="#31313b"/>
    <path id="Path_3024" data-name="Path 3024" d="M1912.669,542.176a10.267,10.267,0,0,1-1.918-.163l.05-.234a10.994,10.994,0,0,0,4.56-.179c3.163-.843,5.163-3.108,5.944-6.732a6.745,6.745,0,0,0,.053-2.423c-.262.009-.523.012-.786.012-4.907-.017-8.638-1.768-10.233-4.8-.671-1.278-.386-1.961-.029-2.312.978-.959,3.773-.592,6.363.835,1.137.626,4.286,2.644,4.92,6.018a23.4,23.4,0,0,0,8.416-1.992,13.45,13.45,0,0,0,6.491-5.426c1.354-2.533,1.079-5.347-.8-8.138a22.159,22.159,0,0,0-9.481-7.692,40.554,40.554,0,0,0-11.592-3.108,62.041,62.041,0,0,0-13.948-.159l-.03-.238a62.266,62.266,0,0,1,14,.158,40.768,40.768,0,0,1,11.664,3.126,22.439,22.439,0,0,1,9.588,7.777c1.929,2.869,2.209,5.769.81,8.385-2.2,4.114-8.554,7.253-15.073,7.545a6.863,6.863,0,0,1-.094,2.483c-1,4.637-3.882,6.321-6.125,6.916A10.791,10.791,0,0,1,1912.669,542.176Zm-.608-17.128a2.259,2.259,0,0,0-1.582.466c-.426.426-.4,1.122.072,2.024,1.554,2.954,5.207,4.658,10.023,4.675.246,0,.494,0,.746-.011-.342-1.775-1.491-4.02-4.76-5.819A10.09,10.09,0,0,0,1912.061,525.048Z" transform="translate(-1475.436 -384.786)" fill="#0c0c0f"/>
    <path id="Path_3025" data-name="Path 3025" d="M771.813,525.348c5.079-6.94,8.949-12.842,8.949-12.842l2.606-27.767s-13.94,4.059-20.218,11.046c-1.271,1.415-19.307,25.842-14.672,51.533Z" transform="translate(-445.329 -366.571)" fill="#fff"/>
    <path id="Path_3026" data-name="Path 3026" d="M748.882,542.754h0a.374.374,0,0,1-.372-.376c.038-6.579,1.731-14.617,4.767-22.634,2.869-7.573,6.624-14.257,10.3-18.339,3.456-3.835,8.355-6.373,11.857-7.827a46.375,46.375,0,0,1,6.835-2.261.375.375,0,0,1,.455.377l-.884,26.693a.375.375,0,0,1-.061.193c-.038.06-3.933,5.989-8.96,12.857a.374.374,0,0,1-.6-.441c4.687-6.4,8.38-11.98,8.881-12.739l.864-26.094c-2.263.583-12.122,3.409-17.828,9.742-3.622,4.015-7.322,10.613-10.159,18.1-3.006,7.936-4.687,15.882-4.719,22.372a.374.374,0,0,1-.376.374Z" transform="translate(-446.037 -372.44)" fill="#31313c"/>
    <path id="Path_3027" data-name="Path 3027" d="M850.72,1113.18s26.5,17.951,25.517,23.9c-.281,1.693-9.055.065-9.055.065Z" transform="translate(-537.358 -928.061)" fill="#ff9353"/>
    <path id="Path_3028" data-name="Path 3028" d="M969.377,578a.374.374,0,0,1-.332-.542,24.933,24.933,0,0,1,5.847-7.332,47.647,47.647,0,0,1,8.148-4.876.373.373,0,0,1,.313.678,46.792,46.792,0,0,0-7.99,4.783,24.741,24.741,0,0,0-5.646,7.083A.376.376,0,0,1,969.377,578Z" transform="translate(-643.041 -438.473)" fill="#31313c"/>
    <path id="Path_3029" data-name="Path 3029" d="M674.9,823.19s.252,20.313-16.03,25.438c-2.167.682-5.433,2.693-5.873,4.922,0,0-1.334-.67-7.055,47.262H610.231c1.778-5.5-4.83-20.068-3.02-25.355,9.325-27.207,15.244-41.122,15.244-41.122Z" transform="translate(-319.507 -668.965)" fill="#fff"/>
    <path id="Path_3030" data-name="Path 3030" d="M970.718,898.937a.337.337,0,0,1-.046,0,.374.374,0,0,1-.326-.417c1.113-9.08,2.131-16.914,3.1-23.953l.045-.32c.018-.128.036-.256.053-.381.468-3.371.922-6.52,1.351-9.361V864.5c1.659-10.98,2.4-13.859,2.467-14.1.354-1.752,2.183-3.145,3.244-3.819a13.088,13.088,0,0,1,1.312-.736c.122-.061.252-.122.408-.192l.245-.107.03-.012c.232-.1.461-.185.682-.259.054-.02.115-.039.175-.058h.007l.031-.01.02-.007c.064-.019.128-.041.191-.061l.027-.011a20.681,20.681,0,0,0,3.078-1.285c.479-.248.959-.521,1.417-.812a19.386,19.386,0,0,0,3.153-2.466l.025-.026a24.867,24.867,0,0,0,6.371-11.013l.005-.018a36.116,36.116,0,0,0,1.124-5.114,30.845,30.845,0,0,0,.351-4.261.374.374,0,0,1,.369-.378h0a.373.373,0,0,1,.373.37,30.935,30.935,0,0,1-.358,4.374,36.923,36.923,0,0,1-1.152,5.241.132.132,0,0,1,0,.017,25.6,25.6,0,0,1-6.54,11.3.258.258,0,0,1-.023.026,20.093,20.093,0,0,1-3.3,2.585c-.478.3-.973.585-1.47.843a21.6,21.6,0,0,1-3.162,1.323l-.027.01c-.072.025-.145.048-.219.07l-.02.007-.021.008-.024.007c-.05.016-.107.032-.155.051q-.32.106-.649.247l-.028.011-.222.095c-.143.065-.265.123-.381.18a12.511,12.511,0,0,0-1.238.695,6.037,6.037,0,0,0-2.916,3.347l-.006.028c-.007.027-.762,2.833-2.45,14.019v.011c-.426,2.84-.883,5.989-1.351,9.36-.017.127-.035.255-.053.385l-.045.32c-.972,7.031-1.986,14.867-3.1,23.943A.375.375,0,0,1,970.718,898.937Zm12.111-52.7h0ZM983.483,845.2Zm0,0Zm14.655-15.581Z" transform="translate(-644.238 -665.891)" fill="#31313c"/>
    <path id="Path_3031" data-name="Path 3031" d="M617.787,967.791a.38.38,0,0,1-.122-.02.374.374,0,0,1-.23-.476c2.045-5.9,3.442-10.859,4.675-15.234,1.2-4.255,2.329-8.273,3.835-12.358.578-1.571,1.123-3.045,1.628-4.405,1.3-3.5,2.557-6.851,3.729-9.957v-.008c.132-.352.2-.533.2-.533a.374.374,0,0,1,.7.266s-.068.178-.2.52l-.013.033c-1.172,3.1-2.426,6.445-3.729,9.94-.5,1.36-1.048,2.833-1.627,4.4-1.492,4.055-2.62,8.06-3.814,12.3-1.235,4.388-2.636,9.363-4.687,15.28A.374.374,0,0,1,617.787,967.791Z" transform="translate(-328.906 -759.55)" fill="#31313c"/>
    <path id="Path_3032" data-name="Path 3032" d="M510.98,1058.394h0c-.255-.089-.513-.181-.771-.279h0a37.774,37.774,0,0,1-6.353-3.042c-11.843-7.138-18.165-18.244-21.275-24.42a47.488,47.488,0,0,0-2.27-4.4c-.2-.236-1.031,1.385-2.333,4.4-1.2,2.77-8.508,21.247-15.775,39.737-3.589,9.132-7.168,18.267-9.993,25.51a22.358,22.358,0,0,0,8.53,1.5c17.012-.167,26.575,7.273,51.22,6.364l6.416-34.653,1.789-9.667h0l.006-.032v-.021C519.6,1060.319,515.693,1060.025,510.98,1058.394Z" transform="translate(-181.303 -850.372)" fill="#31313c"/>
    <path id="Path_3033" data-name="Path 3033" d="M957.948,675.262a.372.372,0,0,1-.33-.2,5.616,5.616,0,0,0-3.818-2.582c-.369-.1-.522-.137-.633-.272a.374.374,0,0,1,.509-.54c.057.021.193.058.32.089a6.38,6.38,0,0,1,4.287,2.953.373.373,0,0,1-.153.505A.363.363,0,0,1,957.948,675.262ZM953.742,671.733Z" transform="translate(-628.813 -533.522)" fill="#31313c"/>
    <path id="Path_3034" data-name="Path 3034" d="M1023.1,307.661l48.624-3.312a4.969,4.969,0,0,0,4.385-5.5l-6.872-94.959a5.025,5.025,0,0,0-5.135-4.854l-48.625,3.313a4.968,4.968,0,0,0-4.384,5.5l6.875,94.959A5.016,5.016,0,0,0,1023.1,307.661Z" transform="translate(-680.633 -111.292)" fill="#31313c"/>
    <path id="Path_3035" data-name="Path 3035" d="M1049.764,306.265l49.265-3.357a4.635,4.635,0,0,0,4.089-5.132l-6.916-95.491a4.686,4.686,0,0,0-4.794-4.527l-49.266,3.357a4.635,4.635,0,0,0-4.089,5.132l6.914,95.49A4.7,4.7,0,0,0,1049.764,306.265Z" transform="translate(-704.722 -110.154)" fill="#fff"/>
    <path id="Path_3036" data-name="Path 3036" d="M1039.347,243.533l-.129,1.358v.138l.015.206.045-.026h.007c.055-.034.107-.066.167-.1Zm62.208,52.15-.229-3.16h0l-.3-4.165-.05-.691-.286-3.928h0l-.959-13.183-.293-4.048-.846-11.687-3.956-54.625a4.928,4.928,0,0,0-5.035-4.76l-49.261,3.354a4.332,4.332,0,0,0-1.172.247h0a5.024,5.024,0,0,0-3.12,5.148l1.668,23.156h0l.027.375h0l.721,9.951.3,4.162v.014l.256,3.521h0l.066.91v.017l.618,8.523.373,5.156h0l2.017,27.83h0l.039.549.821,11.329a5.073,5.073,0,0,0,3.835,4.675h0a4.277,4.277,0,0,0,1.194.085l47.468-3.234,1.8-.121A4.876,4.876,0,0,0,1101.555,295.683Zm-5.873,5.007h0l-.863.059-46.861,3.2a4.445,4.445,0,0,1-4.543-4.293l-.817-11.292-.05-.7h0l-2.045-28.231h0l-.333-4.605-.7-9.708h0l-.12-1.585v-.016l-.437-6.017V237.4l-.712-9.816h0l-.029-.41h0l-1.667-23.021a4.4,4.4,0,0,1,3.88-4.867l47.727-3.252h0l1.542-.107a4.446,4.446,0,0,1,4.542,4.293l3.947,54.593.813,11.225h0l.3,4.174.947,13.067.263,3.643h0l.106,1.426.287,3.949.246,3.409a4.4,4.4,0,0,1-3.878,4.869Zm-56.335-57.157-.129,1.358v.138l.015.206.045-.026h.007c.055-.034.107-.066.167-.1Zm0,0-.129,1.358v.138l.015.206h0a.5.5,0,0,0,.045-.027h.007c.055-.034.107-.066.167-.1Z" transform="translate(-702.93 -108.077)" fill="#31313b"/>
    <path id="Path_3037" data-name="Path 3037" d="M1078.381,258.7l6.306,87.087a2.383,2.383,0,0,0,2.437,2.3l46.745-3.185a2.358,2.358,0,0,0,2.082-2.611l-6.306-87.085a2.383,2.383,0,0,0-2.436-2.3l-46.742,3.185A2.359,2.359,0,0,0,1078.381,258.7Z" transform="translate(-740.759 -159.425)" fill="#f5f5f5"/>
    <path id="Path_3038" data-name="Path 3038" d="M1303.1,231.416a.934.934,0,0,0-.959-.9.921.921,0,0,0-.815,1.024.933.933,0,0,0,.959.9A.922.922,0,0,0,1303.1,231.416Z" transform="translate(-939.959 -139.427)" fill="#31313b"/>
    <path id="Path_3039" data-name="Path 3039" d="M1324.856,1144.322l8.96-.611a1.149,1.149,0,0,0,1.011-1.268l-.072-1a1.16,1.16,0,0,0-1.184-1.119l-8.959.61a1.148,1.148,0,0,0-1.01,1.268l.071,1A1.161,1.161,0,0,0,1324.856,1144.322Z" transform="translate(-959.859 -952.316)" fill="#fff"/>
    <path id="Path_3040" data-name="Path 3040" d="M1333.119,1140.286l-.072-1a1.4,1.4,0,0,0-1.43-1.352l-8.961.61a1.388,1.388,0,0,0-1.221,1.534l.072.994a1.4,1.4,0,0,0,1.43,1.352l8.959-.61A1.379,1.379,0,0,0,1333.119,1140.286Zm-11.154.758-.072-.994a.908.908,0,0,1,.8-1l8.961-.61a.918.918,0,0,1,.936.886l.072.994a.907.907,0,0,1-.8,1l-8.96.61a.912.912,0,0,1-.936-.882Z" transform="translate(-957.923 -950.179)" fill="#31313b"/>
    <g id="Group_1481" data-name="Group 1481" transform="translate(349.799 92.466)" opacity="0.3">
      <path id="Path_3041" data-name="Path 3041" d="M1192.75,245.935l40.067,22.631-1.649-22.782a2.383,2.383,0,0,0-2.436-2.3Z" transform="translate(-1192.75 -243.475)" fill="#fff"/>
    </g>
    <g id="Group_1482" data-name="Group 1482" transform="translate(340.786 151.175)" opacity="0.3">
      <path id="Path_3042" data-name="Path 3042" d="M1108.14,794.56l2.475,34.181a2.383,2.383,0,0,0,2.437,2.3l46.744-3.185a2.36,2.36,0,0,0,2.082-2.611l-.219-3.032Z" transform="translate(-1108.14 -794.56)" fill="#fff"/>
    </g>
    <g id="Group_1483" data-name="Group 1483" transform="translate(336.948 95.582)" opacity="0.3">
      <path id="Path_3043" data-name="Path 3043" d="M1072.121,275.413l.746,10.263,54.16,36.541-1.339-18.423L1075.34,272.72l-1.142.078A2.359,2.359,0,0,0,1072.121,275.413Z" transform="translate(-1072.114 -272.72)" fill="#fff"/>
    </g>
    <path id="Path_3044" data-name="Path 3044" d="M788.939,660.014s-10.44,6.506-11.158,2.15c-2.45-14.958,7.734-24.389,14.037-30.628,4.083-4.046,28.322-20.608,30.291-15.038,1.194,3.382-5.312,9.674-10.322,15.4-3.244,3.707-5.567,7.438-5.753,9.113-.4,3.487.241,7.377-1.059,9.72C800.056,659.592,788.939,660.014,788.939,660.014Z" transform="translate(-471.856 -483.279)" fill="#fff"/>
    <path id="Path_3045" data-name="Path 3045" d="M882.607,657.22a.374.374,0,0,1-.026-.746c.091-.006,9.162-.711,13.968-6.363a13.21,13.21,0,0,0,2.908-10.133c-.485-5.369,4.209-10.054,8.749-14.584,4.19-4.18,8.147-8.128,7.208-11.972a1,1,0,0,0-.746-.771c-2.012-.608-7.351,1.661-15.042,6.392A121.245,121.245,0,0,0,885.2,629.2a.374.374,0,0,1-.506-.551,123.534,123.534,0,0,1,14.53-10.246c5.57-3.425,12.806-7.326,15.651-6.467a1.746,1.746,0,0,1,1.26,1.309c1.039,4.252-3.063,8.345-7.405,12.677-4.418,4.408-8.986,8.967-8.532,13.988A13.916,13.916,0,0,1,897.11,650.6a18.89,18.89,0,0,1-9.152,5.55,25.752,25.752,0,0,1-5.327,1.065Z" transform="translate(-565.525 -480.111)" fill="#31313c"/>
    <path id="Path_3046" data-name="Path 3046" d="M1304.562,340.076l-57.157-6.594a2.424,2.424,0,0,1-2.131-2.686l3.615-31.331a2.424,2.424,0,0,1,2.686-2.131l57.157,6.6a2.423,2.423,0,0,1,2.131,2.685l-3.616,31.331A2.424,2.424,0,0,1,1304.562,340.076Z" transform="translate(-889.865 -199.115)" fill="#e6eeff"/>
    <rect id="Rectangle_1876" data-name="Rectangle 1876" width="10.923" height="0.984" transform="translate(391.616 105.888) rotate(6.58)" fill="#31313b"/>
    <rect id="Rectangle_1877" data-name="Rectangle 1877" width="16.106" height="0.984" transform="translate(391.316 108.492) rotate(6.58)" fill="#31313b"/>
    <rect id="Rectangle_1878" data-name="Rectangle 1878" width="10.923" height="0.984" transform="translate(405.173 107.452) rotate(6.58)" fill="#31313b"/>
    <rect id="Rectangle_1879" data-name="Rectangle 1879" width="10.85" height="0.582" transform="translate(360.891 128.763) rotate(6.58)" fill="#4e88ff"/>
    <rect id="Rectangle_1880" data-name="Rectangle 1880" width="15.714" height="0.582" transform="translate(360.694 130.468) rotate(6.58)" fill="#4e88ff"/>
    <rect id="Rectangle_1881" data-name="Rectangle 1881" width="10.85" height="0.582" transform="translate(373.249 130.19) rotate(6.58)" fill="#4e88ff"/>
    <rect id="Rectangle_1882" data-name="Rectangle 1882" width="16.353" height="1.268" transform="translate(361.35 124.787) rotate(6.58)" fill="#4e88ff"/>
    <rect id="Rectangle_1883" data-name="Rectangle 1883" width="12.013" height="1.268" transform="translate(380.867 127.038) rotate(6.58)" fill="#4e88ff"/>
    <path id="Path_3047" data-name="Path 3047" d="M1208.355,757.3l-22.258,1.424a8.722,8.722,0,0,1-9.235-8.122h0a8.723,8.723,0,0,1,8.123-9.234l22.258-1.424a8.722,8.722,0,0,1,9.234,8.123h0A8.723,8.723,0,0,1,1208.355,757.3Z" transform="translate(-828.741 -594.57)" fill="#3bb28d"/>
    <path id="Path_3048" data-name="Path 3048" d="M1678.007,1044.742a135.492,135.492,0,0,0-5.635-15.673c-.043-.092-.083-.182-.125-.272-3.622-7.851-6.433-8.378-7.964-13.21a31.88,31.88,0,0,1-.746-5.474c-.187-2.323-.346-5.153-.482-8.193-.088-1.984-.165-4.056-.233-6.133-.295-8.984-.417-18.063-.443-20.494-.006-.41-.009-.631-.009-.631.391-6.124,6.36-6.2,7.99-6.04,1.1.107,2.311,1.413,2.983,2.249a.046.046,0,0,1,.007.011c.32.4.515.688.515.688.639-1.317,5.487-2.4,7.113-1.545s3.872,4.962,3.872,4.962c.466-1.7,3.262-2.914,5.7-2.388s9.407,13.956,11.148,17.969c1.012,2.33,1.079,8.231,1.093,14.545.011,4.555-.008,9.325.283,13.125.179,2.366,1.426,6.485,3.172,11.281h0C1711.192,1043.112,1678.95,1047.849,1678.007,1044.742Z" transform="translate(-1262.541 -798.871)" fill="#fff"/>
    <path id="Path_3049" data-name="Path 3049" d="M1678.8,1043.112a12.174,12.174,0,0,1-2.45-.207c-.882-.189-1.379-.5-1.518-.959h0a133.607,133.607,0,0,0-5.619-15.632l-.124-.27a35.12,35.12,0,0,0-4.843-7.821,15.747,15.747,0,0,1-3.137-5.426,30.408,30.408,0,0,1-.757-5.55c-.172-2.131-.334-4.9-.482-8.2-.083-1.873-.162-3.942-.233-6.137-.309-9.393-.426-18.725-.444-20.5,0-.409-.009-.63-.009-.63v-.027a6.447,6.447,0,0,1,2.139-4.687c2.29-1.951,5.591-1.743,6.23-1.681,1.172.113,2.4,1.352,3.217,2.374a.3.3,0,0,1,.018.025c.093.115.174.22.244.313a5.433,5.433,0,0,1,1.977-1.039c1.751-.575,4.13-.839,5.288-.232,1.326.7,2.969,3.3,3.673,4.5.95-1.53,3.516-2.45,5.813-1.961,1.172.25,3.208,2.89,6.065,7.844,2.222,3.852,4.4,8.2,5.327,10.326,1.014,2.336,1.107,7.793,1.123,14.683v1.172c.007,4.163.014,8.468.279,11.932.161,2.115,1.22,5.874,3.148,11.176v.014a7.767,7.767,0,0,1-1.629,8.226c-3.373,3.875-9.774,5.995-13.29,6.914A42.63,42.63,0,0,1,1678.8,1043.112Zm-3.3-1.368c.014.048.13.3,1,.479,2.663.569,8.125-.2,12.145-1.249,3.439-.9,9.695-2.964,12.941-6.7a7.111,7.111,0,0,0,1.5-7.519v-.013c-1.952-5.368-3.027-9.195-3.2-11.373-.266-3.489-.274-7.808-.281-11.984v-1.172c-.015-6.574-.107-12.2-1.065-14.406-.93-2.142-3.164-6.565-5.294-10.256-3.747-6.5-5.17-7.417-5.608-7.51-2.2-.474-4.874.606-5.292,2.14a.348.348,0,0,1-.639.075c-.611-1.116-2.471-4.161-3.729-4.821-.843-.442-2.928-.32-4.746.277-1.186.39-1.755.83-1.891,1.111a.349.349,0,0,1-.6.042s-.19-.282-.493-.661h0l-.013-.017a5.139,5.139,0,0,0-2.737-2.113,8.225,8.225,0,0,0-5.71,1.518,5.744,5.744,0,0,0-1.9,4.185c0,.053,0,.265.009.616.02,1.775.134,11.1.443,20.487.072,2.2.15,4.261.233,6.129.147,3.3.309,6.053.48,8.181a31.02,31.02,0,0,0,.727,5.4,15.049,15.049,0,0,0,3.021,5.206,35.761,35.761,0,0,1,4.928,7.959l.124.271a134.111,134.111,0,0,1,5.653,15.719Zm-5.276-73.553.012.014V968.2Zm-.012-.018Z" transform="translate(-1259.69 -795.975)" fill="#31313c"/>
    <path id="Path_3050" data-name="Path 3050" d="M1769.39,998.58a.35.35,0,0,1-.189-.055,4.63,4.63,0,0,1-1.561-1.9l-.062-.115c-3.045-5.687-5.391-9.115-5.414-9.149a.349.349,0,0,1,.574-.4c.023.034,2.39,3.492,5.455,9.215l.063.117a4,4,0,0,0,1.323,1.642.35.35,0,0,1-.19.639Z" transform="translate(-1351.649 -815.157)" fill="#31313c"/>
    <path id="Path_3051" data-name="Path 3051" d="M1876.653,1035.627a.333.333,0,0,1-.131-.025,4.778,4.778,0,0,1-2.124-2.047c-2.837-5.479-4.213-7.535-4.227-7.555a.349.349,0,0,1,.578-.39c.055.083,1.408,2.1,4.269,7.625a4.046,4.046,0,0,0,1.767,1.722.348.348,0,0,1-.132.671Z" transform="translate(-1448.15 -849.682)" fill="#31313c"/>
    <path id="Path_3052" data-name="Path 3052" d="M1792.828,1483.073s-.159-.019-.46-.038-.779-.034-1.385-.026c-3.752.063-12.851,1.131-23.773,8.949a19.791,19.791,0,0,0-3.835,3.674c-.349.435-.678.875-.988,1.313a27.523,27.523,0,0,0-2.887,5.255l.674,6.364c6.712,1.448,13.8,2.935,21.477,3.9,11.545,1.447,21.085.669,28.569-1.443C1801.421,1496.808,1792.828,1483.073,1792.828,1483.073Z" transform="translate(-1349.323 -1258.489)" fill="#31313c"/>
    <path id="Path_3053" data-name="Path 3053" d="M1495.476,835.2a2.975,2.975,0,0,1-2.26-1.193c-3.271-4.924-9.848-14.535-13.806-20.829-5.369-8.54-8.905-11.865-10.3-10.858-3.761,2.711-1.624,8.559,3.32,17.983,5.327,10.149,15.393,36.179,16.819,40.887Z" transform="translate(-1088.158 -650.162)" fill="#fff"/>
    <path id="Path_3054" data-name="Path 3054" d="M1485.139,860.377c-1.415-4.669-11.393-30.527-16.795-40.826-2.861-5.456-4.343-8.922-4.955-11.593-.746-3.268-.195-5.44,1.741-6.835a1.369,1.369,0,0,1,1.1-.207c1.391.272,4.2,2.428,9.694,11.161,2.821,4.486,6.976,10.661,10.315,15.623,1.368,2.032,2.549,3.787,3.486,5.2a2.619,2.619,0,0,0,1.976,1.038l-.011.7a3.306,3.306,0,0,1-2.546-1.35c-.936-1.409-2.117-3.164-3.484-5.2-3.342-4.966-7.5-11.144-10.326-15.641-5.852-9.306-8.41-10.686-9.238-10.847a.7.7,0,0,0-.565.087c-1.679,1.21-2.146,3.153-1.468,6.114.6,2.609,2.061,6.026,4.893,11.425,5.418,10.328,15.426,36.264,16.844,40.947Z" transform="translate(-1084.472 -649.029)" fill="#31313c"/>
    <path id="Path_3055" data-name="Path 3055" d="M1484.068,1189.073a23.605,23.605,0,0,1-6.944-3.149c-2.983-2.266-5.026-4-6.522-5.327-6.448-5.7-16.481-3.516-3.981,9.588,11.911,12.485,14.222,23.7,28.018,25.957Z" transform="translate(-1082.316 -985.65)" fill="#fff"/>
    <path id="Path_3056" data-name="Path 3056" d="M1491.613,1213.543a.335.335,0,0,1-.059,0c-9.459-1.546-13.65-7.3-18.956-14.595a106.824,106.824,0,0,0-9.269-11.474,26.207,26.207,0,0,1-5.552-7.732c-.959-2.45-.39-3.769.26-4.445.88-.913,2.459-1.2,4.334-.8a12.312,12.312,0,0,1,5.433,2.876c1.262,1.116,3.31,2.876,6.5,5.307a23.39,23.39,0,0,0,6.818,3.09.36.36,0,1,1-.183.7,23.733,23.733,0,0,1-7.069-3.211c-3.211-2.44-5.272-4.217-6.543-5.342-3.055-2.7-7.244-3.71-8.776-2.114-.724.746-.761,2.024-.106,3.681.815,2.073,2.633,4.6,5.4,7.5a107.777,107.777,0,0,1,9.328,11.547c2.679,3.681,4.994,6.86,7.814,9.34a20.469,20.469,0,0,0,10.676,4.964.36.36,0,0,1-.058.715Z" transform="translate(-1079.287 -982.688)" fill="#31313c"/>
    <path id="Path_3057" data-name="Path 3057" d="M1582.148,155.219c1.76-.066,3.43.868,3.563,2.762.026.371.607.374.582,0a3.711,3.711,0,0,0-4.145-3.343C1581.775,154.653,1581.773,155.234,1582.148,155.219Z" transform="translate(-1190.614 -71.633)" fill="#31313c"/>
    <path id="Path_3058" data-name="Path 3058" d="M1575.428,118.8a8.374,8.374,0,0,1,6.029,2.035,7.442,7.442,0,0,1,2.485,5.035c.022.372.6.374.581,0a8.025,8.025,0,0,0-2.655-5.449,8.969,8.969,0,0,0-6.44-2.205c-.373.017-.375.6,0,.582Z" transform="translate(-1184.61 -39.088)" fill="#31313c"/>
    <path id="Path_3059" data-name="Path 3059" d="M1583.555,74.1c4.249-.063,9.068,1.428,11.074,5.5a10.013,10.013,0,0,1,.946,4.237.291.291,0,0,0,.582,0,9.841,9.841,0,0,0-2.7-6.869,11.973,11.973,0,0,0-6.04-3.08,17.43,17.43,0,0,0-3.857-.366A.291.291,0,0,0,1583.555,74.1Z" transform="translate(-1191.871 0.843)" fill="#31313c"/>
    <circle id="Ellipse_389" data-name="Ellipse 389" cx="8.568" cy="8.568" r="8.568" transform="translate(362.419 102.787)" fill="#fff"/>
    <path id="Path_3060" data-name="Path 3060" d="M1365.855,380.971a3.491,3.491,0,0,1-.482-.033,3.443,3.443,0,1,1,3.884-2.936h0A3.443,3.443,0,0,1,1365.855,380.971Zm-.01-6.673a3.23,3.23,0,1,0,3.2,3.675h0a3.233,3.233,0,0,0-2.754-3.645A3.182,3.182,0,0,0,1365.846,374.3Z" transform="translate(-994.531 -267.703)" fill="#31313b"/>
    <path id="Path_3061" data-name="Path 3061" d="M1348.95,445.407l-.213-.029a3.243,3.243,0,0,0-2.76-3.657l-2.77-.386a3.244,3.244,0,0,0-3.654,2.762l-.213-.03a3.456,3.456,0,0,1,3.895-2.944l2.77.386A3.457,3.457,0,0,1,1348.95,445.407Z" transform="translate(-973.924 -327.572)" fill="#31313b"/>
    <g id="Group_1485" data-name="Group 1485" transform="translate(315.229 67.714)">
      <circle id="Ellipse_390" data-name="Ellipse 390" cx="9.791" cy="9.791" r="9.791" transform="translate(0)" fill="#eaeef1"/>
      <path id="Path_3062" data-name="Path 3062" d="M1047.885,409.314a2.23,2.23,0,1,0,2.625,1.748A2.23,2.23,0,0,0,1047.885,409.314Zm.927,2.876a.258.258,0,0,1-.5.1l-.213-1.093-.168.034a.258.258,0,0,1-.106-.5l.42-.084a.259.259,0,0,1,.3.2Z" transform="translate(-1037.454 -404.649)" fill="#f44336"/>
      <path id="Path_3063" data-name="Path 3063" d="M1041.726,465.751a1.372,1.372,0,1,1-1.615-1.076,1.372,1.372,0,0,1,1.615,1.076Z" transform="translate(-1031.124 -454.127)" fill="#ffa000"/>
      <path id="Path_3064" data-name="Path 3064" d="M1024.844,424.454c-.035.009-.07.02-.106.028a2.909,2.909,0,0,1-3.3-3.882.529.529,0,0,0-.1.015,2.4,2.4,0,0,0-1.882,2.826l.188.938a2.3,2.3,0,0,1-.457,1.888.6.6,0,0,0,.59.959l5.549-1.112a.6.6,0,0,0,.171-1.115A2.3,2.3,0,0,1,1024.844,424.454Z" transform="translate(-1013.296 -414.772)" fill="#ffc107"/>
    </g>
    <g id="Group_1484" data-name="Group 1484" transform="translate(401.509 144.664)">
      <rect id="Rectangle_1884" data-name="Rectangle 1884" width="19.38" height="14.341" rx="2" transform="translate(0 1.44)" fill="#eaeaea"/>
      <path id="Path_3065" data-name="Path 3065" d="M1731.89,608.928a1.718,1.718,0,0,1,1.716-1.718h15.944a1.718,1.718,0,0,1,1.718,1.718V610.7H1731.89Z" transform="translate(-1731.89 -605.769)" fill="#ff4e4e"/>
      <path id="Path_3066" data-name="Path 3066" d="M1772.47,596.958a.319.319,0,0,1-.32-.32V594.01a.32.32,0,0,1,.639,0v2.629A.32.32,0,0,1,1772.47,596.958Z" transform="translate(-1767.861 -593.69)"/>
      <path id="Path_3067" data-name="Path 3067" d="M1867.069,596.958a.32.32,0,0,1-.32-.32V594.01a.32.32,0,0,1,.639,0v2.629A.32.32,0,0,1,1867.069,596.958Z" transform="translate(-1852.383 -593.69)"/>
      <path id="Path_3068" data-name="Path 3068" d="M1773.813,669.549H1762.74a.32.32,0,0,1,0-.639h11.073a.32.32,0,0,1,0,.639Z" transform="translate(-1759.168 -660.896)" fill="#ffc0c0"/>
      <path id="Path_3069" data-name="Path 3069" d="M1765.984,672.746h-1.121a.213.213,0,1,1,0-.426h1.121a.213.213,0,1,1,0,.426Z" transform="translate(-1761.16 -663.943)" fill="#222744"/>
      <path id="Path_3070" data-name="Path 3070" d="M1791.445,672.746h-1.122a.213.213,0,1,1,0-.426h1.122a.213.213,0,1,1,0,.426Z" transform="translate(-1783.908 -663.943)" fill="#222744"/>
      <path id="Path_3071" data-name="Path 3071" d="M1820.554,672.746h-1.121a.213.213,0,0,1,0-.426h1.121a.213.213,0,0,1,0,.426Z" transform="translate(-1809.916 -663.943)" fill="#222744"/>
      <path id="Path_3072" data-name="Path 3072" d="M1849.664,672.746h-1.121a.213.213,0,1,1,0-.426h1.121a.213.213,0,1,1,0,.426Z" transform="translate(-1835.925 -663.943)" fill="#222744"/>
      <path id="Path_3073" data-name="Path 3073" d="M1767.61,698.639h-4.871a.32.32,0,0,1,0-.639h4.871a.32.32,0,0,1,0,.639Z" transform="translate(-1759.168 -686.887)" fill="#ffc0c0"/>
      <path id="Path_3074" data-name="Path 3074" d="M1765.984,701.856h-1.121a.213.213,0,1,1,0-.426h1.121a.213.213,0,1,1,0,.426Z" transform="translate(-1761.16 -689.952)" fill="#222744"/>
      <path id="Path_3075" data-name="Path 3075" d="M1791.445,701.856h-1.122a.213.213,0,1,1,0-.426h1.122a.213.213,0,1,1,0,.426Z" transform="translate(-1783.908 -689.952)" fill="#222744"/>
    </g>
  </g>
</svg>
