<svg xmlns="http://www.w3.org/2000/svg" xmlns:xlink="http://www.w3.org/1999/xlink" width="375" height="171" viewBox="0 0 375 171">
  <defs>
    <clipPath id="clip-path">
      <path id="Rectangle_637" data-name="Rectangle 637" d="M0,0H375a0,0,0,0,1,0,0V151a20,20,0,0,1-20,20H20A20,20,0,0,1,0,151V0A0,0,0,0,1,0,0Z" fill="#fdebe0"/>
    </clipPath>
  </defs>
  <g id="Mask_Group_34" data-name="Mask Group 34" clip-path="url(#clip-path)">
    <g id="Group_626" data-name="Group 626" transform="translate(4 12)">
      <rect id="Rectangle_634" data-name="Rectangle 634" width="127" height="38" rx="5" transform="translate(35 109)" fill="#fff"/>
      <g id="Group_623" data-name="Group 623" transform="translate(-6929 -4740)">
        <circle id="Ellipse_140" data-name="Ellipse 140" cx="38" cy="38" r="38" transform="translate(6916 4829)" fill="#222744" opacity="0.3"/>
        <g id="Group_622" data-name="Group 622" transform="translate(6912 4825)">
          <g id="Ellipse_138" data-name="Ellipse 138" fill="#fff" stroke="#4e88ff" stroke-width="4">
            <circle cx="38" cy="38" r="38" stroke="none"/>
            <circle cx="38" cy="38" r="36" fill="none"/>
          </g>
          <line id="Line_187" data-name="Line 187" y2="8.038" transform="translate(38.684 7.536)" fill="none" stroke="#222744" stroke-linecap="round" stroke-width="2"/>
          <line id="Line_188" data-name="Line 188" y2="8.038" transform="translate(38.684 60.789)" fill="none" stroke="#222744" stroke-linecap="round" stroke-width="2"/>
          <line id="Line_189" data-name="Line 189" y2="8.038" transform="translate(8.038 38.182) rotate(-90)" fill="none" stroke="#222744" stroke-linecap="round" stroke-width="2"/>
          <line id="Line_190" data-name="Line 190" y2="8.038" transform="translate(61.292 38.182) rotate(-90)" fill="none" stroke="#222744" stroke-linecap="round" stroke-width="2"/>
          <path id="Path_1221" data-name="Path 1221" d="M6869.5,4847.8v16.378l8.976-4.722" transform="translate(-6830.815 -4824.077)" fill="none" stroke="#8395ae" stroke-linecap="round" stroke-linejoin="round" stroke-width="1"/>
          <circle id="Ellipse_139" data-name="Ellipse 139" cx="2.5" cy="2.5" r="2.5" transform="translate(37 37)" fill="#4e88ff"/>
        </g>
      </g>
      <g id="Group_624" data-name="Group 624" transform="translate(-3 25)">
        <rect id="Rectangle_636" data-name="Rectangle 636" width="96" height="29" rx="5" transform="translate(74 109)" opacity="0.2"/>
        <rect id="Rectangle_635" data-name="Rectangle 635" width="96" height="29" rx="5" transform="translate(77 106)" fill="#d1e0ff"/>
      </g>
      <g id="Group_625" data-name="Group 625" transform="translate(-42 -13)">
        <rect id="Rectangle_636-2" data-name="Rectangle 636" width="96" height="29" rx="5" transform="translate(74 109)" opacity="0.2"/>
        <rect id="Rectangle_635-2" data-name="Rectangle 635" width="96" height="29" rx="5" transform="translate(77 106)" fill="#ffd4eb"/>
      </g>
      <text id="Class_2" data-name="Class 2" transform="translate(102 150)" fill="#222744" font-size="12" font-family="Lato-Bold, Lato" font-weight="700"><tspan x="0" y="0">Class 2</tspan></text>
      <text id="Class_1" data-name="Class 1" transform="translate(63 112)" fill="#222744" font-size="12" font-family="Lato-Bold, Lato" font-weight="700"><tspan x="0" y="0">Class 1</tspan></text>
    </g>
  </g>
</svg>
