<svg xmlns="http://www.w3.org/2000/svg" width="16" height="16" viewBox="0 0 16 16">
  <g id="Group_1348" data-name="Group 1348" transform="translate(-30 -351)">
    <rect id="Rectangle_1710" data-name="Rectangle 1710" width="16" height="16" rx="3" transform="translate(30 351)" fill="#ffe5e4"/>
    <g id="_01_align_center" data-name="01 align center" transform="translate(33.2 355.8)">
      <path id="Path_2496" data-name="Path 2496" d="M9.105,6.127h0A5.092,5.092,0,0,0,4.587,3,5.092,5.092,0,0,0,.068,6.127a.753.753,0,0,0,0,.627A5.093,5.093,0,0,0,4.587,9.88,5.092,5.092,0,0,0,9.105,6.753.752.752,0,0,0,9.105,6.127ZM4.587,9.116A4.348,4.348,0,0,1,.765,6.444a4.339,4.339,0,0,1,3.822-2.68A4.345,4.345,0,0,1,8.409,6.44,4.345,4.345,0,0,1,4.587,9.116Z" transform="translate(0 -3)" fill="#fe5d5c"/>
      <path id="Path_2497" data-name="Path 2497" d="M8.911,7a1.911,1.911,0,1,0,1.911,1.911A1.911,1.911,0,0,0,8.911,7Zm0,3.058a1.147,1.147,0,1,1,1.147-1.147A1.147,1.147,0,0,1,8.911,10.058Z" transform="translate(-4.324 -5.471)" fill="#fe5d5c"/>
    </g>
  </g>
</svg>
