<svg xmlns="http://www.w3.org/2000/svg" width="16" height="16" viewBox="0 0 16 16">
  <g id="Group_1353" data-name="Group 1353" transform="translate(-30 -258)">
    <rect id="Rectangle_1709" data-name="Rectangle 1709" width="16" height="16" rx="3" transform="translate(30 258)" fill="#e4edff"/>
    <path id="sLOGAN" d="M2.156,6.236a2.039,2.039,0,0,1-.923-.2A1.848,1.848,0,0,1,.6,5.466a3.115,3.115,0,0,1-.352-.835A3.825,3.825,0,0,1,.112,3.62,3.957,3.957,0,0,1,.661,1.6,3.883,3.883,0,0,1,2.42.1l.2.4a3.322,3.322,0,0,0-1.1.835A2.179,2.179,0,0,0,.969,2.456a1.714,1.714,0,0,0-.022.9,1.673,1.673,0,0,1,1.3-.527,1.71,1.71,0,0,1,1.231.462,1.579,1.579,0,0,1,.483,1.231,1.656,1.656,0,0,1-.505,1.253A1.849,1.849,0,0,1,2.156,6.236Zm4.527,0a2.039,2.039,0,0,1-.923-.2,1.848,1.848,0,0,1-.637-.571,3.115,3.115,0,0,1-.352-.835A3.825,3.825,0,0,1,4.639,3.62,3.957,3.957,0,0,1,5.189,1.6,3.883,3.883,0,0,1,6.947.1l.2.4a3.322,3.322,0,0,0-1.1.835A2.179,2.179,0,0,0,5.5,2.456a1.714,1.714,0,0,0-.022.9,1.673,1.673,0,0,1,1.3-.527A1.71,1.71,0,0,1,8,3.291a1.579,1.579,0,0,1,.483,1.231A1.656,1.656,0,0,1,7.98,5.774,1.849,1.849,0,0,1,6.683,6.236Z" transform="translate(33.888 262.696)" fill="#4e88ff"/>
  </g>
</svg>
