<svg xmlns="http://www.w3.org/2000/svg" viewBox="0 0 371.54 317.53"><defs><style>.cls-1{fill:#ecf4fa;}.cls-2{fill:#4e88ff;}.cls-3{fill:#b7d3f3;}.cls-4{fill:#6bc7ac;}.cls-5{fill:#b4cff1;}.cls-6{fill:#c8e1ff;}.cls-7{fill:#aecef5;}.cls-8{fill:none;stroke:#78acea;stroke-linecap:round;}.cls-9{fill:#a8542f;}.cls-10{fill:#b2b3b7;}.cls-11{fill:#ffb27d;}.cls-12{fill:#1e2f84;}.cls-13{fill:#233862;}.cls-14{fill:#3843d0;}.cls-15{fill:#bc4f31;}.cls-16{fill:#ffb93e;}.cls-17{fill:#a03d27;}.cls-18{fill:#ff70bb;}.cls-19{fill:#ea60af;}.cls-20{fill:#2c3a64;}.cls-21{fill:#35488b;}.cls-22{fill:#fff;}.cls-23{fill:#2f68cc;}.cls-24{fill:#e3a330;}.cls-25{fill:#914023;}.cls-26{fill:#183a6b;}.cls-27{fill:#ff7575;}.cls-28{fill:#ff5a5a;}.cls-29{fill:#1e0000;}.cls-30{fill:#f7cc7f;}.cls-31{fill:#ebedf2;}</style></defs><g id="Layer_2" data-name="Layer 2"><g id="Layer_2-2" data-name="Layer 2"><path class="cls-1" d="M33.43,0H350.53a0,0,0,0,1,0,0V317.11a0,0,0,0,1,0,0H118.45a85,85,0,0,1-85-85V0A0,0,0,0,1,33.43,0Z" transform="translate(383.96 317.11) rotate(-180)"/><path class="cls-2" d="M17.43,42.77h73a17.49,17.49,0,0,1,17.44,17.44V87.82a17.35,17.35,0,0,1-4.34,11.47l4.34,19.82-25-13.86H17.43A17.48,17.48,0,0,1,0,87.82V60.21A17.49,17.49,0,0,1,17.43,42.77Z"/><path class="cls-3" d="M16.06,63.81H91.72A2.83,2.83,0,0,0,94.55,61h0a2.83,2.83,0,0,0-2.83-2.83H16.06A2.83,2.83,0,0,0,13.23,61h0A2.83,2.83,0,0,0,16.06,63.81Z"/><path class="cls-3" d="M16.06,76.2H91.72a2.83,2.83,0,0,0,2.83-2.83h0a2.83,2.83,0,0,0-2.83-2.83H16.06a2.83,2.83,0,0,0-2.83,2.83h0A2.83,2.83,0,0,0,16.06,76.2Z"/><path class="cls-3" d="M16.06,88.13H91.72a2.83,2.83,0,0,0,2.83-2.83h0a2.83,2.83,0,0,0-2.83-2.83H16.06a2.83,2.83,0,0,0-2.83,2.83h0A2.83,2.83,0,0,0,16.06,88.13Z"/><rect class="cls-4" x="34.66" y="285.29" width="315.87" height="31.82"/><path class="cls-5" d="M239.17,135.08c-31.6-17.28-76.87,0-95.55,10.76L162,281.8c27.09-24.34,80.33-29.34,104.5-24.61Z"/><path class="cls-5" d="M239.17,135.08c21.21-29.11,69.5-32.83,91-31.05l41.37,130.82c-34.89-10.45-85.17,7.75-105,22.34Z"/><path class="cls-6" d="M237.29,126.7c-31.6-17.28-76.86,0-95.55,10.76l18.42,136c27.09-24.34,82.21-21,106.38-16.23Z"/><path class="cls-6" d="M237.29,126.7c21.21-29.11,69.51-32.83,91-31l41.38,130.82c-34.9-10.45-83.3,16.13-103.13,30.72Z"/><path class="cls-7" d="M236.49,123.11h0a4.29,4.29,0,0,1,5.13,3.25l28.17,125.7a4.29,4.29,0,0,1-3.25,5.13h0a4.29,4.29,0,0,1-5.13-3.25l-28.17-125.7A4.29,4.29,0,0,1,236.49,123.11Z"/><path class="cls-8" d="M256.53,134c12.49-6.47,43-18.43,65-14.56"/><path class="cls-8" d="M156,156.55c12.49-6.46,43-18.42,64.95-14.55"/><path class="cls-8" d="M260.86,153.31c12.49-6.46,43-18.43,64.95-14.55"/><path class="cls-8" d="M160.29,175.85c12.49-6.47,43-18.43,65-14.56"/><path class="cls-8" d="M265.55,174.26c12.49-6.46,43-18.43,64.95-14.55"/><path class="cls-8" d="M165,196.8c12.49-6.47,43-18.43,64.95-14.56"/><path class="cls-8" d="M270.25,195.21c12.49-6.46,43-18.43,64.95-14.55"/><path class="cls-8" d="M169.68,217.75c12.49-6.47,43-18.43,64.95-14.56"/><path class="cls-8" d="M274.94,216.16c12.49-6.46,43-18.42,64.95-14.55"/><path class="cls-8" d="M174.38,238.7c12.49-6.47,43-18.43,65-14.56"/><path class="cls-9" d="M78,214.85l2.56.83s4.07-1.35,7.63,3.42a2.6,2.6,0,0,1-.26,3.14c-1.26,1.24-1.51-1.69-3.94-1.11a4.6,4.6,0,0,1-5.17-1.81L77,218.25Z"/><path class="cls-10" d="M130.57,134c0-.45.37-5.29,7.74-5.55,0,0-3.62.44-4.25,2,0,0,2.47-2,4.48-1.33s3.19,4.15,3.2,5.31-1.1,4.9-2.38,5.21a3.8,3.8,0,0,1-1.54,0,19.26,19.26,0,0,1,1,1.77c2.94,6-.09,11.95-2.59,11.3-1.59-.42-2.05,2.3-2.05,2.3l-15.52-12.56S124.35,130.71,130.57,134Z"/><path class="cls-11" d="M92.48,203.25s-3.07-.6-3.77,0-4,4-3.33,5.1,4.14-.92,4.85-1.11,2.7-1,2.7-1Z"/><path class="cls-12" d="M125.17,312l3.3,1.22s14.32-19.86,16.08-37.34a26.41,26.41,0,0,0-.47-8.93l.39-2.21c.11-.66.25-1.46.41-2.37.46-2.67,1.1-6.32,1.84-10.47,1.68-9.57,3.86-21.79,5.56-30.78l-.89-.29-9.61-3.1-2-6.31-7.16-1.88s-1.59,3.13-3,17.9c-.27,1.94-.51,4.08-.69,6.4a126.19,126.19,0,0,0,.68,25.88q.5,3.86,1.26,7.94a35.26,35.26,0,0,1,.27,7.85C130.41,289.79,125.17,312,125.17,312Z"/><path class="cls-13" d="M128.92,233.84l15.55,30.9c.11-.66.25-1.46.41-2.37.46-2.67,1.1-6.32,1.84-10.47,1.68-9.57,3.86-21.79,5.56-30.78l-.89-.29-9.61-3.1-2-6.31-7.16-1.88s-1.59,3.13-3,17.9C129.34,229.38,129.1,231.52,128.92,233.84Z"/><path class="cls-14" d="M135.76,213.5l.36-3.08c6,1.6,22.13-4.48,22.13-4.48s5.84,5.14,5.08,17.44c-.38,6-1.06,31.53-1.77,39.08-.26,2.74-.49,4.69-.58,5.47h0a1.07,1.07,0,0,0,.17.67,36.43,36.43,0,0,1,2.64,5.54c7,18.68-1.08,41.68-1.08,41.68l-2.1-.85s-4.6-25.59-8.34-36.9a22.58,22.58,0,0,0-1.8-4.33c-1.63-2.62-3.14-6.91-4.51-12a295.7,295.7,0,0,1-6.05-31.86C139.71,229.88,135.76,213.5,135.76,213.5Z"/><path class="cls-15" d="M92.48,203.25l.45,3s.2,0,.55,0c1.1-.07,3.77-.22,6.79-.55,4.54-.45,9.93-1.24,12.08-2.57,3.27-2,8.63-8.11,12.12-14.22a3.37,3.37,0,0,0,.25-.45c1.83-3.24,3.1-6.46,3.2-9a12.85,12.85,0,0,0-.43-4.09,10.49,10.49,0,0,0-1.84-3.7,1.74,1.74,0,0,0-.35-.42,8.69,8.69,0,0,0-2.37-2c-.6-.25-1.25.05-1.92.77v0a11.42,11.42,0,0,0-1.73,2.54s0,.05,0,.08l-.4.74a.81.81,0,0,0-.1.18c-.27.57-.54,1.17-.82,1.8-3.07,6.68-5.7,16.51-8.42,19.53-1.17,1.3-7.17,4.15-11.44,6C95,202.25,92.48,203.25,92.48,203.25Z"/><path class="cls-13" d="M97.92,196.72c3.58-1.62,7.69-.26,9.32,6.57,1.08,4.57,11.64,9.63,6.89,16.6-4.55,5.47-15.49,1.89-14.57-5s3.25-12.73.72-13.84A3.66,3.66,0,0,1,97.92,196.72Z"/><path class="cls-16" d="M91.74,216.77c7.51-1.08,14.71-.82,15.11,7.44s2.35,23.8,0,26.86-14.62,2.63-14.62,2.63C84,239.69,91.74,216.77,91.74,216.77Z"/><path class="cls-15" d="M124.24,176.08a19,19,0,0,0,7,1.62c10.36.57,12.71-8.52,13.14-14.55a8.68,8.68,0,0,0-3.56-.44c-.73,0-1.5.11-2.13.19-1.27-.66-3.55-3.88-4.86-9.26l-.45.21-7.48,3.51s.8,2.44,1.38,4.76c.46,1.83.79,3.59.52,4.08l-1,.39h0A51.91,51.91,0,0,0,124.24,176.08Z"/><path class="cls-17" d="M125.85,157.36s.8,2.43,1.38,4.77c4.38-1.22,5.7-5.82,6.1-8.28Z"/><path class="cls-15" d="M124.93,159.94s10.46-2.42,8.85-8.91c-.35-1.43-.61-2.77-.88-4-1-4.28-1.94-6.92-7.2-5.92-6.75,1.27-7.43,4.06-7.42,6.36S122.17,160.4,124.93,159.94Z"/><path class="cls-10" d="M117.7,143.81c1.12-2.36,2.44-2.23,3.27-1.81a7.5,7.5,0,0,1,9.73-.84,12.78,12.78,0,0,0,5.88,6.32s-1.61,1.64-6.26,1.61a7.74,7.74,0,0,1-4.16-1.57,25,25,0,0,0,5.46,4.07c-5.83-1.12-9.74-7.86-10.14-8.58A8.34,8.34,0,0,0,120,146.6c-.11,1.78.51,5.24-.51,5.37C119.45,152,116,147.33,117.7,143.81Z"/><path class="cls-18" d="M117.89,175.31c.37-1.13,2.89-5.52,2.89-5.52h0s1.6-1.46,6-3.2h0c-.07.26-2,7.09-1.27,8.55s13.95-3.31,14.67-4.4c.58-.88.6-5.51.58-7.32,0-.45,0-.72,0-.72s4.95-.67,7.73.45a21.32,21.32,0,0,0-1.5,5c0,.25-.07.5-.1.75a10.36,10.36,0,0,0,0,1.57,3.06,3.06,0,0,0,1,1.89,14.89,14.89,0,0,0,2,1.65l1.64,1.18h0a135.17,135.17,0,0,0,.4,13.63,9.26,9.26,0,0,0,1.33,3.86,8.36,8.36,0,0,0,1,1.32c2.92,3.28,8.1,9.81,7,13.87-.09,3.84-32.42,8.87-31.73,4.66,0,0-4.86-23.41-7.48-29.07-.09-.2-.18-.41-.26-.61a13.17,13.17,0,0,1-.41-6.58A6,6,0,0,0,117.89,175.31Z"/><path class="cls-19" d="M138.1,204.69c6.38-.06,11.78-6.68,15.08-12a9.26,9.26,0,0,1-1.33-3.86,135.17,135.17,0,0,1-.4-13.63h0L149.81,174a14.89,14.89,0,0,1-2-1.65C142.6,181.21,129.45,204.79,138.1,204.69Z"/><path class="cls-15" d="M114,208.16l.88,3.2,2.84-.53.83-.17c1.39-.28,3.06-.65,4.89-1h0c3.12-.75,6.61-1.65,9.56-2.64a26.84,26.84,0,0,0,5.09-2.27l.35-.25c2.92-2.12,6.39-8.36,9.08-15,.37-.92.72-1.85,1.07-2.75a67.77,67.77,0,0,0,2.85-9.48,27.09,27.09,0,0,0,.67-4.51,11.19,11.19,0,0,0,0-1.28c-.05-7.23-3.65-8.23-3.65-8.23l-.25-.08c-.62-.1-1.27.33-1.94,1.15a22.45,22.45,0,0,0-2.67,4.72c-1.42,3.22-2.92,7.38-4.32,11.53-.77,2.27-1.52,4.54-2.27,6.63-.42,1.28-.85,2.47-1.25,3.57a34.75,34.75,0,0,1-2.09,4.87,12.16,12.16,0,0,1-3.07,2.77,115,115,0,0,1-9.88,6.14c-1.4.79-2.72,1.52-3.82,2.12C115.17,207.54,114,208.16,114,208.16Z"/><path class="cls-18" d="M143.65,169c4.8-1.33,8.51,2.42,8.51,2.42-.06-7.22-3.66-8.21-3.66-8.21C147.05,162.56,145.38,165.07,143.65,169Z"/><path class="cls-13" d="M150.51,317.53h16.61a9.22,9.22,0,0,0-.47-4.45c-.84-1.84-2.14-2.68-1.83-4.91a6,6,0,0,1-5.17,2,18.55,18.55,0,0,1-2.88,3.74C155.68,314.67,150.84,314.39,150.51,317.53Z"/><path class="cls-13" d="M114.85,317.53h16.61a6.9,6.9,0,0,0-.47-4.45c-1-1.6-.6-2.5.12-3.82a6.46,6.46,0,0,1-2.8.52,5.81,5.81,0,0,1-2.47-.86,59.52,59.52,0,0,1-4.73,5C120,314.67,115.18,314.39,114.85,317.53Z"/><path class="cls-17" d="M77.63,259.2s6.69,47.46,5.92,53.32l4.22-.51s5.29-20.72,4.65-26.52,5.24-29.69-.18-31.79S77.63,259.2,77.63,259.2Z"/><path class="cls-15" d="M83.72,259.26s9.54,47.5,9.13,53.4l4.18-1s4.06-21.36,3.07-27.11,3.4-30-2.14-31.72S83.72,259.26,83.72,259.26Z"/><path class="cls-20" d="M83.6,311.69A4.93,4.93,0,0,1,80.69,314a4.73,4.73,0,0,0-2.87,1.79,1.12,1.12,0,0,0,.91,1.78l9.71,0a1.41,1.41,0,0,0,1.39-1.55c-.08-.72-.16-1.56-.2-2.2a4.62,4.62,0,0,0-1.6-2.66,9.88,9.88,0,0,1-1.85.85A6.83,6.83,0,0,1,83.6,311.69Z"/><path class="cls-21" d="M92.74,311.69A5,5,0,0,1,89.82,314,4.79,4.79,0,0,0,87,315.75a1.12,1.12,0,0,0,.91,1.78l9.72,0A1.4,1.4,0,0,0,99,315.93c-.07-.72-.15-1.56-.19-2.2a4.62,4.62,0,0,0-1.6-2.66,9.88,9.88,0,0,1-1.85.85A6.8,6.8,0,0,1,92.74,311.69Z"/><path class="cls-15" d="M81.75,218.08s-6.35,10.7-7.63,19.43c0,0,3.09,4.17,4.34,1.24S88.73,220.16,81.75,218.08Z"/><path class="cls-13" d="M83,199.08a13,13,0,0,1,8.22-5.51,7.86,7.86,0,0,1,9,6.63c.66,4.33,0,10-7.08,12Z"/><path class="cls-15" d="M84.26,218.39l8,4.75,2.11-5.62a16.23,16.23,0,0,1-1.28-5.35,21.9,21.9,0,0,1,.12-4.73l-6.95,3a12.92,12.92,0,0,1,.17,1.56,11.42,11.42,0,0,1-.35,3.6A5,5,0,0,1,84.26,218.39Z"/><path class="cls-2" d="M102.65,268.55c-.75-8.55-1.86-19.79-2.56-24.41a15.69,15.69,0,0,1,0-4.59l1.65-12.14.51-3.82a4.49,4.49,0,0,0-2.72-4.75,24.93,24.93,0,0,0-5.12-1.32c-1.34,1.2-3.94,2.94-6.69,2.4-2.07-.4-2.48-1.43-2.37-2.62-.52.06-1,0-1.45.08A6.07,6.07,0,0,0,79.68,220h0l0,.06a5.9,5.9,0,0,0-.4.69l-3,5.2A4,4,0,0,0,78,228.55c-1.5,16.45-3.23,53.61-1.83,54.09,9,3.08,25.08-1.21,27.25-3.28C103.52,279.25,103.17,274.57,102.65,268.55Z"/><path class="cls-16" d="M82.89,218.38c-4.68,3.76-6.26,13.21-5.64,19.65,1.17-2.93,1.1-7.26,2.24-11.86a21.23,21.23,0,0,1,4.19-8C83.56,218.21,82.89,218.38,82.89,218.38Z"/><path class="cls-17" d="M86.08,215.62c3.84.14,7-3.45,7-3.45L86.43,212A11.42,11.42,0,0,1,86.08,215.62Z"/><path class="cls-15" d="M84.36,213.37s7.51,2.5,10.54-3.41c3.26-6.38.44-11.36-2.13-11.84-5.14-1-8.27.81-9.31,2.84S80.21,212,84.36,213.37Z"/><path class="cls-22" d="M87.61,210.14s-.37.76-2.36.19c0,0-1.67-.47-1.42-1.35A5.59,5.59,0,0,1,87.61,210.14Z"/><path class="cls-23" d="M102.65,268.55c-.24-.27-15.45-18-16-27.46s7.63-16.47,7.63-16.47a8.68,8.68,0,0,1,7.42,2.79l-1.65,12.14a15.69,15.69,0,0,0,0,4.59C100.79,248.76,101.9,260,102.65,268.55Z"/><path class="cls-16" d="M96.67,217.78c-7.25,1.67-9.21,13.66-5.87,22.84,2.47,6.82,10.1,10.06,10.1,10.06.83-.93.19-3,.19-3-11.19-7.13-9.31-17.22-6.72-22.3s3.11-7,6.93-5.61C100.83,217.61,96.67,217.78,96.67,217.78Z"/><path class="cls-13" d="M89.62,198.82s-.71,7.05,6,9.55c2.66,1,4-9.78-1.51-11.93s-11,.41-11.7,4.16-.15,4.55-.15,4.55S84.84,198,89.62,198.82Z"/><path class="cls-15" d="M93.68,221.88s-3.06,12.13-3.18,17c0,0-6.73,11.75-7.13,12.59s2.43,2,2.43,2,8.45-9,10.07-12.79,7.41-16.09,5.09-19.77S93.68,221.88,93.68,221.88Z"/><path class="cls-15" d="M74.12,237.51a21.67,21.67,0,0,0,5.28,14.77s1.6-1.93,1.4-2.53-2.5-9.81-4.18-11.12S74.12,237.51,74.12,237.51Z"/><path class="cls-15" d="M83.37,251.43s-3.76,0-4,.85A2.72,2.72,0,0,0,83.12,255c2.75-1,2.68-1.56,2.68-1.56Z"/><path class="cls-15" d="M80.8,249.75s3,1.4,2,2.89a2,2,0,0,1-3.4-.36C79.08,251.33,80.8,249.75,80.8,249.75Z"/><path class="cls-23" d="M91.47,228.28a13.75,13.75,0,0,0,10,3.1s3-10.63-1.81-11.93S90.91,224.44,91.47,228.28Z"/><path class="cls-12" d="M44.51,158.49s9.11,14.24,6.23,40.25c-.9,8.12,27.57,21,27.57,21a4.33,4.33,0,0,0,1.22-4.67s-15.8-15.77-17.41-17.71c-1.42-1.72-5.28-20-6.94-26.12C52.32,160.78,44.51,158.49,44.51,158.49Z"/><path class="cls-13" d="M2.74,303s-3.12,2.84-2.51,4.86,3.42,3.37,3.8,5.84,1.9,3.82,3.27,3.82h6.52s1-1.74-1.42-2.26-3.35-3.43-3.2-6.12A47.72,47.72,0,0,0,9,302.86l-5.17-1.2Z"/><path class="cls-13" d="M41,310.37s-.56,6.47.81,7.14l17.51,0s0-2-2.81-2.47-7.75-2.1-8.59-5.77S41,310.37,41,310.37Z"/><path class="cls-16" d="M55.77,218.91s-.93,11.35-2,25c-1.48,18.53-3.25,41.29-3.43,45.61C50,297,48.81,309,48.81,309s-2.89,2.85-8.67,1.65a193.28,193.28,0,0,1-6.62-35.19c0-.3,0-.6-.07-.89-1.37-18.42-3.49-57.2-3.49-57.2Z"/><path class="cls-24" d="M55.77,218.91s-.93,11.35-2,25L33.52,275.43c0-.3,0-.6-.07-.89-1.37-18.42-3.49-57.2-3.49-57.2Z"/><path class="cls-16" d="M51.55,220.26S34.9,261.36,24,280.67,9.58,305.38,9.58,305.38s-6.27-2.47-6.84-4.16c0,0,4.18-37.28,11.52-46.37,4.14-5.14,9-20.56,9.23-25.95S25,212.85,25,212.85Z"/><path class="cls-9" d="M29.64,156.92s11.27,5.43,17.76,3.42A15.34,15.34,0,0,0,43,156.82c.22-1.3.4-2.44.5-3.39a32,32,0,0,0,.27-3.47l-4.35-3.42-4.12-3.27C35.64,152.47,29.64,156.92,29.64,156.92Z"/><path class="cls-14" d="M56.48,219.85a1,1,0,0,1-.68.27c-2.44-.05-9.56,1.3-15.58.68a45.82,45.82,0,0,1-14.42-4.08c-.65-.29-2.12-1.08-2.1-1.77s.1-1.89.2-3.32c.2-2.81.49-6.8.58-11.53.07-3.51,0-7.42-.23-11.57,0-.27,0-.56,0-.84-.07-1.52-.11-3.05-.11-4.54a79.56,79.56,0,0,1,1-13.53c1.22-7.13,3.5-12.76,6.89-15.24.45-.35,3.28,1,5.87,2.3a10.82,10.82,0,0,0,7,.84l2.24,2a22.22,22.22,0,0,1,7,11.07c1.1,4.38,1.75,12.3,2.1,20.52.17,3.74.3,7.47.35,11v.12c0,.37,0,.74,0,1.11C56.78,212.47,56.65,219.72,56.48,219.85Z"/><path class="cls-25" d="M35.24,146.78s2.84,5.19,8.27,6.65a32,32,0,0,0,.27-3.47l-4.35-3.42Z"/><path class="cls-9" d="M45.76,149.81S35,151.57,34,145s-3.08-10.83,3.74-12.23,8.54.92,9.42,3S48.53,149.18,45.76,149.81Z"/><path class="cls-26" d="M30.1,131.94c-.1-.12-.32-.21-.82-.23a2.08,2.08,0,0,1,.93-.27,2.54,2.54,0,0,1,1.68-2.23,1.51,1.51,0,0,0-.73,1.09c1.38-1.43,4.36-2.47,12.6-1.82,10.85.86,7.27,7.81,5.87,8.64s-4.94-1.44-7.56-1.24-3.12,4-4,4.51-.54-.39-1.74-.94-1.31,1.45-1,2.75-1.3,3-1.3,3l-1.67-1.8c-1.67-1.8-3.24-9.41-2.48-11C30,132.23,30,132.08,30.1,131.94Z"/><path class="cls-9" d="M81.68,216.19a2.06,2.06,0,0,1,2.2.27c.82.88,2.74,1.49,2.57,1.95-.34,1-2.11-.12-4,.46C81.82,219.08,79.79,217.82,81.68,216.19Z"/><path class="cls-13" d="M24.48,200.1c.07-3.51,0-7.42-.23-11.57,0-.27,0-.56,0-.84,1-5.06,2.57-9.55,4.85-9.7C29.06,178,35.83,188.64,24.48,200.1Z"/><path class="cls-9" d="M15.52,218.46s.56,5.5,1.18,6.53,3.26,4.36,4.38,5-.68-4.37-.45-5.35.92,1.79,1.42,1.85.36-2.42.38-3.32S20,220,19.17,218.11,15.52,218.46,15.52,218.46Z"/><path class="cls-14" d="M32.05,154.36s-6.8,3.22-10.06,8.17c-5.06,7.68-10.92,35.67-11,38.26s4.28,20.89,4.28,20.89,4.45-.3,5.6-2.54c0,0-.89-18.8-.33-20S39.06,173.91,37,168.79,32.05,154.36,32.05,154.36Z"/><path class="cls-15" d="M103.66,211.26c1.6.67,3.85,3,7.44,1.6a57,57,0,0,1,6.61-2l.83-.17-1.43-4.14-.17,0c-.92.2-5.62,1.19-7.81.7-2.47-.58-6.61,2.39-6.61,2.39S102.07,210.61,103.66,211.26Z"/><path class="cls-27" d="M358,76.59a4.87,4.87,0,0,1,.05,6.89L245,198.11l-13.9-13.7,113-114.62a4.88,4.88,0,0,1,6.9-.05Z"/><path class="cls-28" d="M351.05,69.74a4.88,4.88,0,0,1,.05,6.9l-113,114.62-7-6.85,113-114.62A4.88,4.88,0,0,1,351.05,69.74Z"/><path class="cls-29" d="M358,76.59a4.87,4.87,0,0,1,.05,6.89l-6.85,7-13.9-13.7,6.85-6.94a4.88,4.88,0,0,1,6.9-.05Z"/><path class="cls-30" d="M224.38,205.15l20.65-7-13.9-13.7Z"/><path d="M224.38,205.15l10.32-3.52-6.94-6.85Z"/><path class="cls-31" d="M124.5,142.72s.85,2.49,1.92,4.89l.74.47A34.12,34.12,0,0,1,124.5,142.72Z"/><path class="cls-1" d="M137.72,139.53s-2.29,0-4.29-2.76a6.71,6.71,0,0,0,4.63,3.32Z"/><path class="cls-1" d="M121.18,140.62a13,13,0,0,1,1.71-2.37,11.69,11.69,0,0,1,2.2-1.9,8,8,0,0,1,2.67-1.12,7.69,7.69,0,0,1,2.87,0,7.53,7.53,0,0,0-2.84.14,8,8,0,0,0-2.56,1.2,11.47,11.47,0,0,0-2,1.95,12.33,12.33,0,0,0-1.55,2.34Z"/><path class="cls-1" d="M135,151.24a5.82,5.82,0,0,0,1.83-2.14,8,8,0,0,0,.8-2.7,14.78,14.78,0,0,0,0-2.82l-.16-1.41c-.08-.47-.16-.94-.21-1.43h0c.19.44.35.9.5,1.36s.22.95.32,1.44a9.6,9.6,0,0,1-.07,2.93,7.73,7.73,0,0,1-1,2.76,5.89,5.89,0,0,1-2,2.07Z"/><path class="cls-1" d="M123.2,142.57a15,15,0,0,1,3.29-4,9,9,0,0,1,2.23-1.42,6,6,0,0,1,2.61-.39v0a12,12,0,0,0-2.41.8,14.91,14.91,0,0,0-2.18,1.27,16.14,16.14,0,0,0-3.49,3.74Z"/><path class="cls-1" d="M134.71,139.53a12.66,12.66,0,0,1,.6,1.8,8.83,8.83,0,0,1,.22,1.92,5.55,5.55,0,0,1-.26,1.94,5,5,0,0,1-1,1.68l0,0c.17-.63.41-1.19.52-1.8a12.29,12.29,0,0,0,.34-1.81,9,9,0,0,0-.06-1.87,14,14,0,0,0-.41-1.85Z"/></g></g></svg>