<svg viewBox="0 0 1590.16 1055.12" xmlns="http://www.w3.org/2000/svg"><path d="m1048 682s6-11.45 2.66-33.54c-2.13-14.17 4.34-39.25-4-36.28s-5.81 27.77-11.42 24.34-14.06-54.81-21.58-52.12 3.47 50.59-1.54 47.53-10.54-48-21.18-44.19 11.07 52.09 5.36 54.13-18.66-28.87-27.22-25.77 19.55 41.17 16.6 39.36-23.63-15.87-26.27-11.55c-3 4.89 39.22 37.11 40.88 50s51.39 146.19 74.71 154.43 142.64-8.63 158.42-29.9 21.58-45.24 7.43-53.9-137.34 14.32-141.79 11.6-51.06-94.14-51.06-94.14z" fill="#f7a491"/><path d="m1139.55 764.54c6.93-8.82 105.53-20.23 134.43-23.93 15.2-1.94 42 7.42 47.85 22.09 7.23 18.1-2.63 38.42-13.87 51.51-24.73 28.76-161.52 42.9-163.3 37.78-2.26-6.5-8.06-83.69-5.11-87.45z" fill="#4bbcbf"/><path d="m1287.14 714.73s48.61-10.43 90.82 35.32c40.73 44.13 74.47 279 74.47 279l-212.08 7.6s-14.37-81.34-17.9-108.38-22.37-109.54-4.77-173.51c6-21.76 69.46-40.03 69.46-40.03z" fill="#56ced7"/><path d="m1264.72 625.29 3.16 34.85 29.19 53.61s-57.57 74.4-75.34 56.63c-4-4-14-82.73-14-82.73z" fill="#f7a491"/><path d="m1267.88 660.14 6.12 11.86c-18 17.2-41 32.67-62.75 41.58-2-14.45-3.49-26-3.49-26l57-62.36z" fill="#f48c7f"/><path d="m1188.46 515.82s-24.55 37.09-28.34 46.43c-15.69 38.75-13.12 113.94 24.52 133.24 29.43 15.1 83.84-13 118-47.53s38.9-82.06-3.17-115.76-111.01-16.38-111.01-16.38z" fill="#f7a491"/><path d="m1289.24 493.55c-32.42-8.74-59.36-7.34-88.82-7-7.06.08-15.67 2-21.77 5.59-8.57 5-18.79 16-17 29l4.21 30.44s20.87-15.3 34.61-9.88 7.19 38.32 18.11 51 26.48 9.93 32.12 22.91 12.56 62.28 28.94 66.15c8.38 2 25.58-16.38 37.85-35.83 13.76-21.83 27.5-46.42 25.15-73.57-4.74-54.84-27.59-71.86-53.4-78.81z" fill="#1d3b4c"/><path d="m1236.26 618.4s5.22-31.22 22.69-22.23-2.13 54.25-17 50.3-5.69-28.07-5.69-28.07z" fill="#f7a491"/><path d="m1157.51 918.38s-6.46-11.19-26.9-20.22c-13.11-5.79-30.82-24.69-32.76-16.09s20.33 19.79 14.44 22.69-53.82-17.49-55.58-9.7 44.58 24.17 39.31 26.76-46.17-16.82-48.66-5.82 49.92 18.57 48.58 24.48-34.3.32-36.3 9.2 45.24 5.54 42.14 7.06-26.07 11.45-23.83 16c2.52 5.15 52.35-13.24 64.08-7.76s152 41.9 171.49 26.61 51.5-144.9 42-169.62-35.66-37.23-50.56-29.92-40 129.6-44.64 131.9-102.81-5.57-102.81-5.57z" fill="#f7a491"/><path d="m1378 753c16.15 34.33-15 156.31-30.13 176l-88.4-36c2.12-18.18 22.24-123.94 40.45-147.78 9.31-12.18 23.09-20.14 38.88-19.49 19.51.82 31.9 11.7 39.2 27.27z" fill="#4bbcbf"/><path d="m773.58 349c-22.24-49.19-44.84-98.47-99.34-122.05-44.1-19.08-89.28-10-127 20.25-106.91 85.68-8.74 173.42-128.53 333.33-37.21 49.69-82.87 90.29-104.31 147.84-30 80.54 9.83 117.56 73 153.74 302.18 173.15 446.09-205.92 437.88-291.36-6.15-63.59-37.38-210.12-51.7-241.75z" fill="#1d3b4c"/><path d="m796.46 753.36 28.74 80.11h-52.93l-3.99-80.11z" fill="#f7a491"/><path d="m757.11 669.18c-47.57-92-82-82-82-82l64.72 209c18.46-8.64 38.17-34 56.58-42.85-11.5-29.64-27.58-61.49-39.3-84.15z" fill="#e5683c"/><path d="m526.3 1036.69c6.19-20.84 9.85-39.85 8.17-52.65-6.11-46.57-97.45-348.31-63.81-384.9s93.2-35.35 93.2-35.35 106.14 13.3 118.39 26.61 63.2 148.6 69.32 181.85c3.67 20 3.33 157.58 2.47 264.44z" fill="#ff7c48"/><path d="m592.16 450.4s-.44 2.5-1.23 6.75c-3.79 20.4-18.39 88.08-28.25 106.69-11.92 22.48 40.8 94.19 91.55 85.44 15.1-2.61-12.77-65.89-11.43-72.59 2.56-12.84 6-30.34 9.6-48.29 2-10.13 4-20.39 6-30 5.42-27.42 9.85-49.85 9.85-49.85z" fill="#f7a491"/><path d="m590.93 457.15c.79-4.25 1.23-6.75 1.23-6.75l76-1.89s-4.43 22.43-9.85 49.85c-1.9 9.59-3.92 19.8-5.92 29.87-11.74-1.72-24-7.42-36.3-18.16a95.71 95.71 0 0 1 -27.5-40.82c.97-4.8 1.75-8.93 2.34-12.1z" fill="#f47458"/><path d="m637.9 269.68s-31 4.3-53.47 33.3-46.68 118.67 9.12 167.42 111-6.43 119.13-64.94 6.52-137.89-74.78-135.78z" fill="#f7a491"/><path d="m729 391c-3.52 14.11-12.76 23.64-20.65 21.29s-11.41-15.69-7.89-29.8 12.76-23.64 20.64-21.29 11.37 15.71 7.9 29.8z" fill="#f7a491"/><path d="m672.34 269.94s-72.87 83.66-107.13 87.6-38.75 49.25-38.75 49.25 12.25-104.41 46.16-124.54 99.72-12.31 99.72-12.31z" fill="#1d3b4c"/><path d="m576.42 377.86c2.78 15.14-2.82 29-12.52 31s-19.81-8.68-22.6-23.82 2.82-29 12.51-31 19.82 8.68 22.61 23.82z" fill="#f7a491"/><path d="m677.78 434.44-53-.28s1.12 20.14 24.42 20.94c28.42.97 28.58-20.66 28.58-20.66z" fill="#f7f7f7"/><path d="m963.06 868.47 4.34 1.9-14.16 90.11s-10.46-25.14-10.46-25.87-15.5-40.37-15.5-40.37 16-7.63 16.49-8.37 19.29-17.4 19.29-17.4z" fill="#f47458"/><path d="m847.91 778.14 12.61 14.51-1.21-19.18-6.08-4.22z" fill="#f7f7f7"/><path d="m853.23 769.25-1.37 2.29 8.66 21.11-1.21-19.18z" fill="#f7f7f7"/><path d="m859.31 773.47.31 4.96-3.52-3.64-27.76-67.66 4.05.73z" fill="#e5683c"/><path d="m856.1 774.79-.7 5.38-4.27-3.34-27.76-67.66 4.97-2.04z" fill="#ff7c48"/><path d="m851.13 776.83.05 5.07-3.27-3.76-26.91-65.6 2.37-3.37z" fill="#e5683c"/><path d="m824.19 707.95h5.37v5.39h-5.37z" fill="#1d3b4c" transform="matrix(.92520972 -.37945616 .37945616 .92520972 -207.84 366.99)"/><path d="m825.42 714.15-2.05-4.98-2.37 3.37 1.21 2.93z" fill="#1a3141"/><path d="m833.6 710.8-1.21-2.94-4.05-.73 2.05 4.99z" fill="#1a3141"/><path d="m823.28 714.58h3.47v6.35h-3.47z" fill="#f7f7f7" transform="matrix(.92514348 -.37961763 .37961763 .92514348 -210.72 366.93)"/><path d="m831.46 711.22h3.47v6.35h-3.47z" fill="#f7f7f7" transform="matrix(.92520972 -.37945616 .37945616 .92520972 -208.77 369.59)"/><path d="m826.42 712.9h5.37v6.35h-5.37z" fill="#f7f7f7" transform="matrix(.93 -.38 .38 .93 -209.74 368.26)"/><path d="m856.24 787.73 4.28 4.92-.41-6.51-1.5 1.85z" fill="#db3f2a"/><path d="m677.7 748.53 20.16-7.67 126.16 32.91-17.53 16.21z" fill="#f7f7f7"/><path d="m977.23 752.91-17.77-8.23-135.44 29.09 12.61 16.65z" fill="#f7f7f7"/><path d="m775.68 1029.09-136.41-27.55a6.72 6.72 0 0 1 -5.35-7.84l36-240.4c.74-4.92 5.78-8.57 10.52-7.61l133.63 27z" fill="#56ced7"/><path d="m795.87 1029.38 144-23.44a9.4 9.4 0 0 0 7.66-7.65l36-240.41c.73-4.91-3.2-8.69-8.2-7.88l-141.07 23z" fill="#56ced7"/><path d="m792.61 1032.3-14.56-.21a2.39 2.39 0 0 1 -2.4-2.83l38.35-256.14a3.32 3.32 0 0 1 3.24-2.75l14.56.21a2.41 2.41 0 0 1 2.4 2.84l-38.34 256.13a3.3 3.3 0 0 1 -3.25 2.75z" fill="#4bbcbf"/><g opacity=".3"><path d="m717 868.69 13.8-19.6-7.19-20.24a3.54 3.54 0 0 1 4-4.39l21.6 4.49 18.42-15.64c2.1-1.78 5.06-.67 5 1.88l-.45 22.37 18.58 10.58c2.11 1.2 1.57 4.48-.92 5.55l-21.84 9.31-7 22.2c-.79 2.52-4.08 3.44-5.57 1.55l-13.08-16.6-22.86 3.13c-2.58.35-4.07-2.36-2.49-4.59z" fill="#4bbcbf"/><path d="m711.09 956 7.32-10.4-3.82-10.74a1.87 1.87 0 0 1 2.13-2.32l11.46 2.38 9.77-8.3a1.53 1.53 0 0 1 2.65 1l-.23 11.86 9.85 5.62c1.13.64.84 2.38-.48 2.94l-11.61 5-3.68 11.77a1.77 1.77 0 0 1 -3 .82l-6.93-8.81-12.14 1.66a1.47 1.47 0 0 1 -1.29-2.48z" fill="#f7cc7f"/><g fill="#4bbcbf"><path d="m834.68 954.79 9.55-13.55-5-14a2.44 2.44 0 0 1 2.77-3l15 3.1 12.7-10.84c1.45-1.23 3.5-.47 3.46 1.29l-.31 15.47 12.85 7.32c1.47.83 1.09 3.1-.63 3.83l-15.14 6.46-4.79 15.34c-.55 1.74-2.83 2.38-3.86 1.07l-9-11.48-15.85 2.2a1.92 1.92 0 0 1 -1.75-3.21z"/><path d="m897.79 863.22 6.38-9.05-3.33-9.35a1.64 1.64 0 0 1 1.86-2l10 2.07 8.51-7.22a1.33 1.33 0 0 1 2.31.87l-.21 10.33 8.59 4.89a1.45 1.45 0 0 1 -.43 2.56l-10.11 4.32-3.2 10.24a1.55 1.55 0 0 1 -2.58.72l-6-7.67-10.58 1.41a1.28 1.28 0 0 1 -1.21-2.12z"/><path d="m975.37 750-38.22 6.23 4 11.37-15.27 21.68c-1.73 2.46-.08 5.46 2.8 5.07l25.32-3.46 14.46 18.36c1.65 2.09 5.29 1.08 6.16-1.71l2.88-9.19 6.06-40.47c.74-4.88-3.19-8.69-8.19-7.88z"/><path d="m952.51 965.33-.86.73-21.6-4.48c-2.46-.52-4.83 2.08-4 4.38l7.19 20.24-13.8 19.6a3 3 0 0 0 -.15 3.5l20.64-3.36a9.4 9.4 0 0 0 7.66-7.65z"/><path d="m675 998.58-18.61-10.58.45-22.37c0-2.55-2.91-3.66-5-1.88l-15.38 13.06-2.53 16.89a6.72 6.72 0 0 0 5.35 7.84l27.72 5.6 7.06-3c2.48-1.08 3.02-4.36.94-5.56z"/><path d="m695.22 797.09-17.06-9.72.41-20.54c0-2.34-2.67-3.36-4.6-1.73l-6.68 5.67-8.48 56.71 4 5.07c1.37 1.73 4.4.89 5.12-1.43l6.37-20.36 20.1-8.58c2.27-.98 2.77-3.99.82-5.09z"/></g></g><path d="m769.94 939.89c2.57-2.76 4.47-10.48 23.95-32.57 5.62-6.32 17.11-10.06 17.11-10.06s14.18-4.42 16.16-1.34.58 7.5-1.67 9.32-8.09 2.89-10.34 4.71-3.46 11-2.67 14.3 42.12-11.17 42.12-11.17 11.66-4.72 15.41-6.6c3.2-1.6 12.41-7.16 12.41-7.16s13.53-7.18 15.51-2.78c1.16 2.6-9.09 12.38-20.47 20.12-12.25 8.33-25.73 14.62-25.26 16.05 1.1 3.37 24-4 24-4s10-6 15-7.11c5.53-4.74 16.53-9.63 18.56-4.1.38 1-12.67 12.07-12.67 12.07s-9.65 5.43-14.09 8.27c-7.83 5.08-21 8.71-26.58 11.71-4.62 2.5-2.38 3.22-2.48 3.82s6.5-1.89 15.57-4.94c4.57-1.54 10-2.26 15.08-4.9a112.83 112.83 0 0 1 15.73-6.19c11.83-3.8 12.11 4.47 1.66 9.84-4 2.05-8.34 4.25-12.76 6.46-17.19 8.58-34.55 12.6-34.31 14.68.32 2.7 31.56-6.59 31.56-6.59s18.25-.1 2.8 7.83a142 142 0 0 1 -34.06 12.44c-4.68.67-20.45 8.09-37.06 7.81-12.24-.21-29.81-1-38.21-1.39z" fill="#f8a492"/><path d="m468.45 812.83 84.31 3.84s2.64 71.23 4.54 79.33c0 0 151.24 36.15 212.64 43.9l10.94 48.66c-12-1.19-21.77-3.1-27.64-3.42-11.5-.64-195.06-8.47-195.06-8.47s-73.18-6.37-78.67-18.59-11.06-145.25-11.06-145.25z" fill="#f7a491"/><path d="m456.93 864.65s-31.93-177.65-22.47-223.26 66.73-83.7 103.15-64.34 25.85 269.83 25.85 269.83z" fill="#e5683c"/><g fill="#ff7c48"><path d="m775.93 96.86a20.19 20.19 0 1 1 21.54 18.8 20.24 20.24 0 0 1 -21.54-18.8z"/><path d="m810.17 154c-1.2-5.87-1.93-12.16-3.93-17.82-1.72-4.87-9.29-3.38-8.91 1.84.47 6.41 2.46 12.9 3.8 19.17.54 2.54 3.89 3.72 6.11 2.94 2.72-.95 3.46-3.57 2.93-6.13z"/><path d="m844.78 129c-6.69-3.95-12.53-8.86-18.7-13.54-4.83-3.65-10 2.64-6.06 7 5.7 6.24 13.18 11.11 20.4 15.38 2.29 1.35 5.47 0 6.58-2.23a5 5 0 0 0 -2.22-6.6z"/><path d="m832.11 92.7a3.49 3.49 0 0 0 -.89 4.67c2.27 4.12 8 3.92 12.09 3.78a43.58 43.58 0 0 0 12.54-2.39c5.95-2 2.73-11.3-3.24-9.26-11.68 4-16.11-.34-20.5 3.2z"/><path d="m825.67 53.33c-5.87 8.67-10.67 11.53-9.93 16.28a4.07 4.07 0 0 0 5.26 3.49c3.16-.72 4.87-4.08 6.77-6.43s3.59-4.53 5.21-6.93c1.47-2.19 1.68-5-.47-6.89-1.81-1.58-5.38-1.71-6.88.48z"/><path d="m802.78 51.83c-1.88-5.23-2.29-7.13-4.73-9.56-2.12-2.11-6.59-.76-6.89 2.35-.34 3.63.41 5 2.39 10.47a4.89 4.89 0 1 0 9.23-3.26z"/><path d="m778.05 64.48c-8.48-6.46-10.2-8.28-13.53-7.92-1.95.2-4.14 2.08-3.71 4.28.79 4.08 3.16 5.19 11 10.89a4.92 4.92 0 0 0 6.76-.47c1.61-1.86 1.59-5.2-.47-6.78z"/><path d="m744 94.07c-3.33 1.77-2 7.56 1.62 8s4.81-.11 21.63-3.19c2.59-.47 4.73-2.37 4.54-5.23-.17-2.42-2.61-5-5.22-4.55-17.46 3.2-19.21 3.19-22.57 4.97z"/><path d="m770.36 121.66c-9.21 9-10.56 7.37-14.2 12.84-1.67 2.5 1.08 6.49 4 6 3.72-.69 4.71-1.32 9.56-5.17 2.82-2.24 5.51-4.64 8.1-7.14 1.92-1.85 1.4-5.33-.48-7-2.15-1.88-5-1.38-7 .48z"/></g><path d="m581.3 74.45-3.52-26.51-19.75.08-4.38-26.05-19.11-2.84-5.79-19.13-7.51 2.73 7.75 25.59 18.1 2.69 4.56 27.09 19.43-.07 3.19 24.03z" fill="#56ced7"/><path d="m1055.04 43.89-26.49 3.16-.2 19.8-26.03 4.03-3.1 19.12-19.16 5.54 2.62 7.57 25.62-7.41 2.94-18.12 27.08-4.19.2-19.48 24-2.86z" fill="#1d3b4c"/><path d="m1299.58 146.62 51.63 43.11 4.31-59z" fill="#f7f7f7"/><path d="m218.87 201.35a21.37 21.37 0 0 1 12.5-14.7c9.39-3.84 19.31 1.94 23.33 11.76 4.65 11.37 1.33 28.43-16.79 49.49-27.69-2.32-42-12.16-46.66-23.53-4-9.83-1-20.91 8.39-24.75a21.39 21.39 0 0 1 19.23 1.73z" fill="#ff7c48"/><path d="m1144.72 204.12-12.87 14.36 4.53 18.74a1.88 1.88 0 0 1 -2.59 2.16l-17.64-7.81-16.42 10.1a1.88 1.88 0 0 1 -2.86-1.79l2-19.19-14.68-12.5a1.88 1.88 0 0 1 .82-3.27l18.86-4 7.35-17.82a1.88 1.88 0 0 1 3.36-.23l9.68 16.68 19.23 1.49a1.88 1.88 0 0 1 1.23 3.08z" fill="#56ced7"/><path d="m422.43 226 9.65-15.67-7.75-3.15a3.3 3.3 0 0 1 -1.83-4.31 3.32 3.32 0 0 1 4.32-1.83l8.93 3.63 8.63-14.08-8.28-3.35a3.32 3.32 0 0 1 -1.82-4.32 3.31 3.31 0 0 1 4.31-1.82l9.47 3.83 10-16.11a3.31 3.31 0 0 1 4.06-1.32l1.44.58a3.31 3.31 0 0 1 1.58 4.8l-9.32 15.21 13.72 5.57 10-16.12a3.31 3.31 0 0 1 4.06-1.32l1.58.64a3.31 3.31 0 0 1 1.58 4.8l-9.32 15.21 7.75 3.14a3.3 3.3 0 0 1 1.82 4.31 3.3 3.3 0 0 1 -4.31 1.83l-8.94-3.62-8.49 14.12 8.28 3.36a3.31 3.31 0 0 1 1.82 4.31 3.31 3.31 0 0 1 -4.32 1.83l-9.46-3.84-10.19 16.58a3.32 3.32 0 0 1 -4.07 1.34l-1.69-.69a3.32 3.32 0 0 1 -1.58-4.81l9.65-15.67-13.71-5.56-10.23 16.62a3.31 3.31 0 0 1 -4.07 1.33l-1.69-.68a3.31 3.31 0 0 1 -1.58-4.77zm35-12.56 8.57-14.11-13.72-5.57-8.63 14.08z" fill="#1d3b4c"/><path d="m122.55 830.91c-1-8.76-2.17-17.72-6.24-25.54-4.94-9.51-13.63-16.37-21.22-23.93a132.77 132.77 0 0 1 -31.65-50.44c-5.06-14.63-7.59-30.23-14.57-44-4.26-8.5-10.08-16-14.87-24.17-11.49-19.19-17.72-41.83-33.24-57.94a69.67 69.67 0 0 0 15.73 55.11c3.82 4.46 8.26 8.48 11.17 13.58 5.28 9.26 4.8 20.56 5.42 31.21a137.2 137.2 0 0 0 16.39 57.36c10.18 18.69 24.88 35.34 30.32 55.93 4.08 15.43 2.87 32.74 11.56 46.11 1 1.45 2 2.9 2.26 4.61a10.1 10.1 0 0 1 -.17 2.9c-.2 1.25-.39 2.49-.59 3.73-2 12.63-4 28.69 6.83 38.14 7.52 6.55 17.2 6.7 22.6-2s5-21.58 4.55-31.44c-.67-16.44-2.43-32.9-4.28-49.22z" fill="#1a3141"/><path d="m142.1 820.75c-4.22-14.61-10.78-28.53-14.06-43.39-3.18-14.41-3.21-29.31-3.22-44.07v-48.52c0-10.07 0-20.19-1.69-30.12-3.58-21.37-14.68-41.13-16.56-62.71-.82-9.33.13-18.76-.9-28.08a44.1 44.1 0 0 0 -4.41-15.47 6.9 6.9 0 0 0 -12.37.35c-5.39 11.69-8.81 24.32-6.63 36.84 1.31 7.51 4.56 14.52 7 21.74 10.74 32.18 5.03 67.79 13.4 100.68 2.53 9.93 6.35 19.67 6.79 29.91 1.06 24.5-17.24 46.89-15.56 71.36 1.38 20.06 15.8 36.66 21.86 55.84 3.39 10.73 4.11 22.19 7.74 32.84 2.82 8.28 9.38 18.33 19.57 15.82 9.68-2.39 6.76-10.28 6.32-17.83-1.46-25.5-.08-50.26-7.28-75.19z" fill="#1d3b4c"/><path d="m164.24 834.15c-.43-7.6-1.71-15.23-.65-22.77.9-6.36 3.43-12.35 5.24-18.52 3.39-11.55 4.23-23.67 5-35.68q2.24-32.74 4.48-65.5c2.32-33.94 4.65-68 11-101.39 1.76-9.28 3.74-19.33-.43-27.8-.88-1.79-2.61-3.68-4.5-3.09-1.35.43-2 1.92-2.51 3.25-13.87 37.69-19.07 78.28-34.55 115.35-3.71 8.88-8 17.61-9.95 27-2.3 11.32-1 23-.74 34.57.43 16.57-1.18 33.27-5.76 49.2-2.39 8.33-5.6 16.48-6.91 25.05-1.63 10.69-.26 21.57.76 32.34a496.24 496.24 0 0 1 2 62.29c-.38 12.21 9.93 11.89 16.76 4.39 4.78-5.25 4.74-11 6.37-17.54 5.37-21.42 15.69-37.9 14.39-61.15z" fill="#1a3141"/><path d="m99.82 867.27c-9.12-14.65-27.29-23-33.12-39.23-1.48-4.13-2.06-8.58-3.87-12.58-4-8.89-13.17-13.91-22.17-18a1.9 1.9 0 0 0 -2.66 1.71 6.49 6.49 0 0 0 2.81 5.49 36.5 36.5 0 0 1 14.54 19.83c2.78 9.53 1.57 20 5 29.26 2.9 7.81 8.86 14.19 11.67 22 2.56 7.17 2.29 15 3.49 22.52s4.56 15.52 11.49 18.73c25 11.48 18.71-40.26 12.82-49.73z" fill="#1d3b4c"/><path d="m203.7 862.44c-.39 7.08.69 14.51-2.08 21-1.77 4.17-5 7.55-7.58 11.25-9.19 13-12.53 31.43-26.66 38.75a4.77 4.77 0 0 1 -3 .73c-1.45-.27-2.4-1.67-3-3-3.46-8.07.42-17.16 2.73-25.64.4-1.48.74-3.14 0-4.5s-2.55-2.15-3.76-3.33c-2.42-2.34-2.19-6.23-1.71-9.57a217.32 217.32 0 0 1 5-24.74c1.22-4.61 2.64-9.27 5.3-13.23 2.92-4.36 7.18-7.62 11.16-11a132.39 132.39 0 0 0 38.61-57c1.63-4.75 3.08-9.78 6.46-13.5s9.38-5.64 13.49-2.75c2.92 2.05-9.05 21.31-10.44 23.62-4 6.6-4.05 12.34-6.3 19.67-5.43 17.93-17.16 34-18.22 53.24z" fill="#1a3141"/><path d="m189.78 870.63c2.61-6.76 5.24-13.6 6.1-20.8 1-8-.31-16.18 1.06-24.12 1.75-10.2 7.71-19.18 10.65-29.11 2.13-7.16 2.65-14.7 3.93-22.07 3.65-21.07 13.56-41.66 10.72-62.85-.62-4.61-2.7-10-7.28-10.77-4.14-.72-7.91 3.07-9 7.14s-.27 8.37 0 12.57a51.78 51.78 0 0 1 -9.29 33.26c-6.51 9.21-15.95 16.14-21.8 25.78-7.19 11.82-8.16 26.25-11.83 39.6-7.29 26.54-25.57 49.69-28.91 77-1.32 10.87 1.23 24.08 11.26 28.43 29.05 12.57 37.81-37.06 44.39-54.06z" fill="#1d3b4c"/><path d="m139.05 904.31h-66.6a7.07 7.07 0 0 0 -6.86 8.7l24.28 102.37a7 7 0 0 0 6.86 5.43h80a7 7 0 0 0 6.85-5.43l24.28-102.38a7.07 7.07 0 0 0 -6.86-8.7z" fill="#ff7c48"/><path d="m251.51 970.58h-9a8.76 8.76 0 0 1 5.3-1.78h224.5a21.06 21.06 0 0 1 21.26 20.85v13.25a21.06 21.06 0 0 1 -21.26 20.85l-222-.08z" fill="#ff7c48"/><path d="m379 968.85a20.14 20.14 0 0 1 20.33 19.94v15a20.14 20.14 0 0 1 -20.33 19.91h-139.79v-3.35h.58l35.52-3.3 7.19-27.62s-13.86-15.26-14.77-15.65-27.94-1.59-27.94-1.59h-.58v-3.33z" fill="#e5683c"/><path d="m248.27 996.18c0-16.15-8.51-24-8.51-24h136.34a18.5 18.5 0 0 1 18.68 18.31v11.51a18.5 18.5 0 0 1 -18.68 18.32h-136.34s8.51-3.81 8.51-24.14z" fill="#56ced7"/><path d="m394.78 990.51v11.49a18.22 18.22 0 0 1 -.54 4.4c-4.6-11-13.41-21.66-30.19-25.07-39.17-8-124.29-9.16-124.29-9.16h136.34a18.5 18.5 0 0 1 18.68 18.34z" fill="#4bbcbf"/><path d="m456.14 926.61h9a10.29 10.29 0 0 0 -5.29-1.4h-224.63c-11.75 0-21.28 7.41-21.28 16.54v10.51c0 9.14 9.53 16.54 21.28 16.54h222.07z" fill="#1d3b4c"/><path d="m328.63 925.25c-11.23 0-20.34 7.08-20.34 15.82v11.87c0 8.74 9.11 15.82 20.34 15.82h139.82v-2.65h-.58l-35.55-2.62-7.18-21.91s13.87-12.11 14.77-12.43 28-1.26 28-1.26h.58v-2.64z" fill="#1a3141"/><path d="m459.38 946.93c0-12.82 8.51-19 8.51-19h-136.39c-10.32 0-18.69 6.51-18.69 14.54v9.14c0 8 8.37 14.53 18.69 14.53h136.39s-8.51-3.08-8.51-19.21z" fill="#56ced7"/><path d="m312.81 942.44v9.14a11.61 11.61 0 0 0 .54 3.48c4.6-8.75 13.42-17.18 30.2-19.89 39.19-6.33 124.34-7.27 124.34-7.27h-136.39c-10.32 0-18.69 6.51-18.69 14.54z" fill="#4bbcbf"/><path d="m0 1018.26h1590.16v36.86h-1590.16z" fill="#1d3b4c"/><path d="m0 1018.26h297.55v36.86h-297.55z" fill="#1a3141"/></svg>