<svg xmlns="http://www.w3.org/2000/svg" width="17.523" height="23" viewBox="0 0 17.523 23">
  <defs>
    <style>
      .cls-1 {
        fill: #8395ae;
      }
    </style>
  </defs>
  <g id="Group_100" data-name="Group 100" transform="translate(-2040.877 -950.872)">
    <path id="Path_119" data-name="Path 119" class="cls-1" d="M2056.647,973.872H2042.63a.28.28,0,0,0-.059-.03,2.016,2.016,0,0,1-1.693-2.133q0-9.341,0-18.683a2.026,2.026,0,0,1,2.15-2.153h8.633v.269q0,2.167,0,4.334a2.026,2.026,0,0,0,2.146,2.135h4.594v5.565q0,4.3,0,8.6a2.023,2.023,0,0,1-1.346,1.977C2056.921,973.8,2056.783,973.833,2056.647,973.872Zm-7.01-12.174q1.986,0,3.972,0a.683.683,0,0,0,.677-.388.669.669,0,0,0-.641-.959c-1.242,0-2.484,0-3.725,0q-2.132,0-4.264,0a.678.678,0,0,0-.661.378.67.67,0,0,0,.647.97C2046.974,961.7,2048.305,961.7,2049.637,961.7Zm0,2.7q1.986,0,3.972,0a.682.682,0,0,0,.676-.39.669.669,0,0,0-.644-.958c-1.414,0-2.828,0-4.242,0q-1.874,0-3.748,0a.675.675,0,1,0-.01,1.347C2046.976,964.4,2048.307,964.393,2049.639,964.393Zm.023,1.348c-1.332,0-2.663,0-3.995,0a.685.685,0,0,0-.687.408.673.673,0,0,0,.674.94q2.121,0,4.242,0,1.863,0,3.726,0a.675.675,0,1,0,.013-1.347C2052.31,965.739,2050.986,965.741,2049.662,965.741Zm-1.372,2.7c-.875,0-1.75-.006-2.625.005a.958.958,0,0,0-.443.119.63.63,0,0,0-.276.72.67.67,0,0,0,.686.5q2.625,0,5.25,0a.688.688,0,0,0,.777-.68c0-.408-.31-.667-.789-.667Z" transform="translate(0)"/>
    <path id="Path_120" data-name="Path 120" class="cls-1" d="M2247.973,963.666h-4.124a.7.7,0,0,1-.8-.8q0-1.974,0-3.949v-.174Z" transform="translate(-190.043 -7.404)"/>
  </g>
</svg>
