<svg xmlns="http://www.w3.org/2000/svg" width="16" height="16" viewBox="0 0 16 16">
  <g id="Group_1362" data-name="Group 1362" transform="translate(-26 -474)">
    <rect id="Rectangle_1732" data-name="Rectangle 1732" width="16" height="16" rx="3" transform="translate(26 474)" fill="#cfdcff"/>
    <g id="Stockholm_icons_Communication_Call_1" data-name="Stockholm icons / Communication / Call#1" transform="translate(38.267 478) rotate(90)">
      <path id="Path" d="M4.186,5.434l1.2-1.2a1.092,1.092,0,0,0,.2-1.261l-.068-.136a1.093,1.093,0,0,1,.2-1.261L7.223.08A.273.273,0,0,1,7.66.151l.6,1.206a2.4,2.4,0,0,1-.449,2.766L4.538,7.4a2.963,2.963,0,0,1-3.033.716L.187,7.675A.273.273,0,0,1,.014,7.33.269.269,0,0,1,.08,7.223L1.528,5.775a1.092,1.092,0,0,1,1.26-.2l.137.068A1.093,1.093,0,0,0,4.186,5.434Z" transform="translate(0 0)" fill="#6182eb"/>
    </g>
  </g>
</svg>
