<svg xmlns="http://www.w3.org/2000/svg" viewBox="0 0 354.08 317.11"><defs><style>.cls-1{isolation:isolate;}.cls-2{fill:#ecf4fa;}.cls-3{fill:#75a9e8;}.cls-3,.cls-4{fill-rule:evenodd;}.cls-4{fill:#c8e1ff;}.cls-5{fill:#fff;}.cls-6{fill:#6bc7ac;}.cls-7{fill:#202f77;}.cls-10,.cls-8,.cls-9{fill:none;stroke-linecap:round;}.cls-8{stroke:#c3eade;}.cls-10,.cls-8{stroke-linejoin:round;}.cls-8,.cls-9{stroke-width:9px;}.cls-9{stroke:#f2c497;stroke-miterlimit:10;}.cls-10{stroke:#202f77;stroke-width:2px;}.cls-11{fill:#4067b6;}.cls-12{fill:#335ea3;}.cls-13{fill:#b0cff4;}.cls-14{fill:#c5ddff;}.cls-15{fill:#c16f7c;}.cls-16{fill:#af5f6e;}.cls-17{fill:#565656;}.cls-18,.cls-19{fill:#f4f4f4;}.cls-19,.cls-23,.cls-27,.cls-31,.cls-35{mix-blend-mode:multiply;}.cls-20{fill:#f47458;}.cls-21{fill:#e56a55;}.cls-22{fill:#ff7d7d;}.cls-23{opacity:0.5;}.cls-24{fill:#b75742;}.cls-25{fill:#ef5e5e;}.cls-26,.cls-27{fill:#d3e5f4;}.cls-28{fill:#50bfa5;}.cls-29{fill:#466eb6;}.cls-30{fill:#5fb7aa;}.cls-31{fill:#daeef7;}.cls-32{fill:#ffaa4e;}.cls-33{fill:#ef7945;}.cls-34{fill:#4984eb;}.cls-35{fill:#97aed4;opacity:0.3;}</style></defs><g class="cls-1"><g id="Layer_2" data-name="Layer 2"><g id="Layer_2-2" data-name="Layer 2"><path class="cls-2" d="M16.32,0H333.43a0,0,0,0,1,0,0V317.11a0,0,0,0,1,0,0H101.34a85,85,0,0,1-85-85V0A0,0,0,0,1,16.32,0Z" transform="translate(349.75 317.11) rotate(-180)"/><path class="cls-3" d="M325.19,44.16a7.53,7.53,0,0,1,2.67,2.55,6.52,6.52,0,0,1-.07,6.61l-2.31,3.87a6.77,6.77,0,0,1-9.32,2.39,5.26,5.26,0,0,0-2.9-.74,6.15,6.15,0,0,0-6.1,5.86,6.66,6.66,0,0,1-6.82,6.61h-4.48A6.67,6.67,0,0,1,289,64.7a6.11,6.11,0,0,0-6.07-5.86,5.13,5.13,0,0,0-2.9.74,7,7,0,0,1-3.49,1,6.9,6.9,0,0,1-5.87-3.35l-2.27-3.87a6.43,6.43,0,0,1-.06-6.61A6.8,6.8,0,0,1,271,44.16a5.28,5.28,0,0,0,2.08-2.06A5.92,5.92,0,0,0,270.92,34a6.58,6.58,0,0,1-2.44-9.12l2.2-3.81a6.86,6.86,0,0,1,9.3-2.45,6.32,6.32,0,0,0,8.27-2.23A5,5,0,0,0,289,13.6a5.7,5.7,0,0,1,.92-3.42,7.06,7.06,0,0,1,5.83-3.35h4.65a6.92,6.92,0,0,1,5.86,3.35,5.69,5.69,0,0,1,.89,3.42,5,5,0,0,0,.76,2.83,6.35,6.35,0,0,0,8.3,2.23,6.81,6.81,0,0,1,9.26,2.45l2.21,3.81A6.53,6.53,0,0,1,325.25,34a5.87,5.87,0,0,0-2.11,8.06A5,5,0,0,0,325.19,44.16ZM288.78,39.1A9.31,9.31,0,1,0,298.13,30,9.19,9.19,0,0,0,288.78,39.1Z"/><path class="cls-4" d="M260.69,85.06a7.53,7.53,0,0,1,2.67,2.55,6.5,6.5,0,0,1-.07,6.61L261,98.09a6.78,6.78,0,0,1-9.33,2.39,5.24,5.24,0,0,0-2.9-.75,6.15,6.15,0,0,0-6.09,5.87,6.67,6.67,0,0,1-6.83,6.61h-4.48a6.67,6.67,0,0,1-6.85-6.61,6.11,6.11,0,0,0-6.06-5.87,5.09,5.09,0,0,0-2.9.75,7.05,7.05,0,0,1-3.5,1,6.88,6.88,0,0,1-5.86-3.35l-2.28-3.87a6.45,6.45,0,0,1-.06-6.61,6.87,6.87,0,0,1,2.63-2.55A5.22,5.22,0,0,0,208.56,83a5.91,5.91,0,0,0-2.14-8.06A6.6,6.6,0,0,1,204,65.81l2.21-3.8a6.85,6.85,0,0,1,9.29-2.45,6.33,6.33,0,0,0,8.27-2.23,4.92,4.92,0,0,0,.76-2.83,5.77,5.77,0,0,1,.92-3.42,7.1,7.1,0,0,1,5.83-3.36h4.65a7,7,0,0,1,5.87,3.36,5.83,5.83,0,0,1,.89,3.42,5,5,0,0,0,.75,2.83,6.37,6.37,0,0,0,8.31,2.23A6.81,6.81,0,0,1,261,62l2.2,3.8a6.54,6.54,0,0,1-2.43,9.13A5.87,5.87,0,0,0,258.65,83,4.94,4.94,0,0,0,260.69,85.06ZM224.28,80a9.31,9.31,0,1,0,9.36-9.12A9.2,9.2,0,0,0,224.28,80Z"/><rect class="cls-5" x="48.12" y="83.37" width="132.13" height="91.89" rx="11.79"/><path class="cls-6" d="M59.92,83.37H168.46a11.79,11.79,0,0,1,11.79,11.79v10.72a0,0,0,0,1,0,0H48.12a0,0,0,0,1,0,0V95.16A11.79,11.79,0,0,1,59.92,83.37Z"/><rect class="cls-7" x="77.72" y="76.71" width="5.5" height="17.92" rx="2.21"/><rect class="cls-7" x="145.02" y="76.71" width="5.5" height="17.92" rx="2.21"/><line class="cls-8" x1="63.98" y1="125.61" x2="160.61" y2="125.61"/><line class="cls-9" x1="63.98" y1="154.02" x2="120" y2="154.02"/><line class="cls-10" x1="63.98" y1="125.61" x2="73.33" y2="125.61"/><line class="cls-10" x1="85.39" y1="125.61" x2="94.74" y2="125.61"/><line class="cls-10" x1="106.79" y1="125.61" x2="116.15" y2="125.61"/><line class="cls-10" x1="128.2" y1="125.61" x2="137.55" y2="125.61"/><line class="cls-10" x1="149.6" y1="125.61" x2="158.96" y2="125.61"/><line class="cls-10" x1="63.98" y1="139.82" x2="73.33" y2="139.82"/><line class="cls-10" x1="85.39" y1="139.82" x2="94.74" y2="139.82"/><line class="cls-10" x1="106.79" y1="139.82" x2="116.15" y2="139.82"/><line class="cls-10" x1="128.2" y1="139.82" x2="137.55" y2="139.82"/><line class="cls-10" x1="149.6" y1="139.82" x2="158.96" y2="139.82"/><line class="cls-10" x1="63.98" y1="154.02" x2="73.33" y2="154.02"/><line class="cls-10" x1="85.39" y1="154.02" x2="94.74" y2="154.02"/><line class="cls-10" x1="106.79" y1="154.02" x2="116.15" y2="154.02"/><path class="cls-11" d="M353.54,140.49l-11.05,83.13-.42,3.19H212l.42-3.15v0l6.17-46.39,4.87-36.66c1.11-8.36,9-15.14,17.58-15.14H340a13.39,13.39,0,0,1,1.8.11A13,13,0,0,1,353.54,140.49Z"/><path class="cls-12" d="M354,137.24l-.43,3.25-11.05,83.13-.42,3.19H317.79l.42-3.19,11.48-86.38a13.3,13.3,0,0,1,3.73-7.46,14.21,14.21,0,0,1,8.36-4.24,11,11,0,0,1,1.62-.11C350.11,125.43,354.84,130.72,354,137.24Z"/><path class="cls-13" d="M221.07,257.79l23-1.57s4.25-64.91,4.25-74.88c0-12.09,3.95-30.39,2.53-30.05-4,.94-10.7,3.07-13.88,7.59C225.92,174.5,221.07,257.79,221.07,257.79Z"/><path class="cls-14" d="M276.6,151.29s13.08,1.86,16.53,4.43c3.88,2.91,8.18,9.4,8.18,9.4s-16.07,77.37-16.09,90.38c0,10.08,3.47,34.81,3.47,34.81s-48.55,3.12-66.94-4.27c0,0,5.81-29.42,5.81-37.14s6.94-78,8.52-82.86c1.44-4.45,4.06-12.45,12.93-14.42S276.6,151.29,276.6,151.29Z"/><path class="cls-15" d="M273,130.46l2.42,19.77s-11,27.56-18.07,25.33c-5.93-1.87-1.67-24.8-1.67-24.8s2.62-12,1.65-18.17S273,130.46,273,130.46Z"/><path class="cls-16" d="M257.35,132.59c-1-6.12,15.67-2.13,15.67-2.13l.27,1.8a10.23,10.23,0,0,1-1.8,3,21.64,21.64,0,0,1-14.36,6.87A34.53,34.53,0,0,0,257.35,132.59Z"/><path class="cls-15" d="M275.35,103.33c.42-.15,3.35,21.87-2.21,27.93s-16.41,8-20.3,3.27c-4.3-5.28-4.08-28.95,4.57-35.18S275.35,103.33,275.35,103.33Z"/><path class="cls-17" d="M260.7,87.57a23.91,23.91,0,0,1,12.61,7.28c3,.36,7.17,2.06,11.43,9.2,5.24,8.78,1.37,18.5-4.73,23.27s-6,10.32-6,10.32l-1-2.88a16.12,16.12,0,0,1-.76-6.72,13.36,13.36,0,0,1,1-4c1.47-3.18-3.15-5.3-4.44-8-1-2-1.05-6.71-2.62-10.09l-1.88-2.57s-4.33-3.41-8.56-2.45S252.12,85.8,260.7,87.57Z"/><path class="cls-15" d="M269.09,120c0,2.68,1.16,4.88,2.7,4.91s2.81-2.13,2.85-4.82-1.16-4.88-2.69-4.91S269.13,117.28,269.09,120Z"/><polygon class="cls-18" points="256.25 145.82 261.53 151.75 274.74 141.93 276.26 152.07 253.98 206.15 252.17 151.11 256.25 145.82"/><polygon class="cls-19" points="252.44 159.5 261.53 154.51 268.7 159.5 276.26 152.07 268.7 160.67 261.53 155.49 252.47 160.37 252.44 159.5"/><polygon class="cls-20" points="258.58 156.12 260.49 161.12 262.36 161.12 264.83 156.8 261.53 154.51 258.58 156.12"/><polygon class="cls-21" points="262.36 161.12 263.62 182.75 253.98 206.15 253.3 185.4 260.49 161.12 262.36 161.12"/><path class="cls-13" d="M286.89,208.84c2.78-2.11-8.46-41.66-.32-53.65,0,0,4.17-2.75,11.49,1.78,10.21,6.3,8.27,62.74,2.69,67-8.33,6.37-50.51,3.39-58.94,2.82v-9.43S284.44,210.71,286.89,208.84Z"/><rect class="cls-22" x="68.9" y="235.07" width="259.91" height="82.04"/><g class="cls-23"><path class="cls-24" d="M201.16,256v61.13h5.65V261.62h62.1v55.49h5.63V256Z"/></g><g class="cls-23"><path class="cls-24" d="M93.45,256v61.13H99.1V261.62h62.09v55.49h5.65V256Z"/></g><rect class="cls-24" x="63.04" y="223.62" width="287.68" height="11.44"/><rect class="cls-25" x="297.87" y="235.07" width="35.55" height="82.04"/><path class="cls-7" d="M170.32,177.23h54.79a3.58,3.58,0,0,1,3.31,2.22l16.87,41.15H275.5a1.53,1.53,0,0,1,1.53,1.53h0a1.54,1.54,0,0,1-1.53,1.53h-86a6,6,0,0,1-5.47-3.55l-17-37.84A3.58,3.58,0,0,1,170.32,177.23Z"/><path class="cls-5" d="M199.82,201.19a3,3,0,1,0,2.26-3.93A3.22,3.22,0,0,0,199.82,201.19Z"/><path class="cls-5" d="M261.62,126.55l-9-.56a3.94,3.94,0,0,0,3.94,3.79C261.38,130.22,261.62,126.55,261.62,126.55Z"/><rect class="cls-18" x="107.98" y="208.62" width="42.86" height="15.01" transform="translate(258.83 432.24) rotate(180)"/><rect class="cls-18" x="107.98" y="193.84" width="42.86" height="15.01" transform="translate(258.83 402.69) rotate(180)"/><rect class="cls-26" x="107.98" y="196.52" width="42.86" height="0.25" transform="translate(258.83 393.29) rotate(180)"/><rect class="cls-26" x="107.98" y="198.99" width="42.86" height="0.25" transform="translate(258.83 398.24) rotate(180)"/><rect class="cls-26" x="107.98" y="208.89" width="42.86" height="0.25" transform="translate(258.83 418.03) rotate(180)"/><rect class="cls-26" x="107.98" y="211.36" width="42.86" height="0.25" transform="translate(258.83 422.98) rotate(180)"/><rect class="cls-26" x="107.98" y="213.84" width="42.86" height="0.25" transform="translate(258.83 427.93) rotate(180)"/><rect class="cls-26" x="107.98" y="216.32" width="42.86" height="0.25" transform="translate(258.83 432.89) rotate(180)"/><rect class="cls-26" x="107.98" y="218.79" width="42.86" height="0.25" transform="translate(258.83 437.84) rotate(180)"/><rect class="cls-26" x="107.98" y="201.47" width="42.86" height="0.25" transform="translate(258.83 403.19) rotate(180)"/><rect class="cls-26" x="107.98" y="203.95" width="42.86" height="0.25" transform="translate(258.83 408.15) rotate(180)"/><rect class="cls-26" x="107.98" y="206.42" width="42.86" height="0.25" transform="translate(258.83 413.1) rotate(180)"/><polygon class="cls-26" points="150.84 208.85 153.47 210.16 127.14 208.85 150.84 208.85"/><polygon class="cls-27" points="140.64 193.84 140.64 208.62 140.64 208.85 140.64 223.63 150.84 223.63 150.84 208.85 150.84 208.62 150.84 193.84 140.64 193.84"/><path class="cls-26" d="M129.72,214.09S109.55,215.82,107,218a12.27,12.27,0,0,1,1-4.16l6.32.24Z"/><polygon class="cls-20" points="139.18 199.25 136.97 202.73 134.51 199.25 139.18 199.25"/><polygon class="cls-28" points="118.85 209.14 116.65 212.63 114.19 209.14 118.85 209.14"/><polygon class="cls-29" points="134.38 216.57 132.18 220.06 129.72 216.57 134.38 216.57"/><rect class="cls-26" x="107.98" y="221.26" width="41.12" height="0.25" transform="translate(257.09 442.77) rotate(180)"/><path class="cls-6" d="M146.07,212.29h-1.91a1.89,1.89,0,0,1,1.13-.37h47.88a4.49,4.49,0,0,1,4.53,4.44v2.83a4.49,4.49,0,0,1-4.53,4.44H145.82Z"/><path class="cls-30" d="M173.25,211.93a4.29,4.29,0,0,1,4.34,4.25v3.19a4.29,4.29,0,0,1-4.34,4.25h-29.8v-.71h.12l7.58-.71,1.53-5.89s-3-3.25-3.15-3.33-6-.34-6-.34h-.12v-.71Z"/><path class="cls-18" d="M145.38,217.75a7.11,7.11,0,0,0-1.82-5.11h29.08a3.94,3.94,0,0,1,4,3.91V219a3.94,3.94,0,0,1-4,3.91H143.56S145.38,222.09,145.38,217.75Z"/><path class="cls-31" d="M176.62,216.55V219a4.1,4.1,0,0,1-.11.94,8.53,8.53,0,0,0-6.44-5.35c-8.35-1.7-26.51-2-26.51-2h29.08A3.94,3.94,0,0,1,176.62,216.55Z"/><path class="cls-32" d="M147.21,202.93H145.3a2.16,2.16,0,0,1,1.13-.3h47.89c2.51,0,4.54,1.58,4.54,3.53v2.24c0,1.95-2,3.53-4.54,3.53l-47.36,0Z"/><path class="cls-33" d="M174.4,202.64c2.4,0,4.34,1.51,4.34,3.37v2.53c0,1.87-1.94,3.38-4.34,3.38H144.58v-.57h.13l7.58-.56,1.53-4.67s-3-2.58-3.15-2.65-6-.27-6-.27h-.13v-.56Z"/><path class="cls-18" d="M146.52,207.26a5.16,5.16,0,0,0-1.82-4.06h29.09c2.2,0,4,1.39,4,3.1v1.95c0,1.71-1.79,3.1-4,3.1H144.7S146.52,210.7,146.52,207.26Z"/><path class="cls-31" d="M177.78,206.3v1.95a2.67,2.67,0,0,1-.12.75c-1-1.87-2.86-3.67-6.44-4.25-8.36-1.35-26.52-1.55-26.52-1.55h29.09C176,203.2,177.78,204.59,177.78,206.3Z"/><ellipse class="cls-34" cx="32.62" cy="76.47" rx="32.61" ry="32.87" transform="translate(-11.1 5.76) rotate(-8.63)"/><ellipse class="cls-18" cx="32.62" cy="76.47" rx="28.19" ry="28.42" transform="translate(-11.1 5.75) rotate(-8.62)"/><path class="cls-35" d="M29.27,48.26A28,28,0,0,0,8.92,61a27.91,27.91,0,0,1,18.17-9.82A28.47,28.47,0,0,1,54.14,94.87,28.46,28.46,0,0,0,29.27,48.26Z"/><circle class="cls-29" cx="32.62" cy="76.47" r="4.06"/><rect class="cls-29" x="34.24" y="59.45" width="3.09" height="17.87" transform="translate(27.75 -8.38) rotate(21.65)"/><rect class="cls-29" x="41.18" y="70.2" width="1.72" height="22.7" transform="translate(133.71 85.43) rotate(119.69)"/><rect class="cls-29" x="7.07" y="74.62" width="3.71" height="3.71"/><rect class="cls-29" x="54.46" y="74.62" width="3.71" height="3.71" transform="translate(112.63 152.95) rotate(180)"/><rect class="cls-29" x="30.76" y="98.32" width="3.71" height="3.71" transform="translate(-67.55 132.79) rotate(-90)"/><rect class="cls-29" x="30.76" y="50.92" width="3.71" height="3.71" transform="translate(85.39 20.16) rotate(90)"/></g></g></g></svg>