<svg xmlns="http://www.w3.org/2000/svg" width="195.576" height="274.155" viewBox="0 0 195.576 274.155">
  <g id="Group_75" data-name="Group 75" transform="translate(-157 -217.353)">
    <g id="Group_73" data-name="Group 73" transform="translate(-7979.363 -342.64)">
      <path id="Path_133" data-name="Path 133" d="M852.434,589.806a104.4,104.4,0,0,1-22.779,18.378c-.193.119-.389.23-.586.345L815.44,596.467c.143-.133.3-.282.472-.446,10.154-9.642,60.566-77.06,63.926-93.477C879.606,503.911,882.869,557.548,852.434,589.806Z" transform="translate(7448.177 220.467)" fill="#f0f0f0"/>
      <path id="Path_134" data-name="Path 134" d="M838.286,683.375c-.258.061-.52.119-.783.171L827.279,674.5c.2-.07.433-.152.7-.244,4.387-1.553,17.453-6.243,30.455-11.584,13.971-5.741,27.876-12.229,30.866-16.384C888.659,647.251,868.9,676.53,838.286,683.375Z" transform="translate(7442.176 147.603)" fill="#f0f0f0"/>
      <path id="Path_1061" data-name="Path 1061" d="M754.242,252.907h-1.456V213.02A23.086,23.086,0,0,0,729.7,189.934H645.193a23.086,23.086,0,0,0-23.086,23.086V431.846a23.086,23.086,0,0,0,23.086,23.086H729.7a23.086,23.086,0,0,0,23.086-23.086V281.3h1.456Z" transform="translate(7546.181 378.933)" fill="#3f3d56"/>
      <path id="Path_1062" data-name="Path 1062" d="M754.421,219.354V437.862A17.237,17.237,0,0,1,737.178,455.1H652.264a17.236,17.236,0,0,1-17.237-17.238V219.354a17.236,17.236,0,0,1,17.238-17.237h10.3a8.195,8.195,0,0,0,7.585,11.282h48.412a8.186,8.186,0,0,0,7.586-11.282h11.026A17.237,17.237,0,0,1,754.421,219.354Z" transform="translate(7539.631 372.758)" fill="#fff"/>
      <path id="Path_1063" data-name="Path 1063" d="M741.8,454.694H667.159a4.936,4.936,0,0,1-4.931-4.931v-2.454a4.936,4.936,0,0,1,4.931-4.931H741.8a4.936,4.936,0,0,1,4.931,4.931v2.454A4.936,4.936,0,0,1,741.8,454.694Z" transform="translate(7525.843 250.966)" fill="#f0f0f0"/>
      <path id="Path_1064" data-name="Path 1064" d="M741.8,497.6H667.159a4.936,4.936,0,0,1-4.931-4.931v-2.454a4.936,4.936,0,0,1,4.931-4.931H741.8a4.936,4.936,0,0,1,4.931,4.931v2.454A4.936,4.936,0,0,1,741.8,497.6Z" transform="translate(7525.843 229.216)" fill="#f0f0f0"/>
      <path id="Path_1065" data-name="Path 1065" d="M749.114,444.591H674.477a5.183,5.183,0,0,1-5.177-5.177v-2.454a5.183,5.183,0,0,1,5.177-5.177h74.637a5.183,5.183,0,0,1,5.177,5.177v2.454A5.183,5.183,0,0,1,749.114,444.591Zm-74.637-11.823a4.2,4.2,0,0,0-4.191,4.191v2.454a4.2,4.2,0,0,0,4.191,4.191h74.637a4.2,4.2,0,0,0,4.191-4.191v-2.454a4.2,4.2,0,0,0-4.191-4.191Z" transform="translate(7522.258 256.338)" fill="#3f3d56"/>
      <path id="Path_1066" data-name="Path 1066" d="M749.114,487.5H674.477a5.183,5.183,0,0,1-5.177-5.177v-2.454a5.183,5.183,0,0,1,5.177-5.177h74.637a5.183,5.183,0,0,1,5.177,5.177v2.454A5.183,5.183,0,0,1,749.114,487.5Zm-74.636-11.823a4.2,4.2,0,0,0-4.191,4.191v2.454a4.2,4.2,0,0,0,4.191,4.191h74.637a4.2,4.2,0,0,0,4.191-4.191v-2.454a4.2,4.2,0,0,0-4.191-4.191Z" transform="translate(7522.258 234.587)" fill="#3f3d56"/>
      <path id="Path_1067" data-name="Path 1067" d="M811.324,219.354v47.529a51.054,51.054,0,0,1-64.044-49.346q0-2.091.168-4.138h28.02a8.186,8.186,0,0,0,7.586-11.282H794.08A17.237,17.237,0,0,1,811.324,219.354Z" transform="translate(7482.729 372.758)" fill="#f0f0f0"/>
      <path id="Path_1068" data-name="Path 1068" d="M677.932,670.131c0,1-.037,1.991-.118,2.968h-25.55a17.236,17.236,0,0,1-17.237-17.238V632.491a38,38,0,0,1,42.905,37.641Z" transform="translate(7539.631 154.756)" fill="#4e88ff"/>
      <path id="Path_1080" data-name="Path 1080" d="M441.3,726.92H246.276c-.153,0-.276-.221-.276-.493s.124-.493.276-.493H441.3c.153,0,.276.221.276.493S441.453,726.92,441.3,726.92Z" transform="translate(7890.363 107.228)" fill="#3f3d56"/>
      <path id="Path_1081" data-name="Path 1081" d="M739.19,549.342H703.756a4.936,4.936,0,0,1-4.931-4.931v-2.454a4.936,4.936,0,0,1,4.931-4.931H739.19a4.936,4.936,0,0,1,4.931,4.931v2.454A4.936,4.936,0,0,1,739.19,549.342Z" transform="translate(7507.291 202.988)" fill="#4e88ff"/>
      <path id="Path_1082" data-name="Path 1082" d="M746.509,539.239H711.074a5.183,5.183,0,0,1-5.177-5.177v-2.454a5.183,5.183,0,0,1,5.177-5.177h35.434a5.183,5.183,0,0,1,5.177,5.177v2.454A5.183,5.183,0,0,1,746.509,539.239Zm-35.434-11.823a4.2,4.2,0,0,0-4.191,4.191v2.454a4.2,4.2,0,0,0,4.191,4.191h35.434a4.2,4.2,0,0,0,4.191-4.191v-2.454a4.2,4.2,0,0,0-4.191-4.191Z" transform="translate(7503.706 208.359)" fill="#3f3d56"/>
    </g>
    <g id="Group_74" data-name="Group 74" transform="translate(-34.212)">
      <circle id="Ellipse_95" data-name="Ellipse 95" cx="29.242" cy="29.242" r="29.242" transform="translate(328.304 217.353)" fill="#4e88ff"/>
      <path id="Path_1083" data-name="Path 1083" d="M900.258,255.656H876.028a1.673,1.673,0,0,1-1.671-1.671V239.364a1.673,1.673,0,0,1,1.671-1.671h24.229a1.673,1.673,0,0,1,1.671,1.671v14.621A1.673,1.673,0,0,1,900.258,255.656Zm-24.229-16.292v14.621h24.23V239.364Z" transform="translate(-530.598 3.681)" fill="#fff"/>
      <path id="Path_1084" data-name="Path 1084" d="M905.977,217.36H890.938v-6.684c0-4.841,3.162-8.355,7.519-8.355s7.519,3.514,7.519,8.355Zm-13.368-1.671h11.7v-5.013c0-3.935-2.4-6.684-5.848-6.684s-5.848,2.749-5.848,6.684Z" transform="translate(-540.912 25.685)" fill="#fff"/>
      <circle id="Ellipse_96" data-name="Ellipse 96" cx="1.671" cy="1.671" r="1.671" transform="translate(355.875 248.266)" fill="#fff"/>
    </g>
  </g>
</svg>
