<?xml version="1.0" encoding="UTF-8"?>
<svg viewBox="0 0 375 169" xmlns="http://www.w3.org/2000/svg">
<defs>
<style>.cls-1 {
        fill: #def4ee;
      }

      .cls-2 {
        clip-path: url(#a);
      }

      .cls-3 {
        fill: #83bb91;
      }

      .cls-4 {
        fill: #4c7555;
      }

      .cls-5 {
        fill: #95cbad;
      }

      .cls-6 {
        fill: #6aa075;
      }

      .cls-7 {
        fill: #f4ce8e;
      }

      .cls-8 {
        fill: #cb9966;
      }

      .cls-9 {
        fill: #f89830;
      }

      .cls-10 {
        fill: #dc5b3e;
      }

      .cls-11 {
        fill: #700e32;
      }

      .cls-12 {
        fill: #471540;
      }

      .cls-13 {
        fill: #8f6f88;
      }

      .cls-14 {
        fill: #f9f2d9;
      }

      .cls-15 {
        fill: #c69262;
      }

      .cls-16 {
        fill: #951a45;
      }

      .cls-17 {
        fill: #f6debc;
      }

      .cls-18 {
        fill: #b3b3b3;
      }</style>
<clipPath id="a">
<path class="cls-1" transform="translate(6288 1181)" d="m0 0h375v149a20 20 0 0 1-20 20h-335a20 20 0 0 1-20-20v-149z" data-name="Rectangle 273"/>
</clipPath>
</defs>
<g class="cls-2" transform="translate(-6288 -1181)" data-name="Mask Group 24">
<g transform="translate(6239.1 1155.5)" data-name="Add Homework">
<g transform="translate(94.776 159.91)" data-name="Group 82">
<g transform="translate(3.896 16.437)" data-name="Group 74">
<g data-name="Group 73">
<g data-name="Group 71">
<g data-name="Group 70">
<path class="cls-3" transform="translate(-347.05 -833.76)" d="m392.45 853.37-24.627 7.408-18.42-10.943 21.99-6.533z" data-name="Path 37"/>
<path class="cls-3" transform="translate(-347.05 -829.25)" d="m392.45 848.27-24.627 7.4-18.42-10.935 21.979-6.533z" data-name="Path 38"/>
<path class="cls-4" transform="translate(-463.2 -892.94)" d="M484.334,910.615s-5.18,4.188-.128,9.158l-1.528-.758s-3.6-1.027-.572-8.714Z" data-name="Path 39"/>
<path class="cls-4" transform="translate(-482.9 -837.82)" d="M527.162,848.238l-22.9,6.5-1.062.968.828-.21,24.277-7.291v-.3Z" data-name="Path 40"/>
<path class="cls-5" transform="translate(-347.05 -761.5)" d="m392.45 771.58-24.627 7.4-18.42-10.934 21.99-6.545z" data-name="Path 41"/>
<path class="cls-4" transform="translate(-480.96 -905.48)" d="M526.362,925.095V924.5l-24.9,7.5L501,931.85s.49.408.735.653Z" data-name="Path 42"/>
<path class="cls-6" transform="translate(-329.22 -811.06)" d="m350 828.53s-5.553 3.99 0 9.531l-18.421-10.931s-5.3-4.235 0-9.531z" data-name="Path 43"/>
<path class="cls-7" transform="translate(-471.39 -841.53)" d="M492.516,859.2s-4.958,3.873-.467,8.8l24.277-7.3s-4.118-3.1-.152-8.6Z" data-name="Path 44"/>
</g>
<path class="cls-8" transform="translate(-488.73 -901.33)" d="m531.22 920.06-21.419 6.288 0.082-0.257 21.418-6.288z" data-name="Path 45"/>
<path class="cls-8" transform="translate(-482.9 -894.53)" d="m524.62 912.37-21.419 6.288 0.093-0.268 21.419-6.288z" data-name="Path 46"/>
<path class="cls-8" transform="translate(-480.96 -885.34)" d="M522.419,901.957,501,908.245l.093-.257,21.419-6.288Z" data-name="Path 47"/>
<path class="cls-8" transform="translate(-482.02 -876.95)" d="m523.62 892.46-21.419 6.288 0.082-0.257 21.418-6.288z" data-name="Path 48"/>
<path class="cls-8" transform="translate(-486.53 -866.44)" d="m528.72 880.57-21.419 6.288 0.082-0.257 21.43-6.3z" data-name="Path 49"/>
<path class="cls-8" transform="translate(-489.26 -855.93)" d="m531.82 868.66-21.419 6.288 0.082-0.257 21.418-6.288z" data-name="Path 50"/>
</g>
<g transform="translate(36.267 16.099)" data-name="Group 72">
<path class="cls-9" transform="translate(-640.1 -899.5)" d="M642.818,903.28l2.322.793-.455-4.573-4.585,1.19.712,4.655Z" data-name="Path 51"/>
</g>
</g>
<path class="cls-5" transform="translate(-435.46 -875.45)" d="M453.216,891.13a6.406,6.406,0,0,0-.922,8.994l-1.47-.875s-3.745-3.861,1.33-8.75Z" data-name="Path 52"/>
</g>
<g transform="translate(0 6.79)" data-name="Group 78">
<g data-name="Group 77">
<g data-name="Group 75">
<path class="cls-3" transform="translate(-313.65 -750.97)" d="m359.05 770.58-24.627 7.4-18.42-10.946 21.979-6.533z" data-name="Path 53"/>
<path class="cls-10" transform="translate(-313.65 -746.46)" d="m359.05 765.48-24.638 7.4-18.409-10.946 21.979-6.533z" data-name="Path 54"/>
<path class="cls-11" transform="translate(-429.8 -810.15)" d="M450.934,827.815s-5.18,4.2-.128,9.158l-1.528-.758s-3.6-1.027-.572-8.714Z" data-name="Path 55"/>
<path class="cls-11" transform="translate(-449.5 -755.03)" d="M493.75,765.45l-22.9,6.486-1.05.968.828-.21,24.265-7.291v-.3Z" data-name="Path 56"/>
<path class="cls-9" transform="translate(-313.65 -678.8)" d="m359.05 688.87-24.627 7.4-18.42-10.935 21.979-6.533z" data-name="Path 57"/>
<path class="cls-11" transform="translate(-447.56 -822.78)" d="M492.962,842.4V841.8l-24.9,7.49-.467-.152s.49.408.735.653Z" data-name="Path 58"/>
<path class="cls-10" transform="translate(-295.82 -728.27)" d="m316.6 745.73s-5.553 3.99 0 9.531l-18.421-10.931s-5.3-4.235 0-9.531z" data-name="Path 59"/>
<path class="cls-7" transform="translate(-436.97 -758.74)" d="M458.1,776.4s-5.261,4.176-.467,8.8l24.265-7.3s-4.118-3.1-.152-8.6Z" data-name="Path 60"/>
</g>
<path class="cls-8" transform="translate(-458.69 -816.87)" d="m501.62 835.36-21.419 6.288 0.082-0.257 21.418-6.288z" data-name="Path 61"/>
<path class="cls-8" transform="translate(-452.86 -810.06)" d="m495.02 827.67-21.419 6.288 0.093-0.257 21.419-6.3z" data-name="Path 62"/>
<path class="cls-8" transform="translate(-450.92 -800.88)" d="m492.82 817.26-21.419 6.288 0.093-0.257 21.419-6.288z" data-name="Path 63"/>
<path class="cls-8" transform="translate(-451.89 -792.49)" d="M493.93,807.757l-21.43,6.288.093-.257,21.419-6.288Z" data-name="Path 64"/>
<path class="cls-8" transform="translate(-456.48 -782.06)" d="m499.12 795.96-21.419 6.288 0.082-0.257 21.418-6.288z" data-name="Path 65"/>
<path class="cls-8" transform="translate(-459.22 -771.46)" d="m502.22 783.96-21.419 6.288 0.082-0.257 21.418-6.288z" data-name="Path 66"/>
<g transform="translate(34.879 14.232)" data-name="Group 76">
<path class="cls-4" transform="translate(-594.8 -800.8)" d="M597.273,804.265l2.147.723-.432-4.188-4.188,1.1.642,4.258Z" data-name="Path 67"/>
</g>
</g>
<path class="cls-9" transform="translate(-322.74 -745.58)" d="M330.016,755.03a6.406,6.406,0,0,0-.922,8.994l-1.47-.875s-3.745-3.861,1.33-8.749Z" data-name="Path 68"/>
</g>
<g transform="translate(6.393)" data-name="Group 81">
<g data-name="Group 79">
<path class="cls-3" transform="translate(-364.91 -678.37)" d="m401.26 694.06-19.715 5.926-14.746-8.75 17.592-5.237z" data-name="Path 69"/>
<path class="cls-12" transform="translate(-364.91 -674.84)" d="m401.26 690.06-19.715 5.915-14.746-8.75 17.592-5.226z" data-name="Path 70"/>
<path class="cls-11" transform="translate(-457.9 -725.72)" d="M474.825,739.857a4.676,4.676,0,0,0-.1,7.326l-1.225-.607s-2.882-.817-.455-6.976Z" data-name="Path 71"/>
<path class="cls-11" transform="translate(-473.65 -681.64)" d="M509.079,689.98l-18.327,5.191-.852.77.665-.163,19.424-5.833V689.7Z" data-name="Path 72"/>
<path class="cls-13" transform="translate(-364.91 -620.6)" d="m401.26 628.66-19.715 5.926-14.746-8.749 17.592-5.238z" data-name="Path 73"/>
<path class="cls-11" transform="translate(-472.15 -735.79)" d="M508.5,751.478V751l-19.925,6-.373-.128s.4.327.583.525Z" data-name="Path 74"/>
<path class="cls-12" transform="translate(-350.62 -660.26)" d="m367.26 674.25s-4.445 3.2 0 7.63l-14.746-8.75s-4.246-3.395 0-7.63z" data-name="Path 75"/>
<path class="cls-7" transform="translate(-464.42 -684.55)" d="m481.33 698.69a4.59 4.59 0 0 0-0.373 7.035l19.424-5.845s-3.3-2.485-0.117-6.883z" data-name="Path 76"/>
</g>
<path class="cls-8" transform="translate(-479.66 -733.05)" d="m513.64 748.11-16.939 4.97 0.07-0.2 16.939-4.981z" data-name="Path 77"/>
<path class="cls-8" transform="translate(-475.06 -727.75)" d="m508.45 742.11-16.951 4.97 0.07-0.21 16.951-4.97z" data-name="Path 78"/>
<path class="cls-8" transform="translate(-473.56 -720.42)" d="m506.74 733.81-16.939 4.97 0.07-0.2 16.939-4.981z" data-name="Path 79"/>
<path class="cls-8" transform="translate(-474.36 -713.79)" d="m507.64 726.31-16.939 4.97 0.07-0.21 16.939-4.97z" data-name="Path 80"/>
<path class="cls-8" transform="translate(-477.89 -705.58)" d="m511.65 717-16.951 4.98 0.07-0.21 16.951-4.97z" data-name="Path 81"/>
<path class="cls-8" transform="translate(-480.1 -697.19)" d="m514.14 707.51-16.939 4.97 0.07-0.21 16.939-4.97z" data-name="Path 82"/>
<g transform="translate(30.411 13.719)" data-name="Group 80">
<path class="cls-10" transform="translate(-611.3 -738.2)" d="M613.132,740.766l1.587.537-.315-3.1-3.1.817.478,3.15Z" data-name="Path 83"/>
</g>
</g>
</g>
<g transform="translate(93.643 99.068)" data-name="Group 84">
<rect class="cls-10" transform="matrix(.59 -.807 .807 .59 0 36.386)" width="45.077" height="78.255" data-name="Rectangle 197"/>
<rect class="cls-14" transform="matrix(.59 -.807 .807 .59 3.307 36.073)" width="40.679" height="73.297" data-name="Rectangle 198"/>
<rect class="cls-5" transform="matrix(.59 -.807 .807 .59 59.151 35.136)" width="1.097" height="24.557" data-name="Rectangle 199"/>
<rect class="cls-5" transform="translate(57.858 36.898) rotate(-53.83)" width="1.097" height="24.557" data-name="Rectangle 200"/>
<rect class="cls-5" transform="matrix(.59 -.807 .807 .59 56.548 38.688)" width="1.097" height="24.557" data-name="Rectangle 201"/>
<rect class="cls-5" transform="matrix(.59 -.807 .807 .59 45.955 53.181)" width="1.097" height="24.557" data-name="Rectangle 202"/>
<rect class="cls-5" transform="matrix(.59 -.807 .807 .59 44.65 54.963)" width="1.097" height="24.557" data-name="Rectangle 203"/>
<rect class="cls-5" transform="matrix(.59 -.807 .807 .59 43.352 56.734)" width="1.097" height="24.557" data-name="Rectangle 204"/>
<rect class="cls-5" transform="matrix(.59 -.807 .807 .59 51.144 46.079)" width="1.097" height="24.557" data-name="Rectangle 205"/>
<rect class="cls-5" transform="matrix(.59 -.807 .807 .59 49.839 47.859)" width="1.097" height="24.557" data-name="Rectangle 206"/>
<rect class="cls-5" transform="matrix(.59 -.807 .807 .59 28.679 12.851)" width="1.097" height="24.557" data-name="Rectangle 207"/>
<rect class="cls-5" transform="matrix(.59 -.807 .807 .59 27.374 14.632)" width="1.097" height="24.557" data-name="Rectangle 208"/>
<rect class="cls-5" transform="matrix(.59 -.807 .807 .59 26.076 16.403)" width="1.097" height="24.557" data-name="Rectangle 209"/>
<rect class="cls-5" transform="translate(33.323 43.943) rotate(-53.83)" width="1.097" height="2.462" data-name="Rectangle 210"/>
<rect class="cls-5" transform="matrix(.59 -.807 .807 .59 20.672 23.794)" width="1.097" height="24.557" data-name="Rectangle 211"/>
<rect class="cls-5" transform="translate(19.38 25.576) rotate(-53.83)" width="1.097" height="24.557" data-name="Rectangle 212"/>
<g transform="translate(25.267 5.428)" data-name="Group 83">
<path class="cls-12" transform="translate(-502.7 -145.6)" d="m506.28 152.38-3.581 0.128 5.051-6.906 4.538 3.313-5.051 6.918z" data-name="Path 84"/>
</g>
</g>
<g transform="translate(60.167 131.04)" data-name="Group 95">
<g transform="translate(0)" data-name="Group 94">
<path class="cls-15" transform="translate(-378.22 -404.2)" d="M437.473,413.55s-.653,3.908-5.46.887-3.6-.817-3.6-.817l.595-4.025,4.4-1.295Z" data-name="Path 85"/>
<path class="cls-7" transform="translate(-151.39 -379.03)" d="M187.307,401.662s4.585-10.383,5.448-14.711a3.579,3.579,0,0,1,4.748-3.056l8.609-4.083,1.622-.012c3.3,7.536,6.93,7.711,6.545,7.956-4.748,3.01-7.571-1.645-7.571-1.645a8.416,8.416,0,0,0-4.911,4.176s-.607,2.473,2.368,3.581,4.911-4.176,7.431-4.561a11.11,11.11,0,0,1,2.695-.292l-2.3,5.331-4.806,5.53c-1.878.828-10.2,6.836-10.2,6.836l-1.785,2.357-12.716,21.675L171.5,422.206Z" data-name="Path 86"/>
<g transform="translate(0 21.955)" data-name="Group 85">
<rect class="cls-16" transform="translate(30.264 2.077) rotate(-55.495)" width="2.52" height="17.032" data-name="Rectangle 214"/>
<rect class="cls-12" transform="translate(0 43.761) rotate(-55.495)" width="51.494" height="19.68" data-name="Rectangle 215"/>
</g>
<g transform="translate(30.075)" data-name="Group 89">
<g transform="translate(2.304 .481)" data-name="Group 88">
<path class="cls-7" transform="translate(-507.08 -455.03)" d="M537.5,465.3c.023.012.047.012.058.023-.012-.012-.035-.012-.058-.023Z" data-name="Path 87"/>
<path class="cls-7" transform="translate(-509.11 -447.53)" d="M539.8,456.8h0a.5.5,0,0,1,.058.012.127.127,0,0,1-.058-.012Z" data-name="Path 88"/>
<path class="cls-7" transform="translate(-505.04 -462.54)" d="m535.2 473.8" data-name="Path 89"/>
<path class="cls-7" transform="translate(-511.23 -440.02)" d="m542.2 448.3" data-name="Path 90"/>
<path class="cls-7" transform="translate(-505.04 -462.54)" d="m535.2 473.8" data-name="Path 91"/>
<path class="cls-7" transform="translate(-505.04 -462.54)" d="m535.2 473.8" data-name="Path 92"/>
<path class="cls-7" transform="translate(-507.08 -455.03)" d="m537.5 465.3" data-name="Path 93"/>
<path class="cls-10" transform="translate(-507.08 -455.03)" d="m537.5 465.3" data-name="Path 94"/>
<path class="cls-10" transform="translate(-509.11 -447.53)" d="m539.8 456.8" data-name="Path 95"/>
<path class="cls-16" transform="translate(-511.23 -440.02)" d="m542.2 448.3" data-name="Path 96"/>
<path class="cls-16" transform="translate(-511.23 -440.07)" d="m542.2 448.36" data-name="Path 97"/>
<path class="cls-16" transform="translate(-509.11 -447.53)" d="m539.8 456.8" data-name="Path 98"/>
<path class="cls-7" transform="translate(-505.04 -455.03)" d="m535.2 466.29 0.268-0.992z" data-name="Path 99"/>
<path class="cls-10" transform="translate(-507.08 -447.53)" d="m537.5 457.79 0.268-0.992z" data-name="Path 100"/>
<g data-name="Group 86">
<path class="cls-9" transform="translate(-276.7 -392.32)" d="m307.12 402.58-0.268 0.992-30.157-8.283 0.268-0.992z" data-name="Path 101"/>
<path class="cls-10" transform="translate(-278.73 -384.81)" d="M309.425,394.083l-.268.992h0L279,386.792l.28-.992Z" data-name="Path 102"/>
<path class="cls-16" transform="translate(-280.85 -377.3)" d="m311.82 385.58-0.28 0.992-30.145-8.283 0.268-0.992z" data-name="Path 103"/>
<path class="cls-17" transform="translate(-505.13 -455.03)" d="M535.557,465.3a.5.5,0,0,1,.058.012c.443.128.747.443.677.723a.443.443,0,0,1-.152.21l-.84.047h0Z" data-name="Path 104"/>
<path class="cls-10" transform="translate(-507.08 -447.53)" d="M537.768,456.8a.508.508,0,0,1,.058.012c.443.128.747.443.677.712s-.5.4-.945.268a.089.089,0,0,1-.058-.023Z" data-name="Path 105"/>
<path class="cls-16" transform="translate(-509.2 -440.11)" d="M540.168,448.4h0l.7.478a.4.4,0,0,1,.035.257c-.07.268-.5.4-.945.268-.023-.012-.047-.012-.058-.023Z" data-name="Path 106"/>
</g>
<path class="cls-16" transform="translate(-509.11 -440.02)" d="M539.8,449.292l.268-.992h0l-.268.992Z" data-name="Path 107"/>
<g transform="translate(30.483 8.773)" data-name="Group 87">
<path class="cls-7" transform="translate(-538 -452.5)" d="M538.525,454.938a.314.314,0,0,0,.152-.21c.07-.268-.222-.6-.677-.723.443.128.863,0,.945-.268s-.222-.595-.677-.712c.443.128.863,0,.945-.268a.336.336,0,0,0-.035-.257l1.808,1.225-.3,1.085Z" data-name="Path 108"/>
<path class="cls-12" transform="translate(-558.49 -461.69)" d="M561.2,464l.292-1.1,1.458.992Z" data-name="Path 109"/>
</g>
</g>
<rect class="cls-18" transform="translate(1.718 3.292) rotate(-74.632)" width="3.08" height="1.248" data-name="Rectangle 216"/>
<path class="cls-7" transform="translate(-256.95 -373.18)" d="M259.255,376.634l-1.423-.385c-.537-.152-.933-.408-.875-.595l.642-2.322c.047-.175.525-.21,1.062-.058l1.423.385Z" data-name="Path 110"/>
</g>
<g transform="translate(54.905 6.442)" data-name="Group 90">
<path class="cls-7" transform="translate(-501.07 -455.18)" d="m506.36 459.02a11.11 11.11 0 0 1 2.695-0.292l-0.712 1.657-3.138-0.863a2.863 2.863 0 0 1 1.155-0.502z" data-name="Path 111"/>
<path class="cls-7" transform="translate(-469.8 -428.4)" d="M469.8,428.4l7.956,2.182c.058.035.07.07.023.093-4.748,3.01-7.583-1.645-7.595-1.633C470.1,428.9,469.847,428.482,469.8,428.4Z" data-name="Path 112"/>
</g>
<g transform="translate(55.158 6.042)" data-name="Group 91">
<path class="cls-7" transform="translate(-471.97 -424.97)" d="M472.952,425.184a.473.473,0,0,1,.058.105.088.088,0,0,1,.023.047c.047.082-.07-.07,0,0a.437.437,0,0,1-.618.618l-.058-.058c.093.082.012.012,0,0a1.279,1.279,0,0,0-.175-.093.424.424,0,0,1-.152-.595.434.434,0,0,1,.257-.2.487.487,0,0,1,.338.047,1.688,1.688,0,0,1,.408.28l-.618.618a2.012,2.012,0,0,1-.222-.327.436.436,0,0,1,.152-.595.442.442,0,0,1,.607.152Z" data-name="Path 113"/>
</g>
<g transform="translate(55.201 5.975)" data-name="Group 92">
<path class="cls-7" transform="translate(-472.33 -424.39)" d="M472.757,424.428c.3.128.572.28.863.432-.222.128-.432.245-.653.373V425.1a.44.44,0,0,1,.653-.373,5.005,5.005,0,0,1,.583.432c-.2.047-.4.1-.595.152a.292.292,0,0,1,.047-.082.434.434,0,0,1,.595-.152,2.771,2.771,0,0,0,.6.28c-.14.245-.28.478-.42.723-.047-.07-.1-.128-.152-.2a.433.433,0,0,1,.525-.677,6.345,6.345,0,0,0,.98.478c-.14.245-.28.478-.42.723a.942.942,0,0,0-.3-.3c-.385-.315.117-.933.525-.677a3.113,3.113,0,0,0,.828.373c-.14.245-.28.478-.42.723a2.1,2.1,0,0,1-.233-.222.435.435,0,0,1,.42-.723,5.811,5.811,0,0,1,1.318.583c.467.3.035,1.05-.443.747a5.571,5.571,0,0,0-1.108-.5c.14-.245.28-.478.42-.723a2.091,2.091,0,0,1,.233.222.435.435,0,0,1-.42.723,4.318,4.318,0,0,1-1.038-.455c.175-.222.35-.455.525-.677a.942.942,0,0,1,.3.3c.245.3.035.875-.42.723a7.883,7.883,0,0,1-1.19-.56c.175-.222.35-.455.525-.677.047.07.105.128.152.2.245.315.035.863-.42.723a3.511,3.511,0,0,1-.793-.373c.2-.047.4-.1.6-.152a.189.189,0,0,1-.047.082.434.434,0,0,1-.6.152,5.012,5.012,0,0,0-.583-.432c.222-.128.432-.245.653-.373v.128a.438.438,0,0,1-.653.373c-.222-.117-.292-.292-.513-.408-.513-.222-.432-.992.082-.782Z" data-name="Path 114"/>
</g>
<g transform="translate(58.943 7.523)" data-name="Group 93">
<path class="cls-7" transform="translate(-504.41 -437.66)" d="M504.621,437.784c.537-.3,1.12.023,1.587.327.4.257.152.968-.338.793a1.206,1.206,0,0,1-.455-.268.434.434,0,0,1,.3-.735,2.417,2.417,0,0,1,.8.21c-.14.245-.28.478-.42.723-.047-.035-.082-.07-.128-.1a.431.431,0,0,1,.3-.735,1.637,1.637,0,0,1,.467.082c-.117.268-.222.525-.338.793l-.175-.1a.436.436,0,0,1,.338-.793,2.111,2.111,0,0,1,.735.385.436.436,0,0,1-.222.8H507V438.3c.14.012.28.035.42.058a.437.437,0,0,1,.1.793c-.012.012-.023.012-.047.023-.035-.268-.07-.525-.105-.793.105.023.163.152.28.175.548.152.268.758-.28.653-.14-.023-.152.023-.292-.035-.513-.222-.07-.968.443-.747.058.012.07.117.128.14-.082.28-.1.467-.175.747-.1-.023-.222-.058-.327-.082a.438.438,0,0,1-.1-.793c.012-.012.023-.012.047-.023.035.268.07.525.1.793a1.022,1.022,0,0,0-.187-.023.432.432,0,0,1,0-.863h.082c-.07.268-.14.537-.222.8a1.321,1.321,0,0,0-.525-.3c.117-.268.222-.525.338-.793a.7.7,0,0,0,.175.1c.42.245.14.957-.338.793-.082-.012-.152-.035-.233-.047.1-.245.21-.49.3-.735.047.035.082.07.128.1a.436.436,0,0,1-.42.723,1.471,1.471,0,0,0-.583-.175c.1-.245.21-.49.3-.735l.07.035c-.117.268-.222.525-.338.793-.128-.093-.548-.42-.712-.327a.445.445,0,0,1-.42-.782Z" data-name="Path 115"/>
</g>
</g>
</g>
</g>
</g>
</svg>
