<svg xmlns="http://www.w3.org/2000/svg" width="16" height="12" viewBox="0 0 16 12">
  <g id="Group_984" data-name="Group 984" transform="translate(-42 -336)">
    <path id="Rectangle_1037" data-name="Rectangle 1037" d="M1,0H4A1,1,0,0,1,5,1v9a0,0,0,0,1,0,0H0a0,0,0,0,1,0,0V1A1,1,0,0,1,1,0Z" transform="translate(42 338)" fill="#051d3f"/>
    <path id="Rectangle_1039" data-name="Rectangle 1039" d="M1,0H4A1,1,0,0,1,5,1v9a0,0,0,0,1,0,0H0a0,0,0,0,1,0,0V1A1,1,0,0,1,1,0Z" transform="translate(53 338)" fill="#051d3f"/>
    <path id="Rectangle_1038" data-name="Rectangle 1038" d="M1,0H3A1,1,0,0,1,4,1V12a0,0,0,0,1,0,0H0a0,0,0,0,1,0,0V1A1,1,0,0,1,1,0Z" transform="translate(48 336)" fill="#051d3f"/>
  </g>
</svg>
