<svg xmlns="http://www.w3.org/2000/svg" viewBox="0 0 377.74 319.06"><defs><style>.cls-1{fill:#ecf4fa;}.cls-2{fill:#6697d3;}.cls-3{fill:#78acea;}.cls-4{fill:#c5ddff;}.cls-5{fill:#4067b6;}.cls-6{fill:#5b86c4;}.cls-7{fill:#dcecff;}.cls-8{opacity:0.5;}.cls-9{fill:#507db2;}.cls-10{fill:#73cfae;}.cls-11{fill:none;stroke:#8c4510;stroke-linecap:round;stroke-miterlimit:10;stroke-width:2px;}.cls-12{fill:#6bc7ac;}.cls-13{fill:#1e3865;}.cls-14{fill:#f9924f;}.cls-15{fill:#dceaff;}.cls-16{fill:#2a3967;}.cls-17{fill:#ffae73;}.cls-18{fill:#1f2d4e;}.cls-19{fill:#25468f;}.cls-20{fill:#fff;}.cls-21{fill:#4e88ff;}.cls-22{fill:#3977e5;}.cls-23{fill:#b2b3b7;}.cls-24{fill:#d2e8ff;}.cls-25{fill:#f6fbff;opacity:0.95;}</style></defs><g id="Layer_2" data-name="Layer 2"><g id="Layer_2-2" data-name="Layer 2"><path class="cls-1" d="M118.56,0H350.65a0,0,0,0,1,0,0V317.11a0,0,0,0,1,0,0H33.54a0,0,0,0,1,0,0V85A85,85,0,0,1,118.56,0Z"/><rect class="cls-2" x="324.61" y="215.8" width="26.03" height="80.91"/><rect class="cls-3" x="127.36" y="190.24" width="197.25" height="106.48"/><path class="cls-3" d="M129.36,190.24H325.63a2.2,2.2,0,0,0,.69-4.29l-99.59-32.87-98.19,32A2.66,2.66,0,0,0,129.36,190.24Z"/><path class="cls-4" d="M327.24,186.51l-11.39-4h0l-88.49-31.22H226L135,183h0l-7.32,2.54-8.36,2.91.64,3.75H332l.64-3.74ZM226.67,155.12l94.08,33.19H131.36Z"/><rect class="cls-5" x="119.97" y="234.33" width="212.52" height="9.87"/><path class="cls-4" d="M131.4,248v-3a.81.81,0,0,0-.81-.81h-6.45a.82.82,0,0,0-.82.81v3a.82.82,0,0,0,.82.82h0a.81.81,0,0,1,.81.81v41.6a.82.82,0,0,1-.81.82h0a.82.82,0,0,0-.82.81v3a.82.82,0,0,0,.82.82h6.45a.82.82,0,0,0,.81-.82v-3a.81.81,0,0,0-.81-.81h0a.82.82,0,0,1-.82-.82v-41.6a.81.81,0,0,1,.82-.81h0A.82.82,0,0,0,131.4,248Z"/><path class="cls-4" d="M164.07,248.85h0a.81.81,0,0,1,.81.81v41.6a.82.82,0,0,1-.81.82h0a.82.82,0,0,0-.82.81v3a.82.82,0,0,0,.82.82h6.45a.82.82,0,0,0,.81-.82v-3a.81.81,0,0,0-.81-.81h0a.82.82,0,0,1-.82-.82v-41.6a.82.82,0,0,1,.82-.81h0a.82.82,0,0,0,.81-.82v-3a.81.81,0,0,0-.81-.81h-6.45a.82.82,0,0,0-.82.81v3A.82.82,0,0,0,164.07,248.85Z"/><path class="cls-4" d="M279.15,248.85h0a.81.81,0,0,1,.81.81v41.6a.82.82,0,0,1-.81.82h0a.82.82,0,0,0-.82.81v3a.82.82,0,0,0,.82.82h6.45a.82.82,0,0,0,.81-.82v-3a.81.81,0,0,0-.81-.81h0a.82.82,0,0,1-.82-.82v-41.6a.81.81,0,0,1,.82-.81h0a.82.82,0,0,0,.81-.82v-3a.81.81,0,0,0-.81-.81h-6.45a.82.82,0,0,0-.82.81v3A.82.82,0,0,0,279.15,248.85Z"/><path class="cls-4" d="M328,248v-3a.81.81,0,0,0-.81-.81h-6.45a.82.82,0,0,0-.82.81v3a.82.82,0,0,0,.82.82h0a.82.82,0,0,1,.82.81v41.6a.82.82,0,0,1-.82.82h0a.82.82,0,0,0-.82.81v3a.82.82,0,0,0,.82.82h6.45a.82.82,0,0,0,.81-.82v-3a.81.81,0,0,0-.81-.81h0a.82.82,0,0,1-.82-.82v-41.6a.82.82,0,0,1,.82-.81h0A.82.82,0,0,0,328,248Z"/><path class="cls-6" d="M304.08,203.09h0a6,6,0,0,1,6,6v14.36a0,0,0,0,1,0,0H297.85a0,0,0,0,1,0,0V209.33A6.24,6.24,0,0,1,304.08,203.09Z"/><path class="cls-7" d="M304.54,202.74h-.93a6.12,6.12,0,0,0-6.12,6.11v15h13V208.67A6,6,0,0,0,304.54,202.74Zm-6.33,7h5.19v13.37h-5.19Zm6.1,13.37V209.76h5.45v13.37Zm5.45-14.27H298.21a5.4,5.4,0,0,1,5.4-5.4h.93a5.22,5.22,0,0,1,5.22,5.22Z"/><g class="cls-8"><path class="cls-9" d="M342.27,223.57h0a4.34,4.34,0,0,1,4.34,4.34v10.33a0,0,0,0,1,0,0h-8.82a0,0,0,0,1,0,0V228.05A4.48,4.48,0,0,1,342.27,223.57Z"/><path class="cls-4" d="M342.6,223.31h-.67a4.4,4.4,0,0,0-4.4,4.4v10.78h9.33V227.58A4.27,4.27,0,0,0,342.6,223.31ZM338,228.36h3.73V238H338Zm4.4,9.62v-9.62h3.91V238Zm3.91-10.27H338a3.89,3.89,0,0,1,3.89-3.89h.67a3.76,3.76,0,0,1,3.75,3.76Z"/></g><g class="cls-8"><path class="cls-9" d="M342.27,253.15h0a4.34,4.34,0,0,1,4.34,4.34v10.33a0,0,0,0,1,0,0h-8.82a0,0,0,0,1,0,0V257.63a4.48,4.48,0,0,1,4.48-4.48Z"/><path class="cls-4" d="M342.6,252.89h-.67a4.41,4.41,0,0,0-4.4,4.4v10.78h9.33V257.16A4.27,4.27,0,0,0,342.6,252.89ZM338,257.94h3.73v9.62H338Zm4.4,9.62v-9.62h3.91v9.62Zm3.91-10.27H338a3.89,3.89,0,0,1,3.89-3.88h.67a3.75,3.75,0,0,1,3.75,3.75Z"/></g><path class="cls-6" d="M264,203.09h0a6,6,0,0,1,6,6v14.36a0,0,0,0,1,0,0H257.8a0,0,0,0,1,0,0V209.33A6.24,6.24,0,0,1,264,203.09Z"/><path class="cls-7" d="M264.5,202.74h-.94a6.12,6.12,0,0,0-6.12,6.11v15h13V208.67A5.94,5.94,0,0,0,264.5,202.74Zm-6.34,7h5.19v13.37h-5.19Zm6.11,13.37V209.76h5.44v13.37Zm5.44-14.27H258.16a5.4,5.4,0,0,1,5.4-5.4h.94a5.22,5.22,0,0,1,5.21,5.22Z"/><path class="cls-6" d="M264.38,255.77h0a6,6,0,0,1,6,6v14.36a0,0,0,0,1,0,0H258.15a0,0,0,0,1,0,0V262A6.24,6.24,0,0,1,264.38,255.77Z"/><path class="cls-7" d="M264.84,255.41h-.93a6.12,6.12,0,0,0-6.12,6.12v15h13V261.34A6,6,0,0,0,264.84,255.41Zm-6.33,7h5.19v13.38h-5.19Zm6.11,13.38V262.43h5.44v13.38Zm5.44-14.28H258.51a5.41,5.41,0,0,1,5.4-5.41h.93a5.22,5.22,0,0,1,5.22,5.22Z"/><path class="cls-6" d="M303.5,255.77h0a6,6,0,0,1,6,6v14.36a0,0,0,0,1,0,0H297.26a0,0,0,0,1,0,0V262A6.24,6.24,0,0,1,303.5,255.77Z"/><path class="cls-7" d="M304,255.41H303a6.13,6.13,0,0,0-6.12,6.12v15h13V261.34A5.94,5.94,0,0,0,304,255.41Zm-6.34,7h5.19v13.38h-5.19Zm6.11,13.38V262.43h5.44v13.38Zm5.44-14.28H297.62a5.41,5.41,0,0,1,5.4-5.41H304a5.22,5.22,0,0,1,5.21,5.22Z"/><path class="cls-6" d="M184.27,255.77h0a6,6,0,0,1,6,6v14.36a0,0,0,0,1,0,0H178a0,0,0,0,1,0,0V262a6.24,6.24,0,0,1,6.24-6.24Z"/><path class="cls-7" d="M184.73,255.41h-.93a6.12,6.12,0,0,0-6.12,6.12v15h13V261.34A5.94,5.94,0,0,0,184.73,255.41Zm-6.34,7h5.19v13.38h-5.19Zm6.11,13.38V262.43H190v13.38ZM190,261.53H178.39a5.42,5.42,0,0,1,5.41-5.41h.93a5.22,5.22,0,0,1,5.22,5.22Z"/><path class="cls-6" d="M143.89,255.77h0a6,6,0,0,1,6,6v14.36a0,0,0,0,1,0,0H137.66a0,0,0,0,1,0,0V262a6.24,6.24,0,0,1,6.24-6.24Z"/><path class="cls-7" d="M144.35,255.41h-.94a6.12,6.12,0,0,0-6.11,6.12v15h13V261.34A5.94,5.94,0,0,0,144.35,255.41Zm-6.34,7h5.19v13.38H138Zm6.11,13.38V262.43h5.45v13.38Zm5.45-14.28H138a5.42,5.42,0,0,1,5.4-5.41h.94a5.22,5.22,0,0,1,5.22,5.22Z"/><path class="cls-6" d="M224.32,203.09h0a6,6,0,0,1,6,6v14.36a0,0,0,0,1,0,0H218.08a0,0,0,0,1,0,0V209.33A6.24,6.24,0,0,1,224.32,203.09Z"/><path class="cls-7" d="M224.78,202.74h-.94a6.12,6.12,0,0,0-6.11,6.11v15h13V208.67A5.94,5.94,0,0,0,224.78,202.74Zm-6.34,7h5.19v13.37h-5.19Zm6.11,13.37V209.76H230v13.37ZM230,208.86H218.44a5.4,5.4,0,0,1,5.4-5.4h.94a5.22,5.22,0,0,1,5.21,5.22Z"/><path class="cls-6" d="M183.94,203.09h0a6,6,0,0,1,6,6v14.36a0,0,0,0,1,0,0H177.7a0,0,0,0,1,0,0V209.33a6.24,6.24,0,0,1,6.24-6.24Z"/><path class="cls-7" d="M184.4,202.74h-.94a6.12,6.12,0,0,0-6.11,6.11v15h13V208.67A5.94,5.94,0,0,0,184.4,202.74Zm-6.34,7h5.19v13.37h-5.19Zm6.11,13.37V209.76h5.45v13.37Zm5.45-14.27H178.06a5.41,5.41,0,0,1,5.4-5.4h.94a5.22,5.22,0,0,1,5.22,5.22Z"/><path class="cls-6" d="M143.89,203.09h0a6,6,0,0,1,6,6v14.36a0,0,0,0,1,0,0H137.66a0,0,0,0,1,0,0V209.33A6.24,6.24,0,0,1,143.89,203.09Z"/><path class="cls-7" d="M144.35,202.74h-.93a6.12,6.12,0,0,0-6.12,6.11v15h13V208.67A5.94,5.94,0,0,0,144.35,202.74Zm-6.34,7h5.2v13.37H138Zm6.11,13.37V209.76h5.45v13.37Zm5.45-14.27H138a5.41,5.41,0,0,1,5.41-5.4h.93a5.22,5.22,0,0,1,5.22,5.22Z"/><rect class="cls-7" x="208.37" y="262.17" width="31.69" height="29.33"/><rect class="cls-4" x="209.82" y="273.55" width="12.96" height="8"/><rect class="cls-4" x="225.87" y="273.55" width="12.96" height="8"/><path class="cls-6" d="M227.42,276.29a.49.49,0,1,0,0,.7A.5.5,0,0,0,227.42,276.29Z"/><path class="cls-6" d="M220.86,276.64a.5.5,0,1,1,1,0,.5.5,0,0,1-1,0Z"/><path class="cls-6" d="M240.58,260.85H207.85c2-6.28,8.59-10.89,16.37-10.89S238.55,254.57,240.58,260.85Z"/><path class="cls-7" d="M240.93,260.74c-2.11-6.57-9-11.15-16.71-11.15s-14.6,4.58-16.72,11.15l-.15.48h33.74Zm-25.86-8c.21-.13.44-.25.66-.37a18.53,18.53,0,0,1,16.48-.25l.68.35a15.13,15.13,0,0,1,7.17,8H208.38A15,15,0,0,1,215.07,252.76Z"/><polygon class="cls-7" points="224.31 260.86 214.82 252.54 215.32 252.03 224.28 259.87 232.58 251.78 233.12 252.26 224.31 260.86"/><polygon class="cls-7" points="240.75 261.21 240.75 260.86 225.57 260.86 223.03 260.86 207.85 260.86 207.85 261.21 207.35 261.21 207.35 292.1 208.38 292.1 208.38 262.17 223.03 262.17 224.13 262.17 224.13 292.44 224.47 292.44 224.47 262.17 225.57 262.17 240.06 262.17 240.06 292.1 241.08 292.1 241.08 261.21 240.75 261.21"/><rect class="cls-4" x="209.82" y="263.82" width="12.96" height="8"/><rect class="cls-4" x="209.82" y="283.21" width="12.96" height="8"/><rect class="cls-4" x="225.87" y="263.82" width="12.96" height="8"/><rect class="cls-4" x="225.87" y="283.21" width="12.96" height="8"/><rect class="cls-4" x="198" y="291.5" width="55.5" height="1.77"/><rect class="cls-4" x="186.47" y="293.17" width="78.56" height="1.77"/><rect class="cls-4" x="177.98" y="294.94" width="95.54" height="1.77"/><rect class="cls-5" x="324.61" y="202.74" width="26.03" height="13.07"/><path class="cls-4" d="M203,180l.83-1a3.64,3.64,0,0,0,2.47,1c.85,0,1.38-.39,1.38-1s-.31-.86-1.76-1.21c-1.67-.39-2.6-.88-2.6-2.34a2.39,2.39,0,0,1,2.67-2.27,4.36,4.36,0,0,1,2.83,1l-.74,1a3.55,3.55,0,0,0-2.12-.8c-.8,0-1.27.41-1.27.95s.36.87,1.85,1.22c1.66.41,2.52,1,2.52,2.32s-1.15,2.33-2.8,2.33A4.81,4.81,0,0,1,203,180Z"/><path class="cls-4" d="M210.28,177.24a4,4,0,0,1,4-4,4.09,4.09,0,0,1,3.06,1.21l-.88,1a3.13,3.13,0,0,0-2.19-1,2.79,2.79,0,0,0,0,5.56,3,3,0,0,0,2.24-1l.89.9a4,4,0,0,1-3.18,1.38A3.93,3.93,0,0,1,210.28,177.24Z"/><path class="cls-4" d="M218.87,173.33h1.37v3.25H224v-3.25h1.37v7.82H224v-3.3h-3.73v3.3h-1.37Z"/><path class="cls-4" d="M227,177.24a4.09,4.09,0,1,1,4.07,4A4,4,0,0,1,227,177.24Zm6.73,0a2.67,2.67,0,0,0-2.66-2.78,2.64,2.64,0,0,0-2.63,2.78,2.67,2.67,0,0,0,2.66,2.78A2.64,2.64,0,0,0,233.74,177.24Z"/><path class="cls-4" d="M236.5,177.24a4.09,4.09,0,1,1,4.07,4A4,4,0,0,1,236.5,177.24Zm6.73,0a2.67,2.67,0,0,0-2.66-2.78,2.64,2.64,0,0,0-2.63,2.78A2.67,2.67,0,0,0,240.6,180,2.64,2.64,0,0,0,243.23,177.24Z"/><path class="cls-4" d="M246.34,173.33h1.37v6.57h4.11v1.25h-5.48Z"/><path class="cls-10" d="M79.63,266.11c-3.76-.75-7.65-1.56-10.79-3.77s-5.35-6.21-4.28-9.9c1.36-4.68,7.17-7,8.58-11.62,1.2-4-1.21-8-3.45-11.53-2.51-3.91-5-8-5.77-12.58s.55-9.82,4.38-12.45c3-2,6.8-2.19,10.34-2.94s7.37-2.67,8.14-6.2c.53-2.47-.61-5-.58-7.51,0-4,2.94-7.29,5.71-10.15,1.53-1.57,3.3-3.24,5.49-3.32,2.81-.11,5,2.38,6.46,4.77a19.11,19.11,0,0,1,2.82,6.76c.8,4.85-1.39,9.6-2.71,14.33s-1.47,10.57,2.29,13.72c1.16,1,2.58,1.58,3.81,2.46a11.56,11.56,0,0,1,4.54,8.47,15.46,15.46,0,0,1-2.57,9.41c-2.25,3.49-5.85,6.82-5.27,10.94.56,3.91,4.72,6.35,6,10.1,1.08,3.27-.37,7-2.94,9.31a16.52,16.52,0,0,1-9.46,3.67,28.25,28.25,0,0,1-10-.81,10.54,10.54,0,0,0-2.77-.54c-2.27,0-4.8,1.63-6.61.25"/><line class="cls-11" x1="89.18" y1="216.45" x2="89.18" y2="296.72"/><line class="cls-11" x1="89.18" y1="235.6" x2="95.52" y2="226.07"/><line class="cls-11" x1="89.18" y1="251.09" x2="81.9" y2="239.27"/><path class="cls-10" d="M31,227.64a5.58,5.58,0,0,0-2.44,4.93c.13,2.06,1.41,4,1.16,6.05-.2,1.67-1.39,3-2.42,4.37a34.1,34.1,0,0,0-3.78,6.08,12.67,12.67,0,0,0-1.45,4.84,5.68,5.68,0,0,0,1.75,4.59,13.7,13.7,0,0,1,1.32,1.07,4.44,4.44,0,0,1,.57,4.1,18.07,18.07,0,0,0-1,4.17,5.32,5.32,0,0,0,6.44,5c2.46-.69,4.13-3.14,6.61-3.77,1.56-.4,3.2,0,4.81,0s3.46-.51,4.1-2c.72-1.65-.43-3.48-1.59-4.86-1.73-2.06-3.71-4.21-3.91-6.89-.17-2.11.82-4.11,1.59-6.08s1.35-4.24.42-6.14a11.66,11.66,0,0,0-1.47-2,18.08,18.08,0,0,1-3.86-9.18,10.25,10.25,0,0,0-.72-3.54,4.16,4.16,0,0,0-6-1.3"/><line class="cls-11" x1="34.49" y1="243.48" x2="34.49" y2="297.22"/><line class="cls-11" x1="34.78" y1="255.77" x2="38.5" y2="248.54"/><line class="cls-11" x1="34.49" y1="268.21" x2="29.65" y2="261.53"/><rect class="cls-12" x="33.54" y="296.72" width="317.11" height="19.05"/><path class="cls-13" d="M93.22,242.31s-4.52-1.6-8.12.08-6.84,16.6,4.21,18.49h0S99.68,270.9,93.22,242.31Z"/><path class="cls-14" d="M94.43,293.56a19.43,19.43,0,0,0,.19,4c.81,6.5,3.46,16.89,3.46,16.89l3.32.4c-.24-1.83.45-8.87,1.37-16.66,1.39-11.76,3.29-25.26,3.29-25.26s-7.23-6-11.49-4.32S94.93,289,94.43,293.56Z"/><path class="cls-15" d="M94.62,297.52c.81,6.5,3.46,16.89,3.46,16.89l3.32.4c-.24-1.83.45-8.87,1.37-16.66a14.66,14.66,0,0,1-7.07-.39A3.27,3.27,0,0,0,94.62,297.52Z"/><path class="cls-16" d="M97.66,224.61a4.84,4.84,0,0,1,3.72,0c2,.84,3.39,4.42,2.51,7.76s2.09,3.4.72,6.08c-.49,1-7,1.76-7.17-1.95-.13-2.29,1.94-2.4,1.34-4.89S97.66,224.61,97.66,224.61Z"/><path class="cls-17" d="M88.39,292.85a24,24,0,0,0,0,5.21c.56,6.63,2.37,16.1,2.37,16.1l3.28.76c-.13-1.81,1-8.64,2.3-16.27,2.1-11.87,4.88-25.71,4.88-25.71s-6.84-6.41-11.2-5S89.17,288.33,88.39,292.85Z"/><path class="cls-18" d="M101.36,314.16a3.86,3.86,0,0,0,2.3,1.78,3.74,3.74,0,0,1,2.25,1.41.88.88,0,0,1-.71,1.4l-7.64,0a1.11,1.11,0,0,1-1.09-1.22c.06-.56.12-1.22.15-1.73a3.67,3.67,0,0,1,1.26-2.09,7.9,7.9,0,0,0,1.45.67A5.31,5.31,0,0,0,101.36,314.16Z"/><path class="cls-19" d="M89.58,262.41a58.74,58.74,0,0,0-5.92,21.45s13.34,5.28,25.16.81l-2-21.8A26.67,26.67,0,0,1,89.58,262.41Z"/><path class="cls-17" d="M102.82,240.57s5,8.41,6,15.27c0,0-2.43,3.28-3.42,1S97.33,242.21,102.82,240.57Z"/><path class="cls-16" d="M101.87,225.63a10.27,10.27,0,0,0-6.46-4.33,6.18,6.18,0,0,0-7.07,5.21c-.52,3.41,0,7.82,5.57,9.41Z"/><path class="cls-17" d="M100.85,240.81l-6.29,3.74L93,240.12a13.88,13.88,0,0,0,.94-4.2,17,17,0,0,0-.1-3.72l5.47,2.38a8.73,8.73,0,0,0-.13,1.22,8.44,8.44,0,0,0,.27,2.83A3.91,3.91,0,0,0,100.85,240.81Z"/><path class="cls-14" d="M99.42,238.63c-3,.11-5.51-2.71-5.51-2.71l5.23-.12A8.73,8.73,0,0,0,99.42,238.63Z"/><path class="cls-17" d="M100.77,236.86s-5.91,2-8.28-2.68c-2.57-5-.35-8.92,1.67-9.31,4-.76,6.5.64,7.32,2.24S104,235.8,100.77,236.86Z"/><path class="cls-20" d="M98.22,234.32s.29.61,1.85.16c0,0,1.31-.38,1.12-1.07A4.41,4.41,0,0,0,98.22,234.32Z"/><path class="cls-14" d="M108.82,255.84a17.07,17.07,0,0,1-4.15,11.62s-1.26-1.52-1.1-2,2-7.72,3.29-8.75S108.82,255.84,108.82,255.84Z"/><path class="cls-21" d="M106.77,262.87a25.46,25.46,0,0,1-4.16,1.1,24.35,24.35,0,0,1-4.11.35,22.41,22.41,0,0,1-3.21-.23,21.54,21.54,0,0,1-4.14-1,12.53,12.53,0,0,1-1.57-.67,2.45,2.45,0,0,0,0-.39c0-.45-.13-1.19-.27-2.11,0-.06,0-.12,0-.18-.05-.31-.1-.64-.16-1-.71-4.32-2-10.85-2-10.85l-.41-3a3.54,3.54,0,0,1,1.72-3.52,2.74,2.74,0,0,1,.42-.21,10.86,10.86,0,0,1,1.52-.51c.73-.19,1.49-.33,2.51-.54l0,0a10.09,10.09,0,0,0,1.15.87,5.68,5.68,0,0,0,4.06,1c1.63-.31,1.94-1.19,1.86-2.12.41,0,.79.08,1.14.13a4.77,4.77,0,0,1,4.08,4c.25,1.55.53,4.4.81,8C106.3,255.17,106.55,258.94,106.77,262.87Z"/><path class="cls-14" d="M103.57,265.47s-2.38,1.1-1.57,2.27a1.58,1.58,0,0,0,2.67-.28C104.92,266.71,103.57,265.47,103.57,265.47Z"/><path class="cls-16" d="M96.63,225.43s.56,5.54-4.7,7.5c-2.09.78-3.18-7.68,1.19-9.37s8.68.31,9.19,3.27.13,3.57.13,3.57S100.39,224.78,96.63,225.43Z"/><path class="cls-17" d="M101.55,266.78s3,0,3.12.68a2.14,2.14,0,0,1-2.93,2.11c-2.16-.76-2.1-1.23-2.1-1.23Z"/><path class="cls-16" d="M90.11,224.66a4.33,4.33,0,0,0-3.72,0c-2,1-3.39,5-2.51,8.73s-2.09,3.83-.72,6.85c.49,1.07,7,2,7.17-2.19.13-2.58-1.94-2.71-1.34-5.51S90.11,224.66,90.11,224.66Z"/><path class="cls-20" d="M88.44,298.06c.56,6.63,2.37,16.1,2.37,16.1l3.28.76c-.13-1.81,1-8.64,2.3-16.27A21.13,21.13,0,0,1,88.44,298.06Z"/><path class="cls-16" d="M94.18,314.16a3.86,3.86,0,0,0,2.29,1.78,3.74,3.74,0,0,1,2.26,1.41.88.88,0,0,1-.72,1.4l-7.63,0a1.1,1.1,0,0,1-1.09-1.22c.06-.56.12-1.22.15-1.73a3.61,3.61,0,0,1,1.26-2.09,7.9,7.9,0,0,0,1.45.67A5.31,5.31,0,0,0,94.18,314.16Z"/><path class="cls-22" d="M96.24,262.86a11.59,11.59,0,0,1-.95,1.23,21.54,21.54,0,0,1-4.14-1c-1.73-4.22-2.63-11.1-2.63-11.1Z"/><path class="cls-21" d="M104.58,242.24s5.16,12.14,5,15.4-2.29,8-3,8.25l-.75.25s-1.86-.46-1.91-1.58c0,0,1.51-7,1.15-8S104.58,242.24,104.58,242.24Z"/><path class="cls-22" d="M106.19,255.84c-1.16-2.13-1.94-8.5-1.94-8.5l1.29,12.74S106.77,256.89,106.19,255.84Z"/><path class="cls-22" d="M101.58,262.41c-2-.45-5-7.3-5-7.3l-3.12,3.55,5.07,5.66a24.35,24.35,0,0,0,4.11-.35l1.44-.26,1.49-3.63-.29-2.83C105.74,262.22,103.27,262.79,101.58,262.41Z"/><path class="cls-20" d="M98.07,242s-3.43-1.56-4.65-3.25c0,0-1.36.78-1.48,1.68S96.25,242.86,98.07,242Z"/><path class="cls-20" d="M99.57,239.07s-.19,2.34-1.5,3c0,0,2.47-.14,3.32-2A3.15,3.15,0,0,0,99.57,239.07Z"/><path class="cls-16" d="M97.93,242a.22.22,0,0,1,.44,0,.22.22,0,0,1-.44,0Z"/><path class="cls-19" d="M95.42,252.53a12.13,12.13,0,0,1-6.13,7.2c-.05-.31-.1-.64-.16-1a11.2,11.2,0,0,0,5.39-6.53,9.12,9.12,0,0,0-.56-8,6.49,6.49,0,0,0-5.51-2.86,2.74,2.74,0,0,1,.42-.21,10.86,10.86,0,0,1,1.52-.51,7.06,7.06,0,0,1,4.37,3.07A10.09,10.09,0,0,1,95.42,252.53Z"/><path class="cls-17" d="M93.57,243.91s2.28,9.18,2.37,13c0,0,5.29,9.25,5.61,9.9s-1.91,1.56-1.91,1.56-6.64-7.08-7.92-10.06-4.6-12.11-3.91-14.37C88.8,240.65,93.57,243.91,93.57,243.91Z"/><path class="cls-21" d="M87.29,243.4c-.43,2.44,2.15,13.32,3.5,16.16s3.77,6.28,6.63,6.33c0,0,2.19-.53,2.43-2.14a34.19,34.19,0,0,0-2.37-6.11c-1.13-1.82-2.91-13.36-4-14.09S87.72,241,87.29,243.4Z"/><path class="cls-13" d="M57.41,238.49s-6.6-2.64-11.87.14-10,27.36,6.16,30.48h0S66.84,285.63,57.41,238.49Z"/><path class="cls-17" d="M75.47,277.24l-.41-1.46s-1.93-.19-2-.15l.17,4.4a3.16,3.16,0,0,0,1.36-.64l.71-1.18A2.27,2.27,0,0,0,75.47,277.24Z"/><path class="cls-20" d="M70.45,239.56s2.36-.12,3.69,3C76.88,249,75.69,263,75.52,265c0,0,1,4-.46,10.82l-1.74-.09s-2.89-25.92-2.55-28.6A38.92,38.92,0,0,0,70.45,239.56Z"/><path class="cls-13" d="M50.72,315.83l.89,3.23h7.56S61.43,314.93,50.72,315.83Z"/><path class="cls-13" d="M66.93,315.83l.9,3.23h7.56S77.64,314.93,66.93,315.83Z"/><path class="cls-17" d="M67.26,239.34,60.17,243l-.94-4.69a20.36,20.36,0,0,0,.93-4.63,25.38,25.38,0,0,0,.05-4.13l5.78,3a9.93,9.93,0,0,0-.23,1.28,10.23,10.23,0,0,0,0,2.24A4.75,4.75,0,0,0,67.26,239.34Z"/><path class="cls-13" d="M73.09,268.27l-14.34,1.14S57,294.53,66.4,316.79l8.46-.57Z"/><path class="cls-19" d="M50.83,269.65S48,284.07,50,316.39h8.87l5.54-39.28c.18-1.15,2.44-2.75,2.44-2.75l.09-4.43Z"/><path class="cls-21" d="M50.91,250.72l.82,5.85-2.27,11.7a1.75,1.75,0,0,0,1.6,2.09c4.32.29,14.76.73,21.84-1.28a2.06,2.06,0,0,0,1.5-2.14L73.15,251.3l-.44-5.5-.45-5.66a16.7,16.7,0,0,0-5.91-1.87c.06.87-.24,1.67-2,1.87a6.6,6.6,0,0,1-4.85-1.61,1.89,1.89,0,0,0-.24-.26c-1.27.13-2.75.35-4,.6-.2,0-4.71,9-4.71,9Z"/><path class="cls-19" d="M49.46,268.27s20.07-10.27,10.21-27c-.47-.8-1.26-2.27-2.26-2.73a9.83,9.83,0,0,0-1.85.32c1,.28,2.5,2.68,3.28,4.86,1.46,4.07,5.08,11.79-9.12,22Z"/><path class="cls-17" d="M56,256.06c.22,0,2.09.06,2.09.06s.93-3.5,3.5-3.5c0,0,1.2-.11.83.86a4.58,4.58,0,0,0-.8,1.68,3.42,3.42,0,0,1-2.13,2.54l-1.11.3S55.39,256.11,56,256.06Z"/><path class="cls-14" d="M65.76,236.51c-2.17.28-5.52-2.81-5.6-2.87s4,0,5.6.1A16,16,0,0,0,65.76,236.51Z"/><path class="cls-17" d="M67.48,235s-8.81,1.08-9-5.13S62,219.65,64.41,219.7c4.89.09,5.7,2.06,6.26,4.12S71.53,234.58,67.48,235Z"/><path class="cls-20" d="M65.73,231.61s.16.65,1.78.53c0,0,1.35-.1,1.3-.82A4.36,4.36,0,0,0,65.73,231.61Z"/><path class="cls-23" d="M60.39,233.65a11.78,11.78,0,0,1-.65-3.45S58,228,59,227.39s1.58.78,1.82.52.6-4.68,1.85-4.54,6.89,1.75,8.91,0-3.92-8.73-12.23-6.1S52.69,229,60.39,233.65Z"/><path class="cls-23" d="M55.25,220.9a2.91,2.91,0,0,1,0-1.93,3.1,3.1,0,0,0,.45,1.6C56.17,221.06,55.25,220.9,55.25,220.9Z"/><path class="cls-23" d="M55.42,220.11a1.64,1.64,0,0,0-1.51.68,1.34,1.34,0,0,1,1.46,0Z"/><path class="cls-20" d="M55.22,238.87s-1.69-.09-4.71,4.95c-1.62,2.69-8.5,15.48-4.95,16.87s10.67,0,12.5-1.95l-1-3s-5,.22-4.92,0a21.23,21.23,0,0,1,2.52-4.79C59.46,244.14,55.22,238.87,55.22,238.87Z"/><path class="cls-20" d="M64.32,240.14s-3.47-1.57-4.69-3.26c0,0-1.26.73-1.38,1.63S62.5,241,64.32,240.14Z"/><path class="cls-20" d="M66,237.25s-.24,2.43-1.63,2.89c0,0,2.53.18,3.38-1.64C67.7,238.5,66.83,237.22,66,237.25Z"/><path class="cls-13" d="M66.19,249.64a.44.44,0,1,1-.43-.52A.48.48,0,0,1,66.19,249.64Z"/><path class="cls-13" d="M66.19,256.64a.44.44,0,1,1-.43-.52A.48.48,0,0,1,66.19,256.64Z"/><path class="cls-13" d="M66.19,264.19a.44.44,0,1,1-.43-.52A.48.48,0,0,1,66.19,264.19Z"/><polygon class="cls-20" points="75.06 275.78 75.53 274.46 73.27 274.33 73.32 275.69 75.06 275.78"/><path class="cls-17" d="M58,255.46a10.88,10.88,0,0,0,.28-2.08c-.07-.39.69-.09.69.72a.87.87,0,0,1-.22.5l-.4,1.62Z"/><path class="cls-24" d="M58,255.46l-2,.44.36,2.44h1.5L57,259.56l.39.16,2.09-2A7.44,7.44,0,0,1,58,255.46Z"/><path class="cls-25" d="M0,129.49s6.73-16.13,22.81-14.34c0,0,23.35-26.89,48.25-3.58,0,0,26.47-5.78,46.07,5,13.07,7.18,17.39,14.72,17.39,14.72Z"/><path class="cls-25" d="M243.21,78.18S249.94,62,266,63.83c0,0,23.36-26.89,48.26-3.58,0,0,26.47-5.78,46.07,5C373.42,72.43,377.74,80,377.74,80Z"/><path class="cls-20" d="M197.05,131.34s4.93-8.62,16.71-7.67c0,0,17.12-14.38,35.36-1.91,0,0,19.4-3.09,33.76,2.67,9.58,3.84,12.74,7.87,12.74,7.87Z"/><path class="cls-20" d="M105.4,58.59a11.36,11.36,0,0,1,10.82-5s11.07-9.31,22.88-1.24c0,0,12.55-2,21.85,1.73,6.2,2.49,8.24,5.09,8.24,5.09Z"/></g></g></svg>