<svg xmlns="http://www.w3.org/2000/svg" width="16" height="16" viewBox="0 0 16 16">
  <g id="Group_1341" data-name="Group 1341" transform="translate(-30 -128)">
    <rect id="Rectangle_1712" data-name="Rectangle 1712" width="16" height="16" rx="3" transform="translate(30 128)" fill="#ccc4f1"/>
    <path id="Union_1_" data-name="Union (1)" d="M2.981.6H5.962V7.154h-.6V5.365a.894.894,0,0,0-1.788,0V7.154h-.6V.6ZM4.173,7.154h.6V5.365a.3.3,0,0,0-.6,0Zm-.6.6H0V2.385a.3.3,0,0,1,.3-.3H2.385V.6a.6.6,0,0,1,.6-.6H5.962a.6.6,0,0,1,.6.6v1.49H8.644a.3.3,0,0,1,.3.3V7.75H3.577ZM.6,2.683H2.385V7.154H.6Zm5.962,0V7.154H8.346V2.683Z" transform="translate(33.1 131.875)" fill="#3a2986" fill-rule="evenodd"/>
  </g>
</svg>
