<svg id="Stockholm_icons_Communication_Mail" data-name="Stockholm icons / Communication / Mail" xmlns="http://www.w3.org/2000/svg" width="13" height="9" viewBox="0 0 13 9">
  <path id="Shape" d="M11.556,9H1.444A1.417,1.417,0,0,1,0,7.615V1.385A1.417,1.417,0,0,1,1.444,0H11.556A1.417,1.417,0,0,1,13,1.385V7.615A1.417,1.417,0,0,1,11.556,9ZM1.806,1.211a.545.545,0,0,0-.477.273.51.51,0,0,0,.22.7L6.243,4.611a.564.564,0,0,0,.515,0l4.694-2.423a.51.51,0,0,0,.22-.7.545.545,0,0,0-.477-.273.562.562,0,0,0-.256.062L6.5,3.564,2.062,1.274A.562.562,0,0,0,1.806,1.211Z" fill="#222744"/>
</svg>
