<svg id="Stockholm_icons_General_Trash_Copy" data-name="Stockholm icons / General / Trash Copy" xmlns="http://www.w3.org/2000/svg" width="10" height="11" viewBox="0 0 10 11">
  <g id="trash" transform="translate(0.125 -0.5)">
    <path id="Shape" d="M7.544,11H2.455A1.309,1.309,0,0,1,1.207,9.7L.856,2.75H.416A.439.439,0,0,1,0,2.292a.439.439,0,0,1,.416-.458H2.591l.137-.6A1.509,1.509,0,0,1,4.161,0H5.839A1.509,1.509,0,0,1,7.272,1.231l.137.6H9.583A.44.44,0,0,1,10,2.292a.439.439,0,0,1-.417.458H9.144L8.793,9.7A1.309,1.309,0,0,1,7.544,11ZM1.691,2.75l.348,6.9a.437.437,0,0,0,.416.433H7.544a.436.436,0,0,0,.416-.433l.349-6.9H1.691ZM4.161.916a.657.657,0,0,0-.624.536l-.087.381h3.1l-.086-.381A.657.657,0,0,0,5.839.916Z" transform="translate(-0.125 0.5)" fill="#f22742"/>
    <path id="Path" d="M.391,0A.366.366,0,0,0,0,.334V3.671A.366.366,0,0,0,.391,4a.366.366,0,0,0,.391-.334V.334A.366.366,0,0,0,.391,0Z" transform="translate(2.734 5.329)" fill="#f22742"/>
    <path id="Path-2" data-name="Path" d="M.391,0A.366.366,0,0,0,0,.334V3.671A.366.366,0,0,0,.391,4a.366.366,0,0,0,.391-.334V.334A.366.366,0,0,0,.391,0Z" transform="translate(4.297 5.329)" fill="#f22742"/>
    <path id="Path-3" data-name="Path" d="M.391,0A.366.366,0,0,0,0,.334V3.671A.366.366,0,0,0,.391,4a.366.366,0,0,0,.391-.334V.334A.366.366,0,0,0,.391,0Z" transform="translate(5.859 5.329)" fill="#f22742"/>
  </g>
</svg>
