<svg id="Stockholm_icons_Map_Marker_1" data-name="Stockholm icons / Map / Marker#1" xmlns="http://www.w3.org/2000/svg" width="16" height="16" viewBox="0 0 16 16">
  <path id="Shape" d="M4.964,11.676a1,1,0,0,1-.645-.236A17.487,17.487,0,0,1,1.08,8,5.505,5.505,0,0,1,0,5,4.987,4.987,0,0,1,1.375,1.375,4.987,4.987,0,0,1,5,0a5.011,5.011,0,0,1,5,5c0,1.548-1.465,3.7-4.353,6.406A1,1,0,0,1,4.964,11.676ZM5,2.666A1.667,1.667,0,1,0,6.667,4.333,1.668,1.668,0,0,0,5,2.666Z" transform="translate(3.333 2)" fill="#222744"/>
</svg>
