<svg xmlns="http://www.w3.org/2000/svg" width="10.048" height="10.351" viewBox="0 0 10.048 10.351">
  <g id="Stockholm_icons_Communication_Call_1" data-name="Stockholm icons / Communication / Call#1" transform="translate(10.048) rotate(90)">
    <path id="Path" d="M5.088,6.6,6.551,5.142A1.327,1.327,0,0,0,6.8,3.609l-.083-.166a1.328,1.328,0,0,1,.248-1.532L8.779.1a.332.332,0,0,1,.532.086l.733,1.466A2.913,2.913,0,0,1,9.5,5.011L5.516,8.993a3.6,3.6,0,0,1-3.686.87l-1.6-.534a.331.331,0,0,1-.21-.42.327.327,0,0,1,.08-.13l1.76-1.76a1.327,1.327,0,0,1,1.532-.249l.166.083A1.328,1.328,0,0,0,5.088,6.6Z" fill="#222744"/>
  </g>
</svg>
