<svg id="Stockholm_icons_Design_Edit" data-name="Stockholm icons / Design / Edit" xmlns="http://www.w3.org/2000/svg" width="12" height="12" viewBox="0 0 12 12">
  <g id="Group_53" data-name="Group 53" transform="translate(2 1)">
    <path id="Path" d="M7,0H.5a.5.5,0,0,0,0,1H7A.5.5,0,0,0,7,0Z" transform="translate(0 8.828)" fill="#fff"/>
    <path id="Path-2" data-name="Path" d="M7.309,3.048,3.085,7.272a.749.749,0,0,1-.538.22L.786,7.475a.75.75,0,0,1-.743-.731L0,5.03A.75.75,0,0,1,.22,4.481L4.481.22a.75.75,0,0,1,1.06,0L7.309,1.987A.75.75,0,0,1,7.309,3.048Z" transform="translate(0.153)" fill="#fff"/>
  </g>
</svg>
