<svg xmlns="http://www.w3.org/2000/svg" xmlns:xlink="http://www.w3.org/1999/xlink" width="375" height="171" viewBox="0 0 375 171">
  <defs>
    <clipPath id="clip-path">
      <path id="Rectangle_811" data-name="Rectangle 811" d="M0,0H375a0,0,0,0,1,0,0V151a20,20,0,0,1-20,20H20A20,20,0,0,1,0,151V0A0,0,0,0,1,0,0Z" fill="#f4e8fa"/>
    </clipPath>
  </defs>
  <g id="Mask_Group_46" data-name="Mask Group 46" clip-path="url(#clip-path)">
    <g id="Group_131" data-name="Group 131" transform="translate(-4601 -512.3)">
      <g id="Group_120" data-name="Group 120" transform="translate(4587.141 597.743)">
        <g id="Group_855" data-name="Group 855" transform="translate(76 50.4)">
          <g id="Group_115" data-name="Group 115">
            <g id="Group_113" data-name="Group 113">
              <path id="Path_137" data-name="Path 137" d="M396.839,779.428l-46.247,13.89L316,772.768,357.274,760.5Z" transform="translate(-311.579 -742.602)" fill="#83bb91"/>
              <path id="Path_138" data-name="Path 138" d="M396.839,774.328,350.57,788.218,316,767.668,357.274,755.4Z" transform="translate(-311.579 -738.619)" fill="#dc5b3e"/>
              <path id="Path_139" data-name="Path 139" d="M453.956,828.092s-9.727,7.887-.241,17.2l-2.87-1.424s-6.769-1.928-1.073-16.365Z" transform="translate(-414.264 -794.923)" fill="#700e32"/>
              <path id="Path_140" data-name="Path 140" d="M514.776,765.757l-43,12.181-1.972,1.818,1.555-.394,45.568-13.692v-.57Z" transform="translate(-431.685 -746.194)" fill="#700e32"/>
              <path id="Path_141" data-name="Path 141" d="M396.839,697.706,350.592,711.6,316,691.068,357.274,678.8Z" transform="translate(-311.579 -678.8)" fill="#e04a5e"/>
              <path id="Path_142" data-name="Path 142" d="M515.227,842.917V841.8l-46.751,14.065-.876-.285s.92.767,1.38,1.227Z" transform="translate(-429.967 -806.09)" fill="#700e32"/>
              <path id="Path_143" data-name="Path 143" d="M334.835,755.327s-10.428,7.492,0,17.9L300.243,752.7s-9.946-7.952,0-17.9Z" transform="translate(-295.822 -722.532)" fill="#dc5b3e"/>
              <path id="Path_144" data-name="Path 144" d="M460.279,782.642s-9.88,7.843-.876,16.518l45.568-13.714s-7.733-5.827-.285-16.146Z" transform="translate(-420.609 -749.474)" fill="#f4ce8e"/>
            </g>
            <path id="Path_145" data-name="Path 145" d="M520.422,835.582,480.2,847.39l.153-.482L520.576,835.1Z" transform="translate(-439.807 -800.858)" fill="#cb9966"/>
            <path id="Path_146" data-name="Path 146" d="M513.822,827.9,473.6,839.712l.175-.482L514,827.4Z" transform="translate(-434.653 -794.845)" fill="#cb9966"/>
            <path id="Path_147" data-name="Path 147" d="M511.622,817.482,471.4,829.29l.175-.482L511.8,817Z" transform="translate(-432.935 -786.724)" fill="#cb9966"/>
            <path id="Path_148" data-name="Path 148" d="M512.744,807.982,472.5,819.79l.175-.482L512.9,807.5Z" transform="translate(-433.794 -779.305)" fill="#cb9966"/>
            <path id="Path_149" data-name="Path 149" d="M517.922,796.182,477.7,807.99l.153-.482L518.076,795.7Z" transform="translate(-437.855 -770.09)" fill="#cb9966"/>
            <path id="Path_150" data-name="Path 150" d="M521.022,784.182,480.8,795.99l.153-.482L521.176,783.7Z" transform="translate(-440.276 -760.719)" fill="#cb9966"/>
            <g id="Group_114" data-name="Group 114" transform="translate(65.499 26.727)">
              <path id="Path_151" data-name="Path 151" d="M599.444,807.307l4.031,1.358-.811-7.865-7.865,2.059,1.2,8Z" transform="translate(-594.8 -800.8)" fill="#4c7555"/>
            </g>
          </g>
          <path id="Path_152" data-name="Path 152" d="M333.284,755.583s-8.763,6.945-1.731,16.891l-2.76-1.643s-7.032-7.251,2.5-16.431Z" transform="translate(-319.618 -737.838)" fill="#f89830"/>
        </g>
        <g id="Group_854" data-name="Group 854" transform="translate(70 33.4)">
          <g id="Group_115-2" data-name="Group 115">
            <g id="Group_113-2" data-name="Group 113">
              <path id="Path_137-2" data-name="Path 137" d="M396.839,779.428l-46.247,13.89L316,772.768,357.274,760.5Z" transform="translate(-311.579 -742.602)" fill="#83bb91"/>
              <path id="Path_138-2" data-name="Path 138" d="M396.839,774.328,350.57,788.218,316,767.668,357.274,755.4Z" transform="translate(-311.579 -738.619)" fill="#dc5b3e"/>
              <path id="Path_139-2" data-name="Path 139" d="M453.956,828.092s-9.727,7.887-.241,17.2l-2.87-1.424s-6.769-1.928-1.073-16.365Z" transform="translate(-414.264 -794.923)" fill="#700e32"/>
              <path id="Path_140-2" data-name="Path 140" d="M514.776,765.757l-43,12.181-1.972,1.818,1.555-.394,45.568-13.692v-.57Z" transform="translate(-431.685 -746.194)" fill="#700e32"/>
              <path id="Path_141-2" data-name="Path 141" d="M396.839,697.706,350.592,711.6,316,691.068,357.274,678.8Z" transform="translate(-311.579 -678.8)" fill="#e04a5e"/>
              <path id="Path_142-2" data-name="Path 142" d="M515.227,842.917V841.8l-46.751,14.065-.876-.285s.92.767,1.38,1.227Z" transform="translate(-429.967 -806.09)" fill="#700e32"/>
              <path id="Path_143-2" data-name="Path 143" d="M334.835,755.327s-10.428,7.492,0,17.9L300.243,752.7s-9.946-7.952,0-17.9Z" transform="translate(-295.822 -722.532)" fill="#dc5b3e"/>
              <path id="Path_144-2" data-name="Path 144" d="M460.279,782.642s-9.88,7.843-.876,16.518l45.568-13.714s-7.733-5.827-.285-16.146Z" transform="translate(-420.609 -749.474)" fill="#f4ce8e"/>
            </g>
            <path id="Path_145-2" data-name="Path 145" d="M520.422,835.582,480.2,847.39l.153-.482L520.576,835.1Z" transform="translate(-439.807 -800.858)" fill="#cb9966"/>
            <path id="Path_146-2" data-name="Path 146" d="M513.822,827.9,473.6,839.712l.175-.482L514,827.4Z" transform="translate(-434.653 -794.845)" fill="#cb9966"/>
            <path id="Path_147-2" data-name="Path 147" d="M511.622,817.482,471.4,829.29l.175-.482L511.8,817Z" transform="translate(-432.935 -786.724)" fill="#cb9966"/>
            <path id="Path_148-2" data-name="Path 148" d="M512.744,807.982,472.5,819.79l.175-.482L512.9,807.5Z" transform="translate(-433.794 -779.305)" fill="#cb9966"/>
            <path id="Path_149-2" data-name="Path 149" d="M517.922,796.182,477.7,807.99l.153-.482L518.076,795.7Z" transform="translate(-437.855 -770.09)" fill="#cb9966"/>
            <path id="Path_150-2" data-name="Path 150" d="M521.022,784.182,480.8,795.99l.153-.482L521.176,783.7Z" transform="translate(-440.276 -760.719)" fill="#cb9966"/>
            <g id="Group_114-2" data-name="Group 114" transform="translate(65.499 26.727)">
              <path id="Path_151-2" data-name="Path 151" d="M599.444,807.307l4.031,1.358-.811-7.865-7.865,2.059,1.2,8Z" transform="translate(-594.8 -800.8)" fill="#4c7555"/>
            </g>
          </g>
          <path id="Path_152-2" data-name="Path 152" d="M333.284,755.583s-8.763,6.945-1.731,16.891l-2.76-1.643s-7.032-7.251,2.5-16.431Z" transform="translate(-319.618 -737.838)" fill="#f89830"/>
        </g>
        <g id="Group_112" data-name="Group 112" transform="translate(9.698 40.911)">
          <g id="Group_111" data-name="Group 111">
            <g id="Group_109" data-name="Group 109">
              <g id="Group_108" data-name="Group 108">
                <path id="Path_121" data-name="Path 121" d="M456.541,868.358,395.247,886.8,349.4,859.56l54.732-16.26Z" transform="translate(-343.541 -819.549)" fill="#83bb91"/>
                <path id="Path_122" data-name="Path 122" d="M456.541,863.258l-61.294,18.409L349.4,854.46l54.7-16.26Z" transform="translate(-343.541 -815.93)" fill="#83bb91"/>
                <path id="Path_123" data-name="Path 123" d="M489.459,911.084s-12.892,10.424-.319,22.793l-3.8-1.887s-8.972-2.555-1.423-21.69Z" transform="translate(-436.853 -867.095)" fill="#4c7555"/>
                <path id="Path_124" data-name="Path 124" d="M562.839,848.742l-57,16.173-2.642,2.41,2.062-.523,60.423-18.147V847.9Z" transform="translate(-452.685 -822.813)" fill="#4c7555"/>
                <path id="Path_125" data-name="Path 125" d="M456.541,786.587,395.247,805,349.4,777.789,404.132,761.5Z" transform="translate(-343.541 -761.5)" fill="#95cbad"/>
                <path id="Path_126" data-name="Path 126" d="M564.123,925.981V924.5l-61.962,18.67L501,942.792s1.219,1.016,1.829,1.626Z" transform="translate(-451.123 -877.172)" fill="#4c7555"/>
                <path id="Path_127" data-name="Path 127" d="M380.928,844.806s-13.821,9.93,0,23.722l-45.847-27.206s-13.182-10.54,0-23.722Z" transform="translate(-329.222 -801.311)" fill="#6aa075"/>
                <path id="Path_128" data-name="Path 128" d="M496.013,869.783s-12.34,9.64-1.161,21.893L555.275,873.5s-10.249-7.723-.377-21.4Z" transform="translate(-443.436 -825.794)" fill="#f4ce8e"/>
              </g>
              <path id="Path_129" data-name="Path 129" d="M563.109,920.439,509.8,936.089l.2-.639,53.309-15.65Z" transform="translate(-457.368 -873.837)" fill="#cb9966"/>
              <path id="Path_130" data-name="Path 130" d="M556.509,912.768,503.2,928.418l.232-.668,53.309-15.65Z" transform="translate(-452.685 -868.372)" fill="#cb9966"/>
              <path id="Path_131" data-name="Path 131" d="M554.309,902.339,501,917.989l.232-.639,53.309-15.65Z" transform="translate(-451.123 -860.992)" fill="#cb9966"/>
              <path id="Path_132" data-name="Path 132" d="M555.509,892.839,502.2,908.489l.2-.639,53.309-15.65Z" transform="translate(-451.975 -854.25)" fill="#cb9966"/>
              <path id="Path_133" data-name="Path 133" d="M560.609,880.968,507.3,896.618l.2-.639L560.842,880.3Z" transform="translate(-455.594 -845.806)" fill="#cb9966"/>
              <path id="Path_134" data-name="Path 134" d="M563.709,869.039,510.4,884.689l.2-.639,53.309-15.65Z" transform="translate(-457.794 -837.361)" fill="#cb9966"/>
            </g>
            <g id="Group_110" data-name="Group 110" transform="translate(90.265 40.069)">
              <path id="Path_135" data-name="Path 135" d="M646.865,908.908l5.778,1.974L651.511,899.5,640.1,902.462l1.771,11.585Z" transform="translate(-640.1 -899.5)" fill="#f89830"/>
            </g>
          </g>
          <path id="Path_136" data-name="Path 136" d="M458.758,892.068s-11.614,9.2-2.294,22.386l-3.659-2.178s-9.32-9.611,3.31-21.777Z" transform="translate(-414.572 -853.044)" fill="#95cbad"/>
        </g>
        <g id="Group_116" data-name="Group 116" transform="translate(0 16.899)">
          <g id="Group_115-3" data-name="Group 115">
            <g id="Group_113-3" data-name="Group 113">
              <path id="Path_137-3" data-name="Path 137" d="M423.141,785.587,361.847,804,316,776.76l54.7-16.26Z" transform="translate(-310.141 -736.778)" fill="#83bb91"/>
              <path id="Path_138-3" data-name="Path 138" d="M423.141,780.487,361.818,798.9,316,771.66l54.7-16.26Z" transform="translate(-310.141 -733.159)" fill="#dc5b3e"/>
              <path id="Path_139-3" data-name="Path 139" d="M456.059,828.284s-12.892,10.453-.319,22.793l-3.8-1.887s-8.972-2.555-1.423-21.689Z" transform="translate(-403.453 -784.324)" fill="#700e32"/>
              <path id="Path_140-3" data-name="Path 140" d="M529.41,765.971l-57,16.144-2.613,2.41,2.062-.523,60.394-18.147V765.1Z" transform="translate(-419.285 -740.042)" fill="#700e32"/>
              <path id="Path_141-3" data-name="Path 141" d="M423.141,703.858l-61.294,18.409L316,695.06l54.7-16.26Z" transform="translate(-310.141 -678.8)" fill="#f89830"/>
              <path id="Path_142-3" data-name="Path 142" d="M530.723,843.281V841.8l-61.962,18.641-1.161-.378s1.22,1.016,1.829,1.626Z" transform="translate(-417.723 -794.472)" fill="#700e32"/>
              <path id="Path_143-3" data-name="Path 143" d="M347.528,762.006s-13.821,9.93,0,23.722l-45.847-27.206s-13.182-10.54,0-23.722Z" transform="translate(-295.822 -718.54)" fill="#dc5b3e"/>
              <path id="Path_144-3" data-name="Path 144" d="M461.8,786.983s-13.1,10.395-1.161,21.893L521.028,790.7s-10.25-7.723-.377-21.4Z" transform="translate(-409.219 -743.023)" fill="#f4ce8e"/>
            </g>
            <path id="Path_145-3" data-name="Path 145" d="M533.509,835.739,480.2,851.389l.2-.639,53.309-15.65Z" transform="translate(-426.665 -789.717)" fill="#cb9966"/>
            <path id="Path_146-3" data-name="Path 146" d="M526.909,828.068,473.6,843.718l.232-.639L527.142,827.4Z" transform="translate(-421.981 -784.253)" fill="#cb9966"/>
            <path id="Path_147-3" data-name="Path 147" d="M524.709,817.639,471.4,833.289l.232-.639L524.942,817Z" transform="translate(-420.42 -776.873)" fill="#cb9966"/>
            <path id="Path_148-3" data-name="Path 148" d="M525.838,808.139,472.5,823.789l.232-.639,53.309-15.65Z" transform="translate(-421.201 -770.131)" fill="#cb9966"/>
            <path id="Path_149-3" data-name="Path 149" d="M531.009,796.339,477.7,811.989l.2-.639,53.309-15.65Z" transform="translate(-424.891 -761.757)" fill="#cb9966"/>
            <path id="Path_150-3" data-name="Path 150" d="M534.109,784.339,480.8,799.989l.2-.639,53.309-15.65Z" transform="translate(-427.091 -753.242)" fill="#cb9966"/>
            <g id="Group_114-3" data-name="Group 114" transform="translate(86.81 35.423)">
              <path id="Path_151-3" data-name="Path 151" d="M600.955,809.423l5.343,1.8L605.224,800.8,594.8,803.529l1.6,10.6Z" transform="translate(-594.8 -800.8)" fill="#4c7555"/>
            </g>
          </g>
          <path id="Path_152-3" data-name="Path 152" d="M335.558,755.968s-11.614,9.2-2.294,22.386l-3.658-2.178s-9.32-9.611,3.31-21.777Z" transform="translate(-317.446 -732.449)" fill="#f89830"/>
        </g>
        <g id="Group_119" data-name="Group 119" transform="translate(15.911)">
          <g id="Group_117" data-name="Group 117">
            <path id="Path_153" data-name="Path 153" d="M452.571,706.063l-49.07,14.75-36.7-21.777L410.586,686Z" transform="translate(-362.103 -667.011)" fill="#83bb91"/>
            <path id="Path_154" data-name="Path 154" d="M452.571,702.064,403.5,716.784l-36.7-21.777L410.586,682Z" transform="translate(-362.103 -664.172)" fill="#471540"/>
            <path id="Path_155" data-name="Path 155" d="M478.93,740.239s-10.308,8.362-.261,18.234l-3.049-1.51s-7.172-2.033-1.132-17.363Z" transform="translate(-436.806 -705.048)" fill="#700e32"/>
            <path id="Path_156" data-name="Path 156" d="M537.634,690.4,492.02,703.318l-2.12,1.916,1.655-.406L539.9,690.31v-.61Z" transform="translate(-449.46 -669.636)" fill="#700e32"/>
            <path id="Path_157" data-name="Path 157" d="M452.571,640.663l-49.07,14.75-36.7-21.777L410.586,620.6Z" transform="translate(-362.103 -620.6)" fill="#8f6f88"/>
            <path id="Path_158" data-name="Path 158" d="M538.722,752.19V751l-49.593,14.924-.929-.319s.987.813,1.452,1.307Z" transform="translate(-448.254 -713.138)" fill="#700e32"/>
            <path id="Path_159" data-name="Path 159" d="M392.021,687.277s-11.063,7.956,0,18.989l-36.7-21.777s-10.569-8.449,0-18.989Z" transform="translate(-350.622 -652.463)" fill="#471540"/>
            <path id="Path_160" data-name="Path 160" d="M484.139,707.169s-9.9,7.724-.929,17.508l48.344-14.547s-8.217-6.185-.29-17.131Z" transform="translate(-442.044 -671.978)" fill="#f4ce8e"/>
          </g>
          <path id="Path_161" data-name="Path 161" d="M538.86,748.423,496.7,760.792l.174-.494,42.16-12.4Z" transform="translate(-454.285 -710.938)" fill="#cb9966"/>
          <path id="Path_162" data-name="Path 162" d="M533.689,742.423,491.5,754.792l.174-.523L533.863,741.9Z" transform="translate(-450.595 -706.68)" fill="#cb9966"/>
          <path id="Path_163" data-name="Path 163" d="M531.96,734.123,489.8,746.492l.174-.494,42.16-12.4Z" transform="translate(-449.389 -700.79)" fill="#cb9966"/>
          <path id="Path_164" data-name="Path 164" d="M532.86,726.623,490.7,738.992l.174-.523,42.16-12.369Z" transform="translate(-450.028 -695.467)" fill="#cb9966"/>
          <path id="Path_165" data-name="Path 165" d="M536.889,717.294l-42.189,12.4.174-.523L537.063,716.8Z" transform="translate(-452.866 -688.868)" fill="#cb9966"/>
          <path id="Path_166" data-name="Path 166" d="M539.36,707.823,497.2,720.192l.174-.523,42.16-12.369Z" transform="translate(-454.64 -682.126)" fill="#cb9966"/>
          <g id="Group_118" data-name="Group 118" transform="translate(75.689 34.146)">
            <path id="Path_167" data-name="Path 167" d="M615.859,744.588l3.949,1.336-.784-7.724-7.724,2.032,1.191,7.84Z" transform="translate(-611.3 -738.2)" fill="#dc5b3e"/>
          </g>
        </g>
      </g>
    </g>
  </g>
</svg>
