<svg viewBox="0 0 1335.51 1035.68" xmlns="http://www.w3.org/2000/svg"><path d="m41.78 18.24h1249.97v834.92h-1249.97z" fill="#73b471"/><path d="m1314.65 871.4h-1295.77v-871.4h1295.77zm-1272.87-18.24h1250v-834.92h-1250z" fill="#f0c19a"/><rect fill="#db9b74" height="25.71" rx="8.51" width="1335.51" y="844.98"/><g fill="#fff"><rect height="17.03" rx="5.64" width="54.66" x="997.26" y="827.96"/><rect height="17.03" rx="5.64" width="31.66" x="767.37" y="827.96"/><rect height="17.03" rx="5.64" width="55.13" x="702.87" y="827.96"/></g><path d="m494.91 876.19c-5.68 29.81-11.84 62.81-18.11 97.88-3.55 20-7.14 40.57-10.74 61.61h-113.52c-1-21.47-1-41.15 1.24-57.5 12.73-94.23 17-179.87 18.39-225.62.13-4.08.23-7.84.32-11.25 0-1.29.06-2.51.09-3.69.05-2.37.09-4.56.14-6.53.07-4.66.12-8.18.13-10.45 0-.53 0-1 0-1.37s0-.77 0-1v-.54h106s.89 2.54 2.3 7.13c.47 1.55 1 3.35 1.6 5.37 7.66 26.32 22.92 89.77 12.16 145.96z" fill="#ffae73"/><path d="m661.93 610.59s12-12.69 20.6-19 32.72-12.55 35.17-2c1.09 4.69-7.39 15.06-13.49 18.75s-7.05 8.39-13.54 15-22.35 6.94-22.35 6.94z" fill="#ffae73"/><path d="m309.24 505.72c-5.05-9.74 110.17-44.81 112 51.31 0 0 215.85-5.31 112.78-125.62-35.68-41.65-32-76.08-30.94-108.14s-22.22-125.27-102.08-115.85c0 0-20.93-8.52-47 5-59.45 30.84-192.47 328.75-44.76 293.3z" fill="#1e3865"/><path d="m458.93 620.1a210.2 210.2 0 0 0 21.49 32.5c16.69 20.91 42.43 45.07 74.76 49.83 15.43 2.28 30.53-1 44.41-7.21 39.26-17.42 68.77-57.5 68.77-57.5 6.92-18.87-4.4-31.66-4.4-31.66s-79.27 17.82-86.81 14.05-51.59-130.64-62.07-146.58-46.18-24.23-46.18-24.23z" fill="#a7c7ff"/><path d="m480.42 652.6c16.69 20.91 42.43 45.07 74.76 49.83 15.43 2.28 30.53-1 44.41-7.21-1.53.21-40.74 5-56.37-22.91-15.94-28.52-33.17-73.81-56.85-58.72-10.22 6.52-9.77 22.71-5.95 39.01z" fill="#85b2f3"/><path d="m263.38 557a542.59 542.59 0 0 0 0 62.81c1.35 22.74 24.32 53.19 27.62 60.68 8.18 18.87 17.4 21.94 17.4 21.94l71.35 17.49 25.09 6.14 79.11-23.63s36-100.57 21.57-157.19-36.62-95.94-36.62-95.94-91-23.65-161.42-3.08z" fill="#a7c7ff"/><path d="m460.91 856.58c-33.56 56.66-54 123.73-66.4 179.1h-115.24c-11.21-65.47-35.6-149.53-31.72-187.23 1.83-17.8 9.5-38.41 19-58.06a491.75 491.75 0 0 1 30.45-53.21c2.73-4.2 5.25-7.94 7.43-11.14s4.06-5.85 5.47-7.83c1.91-2.67 3-4.14 3-4.14l19.82 1.72 40.16 3.48 6.46.56 11 .95 11.27 1 13.64 1.18 14.83 1.28 5.63.49 15.65 1.36s.89 3.73 2.24 9.95c.1.44.19.89.3 1.36.3 1.42.63 3 1 4.61 6.28 30.21 17.76 94.72 6.01 114.57z" fill="#ffae73"/><path d="m498.63 898.66c-4.32 52.68-9 101.24-12.68 137h-237.95c-3.49-79.62-7.25-193.89-1.36-220.11 2.3-10.21 6.54-21.39 11.64-32.4 8.57-18.57 19.55-36.73 27.6-49.19 6.43-10 11-16.27 11-16.27l8 .32 5 .18 26.81 1 36.15 1.39 11.67.46 5.39.21 11.72.45 15.59.6 12.95.5 5.67.21 22.62.88 5.67.21 17 .67s.68 1.72 1.78 5.06c5.8 17.47 23.1 78.95 15.73 168.83z" fill="#ff912b"/><path d="m485.14 698.88s-15.73 12.44-47 13.07c-37.33.75-129.81-9.52-129.81-9.52a76.44 76.44 0 0 0 -3.91 23.57s113 28.49 178.39 4.16c0 .04 8.45-15.85 2.33-31.28z" fill="#fc7600"/><path d="m430.09 724.83c0-10.62 7.64-19.27 17-19.27s17 8.65 17 19.27-7.64 19.28-17 19.28-17-8.65-17-19.28zm5.64 0c0 7.52 5.11 13.63 11.39 13.63s11.39-6.11 11.39-13.63-5.11-13.63-11.39-13.63-11.39 6.12-11.39 13.63z" fill="#fff"/><path d="m236.88 587.1h153.44v210.04h-153.44z" fill="#1e3865" transform="matrix(-.75413677 -.65671739 .65671739 -.75413677 95.59 1420.02)"/><path d="m334.46 721.31s42.4 5 42.27 15-10.56 30.74-15.8 31.66-34.51-28-34.51-28z" fill="#ffae73"/><path d="m320.29 443.94s-56.61 4-78.31 56.72-62.87 141.34-62.87 156.21 23 60.83 146.51 87.24c0 0 12.77-13.44 12-24.07 0 0-77.1-66.22-76.89-74 .39-14.64 12.64-34 80.33-101.68 18.4-18.36-20.77-100.42-20.77-100.42z" fill="#a7c7ff"/><path d="m653.76 761.69 169.63-498.6c.78-2.27 1.82-4.44-.43-5.26l-2.06-.75c-2.32-.84-3 .65-3.84 3l-180.82 491.39a9.51 9.51 0 0 0 5.07 11.94l4.19 1.87a6.12 6.12 0 0 0 8.26-3.59z" fill="#fddbba"/><path d="m676.8 608.15a80.84 80.84 0 0 0 15.86-2.39c6.42-1.67 14.66-4.66 14.66-4.66 4.84 3.52-12 13.14-16.28 19.72-3.51 5.36-7.49 6.91-17.16 9z" fill="#ffae73"/><path d="m329.19 441.21a34.11 34.11 0 0 0 24.91-21.67c4.76-13.33 8.55-33 8.46-57.68l3.58.71 60.23 11.93s-1.37 18.95-1.37 36.81v.44a34.65 34.65 0 0 0 25 33.5c7.61 2.2-36.28 60-41.3 58.84-10.48-2.36-83.15-62.09-79.51-62.88z" fill="#ffae73"/><path d="m426.37 374.5s-1.37 18.95-1.37 36.81c-33.7-.95-51.52-31.7-58.82-48.74z" fill="#f48f4e"/><path d="m437.63 391.4s-79.75 1.32-79.8-48.35-10.39-83 40.53-85.9 60.82 16 64.87 32.58-4.86 100.05-25.6 101.67z" fill="#ffae73"/><path d="m434.68 255.93s-21.84 58.28-55.35 66.89-48-.36-48-.36 25.7-20.42 31-56.06c0 0 55.88-38.21 72.35-10.47z" fill="#1e3865"/><path d="m429.26 260.66s16.2 6 22.86 17.86c6.52 11.55 12.07 26.84 10.78 45.6 0 0 16.45-39.61-2-62-19.64-23.77-31.64-1.46-31.64-1.46z" fill="#1e3865"/><path d="m422.05 361.92s1.38 5.85 15.94 4.95c0 0 12.23-.76 11.85-7.19 0 0-11.84-4.58-27.79 2.24z" fill="#fff"/><path d="m408.66 504.09s-53.94-57.62-56-81.17c0 0-13.75 3.82-29.93 19.56 0 0 13 32.48 28.44 43.19 0 0 11.27-1.59 20.13-5.24a171.08 171.08 0 0 1 -10.09 14.92s24.48 13.86 47.45 8.74z" fill="#d3e5ff"/><path d="m427.56 425.13s21.28 38.88-18.9 79c0 0 25.21-4.82 38.17-22.6 0 0-4-9.54-7.43-11.75 0 0 7.57-3 12.32 1.4 0 0 2.89-20.85 0-27.2s-17.91-19.06-24.16-18.85z" fill="#d3e5ff"/><path d="m404.64 504.09a4 4 0 1 1 4 4 4 4 0 0 1 -4-4z" fill="#1e3865"/><path d="m426.07 561.05a4 4 0 1 1 4 4 4 4 0 0 1 -4-4z" fill="#1e3865"/><path d="m430.09 627.84a4 4 0 1 1 4 4 4 4 0 0 1 -4-4z" fill="#1e3865"/><path d="m498.63 898.66c-4.32 52.68-9 101.24-12.68 137h-30.9c7.75-19.18 15.24-41.05 21.75-61.61 12.76-40.21 21.83-75.39 21.83-75.39z" fill="#fc7600"/><g fill="#fff" opacity=".6"><path d="m954.91 104.73h6.55l17.69 40.5h-7.47l-4.08-9.71h-19l-4.14 9.71h-7.23zm10.09 24.53-6.95-16.08-6.9 16.08z"/><path d="m1021.36 105h18c4.6 0 8.21 1.26 10.51 3.56a9.08 9.08 0 0 1 2.7 6.78c0 4.82-2.75 7.41-5.74 9 4.71 1.61 8 4.31 8 9.88 0 7.18-5.91 11-14.87 11h-18.62zm16.64 17c4.54 0 7.59-1.78 7.59-5.57 0-3.16-2.53-5.11-7.07-5.11h-10.16v10.68zm2.07 17c4.83 0 7.76-1.9 7.76-5.63 0-3.39-2.7-5.4-8.27-5.4h-11.2v11z"/><path d="m1096.38 125.12c0-11.43 8.56-20.79 20.74-20.79a21 21 0 0 1 15.74 6.26l-4.54 5.23c-3.22-3-6.67-5-11.26-5-7.7 0-13.27 6.32-13.27 14.3s5.57 14.31 13.27 14.31c4.94 0 8.1-2 11.55-5.23l4.53 4.59c-4.19 4.37-8.79 7.13-16.31 7.13-11.72 0-20.45-9.14-20.45-20.8z"/><path d="m904.56 195.28h15c12.64 0 21.37 8.67 21.37 20.1s-8.73 20.11-21.37 20.11h-15zm15 33.77c8.45 0 14-5.68 14-13.67s-5.51-13.67-14-13.67h-7.92v27.34z"/><path d="m984.8 195.28h29.82v6.32h-22.75v10.45h20.13v6.32h-20.13v10.8h23v6.32h-30.07z"/><path d="m1058.61 195.28h29.93v6.43h-22.86v11h20.32v6.43h-20.28v16.38h-7.07z"/><path d="m1129.84 215.38a20.48 20.48 0 0 1 20.74-20.79c7 0 11.31 1.95 15.45 5.45l-4.48 5.35a15.74 15.74 0 0 0 -11.26-4.31c-7.41 0-13 6.49-13 14.3 0 8.27 5.46 14.36 13.67 14.36a16.41 16.41 0 0 0 9.71-3v-7.53h-10.28v-6.21h17.11v16.88a25.62 25.62 0 0 1 -16.77 6.26c-12.62.03-20.89-8.93-20.89-20.76z"/><path d="m884.37 285.53h7.07v16.72h19.18v-16.72h7.07v40.21h-7.07v-16.94h-19.18v16.94h-7.07z"/><path d="m963.75 285.53h7.07v40.21h-7.07z"/><path d="m1012.92 319.83 4.65-4.77c2.36 3 4.71 4.71 8.1 4.71 3.79 0 6.38-2.53 6.38-7.87v-26.37h7.24v26.54c0 4.77-1.38 8.33-3.74 10.69s-5.74 3.56-9.76 3.56a15.13 15.13 0 0 1 -12.87-6.49z"/><path d="m1084.32 285.53h7.06v20.22l19.13-20.22h8.68l-16.72 17.29 17.46 22.92h-8.56l-13.73-18.09-6.26 6.43v11.66h-7.06z"/><path d="m1161.29 285.53h7.06v33.78h21.14v6.43h-28.2z"/><path d="m896.4 375.79h7.53l12.23 19 12.24-19h7.52v40.21h-7.06v-28.83l-12.7 18.95h-.23l-12.58-18.84v28.72h-7z"/><path d="m981.59 375.79h6.55l21.54 27.8v-27.8h7v40.21h-5.92l-22.17-28.61v28.61h-6.95z"/><path d="m1060.51 395.9a21 21 0 1 1 21 20.79c-12.38 0-21-9.36-21-20.79zm34.64 0c0-7.82-5.69-14.31-13.67-14.31s-13.56 6.38-13.56 14.31 5.69 14.3 13.67 14.3 13.56-6.38 13.56-14.3z"/><path d="m1146.44 375.79h15.85c9.37 0 15.28 5.34 15.28 13.56 0 9-7.24 13.73-16.08 13.73h-8v12.92h-7.06zm15.28 20.91c5.34 0 8.67-3 8.67-7.29 0-4.71-3.39-7.18-8.67-7.18h-8.22v14.47z"/><path d="m936.87 503.16a20.78 20.78 0 0 1 -12.23 3.84 20.8 20.8 0 1 1 .11-41.59c12.35 0 21 9.36 21 20.79a20.43 20.43 0 0 1 -4.08 12.35l4.59 3.91-4.53 5zm-5.23-4.66-6.89-5.86 4.54-5.16 7 6.31a13.8 13.8 0 0 0 2.07-7.64c0-7.81-5.69-14.3-13.67-14.3s-13.56 6.38-13.56 14.3 5.69 14.31 13.67 14.31a12.73 12.73 0 0 0 6.84-1.96z"/><path d="m989.6 466.05h17.92c9.42 0 14.94 5.05 14.94 12.81 0 6.6-4 10.57-9.6 12.18l10.86 15.22h-8.33l-10-14h-8.73v14h-7.06zm17.4 19.95c5.06 0 8.28-2.64 8.28-6.83s-3.11-6.67-8.33-6.67h-10.28v13.5z"/><path d="m1063.76 500.4 4.25-5.06c3.84 3.34 7.69 5.23 12.69 5.23 4.37 0 7.12-2 7.12-5.17 0-2.87-1.6-4.42-9.07-6.2-8.56-2-13.39-4.54-13.39-12.06 0-6.9 5.75-11.66 13.73-11.66a22.31 22.31 0 0 1 14.59 5l-3.79 5.34c-3.62-2.7-7.24-4.13-10.91-4.13-4.14 0-6.55 2.12-6.55 4.88 0 3.1 1.84 4.48 9.53 6.32 8.51 2.06 12.93 5.11 12.93 11.89 0 7.52-5.92 12-14.36 12a24.73 24.73 0 0 1 -16.77-6.38z"/><path d="m1148.42 472.6h-12.75v-6.55h32.63v6.55h-12.76v33.66h-7.12z"/><path d="m929.32 579.46v-23.15h7.06v22.86c0 7.47 3.85 11.49 10.17 11.49s10.11-3.79 10.11-11.2v-23.15h7.06v22.8c0 12-6.77 18-17.29 18s-17.11-5.99-17.11-17.65z"/><path d="m1005.31 556.31h7.81l12.12 30.9 12.06-30.9h7.64l-16.71 40.49h-6.23z"/><path d="m1084.06 556.31h7.64l9.59 29.81 9.88-29.93h6l9.88 29.93 9.59-29.81h7.36l-14 40.49h-6.09l-9.91-28.89-9.88 28.89h-6.08z"/><path d="m955.22 666.32-14.07-19.76h8.33l10 14.42 10.06-14.42h8.1l-14 19.65 14.59 20.56h-8.33l-10.6-15.22-10.62 15.22h-8.1z"/><path d="m1032.65 670.92-16-24.36h8.35l11.26 17.81 11.37-17.81h8.1l-16 24.19v16h-7.12z"/><path d="m1095.83 681.55 23.73-28.72h-23v-6.27h32.17v5.23l-23.73 28.72h23.72v6.26h-32.92z"/></g></svg>