<svg xmlns="http://www.w3.org/2000/svg" viewBox="0 0 3401.57 2267.72"><g data-name="‘ëîé_2"><rect width="566.93" height="566.93" x="1700.79" fill="#f6f6f4"/><rect width="566.93" height="566.93" x="2267.72" fill="#623c79"/><rect width="566.93" height="566.93" x="2834.65" fill="#623c79"/><rect width="566.93" height="566.93" x="2834.65" y="566.93" fill="#f6f6f4" transform="rotate(180 3118.11 850.395)"/><rect width="566.93" height="566.93" x="2267.72" y="566.93" fill="#f6f6f4" transform="rotate(180 2551.18 850.395)"/><rect width="566.93" height="566.93" x="1700.79" y="566.93" fill="#f6f6f4" transform="rotate(180 1984.25 850.395)"/><rect width="566.93" height="566.93" x="1700.79" y="1133.86" fill="#623c79"/><polygon fill="#e34a39" points="2267.72 1700.79 1700.79 1700.79 2267.72 1133.86 2267.72 1700.79"/><rect width="566.93" height="566.93" x="2267.72" y="1133.86" fill="#f6a72c"/><rect width="566.93" height="566.93" x="2834.65" y="1133.86" fill="#f6a72c"/><rect width="566.93" height="566.93" x="2834.65" y="1700.79" fill="#f6a72c" transform="rotate(180 3118.11 1984.25)"/><rect width="566.93" height="566.93" x="2267.72" y="1700.79" fill="#f6a72c" transform="rotate(180 2551.18 1984.25)"/><rect width="566.93" height="566.93" x="1700.79" y="1700.79" fill="#f6f6f4" transform="rotate(180 1984.25 1984.25)"/><rect width="566.93" height="566.93" fill="#f6a72c"/><rect width="566.93" height="566.93" x="566.93" fill="#f6a72c"/><rect width="566.93" height="566.93" x="1133.86" fill="#f6f6f4"/><rect width="566.93" height="566.93" x="1133.86" y="566.93" fill="#f6f6f4" transform="rotate(180 1417.325 850.395)"/><rect width="566.93" height="566.93" x="566.93" y="566.93" fill="#e34a39" transform="rotate(180 850.395 850.395)"/><rect width="566.93" height="566.93" y="566.93" fill="#f6f6f4" transform="rotate(180 283.465 850.395)"/><rect width="566.93" height="566.93" y="1133.86" fill="#f6f6f4"/><rect width="566.93" height="566.93" x="566.93" y="1133.86" fill="#623c79"/><rect width="566.93" height="566.93" x="1133.86" y="1133.86" fill="#f6a72c"/><rect width="566.93" height="283.46" x="1133.86" y="708.66" fill="#e34a39"/><rect width="566.93" height="283.46" x="1700.79" y="566.93" fill="#f6a72c"/><rect width="566.93" height="283.46" x="1700.79" y="141.73" fill="#e34a39" transform="rotate(90 1984.255 283.465)"/><rect width="566.93" height="566.93" x="1133.86" y="1700.79" fill="#f6f6f4" transform="rotate(180 1417.325 1984.25)"/><rect width="566.93" height="566.93" x="566.93" y="1700.79" fill="#623c79" transform="rotate(180 850.395 1984.25)"/><rect width="566.93" height="566.93" y="1700.79" fill="#f6f6f4" transform="rotate(180 283.465 1984.25)"/><circle cx="2834.65" cy="1700.79" r="283.46" fill="#e34a39"/><circle cx="850.39" cy="283.46" r="141.73" fill="#e34a39"/><circle cx="1984.25" cy="850.39" r="141.73" fill="#623c79"/><circle cx="1417.32" cy="850.39" r="141.73" fill="#f6a72c"/><circle cx="850.39" cy="1984.25" r="283.46" fill="#f6a72c"/><circle cx="283.46" cy="283.46" r="141.73" fill="#f6f6f4"/><circle cx="2551.18" cy="283.46" r="141.73" fill="#f6f6f4"/><path fill="#f6a72c" d="M566.93,708.66a141.74,141.74,0,0,0,0,283.47Z"/><path fill="#f6f6f4" d="M1133.86 708.66a141.74 141.74 0 000 283.47zM566.93 708.66a141.74 141.74 0 010 283.47z"/><path fill="#623c79" d="M0,708.66A141.73,141.73,0,0,1,141.73,850.39,141.73,141.73,0,0,1,0,992.13Z"/><path fill="#e34a39" d="M141.73 1700.79a141.74 141.74 0 00283.47 0zM141.73 2267.72a141.74 141.74 0 11283.47 0z"/><polygon fill="#f6a72c" points="566.93 1700.79 0 1700.79 566.93 1133.86 566.93 1700.79"/><polygon fill="#f6a72c" points="2834.65 566.93 2834.65 0 3401.57 566.93 2834.65 566.93"/><polygon fill="#e34a39" points="2267.72 1133.86 2267.72 566.93 2834.65 1133.86 2267.72 1133.86"/><polygon fill="#e34a39" points="3401.57 1133.86 2834.65 1133.86 3401.57 566.93 3401.57 1133.86"/><polygon fill="#f6a72c" points="3401.57 1133.86 3118.11 1133.86 3401.57 850.39 3401.57 1133.86"/><polygon fill="#e34a39" points="1700.79 566.93 1417.32 566.93 1700.79 283.46 1700.79 566.93"/><polygon fill="#623c79" points="1417.32 283.46 1133.86 283.46 1417.32 0 1417.32 283.46"/><polygon fill="#623c79" points="3401.57 1133.86 3401.57 1417.32 3118.11 1133.86 3401.57 1133.86"/><polygon fill="#f6f6f4" points="2551.18 1984.25 2551.18 2267.72 2267.72 1984.25 2551.18 1984.25"/><polygon fill="#f6a72c" points="1984.25 1700.79 1984.25 1984.25 1700.79 1700.79 1984.25 1700.79"/><polygon fill="#e34a39" points="2267.72 1984.25 2267.72 2267.72 1984.25 1984.25 2267.72 1984.25"/><polygon fill="#e34a39" points="566.93 1417.32 566.93 1700.79 283.46 1417.32 566.93 1417.32"/><circle cx="850.39" cy="1984.25" r="141.73" fill="#e34a39" transform="rotate(-45 850.392 1984.246)"/><rect width="566.93" height="283.46" x="1275.59" y="1842.52" fill="#e34a39" transform="rotate(90 1559.055 1984.255)"/><polygon fill="#623c79" points="3118.11 1984.25 3401.57 1984.25 3118.11 2267.72 3118.11 1984.25"/><polygon fill="#623c79" points="2551.18 1133.86 2267.72 1133.86 2551.18 850.39 2551.18 1133.86"/></g></svg>