<svg xmlns="http://www.w3.org/2000/svg" xmlns:xlink="http://www.w3.org/1999/xlink" width="147" height="104" viewBox="0 0 147 104">
  <defs>
    <style>
      .cls-1 {
        fill: #def4ee;
      }

      .cls-2 {
        clip-path: url(#clip-path);
      }

      .cls-3 {
        fill: #3c71dc;
      }

      .cls-4 {
        fill: #f9f2d9;
      }

      .cls-5 {
        fill: #95cbad;
      }

      .cls-6 {
        fill: #471540;
      }

      .cls-7 {
        fill: #c69262;
      }

      .cls-8 {
        fill: #f4ce8e;
      }

      .cls-9 {
        fill: #951a45;
      }

      .cls-10 {
        fill: #dc5b3e;
      }

      .cls-11 {
        fill: #f89830;
      }

      .cls-12 {
        fill: #f6debc;
      }

      .cls-13 {
        fill: #b3b3b3;
      }

      .cls-14 {
        fill: rgba(0,0,0,0.1);
      }

      .cls-15 {
        fill: #fff;
      }

      .cls-16, .cls-17 {
        fill: #8395ae;
        font-family: Lato-Bold, Lato;
        font-weight: 700;
      }

      .cls-16 {
        font-size: 6px;
      }

      .cls-17 {
        font-size: 7px;
      }
    </style>
    <clipPath id="clip-path">
      <rect id="Rectangle_986" data-name="Rectangle 986" class="cls-1" width="147" height="104" rx="20" transform="translate(7870 1804)"/>
    </clipPath>
  </defs>
  <g id="Mask_Group_50" data-name="Mask Group 50" class="cls-2" transform="translate(-7870 -1804)">
    <g id="Group_924" data-name="Group 924" transform="translate(7864.309 1786.733)">
      <g id="Group_910" data-name="Group 910" transform="matrix(0.819, -0.574, 0.574, 0.819, 0.189, 65.135)">
        <rect id="Rectangle_963" data-name="Rectangle 963" class="cls-3" width="57.021" height="98.991" transform="matrix(0.59, -0.807, 0.807, 0.59, 0, 46.028)"/>
        <rect id="Rectangle_964" data-name="Rectangle 964" class="cls-4" width="51.458" height="92.719" transform="matrix(0.59, -0.807, 0.807, 0.59, 4.183, 45.632)"/>
        <rect id="Rectangle_965" data-name="Rectangle 965" class="cls-5" width="1.387" height="31.064" transform="matrix(0.59, -0.807, 0.807, 0.59, 74.824, 44.445)"/>
        <rect id="Rectangle_966" data-name="Rectangle 966" class="cls-5" width="1.387" height="31.064" transform="translate(73.188 46.675) rotate(-53.83)"/>
        <rect id="Rectangle_967" data-name="Rectangle 967" class="cls-5" width="1.387" height="31.064" transform="matrix(0.59, -0.807, 0.807, 0.59, 71.532, 48.939)"/>
        <rect id="Rectangle_968" data-name="Rectangle 968" class="cls-5" width="1.387" height="31.064" transform="matrix(0.59, -0.807, 0.807, 0.59, 58.132, 67.273)"/>
        <rect id="Rectangle_969" data-name="Rectangle 969" class="cls-5" width="1.387" height="31.064" transform="matrix(0.59, -0.807, 0.807, 0.59, 56.481, 69.526)"/>
        <rect id="Rectangle_970" data-name="Rectangle 970" class="cls-5" width="1.387" height="31.064" transform="matrix(0.59, -0.807, 0.807, 0.59, 54.84, 71.767)"/>
        <rect id="Rectangle_971" data-name="Rectangle 971" class="cls-5" width="1.387" height="31.064" transform="matrix(0.59, -0.807, 0.807, 0.59, 64.695, 58.289)"/>
        <rect id="Rectangle_972" data-name="Rectangle 972" class="cls-5" width="1.387" height="31.064" transform="matrix(0.59, -0.807, 0.807, 0.59, 63.045, 60.541)"/>
        <rect id="Rectangle_973" data-name="Rectangle 973" class="cls-5" width="1.387" height="31.064" transform="matrix(0.59, -0.807, 0.807, 0.59, 36.278, 16.257)"/>
        <rect id="Rectangle_974" data-name="Rectangle 974" class="cls-5" width="1.387" height="31.064" transform="matrix(0.59, -0.807, 0.807, 0.59, 34.628, 18.51)"/>
        <rect id="Rectangle_975" data-name="Rectangle 975" class="cls-5" width="1.387" height="31.064" transform="matrix(0.59, -0.807, 0.807, 0.59, 32.985, 20.75)"/>
        <rect id="Rectangle_976" data-name="Rectangle 976" class="cls-5" width="1.387" height="3.114" transform="translate(42.152 55.586) rotate(-53.83)"/>
        <rect id="Rectangle_977" data-name="Rectangle 977" class="cls-5" width="1.387" height="31.064" transform="matrix(0.59, -0.807, 0.807, 0.59, 26.149, 30.099)"/>
        <rect id="Rectangle_978" data-name="Rectangle 978" class="cls-5" width="1.387" height="31.064" transform="translate(24.515 32.353) rotate(-53.83)"/>
        <g id="Group_909" data-name="Group 909" transform="translate(31.962 6.867)">
          <path id="Path_1756" data-name="Path 1756" class="cls-6" d="M4.53,8.574,0,8.736,6.39,0l5.74,4.191L5.74,12.942Z" transform="translate(0 0)"/>
        </g>
      </g>
      <g id="Group_921" data-name="Group 921" transform="translate(124.024 143.886) rotate(-167)">
        <g id="Group_920" data-name="Group 920" transform="translate(0 0)">
          <path id="Path_1757" data-name="Path 1757" class="cls-7" d="M11.632,2.571S10.805-2.372,4.726,1.45.166,2.483.166,2.483L.918,7.574,6.482,9.212Z" transform="translate(52.734 67.429)"/>
          <path id="Path_1758" data-name="Path 1758" class="cls-8" d="M20,36.789S25.8,49.923,26.887,55.4s6.006,3.866,6.006,3.866L43.784,64.43l2.051.015c4.176-9.533,8.766-9.754,8.279-10.064-6.006-3.807-9.577,2.081-9.577,2.081a10.647,10.647,0,0,1-6.213-5.283s-.767-3.129,3-4.53,6.213,5.283,9.4,5.77,3.409.369,3.409.369l-2.907-6.744-6.08-6.995C42.766,38,32.244,30.4,32.244,30.4l-2.258-2.981L13.9,0,0,10.8Z" transform="translate(14.841 16.402)"/>
          <g id="Group_911" data-name="Group 911" transform="translate(0)">
            <rect id="Rectangle_979" data-name="Rectangle 979" class="cls-9" width="3.188" height="21.546" transform="translate(45.447 39.218) rotate(55.495)"/>
            <rect id="Rectangle_980" data-name="Rectangle 980" class="cls-6" width="46.442" height="24.896" transform="translate(20.516 0) rotate(55.495)"/>
          </g>
          <g id="Group_915" data-name="Group 915" transform="translate(27.451 66.975)">
            <g id="Group_914" data-name="Group 914" transform="translate(2.914 0)">
              <path id="Path_1759" data-name="Path 1759" class="cls-8" d="M0,.03C.029.015.059.015.074,0,.059.015.029.015,0,.03Z" transform="translate(38.486 1.225)"/>
              <path id="Path_1760" data-name="Path 1760" class="cls-8" d="M0,.015H0A.633.633,0,0,0,.074,0,.16.16,0,0,0,0,.015Z" transform="translate(38.826 2.494)"/>
              <path id="Path_1761" data-name="Path 1761" class="cls-8" d="M0,0Z" transform="translate(38.147 0)"/>
              <path id="Path_1762" data-name="Path 1762" class="cls-8" d="M0,.011Z" transform="translate(39.18 3.752)"/>
              <path id="Path_1763" data-name="Path 1763" class="cls-8" d="M0,0Z" transform="translate(38.147 0)"/>
              <path id="Path_1764" data-name="Path 1764" class="cls-8" d="M0,0Z" transform="translate(38.147 0)"/>
              <path id="Path_1765" data-name="Path 1765" class="cls-8" d="M0,0Z" transform="translate(38.486 1.254)"/>
              <path id="Path_1766" data-name="Path 1766" class="cls-10" d="M0,0Z" transform="translate(38.486 1.254)"/>
              <path id="Path_1767" data-name="Path 1767" class="cls-10" d="M0,0Z" transform="translate(38.826 2.509)"/>
              <path id="Path_1768" data-name="Path 1768" class="cls-9" d="M0,0Z" transform="translate(39.18 3.763)"/>
              <path id="Path_1769" data-name="Path 1769" class="cls-9" d="M0,0Z" transform="translate(39.18 3.748)"/>
              <path id="Path_1770" data-name="Path 1770" class="cls-9" d="M0,0Z" transform="translate(38.826 2.509)"/>
              <path id="Path_1771" data-name="Path 1771" class="cls-8" d="M0,0H0L.339,1.254h0Z" transform="translate(38.147 0)"/>
              <path id="Path_1772" data-name="Path 1772" class="cls-10" d="M0,0H0L.339,1.254h0Z" transform="translate(38.487 1.254)"/>
              <g id="Group_912" data-name="Group 912" transform="translate(0 0)">
                <path id="Path_1773" data-name="Path 1773" class="cls-11" d="M38.487,1.254,38.147,0h0L0,10.478l.339,1.254Z" transform="translate(0 0)"/>
                <path id="Path_1774" data-name="Path 1774" class="cls-10" d="M38.487,1.254,38.147,0h0L0,10.478l.354,1.254Z" transform="translate(0.339 1.254)"/>
                <path id="Path_1775" data-name="Path 1775" class="cls-9" d="M38.486,1.254,38.132,0h0L0,10.478l.339,1.254Z" transform="translate(0.694 2.509)"/>
                <path id="Path_1776" data-name="Path 1776" class="cls-12" d="M.325,1.254A.636.636,0,0,0,.4,1.24c.561-.162.944-.561.856-.915A.562.562,0,0,0,1.063.059L0,0H0Z" transform="translate(38.162 0)"/>
                <path id="Path_1777" data-name="Path 1777" class="cls-10" d="M.339,1.318A.637.637,0,0,0,.413,1.3c.561-.162.944-.561.856-.9S.635-.1.074.063A.113.113,0,0,0,0,.093Z" transform="translate(38.487 1.191)"/>
                <path id="Path_1778" data-name="Path 1778" class="cls-9" d="M.339,1.332h0L1.225.727A.5.5,0,0,0,1.269.4C1.181.063.635-.1.074.063.044.078.015.078,0,.093Z" transform="translate(38.841 2.416)"/>
              </g>
              <path id="Path_1779" data-name="Path 1779" class="cls-9" d="M0,0,.339,1.254h0L0,0Z" transform="translate(38.826 2.509)"/>
              <g id="Group_913" data-name="Group 913" transform="translate(38.56 0.059)">
                <path id="Path_1780" data-name="Path 1780" class="cls-8" d="M.664,0A.4.4,0,0,1,.856.266c.089.339-.28.753-.856.915.561-.162,1.092,0,1.2.339s-.28.753-.856.9c.561-.162,1.092,0,1.2.339a.424.424,0,0,1-.044.325L3.778,1.535,3.394.162Z" transform="translate(0 0)"/>
                <path id="Path_1781" data-name="Path 1781" class="cls-6" d="M0,0,.369,1.387,2.214.133Z" transform="translate(3.424 0.162)"/>
              </g>
            </g>
            <rect id="Rectangle_981" data-name="Rectangle 981" class="cls-13" width="3.896" height="1.579" transform="translate(3.695 10.266) rotate(74.632)"/>
            <path id="Path_1782" data-name="Path 1782" class="cls-8" d="M2.914,0l-1.8.487C.435.679-.067,1,.007,1.24L.819,4.176c.059.221.664.266,1.343.074l1.8-.487Z" transform="translate(0 10.478)"/>
          </g>
          <g id="Group_916" data-name="Group 916" transform="translate(58.862 67.093)">
            <path id="Path_1783" data-name="Path 1783" class="cls-8" d="M1.461,1.727C4.648,2.214,4.87,2.1,4.87,2.1L3.97,0,0,1.092A3.622,3.622,0,0,0,1.461,1.727Z" transform="translate(5.224 0)"/>
            <path id="Path_1784" data-name="Path 1784" class="cls-8" d="M0,4.16,10.064,1.4c.074-.044.089-.089.029-.118C4.088-2.525.5,3.363.487,3.348.384,3.525.059,4.056,0,4.16Z" transform="translate(0 2.422)"/>
          </g>
          <g id="Group_917" data-name="Group 917" transform="translate(59.182 72.776)">
            <path id="Path_1785" data-name="Path 1785" class="cls-8" d="M1.244,1.134A.6.6,0,0,0,1.318,1a.112.112,0,0,0,.03-.059c.059-.1-.089.089,0,0A.553.553,0,0,0,.565.161L.492.234c.118-.1.015-.015,0,0A1.611,1.611,0,0,1,.27.352.536.536,0,0,0,.078,1.1.549.549,0,0,0,.4,1.356.616.616,0,0,0,.831,1.3,2.135,2.135,0,0,0,1.348.943L.565.161a2.545,2.545,0,0,0-.28.413.552.552,0,0,0,.192.753.559.559,0,0,0,.767-.192Z" transform="translate(0 0)"/>
          </g>
          <g id="Group_918" data-name="Group 918" transform="translate(59.235 70.987)">
            <path id="Path_1786" data-name="Path 1786" class="cls-8" d="M.542,3.233c.384-.162.723-.354,1.092-.546-.28-.162-.546-.31-.826-.472v.162a.557.557,0,0,0,.826.472A6.342,6.342,0,0,0,2.372,2.3c-.251-.059-.5-.133-.753-.192a.369.369,0,0,0,.059.1.549.549,0,0,0,.753.192,3.51,3.51,0,0,1,.753-.354c-.177-.31-.354-.605-.531-.915-.059.089-.133.162-.192.251a.548.548,0,0,0,.664.856,8.021,8.021,0,0,1,1.24-.605c-.177-.31-.354-.605-.531-.915a1.191,1.191,0,0,1-.384.384c-.487.4.148,1.181.664.856a3.939,3.939,0,0,1,1.048-.472c-.177-.31-.354-.605-.531-.915a2.653,2.653,0,0,0-.3.28.55.55,0,0,0,.531.915,7.353,7.353,0,0,0,1.668-.738c.59-.384.044-1.328-.561-.944a7.047,7.047,0,0,1-1.4.635c.177.31.354.605.531.915a2.653,2.653,0,0,0,.3-.28A.55.55,0,0,0,4.866.444a5.465,5.465,0,0,0-1.313.576c.221.28.443.576.664.856A1.192,1.192,0,0,0,4.6,1.492c.31-.384.044-1.107-.531-.915a9.971,9.971,0,0,0-1.505.708c.221.28.443.575.664.856.059-.089.133-.162.192-.251.31-.4.044-1.092-.531-.915a4.44,4.44,0,0,0-1,.472c.251.059.5.133.753.192a.238.238,0,0,0-.059-.1.549.549,0,0,0-.753-.192,6.338,6.338,0,0,1-.738.546c.28.162.546.31.826.472V2.2a.554.554,0,0,0-.826-.472c-.28.148-.369.369-.649.516-.649.28-.546,1.254.1.989Z" transform="translate(0 0)"/>
          </g>
          <g id="Group_919" data-name="Group 919" transform="translate(63.969 70.221)">
            <path id="Path_1787" data-name="Path 1787" class="cls-8" d="M.264,1.933c.679.384,1.417-.03,2.007-.413.5-.325.192-1.225-.428-1a1.526,1.526,0,0,0-.576.339.55.55,0,0,0,.384.93A3.057,3.057,0,0,0,2.669,1.52c-.177-.31-.354-.605-.531-.915-.059.044-.1.089-.162.133a.545.545,0,0,0,.384.93,2.069,2.069,0,0,0,.59-.1c-.148-.339-.28-.664-.428-1L2.3.694a.552.552,0,0,0,.428,1,2.671,2.671,0,0,0,.93-.487A.551.551,0,0,0,3.378.192h-.1V1.284c.177-.015.354-.044.531-.074a.553.553,0,0,0,.133-1c-.015-.015-.03-.015-.059-.03-.044.339-.089.664-.133,1,.133-.029.207-.192.354-.221C4.794.767,4.44,0,3.746.133,3.569.162,3.555.1,3.378.177c-.649.28-.089,1.225.561.944.074-.015.089-.148.162-.177C4,.59,3.968.354,3.879,0c-.133.03-.28.074-.413.1a.554.554,0,0,0-.133,1c.015.015.03.015.059.03.044-.339.089-.664.133-1a1.292,1.292,0,0,1-.236.029.546.546,0,0,0,0,1.092h.1C3.3.915,3.215.576,3.112.236A1.671,1.671,0,0,1,2.448.62c.148.339.28.664.428,1A.881.881,0,0,1,3.1,1.49c.531-.31.177-1.21-.428-1-.1.015-.192.044-.3.059.133.31.266.62.384.93.059-.044.1-.089.162-.133A.551.551,0,0,0,2.389.428a1.862,1.862,0,0,1-.738.221c.133.31.266.62.384.93l.089-.044c-.148-.339-.28-.664-.428-1C1.533.649,1,1.063.8.944a.563.563,0,0,0-.531.989Z" transform="translate(0 0)"/>
          </g>
        </g>
      </g>
      <g id="Group_922" data-name="Group 922" transform="translate(-0.309 68.394)">
        <rect id="Rectangle_982" data-name="Rectangle 982" class="cls-14" width="68" height="16" rx="4" transform="translate(1 1.873)"/>
        <rect id="Rectangle_983" data-name="Rectangle 983" class="cls-15" width="69" height="17" rx="4" transform="translate(0 -0.127)"/>
      </g>
      <g id="Group_923" data-name="Group 923" transform="translate(-0.309 87.771)">
        <rect id="Rectangle_984" data-name="Rectangle 984" class="cls-14" width="68" height="17" rx="4" transform="translate(1 1.495)"/>
        <rect id="Rectangle_985" data-name="Rectangle 985" class="cls-15" width="69" height="17" rx="4" transform="translate(0 0.495)"/>
      </g>
      <text id="Maths" class="cls-16" transform="translate(20.691 77.267)"><tspan x="0" y="0">Maths</tspan></text>
      <text id="English" class="cls-17" transform="translate(19.691 97.267)"><tspan x="0" y="0">English</tspan></text>
    </g>
  </g>
</svg>
