<svg xmlns="http://www.w3.org/2000/svg" xmlns:xlink="http://www.w3.org/1999/xlink" width="377" height="453" viewBox="0 0 377 453">
  <defs>
    <clipPath id="clip-path">
      <rect id="Rectangle_1972" data-name="Rectangle 1972" width="377" height="453" transform="translate(3509 5581)" fill="#fff"/>
    </clipPath>
  </defs>
  <g id="Mask_Group_62" data-name="Mask Group 62" transform="translate(-3509 -5581)" clip-path="url(#clip-path)">
    <g id="Group_1507" data-name="Group 1507" transform="translate(3511 5221)">
      <path id="Path_3114" data-name="Path 3114" d="M4259.14,6054.8s26.245-89.6-13.52-148.8-78.734-33.6-97.821-125.6c1.591.8,0-155.2,0-155.2h374.582s11.172,106.961-61.437,180c0-.8-52.489,46.4,0,175.2-1.59-.8,33,72.8,61.437,97.6h-269.8Z" transform="translate(-4148 -5265)" fill="#fff"/>
      <g id="Group_314" data-name="Group 314" transform="translate(0.034 739)">
        <path id="Path_3189" data-name="Path 3189" d="M361.383,68.65S338.4,5.738,317.044,14.693,349,63.743,357,87.259Z" transform="translate(-240.149 -10.636)" fill="#9ea03d"/>
        <path id="Path_3190" data-name="Path 3190" d="M226.708,60.428S167.351-17.306,143.285,3.556,206.1,53.943,226.651,81.249Z" transform="translate(-107.061 0)" fill="#c4c461"/>
        <path id="Path_3191" data-name="Path 3191" d="M124.639,145.036s-31.388-43.683-81.565-35.912-58.055,67.319-15.5,75.2,81.387-25.532,96.91-15.094S124.639,145.036,124.639,145.036Z" transform="translate(0 -83.273)" fill="#dde298"/>
        <path id="Path_3192" data-name="Path 3192" d="M69.156,244.939a.46.46,0,0,1-.23-.1.477.477,0,0,1-.076-.673c.074-.092,7.512-9.289,22.668-15.773a82.318,82.318,0,0,1,29.054-6.388c12.97-.541,26.937,1.613,41.513,6.374a.484.484,0,0,1-.3.922c-14.451-4.73-28.292-6.86-41.135-6.328a81.231,81.231,0,0,0-28.7,6.289c-14.956,6.386-22.277,15.421-22.346,15.511a.48.48,0,0,1-.447.166Z" transform="translate(-52.907 -170.799)" fill="#9ea03d"/>
      </g>
      <g id="Group_314-2" data-name="Group 314" transform="translate(278.447 729.326)">
        <path id="Path_3189-2" data-name="Path 3189" d="M312.031,71.957S336.4,5.251,359.045,14.745s-33.887,52.009-42.368,76.944Z" transform="translate(-301.225 -10.444)" fill="#9ea03d"/>
        <path id="Path_3190-2" data-name="Path 3190" d="M139.107,64.073s62.937-82.422,88.456-60.3S160.954,57.2,139.168,86.149Z" transform="translate(-126.618 0)" fill="#c4c461"/>
        <path id="Path_3191-2" data-name="Path 3191" d="M7.2,147.259S40.477,100.941,93.68,109.18s61.557,71.379,16.432,79.733-86.3-27.072-102.755-16S7.2,147.259,7.2,147.259Z" transform="translate(0 -81.769)" fill="#dde298"/>
        <path id="Path_3192-2" data-name="Path 3192" d="M167.634,246.327a.488.488,0,0,0,.244-.105.506.506,0,0,0,.081-.713c-.078-.1-7.965-9.849-24.036-16.725a87.284,87.284,0,0,0-30.807-6.773c-13.752-.574-28.562,1.71-44.017,6.759a.513.513,0,0,0,.315.977c15.323-5.015,30-7.274,43.616-6.71a86.13,86.13,0,0,1,30.435,6.668c15.858,6.771,23.62,16.351,23.694,16.446a.508.508,0,0,0,.474.176Z" transform="translate(-45.509 -167.715)" fill="#9ea03d"/>
      </g>
      <g id="Group_82" data-name="Group 82" transform="translate(274.99 615.71) rotate(17)">
        <rect id="Rectangle_1945" data-name="Rectangle 1945" width="67.541" height="48.453" rx="4" transform="translate(0 4.405)" fill="#78acea"/>
        <rect id="Rectangle_1946" data-name="Rectangle 1946" width="4.405" height="11.746" rx="1.5" transform="translate(14.683)" fill="#0e0e0e"/>
        <rect id="Rectangle_1947" data-name="Rectangle 1947" width="4.405" height="11.746" rx="1.5" transform="translate(46.985)" fill="#0e0e0e"/>
        <rect id="Rectangle_1948" data-name="Rectangle 1948" width="38.175" height="4.405" rx="1" transform="translate(19.088 19.088)" fill="#fff"/>
        <rect id="Rectangle_1949" data-name="Rectangle 1949" width="38.175" height="4.405" rx="1" transform="translate(19.088 29.366)" fill="#fff"/>
        <rect id="Rectangle_1950" data-name="Rectangle 1950" width="38.175" height="4.405" rx="1" transform="translate(19.088 39.644)" fill="#fff"/>
        <rect id="Rectangle_1951" data-name="Rectangle 1951" width="7.341" height="4.405" rx="1" transform="translate(16.151 23.493) rotate(180)" fill="#beebfa"/>
        <rect id="Rectangle_1952" data-name="Rectangle 1952" width="7.341" height="4.405" rx="1" transform="translate(16.151 33.771) rotate(180)" fill="#beebfa"/>
        <rect id="Rectangle_1953" data-name="Rectangle 1953" width="7.341" height="4.405" rx="1" transform="translate(16.151 44.049) rotate(180)" fill="#beebfa"/>
        <circle id="Ellipse_396" data-name="Ellipse 396" cx="10.278" cy="10.278" r="10.278" transform="translate(55.795 35.239)" fill="#db9b6d"/>
        <circle id="Ellipse_397" data-name="Ellipse 397" cx="10.278" cy="10.278" r="10.278" transform="translate(54.327 33.771)" fill="#f7cc7f"/>
        <path id="Path_3169" data-name="Path 3169" d="M44,25v7.709l4.4,2.569" transform="translate(20.605 11.707)" fill="none" stroke="#fff" stroke-linecap="round" stroke-linejoin="round" stroke-width="1"/>
      </g>
      <g id="Group_113" data-name="Group 113" transform="translate(50.297 633.996) rotate(-19)">
        <path id="Path_3115" data-name="Path 3115" d="M33.7,7.2c-8.5-7.464-23.546-5.287-30.01-3.265L0,46.853c9.973-5.6,26.624-3.474,33.7-.364Z" transform="translate(0 0.696)" fill="#b4cff1"/>
        <path id="Path_3116" data-name="Path 3116" d="M25,7.2C33.5-.262,48.546,1.915,55.01,3.936L58.7,46.853c-9.973-5.6-26.624-3.474-33.7-.364Z" transform="translate(8.704 0.696)" fill="#b4cff1"/>
        <path id="Path_3117" data-name="Path 3117" d="M33.7,5.2c-8.5-7.464-23.546-5.287-30.01-3.265L0,44.853c9.973-5.6,26.624-.777,33.7,2.332Z" transform="translate(0 0)" fill="#c8e1ff"/>
        <path id="Path_3118" data-name="Path 3118" d="M25,5.2C33.5-2.262,48.546-.085,55.01,1.936L58.7,44.853c-9.973-5.6-26.624-.777-33.7,2.332Z" transform="translate(8.704 0)" fill="#c8e1ff"/>
        <rect id="Rectangle_1908" data-name="Rectangle 1908" width="2.696" height="43.141" rx="1" transform="translate(32.355 4.044)" fill="#aecef5"/>
        <path id="Path_3119" data-name="Path 3119" d="M29,6.885c4.269-1.123,14.425-2.7,20.9,0" transform="translate(10.096 1.878)" fill="none" stroke="#78acea" stroke-linecap="round" stroke-width="1"/>
        <path id="Path_3120" data-name="Path 3120" d="M5,6.885c4.269-1.123,14.425-2.7,20.9,0" transform="translate(1.741 1.878)" fill="none" stroke="#78acea" stroke-linecap="round" stroke-width="1"/>
        <path id="Path_3121" data-name="Path 3121" d="M29,11.489c4.269-1.123,14.425-2.7,20.9,0" transform="translate(10.096 3.481)" fill="none" stroke="#78acea" stroke-linecap="round" stroke-width="1"/>
        <path id="Path_3122" data-name="Path 3122" d="M5,11.489c4.269-1.123,14.425-2.7,20.9,0" transform="translate(1.741 3.481)" fill="none" stroke="#78acea" stroke-linecap="round" stroke-width="1"/>
        <path id="Path_3123" data-name="Path 3123" d="M29,16.489c4.269-1.123,14.425-2.7,20.9,0" transform="translate(10.096 5.222)" fill="none" stroke="#78acea" stroke-linecap="round" stroke-width="1"/>
        <path id="Path_3124" data-name="Path 3124" d="M5,16.489c4.269-1.123,14.425-2.7,20.9,0" transform="translate(1.741 5.222)" fill="none" stroke="#78acea" stroke-linecap="round" stroke-width="1"/>
        <path id="Path_3125" data-name="Path 3125" d="M29,21.489c4.269-1.123,14.425-2.7,20.9,0" transform="translate(10.096 6.963)" fill="none" stroke="#78acea" stroke-linecap="round" stroke-width="1"/>
        <path id="Path_3126" data-name="Path 3126" d="M5,21.489c4.269-1.123,14.425-2.7,20.9,0" transform="translate(1.741 6.963)" fill="none" stroke="#78acea" stroke-linecap="round" stroke-width="1"/>
        <path id="Path_3127" data-name="Path 3127" d="M29,26.489c4.269-1.123,14.425-2.7,20.9,0" transform="translate(10.096 8.704)" fill="none" stroke="#78acea" stroke-linecap="round" stroke-width="1"/>
        <path id="Path_3128" data-name="Path 3128" d="M5,26.489c4.269-1.123,14.425-2.7,20.9,0" transform="translate(1.741 8.704)" fill="none" stroke="#78acea" stroke-linecap="round" stroke-width="1"/>
        <path id="Path_3129" data-name="Path 3129" d="M6,39.348A1.348,1.348,0,0,1,7.348,38H51.837v5.393H7.348A1.348,1.348,0,0,1,6,42.044Z" transform="translate(2.089 13.229)" fill="#ff7575"/>
        <path id="Path_3130" data-name="Path 3130" d="M6,41.348A1.348,1.348,0,0,1,7.348,40H51.837v2.7H7.348A1.348,1.348,0,0,1,6,41.348Z" transform="translate(2.089 13.926)" fill="#ff5a5a"/>
        <path id="Path_3131" data-name="Path 3131" d="M6,39.348A1.348,1.348,0,0,1,7.348,38h2.7v5.393h-2.7A1.348,1.348,0,0,1,6,42.044Z" transform="translate(2.089 13.229)" fill="#1e0000"/>
        <path id="Path_3132" data-name="Path 3132" d="M45.393,40.7,40,38v5.393Z" transform="translate(13.926 13.229)" fill="#f7cc7f"/>
        <path id="Path_3133" data-name="Path 3133" d="M44.7,40.348,42,39v2.7Z" transform="translate(14.622 13.578)"/>
        <rect id="Rectangle_1909" data-name="Rectangle 1909" width="4.044" height="17.526" rx="1.5" transform="translate(63.363 12.133)" fill="#222744"/>
        <rect id="Rectangle_1910" data-name="Rectangle 1910" width="4.044" height="17.526" rx="1.5" transform="translate(56.622 22.918) rotate(-90)" fill="#222744"/>
      </g>
      <rect id="Rectangle_1911" data-name="Rectangle 1911" width="89.439" height="62.608" rx="4" transform="translate(245.053 528.755) rotate(11)" fill="#f7cc7f"/>
      <rect id="Rectangle_1912" data-name="Rectangle 1912" width="80.496" height="42.484" rx="3" transform="translate(246.456 544.973) rotate(11)" fill="#25636b"/>
      <rect id="Rectangle_1913" data-name="Rectangle 1913" width="20.124" height="29.068" rx="1" transform="translate(260.541 554.544) rotate(11)" fill="#fff"/>
      <rect id="Rectangle_1914" data-name="Rectangle 1914" width="20.124" height="29.068" rx="1" transform="translate(286.879 559.664) rotate(11)" fill="#fff"/>
      <line id="Line_490" data-name="Line 490" y1="7.081" transform="translate(262.8 526.32) rotate(11)" fill="none" stroke="#000" stroke-linecap="round" stroke-width="1"/>
      <line id="Line_491" data-name="Line 491" y1="7.081" transform="translate(317.673 536.986) rotate(11)" fill="none" stroke="#000" stroke-linecap="round" stroke-width="1"/>
      <g id="Group_91" data-name="Group 91" transform="matrix(0.883, -0.469, 0.469, 0.883, 62.142, 718.891)">
        <path id="Path_3170" data-name="Path 3170" d="M3,5.591A1.591,1.591,0,0,1,4.591,4h41.37a3.182,3.182,0,0,1,3.182,3.182v54.1a3.182,3.182,0,0,1-3.182,3.182H6.182A3.182,3.182,0,0,1,3,61.282Z" transform="translate(1.773 2.365)" fill="#ff7d7d"/>
        <circle id="Ellipse_398" data-name="Ellipse 398" cx="6.365" cy="6.365" r="6.365" transform="translate(4.773)" fill="#df4545"/>
        <path id="Path_3171" data-name="Path 3171" d="M7,0H40.414a6.365,6.365,0,0,1,6.365,6.365v6.365H7Z" transform="translate(4.138)" fill="#df4545"/>
        <path id="Path_3172" data-name="Path 3172" d="M24.5,8c.663,0,1.437-.018,2.266,0h9.667V17.55c0-8.485-5.524-9.458-9.667-9.547Z" transform="translate(14.483 4.726)" fill="#df4545"/>
        <path id="Path_3173" data-name="Path 3173" d="M8,23.912V8h6.365V23.912l-3.182-4.42Z" transform="translate(4.729 4.729)" fill="#ff7d7d"/>
        <path id="Path_3174" data-name="Path 3174" d="M49.094,7.365A6.365,6.365,0,0,0,42.73,1H9.315A6.366,6.366,0,0,0,3,6.569a6.366,6.366,0,0,0,6.315,5.569H39.427a11.672,11.672,0,0,1,6.339,1.591h3.329V12.138h0Zm0,6.365H45.766c1.924,1.308,3.329,3.677,3.329,7.956Z" transform="translate(1.773 0.591)" fill="#ffd7d7" fill-rule="evenodd"/>
        <path id="Path_3175" data-name="Path 3175" d="M12.538,21.229v9.258H10.581v-7.4h-.054l-2.12,1.329V22.68L10.7,21.229Zm2.2,9.258v-1.41l3.3-3.051q.42-.407.705-.732a2.782,2.782,0,0,0,.438-.637,1.58,1.58,0,0,0,.149-.683,1.285,1.285,0,0,0-.185-.7,1.217,1.217,0,0,0-.506-.457,1.586,1.586,0,0,0-.728-.163,1.53,1.53,0,0,0-.741.172,1.183,1.183,0,0,0-.488.493,1.6,1.6,0,0,0-.172.764H14.648a2.95,2.95,0,0,1,.411-1.577,2.747,2.747,0,0,1,1.153-1.035A3.811,3.811,0,0,1,17.92,21.1a3.97,3.97,0,0,1,1.731.353,2.747,2.747,0,0,1,1.153.967,2.507,2.507,0,0,1,.411,1.419,2.724,2.724,0,0,1-.208,1.035,4.328,4.328,0,0,1-.728,1.135A16.786,16.786,0,0,1,18.8,27.5L17.45,28.823v.063h3.888v1.6Zm11.729-6.943V24.99H22.286V23.543ZM23.235,21.88h1.926v6.473a.878.878,0,0,0,.081.416.449.449,0,0,0,.226.2.933.933,0,0,0,.344.059,1.641,1.641,0,0,0,.271-.023l.208-.041.3,1.433q-.145.045-.407.1a3.267,3.267,0,0,1-.637.077,2.927,2.927,0,0,1-1.22-.185,1.7,1.7,0,0,1-.809-.66,2.018,2.018,0,0,1-.285-1.13ZM29.8,26.472v4.014H27.871V21.229h1.871v3.539h.081a1.966,1.966,0,0,1,.759-.963,2.307,2.307,0,0,1,1.315-.353,2.442,2.442,0,0,1,1.261.316,2.113,2.113,0,0,1,.841.9,2.959,2.959,0,0,1,.3,1.4v4.421H32.373V26.409a1.4,1.4,0,0,0-.326-1,1.173,1.173,0,0,0-.913-.357,1.418,1.418,0,0,0-.7.167,1.186,1.186,0,0,0-.47.488A1.652,1.652,0,0,0,29.8,26.472Z" transform="translate(4.969 12.475)" fill="#fff"/>
        <path id="Path_3176" data-name="Path 3176" d="M0,14.591A1.591,1.591,0,0,1,1.591,13h41.37a3.182,3.182,0,0,1,3.182,3.182v54.1a3.182,3.182,0,0,1-3.182,3.182H3.182A3.182,3.182,0,0,1,0,70.282Z" transform="translate(0 7.685)" fill="#9fcaff"/>
        <circle id="Ellipse_399" data-name="Ellipse 399" cx="6.365" cy="6.365" r="6.365" transform="translate(0 14.32)" fill="#5896e2"/>
        <path id="Path_3177" data-name="Path 3177" d="M4,9H37.414a6.365,6.365,0,0,1,6.365,6.365v6.365H4Z" transform="translate(2.365 5.32)" fill="#5896e2"/>
        <path id="Path_3178" data-name="Path 3178" d="M21.5,17c.663,0,1.437-.018,2.266,0h9.667V26.55c0-8.485-5.524-9.458-9.667-9.547Z" transform="translate(12.71 10.047)" fill="#5896e2"/>
        <path id="Path_3179" data-name="Path 3179" d="M5,32.912V17h6.365V32.912l-3.182-4.42Z" transform="translate(2.956 10.05)" fill="#ff7d7d"/>
        <path id="Path_3180" data-name="Path 3180" d="M46.094,16.365A6.365,6.365,0,0,0,39.73,10H6.315A6.366,6.366,0,0,0,0,15.569a6.366,6.366,0,0,0,6.315,5.569H36.427a11.67,11.67,0,0,1,6.339,1.591h3.329V21.138h0Zm0,6.365H42.766c1.924,1.308,3.329,3.677,3.329,7.956Z" transform="translate(0 5.912)" fill="#d3e7ff" fill-rule="evenodd"/>
        <path id="Path_3181" data-name="Path 3181" d="M9.538,30.229v9.258H7.581v-7.4H7.526l-2.12,1.329V31.68L7.7,30.229Zm2.2,9.258v-1.41l3.3-3.051q.42-.407.705-.732a2.782,2.782,0,0,0,.438-.637,1.58,1.58,0,0,0,.149-.683,1.285,1.285,0,0,0-.185-.7,1.217,1.217,0,0,0-.506-.457,1.586,1.586,0,0,0-.728-.163,1.53,1.53,0,0,0-.741.172,1.183,1.183,0,0,0-.488.493,1.6,1.6,0,0,0-.172.764H11.648a2.951,2.951,0,0,1,.411-1.577,2.747,2.747,0,0,1,1.153-1.035A3.811,3.811,0,0,1,14.92,30.1a3.97,3.97,0,0,1,1.731.353,2.747,2.747,0,0,1,1.153.967,2.507,2.507,0,0,1,.411,1.419,2.724,2.724,0,0,1-.208,1.035,4.328,4.328,0,0,1-.728,1.135A16.785,16.785,0,0,1,15.8,36.5L14.45,37.823v.063h3.888v1.6Zm11.729-6.943V33.99H19.286V32.543ZM20.235,30.88h1.926v6.473a.878.878,0,0,0,.081.416.449.449,0,0,0,.226.2.933.933,0,0,0,.344.059,1.64,1.64,0,0,0,.271-.023l.208-.041.3,1.433q-.145.045-.407.1a3.268,3.268,0,0,1-.637.077,2.927,2.927,0,0,1-1.22-.185,1.7,1.7,0,0,1-.809-.66,2.018,2.018,0,0,1-.285-1.13ZM26.8,35.472v4.014H24.871V30.229h1.871v3.539h.081a1.966,1.966,0,0,1,.759-.963,2.307,2.307,0,0,1,1.315-.353,2.442,2.442,0,0,1,1.261.316,2.113,2.113,0,0,1,.841.9,2.959,2.959,0,0,1,.3,1.4v4.421H29.373V35.409a1.4,1.4,0,0,0-.326-1,1.172,1.172,0,0,0-.913-.357,1.418,1.418,0,0,0-.7.167,1.186,1.186,0,0,0-.47.488A1.652,1.652,0,0,0,26.8,35.472Z" transform="translate(3.196 17.795)" fill="#fff"/>
      </g>
      <g id="Group_167_1_" data-name="Group 167 (1)" transform="translate(22 556)">
        <rect id="Rectangle_1915" data-name="Rectangle 1915" width="11.371" height="39.798" rx="1" transform="translate(5.685 0.63)" fill="#cb3838"/>
        <rect id="Rectangle_1916" data-name="Rectangle 1916" width="11.371" height="2.274" transform="translate(5.685 6.316)" fill="#f7cc7f"/>
        <rect id="Rectangle_1917" data-name="Rectangle 1917" width="11.371" height="1.137" transform="translate(5.685 9.727)" fill="#f7cc7f"/>
        <rect id="Rectangle_1918" data-name="Rectangle 1918" width="11.371" height="1.137" transform="translate(5.685 33.606)" fill="#f7cc7f"/>
        <rect id="Rectangle_1919" data-name="Rectangle 1919" width="11.371" height="39.798" rx="1" transform="translate(31.171 1.718) rotate(-8.69)" fill="#4fa299"/>
        <rect id="Rectangle_1920" data-name="Rectangle 1920" width="11.371" height="2.274" transform="translate(32.03 7.338) rotate(-8.69)" fill="#f7cc7f"/>
        <rect id="Rectangle_1921" data-name="Rectangle 1921" width="11.371" height="1.137" transform="translate(32.546 10.71) rotate(-8.69)" fill="#f7cc7f"/>
        <rect id="Rectangle_1922" data-name="Rectangle 1922" width="11.371" height="1.137" transform="translate(36.153 34.315) rotate(-8.69)" fill="#f7cc7f"/>
        <rect id="Rectangle_1923" data-name="Rectangle 1923" width="11.371" height="39.798" rx="1" transform="translate(19.33 0.63)" fill="#4e88ff"/>
        <rect id="Rectangle_1924" data-name="Rectangle 1924" width="4.548" height="20.467" rx="1" transform="translate(22.742 2.905)" fill="#afcdfb"/>
        <rect id="Rectangle_1925" data-name="Rectangle 1925" width="11.371" height="3.411" transform="translate(19.33 30.195)" fill="#1e3668"/>
        <rect id="Rectangle_1926" data-name="Rectangle 1926" width="53.443" height="4.548" rx="2" transform="translate(0 40.428)" fill="#9c3f17"/>
      </g>
      <g id="Group_313" data-name="Group 313" transform="translate(84.357 627.534) rotate(-7)">
        <path id="Path_3084" data-name="Path 3084" d="M327.621,342.794c6.576-8.984,11.585-16.624,11.585-16.624l3.373-35.947s-18.046,5.255-26.174,14.3c-1.645,1.832-24.995,33.454-18.994,66.714Z" transform="translate(-254.753 -249.414)" fill="#fff"/>
        <path id="Path_3085" data-name="Path 3085" d="M297.7,363.392a.484.484,0,0,1-.481-.487c.05-8.518,2.241-18.924,6.172-29.3,3.714-9.8,8.576-18.457,13.339-23.741,4.474-4.965,10.817-8.25,15.35-10.133a60,60,0,0,1,8.849-2.927.485.485,0,0,1,.589.488l-1.145,34.556a.486.486,0,0,1-.079.25c-.05.077-5.092,7.754-11.6,16.645a.484.484,0,0,1-.781-.571c6.068-8.283,10.849-15.509,11.5-16.492l1.118-33.781c-2.929.754-15.694,4.413-23.08,12.612-4.689,5.2-9.479,13.739-13.152,23.435-3.892,10.273-6.068,20.561-6.11,28.963a.484.484,0,0,1-.487.484Z" transform="translate(-255.436 -255.077)" fill="#31313c"/>
        <path id="Path_3086" data-name="Path 3086" d="M399.43,918.663S433.738,941.9,432.464,949.6c-.364,2.191-11.723.084-11.723.084Z" transform="translate(-343.549 -791.181)" fill="#ff9353"/>
        <path id="Path_3087" data-name="Path 3087" d="M518.2,387.25a.484.484,0,0,1-.43-.7,32.275,32.275,0,0,1,7.569-9.491,61.68,61.68,0,0,1,10.548-6.312.483.483,0,0,1,.405.877,60.581,60.581,0,0,0-10.344,6.192,32.03,32.03,0,0,0-7.31,9.17.487.487,0,0,1-.439.266Z" transform="translate(-445.52 -318.791)" fill="#31313c"/>
        <path id="Path_3088" data-name="Path 3088" d="M243.646,628.673s.327,26.3-20.752,32.932c-2.805.883-7.034,3.487-7.6,6.372,0,0-1.727-.867-9.133,61.185H159.924c2.3-7.122-6.253-25.979-3.91-32.824,12.072-35.222,19.734-53.235,19.734-53.235Z" transform="translate(-133.35 -541.186)" fill="#fff"/>
        <path id="Path_3089" data-name="Path 3089" d="M519.54,727.747a.418.418,0,0,1-.059,0,.464.464,0,0,1-.18-.059.474.474,0,0,1-.143-.123.482.482,0,0,1-.1-.357c1.441-11.755,2.758-21.9,4.013-31.009l.058-.414c.023-.165.047-.331.069-.494.605-4.364,1.193-8.44,1.749-12.119v-.014c2.147-14.215,3.11-17.941,3.194-18.256.458-2.269,2.826-4.071,4.2-4.944a16.956,16.956,0,0,1,1.7-.953c.159-.079.327-.157.528-.248l.317-.138.039-.015c.3-.127.6-.24.883-.335.07-.026.149-.051.226-.075h.01l.04-.012.026-.01c.083-.025.165-.052.247-.079l.034-.014a26.783,26.783,0,0,0,3.984-1.663c.621-.321,1.241-.674,1.834-1.051a25.115,25.115,0,0,0,4.082-3.193l.032-.033a32.19,32.19,0,0,0,8.247-14.258l.007-.023a46.756,46.756,0,0,0,1.455-6.62,39.917,39.917,0,0,0,.454-5.517.484.484,0,0,1,.477-.49h0a.483.483,0,0,1,.483.479,40.04,40.04,0,0,1-.463,5.663,47.836,47.836,0,0,1-1.491,6.786.19.19,0,0,1,0,.022,33.146,33.146,0,0,1-8.467,14.628.37.37,0,0,1-.03.033,26.027,26.027,0,0,1-4.275,3.346c-.619.39-1.259.757-1.9,1.091a27.972,27.972,0,0,1-4.093,1.713l-.034.012c-.094.032-.188.062-.284.091l-.026.01-.028.01-.032.01c-.065.021-.138.041-.2.066q-.414.138-.84.32l-.036.014-.287.123c-.185.084-.343.159-.494.233a16.142,16.142,0,0,0-1.6.9c-2.122,1.35-3.5,2.929-3.775,4.333l-.008.036c-.01.034-.986,3.667-3.172,18.148v.014c-.552,3.677-1.143,7.754-1.749,12.117-.022.164-.045.33-.069.5l-.058.414c-1.258,9.1-2.571,19.246-4.011,31a.487.487,0,0,1-.163.294.479.479,0,0,1-.314.117Zm15.678-68.223h0Z" transform="translate(-446.675 -538.22)" fill="#31313c"/>
        <path id="Path_3090" data-name="Path 3090" d="M166.609,786a.481.481,0,0,1-.321-.121.5.5,0,0,1-.114-.15.486.486,0,0,1-.021-.371c2.648-7.632,4.456-14.058,6.052-19.722,1.55-5.508,3.015-10.711,4.965-16,.749-2.034,1.454-3.942,2.107-5.7,1.683-4.532,3.31-8.869,4.827-12.89v-.011c.171-.455.262-.69.262-.69a.484.484,0,0,1,.9.345s-.088.23-.254.673l-.017.043c-1.517,4.015-3.14,8.344-4.827,12.868-.652,1.761-1.357,3.667-2.106,5.7-1.931,5.249-3.391,10.435-4.937,15.925-1.6,5.68-3.412,12.121-6.068,19.781a.486.486,0,0,1-.175.232.474.474,0,0,1-.276.09Z" transform="translate(-142.421 -628.59)" fill="#31313c"/>
        <path id="Path_3091" data-name="Path 3091" d="M77,873.352c-.33-.116-.665-.234-1-.361a48.836,48.836,0,0,1-8.224-3.938c-15.332-9.24-23.516-23.618-27.542-31.613a61.432,61.432,0,0,0-2.939-5.7c-.257-.306-1.335,1.793-3.02,5.7-1.547,3.586-11.014,27.506-20.423,51.443C9.21,900.706,4.577,912.532.92,921.908a28.94,28.94,0,0,0,11.043,1.945c22.024-.217,34.4,9.416,66.309,8.239l8.307-44.862,2.316-12.515.008-.041v-.028C88.159,875.845,83.1,875.464,77,873.352Z" transform="translate(0 -716.221)" fill="#31313c"/>
        <path id="Path_3092" data-name="Path 3092" d="M508.093,481.825a.482.482,0,0,1-.428-.257,7.271,7.271,0,0,0-4.943-3.343c-.477-.125-.676-.178-.819-.352a.484.484,0,0,1,.659-.7c.073.028.25.074.414.116,1.221.321,4.081,1.073,5.55,3.823a.483.483,0,0,1-.2.654.469.469,0,0,1-.234.058Z" transform="translate(-431.793 -410.5)" fill="#31313c"/>
        <path id="Path_3093" data-name="Path 3093" d="M575.354,145.147,638.3,140.86a6.433,6.433,0,0,0,5.677-7.123L635.081,10.8a6.5,6.5,0,0,0-6.648-6.283L565.484,8.808a6.432,6.432,0,0,0-5.675,7.123l8.9,122.934A6.494,6.494,0,0,0,575.354,145.147Z" transform="translate(-481.792 -3.102)" fill="#31313c"/>
        <path id="Path_3094" data-name="Path 3094" d="M601.929,143.715l63.778-4.345A6,6,0,0,0,671,132.727L662.047,9.1a6.067,6.067,0,0,0-6.206-5.86L592.062,7.59a6,6,0,0,0-5.293,6.643l8.951,123.62A6.081,6.081,0,0,0,601.929,143.715Z" transform="translate(-505.034 -2.004)" fill="#fff"/>
        <path id="Path_3095" data-name="Path 3095" d="M589.033,63.188l-.167,1.758v.179l.019.266.058-.033h.01c.072-.044.138-.086.217-.127ZM669.567,130.7l-.3-4.091-.389-5.393-.065-.9-.37-5.085L667.205,98.17l-.379-5.241-1.1-15.129L660.61,7.083A6.38,6.38,0,0,0,654.092.921L590.32,5.262a5.605,5.605,0,0,0-1.517.32,6.5,6.5,0,0,0-4.04,6.664l2.16,29.978.034.485.934,12.883.389,5.388V61l.331,4.558.086,1.178v.022l.8,11.033.483,6.675,2.611,36.028.051.71L593.7,135.87a6.567,6.567,0,0,0,4.965,6.051,5.543,5.543,0,0,0,1.546.11l61.452-4.187,2.328-.157A6.313,6.313,0,0,0,669.567,130.7Zm-7.6,6.482-1.117.076L600.181,141.4a5.755,5.755,0,0,1-5.881-5.558l-1.058-14.619-.065-.9L590.529,83.77l-.432-5.962-.909-12.568-.156-2.052v-.021l-.565-7.79v-.123l-.921-12.708-.037-.531-2.158-29.8a5.7,5.7,0,0,1,5.023-6.3L652.16,1.7l2-.138a5.756,5.756,0,0,1,5.879,5.558l5.11,70.676L666.2,92.329l.39,5.4,1.226,16.917.341,4.717.138,1.847.371,5.113.319,4.413a5.7,5.7,0,0,1-5.02,6.3Zm-72.93-74-.167,1.758v.179l.019.266.058-.033h.01c.072-.044.138-.086.217-.127Zm0,0-.167,1.758v.179l.019.266a.673.673,0,0,0,.058-.034h.01c.072-.044.138-.086.217-.127Z" transform="translate(-503.305 0)" fill="#31313b"/>
        <path id="Path_3096" data-name="Path 3096" d="M627.093,65.888l8.163,112.741a3.085,3.085,0,0,0,3.154,2.982l60.515-4.124a3.053,3.053,0,0,0,2.695-3.38l-8.163-112.74a3.085,3.085,0,0,0-3.154-2.983L629.79,62.508A3.054,3.054,0,0,0,627.093,65.888Z" transform="translate(-539.805 -49.544)" fill="#f5f5f5"/>
        <path id="Path_3097" data-name="Path 3097" d="M852.335,37.166A1.209,1.209,0,0,0,851.094,36a1.193,1.193,0,0,0-1.055,1.325,1.208,1.208,0,0,0,1.241,1.168A1.193,1.193,0,0,0,852.335,37.166Z" transform="translate(-732.008 -30.248)" fill="#31313b"/>
        <path id="Path_3098" data-name="Path 3098" d="M873.938,950.981l11.6-.79a1.487,1.487,0,0,0,1.309-1.641l-.094-1.288a1.5,1.5,0,0,0-1.532-1.448l-11.6.79a1.486,1.486,0,0,0-1.307,1.641l.092,1.288A1.5,1.5,0,0,0,873.938,950.981Z" transform="translate(-751.209 -814.585)" fill="#fff"/>
        <path id="Path_3099" data-name="Path 3099" d="M885.272,946.461l-.094-1.29a1.815,1.815,0,0,0-1.851-1.75l-11.6.79a1.8,1.8,0,0,0-1.581,1.986l.094,1.287a1.813,1.813,0,0,0,1.851,1.75l11.6-.79A1.785,1.785,0,0,0,885.272,946.461Zm-14.44.982-.094-1.287a1.175,1.175,0,0,1,1.036-1.3l11.6-.79a1.189,1.189,0,0,1,1.212,1.147l.094,1.287a1.174,1.174,0,0,1-1.036,1.3l-11.6.79a1.181,1.181,0,0,1-1.212-1.142Z" transform="translate(-749.341 -812.522)" fill="#31313b"/>
        <g id="Group_1492" data-name="Group 1492" transform="translate(103.053 7.535)" opacity="0.3">
          <path id="Path_3100" data-name="Path 3100" d="M741.461,52.143l51.87,29.3L791.2,51.947a3.084,3.084,0,0,0-3.154-2.983Z" transform="translate(-741.461 -48.958)" fill="#fff"/>
        </g>
        <g id="Group_1493" data-name="Group 1493" transform="translate(91.384 83.539)" opacity="0.3">
          <path id="Path_3101" data-name="Path 3101" d="M656.851,600.043l3.2,44.251a3.085,3.085,0,0,0,3.154,2.983l60.515-4.124a3.055,3.055,0,0,0,2.695-3.38l-.284-3.925Z" transform="translate(-656.851 -600.043)" fill="#fff"/>
        </g>
        <g id="Group_1494" data-name="Group 1494" transform="translate(86.415 11.568)" opacity="0.3">
          <path id="Path_3102" data-name="Path 3102" d="M620.834,81.689l.965,13.287,70.115,47.305-1.734-23.85L625,78.2l-1.479.1A3.055,3.055,0,0,0,620.834,81.689Z" transform="translate(-620.825 -78.203)" fill="#fff"/>
        </g>
        <rect id="Rectangle_1891" data-name="Rectangle 1891" width="62.037" height="38.468" rx="3" transform="translate(89.465 16.086) rotate(-3.784)" fill="#fff"/>
        <rect id="Rectangle_1892" data-name="Rectangle 1892" width="58.849" height="5.995" rx="2" transform="translate(92.797 47.055) rotate(-3.784)" fill="#d7e9ff"/>
        <rect id="Rectangle_1893" data-name="Rectangle 1893" width="19.129" height="18.997" rx="3" transform="translate(91.818 57.504) rotate(-4.983)" fill="#fff"/>
        <rect id="Rectangle_1894" data-name="Rectangle 1894" width="16.324" height="12.406" rx="3" transform="translate(92.784 17.871) rotate(-3.44)" fill="#f0f7ff"/>
        <rect id="Rectangle_1895" data-name="Rectangle 1895" width="16.324" height="12.406" rx="3" transform="translate(93.667 32.268) rotate(-3.44)" fill="#f0f7ff"/>
        <rect id="Rectangle_1896" data-name="Rectangle 1896" width="16.324" height="12.406" rx="3" transform="translate(111.81 16.678) rotate(-3.44)" fill="#f0f7ff"/>
        <rect id="Rectangle_1897" data-name="Rectangle 1897" width="16.324" height="12.406" rx="3" transform="translate(112.694 31.075) rotate(-3.44)" fill="#f0f7ff"/>
        <rect id="Rectangle_1898" data-name="Rectangle 1898" width="16.324" height="12.406" rx="3" transform="translate(130.846 15.691) rotate(-3.44)" fill="#f0f7ff"/>
        <rect id="Rectangle_1899" data-name="Rectangle 1899" width="16.324" height="12.406" rx="3" transform="translate(131.73 30.088) rotate(-3.44)" fill="#f0f7ff"/>
        <rect id="Rectangle_1900" data-name="Rectangle 1900" width="19.129" height="18.997" rx="3" transform="translate(93.887 78.467) rotate(-4.983)" fill="#fff"/>
        <rect id="Rectangle_1901" data-name="Rectangle 1901" width="19.129" height="18.997" rx="3" transform="translate(95.956 100.12) rotate(-4.983)" fill="#fff"/>
        <rect id="Rectangle_1902" data-name="Rectangle 1902" width="19.129" height="18.997" rx="3" transform="translate(113.609 55.818) rotate(-4.983)" fill="#fff"/>
        <rect id="Rectangle_1903" data-name="Rectangle 1903" width="19.129" height="18.997" rx="3" transform="translate(115.678 76.781) rotate(-4.983)" fill="#fff"/>
        <rect id="Rectangle_1904" data-name="Rectangle 1904" width="19.129" height="18.997" rx="3" transform="translate(117.747 98.434) rotate(-4.983)" fill="#fff"/>
        <rect id="Rectangle_1905" data-name="Rectangle 1905" width="19.129" height="18.997" rx="3" transform="translate(134.71 54.163) rotate(-4.983)" fill="#fff"/>
        <rect id="Rectangle_1906" data-name="Rectangle 1906" width="19.129" height="18.997" rx="3" transform="translate(136.779 75.126) rotate(-4.983)" fill="#fff"/>
        <rect id="Rectangle_1907" data-name="Rectangle 1907" width="19.129" height="18.997" rx="3" transform="translate(138.848 96.779) rotate(-4.983)" fill="#fff"/>
        <path id="Path_3103" data-name="Path 3103" d="M341.046,478.65s-13.516,8.423-14.445,2.783c-3.172-19.365,10.013-31.573,18.172-39.651,5.286-5.238,36.665-26.679,39.214-19.468,1.546,4.379-6.877,12.524-13.363,19.94-4.2,4.8-7.208,9.629-7.448,11.8-.513,4.514.312,9.551-1.371,12.584C355.438,478.1,341.046,478.65,341.046,478.65Z" transform="translate(-280.348 -362.023)" fill="#fff"/>
        <path id="Path_3104" data-name="Path 3104" d="M431.425,476.079a.484.484,0,0,1-.033-.965c.117-.008,11.861-.92,18.082-8.238,2.969-3.491,4.237-7.905,3.765-13.119-.628-6.951,5.449-13.015,11.326-18.881,5.424-5.412,10.547-10.523,9.331-15.5a1.3,1.3,0,0,0-.965-1c-2.605-.788-9.516,2.15-19.474,8.275-8.6,5.278-16.369,11.028-18.673,13.153a.484.484,0,0,1-.655-.713c2.329-2.145,10.162-7.947,18.81-13.265,7.21-4.434,16.579-9.485,20.261-8.372a2.26,2.26,0,0,1,1.632,1.7c1.345,5.5-3.965,10.8-9.587,16.412-5.719,5.707-11.633,11.608-11.046,18.108.5,5.484-.848,10.14-4,13.837-1.877,2.207-5.456,5.241-11.848,7.185a33.337,33.337,0,0,1-6.9,1.379Z" transform="translate(-370.728 -358.966)" fill="#31313c"/>
        <path id="Path_3105" data-name="Path 3105" d="M1231.323,872.659a175.42,175.42,0,0,0-7.3-20.29c-.055-.119-.108-.236-.161-.352-4.689-10.164-8.329-10.846-10.311-17.1a41.276,41.276,0,0,1-.965-7.086c-.243-3.007-.448-6.671-.623-10.606-.115-2.568-.214-5.25-.3-7.94-.382-11.63-.539-23.383-.574-26.531-.008-.531-.011-.817-.011-.817.506-7.927,8.234-8.023,10.344-7.82,1.422.138,2.991,1.829,3.862,2.911a.053.053,0,0,1,.01.014c.414.516.666.891.666.891.828-1.7,7.1-3.1,9.209-2s5.013,6.424,5.013,6.424c.6-2.207,4.223-3.772,7.383-3.092s12.178,18.067,14.432,23.262c1.31,3.016,1.4,10.655,1.415,18.829.014,5.9-.01,12.072.367,16.991.232,3.063,1.847,8.4,4.106,14.6C1274.284,870.549,1232.544,876.682,1231.323,872.659Z" transform="translate(-1043.259 -666.53)" fill="#fff"/>
        <path id="Path_3106" data-name="Path 3106" d="M1233.285,871.5a15.79,15.79,0,0,1-3.172-.268c-1.142-.244-1.785-.65-1.965-1.241a172.979,172.979,0,0,0-7.274-20.237l-.16-.349a45.458,45.458,0,0,0-6.27-10.124,20.392,20.392,0,0,1-4.062-7.024,39.364,39.364,0,0,1-.98-7.185c-.222-2.758-.433-6.344-.623-10.62-.108-2.425-.21-5.1-.3-7.945-.4-12.16-.552-24.241-.575-26.54,0-.53-.011-.815-.011-.815v-.034a8.346,8.346,0,0,1,2.769-6.068c2.965-2.525,7.238-2.256,8.065-2.176,1.517.146,3.1,1.75,4.165,3.073.008.011.016.021.023.032.12.149.225.286.316.406a7.035,7.035,0,0,1,2.56-1.345c2.267-.745,5.347-1.087,6.846-.3,1.717.9,3.844,4.275,4.755,5.83,1.23-1.981,4.551-3.172,7.526-2.539,1.517.324,4.153,3.742,7.852,10.155,2.877,4.987,5.7,10.61,6.9,13.368,1.313,3.024,1.433,10.088,1.454,19.009v1.517c.01,5.39.018,10.963.361,15.447.208,2.738,1.579,7.6,4.075,14.469v.018a10.056,10.056,0,0,1-2.109,10.65c-4.366,5.016-12.654,7.761-17.205,8.951A55.2,55.2,0,0,1,1233.285,871.5Zm-4.275-1.771c.018.062.168.382,1.29.621,3.448.736,10.519-.255,15.723-1.616,4.452-1.163,12.551-3.837,16.753-8.669a9.206,9.206,0,0,0,1.947-9.734v-.017c-2.527-6.95-3.918-11.9-4.138-14.724-.345-4.517-.354-10.108-.364-15.514v-1.517c-.019-8.511-.138-15.79-1.379-18.65-1.2-2.773-4.1-8.5-6.853-13.277-4.85-8.413-6.693-9.6-7.26-9.723-2.851-.614-6.31.785-6.852,2.771a.451.451,0,0,1-.828.1c-.792-1.445-3.2-5.387-4.827-6.241-1.091-.572-3.79-.414-6.144.359-1.535.5-2.271,1.074-2.448,1.438a.458.458,0,0,1-.153.177.455.455,0,0,1-.452.032.448.448,0,0,1-.177-.154s-.245-.365-.638-.855l-.017-.022c-1.324-1.648-2.62-2.645-3.543-2.735-.763-.073-4.706-.323-7.392,1.965a7.435,7.435,0,0,0-2.454,5.417c0,.069,0,.343.011.8.026,2.3.174,14.371.574,26.522.094,2.844.195,5.517.3,7.934.19,4.275.4,7.836.622,10.591a40.178,40.178,0,0,0,.941,6.986,19.488,19.488,0,0,0,3.911,6.74,46.29,46.29,0,0,1,6.38,10.3l.16.35a173.652,173.652,0,0,1,7.318,20.35Zm-6.83-95.22.015.018v-.01Z" transform="translate(-1040.509 -663.735)" fill="#31313c"/>
        <path id="Path_3107" data-name="Path 3107" d="M1320.247,807.53a.453.453,0,0,1-.244-.072,6,6,0,0,1-2.02-2.462l-.08-.149c-3.942-7.362-6.979-11.8-7.009-11.844a.45.45,0,0,1-.072-.338.451.451,0,0,1,.815-.174c.03.044,3.094,4.521,7.061,11.93l.081.152a5.186,5.186,0,0,0,1.713,2.125.448.448,0,0,1,.181.5.452.452,0,0,1-.426.324Z" transform="translate(-1129.238 -682.242)" fill="#31313c"/>
        <path id="Path_3108" data-name="Path 3108" d="M1427.291,844.106a.437.437,0,0,1-.17-.033,6.182,6.182,0,0,1-2.75-2.649c-3.673-7.093-5.455-9.755-5.473-9.781a.439.439,0,0,1-.068-.163.45.45,0,0,1,0-.176.442.442,0,0,1,.068-.163.433.433,0,0,1,.124-.125.441.441,0,0,1,.161-.068.453.453,0,0,1,.465.19c.072.108,1.823,2.718,5.526,9.871a5.238,5.238,0,0,0,2.288,2.229.454.454,0,0,1,.228.2.452.452,0,0,1-.4.666Z" transform="translate(-1222.349 -715.556)" fill="#31313c"/>
        <path id="Path_3109" data-name="Path 3109" d="M1351.356,1288.573s-.206-.025-.6-.05-1.008-.044-1.793-.033c-4.857.081-16.637,1.465-30.776,11.585a25.68,25.68,0,0,0-4.965,4.757c-.452.563-.879,1.132-1.279,1.7a35.669,35.669,0,0,0-3.738,6.8l.873,8.239c8.689,1.874,17.86,3.8,27.8,5.046,14.946,1.873,27.3.866,36.985-1.867C1362.48,1306.354,1351.356,1288.573,1351.356,1288.573Z" transform="translate(-1126.993 -1110)" fill="#31313c"/>
        <path id="Path_3110" data-name="Path 3110" d="M1052.518,650.421a3.851,3.851,0,0,1-2.927-1.545c-4.234-6.375-12.749-18.817-17.873-26.966-6.951-11.055-11.529-15.36-13.335-14.056-4.868,3.51-2.1,11.08,4.3,23.28,6.9,13.139,19.927,46.836,21.774,52.932Z" transform="translate(-875.002 -523.044)" fill="#fff"/>
        <path id="Path_3111" data-name="Path 3111" d="M1040.351,683.387c-1.831-6.045-14.749-39.52-21.742-52.852-3.7-7.063-5.623-11.551-6.415-15.008-.965-4.231-.252-7.042,2.254-8.849a1.772,1.772,0,0,1,1.43-.268c1.8.352,5.442,3.143,12.55,14.45,3.652,5.808,9.031,13.8,13.353,20.226,1.771,2.63,3.3,4.9,4.513,6.73a3.39,3.39,0,0,0,2.558,1.343l-.014.9a4.279,4.279,0,0,1-3.3-1.747c-1.212-1.825-2.74-4.1-4.51-6.726-4.326-6.428-9.709-14.427-13.368-20.249-7.576-12.047-10.887-13.834-11.959-14.043a.9.9,0,0,0-.731.113c-2.173,1.567-2.778,4.082-1.9,7.915.774,3.378,2.669,7.8,6.335,14.79,7.014,13.371,19.97,46.946,21.806,53.009Z" transform="translate(-871.445 -521.951)" fill="#31313c"/>
        <path id="Path_3112" data-name="Path 3112" d="M1039.675,997.925s-5.543-1.459-8.989-4.077c-3.862-2.933-6.507-5.18-8.443-6.9-8.348-7.384-21.336-4.551-5.154,12.413,15.42,16.162,18.412,30.685,36.272,33.6Z" transform="translate(-869.365 -846.747)" fill="#fff"/>
        <path id="Path_3113" data-name="Path 3113" d="M1050.442,1030.581a.344.344,0,0,1-.076,0c-12.245-2-17.671-9.454-24.541-18.895a138.29,138.29,0,0,0-12-14.854c-3.67-3.847-6.088-7.214-7.188-10.01-1.241-3.172-.5-4.879.336-5.753,1.139-1.182,3.183-1.56,5.61-1.034a15.94,15.94,0,0,1,7.034,3.723c1.634,1.445,4.285,3.724,8.413,6.871,3.333,2.534,8.77,3.983,8.827,4a.466.466,0,0,1,.116.854.458.458,0,0,1-.353.048c-.23-.061-5.673-1.517-9.152-4.157-4.157-3.158-6.826-5.459-8.471-6.915-3.955-3.5-9.378-4.8-11.362-2.736-.936.965-.985,2.62-.138,4.765,1.055,2.684,3.409,5.95,7,9.708a139.54,139.54,0,0,1,12.076,14.949c3.469,4.765,6.466,8.88,10.116,12.091a26.5,26.5,0,0,0,13.821,6.427.47.47,0,0,1,.288.174.464.464,0,0,1,.1.323.466.466,0,0,1-.459.429Z" transform="translate(-866.443 -843.889)" fill="#31313c"/>
      </g>
      <g id="Group_306" data-name="Group 306" transform="matrix(0.995, 0.105, -0.105, 0.995, 113.382, 547.089)">
        <path id="Path_3182" data-name="Path 3182" d="M0,5.18A1.18,1.18,0,0,1,1.18,4H31.865a2.36,2.36,0,0,1,2.36,2.36V46.487a2.36,2.36,0,0,1-2.36,2.36H2.36A2.36,2.36,0,0,1,0,46.487Z" transform="translate(0 0.687)" fill="#78acea"/>
        <circle id="Ellipse_400" data-name="Ellipse 400" cx="4.895" cy="4.895" r="4.895" transform="translate(0 -0.311)" fill="#5b90cf"/>
        <path id="Path_3183" data-name="Path 3183" d="M4,0H28.784A4.721,4.721,0,0,1,33.5,4.721V9.442H4Z" transform="translate(0.721 -0.034)" fill="#5b90cf"/>
        <path id="Path_3184" data-name="Path 3184" d="M21.5,8c.492,0,1.066-.013,1.681,0h7.17v7.081c0-6.294-4.1-7.016-7.17-7.081Z" transform="translate(3.874 1.406)" fill="#5b90cf"/>
        <path id="Path_3185" data-name="Path 3185" d="M5,19.8V8H9.721V19.8L7.36,16.524Z" transform="translate(0.901 1.407)" fill="#3569d2"/>
        <path id="Path_3186" data-name="Path 3186" d="M34.189,5.721A4.721,4.721,0,0,0,29.468,1H4.684A4.722,4.722,0,0,0,0,5.131,4.722,4.722,0,0,0,4.684,9.261H27.019a8.657,8.657,0,0,1,4.7,1.18h2.469V9.261h0Zm0,4.721H31.72c1.427.97,2.469,2.727,2.469,5.9Z" transform="translate(0 0.146)" fill="#def0fe" fill-rule="evenodd"/>
        <rect id="Rectangle_1954" data-name="Rectangle 1954" width="11.571" height="2.67" rx="1" transform="translate(3.56 39.743)" fill="#f7cc7f"/>
        <rect id="Rectangle_1955" data-name="Rectangle 1955" width="9.791" height="2.67" rx="1" transform="translate(3.56 43.303)" fill="#ff7c7c"/>
        <path id="Path_3187" data-name="Path 3187" d="M6.746,26.048H5.19l2.37-6.867H9.432L11.8,26.048H10.243l-1.72-5.3H8.469Zm-.1-2.7h3.675v1.133H6.649Zm11.343-1.3v1.133H14.861V22.048Zm3.355,4v-.862l3.427-4.808H21.341v-1.2H26.6v.862l-3.43,4.808H26.6v1.2Z" transform="translate(0.935 3.422)" fill="#fff"/>
        <circle id="Ellipse_401" data-name="Ellipse 401" cx="9.791" cy="9.791" r="9.791" transform="translate(16.912 16.601)" fill="rgba(255,255,255,0.4)"/>
        <path id="Path_3188" data-name="Path 3188" d="M17.969,16A10.032,10.032,0,1,0,31.363,30.841Z" transform="translate(2.523 2.849)" fill="rgba(255,255,255,0.2)" fill-rule="evenodd"/>
        <circle id="Ellipse_402" data-name="Ellipse 402" cx="9.791" cy="9.791" r="9.791" transform="translate(16.912 16.601)" fill="none" stroke="#1a2e35" stroke-width="3"/>
        <line id="Line_492" data-name="Line 492" x2="8.118" y2="8.118" transform="translate(34.369 35.372)" fill="none" stroke="#1a2e35" stroke-linecap="round" stroke-width="3"/>
      </g>
      <g id="Group_1496" data-name="Group 1496" transform="translate(0 44)">
        <circle id="Ellipse_390" data-name="Ellipse 390" cx="18.719" cy="18.719" r="18.719" transform="translate(150 557)" fill="#eaeef1"/>
        <g id="Group_1495" data-name="Group 1495" transform="translate(-1.948 -1.177)">
          <path id="Path_3062" data-name="Path 3062" d="M1050.72,409.383a5.758,5.758,0,1,0,6.779,4.515A5.759,5.759,0,0,0,1050.72,409.383Zm2.394,7.428a.666.666,0,0,1-1.3.261l-.551-2.823-.435.088a.666.666,0,1,1-.275-1.3l1.084-.217a.669.669,0,0,1,.784.52Z" transform="translate(-877.705 156.906)" fill="#f44336"/>
          <path id="Path_3063" data-name="Path 3063" d="M1046.027,467.5a3.544,3.544,0,1,1-4.171-2.779,3.543,3.543,0,0,1,4.171,2.779Z" transform="translate(-872.569 116.764)" fill="#ffa000"/>
          <path id="Path_3064" data-name="Path 3064" d="M1034.006,430.554c-.09.022-.182.052-.275.071A7.513,7.513,0,0,1,1025.2,420.6a1.367,1.367,0,0,0-.259.038,6.21,6.21,0,0,0-4.862,7.3l.484,2.421a5.934,5.934,0,0,1-1.18,4.875,1.549,1.549,0,0,0,1.524,2.476l14.331-2.872a1.552,1.552,0,0,0,.443-2.881A5.928,5.928,0,0,1,1034.006,430.554Z" transform="translate(-858.106 148.693)" fill="#ffc107"/>
        </g>
      </g>
      <g id="cloudy" transform="translate(-24.75 602.496)">
        <path id="Path_3194" data-name="Path 3194" d="M42.914,62.56c.071,0,.139.008.209.011a12.431,12.431,0,0,1,23.982-4.391,9.7,9.7,0,0,1,15.6,4.406c.149-.011.3-.022.45-.022a6.323,6.323,0,1,1,0,12.646H42.914a6.323,6.323,0,1,1,0-12.646Z" transform="translate(-14.288 -6.083)" fill="#daf6ff"/>
        <path id="Path_3195" data-name="Path 3195" d="M7.484,46.592c.137,0,.272.011.407.021a8.794,8.794,0,0,1,14.151-4,11.271,11.271,0,0,1,21.509,1.858A12.4,12.4,0,0,0,28.835,56.487c-.07,0-.139-.011-.209-.011a6.29,6.29,0,0,0-4.172,1.58H7.484a5.734,5.734,0,1,1,0-11.468Z" fill="#a3d7e9"/>
      </g>
      <g id="cloudy-2" data-name="cloudy" transform="translate(330.25 546.496)">
        <path id="Path_3194-2" data-name="Path 3194" d="M42.914,62.56c.071,0,.139.008.209.011a12.431,12.431,0,0,1,23.982-4.391,9.7,9.7,0,0,1,15.6,4.406c.149-.011.3-.022.45-.022a6.323,6.323,0,1,1,0,12.646H42.914a6.323,6.323,0,1,1,0-12.646Z" transform="translate(-14.288 -6.083)" fill="#daf6ff"/>
        <path id="Path_3195-2" data-name="Path 3195" d="M7.484,46.592c.137,0,.272.011.407.021a8.794,8.794,0,0,1,14.151-4,11.271,11.271,0,0,1,21.509,1.858A12.4,12.4,0,0,0,28.835,56.487c-.07,0-.139-.011-.209-.011a6.29,6.29,0,0,0-4.172,1.58H7.484a5.734,5.734,0,1,1,0-11.468Z" fill="#a3d7e9"/>
      </g>
      <path id="Path_3196" data-name="Path 3196" d="M48.8,73.941c.137,0,.269.016.4.021a24.006,24.006,0,0,1,46.312-8.48A18.728,18.728,0,0,1,125.65,73.99c.288-.02.575-.043.868-.043a12.21,12.21,0,1,1,0,24.421H48.8a12.21,12.21,0,1,1,0-24.421Z" transform="translate(254.714 412.413)" fill="#beebfa"/>
      <rect id="Rectangle_1962" data-name="Rectangle 1962" width="52" height="20" rx="4" transform="translate(301 700)" fill="#b4e1d3"/>
      <rect id="Rectangle_1963" data-name="Rectangle 1963" width="52" height="20" rx="4" transform="translate(21 761)" fill="#8faff0"/>
      <rect id="Rectangle_1964" data-name="Rectangle 1964" width="73" height="20" rx="4" transform="translate(12 591)" fill="#ee8383"/>
      <text id="Mobile" transform="translate(310 714)" fill="#151f3e" font-size="10" font-family="Archivo-Bold, Archivo" font-weight="700"><tspan x="0" y="0">Mobile</tspan></text>
      <text id="App" transform="translate(38 775)" fill="#fff" font-size="10" font-family="Archivo-Bold, Archivo" font-weight="700"><tspan x="0" y="0">App</tspan></text>
      <text id="Multimedia" transform="translate(23 605)" fill="#fff" font-size="10" font-family="Archivo-Bold, Archivo" font-weight="700"><tspan x="0" y="0">Multimedia</tspan></text>
      <text id="Dashboard" transform="matrix(0.985, -0.174, 0.174, 0.985, 191, 666)" fill="#151f3e" font-size="8" font-family="Archivo-Bold, Archivo" font-weight="700"><tspan x="0" y="0">Dashboard</tspan></text>
      <text id="School_News" data-name="School News" transform="matrix(0.982, 0.191, -0.191, 0.982, 254.902, 542.021)" fill="#9b7b41" font-size="10" font-family="Archivo-Bold, Archivo" font-weight="700"><tspan x="0" y="0">School News</tspan></text>
      <g id="Group_1502" data-name="Group 1502" transform="translate(-13 12)">
        <rect id="Rectangle_1957" data-name="Rectangle 1957" width="50.784" height="62.392" rx="6" transform="matrix(0.899, -0.438, 0.438, 0.899, 164.382, 491.769)" fill="#ddeae6"/>
        <rect id="Rectangle_1958" data-name="Rectangle 1958" width="37.726" height="4.353" rx="1.5" transform="matrix(0.899, -0.438, 0.438, 0.899, 188.713, 525.104)" fill="#fff"/>
        <rect id="Rectangle_1959" data-name="Rectangle 1959" width="37.726" height="4.353" rx="1.5" transform="matrix(0.899, -0.438, 0.438, 0.899, 184.896, 517.279)" fill="#fff"/>
        <rect id="Rectangle_1960" data-name="Rectangle 1960" width="37.726" height="4.353" rx="1.5" transform="matrix(0.899, -0.438, 0.438, 0.899, 181.08, 509.455)" fill="#fff"/>
        <rect id="Rectangle_1961" data-name="Rectangle 1961" width="37.726" height="4.353" rx="1.5" transform="matrix(0.899, -0.438, 0.438, 0.899, 192.529, 532.929)" fill="#fff"/>
        <path id="Path_3197" data-name="Path 3197" d="M40.388,7.6a1.451,1.451,0,0,1,1.088,1.74L33.13,45.562,28.7,44.542,37.049,8.325a1.451,1.451,0,0,1,1.74-1.088Z" transform="matrix(0.899, -0.438, 0.438, 0.899, 177.44, 489.012)" fill="#ff7575"/>
        <path id="Path_3198" data-name="Path 3198" d="M38.481,7.185a1.136,1.136,0,0,1,.852,1.362L30.917,45.071l-2.214-.51L37.119,8.037A1.136,1.136,0,0,1,38.481,7.185Z" transform="matrix(0.899, -0.438, 0.438, 0.899, 177.432, 488.995)" fill="#ff5a5a"/>
        <path id="Path_3199" data-name="Path 3199" d="M37.93,7.6a1.451,1.451,0,0,1,1.088,1.74l-.439,1.906-4.427-1.02.439-1.906a1.451,1.451,0,0,1,1.74-1.088Z" transform="matrix(0.899, -0.438, 0.438, 0.899, 179.649, 487.935)" fill="#1e0000"/>
        <path id="Path_3200" data-name="Path 3200" d="M29.9,37.872l3.234-3.917L28.7,32.935Z" transform="matrix(0.899, -0.438, 0.438, 0.899, 182.528, 499.444)" fill="#f7cc7f"/>
        <path id="Path_3201" data-name="Path 3201" d="M29.711,37.105l1.617-1.959-2.214-.51Z" transform="matrix(0.899, -0.438, 0.438, 0.899, 183.031, 500.052)"/>
        <text id="Diary" transform="matrix(0.899, -0.438, 0.438, 0.899, 177.799, 504.125)" fill="#3569d2" font-size="10" font-family="Archivo-Bold, Archivo" font-weight="700"><tspan x="0" y="0">Diary</tspan></text>
      </g>
    </g>
  </g>
</svg>
