<svg height="143.166" viewBox="0 0 138.626 143.166" width="138.626" xmlns="http://www.w3.org/2000/svg"><rect fill="#d7f0eb" height="124.945" rx="8" transform="matrix(.978 -.208 .208 .978 .000464 20.949624)" width="93.709"/><rect fill="#fff" height="109.928" rx="4" transform="matrix(.978 -.208 .208 .978 9.261938 26.962554)" width="78.692"/><rect fill="#f25f5f" height="16.82" rx="4" transform="matrix(.978 -.208 .208 .978 22.125384 9.489176)" width="45.653"/><g fill="#eff4ff"><rect height="4.205" rx="2.102" transform="matrix(.978 -.208 .208 .978 22.545358 63.436338)" width="67.278"/><rect height="23.427" rx="8" transform="matrix(.978 -.208 .208 .978 16.548094 35.237664)" width="19.823"/><rect height="4.205" rx="2.102" transform="matrix(.978 -.208 .208 .978 25.79411 78.71172)" width="67.278"/><rect height="4.205" rx="2.102" transform="matrix(.978 -.208 .208 .978 29.167662 94.573902)" width="67.278"/><rect height="4.205" rx="2.102" transform="matrix(.978 -.208 .208 .978 32.416206 109.848306)" width="67.278"/><rect height="4.205" rx="2.102" transform="matrix(.978 -.208 .208 .978 35.66475 125.12271)" width="67.278"/></g><ellipse cx="110.626" cy="116.106" fill="#c5d7ff" rx="24" ry="24.5"/><path d="m110.694 94.314v3.604" fill="none" stroke="#4e88ff"/><path d="m110.694 134.561v3.604" fill="none" stroke="#4e88ff"/><path d="m0 0v3.604" fill="none" stroke="#4e88ff" transform="matrix(0 -1 1 0 88.768 116.239)"/><path d="m0 0v3.604" fill="none" stroke="#4e88ff" transform="matrix(0 -1 1 0 129.015 116.239)"/><path d="m110.694 102.123v14.417" fill="none" stroke="#111b5b"/><path d="m110.694 115.338h7.208" fill="none" stroke="#111b5b"/><circle cx="110.626" cy="115.606" fill="#4e88ff" r="2"/><path d="m7.045 5.923a4 4 0 0 1 6.91 0l3.536 6.061a4 4 0 0 1 -3.455 6.016h-7.072a4 4 0 0 1 -3.455-6.015z" fill="#fec233" transform="translate(117.626 85.606)"/><text font-family="Lato-Bold, Lato" font-size="8" font-weight="700" transform="translate(127.626 98.606)"><tspan x="-1.442" y="0">!</tspan></text></svg>