<svg height="25.446" viewBox="0 0 23 25.446" width="23" xmlns="http://www.w3.org/2000/svg"><rect fill="#fff" height="23" rx="6" width="23" y="2.446"/><path d="m6 0h11a6 6 0 0 1 6 6v1a0 0 0 0 1 0 0h-23a0 0 0 0 1 0 0v-1a6 6 0 0 1 6-6z" fill="#ef3d3d" transform="translate(0 2.446)"/><path d="m5.496 4.753v-3.753" fill="none" stroke="#090909" stroke-linecap="round" stroke-width="2"/><path d="m17.504 4.753v-3.753" fill="none" stroke="#090909" stroke-linecap="round" stroke-width="2"/><g fill="#b8c0d7"><rect height="5" rx="2" width="4" x="4" y="11.446"/><rect height="5" rx="2" width="4" x="4" y="17.446"/><rect height="5" rx="2" width="4" x="10" y="11.446"/><rect height="5" rx="2" width="4" x="10" y="17.446"/><rect height="5" rx="2" width="4" x="16" y="11.446"/><rect height="5" rx="2" width="4" x="16" y="17.446"/></g></svg>