<svg height="178.112" viewBox="0 0 149.553 178.112" width="149.553" xmlns="http://www.w3.org/2000/svg"><rect fill="#d7f0eb" height="155.444" rx="8" transform="matrix(.978 -.208 .208 .978 .000968 26.064138)" width="116.583"/><rect fill="#fff" height="136.761" rx="4" transform="matrix(.978 -.208 .208 .978 11.522958 33.544688)" width="97.9"/><rect fill="#f25f5f" height="20.925" rx="4" transform="matrix(.978 -.208 .208 .978 27.526354 11.806256)" width="56.797"/><g fill="#eff4ff"><rect height="5.231" rx="2.616" transform="matrix(.978 -.208 .208 .978 28.049418 78.922442)" width="83.7"/><rect height="29.146" rx="8" transform="matrix(.978 -.208 .208 .978 20.588042 43.839626)" width="24.662"/><rect height="5.231" rx="2.616" transform="matrix(.978 -.208 .208 .978 32.090858 97.924982)" width="83.7"/><rect height="5.231" rx="2.616" transform="matrix(.978 -.208 .208 .978 36.287882 117.659066)" width="83.7"/><rect height="5.231" rx="2.616" transform="matrix(.978 -.208 .208 .978 40.329322 136.661606)" width="83.7"/><rect height="5.231" rx="2.616" transform="matrix(.978 -.208 .208 .978 44.37097 155.665124)" width="83.7"/></g><path d="m280.787 71.6a1.914 1.914 0 0 1 0 2.7l-44.244 44.871-5.443-5.371 44.244-44.871a1.914 1.914 0 0 1 2.7 0z" fill="#ff7575" transform="translate(-131.792 -15.926)"/><path d="m278.146 68.863a1.914 1.914 0 0 1 0 2.7l-44.246 44.872-2.7-2.662 44.244-44.873a1.913 1.913 0 0 1 2.702-.037z" fill="#ff5a5a" transform="translate(-131.853 -15.895)"/><path d="m345.4 71.6a1.914 1.914 0 0 1 0 2.7l-2.658 2.7-5.442-5.365 2.662-2.7a1.914 1.914 0 0 1 2.7 0z" fill="#1e0000" transform="translate(-196.41 -15.926)"/><path d="m224.4 192.6 8.066-2.741-5.442-5.364z" fill="#f7cc7f" transform="translate(-127.715 -86.583)"/><path d="m224.4 198.933 4.033-1.37-2.7-2.662z" transform="translate(-127.715 -92.911)"/></svg>