<svg height="86.19" viewBox="0 0 99.598 86.19" width="99.598" xmlns="http://www.w3.org/2000/svg"><path d="m542.089 114.142h-.472v-12.942a7.489 7.489 0 0 0 -7.489-7.489h-27.414a7.489 7.489 0 0 0 -7.489 7.489v70.987a7.489 7.489 0 0 0 7.489 7.489h27.414a7.489 7.489 0 0 0 7.489-7.489v-48.835h.472z" fill="#3f3d56" transform="translate(-466.515 -93.713)"/><path d="m551.128 110.209v71.991a5.68 5.68 0 0 1 -5.677 5.679h-27.978a5.681 5.681 0 0 1 -5.682-5.68v-71.99a5.681 5.681 0 0 1 5.681-5.679h3.394a2.7 2.7 0 0 0 2.5 3.718h15.95a2.7 2.7 0 0 0 2.5-3.718h3.635a5.68 5.68 0 0 1 5.679 5.677z" fill="#fff" transform="translate(-477.561 -103.222)"/><circle cx="82.406" cy="24.718" fill="#f22742" r="17.192"/><g fill="#e6e6e6"><path d="m595.65 442.8h-24.861a.461.461 0 0 1 -.46-.46v-6.167a.461.461 0 0 1 .46-.46h24.861a.461.461 0 0 1 .46.46v6.167a.461.461 0 0 1 -.46.46zm-24.861-6.9a.277.277 0 0 0 -.276.276v6.167a.277.277 0 0 0 .276.276h24.861a.277.277 0 0 0 .276-.276v-6.167a.277.277 0 0 0 -.276-.276z" transform="translate(-529.018 -394.347)"/><path d="m635.357 454.074a.322.322 0 1 0 0 .645h15.193a.322.322 0 1 0 .025-.644h-15.218z" transform="translate(-585.897 -410.487)"/><path d="m635.357 470.058a.322.322 0 1 0 0 .645h15.193a.322.322 0 1 0 .025-.644h-15.218z" transform="translate(-585.897 -424.537)"/><path d="m595.65 527.781h-24.861a.461.461 0 0 1 -.46-.46v-6.167a.461.461 0 0 1 .46-.46h24.861a.461.461 0 0 1 .46.46v6.167a.461.461 0 0 1 -.46.46zm-24.861-6.9a.277.277 0 0 0 -.276.276v6.167a.276.276 0 0 0 .276.276h24.861a.276.276 0 0 0 .276-.276v-6.167a.277.277 0 0 0 -.276-.276z" transform="translate(-529.018 -469.049)"/><path d="m635.357 539.33a.322.322 0 1 0 0 .645h15.193a.322.322 0 0 0 .01-.644h-15.2z" transform="translate(-585.897 -485.431)"/><path d="m635.357 555.318a.322.322 0 1 0 0 .645h15.193a.322.322 0 1 0 .01-.645z" transform="translate(-585.897 -499.484)"/><path d="m595.65 613.039h-24.861a.461.461 0 0 1 -.46-.46v-6.167a.461.461 0 0 1 .46-.461h24.861a.461.461 0 0 1 .46.461v6.167a.461.461 0 0 1 -.46.46zm-24.861-6.9a.276.276 0 0 0 -.276.276v6.167a.277.277 0 0 0 .276.276h24.861a.277.277 0 0 0 .276-.276v-6.167a.277.277 0 0 0 -.276-.276z" transform="translate(-529.018 -543.994)"/><path d="m635.357 624.591a.322.322 0 1 0 0 .645h15.193a.322.322 0 1 0 .025-.644h-15.218z" transform="translate(-585.897 -560.379)"/><path d="m635.357 640.578a.322.322 0 1 0 0 .645h15.193a.322.322 0 1 0 .025-.644h-15.218z" transform="translate(-585.897 -574.432)"/><path d="m318.356 804.449h-89.331c-.13 0-.234-.057-.234-.126s.1-.126.234-.126h89.331c.129 0 .234.057.234.126s-.104.126-.234.126z" transform="translate(-228.791 -718.26)"/><path d="m908.01 720.4a2.356 2.356 0 0 1 -2.275-.4 4.675 4.675 0 0 1 -1.25-2.79l-.6-3.017 1.259.867a9.168 9.168 0 0 1 2.457 2.169 3.112 3.112 0 0 1 .4 3.112" transform="translate(-822.227 -639.143)"/></g><path d="m920.089 742.969a15.142 15.142 0 0 0 .21-3.489 5.487 5.487 0 0 0 -1.058-2.877 4.783 4.783 0 0 0 -1.228-1.113c-.123-.078-.236.117-.114.194a4.551 4.551 0 0 1 1.8 2.172 7.292 7.292 0 0 1 .387 3.142c-.041.64-.127 1.276-.215 1.912a.117.117 0 0 0 .079.138.113.113 0 0 0 .138-.079z" fill="#f2f2f2" transform="translate(-834.501 -657.848)"/><path d="m889.277 768.505a1.734 1.734 0 0 1 -1.511.78 3.443 3.443 0 0 1 -1.976-1.077l-1.7-1.5 1.124-.054a6.749 6.749 0 0 1 2.407.174 2.291 2.291 0 0 1 1.62 1.645" fill="#e6e6e6" transform="translate(-804.829 -685.236)"/><path d="m906.1 777.634c-.762-1.349-1.647-2.849-3.228-3.328a3.6 3.6 0 0 0 -1.358-.14c-.144.012-.108.235.036.222a3.346 3.346 0 0 1 2.167.573 5.629 5.629 0 0 1 1.489 1.607c.247.375.468.767.688 1.158.067.124.273.034.206-.092z" fill="#f2f2f2" transform="translate(-820.06 -691.849)"/><g transform="translate(42.94 42.939)"><circle cx="1.934" cy="1.934" fill="#f22742" r="1.934"/><path d="m591.831 461.712a1.309 1.309 0 0 0 0 .645h1.9c.022 0 .041-.139.041-.317a.719.719 0 0 0 -.04-.328h-1.9z" fill="#e6e6e6" transform="translate(-590.823 -460.14)"/></g><g transform="translate(42.94 53.256)"><circle cx="1.934" cy="1.934" fill="#f22742" r="1.934"/><path d="m591.831 547.005a1.31 1.31 0 0 0 0 .645h1.9c.022 0 .041-.139.041-.317a.719.719 0 0 0 -.04-.328h-1.9z" fill="#e6e6e6" transform="translate(-590.823 -545.433)"/></g><g transform="translate(42.94 63.568)"><circle cx="1.934" cy="1.934" fill="#f22742" r="1.934"/><path d="m591.831 632.263a1.31 1.31 0 0 0 0 .645h1.9c.022 0 .041-.139.041-.317a.72.72 0 0 0 -.04-.328h-1.9z" fill="#e6e6e6" transform="translate(-590.823 -630.691)"/></g><path d="m0 0h1.424v11.928h-1.424z" fill="#fff" transform="matrix(.70710678 -.70710678 .70710678 .70710678 77.686 21.004)"/><path d="m0 0h1.424v11.928h-1.424z" fill="#fff" transform="matrix(.70710678 .70710678 -.70710678 .70710678 86.12 19.997)"/><rect fill="#fff" height="8" rx="1" width="26" x="12.1" y="37"/><path d="m635.357 454.074a.322.322 0 1 0 0 .645h15.193a.322.322 0 1 0 .025-.644h-15.218z" fill="#e6e6e6" transform="translate(-615.312 -414.85)"/><path d="m635.357 470.058a.322.322 0 1 0 0 .645h15.193a.322.322 0 1 0 .025-.644h-15.218z" fill="#e6e6e6" transform="translate(-615.312 -428.669)"/><g transform="translate(12.821 38.686)"><circle cx="1.934" cy="1.934" fill="#f22742" r="1.934"/><path d="m591.831 461.712a1.309 1.309 0 0 0 0 .645h1.9c.022 0 .041-.139.041-.317a.719.719 0 0 0 -.04-.328h-1.9z" fill="#e6e6e6" transform="translate(-590.823 -460.14)"/></g><path d="m596.341 443.574h-25.541a.493.493 0 0 1 -.473-.51v-6.839a.493.493 0 0 1 .473-.511h25.539a.493.493 0 0 1 .473.511v6.839a.493.493 0 0 1 -.473.511zm-25.541-7.656a.3.3 0 0 0 -.284.306v6.839a.3.3 0 0 0 .284.306h25.539a.3.3 0 0 0 .284-.306v-6.839a.3.3 0 0 0 -.284-.306z" fill="#3f3d56" transform="translate(-559.137 -398.977)"/><rect fill="#fff" height="7" rx="1" width="26" x="12.1" y="49.999"/><path d="m635.357 454.074a.322.322 0 1 0 0 .645h15.193a.322.322 0 1 0 .025-.644h-15.218z" fill="#e6e6e6" transform="translate(-615.312 -402.035)"/><path d="m635.357 470.058a.322.322 0 1 0 0 .645h15.193a.322.322 0 1 0 .025-.644h-15.218z" fill="#e6e6e6" transform="translate(-615.312 -415.854)"/><g transform="translate(12.821 51.501)"><circle cx="1.934" cy="1.934" fill="#f22742" r="1.934"/><path d="m591.831 461.712a1.309 1.309 0 0 0 0 .645h1.9c.022 0 .041-.139.041-.317a.719.719 0 0 0 -.04-.328h-1.9z" fill="#e6e6e6" transform="translate(-590.823 -460.14)"/></g><path d="m596.341 443.574h-25.541a.493.493 0 0 1 -.473-.51v-6.839a.493.493 0 0 1 .473-.511h25.539a.493.493 0 0 1 .473.511v6.839a.493.493 0 0 1 -.473.511zm-25.541-7.656a.3.3 0 0 0 -.284.306v6.839a.3.3 0 0 0 .284.306h25.539a.3.3 0 0 0 .284-.306v-6.839a.3.3 0 0 0 -.284-.306z" fill="#3f3d56" transform="translate(-559.137 -386.162)"/></svg>