<svg id="Group_266" data-name="Group 266" xmlns="http://www.w3.org/2000/svg" width="32" height="31.319" viewBox="0 0 32 31.319">
  <rect id="Rectangle_1718" data-name="Rectangle 1718" width="32" height="31" rx="5" fill="#7aceb0"/>
  <path id="Path_2670" data-name="Path 2670" d="M0,16.851V14l9.734,9.491H32v2.043H11.829l5.936,5.787H14.839L8.9,25.532H8.851v-.051ZM32,23.2,18.68,10.213H0V8.17H16.585L8.205,0h2.926l13.72,13.377V0h2.043V15.369L32,20.347Z" fill="#ffe2af" fill-rule="evenodd"/>
  <ellipse id="Ellipse_343" data-name="Ellipse 343" cx="2.5" cy="0.5" rx="2.5" ry="0.5" transform="translate(7 13)" fill="#51ad8d"/>
  <ellipse id="Ellipse_344" data-name="Ellipse 344" cx="1.702" cy="0.34" rx="1.702" ry="0.34" transform="translate(25.245 26.553)" fill="#51ad8d"/>
  <path id="Path_2671" data-name="Path 2671" d="M12.4,17.033c1.324,0,2.4-3.311,2.4-4.636a2.4,2.4,0,0,0-4.8,0C10,13.722,11.073,17.033,12.4,17.033Zm0-3.517A1.119,1.119,0,1,0,11.279,12.4,1.119,1.119,0,0,0,12.4,13.517Z" transform="translate(-3.191 -3.191)" fill="#ff7c7c" fill-rule="evenodd"/>
  <path id="Path_2672" data-name="Path 2672" d="M38.744,37.115c.963,0,1.744-2.408,1.744-3.371a1.744,1.744,0,0,0-3.488,0C37,34.707,37.781,37.115,38.744,37.115Zm0-2.557a.814.814,0,1,0-.814-.814A.814.814,0,0,0,38.744,34.558Z" transform="translate(-11.809 -10.213)" fill="#ff7c7c" fill-rule="evenodd"/>
</svg>
