<svg id="Group_265" data-name="Group 265" xmlns="http://www.w3.org/2000/svg" width="32" height="20" viewBox="0 0 32 20">
  <rect id="Rectangle_1716" data-name="Rectangle 1716" width="32" height="20" rx="2" fill="#71b2ff"/>
  <path id="Path_2667" data-name="Path 2667" d="M31.84,18.739,0,2V18.739a1.439,1.439,0,0,0,1.516,1.456H29.945a3.238,3.238,0,0,0,1.137-.364A3.021,3.021,0,0,0,31.84,18.739Z" transform="translate(0 -0.484)" fill="#4e88ff"/>
  <path id="Path_2668" data-name="Path 2668" d="M0,18.739,31.84,2V18.739a1.439,1.439,0,0,1-1.516,1.456H1.472A1.825,1.825,0,0,1,.379,19.83,1.746,1.746,0,0,1,0,18.739Z" transform="translate(0 -0.484)" fill="#3d7cea"/>
  <path id="Path_2669" data-name="Path 2669" d="M15.162,10.718,0,2l15.92,8.339Z" transform="translate(0 -0.484)" fill="#3f76e9"/>
</svg>
