<svg xmlns="http://www.w3.org/2000/svg" width="39.4" height="43.357" viewBox="0 0 39.4 43.357">
  <g id="Group_254" data-name="Group 254" transform="translate(-0.865)">
    <path id="Path_2587" data-name="Path 2587" d="M18.575,0a.575.575,0,0,1,.575.575v4.6a.575.575,0,1,1-1.15,0V.575A.575.575,0,0,1,18.575,0Z" transform="translate(2.565 0)" fill="#4e88ff" fill-rule="evenodd"/>
    <path id="Path_2588" data-name="Path 2588" d="M2.374,2.667a.575.575,0,0,1,.813,0L6.454,5.9a.575.575,0,0,1-.809.817L2.377,3.48A.575.575,0,0,1,2.374,2.667Z" transform="translate(0.201 0.374)" fill="#4e88ff" fill-rule="evenodd"/>
    <path id="Path_2589" data-name="Path 2589" d="M33.754,2.667a.575.575,0,0,0-.813,0L29.674,5.9a.575.575,0,0,0,.809.817L33.75,3.48A.575.575,0,0,0,33.754,2.667Z" transform="translate(4.286 0.374)" fill="#4e88ff" fill-rule="evenodd"/>
    <path id="Path_2590" data-name="Path 2590" d="M7.289,6.976,13.714,18.1H.865Z" transform="translate(0 1.044)" fill="#f7cc7f"/>
    <path id="Path_2591" data-name="Path 2591" d="M18.836,6.976,25.261,18.1H12.412Z" transform="translate(1.728 1.044)" fill="#f7cc7f"/>
    <path id="Path_2592" data-name="Path 2592" d="M18,40.838,37.7,16.825H24.247Z" transform="translate(2.565 2.518)" fill="#ffda99"/>
    <path id="Path_2593" data-name="Path 2593" d="M20.719,40.838,1.019,16.825H14.472Z" transform="translate(0.023 2.518)" fill="#ffda99"/>
    <path id="Path_2594" data-name="Path 2594" d="M30.383,6.976,36.808,18.1H23.959Z" transform="translate(3.456 1.044)" fill="#f7cc7f"/>
    <path id="Path_2595" data-name="Path 2595" d="M13.063,18.274,6.638,7.146H19.487Z" transform="translate(0.864 1.07)" fill="#f3bf62"/>
    <path id="Path_2596" data-name="Path 2596" d="M24.61,18.274,18.185,7.146H31.035Z" transform="translate(2.592 1.07)" fill="#f3bf62"/>
    <path id="Path_2597" data-name="Path 2597" d="M18.839,40.643l6.443-23.818H12.4Z" transform="translate(1.726 2.518)" fill="#ffe3b0"/>
  </g>
</svg>
