<svg id="Group_264" data-name="Group 264" xmlns="http://www.w3.org/2000/svg" width="41.121" height="46" viewBox="0 0 41.121 46">
  <path id="Path_2662" data-name="Path 2662" d="M0,16.727A16.727,16.727,0,0,1,16.727,0h0A16.727,16.727,0,0,1,33.455,16.727V46H0Z" fill="#d9d9d9"/>
  <rect id="Rectangle_1695" data-name="Rectangle 1695" width="11" height="46" transform="translate(15 0)" fill="#d9d9d9"/>
  <path id="Path_2663" data-name="Path 2663" d="M11,16.727A16.727,16.727,0,0,1,27.727,0h0A16.727,16.727,0,0,1,44.455,16.727V46H11Z" transform="translate(-3.333)" fill="#e9e9e9"/>
  <rect id="Rectangle_1696" data-name="Rectangle 1696" width="8" height="8" transform="translate(0 38)" fill="#e2b461"/>
  <rect id="Rectangle_1697" data-name="Rectangle 1697" width="33" height="8" transform="translate(8 38)" fill="#f7cc7f"/>
  <path id="Path_2664" data-name="Path 2664" d="M21.986,25.588H38.679a3.427,3.427,0,0,1,3.427,3.427h0a3.427,3.427,0,0,1-3.427,3.427H27.8a3.164,3.164,0,0,0-3.164,3.164h0A3.164,3.164,0,0,0,27.8,38.77h7.955" transform="translate(-6.663 -7.754)" fill="none" stroke="#bababa" stroke-width="2"/>
  <circle id="Ellipse_336" data-name="Ellipse 336" cx="2.939" cy="2.939" r="2.939" transform="translate(27.669 27.995)" fill="#ff7c7c"/>
  <circle id="Ellipse_337" data-name="Ellipse 337" cx="2.939" cy="2.939" r="2.939" transform="translate(13.242 14.636)" fill="#ff7c7c"/>
  <circle id="Ellipse_338" data-name="Ellipse 338" cx="1.336" cy="1.336" r="1.336" transform="translate(29.272 29.598)" fill="#fff"/>
  <circle id="Ellipse_339" data-name="Ellipse 339" cx="1.336" cy="1.336" r="1.336" transform="translate(14.845 16.239)" fill="#fff"/>
</svg>
