<svg xmlns="http://www.w3.org/2000/svg" width="53.667" height="35.25" viewBox="0 0 53.667 35.25">
  <g id="Group_249_1_" data-name="Group 249 (1)" transform="translate(-5.85)">
    <path id="Path_2581" data-name="Path 2581" d="M44.7,2.977a11.247,11.247,0,0,0,3.535.957,11.248,11.248,0,0,0,3.535-.957V8.718a11.248,11.248,0,0,1-3.535.957A11.247,11.247,0,0,1,44.7,8.718Z" fill="#f57d49"/>
    <path id="Path_2582" data-name="Path 2582" d="M44.7,8.186v.558a2.731,2.731,0,0,0,2.6-1.3A6.241,6.241,0,0,0,44.7,8.186Z" fill="#d86230"/>
    <path id="Path_2583" data-name="Path 2583" d="M38.744,1.86a16.235,16.235,0,0,0,4.279.93A16.235,16.235,0,0,0,47.3,1.86V7.442a16.235,16.235,0,0,1-4.279.93,16.235,16.235,0,0,1-4.279-.93Z" fill="#ff8b5a"/>
    <path id="Path_2584" data-name="Path 2584" d="M38.558,0a.558.558,0,0,1,.558.558V15.442a.558.558,0,0,1-1.116,0V.558A.558.558,0,0,1,38.558,0Z" fill="#bababa" fill-rule="evenodd"/>
    <path id="Path_2585" data-name="Path 2585" d="M37.08,12.431a2,2,0,0,1,2.839,0L58.933,31.591A2,2,0,0,1,57.514,35H19.486a2,2,0,0,1-1.42-3.409Z" fill="#262838"/>
    <path id="Path_2586" data-name="Path 2586" d="M21.574,16.45a2,2,0,0,1,2.852,0l15.146,15.4a2,2,0,0,1-1.426,3.4H7.854a2,2,0,0,1-1.426-3.4Z" fill="#6b6c7a"/>
  </g>
</svg>
