<svg xmlns="http://www.w3.org/2000/svg" width="29.825" height="28.764" viewBox="0 0 29.825 28.764">
  <g id="Group_1277" data-name="Group 1277" transform="translate(-36.863 -623.975)">
    <g id="Stockholm_icons_Communication_Call_1" data-name="Stockholm icons / Communication / Call#1" transform="translate(65.451 623.998) rotate(90)">
      <path id="Path" d="M12.586,16.339l3.619-3.619a3.284,3.284,0,0,0,.616-3.791l-.205-.41a3.286,3.286,0,0,1,.614-3.791L21.718.241a.822.822,0,0,1,1.315.213l1.813,3.625A7.207,7.207,0,0,1,23.5,12.4l-9.851,9.85A8.909,8.909,0,0,1,4.527,24.4L.562,23.077a.82.82,0,0,1-.519-1.038.809.809,0,0,1,.2-.321l4.353-4.354a3.283,3.283,0,0,1,3.79-.615l.411.205A3.285,3.285,0,0,0,12.586,16.339Z" transform="translate(0)" fill="#3c5768"/>
    </g>
    <path id="Path_2665" data-name="Path 2665" d="M2489.941,4104.072s3.467-3.1,4.342-3.1,4.762,3.575,5.505,5.354.755,2.2-3.339,4.52C2494.971,4111.939,2489.941,4104.072,2489.941,4104.072Z" transform="translate(-2451.139 -3477)" fill="#648092"/>
    <path id="Path_2666" data-name="Path 2666" d="M0,7.044s5.043,4.927,6.621,4.789c1.151.127,2.6-4.379,3.344-6.158S10.646,2.052,5.84.1C4.362-.989,0,7.044,0,7.044Z" transform="translate(52.038 648.691) rotate(-70)" fill="#648092"/>
    <g id="Stockholm_icons_Communication_Call_1-2" data-name="Stockholm icons / Communication / Call#1" transform="translate(61.719 626.798) rotate(90)">
      <path id="Path-2" data-name="Path" d="M12.586,16.339l3.619-3.619a3.284,3.284,0,0,0,.616-3.791l-.205-.41a3.286,3.286,0,0,1,.614-3.791L21.718.241a.822.822,0,0,1,1.315.213l1.813,3.625A7.207,7.207,0,0,1,23.5,12.4l-9.851,9.85A8.909,8.909,0,0,1,4.527,24.4L.562,23.077a.82.82,0,0,1-.519-1.038.809.809,0,0,1,.2-.321l4.353-4.354a3.283,3.283,0,0,1,3.79-.615l.411.205A3.285,3.285,0,0,0,12.586,16.339Z" transform="translate(0)" fill="#466172"/>
    </g>
  </g>
</svg>
