<svg id="Group_252" data-name="Group 252" xmlns="http://www.w3.org/2000/svg" width="43.509" height="45.297" viewBox="0 0 43.509 45.297">
  <path id="Path_2576" data-name="Path 2576" d="M14.226,36.3A9.434,9.434,0,0,1,9.041,35a10.9,10.9,0,0,1-3.313-3.313,17.323,17.323,0,0,1-2.016-5.041A29.849,29.849,0,0,1,3.28,22.18a23.7,23.7,0,0,1,3.6-12.819Q10.481,3.6,18.115,0l1.3,2.593A20.018,20.018,0,0,0,11.634,8.5a13.209,13.209,0,0,0-3.169,8.21A9.575,9.575,0,0,0,8.9,19.732a8.206,8.206,0,0,1,5.329-1.872,9.4,9.4,0,0,1,6.481,2.448,8.617,8.617,0,0,1,2.737,6.769A8.726,8.726,0,0,1,20.707,33.7,9.107,9.107,0,0,1,14.226,36.3Z" transform="translate(1.641)" fill="#ff7575"/>
  <path id="Path_2577" data-name="Path 2577" d="M4.887,16.5a4.152,4.152,0,0,1-2.315-.589,4.913,4.913,0,0,1-1.479-1.506,7.962,7.962,0,0,1-.9-2.292A13.817,13.817,0,0,1,0,10.085,10.924,10.924,0,0,1,1.607,4.257,11.51,11.51,0,0,1,6.623,0L7.2,1.179A8.955,8.955,0,0,0,3.729,3.864,6.071,6.071,0,0,0,2.315,7.6a4.428,4.428,0,0,0,.193,1.375,3.622,3.622,0,0,1,2.379-.851A4.152,4.152,0,0,1,7.78,9.234,3.955,3.955,0,0,1,9,12.312,4,4,0,0,1,7.78,15.324,4.027,4.027,0,0,1,4.887,16.5Z" fill="#f35454"/>
  <path id="Path_2578" data-name="Path 2578" d="M27.115,19a4.152,4.152,0,0,1,2.315.589A4.912,4.912,0,0,1,30.909,21.1a7.963,7.963,0,0,1,.9,2.292A13.821,13.821,0,0,1,32,25.418a10.924,10.924,0,0,1-1.607,5.829A11.51,11.51,0,0,1,25.379,35.5L24.8,34.324a8.956,8.956,0,0,0,3.472-2.685,6.071,6.071,0,0,0,1.414-3.733,4.429,4.429,0,0,0-.193-1.375,3.622,3.622,0,0,1-2.379.851,4.152,4.152,0,0,1-2.893-1.113A3.954,3.954,0,0,1,23,23.191,4.1,4.1,0,0,1,27.115,19Z" transform="translate(11.507 9.506)" fill="#f35454"/>
  <path id="Path_2579" data-name="Path 2579" d="M19.251,20.879q0,.086,0,.172a10.452,10.452,0,0,1-.189,2.019c-3.385-.99-9.113-4.294-6.915-11.025l.023,0C12.185,14.519,12.951,19.284,19.251,20.879Z" transform="translate(5.833 6.026)" fill="#f15b5b" fill-rule="evenodd"/>
  <path id="Path_2580" data-name="Path 2580" d="M21.218,6A9.434,9.434,0,0,1,26.4,7.3a10.9,10.9,0,0,1,3.313,3.313,17.323,17.323,0,0,1,2.016,5.041,29.849,29.849,0,0,1,.432,4.465,23.7,23.7,0,0,1-3.6,12.819q-3.6,5.761-11.234,9.362l-1.3-2.593A20.018,20.018,0,0,0,23.81,33.8a13.209,13.209,0,0,0,3.169-8.21,9.575,9.575,0,0,0-.432-3.025,8.206,8.206,0,0,1-5.329,1.872,9.4,9.4,0,0,1-6.481-2.448A8.617,8.617,0,0,1,12,15.218a8.726,8.726,0,0,1,2.737-6.625A9.107,9.107,0,0,1,21.218,6Z" transform="translate(6.004 3.002)" fill="#f7cc7f"/>
</svg>
