<svg xmlns="http://www.w3.org/2000/svg" data-name="Layer 1" viewBox="0 0 128 128"><path d="M14 2V16a2 2 0 0 0 4 0V4H30a2 2 0 0 0 0-4H16A2 2 0 0 0 14 2zM114 2a2 2 0 0 0-2-2H98a2 2 0 0 0 0 4h12V16a2 2 0 0 0 4 0zM14 73a2 2 0 0 0 2 2H30a2 2 0 0 0 0-4H18V59a2 2 0 0 0-4 0zM98 75h14a2 2 0 0 0 2-2V59a2 2 0 0 0-4 0V71H98a2 2 0 0 0 0 4z"/><circle cx="16" cy="38" r="2"/><circle cx="112" cy="38" r="2"/><path d="M120,102c-1.34-21-28.71-25.39-28.71-25.39A13.83,13.83,0,0,1,80.49,67.4,54.31,54.31,0,0,0,91.77,45.88a34,34,0,0,0,1.23-9,29,29,0,0,0-58,0A50.2,50.2,0,0,0,46.69,68.12c.15.17.3.34.46.5a13.64,13.64,0,0,1-10.28,8S9.49,81,8.15,102c0,0-.65,5,.74,18A9.17,9.17,0,0,0,17.82,128h92.5a9,9,0,0,0,8.77-8A167.31,167.31,0,0,0,120,102ZM39,36.91A24.64,24.64,0,0,1,46.64,19,25,25,0,0,1,89,36.91a30.33,30.33,0,0,1-1.08,7.91c-2.68,9.77-7.85,18.35-14.18,23.55A15.73,15.73,0,0,1,63.61,72,18.58,18.58,0,0,1,49.7,65.49,46.5,46.5,0,0,1,39,36.91ZM64,120a2,2,0,1,1,2-2A2,2,0,0,1,64,120Zm2-10a2,2,0,0,1-4,0V92.68L46.71,76a18.64,18.64,0,0,0,3.5-4.6A22.38,22.38,0,0,0,63.61,76a19.72,19.72,0,0,0,12.67-4.54c.4-.32.78-.66,1.16-1a19.07,19.07,0,0,0,4.29,5.81L66,92.53Z"/></svg>