<svg xmlns="http://www.w3.org/2000/svg" width="500mm" height="500mm" fill-rule="evenodd" clip-rule="evenodd" image-rendering="optimizeQuality" shape-rendering="geometricPrecision" text-rendering="geometricPrecision" viewBox="0 0 50000 50000"><path fill-rule="nonzero" d="M34621 6000c-552 0-1000-448-1000-1000s448-1000 1000-1000h5379c1651 0 3151 675 4238 1762s1762 2587 1762 4238v5268c0 552-448 1000-1000 1000s-1000-448-1000-1000v-5268c0-1099-450-2099-1176-2824-725-725-1725-1176-2824-1176h-5379zm9379 28826c0-552 448-1000 1000-1000s1000 448 1000 1000v5174c0 1651-675 3151-1762 4238s-2587 1762-4238 1762h-5416c-552 0-1000-448-1000-1000s448-1000 1000-1000h5416c1099 0 2099-450 2824-1176 725-725 1176-1725 1176-2824v-5174zm-28836 9174c552 0 1000 448 1000 1000s-448 1000-1000 1000h-5164c-1651 0-3151-675-4238-1762s-1762-2587-1762-4238v-5174c0-552 448-1000 1000-1000s1000 448 1000 1000v5174c0 1099 450 2099 1176 2824 725 725 1725 1176 2824 1176h5164zM6000 15183c0 552-448 1000-1000 1000s-1000-448-1000-1000v-5183c0-1651 675-3151 1762-4238s2587-1762 4238-1762h5317c552 0 1000 448 1000 1000s-448 1000-1000 1000h-5317c-1099 0-2099 450-2824 1176-725 725-1176 1725-1176 2824v5183zm10374 1284c506 0 921 414 921 921v2936c0 506-414 921-921 921-506 0-921-414-921-921v-2936c0-506 414-921 921-921zm8314 1116c2-550 450-994 1000-992s994 450 992 1000l-58 8218c-4 600-33 1421-404 2162-433 865-1231 1524-2722 1484-550-13-986-469-973-1020 13-550 469-986 1020-973 529 14 781-156 894-382 175-350 190-883 193-1279l58-8218zm-7372 15978c-326-444-230-1069 215-1395 444-326 1069-230 1395 215 191 261 415 499 665 714 1222 1050 3077 1597 5003 1620 1945 23 3931-490 5389-1558 359-263 683-558 964-885 358-419 988-467 1406-109 419 358 467 988 109 1406-386 449-823 848-1300 1197-1816 1330-4242 1969-6592 1941-2370-28-4693-735-6276-2096-368-316-697-667-978-1050zm16170-17094c506 0 921 414 921 921v2936c0 506-414 921-921 921-506 0-921-414-921-921v-2936c0-506 414-921 921-921z"/></svg>